version 1
nodes
0 "blender_implicit" -1
1 "root" -1
2 "upperarm_l" 1
3 "lowerarm_l" 2
4 "hand_l" 3
5 "upperarm_r" 1
6 "lowerarm_r" 5
7 "hand_r" 6
8 "ik_upperarm_l" 1
9 "ik_lowerarm_l" 8
10 "ik_upperarm_r" 1
11 "ik_lowerarm_r" 10
12 "ctrl_ik_hand_l" -1
13 "thumb_0_l" 12
14 "thumb_1_l" 13
15 "thumb_2_l" 14
16 "ik_hand_l" 12
17 "pinky_0_l" 12
18 "pinky_1_l" 17
19 "pinky_2_l" 18
20 "ring_0_l" 12
21 "ring_1_l" 20
22 "ring_2_l" 21
23 "middle_0_l" 12
24 "middle_1_l" 23
25 "middle_2_l" 24
26 "index_0_l" 12
27 "index_1_l" 26
28 "index_2_l" 27
29 "ctrl_pinky_0_l" 12
30 "ctrl_ring_0_l" 12
31 "ctrl_middle_0_l" 12
32 "ctrl_thumb_0_l" 12
33 "ctrl_index_0_l" 12
34 "ctrl_ik_hand_r" -1
35 "thumb_0_r" 34
36 "thumb_1_r" 35
37 "thumb_2_r" 36
38 "ik_hand_r" 34
39 "pinky_0_r" 34
40 "pinky_1_r" 39
41 "pinky_2_r" 40
42 "ring_0_r" 34
43 "ring_1_r" 42
44 "ring_2_r" 43
45 "middle_0_r" 34
46 "middle_1_r" 45
47 "middle_2_r" 46
48 "index_0_r" 34
49 "index_1_r" 48
50 "index_2_r" 49
51 "ctrl_pinky_0_r" 34
52 "ctrl_ring_0_r" 34
53 "ctrl_middle_0_r" 34
54 "ctrl_thumb_0_r" 34
55 "ctrl_index_0_r" 34
56 "TGT_elbow_l" -1
57 "TGT_elbow_r" -1
end
skeleton
time 0
0  0 0 0  0 0 0
1  0.000000 0.000000 0.000000  1.570796 -0.000000 0.000000
2  6.688313 0.001464 -14.999999  -0.002398 -0.014785 3.133134
3  0.000000 13.479277 0.000000  0.004794 -0.000000 -0.000000
4  0.000000 13.477238 -0.000001  -0.002271 0.014804 0.008425
5  -6.688313 -4.804171 -12.439356  1.127797 -0.355034 2.283442
6  0.000000 13.479276 -0.000000  1.385458 0.000000 0.000000
7  0.000001 13.476105 0.000603  -0.104814 -0.300653 -0.153729
8  6.688313 0.001464 -14.999999  -0.002398 -0.014785 3.133134
9  0.000000 13.479276 -0.000001  0.004794 -0.000000 -0.000000
10  -6.688313 -4.804171 -12.439356  1.127797 -0.355034 2.283442
11  -0.000000 13.479278 -0.000000  1.385458 0.000000 0.000000
12  6.459835 15.000005 -27.008226  -1.570796 0.000000 -3.141593
13  0.315441 0.857300 0.755945  1.693110 0.558403 1.580881
14  -0.000000 2.265958 -0.000000  -0.054476 -0.046859 -0.239013
15  0.000002 1.457790 -0.000000  -0.029610 0.046486 0.034281
16  0.000000 0.000001 0.000000  0.000000 0.000000 0.000000
17  -0.267268 3.664729 -1.953291  -0.098467 -0.016034 -0.179584
18  -0.000000 1.180354 -0.000003  -0.033181 -0.022953 -0.217935
19  0.000000 0.817134 0.000000  0.004664 0.004350 -0.032954
20  -0.249421 3.688540 -0.940890  -0.060576 -0.012076 -0.130826
21  -0.000000 1.800632 -0.000000  0.005243 0.037415 -0.208300
22  -0.000001 1.243409 0.000001  0.008899 -0.018126 -0.064505
23  -0.244727 3.701142 0.087733  0.004715 -0.006542 -0.101191
24  0.000000 1.766551 -0.000000  0.000434 0.004864 -0.221529
25  0.000002 1.188985 0.000001  -0.017652 -0.001255 -0.114272
26  -0.277238 3.632237 1.274099  0.048422 0.007979 -0.101953
27  0.000000 1.798504 -0.000001  0.036739 0.009204 -0.243113
28  0.000001 1.235415 -0.000001  -0.004862 0.006957 -0.025328
29  -1.200000 3.171094 -1.751965  -0.144885 -0.000000 0.000000
30  -1.200000 3.300080 -0.816645  -0.105159 -0.000000 0.000000
31  -1.200000 3.313607 0.085844  0.000000 0.000000 0.000000
32  0.404038 -0.245037 1.877656  1.692843 0.702695 1.586968
33  -1.200000 3.180405 1.195909  0.077252 -0.000000 -0.000000
34  1.757469 -6.406062 -6.739920  -2.346294 -2.227986 0.037439
35  -0.315440 0.857299 0.755944  -0.632935 -2.489289 1.109260
36  -0.000000 2.265958 -0.000000  -0.028221 0.066076 0.696094
37  -0.000001 1.457792 -0.000000  -0.047073 -0.028667 0.422442
38  0.000001 -0.000000 -0.000000  0.000000 -0.000000 -0.000000
39  0.267270 3.664726 -1.953292  0.093381 0.070040 1.132755
40  0.000001 1.180356 0.000000  -0.007680 0.039606 0.992191
41  -0.000001 0.817135 0.000001  0.000294 -0.006371 0.806991
42  0.249423 3.688538 -0.940889  0.019033 0.060002 1.265216
43  0.000001 1.800633 -0.000000  -0.031699 -0.020558 1.343188
44  0.000000 1.243411 -0.000000  0.020188 -0.000404 1.198884
45  0.244727 3.701138 0.087734  -0.045061 -0.001508 1.235634
46  -0.000001 1.766551 0.000000  -0.004224 -0.002449 1.355999
47  -0.000000 1.188989 -0.000001  -0.006323 0.016529 1.248695
48  0.277240 3.632237 1.274100  -0.125397 -0.047256 1.236297
49  0.000001 1.798507 -0.000001  0.007186 -0.037186 1.377612
50  -0.000000 1.235416 -0.000001  -0.008360 0.001466 1.159769
51  1.200001 3.171093 -1.751966  0.053247 0.098542 0.950163
52  1.200000 3.300079 -0.816645  -0.010878 0.095274 1.132339
53  1.200000 3.313606 0.085843  -0.052983 -0.000000 1.134464
54  -0.404038 -0.245037 1.877656  -0.544797 -2.361138 1.044998
55  1.200001 3.180404 1.195908  -0.105935 -0.070002 1.133319
56  6.459834 22.699871 -13.549168  -0.000000 1.570796 0.000000
57  -15.293530 7.699870 -14.562589  0.000000 -0.000000 0.000000
time 1
0  0 0 0  0 0 0
1  0.000000 0.000000 0.000000  1.570796 -0.000000 0.000000
2  6.688313 0.001464 -14.999999  -0.002398 -0.014785 3.133134
3  0.000000 13.479277 0.000000  0.004794 -0.000000 -0.000000
4  0.000000 13.477238 -0.000001  -0.002271 0.014804 0.008425
5  -6.586934 -5.251091 -10.224625  1.099282 -0.200671 2.275069
6  0.000000 13.479277 0.000002  1.282600 0.000000 0.000000
7  0.000000 13.475758 0.000704  -0.295783 -0.239830 -0.083081
8  6.688313 0.001464 -14.999999  -0.002398 -0.014785 3.133134
9  0.000000 13.479276 -0.000001  0.004794 -0.000000 -0.000000
10  -6.586934 -5.251091 -10.224625  1.099282 -0.200671 2.275069
11  0.000000 13.479277 0.000001  1.282600 0.000000 0.000000
12  6.459835 15.000005 -27.008226  -1.570796 0.000000 -3.141593
13  0.315441 0.857300 0.755945  1.693110 0.558403 1.580881
14  -0.000000 2.265958 -0.000000  -0.054476 -0.046859 -0.239013
15  0.000002 1.457790 -0.000000  -0.029610 0.046486 0.034281
16  0.000000 0.000001 0.000000  0.000000 0.000000 0.000000
17  -0.267268 3.664729 -1.953291  -0.098467 -0.016034 -0.179584
18  -0.000000 1.180354 -0.000003  -0.033181 -0.022953 -0.217935
19  0.000000 0.817134 0.000000  0.004664 0.004350 -0.032954
20  -0.249421 3.688540 -0.940890  -0.060576 -0.012076 -0.130826
21  -0.000000 1.800632 -0.000000  0.005243 0.037415 -0.208300
22  -0.000001 1.243409 0.000001  0.008899 -0.018126 -0.064505
23  -0.244727 3.701142 0.087733  0.004715 -0.006542 -0.101191
24  0.000000 1.766551 -0.000000  0.000434 0.004864 -0.221529
25  0.000002 1.188985 0.000001  -0.017652 -0.001255 -0.114272
26  -0.277238 3.632237 1.274099  0.048422 0.007979 -0.101953
27  0.000000 1.798504 -0.000001  0.036739 0.009204 -0.243113
28  0.000001 1.235415 -0.000001  -0.004862 0.006957 -0.025328
29  -1.200000 3.171094 -1.751965  -0.144885 -0.000000 0.000000
30  -1.200000 3.300080 -0.816645  -0.105159 -0.000000 0.000000
31  -1.200000 3.313607 0.085844  0.000000 0.000000 0.000000
32  0.404038 -0.245037 1.877656  1.692843 0.702695 1.586968
33  -1.200000 3.180405 1.195909  0.077252 -0.000000 -0.000000
34  -1.059231 -10.637013 -6.122849  0.558572 -0.971248 3.088016
35  -0.315441 0.857300 0.755943  -0.632935 -2.489289 1.109260
36  -0.000000 2.265957 0.000000  -0.028221 0.066076 0.696094
37  -0.000000 1.457791 0.000000  -0.047073 -0.028667 0.422442
38  0.000000 -0.000001 0.000000  0.000000 0.000000 0.000000
39  0.267269 3.664725 -1.953293  0.093381 0.070040 1.132755
40  -0.000001 1.180355 0.000001  -0.007680 0.039606 0.992191
41  0.000000 0.817135 0.000001  0.000294 -0.006371 0.806991
42  0.249424 3.688538 -0.940888  0.019033 0.060002 1.265216
43  0.000000 1.800633 0.000000  -0.031699 -0.020559 1.343188
44  0.000001 1.243409 -0.000000  0.020188 -0.000404 1.198885
45  0.244726 3.701137 0.087733  -0.045061 -0.001508 1.235634
46  0.000000 1.766550 0.000001  -0.004225 -0.002449 1.355999
47  -0.000000 1.188989 0.000001  -0.006323 0.016529 1.248695
48  0.277239 3.632236 1.274099  -0.125397 -0.047256 1.236297
49  0.000000 1.798505 -0.000001  0.007186 -0.037186 1.377612
50  -0.000000 1.235416 0.000000  -0.008360 0.001466 1.159770
51  1.200000 3.171092 -1.751965  0.053247 0.098542 0.950163
52  1.200000 3.300079 -0.816645  -0.010878 0.095274 1.132339
53  1.200000 3.313605 0.085845  -0.052983 -0.000000 1.134464
54  -0.404038 -0.245038 1.877657  -0.544797 -2.361138 1.044998
55  1.200000 3.180404 1.195908  -0.105935 -0.070002 1.133319
56  6.459834 22.699871 -13.549168  -0.000000 1.570796 0.000000
57  -15.730864 7.699870 -13.693826  0.000000 -0.000000 0.000000
time 2
0  0 0 0  0 0 0
1  0.000000 0.000000 0.000000  1.570796 -0.000000 0.000000
2  6.688313 0.001464 -14.999999  -0.002398 -0.014785 3.133134
3  0.000000 13.479277 0.000000  0.004794 -0.000000 -0.000000
4  0.000000 13.477238 -0.000001  -0.002271 0.014804 0.008425
5  -6.398657 -6.081086 -6.111552  1.178462 0.036852 2.086411
6  -0.000000 13.479277 -0.000000  0.836619 -0.000000 0.000000
7  0.000000 13.476102 0.000378  -0.501888 -0.066344 -0.083355
8  6.688313 0.001464 -14.999999  -0.002398 -0.014785 3.133134
9  0.000000 13.479276 -0.000001  0.004794 -0.000000 -0.000000
10  -6.398657 -6.081086 -6.111552  1.178462 0.036852 2.086411
11  -0.000001 13.479276 0.000000  0.836619 -0.000000 0.000000
12  6.459835 15.000005 -27.008226  -1.570796 0.000000 -3.141593
13  0.315441 0.857300 0.755945  1.693110 0.558403 1.580881
14  -0.000000 2.265958 -0.000000  -0.054476 -0.046859 -0.239013
15  0.000002 1.457790 -0.000000  -0.029610 0.046486 0.034281
16  0.000000 0.000001 0.000000  0.000000 0.000000 0.000000
17  -0.267268 3.664729 -1.953291  -0.098467 -0.016034 -0.179584
18  -0.000000 1.180354 -0.000003  -0.033181 -0.022953 -0.217935
19  0.000000 0.817134 0.000000  0.004664 0.004350 -0.032954
20  -0.249421 3.688540 -0.940890  -0.060576 -0.012076 -0.130826
21  -0.000000 1.800632 -0.000000  0.005243 0.037415 -0.208300
22  -0.000001 1.243409 0.000001  0.008899 -0.018126 -0.064505
23  -0.244727 3.701142 0.087733  0.004715 -0.006542 -0.101191
24  0.000000 1.766551 -0.000000  0.000434 0.004864 -0.221529
25  0.000002 1.188985 0.000001  -0.017652 -0.001255 -0.114272
26  -0.277238 3.632237 1.274099  0.048422 0.007979 -0.101953
27  0.000000 1.798504 -0.000001  0.036739 0.009204 -0.243113
28  0.000001 1.235415 -0.000001  -0.004862 0.006957 -0.025328
29  -1.200000 3.171094 -1.751965  -0.144885 -0.000000 0.000000
30  -1.200000 3.300080 -0.816645  -0.105159 -0.000000 0.000000
31  -1.200000 3.313607 0.085844  0.000000 0.000000 0.000000
32  0.404038 -0.245037 1.877656  1.692843 0.702695 1.586968
33  -1.200000 3.180405 1.195909  0.077252 -0.000000 -0.000000
34  -6.290245 -18.494495 -4.976865  0.193551 -1.061455 2.850225
35  -0.315441 0.857300 0.755943  -0.632935 -2.489289 1.109260
36  -0.000000 2.265960 0.000001  -0.028221 0.066076 0.696094
37  0.000000 1.457791 -0.000000  -0.047073 -0.028667 0.422442
38  -0.000000 0.000001 0.000000  0.000000 -0.000000 -0.000000
39  0.267269 3.664728 -1.953294  0.093381 0.070040 1.132755
40  -0.000000 1.180354 -0.000001  -0.007680 0.039606 0.992191
41  0.000001 0.817134 0.000001  0.000294 -0.006371 0.806991
42  0.249423 3.688537 -0.940888  0.019033 0.060002 1.265216
43  -0.000000 1.800633 -0.000000  -0.031699 -0.020559 1.343188
44  0.000001 1.243412 -0.000000  0.020188 -0.000404 1.198884
45  0.244726 3.701141 0.087733  -0.045061 -0.001508 1.235634
46  0.000000 1.766551 0.000000  -0.004224 -0.002449 1.355999
47  0.000001 1.188991 -0.000000  -0.006323 0.016529 1.248695
48  0.277239 3.632237 1.274101  -0.125397 -0.047256 1.236297
49  0.000001 1.798505 -0.000000  0.007186 -0.037186 1.377612
50  0.000001 1.235415 -0.000001  -0.008360 0.001466 1.159769
51  1.200000 3.171094 -1.751966  0.053247 0.098542 0.950163
52  1.200000 3.300081 -0.816644  -0.010878 0.095274 1.132339
53  1.200000 3.313608 0.085844  -0.052983 -0.000000 1.134464
54  -0.404038 -0.245036 1.877657  -0.544797 -2.361138 1.044998
55  1.200000 3.180404 1.195909  -0.105935 -0.070002 1.133319
56  6.459834 22.699871 -13.549168  -0.000000 1.570796 0.000000
57  -16.865318 7.699870 -12.080410  0.000000 -0.000000 0.000000
time 3
0  0 0 0  0 0 0
1  0.000000 0.000000 0.000000  1.570796 -0.000000 0.000000
2  6.688313 0.001464 -14.999999  -0.002398 -0.014785 3.133134
3  0.000000 13.479277 0.000000  0.004794 -0.000000 -0.000000
4  0.000000 13.477238 -0.000001  -0.002271 0.014804 0.008425
5  -6.297277 -6.528007 -3.896822  1.412952 0.111207 1.906531
6  -0.000000 13.479277 -0.000000  0.171227 0.000000 0.000000
7  -0.000000 13.477236 0.000000  -0.409227 0.093163 -0.125750
8  6.688313 0.001464 -14.999999  -0.002398 -0.014785 3.133134
9  0.000000 13.479276 -0.000001  0.004794 -0.000000 -0.000000
10  -6.297277 -6.528007 -3.896822  1.412952 0.111207 1.906531
11  0.000000 13.479275 0.000001  0.171227 0.000000 0.000000
12  6.459835 15.000005 -27.008226  -1.570796 0.000000 -3.141593
13  0.315441 0.857300 0.755945  1.693110 0.558403 1.580881
14  -0.000000 2.265958 -0.000000  -0.054476 -0.046859 -0.239013
15  0.000002 1.457790 -0.000000  -0.029610 0.046486 0.034281
16  0.000000 0.000001 0.000000  0.000000 0.000000 0.000000
17  -0.267268 3.664729 -1.953291  -0.098467 -0.016034 -0.179584
18  -0.000000 1.180354 -0.000003  -0.033181 -0.022953 -0.217935
19  0.000000 0.817134 0.000000  0.004664 0.004350 -0.032954
20  -0.249421 3.688540 -0.940890  -0.060576 -0.012076 -0.130826
21  -0.000000 1.800632 -0.000000  0.005243 0.037415 -0.208300
22  -0.000001 1.243409 0.000001  0.008899 -0.018126 -0.064505
23  -0.244727 3.701142 0.087733  0.004715 -0.006542 -0.101191
24  0.000000 1.766551 -0.000000  0.000434 0.004864 -0.221529
25  0.000002 1.188985 0.000001  -0.017652 -0.001255 -0.114272
26  -0.277238 3.632237 1.274099  0.048422 0.007979 -0.101953
27  0.000000 1.798504 -0.000001  0.036739 0.009204 -0.243113
28  0.000001 1.235415 -0.000001  -0.004862 0.006957 -0.025328
29  -1.200000 3.171094 -1.751965  -0.144885 -0.000000 0.000000
30  -1.200000 3.300080 -0.816645  -0.105159 -0.000000 0.000000
31  -1.200000 3.313607 0.085844  0.000000 0.000000 0.000000
32  0.404038 -0.245037 1.877656  1.692843 0.702695 1.586968
33  -1.200000 3.180405 1.195909  0.077252 -0.000000 -0.000000
34  -9.106945 -22.725447 -4.359795  0.092568 -1.081662 2.624010
35  -0.315440 0.857294 0.755942  -0.632935 -2.489289 1.109260
36  0.000001 2.265957 0.000001  -0.028221 0.066076 0.696094
37  0.000000 1.457793 0.000000  -0.047073 -0.028667 0.422442
38  0.000000 -0.000003 0.000000  -0.000000 -0.000000 -0.000000
39  0.267270 3.664724 -1.953293  0.093381 0.070040 1.132755
40  0.000000 1.180356 0.000000  -0.007680 0.039606 0.992191
41  -0.000002 0.817136 -0.000001  0.000294 -0.006371 0.806991
42  0.249423 3.688535 -0.940888  0.019033 0.060002 1.265216
43  0.000001 1.800632 -0.000001  -0.031699 -0.020559 1.343188
44  0.000002 1.243410 0.000000  0.020188 -0.000404 1.198884
45  0.244727 3.701135 0.087734  -0.045061 -0.001508 1.235634
46  0.000000 1.766550 0.000000  -0.004224 -0.002449 1.355999
47  -0.000000 1.188987 0.000001  -0.006323 0.016529 1.248695
48  0.277240 3.632237 1.274102  -0.125397 -0.047256 1.236297
49  -0.000000 1.798506 -0.000001  0.007186 -0.037186 1.377612
50  0.000001 1.235416 0.000000  -0.008360 0.001466 1.159769
51  1.200000 3.171090 -1.751966  0.053247 0.098542 0.950163
52  1.200000 3.300079 -0.816645  -0.010878 0.095274 1.132339
53  1.200000 3.313605 0.085845  -0.052983 -0.000000 1.134464
54  -0.404038 -0.245039 1.877656  -0.544797 -2.361138 1.044998
55  1.200001 3.180402 1.195909  -0.105935 -0.070002 1.133319
56  6.459834 22.699871 -13.549168  -0.000000 1.570796 0.000000
57  -18.430582 7.699870 -11.211648  0.000000 -0.000000 0.000000
time 4
0  0 0 0  0 0 0
1  0.000000 0.000000 0.000000  1.570796 -0.000000 0.000000
2  6.688313 0.001464 -14.999999  -0.002398 -0.014785 3.133134
3  0.000000 13.479277 0.000000  0.004794 -0.000000 -0.000000
4  0.000000 13.477238 -0.000001  -0.002271 0.014804 0.008425
5  -6.306061 -6.468891 -4.861188  1.205732 0.114134 1.916307
6  0.000000 13.479276 0.000000  0.581266 -0.000000 0.000000
7  0.000000 13.476960 0.000063  -0.161933 0.054173 -0.162823
8  6.688313 0.001464 -14.999999  -0.002398 -0.014785 3.133134
9  0.000000 13.479276 -0.000001  0.004794 -0.000000 -0.000000
10  -6.306061 -6.468891 -4.861188  1.205732 0.114134 1.916307
11  0.000000 13.479275 0.000000  0.581266 -0.000000 0.000000
12  6.459835 15.000005 -27.008226  -1.570796 0.000000 -3.141593
13  0.315441 0.857300 0.755945  1.693110 0.558403 1.580881
14  -0.000000 2.265958 -0.000000  -0.054476 -0.046859 -0.239013
15  0.000002 1.457790 -0.000000  -0.029610 0.046486 0.034281
16  0.000000 0.000001 0.000000  0.000000 0.000000 0.000000
17  -0.267268 3.664729 -1.953291  -0.098467 -0.016034 -0.179584
18  -0.000000 1.180354 -0.000003  -0.033181 -0.022953 -0.217935
19  0.000000 0.817134 0.000000  0.004664 0.004350 -0.032954
20  -0.249421 3.688540 -0.940890  -0.060576 -0.012076 -0.130826
21  -0.000000 1.800632 -0.000000  0.005243 0.037415 -0.208300
22  -0.000001 1.243409 0.000001  0.008899 -0.018126 -0.064505
23  -0.244727 3.701142 0.087733  0.004715 -0.006542 -0.101191
24  0.000000 1.766551 -0.000000  0.000434 0.004864 -0.221529
25  0.000002 1.188985 0.000001  -0.017652 -0.001255 -0.114272
26  -0.277238 3.632237 1.274099  0.048422 0.007979 -0.101953
27  0.000000 1.798504 -0.000001  0.036739 0.009204 -0.243113
28  0.000001 1.235415 -0.000001  -0.004862 0.006957 -0.025328
29  -1.200000 3.171094 -1.751965  -0.144885 -0.000000 0.000000
30  -1.200000 3.300080 -0.816645  -0.105159 -0.000000 0.000000
31  -1.200000 3.313607 0.085844  0.000000 0.000000 0.000000
32  0.404038 -0.245037 1.877656  1.692843 0.702695 1.586968
33  -1.200000 3.180405 1.195909  0.077252 -0.000000 -0.000000
34  -9.106945 -20.725447 -4.359796  0.580631 -1.066876 2.578522
35  -0.315440 0.857295 0.755945  -0.632935 -2.489289 1.109260
36  -0.000001 2.265958 0.000001  -0.028221 0.066076 0.696094
37  -0.000000 1.457792 0.000000  -0.047073 -0.028667 0.422442
38  0.000001 -0.000003 0.000000  -0.000000 0.000000 -0.000000
39  0.267270 3.664724 -1.953292  0.093381 0.070040 1.132755
40  -0.000002 1.180354 -0.000000  -0.007680 0.039606 0.992191
41  -0.000002 0.817135 0.000002  0.000294 -0.006371 0.806991
42  0.249423 3.688534 -0.940887  0.019033 0.060002 1.265216
43  -0.000001 1.800633 0.000000  -0.031699 -0.020558 1.343188
44  -0.000001 1.243410 -0.000000  0.020188 -0.000404 1.198885
45  0.244727 3.701134 0.087733  -0.045061 -0.001508 1.235634
46  -0.000001 1.766550 0.000000  -0.004224 -0.002449 1.355999
47  -0.000000 1.188991 -0.000001  -0.006323 0.016529 1.248695
48  0.277240 3.632235 1.274100  -0.125397 -0.047256 1.236297
49  -0.000002 1.798505 -0.000000  0.007186 -0.037186 1.377612
50  -0.000001 1.235418 -0.000000  -0.008360 0.001466 1.159769
51  1.200001 3.171091 -1.751965  0.053247 0.098542 0.950163
52  1.200001 3.300076 -0.816644  -0.010878 0.095274 1.132339
53  1.200000 3.313604 0.085844  -0.052983 -0.000000 1.134464
54  -0.404037 -0.245042 1.877656  -0.544797 -2.361138 1.044998
55  1.200001 3.180400 1.195909  -0.105935 -0.070002 1.133319
56  6.459834 22.699871 -13.549168  -0.000000 1.570796 0.000000
57  -19.585928 7.699870 -11.594807  0.000000 -0.000000 0.000000
time 5
0  0 0 0  0 0 0
1  0.000000 0.000000 0.000000  1.570796 -0.000000 0.000000
2  6.688313 0.001464 -14.999999  -0.002398 -0.014785 3.133134
3  0.000000 13.479277 0.000000  0.004794 -0.000000 -0.000000
4  0.000000 13.477238 -0.000001  -0.002271 0.014804 0.008425
5  -6.332747 -6.310459 -7.161129  1.176986 0.112553 2.023390
6  0.000000 13.479277 0.000000  0.657977 0.000000 0.000000
7  -0.000000 13.476934 0.000079  -0.237329 -0.028839 -0.068456
8  6.688313 0.001464 -14.999999  -0.002398 -0.014785 3.133134
9  0.000000 13.479276 -0.000001  0.004794 -0.000000 -0.000000
10  -6.332747 -6.310459 -7.161129  1.176986 0.112553 2.023390
11  -0.000000 13.479277 -0.000000  0.657977 0.000000 0.000000
12  6.459835 15.000005 -27.008226  -1.570796 0.000000 -3.141593
13  0.315441 0.857300 0.755945  1.693110 0.558403 1.580881
14  -0.000000 2.265958 -0.000000  -0.054476 -0.046859 -0.239013
15  0.000002 1.457790 -0.000000  -0.029610 0.046486 0.034281
16  0.000000 0.000001 0.000000  0.000000 0.000000 0.000000
17  -0.267268 3.664729 -1.953291  -0.098467 -0.016034 -0.179584
18  -0.000000 1.180354 -0.000003  -0.033181 -0.022953 -0.217935
19  0.000000 0.817134 0.000000  0.004664 0.004350 -0.032954
20  -0.249421 3.688540 -0.940890  -0.060576 -0.012076 -0.130826
21  -0.000000 1.800632 -0.000000  0.005243 0.037415 -0.208300
22  -0.000001 1.243409 0.000001  0.008899 -0.018126 -0.064505
23  -0.244727 3.701142 0.087733  0.004715 -0.006542 -0.101191
24  0.000000 1.766551 -0.000000  0.000434 0.004864 -0.221529
25  0.000002 1.188985 0.000001  -0.017652 -0.001255 -0.114272
26  -0.277238 3.632237 1.274099  0.048422 0.007979 -0.101953
27  0.000000 1.798504 -0.000001  0.036739 0.009204 -0.243113
28  0.000001 1.235415 -0.000001  -0.004862 0.006957 -0.025328
29  -1.200000 3.171094 -1.751965  -0.144885 -0.000000 0.000000
30  -1.200000 3.300080 -0.816645  -0.105159 -0.000000 0.000000
31  -1.200000 3.313607 0.085844  0.000000 0.000000 0.000000
32  0.404038 -0.245037 1.877656  1.692843 0.702695 1.586968
33  -1.200000 3.180405 1.195909  0.077252 -0.000000 -0.000000
34  -9.069801 -18.134687 -4.462067  0.396752 -1.093194 2.727199
35  -0.315441 0.857299 0.755942  -0.632935 -2.489289 1.109260
36  0.000001 2.265956 0.000000  -0.028221 0.066076 0.696094
37  0.000001 1.457792 -0.000000  -0.047073 -0.028667 0.422442
38  0.000000 -0.000001 -0.000001  -0.000000 0.000000 0.000000
39  0.267270 3.664729 -1.953295  0.093381 0.070040 1.132755
40  0.000000 1.180357 -0.000001  -0.007680 0.039606 0.992191
41  -0.000001 0.817135 0.000000  0.000294 -0.006371 0.806991
42  0.249423 3.688539 -0.940890  0.019033 0.060002 1.265216
43  0.000000 1.800632 -0.000000  -0.031699 -0.020558 1.343188
44  0.000000 1.243410 0.000000  0.020188 -0.000404 1.198884
45  0.244726 3.701136 0.087731  -0.045061 -0.001508 1.235634
46  -0.000002 1.766550 0.000000  -0.004224 -0.002449 1.355999
47  0.000002 1.188989 0.000000  -0.006323 0.016529 1.248695
48  0.277239 3.632235 1.274100  -0.125397 -0.047256 1.236297
49  -0.000000 1.798506 -0.000000  0.007186 -0.037186 1.377612
50  0.000002 1.235414 0.000001  -0.008360 0.001466 1.159770
51  1.200001 3.171092 -1.751967  0.053247 0.098542 0.950163
52  1.200001 3.300079 -0.816646  -0.010878 0.095274 1.132339
53  1.200000 3.313607 0.085843  -0.052983 -0.000000 1.134464
54  -0.404038 -0.245037 1.877655  -0.544797 -2.361138 1.044998
55  1.200000 3.180403 1.195907  -0.105935 -0.070002 1.133319
56  6.459834 22.699871 -13.549168  -0.000000 1.570796 0.000000
57  -19.570562 7.699870 -12.815161  0.000000 -0.000000 0.000000
time 6
0  0 0 0  0 0 0
1  0.000000 0.000000 0.000000  1.570796 -0.000000 0.000000
2  6.688313 0.001464 -14.999999  -0.002398 -0.014785 3.133134
3  0.000000 13.479277 0.000000  0.004794 -0.000000 -0.000000
4  0.000000 13.477238 -0.000001  -0.002271 0.014804 0.008425
5  -6.377839 -6.081087 -9.906909  1.266766 0.098037 2.152689
6  0.000000 13.479277 -0.000000  0.498904 -0.000000 0.000000
7  -0.000000 13.477041 0.000039  -0.281296 -0.094471 0.095853
8  6.688313 0.001464 -14.999999  -0.002398 -0.014785 3.133134
9  0.000000 13.479276 -0.000001  0.004794 -0.000000 -0.000000
10  -6.377839 -6.081087 -9.906909  1.266766 0.098037 2.152689
11  -0.000001 13.479275 0.000000  0.498904 -0.000000 0.000000
12  6.459835 15.000005 -27.008226  -1.570796 0.000000 -3.141593
13  0.315441 0.857300 0.755945  1.693110 0.558403 1.580881
14  -0.000000 2.265958 -0.000000  -0.054476 -0.046859 -0.239013
15  0.000002 1.457790 -0.000000  -0.029610 0.046486 0.034281
16  0.000000 0.000001 0.000000  0.000000 0.000000 0.000000
17  -0.267268 3.664729 -1.953291  -0.098467 -0.016034 -0.179584
18  -0.000000 1.180354 -0.000003  -0.033181 -0.022953 -0.217935
19  0.000000 0.817134 0.000000  0.004664 0.004350 -0.032954
20  -0.249421 3.688540 -0.940890  -0.060576 -0.012076 -0.130826
21  -0.000000 1.800632 -0.000000  0.005243 0.037415 -0.208300
22  -0.000001 1.243409 0.000001  0.008899 -0.018126 -0.064505
23  -0.244727 3.701142 0.087733  0.004715 -0.006542 -0.101191
24  0.000000 1.766551 -0.000000  0.000434 0.004864 -0.221529
25  0.000002 1.188985 0.000001  -0.017652 -0.001255 -0.114272
26  -0.277238 3.632237 1.274099  0.048422 0.007979 -0.101953
27  0.000000 1.798504 -0.000001  0.036739 0.009204 -0.243113
28  0.000001 1.235415 -0.000001  -0.004862 0.006957 -0.025328
29  -1.200000 3.171094 -1.751965  -0.144885 -0.000000 0.000000
30  -1.200000 3.300080 -0.816645  -0.105159 -0.000000 0.000000
31  -1.200000 3.313607 0.085844  0.000000 0.000000 0.000000
32  0.404038 -0.245037 1.877656  1.692843 0.702695 1.586968
33  -1.200000 3.180405 1.195909  0.077252 -0.000000 -0.000000
34  -8.971882 -16.050871 -4.731689  -0.045075 -1.099673 3.092776
35  -0.315441 0.857298 0.755944  -0.632935 -2.489289 1.109260
36  -0.000000 2.265955 -0.000000  -0.028221 0.066076 0.696094
37  -0.000001 1.457792 0.000000  -0.047073 -0.028667 0.422442
38  -0.000000 0.000000 -0.000001  -0.000000 0.000000 -0.000000
39  0.267269 3.664725 -1.953293  0.093381 0.070040 1.132755
40  -0.000000 1.180354 0.000001  -0.007680 0.039606 0.992191
41  -0.000002 0.817134 0.000001  0.000294 -0.006371 0.806991
42  0.249422 3.688538 -0.940888  0.019033 0.060002 1.265216
43  -0.000000 1.800633 -0.000001  -0.031699 -0.020558 1.343188
44  0.000001 1.243411 -0.000001  0.020188 -0.000404 1.198885
45  0.244726 3.701135 0.087733  -0.045061 -0.001508 1.235634
46  0.000000 1.766551 0.000000  -0.004224 -0.002449 1.355999
47  0.000001 1.188990 0.000001  -0.006323 0.016529 1.248695
48  0.277239 3.632235 1.274101  -0.125397 -0.047256 1.236297
49  0.000000 1.798506 0.000000  0.007186 -0.037186 1.377612
50  -0.000001 1.235415 -0.000001  -0.008360 0.001466 1.159770
51  1.200000 3.171093 -1.751966  0.053247 0.098542 0.950163
52  1.200000 3.300079 -0.816646  -0.010878 0.095274 1.132339
53  1.199999 3.313607 0.085844  -0.052983 -0.000000 1.134464
54  -0.404038 -0.245038 1.877655  -0.544797 -2.361138 1.044998
55  1.200000 3.180405 1.195908  -0.105935 -0.070002 1.133319
56  6.459834 22.699871 -13.549168  -0.000000 1.570796 0.000000
57  -19.462992 7.699870 -14.429682  0.000000 -0.000000 0.000000
time 7
0  0 0 0  0 0 0
1  0.000000 0.000000 0.000000  1.570796 -0.000000 0.000000
2  6.688313 0.001464 -14.999999  -0.002398 -0.014785 3.133134
3  0.000000 13.479277 0.000000  0.004794 -0.000000 -0.000000
4  0.000000 13.477238 -0.000001  -0.002271 0.014804 0.008425
5  -6.441838 -5.809151 -12.208790  1.394210 0.077107 2.259609
6  0.000000 13.479277 0.000001  0.248186 -0.000000 0.000000
7  -0.000000 13.477241 -0.000001  -0.292140 -0.124718 0.229698
8  6.688313 0.001464 -14.999999  -0.002398 -0.014785 3.133134
9  0.000000 13.479276 -0.000001  0.004794 -0.000000 -0.000000
10  -6.441838 -5.809151 -12.208790  1.394210 0.077107 2.259609
11  -0.000000 13.479277 0.000000  0.248186 -0.000000 0.000000
12  6.459835 15.000005 -27.008226  -1.570796 0.000000 -3.141593
13  0.315441 0.857300 0.755945  1.693110 0.558403 1.580881
14  -0.000000 2.265958 -0.000000  -0.054476 -0.046859 -0.239013
15  0.000002 1.457790 -0.000000  -0.029610 0.046486 0.034281
16  0.000000 0.000001 0.000000  0.000000 0.000000 0.000000
17  -0.267268 3.664729 -1.953291  -0.098467 -0.016034 -0.179584
18  -0.000000 1.180354 -0.000003  -0.033181 -0.022953 -0.217935
19  0.000000 0.817134 0.000000  0.004664 0.004350 -0.032954
20  -0.249421 3.688540 -0.940890  -0.060576 -0.012076 -0.130826
21  -0.000000 1.800632 -0.000000  0.005243 0.037415 -0.208300
22  -0.000001 1.243409 0.000001  0.008899 -0.018126 -0.064505
23  -0.244727 3.701142 0.087733  0.004715 -0.006542 -0.101191
24  0.000000 1.766551 -0.000000  0.000434 0.004864 -0.221529
25  0.000002 1.188985 0.000001  -0.017652 -0.001255 -0.114272
26  -0.277238 3.632237 1.274099  0.048422 0.007979 -0.101953
27  0.000000 1.798504 -0.000001  0.036739 0.009204 -0.243113
28  0.000001 1.235415 -0.000001  -0.004862 0.006957 -0.025328
29  -1.200000 3.171094 -1.751965  -0.144885 -0.000000 0.000000
30  -1.200000 3.300080 -0.816645  -0.105159 -0.000000 0.000000
31  -1.200000 3.313607 0.085844  0.000000 0.000000 0.000000
32  0.404038 -0.245037 1.877656  1.692843 0.702695 1.586968
33  -1.200000 3.180405 1.195909  0.077252 -0.000000 -0.000000
34  -8.833439 -14.424211 -5.112882  -0.429759 -1.007836 -2.873504
35  -0.315440 0.857298 0.755944  -0.632935 -2.489289 1.109260
36  -0.000000 2.265957 -0.000001  -0.028221 0.066076 0.696094
37  -0.000001 1.457792 0.000000  -0.047073 -0.028667 0.422442
38  0.000000 0.000001 -0.000000  -0.000000 -0.000000 0.000000
39  0.267271 3.664725 -1.953294  0.093381 0.070040 1.132755
40  -0.000001 1.180355 0.000001  -0.007680 0.039606 0.992191
41  0.000000 0.817135 0.000000  0.000294 -0.006371 0.806991
42  0.249423 3.688539 -0.940890  0.019033 0.060002 1.265216
43  -0.000002 1.800632 0.000001  -0.031699 -0.020559 1.343188
44  -0.000000 1.243411 -0.000001  0.020188 -0.000404 1.198884
45  0.244727 3.701141 0.087731  -0.045061 -0.001508 1.235634
46  -0.000002 1.766551 0.000000  -0.004224 -0.002449 1.355999
47  0.000000 1.188991 0.000000  -0.006323 0.016529 1.248695
48  0.277240 3.632235 1.274099  -0.125397 -0.047256 1.236297
49  -0.000003 1.798505 -0.000000  0.007186 -0.037186 1.377612
50  -0.000001 1.235416 -0.000000  -0.008360 0.001466 1.159769
51  1.200001 3.171093 -1.751966  0.053247 0.098542 0.950163
52  1.200000 3.300081 -0.816645  -0.010878 0.095274 1.132339
53  1.200001 3.313606 0.085843  -0.052983 -0.000000 1.134464
54  -0.404037 -0.245036 1.877656  -0.544797 -2.361138 1.044998
55  1.200001 3.180405 1.195908  -0.105935 -0.070002 1.133319
56  6.459834 22.699871 -13.549168  -0.000000 1.570796 0.000000
57  -19.171017 7.699871 -15.838385  0.000000 -0.000000 0.000000
time 8
0  0 0 0  0 0 0
1  0.000000 0.000000 0.000000  1.570796 -0.000000 0.000000
2  6.688313 0.001464 -14.999999  -0.002398 -0.014785 3.133134
3  0.000000 13.479277 0.000000  0.004794 -0.000000 -0.000000
4  0.000000 13.477238 -0.000001  -0.002271 0.014804 0.008425
5  -6.525248 -5.523027 -13.177036  1.320492 0.054951 2.324345
6  0.000000 13.479277 0.000001  0.380737 0.000000 0.000000
7  -0.000001 13.477106 0.000020  -0.390782 -0.020578 0.276495
8  6.688313 0.001464 -14.999999  -0.002398 -0.014785 3.133134
9  0.000000 13.479276 -0.000001  0.004794 -0.000000 -0.000000
10  -6.525248 -5.523027 -13.177036  1.320492 0.054951 2.324345
11  0.000000 13.479278 0.000001  0.380737 0.000000 0.000000
12  6.459835 15.000005 -27.008226  -1.570796 0.000000 -3.141593
13  0.315441 0.857300 0.755945  1.693110 0.558403 1.580881
14  -0.000000 2.265958 -0.000000  -0.054476 -0.046859 -0.239013
15  0.000002 1.457790 -0.000000  -0.029610 0.046486 0.034281
16  0.000000 0.000001 0.000000  0.000000 0.000000 0.000000
17  -0.267268 3.664729 -1.953291  -0.098467 -0.016034 -0.179584
18  -0.000000 1.180354 -0.000003  -0.033181 -0.022953 -0.217935
19  0.000000 0.817134 0.000000  0.004664 0.004350 -0.032954
20  -0.249421 3.688540 -0.940890  -0.060576 -0.012076 -0.130826
21  -0.000000 1.800632 -0.000000  0.005243 0.037415 -0.208300
22  -0.000001 1.243409 0.000001  0.008899 -0.018126 -0.064505
23  -0.244727 3.701142 0.087733  0.004715 -0.006542 -0.101191
24  0.000000 1.766551 -0.000000  0.000434 0.004864 -0.221529
25  0.000002 1.188985 0.000001  -0.017652 -0.001255 -0.114272
26  -0.277238 3.632237 1.274099  0.048422 0.007979 -0.101953
27  0.000000 1.798504 -0.000001  0.036739 0.009204 -0.243113
28  0.000001 1.235415 -0.000001  -0.004862 0.006957 -0.025328
29  -1.200000 3.171094 -1.751965  -0.144885 -0.000000 0.000000
30  -1.200000 3.300080 -0.816645  -0.105159 -0.000000 0.000000
31  -1.200000 3.313607 0.085844  0.000000 0.000000 0.000000
32  0.404038 -0.245037 1.877656  1.692843 0.702695 1.586968
33  -1.200000 3.180405 1.195909  0.077252 -0.000000 -0.000000
34  -8.674736 -13.204932 -5.549858  -0.504226 -0.847064 -2.811393
35  -0.315442 0.857299 0.755945  -0.632935 -2.489289 1.109260
36  -0.000001 2.265959 -0.000000  -0.028221 0.066076 0.696094
37  -0.000000 1.457793 0.000000  -0.047073 -0.028667 0.422442
38  0.000001 0.000000 -0.000000  0.000000 -0.000000 -0.000000
39  0.267269 3.664726 -1.953293  0.093381 0.070040 1.132755
40  -0.000000 1.180354 -0.000000  -0.007680 0.039606 0.992191
41  -0.000002 0.817136 -0.000000  0.000294 -0.006371 0.806991
42  0.249423 3.688540 -0.940889  0.019033 0.060002 1.265216
43  0.000000 1.800632 -0.000000  -0.031699 -0.020559 1.343188
44  0.000000 1.243409 0.000000  0.020188 -0.000404 1.198884
45  0.244727 3.701138 0.087733  -0.045061 -0.001508 1.235634
46  0.000001 1.766549 0.000001  -0.004224 -0.002449 1.355999
47  0.000001 1.188992 0.000000  -0.006323 0.016529 1.248695
48  0.277240 3.632236 1.274100  -0.125397 -0.047256 1.236297
49  -0.000002 1.798506 -0.000000  0.007186 -0.037186 1.377612
50  -0.000000 1.235416 0.000000  -0.008360 0.001466 1.159769
51  1.200001 3.171093 -1.751966  0.053247 0.098542 0.950163
52  1.200001 3.300080 -0.816645  -0.010878 0.095274 1.132339
53  1.200001 3.313607 0.085844  -0.052983 -0.000000 1.134464
54  -0.404037 -0.245037 1.877656  -0.544797 -2.361138 1.044998
55  1.200001 3.180406 1.195908  -0.105935 -0.070002 1.133319
56  6.459834 22.699871 -13.549168  -0.000000 1.570796 0.000000
57  -18.602436 7.699871 -16.441280  0.000000 -0.000000 0.000000
time 9
0  0 0 0  0 0 0
1  0.000000 0.000000 0.000000  1.570796 -0.000000 0.000000
2  6.688313 0.001464 -14.999999  -0.002398 -0.014785 3.133134
3  0.000000 13.479277 0.000000  0.004794 -0.000000 -0.000000
4  0.000000 13.477238 -0.000001  -0.002271 0.014804 0.008425
5  -6.603198 -5.251091 -13.064502  1.168477 0.037861 2.426818
6  0.000000 13.479278 0.000002  0.662602 -0.000000 0.000000
7  0.000000 13.476914 0.000087  -0.438245 0.151879 0.189079
8  6.688313 0.001464 -14.999999  -0.002398 -0.014785 3.133134
9  0.000000 13.479276 -0.000001  0.004794 -0.000000 -0.000000
10  -6.603198 -5.251091 -13.064502  1.168477 0.037861 2.426818
11  0.000000 13.479278 0.000003  0.662602 -0.000000 0.000000
12  6.459835 15.000005 -27.008226  -1.570796 0.000000 -3.141593
13  0.315441 0.857300 0.755945  1.693110 0.558403 1.580881
14  -0.000000 2.265958 -0.000000  -0.054476 -0.046859 -0.239013
15  0.000002 1.457790 -0.000000  -0.029610 0.046486 0.034281
16  0.000000 0.000001 0.000000  0.000000 0.000000 0.000000
17  -0.267268 3.664729 -1.953291  -0.098467 -0.016034 -0.179584
18  -0.000000 1.180354 -0.000003  -0.033181 -0.022953 -0.217935
19  0.000000 0.817134 0.000000  0.004664 0.004350 -0.032954
20  -0.249421 3.688540 -0.940890  -0.060576 -0.012076 -0.130826
21  -0.000000 1.800632 -0.000000  0.005243 0.037415 -0.208300
22  -0.000001 1.243409 0.000001  0.008899 -0.018126 -0.064505
23  -0.244727 3.701142 0.087733  0.004715 -0.006542 -0.101191
24  0.000000 1.766551 -0.000000  0.000434 0.004864 -0.221529
25  0.000002 1.188985 0.000001  -0.017652 -0.001255 -0.114272
26  -0.277238 3.632237 1.274099  0.048422 0.007979 -0.101953
27  0.000000 1.798504 -0.000001  0.036739 0.009204 -0.243113
28  0.000001 1.235415 -0.000001  -0.004862 0.006957 -0.025328
29  -1.200000 3.171094 -1.751965  -0.144885 -0.000000 0.000000
30  -1.200000 3.300080 -0.816645  -0.105159 -0.000000 0.000000
31  -1.200000 3.313607 0.085844  0.000000 0.000000 0.000000
32  0.404038 -0.245037 1.877656  1.692843 0.702695 1.586968
33  -1.200000 3.180405 1.195909  0.077252 -0.000000 -0.000000
34  -8.516037 -12.343257 -5.986834  -0.327126 -0.602876 -2.919345
35  -0.315440 0.857299 0.755944  -0.632935 -2.489289 1.109260
36  0.000000 2.265959 -0.000000  -0.028221 0.066076 0.696094
37  -0.000000 1.457793 -0.000000  -0.047073 -0.028667 0.422442
38  0.000000 -0.000001 -0.000000  -0.000000 -0.000000 0.000000
39  0.267271 3.664724 -1.953293  0.093381 0.070040 1.132755
40  0.000000 1.180355 -0.000000  -0.007680 0.039606 0.992191
41  -0.000001 0.817135 0.000000  0.000294 -0.006371 0.806991
42  0.249423 3.688537 -0.940889  0.019033 0.060002 1.265216
43  -0.000001 1.800633 0.000001  -0.031699 -0.020558 1.343188
44  0.000000 1.243410 -0.000000  0.020188 -0.000404 1.198885
45  0.244727 3.701137 0.087733  -0.045061 -0.001508 1.235634
46  -0.000001 1.766550 0.000002  -0.004224 -0.002449 1.355999
47  0.000000 1.188990 -0.000000  -0.006323 0.016529 1.248695
48  0.277241 3.632234 1.274101  -0.125397 -0.047256 1.236297
49  0.000001 1.798505 0.000000  0.007186 -0.037186 1.377612
50  0.000000 1.235415 0.000000  -0.008360 0.001466 1.159769
51  1.200001 3.171092 -1.751966  0.053247 0.098542 0.950163
52  1.200001 3.300078 -0.816645  -0.010878 0.095274 1.132339
53  1.200001 3.313606 0.085844  -0.052983 -0.000000 1.134464
54  -0.404037 -0.245038 1.877656  -0.544797 -2.361138 1.044998
55  1.200001 3.180404 1.195908  -0.105935 -0.070002 1.133319
56  6.459834 22.699871 -13.549168  -0.000000 1.570796 0.000000
57  -16.445097 7.699871 -16.281416  0.000000 -0.000000 0.000000
time 10
0  0 0 0  0 0 0
1  0.000000 0.000000 0.000000  1.570796 -0.000000 0.000000
2  6.688313 0.001464 -14.999999  -0.002398 -0.014785 3.133134
3  0.000000 13.479277 0.000000  0.004794 -0.000000 -0.000000
4  0.000000 13.477238 -0.000001  -0.002271 0.014804 0.008425
5  -6.653421 -5.021719 -12.810620  1.077571 0.036205 2.653262
6  -0.000000 13.479277 0.000000  0.824559 -0.000000 0.000000
7  0.000000 13.476541 0.000221  -0.398480 0.228139 0.075700
8  6.688313 0.001464 -14.999999  -0.002398 -0.014785 3.133134
9  0.000000 13.479276 -0.000001  0.004794 -0.000000 -0.000000
10  -6.653421 -5.021719 -12.810620  1.077571 0.036205 2.653262
11  -0.000000 13.479277 0.000000  0.824559 -0.000000 0.000000
12  6.459835 15.000005 -27.008226  -1.570796 0.000000 -3.141593
13  0.315441 0.857300 0.755945  1.693110 0.558403 1.580881
14  -0.000000 2.265958 -0.000000  -0.054476 -0.046859 -0.239013
15  0.000002 1.457790 -0.000000  -0.029610 0.046486 0.034281
16  0.000000 0.000001 0.000000  0.000000 0.000000 0.000000
17  -0.267268 3.664729 -1.953291  -0.098467 -0.016034 -0.179584
18  -0.000000 1.180354 -0.000003  -0.033181 -0.022953 -0.217935
19  0.000000 0.817134 0.000000  0.004664 0.004350 -0.032954
20  -0.249421 3.688540 -0.940890  -0.060576 -0.012076 -0.130826
21  -0.000000 1.800632 -0.000000  0.005243 0.037415 -0.208300
22  -0.000001 1.243409 0.000001  0.008899 -0.018126 -0.064505
23  -0.244727 3.701142 0.087733  0.004715 -0.006542 -0.101191
24  0.000000 1.766551 -0.000000  0.000434 0.004864 -0.221529
25  0.000002 1.188985 0.000001  -0.017652 -0.001255 -0.114272
26  -0.277238 3.632237 1.274099  0.048422 0.007979 -0.101953
27  0.000000 1.798504 -0.000001  0.036739 0.009204 -0.243113
28  0.000001 1.235415 -0.000001  -0.004862 0.006957 -0.025328
29  -1.200000 3.171094 -1.751965  -0.144885 -0.000000 0.000000
30  -1.200000 3.300080 -0.816645  -0.105159 -0.000000 0.000000
31  -1.200000 3.313607 0.085844  0.000000 0.000000 0.000000
32  0.404038 -0.245037 1.877656  1.692843 0.702695 1.586968
33  -1.200000 3.180405 1.195909  0.077252 -0.000000 -0.000000
34  -8.377596 -11.789408 -6.368025  -0.115713 -0.294349 -3.028517
35  -0.315441 0.857299 0.755943  -0.632935 -2.489289 1.109260
36  -0.000001 2.265958 0.000000  -0.028221 0.066076 0.696094
37  -0.000000 1.457793 -0.000001  -0.047073 -0.028667 0.422442
38  0.000000 0.000000 0.000001  -0.000000 -0.000000 -0.000000
39  0.267270 3.664726 -1.953293  0.093381 0.070040 1.132755
40  0.000001 1.180355 0.000001  -0.007680 0.039606 0.992191
41  -0.000000 0.817134 -0.000001  0.000294 -0.006371 0.806991
42  0.249422 3.688538 -0.940888  0.019033 0.060002 1.265216
43  -0.000000 1.800632 0.000001  -0.031699 -0.020558 1.343188
44  0.000001 1.243410 0.000000  0.020188 -0.000404 1.198885
45  0.244725 3.701137 0.087734  -0.045061 -0.001508 1.235634
46  -0.000000 1.766551 -0.000001  -0.004224 -0.002449 1.355999
47  0.000000 1.188989 -0.000000  -0.006323 0.016529 1.248695
48  0.277240 3.632236 1.274101  -0.125397 -0.047256 1.236297
49  -0.000001 1.798506 -0.000000  0.007186 -0.037186 1.377612
50  -0.000000 1.235416 -0.000000  -0.008360 0.001466 1.159769
51  1.200000 3.171093 -1.751965  0.053247 0.098542 0.950163
52  1.200000 3.300080 -0.816644  -0.010878 0.095274 1.132339
53  1.200000 3.313607 0.085844  -0.052983 -0.000000 1.134464
54  -0.404038 -0.245036 1.877657  -0.544797 -2.361138 1.044998
55  1.200000 3.180405 1.195909  -0.105935 -0.070002 1.133319
56  6.459834 22.699871 -13.549168  -0.000000 1.570796 0.000000
57  -12.657858 7.699871 -15.929714  0.000000 -0.000000 0.000000
time 11
0  0 0 0  0 0 0
1  0.000000 0.000000 0.000000  1.570796 -0.000000 0.000000
2  6.688313 0.001464 -14.999999  -0.002398 -0.014785 3.133134
3  0.000000 13.479277 0.000000  0.004794 -0.000000 -0.000000
4  0.000000 13.477238 -0.000001  -0.002271 0.014804 0.008425
5  -6.680325 -4.863287 -12.555527  1.027006 0.050853 2.946009
6  0.000000 13.479277 -0.000000  0.917696 0.000000 0.000000
7  -0.000001 13.476532 0.000256  -0.339629 0.188339 0.016898
8  6.688313 0.001464 -14.999999  -0.002398 -0.014785 3.133134
9  0.000000 13.479276 -0.000001  0.004794 -0.000000 -0.000000
10  -6.680325 -4.863287 -12.555527  1.027006 0.050853 2.946009
11  -0.000000 13.479275 0.000000  0.917696 0.000000 0.000000
12  6.459835 15.000005 -27.008226  -1.570796 0.000000 -3.141593
13  0.315441 0.857300 0.755945  1.693110 0.558403 1.580881
14  -0.000000 2.265958 -0.000000  -0.054476 -0.046859 -0.239013
15  0.000002 1.457790 -0.000000  -0.029610 0.046486 0.034281
16  0.000000 0.000001 0.000000  0.000000 0.000000 0.000000
17  -0.267268 3.664729 -1.953291  -0.098467 -0.016034 -0.179584
18  -0.000000 1.180354 -0.000003  -0.033181 -0.022953 -0.217935
19  0.000000 0.817134 0.000000  0.004664 0.004350 -0.032954
20  -0.249421 3.688540 -0.940890  -0.060576 -0.012076 -0.130826
21  -0.000000 1.800632 -0.000000  0.005243 0.037415 -0.208300
22  -0.000001 1.243409 0.000001  0.008899 -0.018126 -0.064505
23  -0.244727 3.701142 0.087733  0.004715 -0.006542 -0.101191
24  0.000000 1.766551 -0.000000  0.000434 0.004864 -0.221529
25  0.000002 1.188985 0.000001  -0.017652 -0.001255 -0.114272
26  -0.277238 3.632237 1.274099  0.048422 0.007979 -0.101953
27  0.000000 1.798504 -0.000001  0.036739 0.009204 -0.243113
28  0.000001 1.235415 -0.000001  -0.004862 0.006957 -0.025328
29  -1.200000 3.171094 -1.751965  -0.144885 -0.000000 0.000000
30  -1.200000 3.300080 -0.816645  -0.105159 -0.000000 0.000000
31  -1.200000 3.313607 0.085844  0.000000 0.000000 0.000000
32  0.404038 -0.245037 1.877656  1.692843 0.702695 1.586968
33  -1.200000 3.180405 1.195909  0.077252 -0.000000 -0.000000
34  -8.279675 -11.493601 -6.637649  0.033233 -0.026437 -3.107771
35  -0.315441 0.857299 0.755945  -0.632935 -2.489289 1.109260
36  0.000001 2.265958 0.000000  -0.028221 0.066076 0.696094
37  0.000001 1.457791 0.000000  -0.047073 -0.028667 0.422442
38  0.000000 0.000000 0.000001  -0.000000 0.000000 -0.000000
39  0.267270 3.664726 -1.953292  0.093381 0.070040 1.132755
40  0.000000 1.180356 -0.000000  -0.007680 0.039606 0.992191
41  -0.000001 0.817134 0.000001  0.000294 -0.006371 0.806991
42  0.249421 3.688538 -0.940889  0.019033 0.060002 1.265216
43  -0.000002 1.800634 0.000000  -0.031699 -0.020558 1.343188
44  0.000001 1.243409 -0.000000  0.020188 -0.000404 1.198884
45  0.244726 3.701138 0.087733  -0.045061 -0.001508 1.235634
46  -0.000002 1.766551 0.000001  -0.004224 -0.002449 1.355999
47  -0.000000 1.188991 0.000000  -0.006323 0.016529 1.248695
48  0.277240 3.632238 1.274101  -0.125397 -0.047256 1.236297
49  -0.000002 1.798506 -0.000000  0.007186 -0.037186 1.377612
50  0.000000 1.235417 0.000001  -0.008360 0.001466 1.159769
51  1.200000 3.171094 -1.751965  0.053247 0.098542 0.950163
52  1.200000 3.300079 -0.816644  -0.010878 0.095274 1.132339
53  1.199999 3.313606 0.085844  -0.052983 -0.000000 1.134464
54  -0.404038 -0.245037 1.877657  -0.544797 -2.361138 1.044998
55  1.200000 3.180404 1.195909  -0.105935 -0.070002 1.133319
56  6.459834 22.699871 -13.549168  -0.000000 1.570796 0.000000
57  -9.055023 7.699870 -15.578012  0.000000 -0.000000 0.000000
time 12
0  0 0 0  0 0 0
1  0.000000 0.000000 0.000000  1.570796 -0.000000 0.000000
2  6.688313 0.001464 -14.999999  -0.002398 -0.014785 3.133134
3  0.000000 13.479277 0.000000  0.004794 -0.000000 -0.000000
4  0.000000 13.477238 -0.000001  -0.002271 0.014804 0.008425
5  -6.688313 -4.804171 -12.439356  1.012446 0.061441 3.097271
6  0.000001 13.479277 0.000000  0.949521 0.000000 0.000000
7  -0.000000 13.476394 0.000307  -0.307496 0.145014 0.006313
8  6.688313 0.001464 -14.999999  -0.002398 -0.014785 3.133134
9  0.000000 13.479276 -0.000001  0.004794 -0.000000 -0.000000
10  -6.688313 -4.804171 -12.439356  1.012446 0.061441 3.097271
11  0.000001 13.479278 0.000001  0.949521 0.000000 0.000000
12  6.459835 15.000005 -27.008226  -1.570796 0.000000 -3.141593
13  0.315441 0.857300 0.755945  1.693110 0.558403 1.580881
14  -0.000000 2.265958 -0.000000  -0.054476 -0.046859 -0.239013
15  0.000002 1.457790 -0.000000  -0.029610 0.046486 0.034281
16  0.000000 0.000001 0.000000  0.000000 0.000000 0.000000
17  -0.267268 3.664729 -1.953291  -0.098467 -0.016034 -0.179584
18  -0.000000 1.180354 -0.000003  -0.033181 -0.022953 -0.217935
19  0.000000 0.817134 0.000000  0.004664 0.004350 -0.032954
20  -0.249421 3.688540 -0.940890  -0.060576 -0.012076 -0.130826
21  -0.000000 1.800632 -0.000000  0.005243 0.037415 -0.208300
22  -0.000001 1.243409 0.000001  0.008899 -0.018126 -0.064505
23  -0.244727 3.701142 0.087733  0.004715 -0.006542 -0.101191
24  0.000000 1.766551 -0.000000  0.000434 0.004864 -0.221529
25  0.000002 1.188985 0.000001  -0.017652 -0.001255 -0.114272
26  -0.277238 3.632237 1.274099  0.048422 0.007979 -0.101953
27  0.000000 1.798504 -0.000001  0.036739 0.009204 -0.243113
28  0.000001 1.235415 -0.000001  -0.004862 0.006957 -0.025328
29  -1.200000 3.171094 -1.751965  -0.144885 -0.000000 0.000000
30  -1.200000 3.300080 -0.816645  -0.105159 -0.000000 0.000000
31  -1.200000 3.313607 0.085844  0.000000 0.000000 0.000000
32  0.404038 -0.245037 1.877656  1.692843 0.702695 1.586968
33  -1.200000 3.180405 1.195909  0.077252 -0.000000 -0.000000
34  -8.242531 -11.406061 -6.739920  0.087266 0.087266 3.141593
35  -0.315442 0.857301 0.755943  -0.632935 -2.489289 1.109260
36  -0.000001 2.265958 -0.000000  -0.028221 0.066076 0.696094
37  -0.000001 1.457791 0.000000  -0.047073 -0.028667 0.422442
38  -0.000001 0.000001 -0.000000  -0.000000 0.000000 0.000000
39  0.267269 3.664726 -1.953293  0.093381 0.070040 1.132755
40  -0.000000 1.180355 0.000000  -0.007680 0.039606 0.992191
41  -0.000000 0.817134 0.000001  0.000294 -0.006371 0.806991
42  0.249421 3.688537 -0.940888  0.019033 0.060002 1.265216
43  -0.000000 1.800633 0.000000  -0.031699 -0.020558 1.343188
44  -0.000001 1.243410 -0.000000  0.020188 -0.000404 1.198884
45  0.244726 3.701138 0.087733  -0.045061 -0.001508 1.235634
46  0.000000 1.766551 0.000001  -0.004224 -0.002449 1.355999
47  0.000000 1.188991 0.000001  -0.006323 0.016529 1.248695
48  0.277239 3.632236 1.274100  -0.125397 -0.047256 1.236297
49  -0.000001 1.798506 0.000001  0.007186 -0.037186 1.377612
50  -0.000001 1.235414 0.000000  -0.008360 0.001466 1.159769
51  1.199999 3.171095 -1.751967  0.053247 0.098542 0.950163
52  1.199998 3.300080 -0.816646  -0.010878 0.095274 1.132339
53  1.199999 3.313608 0.085844  -0.052983 -0.000000 1.134464
54  -0.404039 -0.245036 1.877656  -0.544797 -2.361138 1.044998
55  1.199999 3.180405 1.195908  -0.105935 -0.070002 1.133319
56  6.459834 22.699871 -13.549168  -0.000000 1.570796 0.000000
57  -7.450901 7.699870 -15.418148  0.000000 -0.000000 0.000000
end
