version 1
nodes
0 "blender_implicit" -1
1 "root" -1
2 "upperarm_l" 1
3 "lowerarm_l" 2
4 "hand_l" 3
5 "pinky_0_l" 4
6 "pinky_1_l" 5
7 "pinky_2_l" 6
8 "ring_0_l" 4
9 "ring_1_l" 8
10 "ring_2_l" 9
11 "middle_0_l" 4
12 "middle_1_l" 11
13 "middle_2_l" 12
14 "index_0_l" 4
15 "index_1_l" 14
16 "index_2_l" 15
17 "thumb_0_l" 4
18 "thumb_1_l" 17
19 "thumb_2_l" 18
20 "rig_index_l" 4
21 "rig_middle_l" 4
22 "rig_ring_l" 4
23 "rig_pinky_l" 4
24 "rig_thumb_l" 4
25 "rig_hand_l" 1
26 "rig_l" 1
27 "rig_upperarm_l" 1
28 "upperarm_r" 1
29 "lowerarm_r" 28
30 "hand_r" 29
31 "pinky_0_r" 30
32 "pinky_1_r" 31
33 "pinky_2_r" 32
34 "ring_0_r" 30
35 "ring_1_r" 34
36 "ring_2_r" 35
37 "middle_0_r" 30
38 "middle_1_r" 37
39 "middle_2_r" 38
40 "index_0_r" 30
41 "index_1_r" 40
42 "index_2_r" 41
43 "thumb_0_r" 30
44 "thumb_1_r" 43
45 "thumb_2_r" 44
46 "rig_index_r" 30
47 "rig_middle_r" 30
48 "rig_ring_r" 30
49 "rig_pinky_r" 30
50 "rig_thumb_r" 30
51 "rig_hand_r" 1
52 "rig_r" 1
53 "rig_upperarm_r" 1
54 "bone_pistolGrip" -1
55 "bone_ejectionPort" 54
56 "bone_muzzle" 54
57 "bone_clip" 54
end
skeleton
time 0
0  0 0 0  0 0 0
1  0.000000 0.000000 0.000000  1.570796 -0.000000 0.000000
2  15.269911 -21.966835 13.863769  0.404882 0.571599 1.430615
3  0.000003 13.479280 0.000000  0.516054 0.000000 -0.000000
4  0.000002 13.477238 -0.000000  -0.568839 -0.212379 0.488715
5  -0.267268 3.664726 -1.953293  -0.096193 -0.052727 -0.400403
6  0.000000 1.180357 0.000001  -0.033422 -0.016719 -0.440925
7  0.000000 0.817134 -0.000001  0.007067 -0.010065 -0.256194
8  -0.249422 3.688541 -0.940891  -0.054966 -0.028860 -0.393964
9  0.000000 1.800635 0.000001  0.004228 0.003292 -0.472103
10  0.000001 1.243407 0.000004  0.006309 0.001661 -0.328230
11  -0.244726 3.701095 0.087731  0.004244 0.003603 -0.402932
12  -0.000000 1.766586 -0.000002  0.003329 -0.002780 -0.523312
13  -0.000000 1.189005 0.000001  -0.016474 -0.006468 -0.416037
14  -0.277239 3.632249 1.274102  0.052687 0.017453 -0.279974
15  0.000002 1.798492 -0.000000  0.034542 0.015473 -0.421260
16  -0.000000 1.235450 -0.000001  -0.006025 0.006058 -0.203611
17  0.315442 0.857301 0.755942  2.109433 0.373269 1.533784
18  -0.000000 2.265936 -0.000001  -0.056797 -0.034690 -0.271734
19  -0.000000 1.457811 0.000003  -0.031121 0.045492 0.001395
20  -1.259680 3.818374 1.286944  0.052687 0.017453 -0.279974
21  -1.226390 3.891692 0.090417  0.004244 0.003603 -0.402932
22  -1.231623 3.875534 -0.958682  -0.054966 -0.028860 -0.393964
23  -1.209919 3.994782 -2.003049  -0.096193 -0.052727 -0.400403
24  0.328906 0.095429 1.403532  2.109432 0.373269 1.533784
25  -3.860201 -10.504416 27.353670  0.440284 0.052363 1.540863
26  -16.870777 -21.834059 7.086506  -1.570796 -0.000000 -1.570796
27  15.269911 -21.966835 13.863769  -0.051945 -0.000000 -1.570796
28  -7.028650 0.743399 -8.093216  0.483663 0.061681 3.113738
29  -0.000001 13.479277 0.000001  1.004753 -0.000000 0.000000
30  -0.000000 13.477238 0.000001  0.082244 0.022688 0.063760
31  0.267269 3.664726 -1.953294  -0.067893 0.086178 0.802666
32  -0.000002 1.180355 -0.000002  -0.024201 0.028477 0.843506
33  0.000001 0.817135 0.000000  0.010446 0.006491 0.658839
34  0.249423 3.688541 -0.940890  -0.032371 0.052975 0.932871
35  0.000000 1.800633 -0.000002  0.000732 -0.005308 1.244337
36  -0.000001 1.243406 -0.000002  0.004815 -0.004401 0.811275
37  0.244726 3.701095 0.087732  0.001305 -0.005412 1.033087
38  -0.000000 1.766584 0.000000  0.004298 0.000584 1.084129
39  0.000000 1.189004 0.000001  -0.010510 0.014239 0.976837
40  0.277239 3.632248 1.274102  0.185107 -0.010184 0.144732
41  -0.000000 1.798495 0.000000  0.027685 -0.025810 0.750471
42  0.000001 1.235451 0.000001  -0.008036 -0.002903 0.645088
43  -0.315442 0.857299 0.755943  -0.248767 -2.664688 1.150362
44  0.000000 2.265939 -0.000001  -0.039010 0.053923 0.668054
45  0.000000 1.457813 0.000000  -0.054852 0.005358 1.066393
46  1.259681 3.818374 1.286945  0.185107 -0.010184 0.144732
47  1.226391 3.891693 0.090418  0.001305 -0.005412 1.033087
48  1.231623 3.875534 -0.958681  -0.032371 0.052975 0.932871
49  1.209919 3.994781 -2.003049  -0.067893 0.086178 0.802666
50  -0.328907 0.095428 1.403532  -0.248767 -2.664688 1.150362
51  -8.605698 -12.259624 11.568533  1.570796 0.000000 -3.141593
52  -8.110383 -19.738087 0.179033  -1.570796 -0.000000 1.570796
53  -7.028650 0.743399 -8.093216  -0.051945 0.000000 1.570796
54  -7.342360 -14.447400 -14.286362  1.570796 -0.000000 0.000000
55  -1.855343 6.848201 8.911866  0.643721 -1.614433 -2.214061
56  0.461752 7.791413 26.458832  0.643346 -1.614420 -2.213684
57  0.599219 4.162452 9.540135  -0.024899 -0.027352 -0.026683
time 1
0  0 0 0  0 0 0
1  0.000000 0.000000 0.000000  1.570796 -0.000000 0.000000
2  15.269911 -21.966835 13.863769  0.026440 0.762091 1.364028
3  0.000003 13.479277 0.000002  0.939574 0.000000 -0.000000
4  0.000000 13.477241 -0.000001  -0.670544 -0.214470 0.642137
5  -0.267268 3.664727 -1.953295  -0.096193 -0.052727 -0.400403
6  0.000001 1.180356 -0.000000  -0.033422 -0.016719 -0.440925
7  -0.000000 0.817136 -0.000000  0.007067 -0.010065 -0.256194
8  -0.249422 3.688542 -0.940890  -0.054966 -0.028860 -0.393964
9  0.000001 1.800634 -0.000001  0.004228 0.003292 -0.472103
10  0.000001 1.243406 0.000003  0.006309 0.001661 -0.328230
11  -0.244725 3.701096 0.087732  0.004244 0.003603 -0.402932
12  -0.000002 1.766587 0.000003  0.003329 -0.002780 -0.523312
13  -0.000002 1.189004 -0.000001  -0.016474 -0.006468 -0.416037
14  -0.277238 3.632248 1.274101  0.052687 0.017453 -0.279974
15  0.000000 1.798494 0.000001  0.034542 0.015473 -0.421260
16  0.000000 1.235452 0.000000  -0.006025 0.006058 -0.203611
17  0.315442 0.857300 0.755943  2.109432 0.373269 1.533784
18  -0.000000 2.265939 0.000002  -0.056797 -0.034690 -0.271734
19  0.000000 1.457811 0.000002  -0.031121 0.045492 0.001395
20  -1.259680 3.818374 1.286943  0.052687 0.017453 -0.279974
21  -1.226390 3.891694 0.090418  0.004244 0.003603 -0.402932
22  -1.231622 3.875534 -0.958682  -0.054966 -0.028860 -0.393964
23  -1.209917 3.994782 -2.003050  -0.096194 -0.052727 -0.400403
24  0.328907 0.095429 1.403531  2.109432 0.373269 1.533784
25  -3.794727 -9.895401 22.141262  0.437792 0.104664 1.523214
26  -16.870777 -21.834059 7.086506  -1.570796 -0.000000 -1.570796
27  15.269911 -21.966835 13.863769  -0.051945 -0.000000 -1.570796
28  -7.028650 0.743399 -8.093216  0.085197 0.091350 3.125782
29  0.000000 13.479277 -0.000000  1.505773 -0.000000 0.000000
30  0.000000 13.477239 0.000000  0.032262 0.000204 0.090450
31  0.267270 3.664727 -1.953293  -0.067893 0.086178 0.802666
32  0.000000 1.180355 -0.000002  -0.024201 0.028477 0.843506
33  -0.000000 0.817136 0.000002  0.010446 0.006491 0.658839
34  0.249424 3.688542 -0.940890  -0.032371 0.052975 0.932871
35  0.000001 1.800632 0.000002  0.000732 -0.005308 1.244337
36  -0.000000 1.243405 0.000000  0.004815 -0.004401 0.811274
37  0.244728 3.701096 0.087734  0.001305 -0.005412 1.033087
38  0.000001 1.766584 0.000000  0.004298 0.000584 1.084130
39  0.000000 1.189005 0.000001  -0.010510 0.014239 0.976837
40  0.277241 3.632248 1.274102  0.185107 -0.010184 0.144732
41  -0.000000 1.798494 0.000000  0.027685 -0.025810 0.750471
42  0.000000 1.235450 -0.000001  -0.008036 -0.002903 0.645088
43  -0.315440 0.857300 0.755945  -0.248767 -2.664688 1.150362
44  0.000000 2.265939 0.000000  -0.039010 0.053923 0.668054
45  0.000000 1.457811 0.000001  -0.054852 0.005358 1.066393
46  1.259683 3.818374 1.286946  0.185107 -0.010184 0.144732
47  1.226392 3.891693 0.090419  0.001305 -0.005412 1.033087
48  1.231624 3.875534 -0.958680  -0.032371 0.052975 0.932871
49  1.209921 3.994782 -2.003048  -0.067893 0.086178 0.802666
50  -0.328904 0.095428 1.403532  -0.248767 -2.664688 1.150362
51  -8.570134 -12.391361 6.465270  -1.518444 3.140679 -0.017429
52  -8.110383 -19.738087 0.179033  -1.570796 -0.000000 1.570796
53  -7.028650 0.743399 -8.093216  -0.051945 0.000000 1.570796
54  -7.342360 -9.447400 -14.286362  1.518428 0.017429 -0.000914
55  -1.855343 6.848201 8.911863  0.643721 -1.614433 -2.214061
56  0.461752 7.791413 26.458830  0.643346 -1.614420 -2.213685
57  0.599219 4.162452 9.540134  -0.024899 -0.027352 -0.026683
time 2
0  0 0 0  0 0 0
1  0.000000 0.000000 0.000000  1.570796 -0.000000 0.000000
2  15.269911 -21.966835 13.863769  0.158417 0.724936 1.378773
3  0.000005 13.479279 0.000000  0.789850 0.000000 -0.000000
4  -0.000002 13.477239 -0.000001  -0.637401 -0.189394 0.577526
5  -0.267270 3.664726 -1.953293  -0.096194 -0.052727 -0.400403
6  -0.000000 1.180357 0.000001  -0.033422 -0.016719 -0.440925
7  0.000001 0.817135 0.000001  0.007067 -0.010065 -0.256194
8  -0.249422 3.688541 -0.940889  -0.054966 -0.028860 -0.393964
9  0.000002 1.800633 -0.000002  0.004228 0.003292 -0.472103
10  0.000001 1.243404 0.000002  0.006309 0.001661 -0.328230
11  -0.244727 3.701096 0.087734  0.004244 0.003603 -0.402932
12  0.000002 1.766584 -0.000001  0.003329 -0.002780 -0.523312
13  -0.000003 1.189005 -0.000002  -0.016474 -0.006468 -0.416037
14  -0.277241 3.632248 1.274104  0.052687 0.017453 -0.279974
15  0.000000 1.798495 0.000001  0.034542 0.015473 -0.421260
16  -0.000001 1.235451 -0.000001  -0.006025 0.006058 -0.203611
17  0.315440 0.857300 0.755943  2.109432 0.373269 1.533784
18  0.000000 2.265939 -0.000002  -0.056797 -0.034690 -0.271734
19  -0.000000 1.457810 0.000003  -0.031121 0.045492 0.001395
20  -1.259681 3.818374 1.286944  0.052687 0.017453 -0.279974
21  -1.226392 3.891693 0.090419  0.004244 0.003603 -0.402932
22  -1.231624 3.875534 -0.958680  -0.054966 -0.028860 -0.393964
23  -1.209920 3.994781 -2.003049  -0.096194 -0.052727 -0.400403
24  0.328905 0.095429 1.403533  2.109432 0.373269 1.533784
25  -3.854916 -9.416346 23.651014  0.438143 0.137808 1.540709
26  -16.870777 -21.834059 7.086506  -1.570796 -0.000000 -1.570796
27  15.269911 -21.966835 13.863769  -0.051945 -0.000000 -1.570796
28  -7.028650 0.743399 -8.093216  0.205140 0.081020 3.121582
29  0.000000 13.479276 0.000000  1.359054 -0.000000 0.000000
30  0.000000 13.477240 -0.000000  0.092062 0.019505 0.081583
31  0.267270 3.664727 -1.953293  -0.067893 0.086178 0.802666
32  -0.000002 1.180354 0.000001  -0.024201 0.028477 0.843506
33  0.000000 0.817136 0.000001  0.010446 0.006491 0.658839
34  0.249423 3.688542 -0.940890  -0.032371 0.052975 0.932871
35  -0.000000 1.800633 -0.000001  0.000732 -0.005308 1.244336
36  0.000001 1.243407 0.000000  0.004815 -0.004401 0.811274
37  0.244726 3.701097 0.087732  0.001305 -0.005412 1.033087
38  0.000001 1.766585 0.000001  0.004298 0.000584 1.084130
39  0.000001 1.189004 0.000001  -0.010510 0.014239 0.976837
40  0.277239 3.632249 1.274101  0.185107 -0.010184 0.144732
41  0.000000 1.798494 0.000000  0.027685 -0.025810 0.750471
42  0.000001 1.235451 0.000000  -0.008036 -0.002903 0.645088
43  -0.315441 0.857301 0.755943  -0.248767 -2.664688 1.150362
44  0.000001 2.265939 0.000001  -0.039010 0.053923 0.668054
45  0.000000 1.457811 0.000000  -0.054852 0.005358 1.066393
46  1.259682 3.818374 1.286945  0.185107 -0.010184 0.144732
47  1.226391 3.891694 0.090418  0.001305 -0.005412 1.033087
48  1.231623 3.875535 -0.958681  -0.032371 0.052975 0.932871
49  1.209920 3.994782 -2.003049  -0.067893 0.086178 0.802666
50  -0.328906 0.095429 1.403532  -0.248767 -2.664688 1.150362
51  -8.607072 -12.512822 8.075397  -1.485325 -3.141159 0.000031
52  -8.110383 -19.738087 0.179033  -1.570796 -0.000000 1.570796
53  -7.028650 0.743399 -8.093216  -0.051945 0.000000 1.570796
54  -7.342360 -11.116222 -14.286362  1.485325 -0.000031 0.000434
55  -1.855343 6.848201 8.911865  0.643721 -1.614433 -2.214061
56  0.461753 7.791412 26.458830  0.643346 -1.614420 -2.213684
57  0.599219 4.162452 9.540134  -0.024899 -0.027352 -0.026683
time 3
0  0 0 0  0 0 0
1  0.000000 0.000000 0.000000  1.570796 -0.000000 0.000000
2  15.269911 -21.966835 13.863769  0.317658 0.656847 1.403353
3  0.000001 13.479277 0.000000  0.598447 -0.000000 -0.000000
4  -0.000000 13.477238 0.000000  -0.587029 -0.181425 0.521461
5  -0.267271 3.664726 -1.953293  -0.096194 -0.052727 -0.400403
6  -0.000002 1.180356 0.000001  -0.033422 -0.016719 -0.440925
7  -0.000000 0.817136 -0.000000  0.007067 -0.010065 -0.256194
8  -0.249424 3.688541 -0.940888  -0.054966 -0.028860 -0.393964
9  0.000000 1.800633 0.000001  0.004228 0.003292 -0.472103
10  0.000000 1.243405 -0.000002  0.006309 0.001661 -0.328230
11  -0.244728 3.701096 0.087733  0.004244 0.003603 -0.402932
12  0.000002 1.766585 -0.000002  0.003329 -0.002780 -0.523312
13  0.000002 1.189004 0.000000  -0.016474 -0.006468 -0.416037
14  -0.277242 3.632247 1.274103  0.052687 0.017453 -0.279974
15  -0.000000 1.798496 -0.000001  0.034542 0.015472 -0.421260
16  -0.000001 1.235452 0.000002  -0.006025 0.006058 -0.203611
17  0.315440 0.857299 0.755941  2.109432 0.373269 1.533784
18  -0.000000 2.265939 -0.000001  -0.056797 -0.034690 -0.271734
19  0.000000 1.457812 0.000003  -0.031121 0.045492 0.001395
20  -1.259683 3.818374 1.286945  0.052687 0.017453 -0.279974
21  -1.226392 3.891693 0.090420  0.004244 0.003603 -0.402932
22  -1.231625 3.875533 -0.958681  -0.054966 -0.028860 -0.393964
23  -1.209921 3.994781 -2.003048  -0.096194 -0.052727 -0.400403
24  0.328904 0.095428 1.403534  2.109432 0.373269 1.533784
25  -3.930970 -9.493718 25.663843  0.439850 0.126315 1.560472
26  -16.870777 -21.834059 7.086506  -1.570796 -0.000000 -1.570796
27  15.269911 -21.966835 13.863769  -0.051945 -0.000000 -1.570796
28  -7.028650 0.743399 -8.093216  0.359292 0.071557 3.117741
29  0.000000 13.479276 -0.000000  1.162292 -0.000000 0.000000
30  0.000000 13.477240 0.000001  0.123128 0.039776 0.075383
31  0.267268 3.664725 -1.953291  -0.067893 0.086178 0.802666
32  -0.000003 1.180355 -0.000001  -0.024201 0.028477 0.843506
33  0.000001 0.817135 0.000000  0.010446 0.006491 0.658839
34  0.249422 3.688541 -0.940887  -0.032371 0.052975 0.932871
35  -0.000000 1.800632 -0.000001  0.000732 -0.005308 1.244337
36  -0.000001 1.243406 -0.000000  0.004815 -0.004401 0.811274
37  0.244725 3.701095 0.087735  0.001305 -0.005412 1.033087
38  0.000001 1.766584 -0.000001  0.004298 0.000584 1.084130
39  0.000000 1.189003 -0.000000  -0.010510 0.014239 0.976837
40  0.277239 3.632248 1.274104  0.185107 -0.010184 0.144732
41  -0.000000 1.798493 0.000000  0.027685 -0.025810 0.750471
42  -0.000000 1.235451 0.000000  -0.008036 -0.002903 0.645088
43  -0.315442 0.857299 0.755946  -0.248767 -2.664688 1.150362
44  0.000000 2.265940 -0.000000  -0.039010 0.053923 0.668054
45  -0.000000 1.457812 0.000000  -0.054852 0.005358 1.066393
46  1.259680 3.818374 1.286947  0.185107 -0.010184 0.144732
47  1.226390 3.891692 0.090420  0.001305 -0.005412 1.033087
48  1.231622 3.875533 -0.958679  -0.032371 0.052975 0.932871
49  1.209918 3.994781 -2.003047  -0.067893 0.086178 0.802666
50  -0.328905 0.095428 1.403534  -0.248767 -2.664688 1.150362
51  -8.646244 -12.502995 10.059949  -1.496864 -3.139812 0.019581
52  -8.110383 -19.738087 0.179033  -1.570796 -0.000000 1.570796
53  -7.028650 0.743399 -8.093216  -0.051945 0.000000 1.570796
54  -7.342360 -13.078402 -14.286362  1.496830 -0.019581 0.001781
55  -1.855343 6.848201 8.911865  0.643721 -1.614433 -2.214060
56  0.461753 7.791413 26.458836  0.643346 -1.614420 -2.213684
57  0.599219 4.162451 9.540136  -0.024899 -0.027352 -0.026683
time 4
0  0 0 0  0 0 0
1  0.000000 0.000000 0.000000  1.570796 -0.000000 0.000000
2  15.269911 -21.966835 13.863769  0.353133 0.625635 1.413733
3  0.000003 13.479281 0.000003  0.561230 0.000000 -0.000000
4  -0.000002 13.477238 -0.000000  -0.578140 -0.186126 0.514786
5  -0.267268 3.664726 -1.953288  -0.096194 -0.052727 -0.400403
6  -0.000000 1.180355 0.000002  -0.033422 -0.016719 -0.440925
7  -0.000002 0.817134 -0.000000  0.007067 -0.010065 -0.256194
8  -0.249421 3.688541 -0.940885  -0.054966 -0.028860 -0.393964
9  0.000001 1.800632 -0.000001  0.004228 0.003292 -0.472103
10  -0.000001 1.243405 -0.000000  0.006309 0.001661 -0.328230
11  -0.244725 3.701096 0.087738  0.004244 0.003603 -0.402932
12  -0.000001 1.766587 0.000002  0.003329 -0.002780 -0.523312
13  0.000001 1.189004 0.000002  -0.016474 -0.006468 -0.416038
14  -0.277238 3.632247 1.274106  0.052687 0.017453 -0.279974
15  0.000001 1.798493 0.000001  0.034542 0.015472 -0.421260
16  -0.000001 1.235451 -0.000001  -0.006025 0.006058 -0.203611
17  0.315443 0.857300 0.755947  2.109432 0.373269 1.533785
18  -0.000000 2.265939 0.000002  -0.056797 -0.034690 -0.271734
19  0.000001 1.457811 0.000002  -0.031121 0.045492 0.001395
20  -1.259679 3.818375 1.286950  0.052687 0.017453 -0.279974
21  -1.226389 3.891693 0.090423  0.004244 0.003603 -0.402932
22  -1.231622 3.875535 -0.958675  -0.054966 -0.028860 -0.393964
23  -1.209917 3.994781 -2.003044  -0.096194 -0.052727 -0.400403
24  0.328908 0.095428 1.403537  2.109432 0.373269 1.533784
25  -3.940681 -9.830535 26.296486  0.440486 0.098836 1.563719
26  -16.870777 -21.834059 7.086506  -1.570796 -0.000000 -1.570796
27  15.269911 -21.966835 13.863769  -0.051945 -0.000000 -1.570796
28  -7.028650 0.743399 -8.093216  0.404429 0.069242 3.116802
29  0.000000 13.479277 -0.000001  1.105993 -0.000000 0.000000
30  -0.000000 13.477239 0.000001  0.106802 0.043237 0.073573
31  0.267269 3.664726 -1.953293  -0.067893 0.086178 0.802666
32  -0.000001 1.180355 0.000001  -0.024201 0.028477 0.843506
33  -0.000000 0.817134 0.000002  0.010446 0.006491 0.658839
34  0.249422 3.688541 -0.940890  -0.032371 0.052975 0.932871
35  -0.000001 1.800632 0.000000  0.000732 -0.005308 1.244336
36  -0.000000 1.243406 -0.000000  0.004815 -0.004401 0.811274
37  0.244726 3.701096 0.087732  0.001305 -0.005412 1.033087
38  0.000000 1.766584 -0.000000  0.004298 0.000584 1.084130
39  0.000000 1.189003 0.000000  -0.010510 0.014239 0.976837
40  0.277239 3.632247 1.274101  0.185107 -0.010184 0.144732
41  0.000000 1.798494 0.000001  0.027685 -0.025810 0.750471
42  0.000001 1.235453 0.000000  -0.008036 -0.002903 0.645088
43  -0.315442 0.857299 0.755944  -0.248767 -2.664688 1.150362
44  -0.000002 2.265939 -0.000001  -0.039010 0.053923 0.668054
45  0.000000 1.457811 -0.000001  -0.054852 0.005358 1.066393
46  1.259680 3.818375 1.286945  0.185107 -0.010184 0.144732
47  1.226391 3.891693 0.090419  0.001305 -0.005412 1.033087
48  1.231623 3.875535 -0.958681  -0.032371 0.052975 0.932871
49  1.209918 3.994781 -2.003048  -0.067893 0.086178 0.802666
50  -0.328906 0.095428 1.403532  -0.248767 -2.664688 1.150362
51  -8.653208 -12.424882 10.617440  -1.524349 -3.140001 0.022804
52  -8.110383 -19.738087 0.179033  -1.570796 -0.000000 1.570796
53  -7.028650 0.743399 -8.093216  -0.051945 0.000000 1.570796
54  -7.342360 -13.585290 -14.286362  1.524313 -0.022803 0.001592
55  -1.855342 6.848200 8.911865  0.643722 -1.614433 -2.214061
56  0.461753 7.791413 26.458830  0.643346 -1.614420 -2.213684
57  0.599220 4.162452 9.540136  -0.024899 -0.027352 -0.026683
time 5
0  0 0 0  0 0 0
1  0.000000 0.000000 0.000000  1.570796 -0.000000 0.000000
2  15.269911 -21.966835 13.863769  0.373188 0.595831 1.423203
3  0.000002 13.479278 0.000000  0.545650 0.000000 -0.000000
4  0.000002 13.477237 0.000001  -0.576391 -0.191980 0.514418
5  -0.267270 3.664727 -1.953292  -0.096194 -0.052727 -0.400403
6  0.000000 1.180355 -0.000003  -0.033422 -0.016719 -0.440925
7  0.000000 0.817136 -0.000000  0.007067 -0.010065 -0.256194
8  -0.249424 3.688542 -0.940889  -0.054966 -0.028860 -0.393964
9  -0.000000 1.800633 0.000001  0.004228 0.003292 -0.472103
10  -0.000002 1.243407 -0.000000  0.006309 0.001661 -0.328230
11  -0.244726 3.701096 0.087733  0.004244 0.003603 -0.402932
12  -0.000001 1.766584 0.000002  0.003329 -0.002780 -0.523312
13  0.000000 1.189004 0.000002  -0.016474 -0.006468 -0.416038
14  -0.277239 3.632249 1.274104  0.052687 0.017453 -0.279974
15  -0.000001 1.798493 0.000000  0.034542 0.015473 -0.421259
16  0.000000 1.235453 0.000001  -0.006025 0.006058 -0.203611
17  0.315440 0.857300 0.755943  2.109433 0.373269 1.533784
18  0.000000 2.265938 -0.000001  -0.056797 -0.034690 -0.271734
19  0.000000 1.457809 0.000001  -0.031121 0.045492 0.001395
20  -1.259681 3.818375 1.286947  0.052687 0.017453 -0.279974
21  -1.226391 3.891694 0.090419  0.004244 0.003603 -0.402932
22  -1.231624 3.875535 -0.958679  -0.054966 -0.028860 -0.393964
23  -1.209920 3.994782 -2.003048  -0.096194 -0.052727 -0.400403
24  0.328906 0.095429 1.403533  2.109432 0.373269 1.533784
25  -3.943266 -10.244165 26.797899  0.441026 0.066049 1.565373
26  -16.870777 -21.834059 7.086506  -1.570796 -0.000000 -1.570796
27  15.269911 -21.966835 13.863769  -0.051945 -0.000000 -1.570796
28  -7.028650 0.743399 -8.093216  0.439505 0.067576 3.116127
29  0.000000 13.479275 0.000000  1.063456 -0.000000 0.000000
30  0.000000 13.477240 0.000000  0.081460 0.045155 0.071947
31  0.267270 3.664725 -1.953292  -0.067893 0.086178 0.802666
32  0.000000 1.180355 0.000001  -0.024201 0.028477 0.843506
33  -0.000001 0.817135 -0.000001  0.010446 0.006491 0.658839
34  0.249424 3.688541 -0.940889  -0.032371 0.052975 0.932871
35  -0.000001 1.800633 0.000001  0.000732 -0.005308 1.244337
36  -0.000000 1.243406 -0.000001  0.004815 -0.004401 0.811275
37  0.244726 3.701096 0.087734  0.001305 -0.005412 1.033087
38  0.000000 1.766585 -0.000000  0.004298 0.000584 1.084130
39  0.000001 1.189003 -0.000001  -0.010510 0.014239 0.976837
40  0.277240 3.632247 1.274102  0.185107 -0.010184 0.144732
41  0.000001 1.798494 0.000001  0.027685 -0.025810 0.750471
42  0.000001 1.235451 0.000000  -0.008036 -0.002903 0.645088
43  -0.315441 0.857298 0.755943  -0.248767 -2.664688 1.150363
44  0.000000 2.265939 0.000000  -0.039010 0.053923 0.668054
45  -0.000001 1.457811 -0.000001  -0.054852 0.005358 1.066393
46  1.259681 3.818374 1.286946  0.185107 -0.010184 0.144732
47  1.226391 3.891692 0.090418  0.001305 -0.005412 1.033087
48  1.231623 3.875533 -0.958681  -0.032371 0.052975 0.932871
49  1.209919 3.994781 -2.003048  -0.067893 0.086178 0.802666
50  -0.328906 0.095428 1.403533  -0.248767 -2.664688 1.150362
51  -8.657258 -12.330704 11.043669  1.584454 -0.001149 -3.117135
52  -8.110383 -19.738087 0.179033  -1.570796 -0.000000 1.570796
53  -7.028650 0.743399 -8.093216  -0.051945 0.000000 1.570796
54  -7.342360 -13.948494 -14.286362  1.557110 -0.024458 0.001150
55  -1.855343 6.848200 8.911863  0.643721 -1.614433 -2.214061
56  0.461752 7.791413 26.458832  0.643346 -1.614420 -2.213684
57  0.599219 4.162451 9.540136  -0.024899 -0.027352 -0.026683
time 6
0  0 0 0  0 0 0
1  0.000000 0.000000 0.000000  1.570796 -0.000000 0.000000
2  15.269911 -21.966835 13.863769  0.383965 0.572800 1.430253
3  0.000002 13.479279 0.000001  0.540285 0.000000 -0.000000
4  0.000001 13.477240 0.000000  -0.577487 -0.197098 0.516033
5  -0.267270 3.664727 -1.953293  -0.096194 -0.052727 -0.400403
6  -0.000001 1.180356 -0.000002  -0.033422 -0.016719 -0.440925
7  0.000001 0.817135 -0.000003  0.007067 -0.010065 -0.256194
8  -0.249424 3.688541 -0.940889  -0.054966 -0.028860 -0.393964
9  -0.000001 1.800633 -0.000000  0.004228 0.003292 -0.472103
10  -0.000000 1.243406 -0.000000  0.006309 0.001661 -0.328230
11  -0.244727 3.701096 0.087733  0.004244 0.003603 -0.402932
12  -0.000000 1.766583 -0.000002  0.003329 -0.002780 -0.523312
13  -0.000000 1.189005 -0.000002  -0.016474 -0.006468 -0.416038
14  -0.277241 3.632248 1.274102  0.052687 0.017453 -0.279974
15  -0.000000 1.798495 -0.000005  0.034542 0.015472 -0.421260
16  -0.000001 1.235450 -0.000000  -0.006025 0.006058 -0.203611
17  0.315440 0.857301 0.755943  2.109432 0.373269 1.533784
18  0.000000 2.265942 0.000002  -0.056797 -0.034690 -0.271734
19  -0.000001 1.457811 0.000002  -0.031121 0.045492 0.001395
20  -1.259682 3.818376 1.286945  0.052687 0.017453 -0.279974
21  -1.226393 3.891693 0.090419  0.004244 0.003603 -0.402932
22  -1.231624 3.875534 -0.958681  -0.054966 -0.028860 -0.393964
23  -1.209920 3.994781 -2.003048  -0.096194 -0.052727 -0.400403
24  0.328905 0.095428 1.403532  2.109432 0.373269 1.533784
25  -3.943292 -10.596625 27.146980  0.441340 0.038580 1.565974
26  -16.870777 -21.834059 7.086506  -1.570796 -0.000000 -1.570796
27  15.269911 -21.966835 13.863769  -0.051945 -0.000000 -1.570796
28  -7.028650 0.743399 -8.093216  0.464440 0.066415 3.115656
29  0.000000 13.479276 0.000000  1.033380 -0.000000 0.000000
30  0.000000 13.477239 0.000000  0.059114 0.045984 0.070592
31  0.267269 3.664727 -1.953293  -0.067893 0.086178 0.802666
32  -0.000002 1.180356 -0.000002  -0.024201 0.028477 0.843506
33  0.000001 0.817136 -0.000001  0.010446 0.006491 0.658839
34  0.249424 3.688541 -0.940889  -0.032371 0.052975 0.932871
35  -0.000002 1.800633 0.000001  0.000732 -0.005308 1.244337
36  0.000000 1.243406 0.000001  0.004815 -0.004401 0.811274
37  0.244727 3.701096 0.087734  0.001305 -0.005412 1.033087
38  0.000001 1.766586 0.000000  0.004298 0.000584 1.084130
39  0.000000 1.189003 -0.000000  -0.010510 0.014239 0.976837
40  0.277241 3.632247 1.274102  0.185107 -0.010184 0.144732
41  0.000000 1.798494 -0.000001  0.027685 -0.025810 0.750471
42  -0.000001 1.235449 0.000000  -0.008036 -0.002903 0.645088
43  -0.315441 0.857301 0.755944  -0.248767 -2.664688 1.150363
44  -0.000001 2.265939 -0.000001  -0.039010 0.053923 0.668054
45  -0.000001 1.457811 -0.000001  -0.054852 0.005358 1.066393
46  1.259682 3.818375 1.286946  0.185107 -0.010184 0.144732
47  1.226391 3.891693 0.090419  0.001305 -0.005412 1.033087
48  1.231624 3.875534 -0.958681  -0.032371 0.052975 0.932871
49  1.209919 3.994781 -2.003047  -0.067893 0.086178 0.802666
50  -0.328905 0.095429 1.403533  -0.248767 -2.664688 1.150362
51  -8.658923 -12.252428 11.342164  1.556988 -0.000642 -3.116525
52  -8.110383 -19.738087 0.179033  -1.570796 -0.000000 1.570796
53  -7.028650 0.743399 -8.093216  -0.051945 0.000000 1.570796
54  -7.342360 -14.191960 -14.286362  1.584588 -0.025068 0.000643
55  -1.855343 6.848201 8.911866  0.643721 -1.614433 -2.214060
56  0.461752 7.791413 26.458834  0.643346 -1.614420 -2.213684
57  0.599219 4.162452 9.540136  -0.024899 -0.027352 -0.026683
time 7
0  0 0 0  0 0 0
1  0.000000 0.000000 0.000000  1.570796 -0.000000 0.000000
2  15.269911 -21.966835 13.863769  0.393311 0.562034 1.433475
3  0.000001 13.479280 0.000002  0.530853 0.000000 -0.000000
4  -0.000001 13.477238 0.000002  -0.575726 -0.200220 0.515103
5  -0.267269 3.664727 -1.953292  -0.096193 -0.052727 -0.400403
6  -0.000000 1.180356 0.000001  -0.033422 -0.016719 -0.440925
7  0.000000 0.817135 0.000001  0.007067 -0.010065 -0.256194
8  -0.249422 3.688542 -0.940888  -0.054966 -0.028860 -0.393964
9  -0.000002 1.800631 -0.000002  0.004228 0.003292 -0.472103
10  0.000000 1.243406 -0.000001  0.006309 0.001661 -0.328230
11  -0.244726 3.701096 0.087733  0.004244 0.003603 -0.402932
12  0.000000 1.766585 -0.000001  0.003329 -0.002780 -0.523312
13  -0.000001 1.189004 0.000001  -0.016474 -0.006468 -0.416037
14  -0.277238 3.632249 1.274103  0.052687 0.017453 -0.279974
15  0.000001 1.798496 -0.000002  0.034542 0.015473 -0.421259
16  -0.000000 1.235452 0.000001  -0.006025 0.006058 -0.203611
17  0.315442 0.857301 0.755946  2.109433 0.373269 1.533785
18  -0.000000 2.265940 -0.000001  -0.056797 -0.034690 -0.271734
19  0.000001 1.457811 0.000001  -0.031121 0.045492 0.001395
20  -1.259680 3.818375 1.286946  0.052687 0.017453 -0.279974
21  -1.226390 3.891693 0.090420  0.004244 0.003603 -0.402932
22  -1.231623 3.875534 -0.958679  -0.054966 -0.028860 -0.393964
23  -1.209919 3.994782 -2.003047  -0.096193 -0.052727 -0.400403
24  0.328907 0.095428 1.403533  2.109432 0.373269 1.533784
25  -3.944810 -10.745865 27.336630  0.441301 0.027057 1.566055
26  -16.870777 -21.834059 7.086506  -1.570796 -0.000000 -1.570796
27  15.269911 -21.966835 13.863769  -0.051945 -0.000000 -1.570796
28  -7.028650 0.743399 -8.093216  0.478995 0.065677 3.115357
29  0.000000 13.479276 0.000001  1.014593 -0.000000 0.000000
30  -0.000000 13.477240 -0.000000  0.051812 0.046156 0.069698
31  0.267269 3.664726 -1.953294  -0.067893 0.086178 0.802666
32  -0.000002 1.180356 0.000001  -0.024201 0.028477 0.843506
33  0.000001 0.817136 0.000001  0.010446 0.006491 0.658839
34  0.249422 3.688541 -0.940889  -0.032371 0.052975 0.932871
35  0.000001 1.800633 0.000000  0.000732 -0.005308 1.244337
36  0.000003 1.243407 -0.000000  0.004815 -0.004401 0.811275
37  0.244727 3.701096 0.087733  0.001305 -0.005412 1.033087
38  0.000002 1.766585 -0.000001  0.004298 0.000584 1.084130
39  -0.000001 1.189003 0.000001  -0.010510 0.014239 0.976837
40  0.277240 3.632248 1.274101  0.185107 -0.010184 0.144732
41  -0.000000 1.798494 0.000001  0.027685 -0.025810 0.750471
42  0.000001 1.235451 0.000001  -0.008036 -0.002903 0.645088
43  -0.315441 0.857300 0.755943  -0.248767 -2.664688 1.150362
44  0.000000 2.265940 0.000000  -0.039010 0.053923 0.668054
45  0.000000 1.457812 0.000002  -0.054852 0.005358 1.066393
46  1.259681 3.818375 1.286945  0.185107 -0.010184 0.144732
47  1.226390 3.891693 0.090419  0.001305 -0.005412 1.033087
48  1.231622 3.875534 -0.958681  -0.032371 0.052975 0.932871
49  1.209918 3.994782 -2.003047  -0.067893 0.086178 0.802666
50  -0.328906 0.095428 1.403533  -0.248767 -2.664688 1.150362
51  -8.658824 -12.219834 11.513341  1.545472 -0.000259 -3.116438
52  -8.110383 -19.738087 0.179033  -1.570796 -0.000000 1.570796
53  -7.028650 0.743399 -8.093216  -0.051945 0.000000 1.570796
54  -7.342360 -14.339636 -14.286362  1.596115 -0.025155 0.000259
55  -1.855342 6.848199 8.911864  0.643721 -1.614433 -2.214061
56  0.461752 7.791412 26.458836  0.643346 -1.614420 -2.213684
57  0.599219 4.162451 9.540132  -0.024899 -0.027352 -0.026683
time 8
0  0 0 0  0 0 0
1  0.000000 0.000000 0.000000  1.570796 -0.000000 0.000000
2  15.269911 -21.966835 13.863769  0.401616 0.563284 1.433103
3  -0.000001 13.479279 -0.000001  0.519178 0.000000 -0.000000
4  -0.000001 13.477237 -0.000001  -0.571486 -0.204295 0.506569
5  -0.267270 3.664727 -1.953292  -0.096194 -0.052727 -0.400403
6  0.000001 1.180356 0.000001  -0.033422 -0.016719 -0.440925
7  -0.000002 0.817134 -0.000002  0.007067 -0.010065 -0.256194
8  -0.249422 3.688542 -0.940891  -0.054966 -0.028860 -0.393964
9  0.000001 1.800632 -0.000000  0.004228 0.003292 -0.472103
10  0.000001 1.243405 -0.000001  0.006309 0.001661 -0.328230
11  -0.244727 3.701096 0.087734  0.004244 0.003603 -0.402932
12  -0.000002 1.766585 -0.000002  0.003329 -0.002780 -0.523312
13  0.000001 1.189003 0.000002  -0.016474 -0.006468 -0.416037
14  -0.277239 3.632248 1.274101  0.052687 0.017453 -0.279974
15  -0.000001 1.798495 -0.000001  0.034542 0.015472 -0.421260
16  0.000000 1.235452 -0.000000  -0.006025 0.006058 -0.203611
17  0.315442 0.857300 0.755942  2.109432 0.373269 1.533784
18  0.000000 2.265940 -0.000002  -0.056797 -0.034690 -0.271734
19  -0.000000 1.457813 -0.000000  -0.031121 0.045492 0.001395
20  -1.259681 3.818375 1.286945  0.052687 0.017453 -0.279974
21  -1.226391 3.891695 0.090421  0.004244 0.003603 -0.402932
22  -1.231622 3.875535 -0.958682  -0.054966 -0.028860 -0.393964
23  -1.209919 3.994782 -2.003047  -0.096194 -0.052727 -0.400403
24  0.328906 0.095429 1.403533  2.109432 0.373269 1.533784
25  -3.925752 -10.682896 27.390144  0.440923 0.033614 1.559523
26  -16.870777 -21.834059 7.086506  -1.570796 -0.000000 -1.570796
27  15.269911 -21.966835 13.863769  -0.051945 -0.000000 -1.570796
28  -7.028650 0.743399 -8.093216  0.484331 0.064386 3.114834
29  -0.000000 13.479275 0.000000  1.006009 -0.000000 0.000000
30  -0.000000 13.477241 -0.000001  0.061598 0.040068 0.067897
31  0.267270 3.664726 -1.953294  -0.067893 0.086178 0.802666
32  -0.000002 1.180354 0.000000  -0.024201 0.028477 0.843506
33  -0.000002 0.817135 0.000000  0.010446 0.006491 0.658839
34  0.249422 3.688541 -0.940891  -0.032371 0.052975 0.932871
35  -0.000002 1.800633 0.000000  0.000732 -0.005308 1.244337
36  -0.000001 1.243407 0.000002  0.004815 -0.004401 0.811274
37  0.244726 3.701096 0.087733  0.001305 -0.005412 1.033087
38  0.000000 1.766586 0.000001  0.004298 0.000584 1.084130
39  0.000000 1.189003 -0.000001  -0.010510 0.014239 0.976837
40  0.277239 3.632249 1.274101  0.185107 -0.010184 0.144732
41  0.000001 1.798493 -0.000000  0.027685 -0.025810 0.750471
42  0.000001 1.235451 -0.000002  -0.008036 -0.002903 0.645088
43  -0.315441 0.857299 0.755942  -0.248767 -2.664688 1.150362
44  0.000000 2.265938 -0.000001  -0.039010 0.053923 0.668054
45  0.000001 1.457811 0.000001  -0.054852 0.005358 1.066393
46  1.259681 3.818375 1.286945  0.185107 -0.010184 0.144732
47  1.226391 3.891692 0.090418  0.001305 -0.005412 1.033087
48  1.231623 3.875534 -0.958681  -0.032371 0.052975 0.932871
49  1.209919 3.994782 -2.003049  -0.067893 0.086178 0.802666
50  -0.328906 0.095429 1.403531  -0.248767 -2.664688 1.150362
51  -8.644459 -12.229881 11.575225  1.552037 -0.000077 -3.122960
52  -8.110383 -19.738087 0.179033  -1.570796 -0.000000 1.570796
53  -7.028650 0.743399 -8.093216  -0.051945 0.000000 1.570796
54  -7.342360 -14.415470 -14.286362  1.589554 -0.018633 0.000077
55  -1.855343 6.848200 8.911867  0.643721 -1.614433 -2.214061
56  0.461753 7.791413 26.458832  0.643346 -1.614420 -2.213684
57  0.599219 4.162450 9.540135  -0.024899 -0.027352 -0.026683
time 9
0  0 0 0  0 0 0
1  0.000000 0.000000 0.000000  1.570796 -0.000000 0.000000
2  15.269911 -21.966835 13.863769  0.404638 0.568502 1.431544
3  0.000002 13.479279 -0.000000  0.515755 -0.000000 -0.000000
4  -0.000001 13.477240 0.000002  -0.569341 -0.209739 0.494686
5  -0.267269 3.664726 -1.953293  -0.096194 -0.052727 -0.400403
6  -0.000000 1.180354 0.000001  -0.033422 -0.016719 -0.440925
7  0.000000 0.817134 -0.000001  0.007067 -0.010065 -0.256194
8  -0.249422 3.688540 -0.940891  -0.054966 -0.028860 -0.393964
9  -0.000000 1.800632 -0.000003  0.004228 0.003292 -0.472103
10  0.000000 1.243406 -0.000001  0.006309 0.001661 -0.328230
11  -0.244726 3.701095 0.087732  0.004244 0.003603 -0.402932
12  0.000002 1.766583 0.000001  0.003329 -0.002780 -0.523312
13  0.000000 1.189004 -0.000003  -0.016474 -0.006468 -0.416037
14  -0.277239 3.632247 1.274101  0.052687 0.017453 -0.279974
15  -0.000000 1.798495 -0.000002  0.034542 0.015473 -0.421260
16  0.000000 1.235451 0.000000  -0.006025 0.006058 -0.203611
17  0.315443 0.857301 0.755944  2.109432 0.373269 1.533784
18  -0.000000 2.265941 0.000004  -0.056797 -0.034690 -0.271734
19  0.000000 1.457812 -0.000004  -0.031121 0.045492 0.001395
20  -1.259681 3.818373 1.286944  0.052687 0.017453 -0.279974
21  -1.226391 3.891692 0.090419  0.004244 0.003603 -0.402932
22  -1.231622 3.875533 -0.958683  -0.054966 -0.028860 -0.393964
23  -1.209918 3.994781 -2.003048  -0.096194 -0.052727 -0.400403
24  0.328907 0.095428 1.403532  2.109432 0.373269 1.533784
25  -3.884261 -10.566603 27.374197  0.440491 0.045800 1.547395
26  -16.870777 -21.834059 7.086506  -1.570796 -0.000000 -1.570796
27  15.269911 -21.966835 13.863769  -0.051945 -0.000000 -1.570796
28  -7.028650 0.743399 -8.093216  0.484507 0.062583 3.114104
29  0.000000 13.479278 -0.000000  1.004308 -0.000000 0.000000
30  0.000001 13.477240 0.000000  0.075289 0.028775 0.065163
31  0.267269 3.664727 -1.953292  -0.067893 0.086178 0.802666
32  -0.000000 1.180356 0.000001  -0.024201 0.028477 0.843506
33  -0.000001 0.817135 -0.000001  0.010446 0.006491 0.658839
34  0.249422 3.688544 -0.940888  -0.032371 0.052975 0.932871
35  -0.000001 1.800634 -0.000000  0.000732 -0.005308 1.244337
36  0.000000 1.243405 0.000000  0.004815 -0.004401 0.811274
37  0.244726 3.701097 0.087734  0.001305 -0.005412 1.033087
38  0.000000 1.766585 -0.000001  0.004298 0.000584 1.084130
39  0.000002 1.189001 0.000000  -0.010510 0.014239 0.976837
40  0.277238 3.632251 1.274103  0.185107 -0.010184 0.144732
41  0.000000 1.798491 -0.000001  0.027685 -0.025810 0.750471
42  0.000002 1.235452 -0.000001  -0.008036 -0.002903 0.645088
43  -0.315442 0.857302 0.755945  -0.248767 -2.664688 1.150362
44  0.000002 2.265941 0.000001  -0.039010 0.053923 0.668054
45  0.000000 1.457812 -0.000000  -0.054851 0.005358 1.066393
46  1.259681 3.818376 1.286946  0.185107 -0.010184 0.144732
47  1.226390 3.891696 0.090419  0.001305 -0.005412 1.033087
48  1.231623 3.875536 -0.958679  -0.032371 0.052975 0.932871
49  1.209918 3.994784 -2.003047  -0.067893 0.086178 0.802666
50  -0.328906 0.095431 1.403534  -0.248767 -2.664688 1.150362
51  -8.619039 -12.249047 11.577923  1.564231 -0.000009 -3.135071
52  -8.110383 -19.738087 0.179033  -1.570796 -0.000000 1.570796
53  -7.028650 0.743399 -8.093216  -0.051945 0.000000 1.570796
54  -7.342360 -14.443409 -14.286362  1.577362 -0.006522 0.000010
55  -1.855343 6.848199 8.911866  0.643721 -1.614433 -2.214061
56  0.461753 7.791412 26.458836  0.643346 -1.614420 -2.213684
57  0.599219 4.162452 9.540136  -0.024899 -0.027352 -0.026683
time 10
0  0 0 0  0 0 0
1  0.000000 0.000000 0.000000  1.570796 -0.000000 0.000000
2  15.269911 -21.966835 13.863769  0.404882 0.571599 1.430615
3  0.000003 13.479280 0.000000  0.516054 0.000000 -0.000000
4  0.000002 13.477238 -0.000000  -0.568839 -0.212379 0.488715
5  -0.267268 3.664726 -1.953293  -0.096193 -0.052727 -0.400403
6  0.000000 1.180357 0.000001  -0.033422 -0.016719 -0.440925
7  0.000000 0.817134 -0.000001  0.007067 -0.010065 -0.256194
8  -0.249422 3.688541 -0.940891  -0.054966 -0.028860 -0.393964
9  0.000000 1.800635 0.000001  0.004228 0.003292 -0.472103
10  0.000001 1.243407 0.000004  0.006309 0.001661 -0.328230
11  -0.244726 3.701095 0.087731  0.004244 0.003603 -0.402932
12  -0.000000 1.766586 -0.000002  0.003329 -0.002780 -0.523312
13  -0.000000 1.189005 0.000001  -0.016474 -0.006468 -0.416037
14  -0.277239 3.632249 1.274102  0.052687 0.017453 -0.279974
15  0.000002 1.798492 -0.000000  0.034542 0.015473 -0.421260
16  -0.000000 1.235450 -0.000001  -0.006025 0.006058 -0.203611
17  0.315442 0.857301 0.755942  2.109433 0.373269 1.533784
18  -0.000000 2.265936 -0.000001  -0.056797 -0.034690 -0.271734
19  -0.000000 1.457811 0.000003  -0.031121 0.045492 0.001395
20  -1.259680 3.818374 1.286944  0.052687 0.017453 -0.279974
21  -1.226390 3.891692 0.090417  0.004244 0.003603 -0.402932
22  -1.231623 3.875534 -0.958682  -0.054966 -0.028860 -0.393964
23  -1.209919 3.994782 -2.003049  -0.096193 -0.052727 -0.400403
24  0.328906 0.095429 1.403532  2.109432 0.373269 1.533784
25  -3.860201 -10.504416 27.353670  0.440284 0.052363 1.540863
26  -16.870777 -21.834059 7.086506  -1.570796 -0.000000 -1.570796
27  15.269911 -21.966835 13.863769  -0.051945 -0.000000 -1.570796
28  -7.028650 0.743399 -8.093216  0.483663 0.061681 3.113738
29  -0.000001 13.479277 0.000001  1.004753 -0.000000 0.000000
30  -0.000000 13.477238 0.000001  0.082244 0.022688 0.063760
31  0.267269 3.664726 -1.953294  -0.067893 0.086178 0.802666
32  -0.000002 1.180355 -0.000002  -0.024201 0.028477 0.843506
33  0.000001 0.817135 0.000000  0.010446 0.006491 0.658839
34  0.249423 3.688541 -0.940890  -0.032371 0.052975 0.932871
35  0.000000 1.800633 -0.000002  0.000732 -0.005308 1.244337
36  -0.000001 1.243406 -0.000002  0.004815 -0.004401 0.811275
37  0.244726 3.701095 0.087732  0.001305 -0.005412 1.033087
38  -0.000000 1.766584 0.000000  0.004298 0.000584 1.084129
39  0.000000 1.189004 0.000001  -0.010510 0.014239 0.976837
40  0.277239 3.632248 1.274102  0.185107 -0.010184 0.144732
41  -0.000000 1.798495 0.000000  0.027685 -0.025810 0.750471
42  0.000001 1.235451 0.000001  -0.008036 -0.002903 0.645088
43  -0.315442 0.857299 0.755943  -0.248767 -2.664688 1.150362
44  0.000000 2.265939 -0.000001  -0.039010 0.053923 0.668054
45  0.000000 1.457813 0.000000  -0.054852 0.005358 1.066393
46  1.259681 3.818374 1.286945  0.185107 -0.010184 0.144732
47  1.226391 3.891693 0.090418  0.001305 -0.005412 1.033087
48  1.231623 3.875534 -0.958681  -0.032371 0.052975 0.932871
49  1.209919 3.994781 -2.003049  -0.067893 0.086178 0.802666
50  -0.328907 0.095428 1.403532  -0.248767 -2.664688 1.150362
51  -8.605698 -12.259624 11.568533  1.570796 0.000000 -3.141593
52  -8.110383 -19.738087 0.179033  -1.570796 -0.000000 1.570796
53  -7.028650 0.743399 -8.093216  -0.051945 0.000000 1.570796
54  -7.342360 -14.447400 -14.286362  1.570796 -0.000000 0.000000
55  -1.855343 6.848201 8.911866  0.643721 -1.614433 -2.214061
56  0.461752 7.791413 26.458832  0.643346 -1.614420 -2.213684
57  0.599219 4.162452 9.540135  -0.024899 -0.027352 -0.026683
end
