version 1
nodes
0 "blender_implicit" -1
1 "root" -1
2 "upperarm_l" 1
3 "lowerarm_l" 2
4 "hand_l" 3
5 "pinky_0_l" 4
6 "pinky_1_l" 5
7 "pinky_2_l" 6
8 "ring_0_l" 4
9 "ring_1_l" 8
10 "ring_2_l" 9
11 "middle_0_l" 4
12 "middle_1_l" 11
13 "middle_2_l" 12
14 "index_0_l" 4
15 "index_1_l" 14
16 "index_2_l" 15
17 "thumb_0_l" 4
18 "thumb_1_l" 17
19 "thumb_2_l" 18
20 "rig_index_l" 4
21 "rig_middle_l" 4
22 "rig_ring_l" 4
23 "rig_pinky_l" 4
24 "rig_thumb_l" 4
25 "rig_hand_l" 1
26 "rig_l" 1
27 "rig_upperarm_l" 1
28 "upperarm_r" 1
29 "lowerarm_r" 28
30 "hand_r" 29
31 "pinky_0_r" 30
32 "pinky_1_r" 31
33 "pinky_2_r" 32
34 "ring_0_r" 30
35 "ring_1_r" 34
36 "ring_2_r" 35
37 "middle_0_r" 30
38 "middle_1_r" 37
39 "middle_2_r" 38
40 "index_0_r" 30
41 "index_1_r" 40
42 "index_2_r" 41
43 "thumb_0_r" 30
44 "thumb_1_r" 43
45 "thumb_2_r" 44
46 "rig_index_r" 30
47 "rig_middle_r" 30
48 "rig_ring_r" 30
49 "rig_pinky_r" 30
50 "rig_thumb_r" 30
51 "rig_hand_r" 1
52 "rig_r" 1
53 "rig_upperarm_r" 1
54 "bone_base" -1
55 "bone_barrels" 54
56 "bone_muzzle" 54
57 "bone_Ring" 54
58 "bone_ejectionPort" 54
end
skeleton
time 0
0  0 0 0  0 0 0
1  0.000000 0.000000 0.000000  1.570796 -0.000000 0.000000
2  -1.843768 -8.254290 -12.055320  1.478439 -0.042710 -2.267952
3  0.000002 13.479278 0.000000  0.312534 -0.000000 -0.000000
4  -0.000000 13.477239 0.000000  -0.222322 -0.108568 0.164944
5  -0.267269 3.664728 -1.953293  0.570288 -0.108989 -1.360402
6  0.000000 1.180355 0.000000  -0.005540 -0.036957 -1.399219
7  -0.000001 0.817136 0.000001  0.012298 -0.000007 -1.214275
8  -0.249422 3.688543 -0.940889  0.326191 -0.061559 -1.352632
9  -0.000001 1.800633 0.000001  -0.000262 0.005352 -1.430231
10  -0.000000 1.243406 0.000000  0.002269 0.006116 -1.286349
11  -0.244726 3.701098 0.087733  0.221244 0.005544 -1.361061
12  0.000000 1.766583 -0.000000  0.004189 0.001125 -1.481426
13  0.000000 1.189004 0.000000  -0.004182 -0.017197 -1.374176
14  -0.277239 3.632251 1.274102  0.115075 0.054751 -1.366492
15  0.000000 1.798494 0.000000  0.002394 0.037772 -1.507786
16  0.000000 1.235451 0.000000  -0.008167 -0.002510 -1.289887
17  0.315441 0.857301 0.755944  -0.761000 2.412031 -1.377325
18  -0.000001 2.265940 -0.000000  -0.016207 -0.064542 -1.048595
19  0.000000 1.457811 -0.000000  -0.051901 0.018546 -0.626230
20  -1.259681 3.818377 1.286946  0.115075 0.054750 -1.366492
21  -1.226390 3.891695 0.090420  0.221244 0.005544 -1.361061
22  -1.231623 3.875535 -0.958680  0.326191 -0.061560 -1.352632
23  -1.209919 3.994784 -2.003048  0.570288 -0.108989 -1.360402
24  0.328906 0.095429 1.403533  -0.761000 2.412031 -1.377326
25  -2.418887 -6.292744 14.494144  1.593597 -0.178314 -2.412117
26  13.824293 -20.103218 10.765717  -1.570796 -0.000000 -1.570796
27  -1.843768 -8.254290 -12.055320  -0.051945 -0.000000 -1.570796
28  0.433020 -11.755867 -21.000002  -0.083842 -0.009362 3.131152
29  0.000000 13.479277 -0.000002  0.167696 0.000000 0.000000
30  0.000000 13.477240 0.000001  -0.083756 0.010203 0.009620
31  0.267270 3.664728 -1.953293  -0.106568 0.025893 0.137951
32  -0.000000 1.180357 -0.000001  -0.036623 0.007435 0.177465
33  -0.000002 0.817138 0.000001  0.004200 0.011559 -0.007420
34  0.249423 3.688543 -0.940890  -0.060580 0.013550 0.130737
35  0.000001 1.800635 -0.000001  0.004940 -0.002077 0.208495
36  -0.000001 1.243411 0.000002  0.006524 0.000040 0.064626
37  0.244726 3.701097 0.087732  0.005036 -0.002373 0.139323
38  -0.000000 1.766588 -0.000002  0.002490 0.003552 0.259702
39  -0.000000 1.189003 0.000001  -0.017590 0.001952 0.152464
40  0.277239 3.632249 1.274101  0.054558 -0.010184 0.144732
41  -0.000001 1.798490 -0.000003  0.036314 -0.010668 0.285912
42  -0.000001 1.235457 0.000001  -0.005152 -0.006816 0.068190
43  -0.315441 0.857301 0.755942  1.684115 -0.560091 -1.563926
44  -0.000000 2.265939 0.000000  -0.057905 0.032805 0.238898
45  0.000001 1.457813 0.000000  -0.029609 -0.046490 -0.034285
46  1.259681 3.818376 1.286945  0.054558 -0.010184 0.144732
47  1.226391 3.891695 0.090419  0.005036 -0.002373 0.139324
48  1.231623 3.875536 -0.958680  -0.060580 0.013550 0.130737
49  1.209919 3.994783 -2.003048  -0.106568 0.025893 0.137951
50  -0.328906 0.095430 1.403531  1.684115 -0.560091 -1.563926
51  0.152561 -38.616215 -21.000004  -0.000000 0.000000 3.141593
52  0.152561 -25.166061 -36.000004  -1.570796 -0.000000 1.570796
53  0.433020 -11.755867 -21.000002  -0.051945 0.000000 1.570796
54  -6.728912 -8.537814 -10.538116  1.675195 -0.053634 -1.559973
55  10.000001 -0.000000 -0.000001  0.000000 -0.000000 -0.000000
56  29.620380 2.666866 0.000001  0.000000 -0.000000 -0.000000
57  3.664052 2.228524 -2.524775  0.896270 -0.312009 2.775059
58  3.490278 2.388510 1.331885  0.000000 1.570796 0.000000
time 1
0  0 0 0  0 0 0
1  0.000000 0.000000 0.000000  1.570796 -0.000000 0.000000
2  -1.843768 -8.254290 -11.871601  1.478224 -0.042238 -2.267007
3  0.000001 13.479278 -0.000001  0.302784 0.000000 -0.000000
4  0.000000 13.477238 0.000000  -0.216842 -0.133394 0.168901
5  -0.267270 3.664726 -1.953293  0.570288 -0.108989 -1.360402
6  0.000001 1.180354 0.000000  -0.005540 -0.036957 -1.399219
7  0.000001 0.817136 -0.000000  0.012298 -0.000007 -1.214275
8  -0.249424 3.688541 -0.940889  0.326191 -0.061560 -1.352632
9  0.000001 1.800633 0.000000  -0.000262 0.005352 -1.430231
10  0.000000 1.243406 -0.000001  0.002269 0.006116 -1.286349
11  -0.244727 3.701096 0.087733  0.221244 0.005544 -1.361062
12  -0.000000 1.766585 -0.000000  0.004189 0.001125 -1.481426
13  0.000000 1.189003 -0.000001  -0.004182 -0.017197 -1.374176
14  -0.277240 3.632249 1.274102  0.115075 0.054750 -1.366492
15  -0.000000 1.798495 -0.000000  0.002394 0.037772 -1.507785
16  0.000001 1.235451 -0.000001  -0.008167 -0.002510 -1.289887
17  0.315441 0.857300 0.755944  -0.761000 2.412031 -1.377326
18  0.000000 2.265938 -0.000001  -0.016207 -0.064542 -1.048595
19  0.000000 1.457811 -0.000000  -0.051901 0.018546 -0.626230
20  -1.259682 3.818376 1.286946  0.115075 0.054750 -1.366492
21  -1.226392 3.891693 0.090419  0.221244 0.005544 -1.361061
22  -1.231623 3.875535 -0.958680  0.326191 -0.061560 -1.352632
23  -1.209920 3.994781 -2.003047  0.570288 -0.108989 -1.360402
24  0.328905 0.095428 1.403533  -0.761000 2.412031 -1.377326
25  -2.325120 -6.387964 14.706787  1.593987 -0.177246 -2.435259
26  13.824293 -20.103218 10.765717  -1.570796 -0.000000 -1.570796
27  -1.843768 -8.254290 -11.871601  -0.051945 -0.000000 -1.570796
28  0.433020 -11.755867 -21.000002  -0.083842 -0.009362 3.131152
29  0.000000 13.479277 -0.000002  0.167696 0.000000 0.000000
30  0.000000 13.477240 0.000001  -0.083756 0.010203 0.009620
31  0.267270 3.664728 -1.953293  -0.106568 0.025893 0.137951
32  -0.000000 1.180357 -0.000001  -0.036623 0.007435 0.177465
33  -0.000002 0.817138 0.000001  0.004200 0.011559 -0.007420
34  0.249423 3.688543 -0.940890  -0.060580 0.013550 0.130737
35  0.000001 1.800635 -0.000001  0.004940 -0.002077 0.208495
36  -0.000001 1.243411 0.000002  0.006524 0.000040 0.064626
37  0.244726 3.701097 0.087732  0.005036 -0.002373 0.139323
38  -0.000000 1.766588 -0.000002  0.002490 0.003552 0.259702
39  -0.000000 1.189003 0.000001  -0.017590 0.001952 0.152464
40  0.277239 3.632249 1.274101  0.054558 -0.010184 0.144732
41  -0.000001 1.798490 -0.000003  0.036314 -0.010668 0.285912
42  -0.000001 1.235457 0.000001  -0.005152 -0.006816 0.068190
43  -0.315441 0.857301 0.755942  1.684115 -0.560091 -1.563926
44  -0.000000 2.265939 0.000000  -0.057905 0.032805 0.238898
45  0.000001 1.457813 0.000000  -0.029609 -0.046490 -0.034285
46  1.259681 3.818376 1.286945  0.054558 -0.010184 0.144732
47  1.226391 3.891695 0.090419  0.005036 -0.002373 0.139324
48  1.231623 3.875536 -0.958680  -0.060580 0.013550 0.130737
49  1.209919 3.994783 -2.003048  -0.106568 0.025893 0.137951
50  -0.328906 0.095430 1.403531  1.684115 -0.560091 -1.563926
51  0.152561 -38.616215 -21.000004  -0.000000 0.000000 3.141593
52  0.152561 -25.166061 -36.000004  -1.570796 -0.000000 1.570796
53  0.433020 -11.755867 -21.000002  -0.051945 0.000000 1.570796
54  -6.725615 -8.744118 -10.530377  1.652095 -0.052969 -1.559799
55  10.000000 0.000000 -0.000001  -0.000000 -0.000000 -0.000000
56  29.620378 2.666867 0.000001  -0.000000 -0.000000 -0.000000
57  3.664050 2.228526 -2.524776  0.854741 -0.171801 2.947588
58  3.490277 2.388510 1.331887  0.000000 1.570796 0.000000
time 2
0  0 0 0  0 0 0
1  0.000000 0.000000 0.000000  1.570796 -0.000000 0.000000
2  -1.843767 -8.254290 -11.448718  1.479946 -0.040749 -2.264407
3  0.000002 13.479276 -0.000001  0.276942 0.000000 -0.000000
4  -0.000000 13.477240 -0.000000  -0.203272 -0.189008 0.176375
5  -0.267269 3.664725 -1.953293  0.570288 -0.108989 -1.360402
6  -0.000002 1.180355 0.000000  -0.005540 -0.036957 -1.399219
7  0.000000 0.817133 0.000001  0.012298 -0.000007 -1.214275
8  -0.249422 3.688542 -0.940888  0.326191 -0.061559 -1.352632
9  -0.000001 1.800634 0.000000  -0.000262 0.005352 -1.430232
10  -0.000001 1.243406 0.000000  0.002269 0.006116 -1.286349
11  -0.244726 3.701097 0.087733  0.221244 0.005544 -1.361061
12  -0.000001 1.766585 -0.000000  0.004189 0.001125 -1.481425
13  -0.000000 1.189003 0.000000  -0.004182 -0.017197 -1.374175
14  -0.277239 3.632250 1.274102  0.115075 0.054750 -1.366492
15  0.000001 1.798495 0.000001  0.002394 0.037772 -1.507786
16  0.000000 1.235451 -0.000001  -0.008167 -0.002510 -1.289887
17  0.315442 0.857299 0.755944  -0.761000 2.412031 -1.377326
18  -0.000001 2.265939 -0.000000  -0.016207 -0.064542 -1.048595
19  0.000001 1.457814 -0.000001  -0.051901 0.018546 -0.626230
20  -1.259681 3.818375 1.286946  0.115075 0.054750 -1.366492
21  -1.226390 3.891692 0.090420  0.221244 0.005544 -1.361061
22  -1.231623 3.875534 -0.958680  0.326191 -0.061560 -1.352632
23  -1.209919 3.994782 -2.003047  0.570288 -0.108989 -1.360402
24  0.328906 0.095428 1.403533  -0.761000 2.412031 -1.377326
25  -2.126250 -6.606572 15.197380  1.594370 -0.174768 -2.486095
26  13.824293 -20.103218 10.765717  -1.570796 -0.000000 -1.570796
27  -1.843767 -8.254290 -11.448718  -0.051945 -0.000000 -1.570796
28  0.433020 -11.755867 -21.000002  -0.083842 -0.009362 3.131152
29  0.000000 13.479277 -0.000002  0.167696 0.000000 0.000000
30  0.000000 13.477240 0.000001  -0.083756 0.010203 0.009620
31  0.267270 3.664728 -1.953293  -0.106568 0.025893 0.137951
32  -0.000000 1.180357 -0.000001  -0.036623 0.007435 0.177465
33  -0.000002 0.817138 0.000001  0.004200 0.011559 -0.007420
34  0.249423 3.688543 -0.940890  -0.060580 0.013550 0.130737
35  0.000001 1.800635 -0.000001  0.004940 -0.002077 0.208495
36  -0.000001 1.243411 0.000002  0.006524 0.000040 0.064626
37  0.244726 3.701097 0.087732  0.005036 -0.002373 0.139323
38  -0.000000 1.766588 -0.000002  0.002490 0.003552 0.259702
39  -0.000000 1.189003 0.000001  -0.017590 0.001952 0.152464
40  0.277239 3.632249 1.274101  0.054558 -0.010184 0.144732
41  -0.000001 1.798490 -0.000003  0.036314 -0.010668 0.285912
42  -0.000001 1.235457 0.000001  -0.005152 -0.006816 0.068190
43  -0.315441 0.857301 0.755942  1.684115 -0.560091 -1.563926
44  -0.000000 2.265939 0.000000  -0.057905 0.032805 0.238898
45  0.000001 1.457813 0.000000  -0.029609 -0.046490 -0.034285
46  1.259681 3.818376 1.286945  0.054558 -0.010184 0.144732
47  1.226391 3.891695 0.090419  0.005036 -0.002373 0.139324
48  1.231623 3.875536 -0.958680  -0.060580 0.013550 0.130737
49  1.209919 3.994783 -2.003048  -0.106568 0.025893 0.137951
50  -0.328906 0.095430 1.403531  1.684115 -0.560091 -1.563926
51  0.152561 -38.616215 -21.000004  -0.000000 0.000000 3.141593
52  0.152561 -25.166061 -36.000004  -1.570796 -0.000000 1.570796
53  0.433020 -11.755867 -21.000002  -0.051945 0.000000 1.570796
54  -6.718189 -9.219877 -10.513099  1.601275 -0.051130 -1.559318
55  9.999999 -0.000000 -0.000000  0.000000 -0.000000 -0.000000
56  29.620382 2.666867 0.000002  0.000000 -0.000000 -0.000000
57  3.664050 2.228527 -2.524776  1.020108 0.511028 -2.469011
58  3.490278 2.388511 1.331885  0.000000 1.570796 0.000000
time 3
0  0 0 0  0 0 0
1  0.000000 0.000000 0.000000  1.570796 -0.000000 0.000000
2  -1.843768 -8.254290 -10.979080  1.486703 -0.038580 -2.261024
3  0.000002 13.479277 -0.000001  0.240920 0.000000 -0.000000
4  0.000001 13.477240 -0.000000  -0.185689 -0.246423 0.181170
5  -0.267269 3.664725 -1.953293  0.570288 -0.108989 -1.360402
6  -0.000001 1.180354 0.000001  -0.005540 -0.036957 -1.399219
7  0.000001 0.817134 -0.000001  0.012298 -0.000007 -1.214275
8  -0.249423 3.688540 -0.940889  0.326191 -0.061560 -1.352631
9  -0.000002 1.800633 0.000001  -0.000262 0.005352 -1.430231
10  0.000002 1.243407 -0.000000  0.002269 0.006116 -1.286349
11  -0.244726 3.701095 0.087733  0.221244 0.005544 -1.361062
12  -0.000002 1.766585 0.000000  0.004189 0.001125 -1.481426
13  -0.000001 1.189005 0.000001  -0.004182 -0.017197 -1.374176
14  -0.277239 3.632248 1.274102  0.115075 0.054750 -1.366492
15  0.000000 1.798495 -0.000000  0.002394 0.037772 -1.507786
16  0.000002 1.235454 0.000000  -0.008167 -0.002510 -1.289887
17  0.315442 0.857300 0.755944  -0.761000 2.412031 -1.377326
18  0.000001 2.265938 -0.000001  -0.016207 -0.064542 -1.048595
19  -0.000000 1.457813 -0.000000  -0.051901 0.018546 -0.626230
20  -1.259681 3.818375 1.286946  0.115075 0.054750 -1.366492
21  -1.226391 3.891691 0.090419  0.221244 0.005544 -1.361061
22  -1.231623 3.875533 -0.958680  0.326191 -0.061560 -1.352632
23  -1.209919 3.994781 -2.003048  0.570288 -0.108989 -1.360402
24  0.328906 0.095427 1.403533  -0.761000 2.412031 -1.377325
25  -1.937089 -6.839537 15.744509  1.593660 -0.172034 -2.536758
26  13.824293 -20.103218 10.765717  -1.570796 -0.000000 -1.570796
27  -1.843768 -8.254290 -10.979080  -0.051945 -0.000000 -1.570796
28  0.433020 -11.755867 -21.000002  -0.083842 -0.009362 3.131152
29  0.000000 13.479277 -0.000002  0.167696 0.000000 0.000000
30  0.000000 13.477240 0.000001  -0.083756 0.010203 0.009620
31  0.267270 3.664728 -1.953293  -0.106568 0.025893 0.137951
32  -0.000000 1.180357 -0.000001  -0.036623 0.007435 0.177465
33  -0.000002 0.817138 0.000001  0.004200 0.011559 -0.007420
34  0.249423 3.688543 -0.940890  -0.060580 0.013550 0.130737
35  0.000001 1.800635 -0.000001  0.004940 -0.002077 0.208495
36  -0.000001 1.243411 0.000002  0.006524 0.000040 0.064626
37  0.244726 3.701097 0.087732  0.005036 -0.002373 0.139323
38  -0.000000 1.766588 -0.000002  0.002490 0.003552 0.259702
39  -0.000000 1.189003 0.000001  -0.017590 0.001952 0.152464
40  0.277239 3.632249 1.274101  0.054558 -0.010184 0.144732
41  -0.000001 1.798490 -0.000003  0.036314 -0.010668 0.285912
42  -0.000001 1.235457 0.000001  -0.005152 -0.006816 0.068190
43  -0.315441 0.857301 0.755942  1.684115 -0.560091 -1.563926
44  -0.000000 2.265939 0.000000  -0.057905 0.032805 0.238898
45  0.000001 1.457813 0.000000  -0.029609 -0.046490 -0.034285
46  1.259681 3.818376 1.286945  0.054558 -0.010184 0.144732
47  1.226391 3.891695 0.090419  0.005036 -0.002373 0.139324
48  1.231623 3.875536 -0.958680  -0.060580 0.013550 0.130737
49  1.209919 3.994783 -2.003048  -0.106568 0.025893 0.137951
50  -0.328906 0.095430 1.403531  1.684115 -0.560091 -1.563926
51  0.152561 -38.616215 -21.000004  -0.000000 0.000000 3.141593
52  0.152561 -25.166061 -36.000004  -1.570796 -0.000000 1.570796
53  0.433020 -11.755867 -21.000002  -0.051945 0.000000 1.570796
54  -6.710333 -9.750361 -10.495179  1.550457 -0.048352 -1.558589
55  10.000001 -0.000001 -0.000001  0.000000 -0.000000 -0.000000
56  29.620378 2.666865 0.000001  0.000000 -0.000000 -0.000000
57  3.664051 2.228526 -2.524776  1.570796 0.732815 -1.570796
58  3.490277 2.388510 1.331886  0.000000 1.570796 0.000000
time 4
0  0 0 0  0 0 0
1  0.000000 0.000000 0.000000  1.570796 -0.000000 0.000000
2  -1.843768 -8.254290 -10.627092  1.488999 -0.037187 -2.258811
3  0.000001 13.479276 0.000000  0.225361 -0.000000 -0.000000
4  -0.000000 13.477239 0.000000  -0.179807 -0.273016 0.182279
5  -0.267269 3.664726 -1.953293  0.570288 -0.108989 -1.360402
6  0.000000 1.180355 0.000001  -0.005540 -0.036957 -1.399219
7  0.000000 0.817135 -0.000000  0.012298 -0.000007 -1.214275
8  -0.249423 3.688540 -0.940889  0.326191 -0.061560 -1.352632
9  0.000002 1.800633 -0.000000  -0.000262 0.005352 -1.430232
10  -0.000001 1.243402 -0.000000  0.002269 0.006116 -1.286349
11  -0.244726 3.701097 0.087732  0.221244 0.005544 -1.361061
12  0.000000 1.766585 -0.000001  0.004189 0.001125 -1.481426
13  -0.000000 1.189004 0.000001  -0.004182 -0.017197 -1.374176
14  -0.277239 3.632249 1.274102  0.115075 0.054750 -1.366492
15  0.000000 1.798494 0.000001  0.002394 0.037772 -1.507786
16  0.000000 1.235449 -0.000001  -0.008167 -0.002510 -1.289887
17  0.315442 0.857301 0.755944  -0.761000 2.412031 -1.377325
18  0.000000 2.265940 0.000001  -0.016207 -0.064542 -1.048595
19  -0.000001 1.457813 -0.000000  -0.051901 0.018546 -0.626230
20  -1.259681 3.818375 1.286945  0.115075 0.054750 -1.366492
21  -1.226390 3.891694 0.090419  0.221244 0.005544 -1.361061
22  -1.231623 3.875536 -0.958681  0.326191 -0.061560 -1.352632
23  -1.209919 3.994782 -2.003048  0.570288 -0.108989 -1.360402
24  0.328906 0.095428 1.403532  -0.761000 2.412031 -1.377325
25  -1.850454 -6.960297 16.127197  1.591067 -0.170120 -2.559430
26  13.824293 -20.103218 10.765717  -1.570796 -0.000000 -1.570796
27  -1.843768 -8.254290 -10.627092  -0.051945 -0.000000 -1.570796
28  0.433020 -11.755867 -21.000002  -0.083842 -0.009362 3.131152
29  0.000000 13.479277 -0.000002  0.167696 0.000000 0.000000
30  0.000000 13.477240 0.000001  -0.083756 0.010203 0.009620
31  0.267270 3.664728 -1.953293  -0.106568 0.025893 0.137951
32  -0.000000 1.180357 -0.000001  -0.036623 0.007435 0.177465
33  -0.000002 0.817138 0.000001  0.004200 0.011559 -0.007420
34  0.249423 3.688543 -0.940890  -0.060580 0.013550 0.130737
35  0.000001 1.800635 -0.000001  0.004940 -0.002077 0.208495
36  -0.000001 1.243411 0.000002  0.006524 0.000040 0.064626
37  0.244726 3.701097 0.087732  0.005036 -0.002373 0.139323
38  -0.000000 1.766588 -0.000002  0.002490 0.003552 0.259702
39  -0.000000 1.189003 0.000001  -0.017590 0.001952 0.152464
40  0.277239 3.632249 1.274101  0.054558 -0.010184 0.144732
41  -0.000001 1.798490 -0.000003  0.036314 -0.010668 0.285912
42  -0.000001 1.235457 0.000001  -0.005152 -0.006816 0.068190
43  -0.315441 0.857301 0.755942  1.684115 -0.560091 -1.563926
44  -0.000000 2.265939 0.000000  -0.057905 0.032805 0.238898
45  0.000001 1.457813 0.000000  -0.029609 -0.046490 -0.034285
46  1.259681 3.818376 1.286945  0.054558 -0.010184 0.144732
47  1.226391 3.891695 0.090419  0.005036 -0.002373 0.139324
48  1.231623 3.875536 -0.958680  -0.060580 0.013550 0.130737
49  1.209919 3.994783 -2.003048  -0.106568 0.025893 0.137951
50  -0.328906 0.095430 1.403531  1.684115 -0.560091 -1.563926
51  0.152561 -38.616215 -21.000004  -0.000000 0.000000 3.141593
52  0.152561 -25.166061 -36.000004  -1.570796 -0.000000 1.570796
53  0.433020 -11.755867 -21.000002  -0.051945 0.000000 1.570796
54  -6.705746 -10.120841 -10.485520  1.527360 -0.044871 -1.557670
55  9.999999 0.000001 -0.000001  0.000000 -0.000000 -0.000000
56  29.620382 2.666868 0.000001  0.000000 -0.000000 -0.000000
57  3.664052 2.228528 -2.524775  1.239105 0.666250 -2.079201
58  3.490277 2.388512 1.331886  0.000000 1.570796 0.000000
time 5
0  0 0 0  0 0 0
1  0.000000 0.000000 0.000000  1.570796 -0.000000 0.000000
2  -1.843768 -8.254290 -10.409547  1.487569 -0.036911 -2.258100
3  0.000002 13.479278 -0.000000  0.227563 -0.000000 -0.000000
4  0.000000 13.477238 -0.000000  -0.183801 -0.271119 0.181086
5  -0.267269 3.664725 -1.953293  0.570288 -0.108989 -1.360402
6  0.000003 1.180354 -0.000000  -0.005540 -0.036957 -1.399219
7  -0.000002 0.817135 -0.000000  0.012298 -0.000007 -1.214275
8  -0.249423 3.688541 -0.940889  0.326191 -0.061560 -1.352632
9  0.000002 1.800633 -0.000000  -0.000262 0.005352 -1.430232
10  -0.000001 1.243405 -0.000001  0.002269 0.006116 -1.286349
11  -0.244727 3.701096 0.087733  0.221244 0.005544 -1.361062
12  0.000003 1.766584 -0.000000  0.004189 0.001125 -1.481426
13  0.000000 1.189003 -0.000001  -0.004182 -0.017197 -1.374176
14  -0.277239 3.632247 1.274102  0.115075 0.054750 -1.366492
15  -0.000000 1.798492 -0.000000  0.002394 0.037772 -1.507786
16  0.000001 1.235452 0.000001  -0.008167 -0.002510 -1.289887
17  0.315441 0.857299 0.755944  -0.761000 2.412031 -1.377325
18  0.000002 2.265939 0.000001  -0.016207 -0.064542 -1.048595
19  0.000000 1.457809 -0.000000  -0.051901 0.018546 -0.626230
20  -1.259681 3.818375 1.286945  0.115075 0.054750 -1.366492
21  -1.226391 3.891691 0.090419  0.221244 0.005544 -1.361061
22  -1.231623 3.875533 -0.958680  0.326191 -0.061560 -1.352631
23  -1.209919 3.994781 -2.003048  0.570288 -0.108989 -1.360402
24  0.328906 0.095429 1.403533  -0.761000 2.412031 -1.377325
25  -1.849259 -6.971757 16.341938  1.587060 -0.168878 -2.556685
26  13.824293 -20.103218 10.765717  -1.570796 -0.000000 -1.570796
27  -1.843768 -8.254290 -10.409547  -0.051945 -0.000000 -1.570796
28  0.433020 -11.755867 -21.000002  -0.083842 -0.009362 3.131152
29  0.000000 13.479277 -0.000002  0.167696 0.000000 0.000000
30  0.000000 13.477240 0.000001  -0.083756 0.010203 0.009620
31  0.267270 3.664728 -1.953293  -0.106568 0.025893 0.137951
32  -0.000000 1.180357 -0.000001  -0.036623 0.007435 0.177465
33  -0.000002 0.817138 0.000001  0.004200 0.011559 -0.007420
34  0.249423 3.688543 -0.940890  -0.060580 0.013550 0.130737
35  0.000001 1.800635 -0.000001  0.004940 -0.002077 0.208495
36  -0.000001 1.243411 0.000002  0.006524 0.000040 0.064626
37  0.244726 3.701097 0.087732  0.005036 -0.002373 0.139323
38  -0.000000 1.766588 -0.000002  0.002490 0.003552 0.259702
39  -0.000000 1.189003 0.000001  -0.017590 0.001952 0.152464
40  0.277239 3.632249 1.274101  0.054558 -0.010184 0.144732
41  -0.000001 1.798490 -0.000003  0.036314 -0.010668 0.285912
42  -0.000001 1.235457 0.000001  -0.005152 -0.006816 0.068190
43  -0.315441 0.857301 0.755942  1.684115 -0.560091 -1.563926
44  -0.000000 2.265939 0.000000  -0.057905 0.032805 0.238898
45  0.000001 1.457813 0.000000  -0.029609 -0.046490 -0.034285
46  1.259681 3.818376 1.286945  0.054558 -0.010184 0.144732
47  1.226391 3.891695 0.090419  0.005036 -0.002373 0.139324
48  1.231623 3.875536 -0.958680  -0.060580 0.013550 0.130737
49  1.209919 3.994783 -2.003048  -0.106568 0.025893 0.137951
50  -0.328906 0.095430 1.403531  1.684115 -0.560091 -1.563926
51  0.152561 -38.616215 -21.000004  -0.000000 0.000000 3.141593
52  0.152561 -25.166061 -36.000004  -1.570796 -0.000000 1.570796
53  0.433020 -11.755867 -21.000002  -0.051945 0.000000 1.570796
54  -6.704125 -10.327117 -10.483106  1.529485 -0.040919 -1.556621
55  9.999999 0.000001 -0.000000  0.000000 -0.000000 -0.000000
56  29.620382 2.666868 0.000002  0.000000 -0.000000 -0.000000
57  3.664051 2.228526 -2.524775  1.004044 0.492726 -2.502396
58  3.490277 2.388511 1.331887  0.000000 1.570796 0.000000
time 6
0  0 0 0  0 0 0
1  0.000000 0.000000 0.000000  1.570796 -0.000000 0.000000
2  -1.843767 -8.254290 -10.213081  1.486057 -0.036793 -2.257605
3  0.000002 13.479277 -0.000000  0.231293 0.000000 -0.000000
4  -0.000001 13.477241 0.000000  -0.188802 -0.265385 0.179354
5  -0.267269 3.664727 -1.953293  0.570287 -0.108989 -1.360402
6  0.000001 1.180355 0.000001  -0.005540 -0.036957 -1.399219
7  -0.000002 0.817134 -0.000001  0.012298 -0.000007 -1.214275
8  -0.249423 3.688540 -0.940889  0.326191 -0.061560 -1.352632
9  -0.000000 1.800633 -0.000000  -0.000262 0.005352 -1.430231
10  0.000001 1.243408 -0.000000  0.002269 0.006116 -1.286349
11  -0.244727 3.701095 0.087733  0.221244 0.005544 -1.361062
12  -0.000001 1.766584 -0.000001  0.004189 0.001125 -1.481426
13  -0.000001 1.189003 -0.000001  -0.004182 -0.017197 -1.374176
14  -0.277239 3.632249 1.274102  0.115075 0.054750 -1.366492
15  0.000000 1.798495 -0.000000  0.002394 0.037772 -1.507786
16  -0.000001 1.235450 -0.000001  -0.008167 -0.002510 -1.289887
17  0.315441 0.857300 0.755944  -0.761000 2.412031 -1.377325
18  -0.000002 2.265938 0.000000  -0.016207 -0.064542 -1.048595
19  0.000000 1.457812 -0.000000  -0.051901 0.018546 -0.626230
20  -1.259681 3.818375 1.286946  0.115075 0.054750 -1.366492
21  -1.226391 3.891691 0.090419  0.221244 0.005544 -1.361061
22  -1.231623 3.875534 -0.958680  0.326191 -0.061560 -1.352632
23  -1.209920 3.994782 -2.003047  0.570287 -0.108989 -1.360402
24  0.328906 0.095430 1.403533  -0.761000 2.412031 -1.377325
25  -1.859201 -6.968494 16.532480  1.582705 -0.167624 -2.550425
26  13.824293 -20.103218 10.765717  -1.570796 -0.000000 -1.570796
27  -1.843767 -8.254290 -10.213081  -0.051945 -0.000000 -1.570796
28  0.433020 -11.755867 -21.000002  -0.083842 -0.009362 3.131152
29  0.000000 13.479277 -0.000002  0.167696 0.000000 0.000000
30  0.000000 13.477240 0.000001  -0.083756 0.010203 0.009620
31  0.267270 3.664728 -1.953293  -0.106568 0.025893 0.137951
32  -0.000000 1.180357 -0.000001  -0.036623 0.007435 0.177465
33  -0.000002 0.817138 0.000001  0.004200 0.011559 -0.007420
34  0.249423 3.688543 -0.940890  -0.060580 0.013550 0.130737
35  0.000001 1.800635 -0.000001  0.004940 -0.002077 0.208495
36  -0.000001 1.243411 0.000002  0.006524 0.000040 0.064626
37  0.244726 3.701097 0.087732  0.005036 -0.002373 0.139323
38  -0.000000 1.766588 -0.000002  0.002490 0.003552 0.259702
39  -0.000000 1.189003 0.000001  -0.017590 0.001952 0.152464
40  0.277239 3.632249 1.274101  0.054558 -0.010184 0.144732
41  -0.000001 1.798490 -0.000003  0.036314 -0.010668 0.285912
42  -0.000001 1.235457 0.000001  -0.005152 -0.006816 0.068190
43  -0.315441 0.857301 0.755942  1.684115 -0.560091 -1.563926
44  -0.000000 2.265939 0.000000  -0.057905 0.032805 0.238898
45  0.000001 1.457813 0.000000  -0.029609 -0.046490 -0.034285
46  1.259681 3.818376 1.286945  0.054558 -0.010184 0.144732
47  1.226391 3.891695 0.090419  0.005036 -0.002373 0.139324
48  1.231623 3.875536 -0.958680  -0.060580 0.013550 0.130737
49  1.209919 3.994783 -2.003048  -0.106568 0.025893 0.137951
50  -0.328906 0.095430 1.403531  1.684115 -0.560091 -1.563926
51  0.152561 -38.616215 -21.000004  -0.000000 0.000000 3.141593
52  0.152561 -25.166061 -36.000004  -1.570796 -0.000000 1.570796
53  0.433020 -11.755867 -21.000002  -0.051945 0.000000 1.570796
54  -6.702695 -10.509155 -10.480974  1.535082 -0.036733 -1.555501
55  10.000000 0.000000 -0.000001  0.000000 -0.000000 -0.000000
56  29.620380 2.666867 0.000001  0.000000 -0.000000 -0.000000
57  3.664051 2.228527 -2.524776  1.239105 0.666250 -2.079201
58  3.490278 2.388511 1.331886  0.000000 1.570796 0.000000
time 7
0  0 0 0  0 0 0
1  0.000000 0.000000 0.000000  1.570796 -0.000000 0.000000
2  -1.843678 -8.254290 -10.040269  1.485476 -0.036783 -2.257273
3  0.000001 13.479277 -0.000000  0.234134 0.000000 -0.000000
4  0.000001 13.477240 -0.000001  -0.193389 -0.257265 0.177007
5  -0.267269 3.664726 -1.953293  0.570288 -0.108989 -1.360402
6  -0.000000 1.180355 0.000000  -0.005540 -0.036957 -1.399219
7  0.000000 0.817138 0.000001  0.012298 -0.000007 -1.214275
8  -0.249422 3.688542 -0.940888  0.326191 -0.061560 -1.352632
9  -0.000000 1.800634 0.000001  -0.000262 0.005352 -1.430231
10  -0.000000 1.243405 0.000001  0.002269 0.006116 -1.286349
11  -0.244726 3.701097 0.087733  0.221244 0.005544 -1.361061
12  -0.000000 1.766584 -0.000000  0.004189 0.001125 -1.481426
13  0.000000 1.189004 0.000001  -0.004182 -0.017197 -1.374175
14  -0.277238 3.632251 1.274103  0.115075 0.054750 -1.366492
15  0.000000 1.798494 0.000000  0.002394 0.037772 -1.507786
16  0.000001 1.235452 0.000000  -0.008167 -0.002510 -1.289887
17  0.315442 0.857301 0.755944  -0.761000 2.412031 -1.377325
18  0.000002 2.265940 -0.000000  -0.016207 -0.064542 -1.048595
19  0.000000 1.457807 0.000000  -0.051901 0.018546 -0.626230
20  -1.259681 3.818376 1.286946  0.115075 0.054750 -1.366492
21  -1.226390 3.891693 0.090419  0.221244 0.005544 -1.361061
22  -1.231623 3.875535 -0.958680  0.326191 -0.061560 -1.352632
23  -1.209918 3.994783 -2.003048  0.570288 -0.108989 -1.360402
24  0.328907 0.095431 1.403533  -0.761000 2.412031 -1.377325
25  -1.877065 -6.954701 16.700161  1.578286 -0.166371 -2.541848
26  13.824293 -20.103218 10.765717  -1.570796 -0.000000 -1.570796
27  -1.843678 -8.254290 -10.040269  -0.051945 -0.000000 -1.570796
28  0.433020 -11.755867 -21.000002  -0.083842 -0.009362 3.131152
29  0.000000 13.479277 -0.000002  0.167696 0.000000 0.000000
30  0.000000 13.477240 0.000001  -0.083756 0.010203 0.009620
31  0.267270 3.664728 -1.953293  -0.106568 0.025893 0.137951
32  -0.000000 1.180357 -0.000001  -0.036623 0.007435 0.177465
33  -0.000002 0.817138 0.000001  0.004200 0.011559 -0.007420
34  0.249423 3.688543 -0.940890  -0.060580 0.013550 0.130737
35  0.000001 1.800635 -0.000001  0.004940 -0.002077 0.208495
36  -0.000001 1.243411 0.000002  0.006524 0.000040 0.064626
37  0.244726 3.701097 0.087732  0.005036 -0.002373 0.139323
38  -0.000000 1.766588 -0.000002  0.002490 0.003552 0.259702
39  -0.000000 1.189003 0.000001  -0.017590 0.001952 0.152464
40  0.277239 3.632249 1.274101  0.054558 -0.010184 0.144732
41  -0.000001 1.798490 -0.000003  0.036314 -0.010668 0.285912
42  -0.000001 1.235457 0.000001  -0.005152 -0.006816 0.068190
43  -0.315441 0.857301 0.755942  1.684115 -0.560091 -1.563926
44  -0.000000 2.265939 0.000000  -0.057905 0.032805 0.238898
45  0.000001 1.457813 0.000000  -0.029609 -0.046490 -0.034285
46  1.259681 3.818376 1.286945  0.054558 -0.010184 0.144732
47  1.226391 3.891695 0.090419  0.005036 -0.002373 0.139324
48  1.231623 3.875536 -0.958680  -0.060580 0.013550 0.130737
49  1.209919 3.994783 -2.003048  -0.106568 0.025893 0.137951
50  -0.328906 0.095430 1.403531  1.684115 -0.560091 -1.563926
51  0.152561 -38.616215 -21.000004  -0.000000 0.000000 3.141593
52  0.152561 -25.166061 -36.000004  -1.570796 -0.000000 1.570796
53  0.433020 -11.755867 -21.000002  -0.051945 0.000000 1.570796
54  -6.701443 -10.668470 -10.479110  1.542997 -0.032548 -1.554368
55  9.999998 0.000001 -0.000000  0.000000 -0.000000 -0.000000
56  29.620380 2.666867 0.000002  0.000000 -0.000000 -0.000000
57  3.664051 2.228527 -2.524775  1.570796 0.732815 -1.570796
58  3.490278 2.388511 1.331886  0.000000 1.570796 0.000000
time 8
0  0 0 0  0 0 0
1  0.000000 0.000000 0.000000  1.570796 -0.000000 0.000000
2  -1.843617 -8.254290 -9.895489  1.487326 -0.036837 -2.257061
3  0.000002 13.479277 -0.000000  0.232672 0.000000 -0.000000
4  -0.000000 13.477240 -0.000000  -0.195644 -0.248277 0.173909
5  -0.267270 3.664726 -1.953293  0.570288 -0.108989 -1.360402
6  -0.000001 1.180356 -0.000001  -0.005540 -0.036957 -1.399219
7  0.000000 0.817139 0.000001  0.012298 -0.000007 -1.214275
8  -0.249423 3.688540 -0.940889  0.326191 -0.061560 -1.352632
9  -0.000001 1.800633 0.000000  -0.000262 0.005352 -1.430231
10  0.000000 1.243407 0.000000  0.002269 0.006116 -1.286349
11  -0.244726 3.701096 0.087732  0.221244 0.005544 -1.361061
12  -0.000003 1.766584 0.000001  0.004189 0.001125 -1.481426
13  -0.000001 1.189003 0.000000  -0.004182 -0.017197 -1.374175
14  -0.277240 3.632246 1.274102  0.115075 0.054750 -1.366492
15  0.000001 1.798496 0.000000  0.002394 0.037772 -1.507786
16  0.000001 1.235451 0.000000  -0.008167 -0.002510 -1.289887
17  0.315441 0.857300 0.755943  -0.761000 2.412031 -1.377325
18  -0.000002 2.265937 0.000000  -0.016207 -0.064542 -1.048595
19  0.000000 1.457813 -0.000000  -0.051901 0.018546 -0.626230
20  -1.259681 3.818374 1.286945  0.115075 0.054750 -1.366492
21  -1.226391 3.891694 0.090419  0.221244 0.005544 -1.361061
22  -1.231624 3.875533 -0.958681  0.326191 -0.061560 -1.352632
23  -1.209919 3.994782 -2.003048  0.570288 -0.108989 -1.360402
24  0.328906 0.095428 1.403533  -0.761000 2.412031 -1.377325
25  -1.899566 -6.934528 16.846210  1.574077 -0.165159 -2.532150
26  13.824293 -20.103218 10.765717  -1.570796 -0.000000 -1.570796
27  -1.843617 -8.254290 -9.895489  -0.051945 -0.000000 -1.570796
28  0.433020 -11.755867 -21.000002  -0.083842 -0.009362 3.131152
29  0.000000 13.479277 -0.000002  0.167696 0.000000 0.000000
30  0.000000 13.477240 0.000001  -0.083756 0.010203 0.009620
31  0.267270 3.664728 -1.953293  -0.106568 0.025893 0.137951
32  -0.000000 1.180357 -0.000001  -0.036623 0.007435 0.177465
33  -0.000002 0.817138 0.000001  0.004200 0.011559 -0.007420
34  0.249423 3.688543 -0.940890  -0.060580 0.013550 0.130737
35  0.000001 1.800635 -0.000001  0.004940 -0.002077 0.208495
36  -0.000001 1.243411 0.000002  0.006524 0.000040 0.064626
37  0.244726 3.701097 0.087732  0.005036 -0.002373 0.139323
38  -0.000000 1.766588 -0.000002  0.002490 0.003552 0.259702
39  -0.000000 1.189003 0.000001  -0.017590 0.001952 0.152464
40  0.277239 3.632249 1.274101  0.054558 -0.010184 0.144732
41  -0.000001 1.798490 -0.000003  0.036314 -0.010668 0.285912
42  -0.000001 1.235457 0.000001  -0.005152 -0.006816 0.068190
43  -0.315441 0.857301 0.755942  1.684115 -0.560091 -1.563926
44  -0.000000 2.265939 0.000000  -0.057905 0.032805 0.238898
45  0.000001 1.457813 0.000000  -0.029609 -0.046490 -0.034285
46  1.259681 3.818376 1.286945  0.054558 -0.010184 0.144732
47  1.226391 3.891695 0.090419  0.005036 -0.002373 0.139324
48  1.231623 3.875536 -0.958680  -0.060580 0.013550 0.130737
49  1.209919 3.994783 -2.003048  -0.106568 0.025893 0.137951
50  -0.328906 0.095430 1.403531  1.684115 -0.560091 -1.563926
51  0.152561 -38.616215 -21.000004  -0.000000 0.000000 3.141593
52  0.152561 -25.166061 -36.000004  -1.570796 -0.000000 1.570796
53  0.433020 -11.755867 -21.000002  -0.051945 0.000000 1.570796
54  -6.700358 -10.806577 -10.477493  1.552073 -0.028597 -1.553282
55  10.000002 0.000001 -0.000000  0.000000 -0.000000 -0.000000
56  29.620382 2.666868 0.000002  0.000000 -0.000000 -0.000000
57  3.664052 2.228527 -2.524775  1.570796 0.732815 -1.570796
58  3.490278 2.388511 1.331887  0.000000 1.570796 0.000000
time 9
0  0 0 0  0 0 0
1  0.000000 0.000000 0.000000  1.570796 -0.000000 0.000000
2  -1.843766 -8.254290 -9.773503  1.490037 -0.036930 -2.256924
3  0.000002 13.479276 -0.000000  0.229654 -0.000000 -0.000000
4  0.000000 13.477239 -0.000000  -0.196789 -0.239382 0.170737
5  -0.267270 3.664725 -1.953293  0.570287 -0.108989 -1.360402
6  0.000001 1.180354 0.000000  -0.005540 -0.036957 -1.399219
7  -0.000003 0.817133 -0.000001  0.012298 -0.000007 -1.214275
8  -0.249423 3.688540 -0.940889  0.326191 -0.061560 -1.352632
9  -0.000001 1.800633 0.000001  -0.000262 0.005352 -1.430231
10  0.000000 1.243404 -0.000001  0.002269 0.006116 -1.286349
11  -0.244727 3.701096 0.087732  0.221244 0.005544 -1.361062
12  0.000001 1.766584 0.000000  0.004189 0.001125 -1.481426
13  0.000001 1.189002 -0.000000  -0.004182 -0.017197 -1.374176
14  -0.277240 3.632246 1.274102  0.115075 0.054750 -1.366492
15  -0.000002 1.798493 -0.000000  0.002394 0.037772 -1.507786
16  0.000001 1.235454 0.000001  -0.008167 -0.002510 -1.289887
17  0.315441 0.857300 0.755943  -0.760999 2.412031 -1.377325
18  -0.000000 2.265939 -0.000001  -0.016207 -0.064542 -1.048595
19  0.000000 1.457810 0.000000  -0.051901 0.018546 -0.626230
20  -1.259681 3.818375 1.286945  0.115075 0.054750 -1.366492
21  -1.226391 3.891692 0.090419  0.221244 0.005544 -1.361061
22  -1.231624 3.875535 -0.958680  0.326191 -0.061560 -1.352632
23  -1.209919 3.994782 -2.003048  0.570288 -0.108989 -1.360402
24  0.328906 0.095428 1.403532  -0.761000 2.412031 -1.377326
25  -1.923259 -6.912016 16.971712  1.570342 -0.164059 -2.522527
26  13.824293 -20.103218 10.765717  -1.570796 -0.000000 -1.570796
27  -1.843766 -8.254290 -9.773503  -0.051945 -0.000000 -1.570796
28  0.433020 -11.755867 -21.000002  -0.083842 -0.009362 3.131152
29  0.000000 13.479277 -0.000002  0.167696 0.000000 0.000000
30  0.000000 13.477240 0.000001  -0.083756 0.010203 0.009620
31  0.267270 3.664728 -1.953293  -0.106568 0.025893 0.137951
32  -0.000000 1.180357 -0.000001  -0.036623 0.007435 0.177465
33  -0.000002 0.817138 0.000001  0.004200 0.011559 -0.007420
34  0.249423 3.688543 -0.940890  -0.060580 0.013550 0.130737
35  0.000001 1.800635 -0.000001  0.004940 -0.002077 0.208495
36  -0.000001 1.243411 0.000002  0.006524 0.000040 0.064626
37  0.244726 3.701097 0.087732  0.005036 -0.002373 0.139323
38  -0.000000 1.766588 -0.000002  0.002490 0.003552 0.259702
39  -0.000000 1.189003 0.000001  -0.017590 0.001952 0.152464
40  0.277239 3.632249 1.274101  0.054558 -0.010184 0.144732
41  -0.000001 1.798490 -0.000003  0.036314 -0.010668 0.285912
42  -0.000001 1.235457 0.000001  -0.005152 -0.006816 0.068190
43  -0.315441 0.857301 0.755942  1.684115 -0.560091 -1.563926
44  -0.000000 2.265939 0.000000  -0.057905 0.032805 0.238898
45  0.000001 1.457813 0.000000  -0.029609 -0.046490 -0.034285
46  1.259681 3.818376 1.286945  0.054558 -0.010184 0.144732
47  1.226391 3.891695 0.090419  0.005036 -0.002373 0.139324
48  1.231623 3.875536 -0.958680  -0.060580 0.013550 0.130737
49  1.209919 3.994783 -2.003048  -0.106568 0.025893 0.137951
50  -0.328906 0.095430 1.403531  1.684115 -0.560091 -1.563926
51  0.152561 -38.616215 -21.000004  -0.000000 0.000000 3.141593
52  0.152561 -25.166061 -36.000004  -1.570796 -0.000000 1.570796
53  0.433020 -11.755867 -21.000002  -0.051945 0.000000 1.570796
54  -6.699428 -10.924990 -10.476107  1.561152 -0.025115 -1.552301
55  9.999998 0.000001 0.000000  0.000000 -0.000000 -0.000000
56  29.620382 2.666867 0.000002  0.000000 -0.000000 -0.000000
57  3.664051 2.228527 -2.524775  1.570796 0.732815 -1.570796
58  3.490277 2.388511 1.331887  0.000000 1.570796 0.000000
time 10
0  0 0 0  0 0 0
1  0.000000 0.000000 0.000000  1.570796 -0.000000 0.000000
2  -1.844209 -8.254290 -9.670030  1.492286 -0.037043 -2.256833
3  0.000002 13.479276 0.000000  0.227336 0.000000 -0.000000
4  -0.000001 13.477240 0.000001  -0.197788 -0.231587 0.168081
5  -0.267269 3.664725 -1.953292  0.570287 -0.108989 -1.360402
6  0.000001 1.180354 0.000000  -0.005540 -0.036957 -1.399219
7  0.000000 0.817136 0.000002  0.012298 -0.000007 -1.214275
8  -0.249422 3.688540 -0.940889  0.326191 -0.061560 -1.352632
9  0.000000 1.800632 -0.000001  -0.000262 0.005352 -1.430231
10  -0.000001 1.243406 -0.000001  0.002269 0.006116 -1.286349
11  -0.244725 3.701094 0.087732  0.221244 0.005544 -1.361062
12  0.000003 1.766583 -0.000001  0.004189 0.001125 -1.481426
13  -0.000001 1.189002 0.000000  -0.004182 -0.017197 -1.374176
14  -0.277239 3.632246 1.274102  0.115075 0.054751 -1.366492
15  -0.000001 1.798494 -0.000000  0.002394 0.037772 -1.507786
16  -0.000002 1.235450 -0.000001  -0.008167 -0.002510 -1.289887
17  0.315442 0.857300 0.755944  -0.761000 2.412031 -1.377326
18  0.000001 2.265940 -0.000000  -0.016207 -0.064542 -1.048595
19  0.000000 1.457812 -0.000000  -0.051901 0.018546 -0.626230
20  -1.259681 3.818373 1.286945  0.115075 0.054750 -1.366492
21  -1.226390 3.891693 0.090419  0.221244 0.005544 -1.361061
22  -1.231623 3.875532 -0.958680  0.326191 -0.061560 -1.352632
23  -1.209918 3.994779 -2.003048  0.570287 -0.108989 -1.360402
24  0.328906 0.095427 1.403532  -0.761000 2.412031 -1.377325
25  -1.944508 -6.891069 17.077623  1.567340 -0.163166 -2.514173
26  13.824293 -20.103218 10.765717  -1.570796 -0.000000 -1.570796
27  -1.844209 -8.254290 -9.670030  -0.051945 -0.000000 -1.570796
28  0.433020 -11.755867 -21.000002  -0.083842 -0.009362 3.131152
29  0.000000 13.479277 -0.000002  0.167696 0.000000 0.000000
30  0.000000 13.477240 0.000001  -0.083756 0.010203 0.009620
31  0.267270 3.664728 -1.953293  -0.106568 0.025893 0.137951
32  -0.000000 1.180357 -0.000001  -0.036623 0.007435 0.177465
33  -0.000002 0.817138 0.000001  0.004200 0.011559 -0.007420
34  0.249423 3.688543 -0.940890  -0.060580 0.013550 0.130737
35  0.000001 1.800635 -0.000001  0.004940 -0.002077 0.208495
36  -0.000001 1.243411 0.000002  0.006524 0.000040 0.064626
37  0.244726 3.701097 0.087732  0.005036 -0.002373 0.139323
38  -0.000000 1.766588 -0.000002  0.002490 0.003552 0.259702
39  -0.000000 1.189003 0.000001  -0.017590 0.001952 0.152464
40  0.277239 3.632249 1.274101  0.054558 -0.010184 0.144732
41  -0.000001 1.798490 -0.000003  0.036314 -0.010668 0.285912
42  -0.000001 1.235457 0.000001  -0.005152 -0.006816 0.068190
43  -0.315441 0.857301 0.755942  1.684115 -0.560091 -1.563926
44  -0.000000 2.265939 0.000000  -0.057905 0.032805 0.238898
45  0.000001 1.457813 0.000000  -0.029609 -0.046490 -0.034285
46  1.259681 3.818376 1.286945  0.054558 -0.010184 0.144732
47  1.226391 3.891695 0.090419  0.005036 -0.002373 0.139324
48  1.231623 3.875536 -0.958680  -0.060580 0.013550 0.130737
49  1.209919 3.994783 -2.003048  -0.106568 0.025893 0.137951
50  -0.328906 0.095430 1.403531  1.684115 -0.560091 -1.563926
51  0.152561 -38.616215 -21.000004  -0.000000 0.000000 3.141593
52  0.152561 -25.166061 -36.000004  -1.570796 -0.000000 1.570796
53  0.433020 -11.755867 -21.000002  -0.051945 0.000000 1.570796
54  -6.698640 -11.025225 -10.474934  1.569073 -0.022338 -1.551486
55  9.999999 0.000001 -0.000000  0.000000 -0.000000 -0.000000
56  29.620380 2.666868 0.000002  0.000000 -0.000000 -0.000000
57  3.664052 2.228526 -2.524775  1.570796 0.732815 -1.570796
58  3.490278 2.388512 1.331887  0.000000 1.570796 0.000000
time 11
0  0 0 0  0 0 0
1  0.000000 0.000000 0.000000  1.570796 -0.000000 0.000000
2  -1.844629 -8.254290 -9.584623  1.493935 -0.037148 -2.256768
3  0.000002 13.479275 -0.000000  0.225607 0.000000 -0.000000
4  0.000001 13.477238 -0.000000  -0.198397 -0.226085 0.166247
5  -0.267271 3.664727 -1.953292  0.570287 -0.108989 -1.360402
6  -0.000002 1.180354 -0.000000  -0.005540 -0.036957 -1.399219
7  0.000002 0.817137 0.000000  0.012298 -0.000007 -1.214275
8  -0.249423 3.688541 -0.940889  0.326191 -0.061560 -1.352632
9  0.000000 1.800633 -0.000000  -0.000262 0.005352 -1.430231
10  0.000000 1.243406 0.000000  0.002269 0.006116 -1.286349
11  -0.244727 3.701097 0.087733  0.221244 0.005544 -1.361061
12  -0.000001 1.766585 -0.000000  0.004189 0.001125 -1.481426
13  0.000000 1.189003 0.000000  -0.004182 -0.017197 -1.374175
14  -0.277240 3.632249 1.274102  0.115075 0.054751 -1.366492
15  -0.000000 1.798495 0.000000  0.002394 0.037772 -1.507786
16  0.000001 1.235451 0.000001  -0.008167 -0.002510 -1.289887
17  0.315441 0.857301 0.755943  -0.761000 2.412031 -1.377325
18  -0.000001 2.265940 -0.000000  -0.016207 -0.064542 -1.048595
19  0.000000 1.457811 0.000001  -0.051901 0.018546 -0.626230
20  -1.259682 3.818375 1.286945  0.115075 0.054750 -1.366492
21  -1.226392 3.891693 0.090419  0.221244 0.005544 -1.361061
22  -1.231624 3.875534 -0.958680  0.326191 -0.061560 -1.352632
23  -1.209920 3.994781 -2.003048  0.570287 -0.108989 -1.360402
24  0.328906 0.095428 1.403532  -0.761000 2.412031 -1.377325
25  -1.959523 -6.875475 17.164808  1.565320 -0.162593 -2.508281
26  13.824293 -20.103218 10.765717  -1.570796 -0.000000 -1.570796
27  -1.844629 -8.254290 -9.584623  -0.051945 -0.000000 -1.570796
28  0.433020 -11.755867 -21.000002  -0.083842 -0.009362 3.131152
29  0.000000 13.479277 -0.000002  0.167696 0.000000 0.000000
30  0.000000 13.477240 0.000001  -0.083756 0.010203 0.009620
31  0.267270 3.664728 -1.953293  -0.106568 0.025893 0.137951
32  -0.000000 1.180357 -0.000001  -0.036623 0.007435 0.177465
33  -0.000002 0.817138 0.000001  0.004200 0.011559 -0.007420
34  0.249423 3.688543 -0.940890  -0.060580 0.013550 0.130737
35  0.000001 1.800635 -0.000001  0.004940 -0.002077 0.208495
36  -0.000001 1.243411 0.000002  0.006524 0.000040 0.064626
37  0.244726 3.701097 0.087732  0.005036 -0.002373 0.139323
38  -0.000000 1.766588 -0.000002  0.002490 0.003552 0.259702
39  -0.000000 1.189003 0.000001  -0.017590 0.001952 0.152464
40  0.277239 3.632249 1.274101  0.054558 -0.010184 0.144732
41  -0.000001 1.798490 -0.000003  0.036314 -0.010668 0.285912
42  -0.000001 1.235457 0.000001  -0.005152 -0.006816 0.068190
43  -0.315441 0.857301 0.755942  1.684115 -0.560091 -1.563926
44  -0.000000 2.265939 0.000000  -0.057905 0.032805 0.238898
45  0.000001 1.457813 0.000000  -0.029609 -0.046490 -0.034285
46  1.259681 3.818376 1.286945  0.054558 -0.010184 0.144732
47  1.226391 3.891695 0.090419  0.005036 -0.002373 0.139324
48  1.231623 3.875536 -0.958680  -0.060580 0.013550 0.130737
49  1.209919 3.994783 -2.003048  -0.106568 0.025893 0.137951
50  -0.328906 0.095430 1.403531  1.684115 -0.560091 -1.563926
51  0.152561 -38.616215 -21.000004  -0.000000 0.000000 3.141593
52  0.152561 -25.166061 -36.000004  -1.570796 -0.000000 1.570796
53  0.433020 -11.755867 -21.000002  -0.051945 0.000000 1.570796
54  -6.697984 -11.108795 -10.473955  1.574675 -0.020499 -1.550894
55  10.000001 0.000000 -0.000000  0.000000 -0.000000 -0.000000
56  29.620382 2.666867 0.000001  0.000000 -0.000000 -0.000000
57  3.664052 2.228526 -2.524775  1.570796 0.732815 -1.570796
58  3.490279 2.388510 1.331887  0.000000 1.570796 0.000000
time 12
0  0 0 0  0 0 0
1  0.000000 0.000000 0.000000  1.570796 -0.000000 0.000000
2  -1.844620 -8.254290 -9.517798  1.495163 -0.037218 -2.256713
3  0.000001 13.479278 -0.000000  0.223732 0.000000 -0.000000
4  0.000000 13.477238 -0.000000  -0.198055 -0.224113 0.165473
5  -0.267270 3.664727 -1.953294  0.570287 -0.108989 -1.360402
6  -0.000000 1.180354 0.000001  -0.005540 -0.036957 -1.399218
7  -0.000002 0.817134 0.000002  0.012298 -0.000007 -1.214275
8  -0.249423 3.688541 -0.940889  0.326191 -0.061559 -1.352632
9  0.000000 1.800634 -0.000000  -0.000262 0.005352 -1.430231
10  0.000000 1.243406 0.000000  0.002269 0.006116 -1.286349
11  -0.244727 3.701094 0.087733  0.221244 0.005544 -1.361062
12  -0.000001 1.766586 -0.000000  0.004189 0.001125 -1.481426
13  -0.000002 1.189001 -0.000000  -0.004182 -0.017197 -1.374176
14  -0.277239 3.632247 1.274101  0.115075 0.054750 -1.366492
15  0.000000 1.798495 0.000000  0.002394 0.037772 -1.507786
16  -0.000000 1.235450 0.000001  -0.008167 -0.002510 -1.289887
17  0.315441 0.857299 0.755943  -0.761000 2.412031 -1.377326
18  0.000000 2.265941 0.000001  -0.016207 -0.064542 -1.048595
19  0.000000 1.457812 -0.000000  -0.051901 0.018546 -0.626230
20  -1.259681 3.818375 1.286945  0.115075 0.054750 -1.366492
21  -1.226391 3.891692 0.090418  0.221244 0.005544 -1.361061
22  -1.231623 3.875534 -0.958681  0.326191 -0.061560 -1.352632
23  -1.209920 3.994780 -2.003048  0.570287 -0.108989 -1.360402
24  0.328906 0.095429 1.403532  -0.761000 2.412031 -1.377325
25  -1.964448 -6.868970 17.234112  1.564531 -0.162458 -2.506044
26  13.824293 -20.103218 10.765717  -1.570796 -0.000000 -1.570796
27  -1.844620 -8.254290 -9.517798  -0.051945 -0.000000 -1.570796
28  0.433020 -11.755867 -21.000002  -0.083842 -0.009362 3.131152
29  0.000000 13.479277 -0.000002  0.167696 0.000000 0.000000
30  0.000000 13.477240 0.000001  -0.083756 0.010203 0.009620
31  0.267270 3.664728 -1.953293  -0.106568 0.025893 0.137951
32  -0.000000 1.180357 -0.000001  -0.036623 0.007435 0.177465
33  -0.000002 0.817138 0.000001  0.004200 0.011559 -0.007420
34  0.249423 3.688543 -0.940890  -0.060580 0.013550 0.130737
35  0.000001 1.800635 -0.000001  0.004940 -0.002077 0.208495
36  -0.000001 1.243411 0.000002  0.006524 0.000040 0.064626
37  0.244726 3.701097 0.087732  0.005036 -0.002373 0.139323
38  -0.000000 1.766588 -0.000002  0.002490 0.003552 0.259702
39  -0.000000 1.189003 0.000001  -0.017590 0.001952 0.152464
40  0.277239 3.632249 1.274101  0.054558 -0.010184 0.144732
41  -0.000001 1.798490 -0.000003  0.036314 -0.010668 0.285912
42  -0.000001 1.235457 0.000001  -0.005152 -0.006816 0.068190
43  -0.315441 0.857301 0.755942  1.684115 -0.560091 -1.563926
44  -0.000000 2.265939 0.000000  -0.057905 0.032805 0.238898
45  0.000001 1.457813 0.000000  -0.029609 -0.046490 -0.034285
46  1.259681 3.818376 1.286945  0.054558 -0.010184 0.144732
47  1.226391 3.891695 0.090419  0.005036 -0.002373 0.139324
48  1.231623 3.875536 -0.958680  -0.060580 0.013550 0.130737
49  1.209919 3.994783 -2.003048  -0.106568 0.025893 0.137951
50  -0.328906 0.095430 1.403531  1.684115 -0.560091 -1.563926
51  0.152561 -38.616215 -21.000004  -0.000000 0.000000 3.141593
52  0.152561 -25.166061 -36.000004  -1.570796 -0.000000 1.570796
53  0.433020 -11.755867 -21.000002  -0.051945 0.000000 1.570796
54  -6.697446 -11.177217 -10.473154  1.576799 -0.019834 -1.550584
55  10.000000 -0.000001 -0.000000  0.000000 -0.000000 -0.000000
56  29.620382 2.666867 0.000002  0.000000 -0.000000 -0.000000
57  3.664051 2.228525 -2.524775  1.570796 0.732815 -1.570796
58  3.490278 2.388509 1.331887  0.000000 1.570796 0.000000
time 13
0  0 0 0  0 0 0
1  0.000000 0.000000 0.000000  1.570796 -0.000000 0.000000
2  -1.843768 -8.254290 -9.470066  1.496918 -0.037237 -2.256670
3  0.000001 13.479276 0.000000  0.219962 0.000000 -0.000000
4  0.000000 13.477238 0.000000  -0.196124 -0.225171 0.165376
5  -0.267269 3.664725 -1.953293  0.570287 -0.108989 -1.360402
6  0.000001 1.180354 -0.000000  -0.005540 -0.036957 -1.399219
7  -0.000001 0.817136 -0.000001  0.012298 -0.000007 -1.214275
8  -0.249422 3.688540 -0.940889  0.326191 -0.061560 -1.352632
9  0.000001 1.800632 -0.000000  -0.000262 0.005352 -1.430231
10  -0.000000 1.243406 0.000000  0.002269 0.006116 -1.286349
11  -0.244726 3.701096 0.087733  0.221244 0.005544 -1.361062
12  -0.000002 1.766584 -0.000000  0.004189 0.001125 -1.481426
13  0.000000 1.189003 0.000001  -0.004182 -0.017197 -1.374176
14  -0.277239 3.632247 1.274103  0.115075 0.054750 -1.366492
15  0.000001 1.798495 0.000000  0.002394 0.037772 -1.507786
16  -0.000001 1.235450 0.000000  -0.008167 -0.002510 -1.289887
17  0.315441 0.857299 0.755943  -0.761000 2.412031 -1.377326
18  0.000002 2.265941 -0.000000  -0.016207 -0.064542 -1.048595
19  -0.000000 1.457813 -0.000000  -0.051901 0.018546 -0.626230
20  -1.259681 3.818374 1.286945  0.115075 0.054750 -1.366492
21  -1.226390 3.891692 0.090419  0.221244 0.005544 -1.361061
22  -1.231623 3.875533 -0.958680  0.326191 -0.061560 -1.352632
23  -1.209918 3.994781 -2.003048  0.570287 -0.108989 -1.360402
24  0.328906 0.095428 1.403532  -0.761000 2.412031 -1.377325
25  -1.960672 -6.870483 17.287569  1.564636 -0.162680 -2.506792
26  13.824293 -20.103218 10.765717  -1.570796 -0.000000 -1.570796
27  -1.843768 -8.254290 -9.470066  -0.051945 -0.000000 -1.570796
28  0.433020 -11.755867 -21.000002  -0.083842 -0.009362 3.131152
29  0.000000 13.479277 -0.000002  0.167696 0.000000 0.000000
30  0.000000 13.477240 0.000001  -0.083756 0.010203 0.009620
31  0.267270 3.664728 -1.953293  -0.106568 0.025893 0.137951
32  -0.000000 1.180357 -0.000001  -0.036623 0.007435 0.177465
33  -0.000002 0.817138 0.000001  0.004200 0.011559 -0.007420
34  0.249423 3.688543 -0.940890  -0.060580 0.013550 0.130737
35  0.000001 1.800635 -0.000001  0.004940 -0.002077 0.208495
36  -0.000001 1.243411 0.000002  0.006524 0.000040 0.064626
37  0.244726 3.701097 0.087732  0.005036 -0.002373 0.139323
38  -0.000000 1.766588 -0.000002  0.002490 0.003552 0.259702
39  -0.000000 1.189003 0.000001  -0.017590 0.001952 0.152464
40  0.277239 3.632249 1.274101  0.054558 -0.010184 0.144732
41  -0.000001 1.798490 -0.000003  0.036314 -0.010668 0.285912
42  -0.000001 1.235457 0.000001  -0.005152 -0.006816 0.068190
43  -0.315441 0.857301 0.755942  1.684115 -0.560091 -1.563926
44  -0.000000 2.265939 0.000000  -0.057905 0.032805 0.238898
45  0.000001 1.457813 0.000000  -0.029609 -0.046490 -0.034285
46  1.259681 3.818376 1.286945  0.054558 -0.010184 0.144732
47  1.226391 3.891695 0.090419  0.005036 -0.002373 0.139324
48  1.231623 3.875536 -0.958680  -0.060580 0.013550 0.130737
49  1.209919 3.994783 -2.003048  -0.106568 0.025893 0.137951
50  -0.328906 0.095430 1.403531  1.684115 -0.560091 -1.563926
51  0.152561 -38.616215 -21.000004  -0.000000 0.000000 3.141593
52  0.152561 -25.166061 -36.000004  -1.570796 -0.000000 1.570796
53  0.433020 -11.755867 -21.000002  -0.051945 0.000000 1.570796
54  -6.697016 -11.232006 -10.472513  1.576064 -0.020034 -1.550452
55  9.999999 0.000001 -0.000001  0.000000 -0.000000 -0.000000
56  29.620382 2.666868 0.000001  0.000000 -0.000000 -0.000000
57  3.664050 2.228526 -2.524776  1.570796 0.732815 -1.570796
58  3.490277 2.388511 1.331887  0.000000 1.570796 0.000000
time 14
0  0 0 0  0 0 0
1  0.000000 0.000000 0.000000  1.570796 -0.000000 0.000000
2  -1.843769 -8.254290 -9.436330  1.498691 -0.037261 -2.256630
3  0.000002 13.479277 -0.000001  0.215701 0.000000 -0.000000
4  -0.000000 13.477241 0.000000  -0.193684 -0.227509 0.165576
5  -0.267269 3.664725 -1.953293  0.570287 -0.108989 -1.360402
6  -0.000002 1.180355 0.000001  -0.005540 -0.036957 -1.399219
7  0.000000 0.817138 0.000001  0.012298 -0.000007 -1.214275
8  -0.249423 3.688543 -0.940889  0.326191 -0.061560 -1.352632
9  0.000000 1.800634 -0.000000  -0.000262 0.005352 -1.430231
10  0.000000 1.243404 0.000000  0.002269 0.006116 -1.286349
11  -0.244726 3.701097 0.087733  0.221244 0.005544 -1.361061
12  0.000002 1.766584 0.000000  0.004189 0.001125 -1.481426
13  -0.000002 1.189001 0.000000  -0.004182 -0.017197 -1.374176
14  -0.277239 3.632249 1.274102  0.115075 0.054750 -1.366492
15  -0.000001 1.798496 -0.000001  0.002394 0.037772 -1.507785
16  0.000001 1.235454 0.000000  -0.008167 -0.002510 -1.289887
17  0.315442 0.857303 0.755944  -0.761000 2.412031 -1.377325
18  -0.000001 2.265938 0.000001  -0.016207 -0.064542 -1.048595
19  -0.000001 1.457814 0.000001  -0.051901 0.018546 -0.626230
20  -1.259681 3.818376 1.286946  0.115075 0.054750 -1.366492
21  -1.226390 3.891695 0.090419  0.221244 0.005544 -1.361061
22  -1.231623 3.875534 -0.958681  0.326191 -0.061560 -1.352632
23  -1.209919 3.994783 -2.003048  0.570287 -0.108989 -1.360402
24  0.328906 0.095429 1.403533  -0.761000 2.412031 -1.377325
25  -1.952927 -6.875745 17.327860  1.565069 -0.163073 -2.508814
26  13.824293 -20.103218 10.765717  -1.570796 -0.000000 -1.570796
27  -1.843769 -8.254290 -9.436330  -0.051945 -0.000000 -1.570796
28  0.433020 -11.755867 -21.000002  -0.083842 -0.009362 3.131152
29  0.000000 13.479277 -0.000002  0.167696 0.000000 0.000000
30  0.000000 13.477240 0.000001  -0.083756 0.010203 0.009620
31  0.267270 3.664728 -1.953293  -0.106568 0.025893 0.137951
32  -0.000000 1.180357 -0.000001  -0.036623 0.007435 0.177465
33  -0.000002 0.817138 0.000001  0.004200 0.011559 -0.007420
34  0.249423 3.688543 -0.940890  -0.060580 0.013550 0.130737
35  0.000001 1.800635 -0.000001  0.004940 -0.002077 0.208495
36  -0.000001 1.243411 0.000002  0.006524 0.000040 0.064626
37  0.244726 3.701097 0.087732  0.005036 -0.002373 0.139323
38  -0.000000 1.766588 -0.000002  0.002490 0.003552 0.259702
39  -0.000000 1.189003 0.000001  -0.017590 0.001952 0.152464
40  0.277239 3.632249 1.274101  0.054558 -0.010184 0.144732
41  -0.000001 1.798490 -0.000003  0.036314 -0.010668 0.285912
42  -0.000001 1.235457 0.000001  -0.005152 -0.006816 0.068190
43  -0.315441 0.857301 0.755942  1.684115 -0.560091 -1.563926
44  -0.000000 2.265939 0.000000  -0.057905 0.032805 0.238898
45  0.000001 1.457813 0.000000  -0.029609 -0.046490 -0.034285
46  1.259681 3.818376 1.286945  0.054558 -0.010184 0.144732
47  1.226391 3.891695 0.090419  0.005036 -0.002373 0.139324
48  1.231623 3.875536 -0.958680  -0.060580 0.013550 0.130737
49  1.209919 3.994783 -2.003048  -0.106568 0.025893 0.137951
50  -0.328906 0.095430 1.403531  1.684115 -0.560091 -1.563926
51  0.152561 -38.616215 -21.000004  -0.000000 0.000000 3.141593
52  0.152561 -25.166061 -36.000004  -1.570796 -0.000000 1.570796
53  0.433020 -11.755867 -21.000002  -0.051945 0.000000 1.570796
54  -6.696681 -11.274675 -10.472013  1.574100 -0.020571 -1.550348
55  9.999998 -0.000001 -0.000000  0.000000 -0.000000 -0.000000
56  29.620380 2.666866 0.000002  0.000000 -0.000000 -0.000000
57  3.664051 2.228525 -2.524775  1.570796 0.732815 -1.570796
58  3.490277 2.388510 1.331886  0.000000 1.570796 0.000000
time 15
0  0 0 0  0 0 0
1  0.000000 0.000000 0.000000  1.570796 -0.000000 0.000000
2  -1.927009 -8.254290 -9.399017  1.492735 -0.039280 -2.255953
3  0.000001 13.479275 0.000001  0.221787 -0.000000 -0.000000
4  0.000000 13.477238 0.000000  -0.194051 -0.231178 0.164816
5  -0.267269 3.664724 -1.953292  0.570288 -0.108989 -1.360402
6  0.000000 1.180354 0.000000  -0.005540 -0.036957 -1.399219
7  0.000001 0.817135 0.000002  0.012298 -0.000007 -1.214275
8  -0.249422 3.688541 -0.940888  0.326191 -0.061559 -1.352632
9  0.000000 1.800633 -0.000000  -0.000262 0.005352 -1.430231
10  -0.000001 1.243404 -0.000000  0.002269 0.006116 -1.286349
11  -0.244726 3.701094 0.087733  0.221244 0.005544 -1.361062
12  -0.000000 1.766584 0.000000  0.004189 0.001125 -1.481426
13  0.000001 1.189006 0.000000  -0.004182 -0.017197 -1.374176
14  -0.277239 3.632246 1.274102  0.115075 0.054751 -1.366492
15  -0.000001 1.798495 0.000000  0.002394 0.037772 -1.507786
16  -0.000001 1.235452 0.000000  -0.008167 -0.002510 -1.289887
17  0.315442 0.857299 0.755944  -0.761000 2.412031 -1.377325
18  0.000001 2.265939 0.000000  -0.016207 -0.064542 -1.048595
19  0.000000 1.457811 0.000000  -0.051901 0.018546 -0.626230
20  -1.259681 3.818372 1.286946  0.115075 0.054750 -1.366492
21  -1.226391 3.891689 0.090420  0.221244 0.005544 -1.361061
22  -1.231623 3.875533 -0.958680  0.326191 -0.061560 -1.352632
23  -1.209918 3.994780 -2.003047  0.570288 -0.108989 -1.360402
24  0.328907 0.095427 1.403533  -0.761000 2.412031 -1.377326
25  -1.942419 -6.883728 17.356836  1.565741 -0.163580 -2.511748
26  13.824293 -20.103218 10.765717  -1.570796 -0.000000 -1.570796
27  -1.927009 -8.254290 -9.399017  -0.051945 -0.000000 -1.570796
28  0.433020 -11.755867 -21.000002  -0.083842 -0.009362 3.131152
29  0.000000 13.479277 -0.000002  0.167696 0.000000 0.000000
30  0.000000 13.477240 0.000001  -0.083756 0.010203 0.009620
31  0.267270 3.664728 -1.953293  -0.106568 0.025893 0.137951
32  -0.000000 1.180357 -0.000001  -0.036623 0.007435 0.177465
33  -0.000002 0.817138 0.000001  0.004200 0.011559 -0.007420
34  0.249423 3.688543 -0.940890  -0.060580 0.013550 0.130737
35  0.000001 1.800635 -0.000001  0.004940 -0.002077 0.208495
36  -0.000001 1.243411 0.000002  0.006524 0.000040 0.064626
37  0.244726 3.701097 0.087732  0.005036 -0.002373 0.139323
38  -0.000000 1.766588 -0.000002  0.002490 0.003552 0.259702
39  -0.000000 1.189003 0.000001  -0.017590 0.001952 0.152464
40  0.277239 3.632249 1.274101  0.054558 -0.010184 0.144732
41  -0.000001 1.798490 -0.000003  0.036314 -0.010668 0.285912
42  -0.000001 1.235457 0.000001  -0.005152 -0.006816 0.068190
43  -0.315441 0.857301 0.755942  1.684115 -0.560091 -1.563926
44  -0.000000 2.265939 0.000000  -0.057905 0.032805 0.238898
45  0.000001 1.457813 0.000000  -0.029609 -0.046490 -0.034285
46  1.259681 3.818376 1.286945  0.054558 -0.010184 0.144732
47  1.226391 3.891695 0.090419  0.005036 -0.002373 0.139324
48  1.231623 3.875536 -0.958680  -0.060580 0.013550 0.130737
49  1.209919 3.994783 -2.003048  -0.106568 0.025893 0.137951
50  -0.328906 0.095430 1.403531  1.684115 -0.560091 -1.563926
51  0.152561 -38.616215 -21.000004  -0.000000 0.000000 3.141593
52  0.152561 -25.166061 -36.000004  -1.570796 -0.000000 1.570796
53  0.433020 -11.755867 -21.000002  -0.051945 0.000000 1.570796
54  -6.696429 -11.306740 -10.471638  1.571259 -0.021348 -1.550271
55  10.000002 -0.000001 -0.000001  0.000000 -0.000000 -0.000000
56  29.620382 2.666867 0.000001  0.000000 -0.000000 -0.000000
57  3.664052 2.228525 -2.524776  1.570796 0.732815 -1.570796
58  3.490279 2.388510 1.331886  0.000000 1.570796 0.000000
time 16
0  0 0 0  0 0 0
1  0.000000 0.000000 0.000000  1.570796 -0.000000 0.000000
2  -1.872836 -8.254290 -9.391418  1.497635 -0.037976 -2.256343
3  0.000002 13.479277 0.000001  0.213965 -0.000000 -0.000000
4  -0.000000 13.477239 0.000001  -0.191007 -0.234369 0.166575
5  -0.267270 3.664724 -1.953292  0.570288 -0.108989 -1.360402
6  -0.000001 1.180355 0.000001  -0.005540 -0.036957 -1.399218
7  -0.000002 0.817135 0.000000  0.012298 -0.000007 -1.214275
8  -0.249423 3.688539 -0.940887  0.326191 -0.061560 -1.352632
9  -0.000000 1.800633 -0.000001  -0.000262 0.005352 -1.430232
10  0.000001 1.243405 0.000000  0.002269 0.006116 -1.286349
11  -0.244726 3.701092 0.087734  0.221244 0.005544 -1.361062
12  -0.000000 1.766585 -0.000001  0.004189 0.001125 -1.481426
13  -0.000000 1.189003 0.000001  -0.004182 -0.017197 -1.374176
14  -0.277239 3.632245 1.274104  0.115075 0.054751 -1.366492
15  0.000004 1.798494 0.000001  0.002394 0.037772 -1.507786
16  0.000001 1.235451 -0.000001  -0.008167 -0.002510 -1.289887
17  0.315441 0.857298 0.755945  -0.761000 2.412031 -1.377325
18  -0.000002 2.265937 -0.000000  -0.016207 -0.064542 -1.048595
19  -0.000000 1.457808 0.000000  -0.051901 0.018546 -0.626230
20  -1.259681 3.818372 1.286946  0.115075 0.054750 -1.366492
21  -1.226390 3.891691 0.090420  0.221244 0.005544 -1.361061
22  -1.231623 3.875532 -0.958679  0.326191 -0.061560 -1.352631
23  -1.209919 3.994779 -2.003047  0.570288 -0.108989 -1.360402
24  0.328906 0.095426 1.403534  -0.761000 2.412031 -1.377325
25  -1.930349 -6.893404 17.376348  1.566564 -0.164148 -2.515230
26  13.824293 -20.103218 10.765717  -1.570796 -0.000000 -1.570796
27  -1.872836 -8.254290 -9.391418  -0.051945 -0.000000 -1.570796
28  0.433020 -11.755867 -21.000002  -0.083842 -0.009362 3.131152
29  0.000000 13.479277 -0.000002  0.167696 0.000000 0.000000
30  0.000000 13.477240 0.000001  -0.083756 0.010203 0.009620
31  0.267270 3.664728 -1.953293  -0.106568 0.025893 0.137951
32  -0.000000 1.180357 -0.000001  -0.036623 0.007435 0.177465
33  -0.000002 0.817138 0.000001  0.004200 0.011559 -0.007420
34  0.249423 3.688543 -0.940890  -0.060580 0.013550 0.130737
35  0.000001 1.800635 -0.000001  0.004940 -0.002077 0.208495
36  -0.000001 1.243411 0.000002  0.006524 0.000040 0.064626
37  0.244726 3.701097 0.087732  0.005036 -0.002373 0.139323
38  -0.000000 1.766588 -0.000002  0.002490 0.003552 0.259702
39  -0.000000 1.189003 0.000001  -0.017590 0.001952 0.152464
40  0.277239 3.632249 1.274101  0.054558 -0.010184 0.144732
41  -0.000001 1.798490 -0.000003  0.036314 -0.010668 0.285912
42  -0.000001 1.235457 0.000001  -0.005152 -0.006816 0.068190
43  -0.315441 0.857301 0.755942  1.684115 -0.560091 -1.563926
44  -0.000000 2.265939 0.000000  -0.057905 0.032805 0.238898
45  0.000001 1.457813 0.000000  -0.029609 -0.046490 -0.034285
46  1.259681 3.818376 1.286945  0.054558 -0.010184 0.144732
47  1.226391 3.891695 0.090419  0.005036 -0.002373 0.139324
48  1.231623 3.875536 -0.958680  -0.060580 0.013550 0.130737
49  1.209919 3.994783 -2.003048  -0.106568 0.025893 0.137951
50  -0.328906 0.095430 1.403531  1.684115 -0.560091 -1.563926
51  0.152561 -38.616215 -21.000004  -0.000000 0.000000 3.141593
52  0.152561 -25.166061 -36.000004  -1.570796 -0.000000 1.570796
53  0.433020 -11.755867 -21.000002  -0.051945 0.000000 1.570796
54  -6.696248 -11.329716 -10.471369  1.567890 -0.022270 -1.550215
55  9.999999 -0.000000 -0.000001  0.000000 -0.000000 -0.000000
56  29.620382 2.666868 0.000001  0.000000 -0.000000 -0.000000
57  3.664051 2.228527 -2.524776  1.570796 0.732815 -1.570796
58  3.490278 2.388512 1.331886  0.000000 1.570796 0.000000
time 17
0  0 0 0  0 0 0
1  0.000000 0.000000 0.000000  1.570796 -0.000000 0.000000
2  -1.809101 -8.254290 -9.392188  1.503225 -0.036432 -2.256813
3  0.000002 13.479276 0.000000  0.205261 0.000000 -0.000000
4  0.000000 13.477237 -0.000000  -0.187730 -0.237669 0.168536
5  -0.267268 3.664728 -1.953293  0.570287 -0.108989 -1.360402
6  -0.000001 1.180354 0.000001  -0.005540 -0.036957 -1.399219
7  -0.000000 0.817134 -0.000000  0.012298 -0.000007 -1.214275
8  -0.249421 3.688543 -0.940889  0.326191 -0.061560 -1.352632
9  0.000004 1.800632 0.000001  -0.000262 0.005352 -1.430231
10  -0.000001 1.243406 0.000001  0.002269 0.006116 -1.286349
11  -0.244726 3.701095 0.087732  0.221244 0.005544 -1.361062
12  -0.000001 1.766584 0.000001  0.004189 0.001125 -1.481426
13  0.000001 1.189006 0.000001  -0.004182 -0.017197 -1.374176
14  -0.277239 3.632247 1.274101  0.115075 0.054750 -1.366492
15  0.000000 1.798495 -0.000000  0.002394 0.037772 -1.507786
16  -0.000001 1.235454 0.000000  -0.008167 -0.002510 -1.289887
17  0.315442 0.857302 0.755943  -0.760999 2.412031 -1.377325
18  -0.000000 2.265940 0.000000  -0.016207 -0.064542 -1.048595
19  -0.000000 1.457814 -0.000000  -0.051901 0.018546 -0.626230
20  -1.259680 3.818376 1.286945  0.115075 0.054750 -1.366492
21  -1.226390 3.891694 0.090419  0.221244 0.005544 -1.361061
22  -1.231622 3.875534 -0.958681  0.326191 -0.061560 -1.352632
23  -1.209918 3.994782 -2.003048  0.570288 -0.108989 -1.360402
24  0.328907 0.095429 1.403532  -0.761000 2.412031 -1.377325
25  -1.917903 -6.903731 17.388229  1.567446 -0.164723 -2.518896
26  13.824293 -20.103218 10.765717  -1.570796 -0.000000 -1.570796
27  -1.809101 -8.254290 -9.392188  -0.051945 -0.000000 -1.570796
28  0.433020 -11.755867 -21.000002  -0.083842 -0.009362 3.131152
29  0.000000 13.479277 -0.000002  0.167696 0.000000 0.000000
30  0.000000 13.477240 0.000001  -0.083756 0.010203 0.009620
31  0.267270 3.664728 -1.953293  -0.106568 0.025893 0.137951
32  -0.000000 1.180357 -0.000001  -0.036623 0.007435 0.177465
33  -0.000002 0.817138 0.000001  0.004200 0.011559 -0.007420
34  0.249423 3.688543 -0.940890  -0.060580 0.013550 0.130737
35  0.000001 1.800635 -0.000001  0.004940 -0.002077 0.208495
36  -0.000001 1.243411 0.000002  0.006524 0.000040 0.064626
37  0.244726 3.701097 0.087732  0.005036 -0.002373 0.139323
38  -0.000000 1.766588 -0.000002  0.002490 0.003552 0.259702
39  -0.000000 1.189003 0.000001  -0.017590 0.001952 0.152464
40  0.277239 3.632249 1.274101  0.054558 -0.010184 0.144732
41  -0.000001 1.798490 -0.000003  0.036314 -0.010668 0.285912
42  -0.000001 1.235457 0.000001  -0.005152 -0.006816 0.068190
43  -0.315441 0.857301 0.755942  1.684115 -0.560091 -1.563926
44  -0.000000 2.265939 0.000000  -0.057905 0.032805 0.238898
45  0.000001 1.457813 0.000000  -0.029609 -0.046490 -0.034285
46  1.259681 3.818376 1.286945  0.054558 -0.010184 0.144732
47  1.226391 3.891695 0.090419  0.005036 -0.002373 0.139324
48  1.231623 3.875536 -0.958680  -0.060580 0.013550 0.130737
49  1.209919 3.994783 -2.003048  -0.106568 0.025893 0.137951
50  -0.328906 0.095430 1.403531  1.684115 -0.560091 -1.563926
51  0.152561 -38.616215 -21.000004  -0.000000 0.000000 3.141593
52  0.152561 -25.166061 -36.000004  -1.570796 -0.000000 1.570796
53  0.433020 -11.755867 -21.000002  -0.051945 0.000000 1.570796
54  -6.696127 -11.345117 -10.471189  1.564346 -0.023239 -1.550177
55  9.999999 0.000001 -0.000001  0.000000 -0.000000 -0.000000
56  29.620380 2.666868 0.000001  0.000000 -0.000000 -0.000000
57  3.664050 2.228527 -2.524776  1.570796 0.732815 -1.570796
58  3.490278 2.388511 1.331885  0.000000 1.570796 0.000000
time 18
0  0 0 0  0 0 0
1  0.000000 0.000000 0.000000  1.570796 -0.000000 0.000000
2  -1.775890 -8.254290 -9.394006  1.506360 -0.035618 -2.257051
3  0.000002 13.479278 -0.000000  0.199765 0.000000 -0.000000
4  0.000001 13.477239 -0.000000  -0.185267 -0.241011 0.169909
5  -0.267271 3.664727 -1.953291  0.570288 -0.108989 -1.360402
6  -0.000000 1.180355 0.000000  -0.005540 -0.036957 -1.399219
7  0.000000 0.817134 -0.000001  0.012298 -0.000007 -1.214275
8  -0.249423 3.688544 -0.940888  0.326191 -0.061559 -1.352632
9  0.000000 1.800632 0.000000  -0.000262 0.005352 -1.430232
10  -0.000001 1.243406 -0.000001  0.002269 0.006116 -1.286350
11  -0.244727 3.701094 0.087734  0.221244 0.005544 -1.361062
12  0.000001 1.766585 -0.000000  0.004189 0.001125 -1.481426
13  -0.000002 1.189004 0.000000  -0.004182 -0.017197 -1.374176
14  -0.277240 3.632249 1.274102  0.115075 0.054750 -1.366492
15  -0.000002 1.798493 0.000000  0.002394 0.037772 -1.507786
16  -0.000001 1.235449 0.000000  -0.008167 -0.002510 -1.289887
17  0.315441 0.857300 0.755944  -0.761000 2.412031 -1.377326
18  -0.000000 2.265939 0.000001  -0.016207 -0.064542 -1.048595
19  -0.000000 1.457814 -0.000000  -0.051901 0.018546 -0.626230
20  -1.259681 3.818376 1.286946  0.115075 0.054750 -1.366492
21  -1.226391 3.891693 0.090420  0.221244 0.005544 -1.361061
22  -1.231623 3.875535 -0.958680  0.326191 -0.061560 -1.352632
23  -1.209920 3.994781 -2.003047  0.570287 -0.108989 -1.360402
24  0.328905 0.095429 1.403533  -0.761000 2.412031 -1.377325
25  -1.906250 -6.913650 17.394314  1.568297 -0.165253 -2.522383
26  13.824293 -20.103218 10.765717  -1.570796 -0.000000 -1.570796
27  -1.775890 -8.254290 -9.394006  -0.051945 -0.000000 -1.570796
28  0.433020 -11.755867 -21.000002  -0.083842 -0.009362 3.131152
29  0.000000 13.479277 -0.000002  0.167696 0.000000 0.000000
30  0.000000 13.477240 0.000001  -0.083756 0.010203 0.009620
31  0.267270 3.664728 -1.953293  -0.106568 0.025893 0.137951
32  -0.000000 1.180357 -0.000001  -0.036623 0.007435 0.177465
33  -0.000002 0.817138 0.000001  0.004200 0.011559 -0.007420
34  0.249423 3.688543 -0.940890  -0.060580 0.013550 0.130737
35  0.000001 1.800635 -0.000001  0.004940 -0.002077 0.208495
36  -0.000001 1.243411 0.000002  0.006524 0.000040 0.064626
37  0.244726 3.701097 0.087732  0.005036 -0.002373 0.139323
38  -0.000000 1.766588 -0.000002  0.002490 0.003552 0.259702
39  -0.000000 1.189003 0.000001  -0.017590 0.001952 0.152464
40  0.277239 3.632249 1.274101  0.054558 -0.010184 0.144732
41  -0.000001 1.798490 -0.000003  0.036314 -0.010668 0.285912
42  -0.000001 1.235457 0.000001  -0.005152 -0.006816 0.068190
43  -0.315441 0.857301 0.755942  1.684115 -0.560091 -1.563926
44  -0.000000 2.265939 0.000000  -0.057905 0.032805 0.238898
45  0.000001 1.457813 0.000000  -0.029609 -0.046490 -0.034285
46  1.259681 3.818376 1.286945  0.054558 -0.010184 0.144732
47  1.226391 3.891695 0.090419  0.005036 -0.002373 0.139324
48  1.231623 3.875536 -0.958680  -0.060580 0.013550 0.130737
49  1.209919 3.994783 -2.003048  -0.106568 0.025893 0.137951
50  -0.328906 0.095430 1.403531  1.684115 -0.560091 -1.563926
51  0.152561 -38.616215 -21.000004  -0.000000 0.000000 3.141593
52  0.152561 -25.166061 -36.000004  -1.570796 -0.000000 1.570796
53  0.433020 -11.755867 -21.000002  -0.051945 0.000000 1.570796
54  -6.696054 -11.354459 -10.471080  1.560979 -0.024161 -1.550154
55  10.000000 0.000001 -0.000000  0.000000 -0.000000 -0.000000
56  29.620377 2.666869 0.000001  0.000000 -0.000000 -0.000000
57  3.664051 2.228528 -2.524775  1.570796 0.732815 -1.570796
58  3.490277 2.388512 1.331887  0.000000 1.570796 0.000000
time 19
0  0 0 0  0 0 0
1  0.000000 0.000000 0.000000  1.570796 -0.000000 0.000000
2  -1.794257 -8.254290 -9.394029  1.505933 -0.036041 -2.256893
3  0.000002 13.479276 0.000000  0.198583 0.000000 -0.000000
4  0.000000 13.477240 0.000000  -0.183674 -0.244268 0.170114
5  -0.267269 3.664724 -1.953294  0.570288 -0.108989 -1.360402
6  -0.000002 1.180354 0.000001  -0.005540 -0.036957 -1.399219
7  -0.000000 0.817133 -0.000000  0.012298 -0.000007 -1.214275
8  -0.249422 3.688539 -0.940890  0.326191 -0.061560 -1.352632
9  -0.000002 1.800633 0.000000  -0.000262 0.005352 -1.430231
10  0.000001 1.243407 -0.000000  0.002269 0.006116 -1.286349
11  -0.244725 3.701094 0.087732  0.221244 0.005544 -1.361061
12  -0.000001 1.766584 0.000000  0.004189 0.001125 -1.481425
13  -0.000001 1.189004 0.000000  -0.004182 -0.017197 -1.374175
14  -0.277238 3.632246 1.274101  0.115075 0.054750 -1.366492
15  0.000000 1.798494 0.000000  0.002394 0.037772 -1.507786
16  0.000000 1.235449 0.000000  -0.008167 -0.002510 -1.289887
17  0.315442 0.857299 0.755943  -0.761000 2.412031 -1.377326
18  -0.000001 2.265938 0.000000  -0.016207 -0.064542 -1.048595
19  -0.000000 1.457811 -0.000001  -0.051901 0.018546 -0.626230
20  -1.259681 3.818372 1.286945  0.115075 0.054750 -1.366492
21  -1.226390 3.891692 0.090418  0.221244 0.005544 -1.361061
22  -1.231622 3.875532 -0.958682  0.326191 -0.061560 -1.352632
23  -1.209918 3.994781 -2.003049  0.570288 -0.108989 -1.360402
24  0.328907 0.095426 1.403532  -0.761000 2.412031 -1.377326
25  -1.896530 -6.922083 17.396420  1.569021 -0.165690 -2.525325
26  13.824293 -20.103218 10.765717  -1.570796 -0.000000 -1.570796
27  -1.794257 -8.254290 -9.394029  -0.051945 -0.000000 -1.570796
28  0.433020 -11.755867 -21.000002  -0.083842 -0.009362 3.131152
29  0.000000 13.479277 -0.000002  0.167696 0.000000 0.000000
30  0.000000 13.477240 0.000001  -0.083756 0.010203 0.009620
31  0.267270 3.664728 -1.953293  -0.106568 0.025893 0.137951
32  -0.000000 1.180357 -0.000001  -0.036623 0.007435 0.177465
33  -0.000002 0.817138 0.000001  0.004200 0.011559 -0.007420
34  0.249423 3.688543 -0.940890  -0.060580 0.013550 0.130737
35  0.000001 1.800635 -0.000001  0.004940 -0.002077 0.208495
36  -0.000001 1.243411 0.000002  0.006524 0.000040 0.064626
37  0.244726 3.701097 0.087732  0.005036 -0.002373 0.139323
38  -0.000000 1.766588 -0.000002  0.002490 0.003552 0.259702
39  -0.000000 1.189003 0.000001  -0.017590 0.001952 0.152464
40  0.277239 3.632249 1.274101  0.054558 -0.010184 0.144732
41  -0.000001 1.798490 -0.000003  0.036314 -0.010668 0.285912
42  -0.000001 1.235457 0.000001  -0.005152 -0.006816 0.068190
43  -0.315441 0.857301 0.755942  1.684115 -0.560091 -1.563926
44  -0.000000 2.265939 0.000000  -0.057905 0.032805 0.238898
45  0.000001 1.457813 0.000000  -0.029609 -0.046490 -0.034285
46  1.259681 3.818376 1.286945  0.054558 -0.010184 0.144732
47  1.226391 3.891695 0.090419  0.005036 -0.002373 0.139324
48  1.231623 3.875536 -0.958680  -0.060580 0.013550 0.130737
49  1.209919 3.994783 -2.003048  -0.106568 0.025893 0.137951
50  -0.328906 0.095430 1.403531  1.684115 -0.560091 -1.563926
51  0.152561 -38.616215 -21.000004  -0.000000 0.000000 3.141593
52  0.152561 -25.166061 -36.000004  -1.570796 -0.000000 1.570796
53  0.433020 -11.755867 -21.000002  -0.051945 0.000000 1.570796
54  -6.696016 -11.359256 -10.471024  1.558138 -0.024938 -1.550142
55  10.000000 -0.000000 -0.000000  0.000000 -0.000000 -0.000000
56  29.620380 2.666866 0.000002  0.000000 -0.000000 -0.000000
57  3.664051 2.228524 -2.524776  1.570796 0.732815 -1.570796
58  3.490278 2.388510 1.331886  0.000000 1.570796 0.000000
time 20
0  0 0 0  0 0 0
1  0.000000 0.000000 0.000000  1.570796 -0.000000 0.000000
2  -1.829312 -8.254290 -9.392861  1.503969 -0.036868 -2.256610
3  0.000001 13.479275 -0.000000  0.199809 0.000000 -0.000000
4  0.000001 13.477239 0.000000  -0.182998 -0.246694 0.169843
5  -0.267270 3.664727 -1.953292  0.570287 -0.108989 -1.360402
6  0.000001 1.180355 0.000001  -0.005540 -0.036957 -1.399219
7  -0.000000 0.817136 -0.000002  0.012298 -0.000007 -1.214276
8  -0.249423 3.688542 -0.940889  0.326191 -0.061560 -1.352632
9  -0.000001 1.800632 0.000001  -0.000262 0.005352 -1.430231
10  -0.000000 1.243405 -0.000000  0.002269 0.006116 -1.286349
11  -0.244726 3.701096 0.087732  0.221244 0.005544 -1.361062
12  -0.000003 1.766584 -0.000000  0.004189 0.001125 -1.481426
13  0.000000 1.189002 -0.000001  -0.004182 -0.017197 -1.374176
14  -0.277239 3.632249 1.274101  0.115075 0.054750 -1.366492
15  -0.000001 1.798494 -0.000001  0.002394 0.037772 -1.507786
16  0.000002 1.235455 -0.000000  -0.008167 -0.002510 -1.289887
17  0.315441 0.857300 0.755943  -0.761000 2.412031 -1.377325
18  0.000001 2.265939 -0.000001  -0.016207 -0.064542 -1.048595
19  0.000000 1.457810 -0.000001  -0.051901 0.018546 -0.626230
20  -1.259681 3.818375 1.286945  0.115075 0.054750 -1.366492
21  -1.226391 3.891693 0.090419  0.221244 0.005544 -1.361061
22  -1.231623 3.875533 -0.958681  0.326191 -0.061560 -1.352631
23  -1.209919 3.994781 -2.003048  0.570288 -0.108989 -1.360402
24  0.328906 0.095429 1.403532  -0.761000 2.412031 -1.377325
25  -1.889873 -6.927942 17.396357  1.569525 -0.165987 -2.527358
26  13.824293 -20.103218 10.765717  -1.570796 -0.000000 -1.570796
27  -1.829312 -8.254290 -9.392861  -0.051945 -0.000000 -1.570796
28  0.433020 -11.755867 -21.000002  -0.083842 -0.009362 3.131152
29  0.000000 13.479277 -0.000002  0.167696 0.000000 0.000000
30  0.000000 13.477240 0.000001  -0.083756 0.010203 0.009620
31  0.267270 3.664728 -1.953293  -0.106568 0.025893 0.137951
32  -0.000000 1.180357 -0.000001  -0.036623 0.007435 0.177465
33  -0.000002 0.817138 0.000001  0.004200 0.011559 -0.007420
34  0.249423 3.688543 -0.940890  -0.060580 0.013550 0.130737
35  0.000001 1.800635 -0.000001  0.004940 -0.002077 0.208495
36  -0.000001 1.243411 0.000002  0.006524 0.000040 0.064626
37  0.244726 3.701097 0.087732  0.005036 -0.002373 0.139323
38  -0.000000 1.766588 -0.000002  0.002490 0.003552 0.259702
39  -0.000000 1.189003 0.000001  -0.017590 0.001952 0.152464
40  0.277239 3.632249 1.274101  0.054558 -0.010184 0.144732
41  -0.000001 1.798490 -0.000003  0.036314 -0.010668 0.285912
42  -0.000001 1.235457 0.000001  -0.005152 -0.006816 0.068190
43  -0.315441 0.857301 0.755942  1.684115 -0.560091 -1.563926
44  -0.000000 2.265939 0.000000  -0.057905 0.032805 0.238898
45  0.000001 1.457813 0.000000  -0.029609 -0.046490 -0.034285
46  1.259681 3.818376 1.286945  0.054558 -0.010184 0.144732
47  1.226391 3.891695 0.090419  0.005036 -0.002373 0.139324
48  1.231623 3.875536 -0.958680  -0.060580 0.013550 0.130737
49  1.209919 3.994783 -2.003048  -0.106568 0.025893 0.137951
50  -0.328906 0.095430 1.403531  1.684115 -0.560091 -1.563926
51  0.152561 -38.616215 -21.000004  -0.000000 0.000000 3.141593
52  0.152561 -25.166061 -36.000004  -1.570796 -0.000000 1.570796
53  0.433020 -11.755867 -21.000002  -0.051945 0.000000 1.570796
54  -6.696002 -11.361023 -10.471003  1.556176 -0.025475 -1.550137
55  10.000000 0.000000 -0.000000  0.000000 -0.000000 -0.000000
56  29.620382 2.666867 0.000001  0.000000 -0.000000 -0.000000
57  3.664052 2.228528 -2.524776  1.570796 0.732815 -1.570796
58  3.490277 2.388512 1.331886  0.000000 1.570796 0.000000
time 21
0  0 0 0  0 0 0
1  0.000000 0.000000 0.000000  1.570796 -0.000000 0.000000
2  -1.843768 -8.254290 -9.392370  1.503034 -0.037209 -2.256494
3  0.000001 13.479276 -0.000000  0.200593 0.000000 -0.000000
4  -0.000000 13.477239 0.000001  -0.182874 -0.247593 0.169741
5  -0.267270 3.664725 -1.953294  0.570288 -0.108989 -1.360402
6  -0.000001 1.180356 0.000000  -0.005540 -0.036957 -1.399219
7  -0.000001 0.817137 -0.000000  0.012298 -0.000007 -1.214275
8  -0.249423 3.688542 -0.940890  0.326191 -0.061559 -1.352632
9  0.000002 1.800633 0.000000  -0.000262 0.005352 -1.430231
10  0.000001 1.243408 0.000001  0.002269 0.006116 -1.286349
11  -0.244727 3.701096 0.087732  0.221244 0.005544 -1.361061
12  0.000001 1.766585 -0.000001  0.004189 0.001125 -1.481425
13  0.000001 1.189005 -0.000001  -0.004182 -0.017197 -1.374175
14  -0.277239 3.632249 1.274101  0.115075 0.054750 -1.366492
15  0.000000 1.798494 0.000000  0.002394 0.037772 -1.507785
16  -0.000001 1.235451 0.000000  -0.008167 -0.002510 -1.289886
17  0.315441 0.857300 0.755943  -0.761000 2.412031 -1.377325
18  -0.000002 2.265938 0.000000  -0.016207 -0.064542 -1.048595
19  0.000000 1.457811 0.000000  -0.051901 0.018546 -0.626230
20  -1.259681 3.818375 1.286945  0.115075 0.054750 -1.366492
21  -1.226391 3.891694 0.090419  0.221244 0.005544 -1.361061
22  -1.231623 3.875533 -0.958681  0.326191 -0.061560 -1.352632
23  -1.209919 3.994782 -2.003049  0.570287 -0.108989 -1.360402
24  0.328906 0.095429 1.403532  -0.761000 2.412031 -1.377325
25  -1.887403 -6.930137 17.395933  1.569714 -0.166096 -2.528117
26  13.824293 -20.103218 10.765717  -1.570796 -0.000000 -1.570796
27  -1.843768 -8.254290 -9.392370  -0.051945 -0.000000 -1.570796
28  0.433020 -11.755867 -21.000002  -0.083842 -0.009362 3.131152
29  0.000000 13.479277 -0.000002  0.167696 0.000000 0.000000
30  0.000000 13.477240 0.000001  -0.083756 0.010203 0.009620
31  0.267270 3.664728 -1.953293  -0.106568 0.025893 0.137951
32  -0.000000 1.180357 -0.000001  -0.036623 0.007435 0.177465
33  -0.000002 0.817138 0.000001  0.004200 0.011559 -0.007420
34  0.249423 3.688543 -0.940890  -0.060580 0.013550 0.130737
35  0.000001 1.800635 -0.000001  0.004940 -0.002077 0.208495
36  -0.000001 1.243411 0.000002  0.006524 0.000040 0.064626
37  0.244726 3.701097 0.087732  0.005036 -0.002373 0.139323
38  -0.000000 1.766588 -0.000002  0.002490 0.003552 0.259702
39  -0.000000 1.189003 0.000001  -0.017590 0.001952 0.152464
40  0.277239 3.632249 1.274101  0.054558 -0.010184 0.144732
41  -0.000001 1.798490 -0.000003  0.036314 -0.010668 0.285912
42  -0.000001 1.235457 0.000001  -0.005152 -0.006816 0.068190
43  -0.315441 0.857301 0.755942  1.684115 -0.560091 -1.563926
44  -0.000000 2.265939 0.000000  -0.057905 0.032805 0.238898
45  0.000001 1.457813 0.000000  -0.029609 -0.046490 -0.034285
46  1.259681 3.818376 1.286945  0.054558 -0.010184 0.144732
47  1.226391 3.891695 0.090419  0.005036 -0.002373 0.139324
48  1.231623 3.875536 -0.958680  -0.060580 0.013550 0.130737
49  1.209919 3.994783 -2.003048  -0.106568 0.025893 0.137951
50  -0.328906 0.095430 1.403531  1.684115 -0.560091 -1.563926
51  0.152561 -38.616215 -21.000004  -0.000000 0.000000 3.141593
52  0.152561 -25.166061 -36.000004  -1.570796 -0.000000 1.570796
53  0.433020 -11.755867 -21.000002  -0.051945 0.000000 1.570796
54  -6.696000 -11.361276 -10.471000  1.555444 -0.025675 -1.550137
55  9.999998 -0.000001 -0.000001  0.000000 -0.000000 -0.000000
56  29.620380 2.666866 0.000001  0.000000 -0.000000 -0.000000
57  3.664050 2.228525 -2.524775  1.570796 0.732815 -1.570796
58  3.490278 2.388509 1.331887  0.000000 1.570796 0.000000
end
