version 1
nodes
0 "blender_implicit" -1
1 "root" -1
2 "upperarm_l" 1
3 "lowerarm_l" 2
4 "hand_l" 3
5 "pinky_0_l" 4
6 "pinky_1_l" 5
7 "pinky_2_l" 6
8 "ring_0_l" 4
9 "ring_1_l" 8
10 "ring_2_l" 9
11 "middle_0_l" 4
12 "middle_1_l" 11
13 "middle_2_l" 12
14 "index_0_l" 4
15 "index_1_l" 14
16 "index_2_l" 15
17 "thumb_0_l" 4
18 "thumb_1_l" 17
19 "thumb_2_l" 18
20 "rig_index_l" 4
21 "rig_middle_l" 4
22 "rig_ring_l" 4
23 "rig_pinky_l" 4
24 "rig_thumb_l" 4
25 "rig_hand_l" 1
26 "rig_l" 1
27 "rig_upperarm_l" 1
28 "upperarm_r" 1
29 "lowerarm_r" 28
30 "hand_r" 29
31 "pinky_0_r" 30
32 "pinky_1_r" 31
33 "pinky_2_r" 32
34 "ring_0_r" 30
35 "ring_1_r" 34
36 "ring_2_r" 35
37 "middle_0_r" 30
38 "middle_1_r" 37
39 "middle_2_r" 38
40 "index_0_r" 30
41 "index_1_r" 40
42 "index_2_r" 41
43 "thumb_0_r" 30
44 "thumb_1_r" 43
45 "thumb_2_r" 44
46 "rig_index_r" 30
47 "rig_middle_r" 30
48 "rig_ring_r" 30
49 "rig_pinky_r" 30
50 "rig_thumb_r" 30
51 "rig_hand_r" 1
52 "rig_r" 1
53 "rig_upperarm_r" 1
54 "bone_base" -1
55 "bone_barrels" 54
56 "bone_muzzle" 54
57 "bone_Ring" 54
58 "bone_ejectionPort" 54
end
skeleton
time 0
0  0 0 0  0 0 0
1  0.000000 0.000000 0.000000  1.570796 -0.000000 0.000000
2  6.688313 0.001464 0.000000  -0.073467 -0.000000 -1.570796
3  0.000000 13.479278 0.000000  0.072680 -0.000000 -0.000000
4  -0.000000 13.477239 0.000000  0.000787 0.000000 0.000000
5  -0.267270 3.664726 -1.953293  -0.078681 0.003393 -1.258715
6  -0.000004 1.180356 -0.000000  -0.009323 -0.036188 -1.295861
7  -0.000001 0.817135 0.000000  0.012232 -0.001275 -1.110992
8  -0.249423 3.688541 -0.940889  -0.048514 0.001808 -1.357322
9  -0.000001 1.800633 -0.000000  -0.000284 0.005351 -1.434424
10  -0.000002 1.243407 0.000000  0.002243 0.006126 -1.290542
11  -0.244726 3.701096 0.087733  0.031039 -0.036268 -1.448054
12  -0.000005 1.766585 0.000000  0.004075 0.001485 -1.568462
13  0.000000 1.188998 -0.000000  -0.002671 -0.017495 -1.461225
14  -0.277239 3.632248 1.274102  0.093536 -0.061021 -1.452571
15  -0.000001 1.798494 -0.000000  -0.000847 0.037839 -1.593473
16  0.000000 1.235453 -0.000000  -0.007923 -0.003199 -1.375510
17  0.315441 0.857300 0.755944  2.106799 0.276084 1.834776
18  -0.000002 2.265939 0.000000  0.456781 0.182957 -0.729711
19  -0.000000 1.457809 0.000001  -0.053660 0.012574 -0.739164
20  -1.259681 3.818375 1.286946  0.093536 -0.061021 -1.452571
21  -1.226390 3.891693 0.090419  0.031039 -0.036268 -1.448054
22  -1.231623 3.875534 -0.958680  -0.048514 0.001808 -1.357322
23  -1.209919 3.994781 -2.003048  -0.078681 0.003393 -1.258715
24  0.328906 0.095428 1.403533  2.106799 0.276084 1.834776
25  33.608463 0.001465 -0.999999  0.000000 -0.000000 -1.570796
26  20.158314 0.001465 -15.000000  -1.570796 -0.000000 -1.570796
27  6.688313 0.001464 0.000000  -0.051945 -0.000000 -1.570796
28  0.433020 -11.755867 -21.000002  -0.083842 -0.009362 3.131152
29  0.000000 13.479277 -0.000002  0.167696 0.000000 0.000000
30  0.000000 13.477240 0.000001  -0.083756 0.010203 0.009620
31  0.267270 3.664728 -1.953293  -0.106568 0.025893 0.137951
32  -0.000000 1.180357 -0.000001  -0.036623 0.007435 0.177465
33  -0.000002 0.817138 0.000001  0.004200 0.011559 -0.007420
34  0.249423 3.688543 -0.940890  -0.060580 0.013550 0.130737
35  0.000001 1.800635 -0.000001  0.004940 -0.002077 0.208495
36  -0.000001 1.243411 0.000002  0.006524 0.000040 0.064626
37  0.244726 3.701097 0.087732  0.005036 -0.002373 0.139323
38  -0.000000 1.766588 -0.000002  0.002490 0.003552 0.259702
39  -0.000000 1.189003 0.000001  -0.017590 0.001952 0.152464
40  0.277239 3.632249 1.274101  0.054558 -0.010184 0.144732
41  -0.000001 1.798490 -0.000003  0.036314 -0.010668 0.285912
42  -0.000001 1.235457 0.000001  -0.005152 -0.006816 0.068190
43  -0.315441 0.857301 0.755942  1.684115 -0.560091 -1.563926
44  -0.000000 2.265939 0.000000  -0.057905 0.032805 0.238898
45  0.000001 1.457813 0.000000  -0.029609 -0.046490 -0.034285
46  1.259681 3.818376 1.286945  0.054558 -0.010184 0.144732
47  1.226391 3.891695 0.090419  0.005036 -0.002373 0.139324
48  1.231623 3.875536 -0.958680  -0.060580 0.013550 0.130737
49  1.209919 3.994783 -2.003048  -0.106568 0.025893 0.137951
50  -0.328906 0.095430 1.403531  1.684115 -0.560091 -1.563926
51  0.152561 -38.616215 -21.000004  -0.000000 0.000000 3.141593
52  0.152561 -25.166061 -36.000004  -1.570796 -0.000000 1.570796
53  0.433020 -11.755867 -21.000002  -0.051945 0.000000 1.570796
54  -6.696000 -10.361276 -10.471000  1.570219 -0.030224 -1.551701
55  10.000000 -0.000001 0.000001  0.000000 -0.000000 -0.000000
56  29.620378 2.666867 0.000002  0.000000 -0.000000 -0.000000
57  3.664052 2.228527 -2.524775  1.570796 0.732815 -1.570796
58  3.490278 2.388511 1.331887  0.000000 1.570796 0.000000
time 1
0  0 0 0  0 0 0
1  0.000000 0.000000 0.000000  1.570796 -0.000000 0.000000
2  6.688313 0.001464 0.000000  -0.146631 -0.021823 -1.546489
3  -0.000000 13.479279 0.000000  0.240211 -0.000000 -0.000000
4  0.000000 13.477238 -0.000000  -0.094257 0.021224 -0.010642
5  -0.267269 3.664729 -1.953293  -0.078681 0.003393 -1.258715
6  -0.000002 1.180355 -0.000000  -0.009323 -0.036188 -1.295861
7  0.000000 0.817136 0.000000  0.012232 -0.001275 -1.110992
8  -0.249423 3.688539 -0.940889  -0.048514 0.001808 -1.357322
9  -0.000006 1.800632 -0.000000  -0.000284 0.005351 -1.434424
10  -0.000001 1.243405 -0.000000  0.002243 0.006126 -1.290542
11  -0.244726 3.701092 0.087733  0.031039 -0.036268 -1.448054
12  0.000005 1.766584 0.000000  0.004075 0.001485 -1.568462
13  0.000000 1.189005 -0.000000  -0.002671 -0.017495 -1.461225
14  -0.277239 3.632248 1.274102  0.093536 -0.061021 -1.452571
15  0.000003 1.798495 -0.000000  -0.000847 0.037839 -1.593473
16  0.000000 1.235454 -0.000000  -0.007923 -0.003199 -1.375510
17  0.315441 0.857300 0.755944  2.106799 0.276084 1.834776
18  -0.000001 2.265939 -0.000001  0.456781 0.182957 -0.729711
19  0.000000 1.457814 -0.000002  -0.053660 0.012574 -0.739164
20  -1.259681 3.818373 1.286946  0.093536 -0.061021 -1.452571
21  -1.226390 3.891694 0.090419  0.031039 -0.036268 -1.448054
22  -1.231623 3.875530 -0.958680  -0.048514 0.001808 -1.357322
23  -1.209919 3.994777 -2.003048  -0.078681 0.003393 -1.258715
24  0.328906 0.095426 1.403533  2.106799 0.276084 1.834776
25  33.433685 0.636210 -0.709888  -0.000472 0.000303 -1.555098
26  20.158314 0.001465 -15.000000  -1.570796 -0.000000 -1.570796
27  6.688313 0.001464 0.000000  -0.051945 -0.000000 -1.570796
28  0.433020 -11.755867 -21.000002  -0.083842 -0.009362 3.131152
29  0.000000 13.479277 -0.000002  0.167696 0.000000 0.000000
30  0.000000 13.477240 0.000001  -0.083756 0.010203 0.009620
31  0.267270 3.664728 -1.953293  -0.106568 0.025893 0.137951
32  -0.000000 1.180357 -0.000001  -0.036623 0.007435 0.177465
33  -0.000002 0.817138 0.000001  0.004200 0.011559 -0.007420
34  0.249423 3.688543 -0.940890  -0.060580 0.013550 0.130737
35  0.000001 1.800635 -0.000001  0.004940 -0.002077 0.208495
36  -0.000001 1.243411 0.000002  0.006524 0.000040 0.064626
37  0.244726 3.701097 0.087732  0.005036 -0.002373 0.139323
38  -0.000000 1.766588 -0.000002  0.002490 0.003552 0.259702
39  -0.000000 1.189003 0.000001  -0.017590 0.001952 0.152464
40  0.277239 3.632249 1.274101  0.054558 -0.010184 0.144732
41  -0.000001 1.798490 -0.000003  0.036314 -0.010668 0.285912
42  -0.000001 1.235457 0.000001  -0.005152 -0.006816 0.068190
43  -0.315441 0.857301 0.755942  1.684115 -0.560091 -1.563926
44  -0.000000 2.265939 0.000000  -0.057905 0.032805 0.238898
45  0.000001 1.457813 0.000000  -0.029609 -0.046490 -0.034285
46  1.259681 3.818376 1.286945  0.054558 -0.010184 0.144732
47  1.226391 3.891695 0.090419  0.005036 -0.002373 0.139324
48  1.231623 3.875536 -0.958680  -0.060580 0.013550 0.130737
49  1.209919 3.994783 -2.003048  -0.106568 0.025893 0.137951
50  -0.328906 0.095430 1.403531  1.684115 -0.560091 -1.563926
51  0.152561 -38.616215 -21.000004  -0.000000 0.000000 3.141593
52  0.152561 -25.166061 -36.000004  -1.570796 -0.000000 1.570796
53  0.433020 -11.755867 -21.000002  -0.051945 0.000000 1.570796
54  -6.696000 -10.667243 -10.471000  1.585927 -0.030224 -1.551701
55  9.999999 -0.000001 -0.000000  0.000000 -0.000000 -0.000000
56  29.620380 2.666866 0.000001  0.000000 -0.000000 -0.000000
57  3.664050 2.228526 -2.524776  1.570796 0.732815 -1.570796
58  3.490277 2.388509 1.331886  0.000000 1.570796 0.000000
time 2
0  0 0 0  0 0 0
1  0.000000 0.000000 0.000000  1.570796 -0.000000 0.000000
2  6.688313 0.001464 0.000000  -0.186820 -0.044166 -1.521562
3  -0.000000 13.479277 -0.000000  0.305887 -0.000000 -0.000000
4  -0.000000 13.477238 -0.000000  -0.117636 0.042246 -0.022939
5  -0.267270 3.664720 -1.953292  -0.078681 0.003393 -1.258716
6  -0.000000 1.180357 -0.000000  -0.009323 -0.036188 -1.295861
7  0.000002 0.817134 0.000000  0.012232 -0.001275 -1.110992
8  -0.249423 3.688536 -0.940889  -0.048514 0.001808 -1.357322
9  0.000003 1.800633 0.000000  -0.000284 0.005351 -1.434424
10  -0.000000 1.243407 -0.000000  0.002243 0.006126 -1.290542
11  -0.244727 3.701088 0.087733  0.031039 -0.036268 -1.448054
12  -0.000001 1.766585 0.000000  0.004075 0.001485 -1.568462
13  -0.000001 1.189001 0.000000  -0.002671 -0.017495 -1.461225
14  -0.277239 3.632243 1.274102  0.093536 -0.061021 -1.452571
15  -0.000001 1.798494 0.000000  -0.000847 0.037839 -1.593473
16  -0.000000 1.235453 0.000000  -0.007923 -0.003199 -1.375511
17  0.315441 0.857293 0.755944  2.106799 0.276084 1.834776
18  0.000000 2.265939 0.000000  0.456781 0.182957 -0.729711
19  -0.000001 1.457809 -0.000002  -0.053660 0.012574 -0.739163
20  -1.259681 3.818367 1.286946  0.093536 -0.061021 -1.452571
21  -1.226391 3.891685 0.090419  0.031039 -0.036268 -1.448054
22  -1.231623 3.875525 -0.958680  -0.048514 0.001808 -1.357322
23  -1.209919 3.994776 -2.003048  -0.078681 0.003393 -1.258715
24  0.328906 0.095424 1.403533  2.106799 0.276084 1.834776
25  33.284554 1.272060 -0.901799  0.002303 0.000512 -1.539301
26  20.158314 0.001465 -15.000000  -1.570796 -0.000000 -1.570796
27  6.688313 0.001464 0.000000  -0.051945 -0.000000 -1.570796
28  0.433020 -11.755867 -21.000002  -0.083842 -0.009362 3.131152
29  0.000000 13.479277 -0.000002  0.167696 0.000000 0.000000
30  0.000000 13.477240 0.000001  -0.083756 0.010203 0.009620
31  0.267270 3.664728 -1.953293  -0.106568 0.025893 0.137951
32  -0.000000 1.180357 -0.000001  -0.036623 0.007435 0.177465
33  -0.000002 0.817138 0.000001  0.004200 0.011559 -0.007420
34  0.249423 3.688543 -0.940890  -0.060580 0.013550 0.130737
35  0.000001 1.800635 -0.000001  0.004940 -0.002077 0.208495
36  -0.000001 1.243411 0.000002  0.006524 0.000040 0.064626
37  0.244726 3.701097 0.087732  0.005036 -0.002373 0.139323
38  -0.000000 1.766588 -0.000002  0.002490 0.003552 0.259702
39  -0.000000 1.189003 0.000001  -0.017590 0.001952 0.152464
40  0.277239 3.632249 1.274101  0.054558 -0.010184 0.144732
41  -0.000001 1.798490 -0.000003  0.036314 -0.010668 0.285912
42  -0.000001 1.235457 0.000001  -0.005152 -0.006816 0.068190
43  -0.315441 0.857301 0.755942  1.684115 -0.560091 -1.563926
44  -0.000000 2.265939 0.000000  -0.057905 0.032805 0.238898
45  0.000001 1.457813 0.000000  -0.029609 -0.046490 -0.034285
46  1.259681 3.818376 1.286945  0.054558 -0.010184 0.144732
47  1.226391 3.891695 0.090419  0.005036 -0.002373 0.139324
48  1.231623 3.875536 -0.958680  -0.060580 0.013550 0.130737
49  1.209919 3.994783 -2.003048  -0.106568 0.025893 0.137951
50  -0.328906 0.095430 1.403531  1.684115 -0.560091 -1.563926
51  0.152561 -38.616215 -21.000004  -0.000000 0.000000 3.141593
52  0.152561 -25.166061 -36.000004  -1.570796 -0.000000 1.570796
53  0.433020 -11.755867 -21.000002  -0.051945 0.000000 1.570796
54  -6.696000 -10.361276 -10.471000  1.601733 -0.030226 -1.554948
55  9.999998 0.000001 -0.000001  -0.000000 -0.000000 -0.000000
56  29.620386 2.666869 0.000001  -0.000000 -0.000000 -0.000000
57  3.664051 2.228529 -2.524776  1.570796 0.732815 -1.570796
58  3.490278 2.388512 1.331885  0.000000 1.570796 0.000000
time 3
0  0 0 0  0 0 0
1  0.000000 0.000000 0.000000  1.570796 -0.000000 0.000000
2  6.688313 0.001464 0.000000  -0.113393 -0.009677 -1.560019
3  -0.000000 13.479277 -0.000000  0.174019 -0.000000 -0.000000
4  0.000000 13.477237 0.000000  -0.060876 0.009563 -0.004388
5  -0.267270 3.664731 -1.953293  -0.078681 0.003393 -1.258716
6  -0.000001 1.180356 0.000000  -0.009323 -0.036188 -1.295861
7  0.000000 0.817136 0.000000  0.012232 -0.001274 -1.110992
8  -0.249423 3.688545 -0.940889  -0.048514 0.001808 -1.357322
9  -0.000000 1.800633 -0.000000  -0.000284 0.005351 -1.434424
10  -0.000000 1.243408 0.000000  0.002243 0.006126 -1.290542
11  -0.244726 3.701101 0.087733  0.031039 -0.036268 -1.448054
12  -0.000000 1.766585 0.000000  0.004075 0.001485 -1.568462
13  -0.000000 1.189005 0.000000  -0.002671 -0.017495 -1.461225
14  -0.277239 3.632256 1.274102  0.093536 -0.061021 -1.452571
15  -0.000002 1.798494 -0.000000  -0.000847 0.037839 -1.593473
16  -0.000001 1.235449 0.000000  -0.007923 -0.003199 -1.375510
17  0.315441 0.857302 0.755944  2.106799 0.276084 1.834776
18  -0.000003 2.265940 -0.000000  0.456781 0.182957 -0.729711
19  -0.000000 1.457811 0.000000  -0.053660 0.012574 -0.739163
20  -1.259681 3.818377 1.286946  0.093536 -0.061021 -1.452571
21  -1.226391 3.891697 0.090419  0.031039 -0.036268 -1.448054
22  -1.231623 3.875540 -0.958680  -0.048514 0.001808 -1.357322
23  -1.209919 3.994787 -2.003047  -0.078681 0.003393 -1.258715
24  0.328906 0.095433 1.403533  2.106799 0.276084 1.834776
25  33.532017 0.283912 -0.708578  -0.000211 0.000134 -1.563820
26  20.158314 0.001465 -15.000000  -1.570796 -0.000000 -1.570796
27  6.688313 0.001464 0.000000  -0.051945 -0.000000 -1.570796
28  0.433020 -11.755867 -21.000002  -0.083842 -0.009362 3.131152
29  0.000000 13.479277 -0.000002  0.167696 0.000000 0.000000
30  0.000000 13.477240 0.000001  -0.083756 0.010203 0.009620
31  0.267270 3.664728 -1.953293  -0.106568 0.025893 0.137951
32  -0.000000 1.180357 -0.000001  -0.036623 0.007435 0.177465
33  -0.000002 0.817138 0.000001  0.004200 0.011559 -0.007420
34  0.249423 3.688543 -0.940890  -0.060580 0.013550 0.130737
35  0.000001 1.800635 -0.000001  0.004940 -0.002077 0.208495
36  -0.000001 1.243411 0.000002  0.006524 0.000040 0.064626
37  0.244726 3.701097 0.087732  0.005036 -0.002373 0.139323
38  -0.000000 1.766588 -0.000002  0.002490 0.003552 0.259702
39  -0.000000 1.189003 0.000001  -0.017590 0.001952 0.152464
40  0.277239 3.632249 1.274101  0.054558 -0.010184 0.144732
41  -0.000001 1.798490 -0.000003  0.036314 -0.010668 0.285912
42  -0.000001 1.235457 0.000001  -0.005152 -0.006816 0.068190
43  -0.315441 0.857301 0.755942  1.684115 -0.560091 -1.563926
44  -0.000000 2.265939 0.000000  -0.057905 0.032805 0.238898
45  0.000001 1.457813 0.000000  -0.029609 -0.046490 -0.034285
46  1.259681 3.818376 1.286945  0.054558 -0.010184 0.144732
47  1.226391 3.891695 0.090419  0.005036 -0.002373 0.139324
48  1.231623 3.875536 -0.958680  -0.060580 0.013550 0.130737
49  1.209919 3.994783 -2.003048  -0.106568 0.025893 0.137951
50  -0.328906 0.095430 1.403531  1.684115 -0.560091 -1.563926
51  0.152561 -38.616215 -21.000004  -0.000000 0.000000 3.141593
52  0.152561 -25.166061 -36.000004  -1.570796 -0.000000 1.570796
53  0.433020 -11.755867 -21.000002  -0.051945 0.000000 1.570796
54  -6.696000 -10.659778 -10.471000  1.577200 -0.030224 -1.551701
55  9.999998 -0.000000 -0.000000  0.000000 -0.000000 -0.000000
56  29.620380 2.666867 0.000001  0.000000 -0.000000 -0.000000
57  3.664049 2.228527 -2.524776  1.570796 0.732815 -1.570796
58  3.490277 2.388511 1.331886  0.000000 1.570796 0.000000
time 4
0  0 0 0  0 0 0
1  0.000000 0.000000 0.000000  1.570796 -0.000000 0.000000
2  6.688313 0.001464 0.000000  -0.043009 0.024498 -1.598086
3  -0.000000 13.479277 -0.000000  0.004796 -0.000000 -0.000000
4  0.000000 13.477236 0.000000  0.035603 -0.025231 0.008806
5  -0.267270 3.664723 -1.953293  -0.078681 0.003393 -1.258715
6  -0.000003 1.180355 -0.000000  -0.009323 -0.036188 -1.295861
7  0.000001 0.817139 0.000000  0.012232 -0.001275 -1.110992
8  -0.249423 3.688540 -0.940889  -0.048514 0.001808 -1.357322
9  -0.000003 1.800633 0.000000  -0.000284 0.005351 -1.434424
10  0.000000 1.243406 0.000000  0.002243 0.006126 -1.290542
11  -0.244726 3.701094 0.087733  0.031039 -0.036268 -1.448054
12  0.000002 1.766584 -0.000000  0.004075 0.001485 -1.568462
13  0.000000 1.189007 -0.000000  -0.002671 -0.017495 -1.461225
14  -0.277239 3.632245 1.274102  0.093536 -0.061021 -1.452571
15  0.000001 1.798495 0.000000  -0.000847 0.037839 -1.593473
16  -0.000000 1.235451 -0.000000  -0.007923 -0.003199 -1.375511
17  0.315441 0.857295 0.755944  2.106799 0.276084 1.834776
18  -0.000000 2.265941 -0.000000  0.456781 0.182957 -0.729711
19  -0.000001 1.457808 -0.000002  -0.053660 0.012574 -0.739163
20  -1.259681 3.818374 1.286946  0.093536 -0.061021 -1.452571
21  -1.226391 3.891695 0.090419  0.031039 -0.036268 -1.448054
22  -1.231623 3.875533 -0.958680  -0.048514 0.001808 -1.357322
23  -1.209919 3.994780 -2.003047  -0.078681 0.003393 -1.258715
24  0.328906 0.095428 1.403533  2.106799 0.276084 1.834776
25  33.758598 -0.710488 -1.099914  -0.002381 -0.000379 -1.588326
26  20.158314 0.001465 -15.000000  -1.570796 -0.000000 -1.570796
27  6.688313 0.001464 0.000000  -0.051945 -0.000000 -1.570796
28  0.433020 -11.755867 -21.000002  -0.083842 -0.009362 3.131152
29  0.000000 13.479277 -0.000002  0.167696 0.000000 0.000000
30  0.000000 13.477240 0.000001  -0.083756 0.010203 0.009620
31  0.267270 3.664728 -1.953293  -0.106568 0.025893 0.137951
32  -0.000000 1.180357 -0.000001  -0.036623 0.007435 0.177465
33  -0.000002 0.817138 0.000001  0.004200 0.011559 -0.007420
34  0.249423 3.688543 -0.940890  -0.060580 0.013550 0.130737
35  0.000001 1.800635 -0.000001  0.004940 -0.002077 0.208495
36  -0.000001 1.243411 0.000002  0.006524 0.000040 0.064626
37  0.244726 3.701097 0.087732  0.005036 -0.002373 0.139323
38  -0.000000 1.766588 -0.000002  0.002490 0.003552 0.259702
39  -0.000000 1.189003 0.000001  -0.017590 0.001952 0.152464
40  0.277239 3.632249 1.274101  0.054558 -0.010184 0.144732
41  -0.000001 1.798490 -0.000003  0.036314 -0.010668 0.285912
42  -0.000001 1.235457 0.000001  -0.005152 -0.006816 0.068190
43  -0.315441 0.857301 0.755942  1.684115 -0.560091 -1.563926
44  -0.000000 2.265939 0.000000  -0.057905 0.032805 0.238898
45  0.000001 1.457813 0.000000  -0.029609 -0.046490 -0.034285
46  1.259681 3.818376 1.286945  0.054558 -0.010184 0.144732
47  1.226391 3.891695 0.090419  0.005036 -0.002373 0.139324
48  1.231623 3.875536 -0.958680  -0.060580 0.013550 0.130737
49  1.209919 3.994783 -2.003048  -0.106568 0.025893 0.137951
50  -0.328906 0.095430 1.403531  1.684115 -0.560091 -1.563926
51  0.152561 -38.616215 -21.000004  -0.000000 0.000000 3.141593
52  0.152561 -25.166061 -36.000004  -1.570796 -0.000000 1.570796
53  0.433020 -11.755867 -21.000002  -0.051945 0.000000 1.570796
54  -6.696000 -10.361276 -10.471000  1.552678 -0.030222 -1.548786
55  9.999996 0.000002 -0.000001  0.000000 -0.000000 -0.000000
56  29.620382 2.666869 0.000001  0.000000 -0.000000 -0.000000
57  3.664051 2.228528 -2.524775  1.570796 0.732815 -1.570796
58  3.490277 2.388513 1.331885  0.000000 1.570796 0.000000
time 5
0  0 0 0  0 0 0
1  0.000000 0.000000 0.000000  1.570796 -0.000000 0.000000
2  6.688313 0.001464 0.000000  -0.028313 0.009637 -1.581528
3  -0.000000 13.479278 -0.000000  0.004794 -0.000000 -0.000000
4  0.000000 13.477238 0.000000  0.023695 -0.009855 0.003525
5  -0.267269 3.664728 -1.953293  -0.078681 0.003393 -1.258716
6  0.000001 1.180356 0.000001  -0.009323 -0.036188 -1.295861
7  0.000003 0.817136 0.000000  0.012232 -0.001275 -1.110992
8  -0.249423 3.688542 -0.940889  -0.048514 0.001808 -1.357322
9  -0.000003 1.800633 -0.000000  -0.000284 0.005351 -1.434424
10  -0.000000 1.243401 -0.000000  0.002243 0.006126 -1.290542
11  -0.244726 3.701095 0.087733  0.031039 -0.036268 -1.448054
12  0.000004 1.766584 -0.000000  0.004075 0.001485 -1.568462
13  0.000000 1.189006 -0.000000  -0.002671 -0.017495 -1.461225
14  -0.277239 3.632251 1.274102  0.093536 -0.061021 -1.452571
15  0.000002 1.798494 -0.000000  -0.000847 0.037839 -1.593473
16  0.000000 1.235451 0.000000  -0.007923 -0.003199 -1.375511
17  0.315441 0.857303 0.755944  2.106799 0.276084 1.834776
18  -0.000003 2.265939 -0.000000  0.456781 0.182957 -0.729711
19  -0.000001 1.457809 0.000000  -0.053660 0.012574 -0.739164
20  -1.259681 3.818379 1.286946  0.093536 -0.061021 -1.452571
21  -1.226391 3.891693 0.090419  0.031039 -0.036268 -1.448054
22  -1.231623 3.875535 -0.958680  -0.048514 0.001808 -1.357322
23  -1.209919 3.994781 -2.003048  -0.078681 0.003393 -1.258716
24  0.328906 0.095430 1.403533  2.106799 0.276084 1.834776
25  33.682941 -0.281508 -0.699735  0.000211 -0.000133 -1.577773
26  20.158314 0.001465 -15.000000  -1.570796 -0.000000 -1.570796
27  6.688313 0.001464 0.000000  -0.051945 -0.000000 -1.570796
28  0.433020 -11.755867 -21.000002  -0.083842 -0.009362 3.131152
29  0.000000 13.479277 -0.000002  0.167696 0.000000 0.000000
30  0.000000 13.477240 0.000001  -0.083756 0.010203 0.009620
31  0.267270 3.664728 -1.953293  -0.106568 0.025893 0.137951
32  -0.000000 1.180357 -0.000001  -0.036623 0.007435 0.177465
33  -0.000002 0.817138 0.000001  0.004200 0.011559 -0.007420
34  0.249423 3.688543 -0.940890  -0.060580 0.013550 0.130737
35  0.000001 1.800635 -0.000001  0.004940 -0.002077 0.208495
36  -0.000001 1.243411 0.000002  0.006524 0.000040 0.064626
37  0.244726 3.701097 0.087732  0.005036 -0.002373 0.139323
38  -0.000000 1.766588 -0.000002  0.002490 0.003552 0.259702
39  -0.000000 1.189003 0.000001  -0.017590 0.001952 0.152464
40  0.277239 3.632249 1.274101  0.054558 -0.010184 0.144732
41  -0.000001 1.798490 -0.000003  0.036314 -0.010668 0.285912
42  -0.000001 1.235457 0.000001  -0.005152 -0.006816 0.068190
43  -0.315441 0.857301 0.755942  1.684115 -0.560091 -1.563926
44  -0.000000 2.265939 0.000000  -0.057905 0.032805 0.238898
45  0.000001 1.457813 0.000000  -0.029609 -0.046490 -0.034285
46  1.259681 3.818376 1.286945  0.054558 -0.010184 0.144732
47  1.226391 3.891695 0.090419  0.005036 -0.002373 0.139324
48  1.231623 3.875536 -0.958680  -0.060580 0.013550 0.130737
49  1.209919 3.994783 -2.003048  -0.106568 0.025893 0.137951
50  -0.328906 0.095430 1.403531  1.684115 -0.560091 -1.563926
51  0.152561 -38.616215 -21.000004  -0.000000 0.000000 3.141593
52  0.152561 -25.166061 -36.000004  -1.570796 -0.000000 1.570796
53  0.433020 -11.755867 -21.000002  -0.051945 0.000000 1.570796
54  -6.696000 -10.654405 -10.471000  1.563238 -0.030224 -1.551701
55  9.999999 -0.000001 -0.000001  0.000000 -0.000000 -0.000000
56  29.620380 2.666867 0.000001  0.000000 -0.000000 -0.000000
57  3.664050 2.228526 -2.524776  1.570796 0.732815 -1.570796
58  3.490278 2.388510 1.331886  0.000000 1.570796 0.000000
time 6
0  0 0 0  0 0 0
1  0.000000 0.000000 0.000000  1.570796 -0.000000 0.000000
2  6.688313 0.001464 0.000000  -0.101343 -0.004883 -1.565358
3  0.000000 13.479278 -0.000000  0.128069 -0.000000 -0.000000
4  0.000000 13.477242 -0.000000  -0.026840 0.004896 -0.002081
5  -0.267270 3.664727 -1.953293  -0.078681 0.003393 -1.258716
6  -0.000000 1.180354 -0.000000  -0.009323 -0.036188 -1.295861
7  -0.000001 0.817132 -0.000001  0.012232 -0.001275 -1.110992
8  -0.249423 3.688542 -0.940889  -0.048514 0.001808 -1.357322
9  0.000004 1.800634 -0.000000  -0.000284 0.005351 -1.434424
10  0.000000 1.243405 -0.000000  0.002243 0.006126 -1.290542
11  -0.244726 3.701093 0.087733  0.031039 -0.036268 -1.448054
12  0.000001 1.766585 0.000000  0.004075 0.001485 -1.568462
13  -0.000001 1.189003 0.000000  -0.002671 -0.017495 -1.461225
14  -0.277239 3.632248 1.274102  0.093536 -0.061021 -1.452571
15  0.000001 1.798495 -0.000000  -0.000847 0.037839 -1.593473
16  0.000000 1.235452 0.000000  -0.007923 -0.003199 -1.375511
17  0.315441 0.857298 0.755944  2.106799 0.276084 1.834776
18  0.000003 2.265939 0.000000  0.456781 0.182957 -0.729711
19  0.000000 1.457814 -0.000001  -0.053660 0.012574 -0.739164
20  -1.259681 3.818374 1.286946  0.093536 -0.061021 -1.452571
21  -1.226391 3.891688 0.090419  0.031039 -0.036268 -1.448054
22  -1.231623 3.875535 -0.958680  -0.048514 0.001808 -1.357322
23  -1.209919 3.994780 -2.003048  -0.078681 0.003393 -1.258715
24  0.328906 0.095428 1.403533  2.106799 0.276084 1.834776
25  33.570484 0.142755 -1.003546  -0.000105 0.000067 -1.567308
26  20.158314 0.001465 -15.000000  -1.570796 -0.000000 -1.570796
27  6.688313 0.001464 0.000000  -0.051945 -0.000000 -1.570796
28  0.433020 -11.755867 -21.000002  -0.083842 -0.009362 3.131152
29  0.000000 13.479277 -0.000002  0.167696 0.000000 0.000000
30  0.000000 13.477240 0.000001  -0.083756 0.010203 0.009620
31  0.267270 3.664728 -1.953293  -0.106568 0.025893 0.137951
32  -0.000000 1.180357 -0.000001  -0.036623 0.007435 0.177465
33  -0.000002 0.817138 0.000001  0.004200 0.011559 -0.007420
34  0.249423 3.688543 -0.940890  -0.060580 0.013550 0.130737
35  0.000001 1.800635 -0.000001  0.004940 -0.002077 0.208495
36  -0.000001 1.243411 0.000002  0.006524 0.000040 0.064626
37  0.244726 3.701097 0.087732  0.005036 -0.002373 0.139323
38  -0.000000 1.766588 -0.000002  0.002490 0.003552 0.259702
39  -0.000000 1.189003 0.000001  -0.017590 0.001952 0.152464
40  0.277239 3.632249 1.274101  0.054558 -0.010184 0.144732
41  -0.000001 1.798490 -0.000003  0.036314 -0.010668 0.285912
42  -0.000001 1.235457 0.000001  -0.005152 -0.006816 0.068190
43  -0.315441 0.857301 0.755942  1.684115 -0.560091 -1.563926
44  -0.000000 2.265939 0.000000  -0.057905 0.032805 0.238898
45  0.000001 1.457813 0.000000  -0.029609 -0.046490 -0.034285
46  1.259681 3.818376 1.286945  0.054558 -0.010184 0.144732
47  1.226391 3.891695 0.090419  0.005036 -0.002373 0.139324
48  1.231623 3.875536 -0.958680  -0.060580 0.013550 0.130737
49  1.209919 3.994783 -2.003048  -0.106568 0.025893 0.137951
50  -0.328906 0.095430 1.403531  1.684115 -0.560091 -1.563926
51  0.152561 -38.616215 -21.000004  -0.000000 0.000000 3.141593
52  0.152561 -25.166061 -36.000004  -1.570796 -0.000000 1.570796
53  0.433020 -11.755867 -21.000002  -0.051945 0.000000 1.570796
54  -6.696000 -10.361276 -10.471000  1.573710 -0.030224 -1.551701
55  9.999997 0.000000 -0.000000  0.000000 -0.000000 -0.000000
56  29.620378 2.666868 0.000002  0.000000 -0.000000 -0.000000
57  3.664049 2.228526 -2.524776  1.570796 0.732815 -1.570796
58  3.490277 2.388511 1.331886  0.000000 1.570796 0.000000
time 7
0  0 0 0  0 0 0
1  0.000000 0.000000 0.000000  1.570796 -0.000000 0.000000
2  6.688313 0.001464 0.000000  -0.024321 0.033428 -1.608043
3  -0.000000 13.479279 -0.000000  0.004798 -0.000000 0.000000
4  -0.000000 13.477241 0.000000  0.019848 -0.034126 0.012171
5  -0.267269 3.664725 -1.953293  -0.078681 0.003393 -1.258715
6  -0.000005 1.180356 0.000000  -0.009323 -0.036188 -1.295861
7  -0.000001 0.817136 -0.000000  0.012232 -0.001275 -1.110992
8  -0.249423 3.688541 -0.940889  -0.048514 0.001808 -1.357322
9  0.000004 1.800633 0.000000  -0.000284 0.005351 -1.434424
10  0.000001 1.243402 0.000000  0.002243 0.006126 -1.290542
11  -0.244727 3.701093 0.087733  0.031039 -0.036268 -1.448054
12  0.000003 1.766584 0.000000  0.004075 0.001485 -1.568462
13  -0.000000 1.189002 0.000000  -0.002671 -0.017495 -1.461225
14  -0.277239 3.632246 1.274102  0.093536 -0.061021 -1.452571
15  -0.000001 1.798494 0.000000  -0.000847 0.037839 -1.593473
16  -0.000000 1.235453 0.000000  -0.007923 -0.003199 -1.375510
17  0.315441 0.857301 0.755944  2.106799 0.276084 1.834776
18  -0.000001 2.265939 -0.000000  0.456781 0.182957 -0.729711
19  -0.000002 1.457809 0.000000  -0.053660 0.012574 -0.739164
20  -1.259681 3.818373 1.286946  0.093536 -0.061021 -1.452571
21  -1.226391 3.891694 0.090419  0.031039 -0.036268 -1.448054
22  -1.231623 3.875533 -0.958680  -0.048514 0.001808 -1.357322
23  -1.209919 3.994781 -2.003047  -0.078681 0.003393 -1.258715
24  0.328906 0.095427 1.403533  2.106799 0.276084 1.834776
25  33.860462 -0.991150 -0.595696  0.000744 -0.000457 -1.595216
26  20.158314 0.001465 -15.000000  -1.570796 -0.000000 -1.570796
27  6.688313 0.001464 0.000000  -0.051945 -0.000000 -1.570796
28  0.433020 -11.755867 -21.000002  -0.083842 -0.009362 3.131152
29  0.000000 13.479277 -0.000002  0.167696 0.000000 0.000000
30  0.000000 13.477240 0.000001  -0.083756 0.010203 0.009620
31  0.267270 3.664728 -1.953293  -0.106568 0.025893 0.137951
32  -0.000000 1.180357 -0.000001  -0.036623 0.007435 0.177465
33  -0.000002 0.817138 0.000001  0.004200 0.011559 -0.007420
34  0.249423 3.688543 -0.940890  -0.060580 0.013550 0.130737
35  0.000001 1.800635 -0.000001  0.004940 -0.002077 0.208495
36  -0.000001 1.243411 0.000002  0.006524 0.000040 0.064626
37  0.244726 3.701097 0.087732  0.005036 -0.002373 0.139323
38  -0.000000 1.766588 -0.000002  0.002490 0.003552 0.259702
39  -0.000000 1.189003 0.000001  -0.017590 0.001952 0.152464
40  0.277239 3.632249 1.274101  0.054558 -0.010184 0.144732
41  -0.000001 1.798490 -0.000003  0.036314 -0.010668 0.285912
42  -0.000001 1.235457 0.000001  -0.005152 -0.006816 0.068190
43  -0.315441 0.857301 0.755942  1.684115 -0.560091 -1.563926
44  -0.000000 2.265939 0.000000  -0.057905 0.032805 0.238898
45  0.000001 1.457813 0.000000  -0.029609 -0.046490 -0.034285
46  1.259681 3.818376 1.286945  0.054558 -0.010184 0.144732
47  1.226391 3.891695 0.090419  0.005036 -0.002373 0.139324
48  1.231623 3.875536 -0.958680  -0.060580 0.013550 0.130737
49  1.209919 3.994783 -2.003048  -0.106568 0.025893 0.137951
50  -0.328906 0.095430 1.403531  1.684115 -0.560091 -1.563926
51  0.152561 -38.616215 -21.000004  -0.000000 0.000000 3.141593
52  0.152561 -25.166061 -36.000004  -1.570796 -0.000000 1.570796
53  0.433020 -11.755867 -21.000002  -0.051945 0.000000 1.570796
54  -6.696000 -10.740376 -10.471000  1.545784 -0.030224 -1.551701
55  9.999999 0.000001 -0.000001  0.000000 -0.000000 -0.000000
56  29.620380 2.666868 0.000001  0.000000 -0.000000 -0.000000
57  3.664050 2.228528 -2.524776  1.570796 0.732815 -1.570796
58  3.490278 2.388512 1.331886  0.000000 1.570796 0.000000
time 8
0  0 0 0  0 0 0
1  0.000000 0.000000 0.000000  1.570796 -0.000000 0.000000
2  6.688313 0.001464 0.000000  -0.032317 0.071237 -1.650343
3  -0.000000 13.479279 -0.000000  0.004804 -0.000000 0.000000
4  0.000000 13.477241 -0.000000  0.030252 -0.072736 0.025385
5  -0.267270 3.664726 -1.953293  -0.078681 0.003393 -1.258716
6  -0.000003 1.180356 -0.000000  -0.009323 -0.036188 -1.295861
7  0.000003 0.817137 0.000000  0.012232 -0.001275 -1.110992
8  -0.249423 3.688541 -0.940889  -0.048514 0.001808 -1.357322
9  0.000000 1.800633 0.000000  -0.000284 0.005351 -1.434424
10  -0.000000 1.243403 -0.000000  0.002243 0.006126 -1.290542
11  -0.244727 3.701094 0.087733  0.031039 -0.036268 -1.448054
12  -0.000003 1.766585 0.000000  0.004075 0.001485 -1.568462
13  0.000000 1.189008 0.000000  -0.002671 -0.017495 -1.461225
14  -0.277239 3.632248 1.274102  0.093536 -0.061021 -1.452571
15  -0.000001 1.798494 -0.000000  -0.000847 0.037839 -1.593473
16  0.000000 1.235450 -0.000000  -0.007923 -0.003199 -1.375511
17  0.315441 0.857296 0.755944  2.106799 0.276084 1.834776
18  0.000000 2.265939 -0.000000  0.456781 0.182957 -0.729711
19  0.000000 1.457812 -0.000001  -0.053660 0.012574 -0.739163
20  -1.259681 3.818372 1.286946  0.093536 -0.061021 -1.452571
21  -1.226391 3.891692 0.090419  0.031039 -0.036268 -1.448054
22  -1.231623 3.875533 -0.958680  -0.048514 0.001808 -1.357322
23  -1.209919 3.994781 -2.003047  -0.078681 0.003393 -1.258715
24  0.328906 0.095429 1.403533  2.106799 0.276084 1.834776
25  34.151878 -2.128958 -0.821848  0.004625 -0.000800 -1.623035
26  20.158314 0.001465 -15.000000  -1.570796 -0.000000 -1.570796
27  6.688313 0.001464 0.000000  -0.051945 -0.000000 -1.570796
28  0.433020 -11.755867 -21.000002  -0.083842 -0.009362 3.131152
29  0.000000 13.479277 -0.000002  0.167696 0.000000 0.000000
30  0.000000 13.477240 0.000001  -0.083756 0.010203 0.009620
31  0.267270 3.664728 -1.953293  -0.106568 0.025893 0.137951
32  -0.000000 1.180357 -0.000001  -0.036623 0.007435 0.177465
33  -0.000002 0.817138 0.000001  0.004200 0.011559 -0.007420
34  0.249423 3.688543 -0.940890  -0.060580 0.013550 0.130737
35  0.000001 1.800635 -0.000001  0.004940 -0.002077 0.208495
36  -0.000001 1.243411 0.000002  0.006524 0.000040 0.064626
37  0.244726 3.701097 0.087732  0.005036 -0.002373 0.139323
38  -0.000000 1.766588 -0.000002  0.002490 0.003552 0.259702
39  -0.000000 1.189003 0.000001  -0.017590 0.001952 0.152464
40  0.277239 3.632249 1.274101  0.054558 -0.010184 0.144732
41  -0.000001 1.798490 -0.000003  0.036314 -0.010668 0.285912
42  -0.000001 1.235457 0.000001  -0.005152 -0.006816 0.068190
43  -0.315441 0.857301 0.755942  1.684115 -0.560091 -1.563926
44  -0.000000 2.265939 0.000000  -0.057905 0.032805 0.238898
45  0.000001 1.457813 0.000000  -0.029609 -0.046490 -0.034285
46  1.259681 3.818376 1.286945  0.054558 -0.010184 0.144732
47  1.226391 3.891695 0.090419  0.005036 -0.002373 0.139324
48  1.231623 3.875536 -0.958680  -0.060580 0.013550 0.130737
49  1.209919 3.994783 -2.003048  -0.106568 0.025893 0.137951
50  -0.328906 0.095430 1.403531  1.684115 -0.560091 -1.563926
51  0.152561 -38.616215 -21.000004  -0.000000 0.000000 3.141593
52  0.152561 -25.166061 -36.000004  -1.570796 -0.000000 1.570796
53  0.433020 -11.755867 -21.000002  -0.051945 0.000000 1.570796
54  -6.696000 -10.361276 -10.471000  1.517951 -0.030226 -1.554725
55  9.999998 -0.000001 -0.000000  0.000000 -0.000000 -0.000000
56  29.620382 2.666867 0.000001  0.000000 -0.000000 -0.000000
57  3.664051 2.228525 -2.524776  1.570796 0.732815 -1.570796
58  3.490279 2.388510 1.331886  0.000000 1.570796 0.000000
time 9
0  0 0 0  0 0 0
1  0.000000 0.000000 0.000000  1.570796 -0.000000 0.000000
2  6.688313 0.001464 0.000000  -0.024886 0.042901 -1.618618
3  -0.000000 13.479280 -0.000000  0.004799 -0.000000 0.000000
4  0.000000 13.477237 0.000000  0.020357 -0.043802 0.015564
5  -0.267270 3.664728 -1.953293  -0.078681 0.003393 -1.258716
6  -0.000002 1.180356 -0.000000  -0.009323 -0.036188 -1.295861
7  -0.000001 0.817135 0.000000  0.012232 -0.001275 -1.110992
8  -0.249423 3.688544 -0.940889  -0.048514 0.001808 -1.357322
9  0.000003 1.800633 0.000000  -0.000284 0.005351 -1.434424
10  0.000000 1.243408 0.000000  0.002243 0.006126 -1.290542
11  -0.244726 3.701095 0.087733  0.031039 -0.036268 -1.448054
12  0.000005 1.766585 -0.000000  0.004075 0.001485 -1.568462
13  0.000000 1.189003 -0.000000  -0.002671 -0.017495 -1.461225
14  -0.277239 3.632251 1.274102  0.093536 -0.061021 -1.452571
15  -0.000005 1.798495 -0.000000  -0.000847 0.037839 -1.593473
16  0.000000 1.235450 0.000000  -0.007923 -0.003199 -1.375511
17  0.315441 0.857301 0.755944  2.106799 0.276084 1.834776
18  0.000001 2.265941 -0.000000  0.456781 0.182957 -0.729711
19  0.000000 1.457810 -0.000002  -0.053660 0.012574 -0.739164
20  -1.259681 3.818377 1.286946  0.093536 -0.061021 -1.452571
21  -1.226391 3.891696 0.090419  0.031039 -0.036268 -1.448054
22  -1.231623 3.875535 -0.958680  -0.048514 0.001808 -1.357322
23  -1.209919 3.994782 -2.003047  -0.078681 0.003393 -1.258715
24  0.328906 0.095427 1.403533  2.106799 0.276084 1.834776
25  33.928001 -1.275853 -0.612556  0.000959 -0.000585 -1.602193
26  20.158314 0.001465 -15.000000  -1.570796 -0.000000 -1.570796
27  6.688313 0.001464 0.000000  -0.051945 -0.000000 -1.570796
28  0.433020 -11.755867 -21.000002  -0.083842 -0.009362 3.131152
29  0.000000 13.479277 -0.000002  0.167696 0.000000 0.000000
30  0.000000 13.477240 0.000001  -0.083756 0.010203 0.009620
31  0.267270 3.664728 -1.953293  -0.106568 0.025893 0.137951
32  -0.000000 1.180357 -0.000001  -0.036623 0.007435 0.177465
33  -0.000002 0.817138 0.000001  0.004200 0.011559 -0.007420
34  0.249423 3.688543 -0.940890  -0.060580 0.013550 0.130737
35  0.000001 1.800635 -0.000001  0.004940 -0.002077 0.208495
36  -0.000001 1.243411 0.000002  0.006524 0.000040 0.064626
37  0.244726 3.701097 0.087732  0.005036 -0.002373 0.139323
38  -0.000000 1.766588 -0.000002  0.002490 0.003552 0.259702
39  -0.000000 1.189003 0.000001  -0.017590 0.001952 0.152464
40  0.277239 3.632249 1.274101  0.054558 -0.010184 0.144732
41  -0.000001 1.798490 -0.000003  0.036314 -0.010668 0.285912
42  -0.000001 1.235457 0.000001  -0.005152 -0.006816 0.068190
43  -0.315441 0.857301 0.755942  1.684115 -0.560091 -1.563926
44  -0.000000 2.265939 0.000000  -0.057905 0.032805 0.238898
45  0.000001 1.457813 0.000000  -0.029609 -0.046490 -0.034285
46  1.259681 3.818376 1.286945  0.054558 -0.010184 0.144732
47  1.226391 3.891695 0.090419  0.005036 -0.002373 0.139324
48  1.231623 3.875536 -0.958680  -0.060580 0.013550 0.130737
49  1.209919 3.994783 -2.003048  -0.106568 0.025893 0.137951
50  -0.328906 0.095430 1.403531  1.684115 -0.560091 -1.563926
51  0.152561 -38.616215 -21.000004  -0.000000 0.000000 3.141593
52  0.152561 -25.166061 -36.000004  -1.570796 -0.000000 1.570796
53  0.433020 -11.755867 -21.000002  -0.051945 0.000000 1.570796
54  -6.696000 -10.716197 -10.471000  1.538803 -0.030224 -1.551701
55  9.999998 0.000001 -0.000001  0.000000 -0.000000 -0.000000
56  29.620377 2.666868 0.000001  0.000000 -0.000000 -0.000000
57  3.664048 2.228528 -2.524776  1.570796 0.732815 -1.570796
58  3.490276 2.388511 1.331886  0.000000 1.570796 0.000000
time 10
0  0 0 0  0 0 0
1  0.000000 0.000000 0.000000  1.570796 -0.000000 0.000000
2  6.688313 0.001464 0.000000  -0.048115 0.015002 -1.587505
3  -0.000000 13.479279 0.000000  0.004794 -0.000000 -0.000000
4  0.000000 13.477234 -0.000000  0.037502 -0.015512 0.005395
5  -0.267270 3.664729 -1.953293  -0.078681 0.003393 -1.258716
6  0.000005 1.180355 0.000000  -0.009323 -0.036188 -1.295861
7  0.000002 0.817132 0.000000  0.012232 -0.001275 -1.110992
8  -0.249423 3.688540 -0.940889  -0.048514 0.001808 -1.357322
9  0.000004 1.800633 -0.000000  -0.000284 0.005351 -1.434424
10  -0.000000 1.243404 0.000000  0.002243 0.006126 -1.290542
11  -0.244726 3.701096 0.087733  0.031039 -0.036268 -1.448054
12  -0.000004 1.766585 0.000000  0.004075 0.001485 -1.568462
13  0.000000 1.189004 -0.000000  -0.002671 -0.017495 -1.461225
14  -0.277239 3.632246 1.274102  0.093536 -0.061021 -1.452571
15  -0.000000 1.798494 -0.000000  -0.000847 0.037839 -1.593473
16  -0.000000 1.235449 0.000000  -0.007923 -0.003199 -1.375510
17  0.315441 0.857300 0.755944  2.106799 0.276084 1.834776
18  -0.000001 2.265940 -0.000000  0.456781 0.182957 -0.729711
19  0.000001 1.457814 -0.000000  -0.053660 0.012574 -0.739164
20  -1.259681 3.818380 1.286946  0.093536 -0.061021 -1.452571
21  -1.226391 3.891692 0.090419  0.031039 -0.036268 -1.448054
22  -1.231623 3.875536 -0.958680  -0.048514 0.001808 -1.357322
23  -1.209919 3.994783 -2.003048  -0.078681 0.003393 -1.258715
24  0.328906 0.095428 1.403533  2.106799 0.276084 1.834776
25  33.651867 -0.430576 -1.233570  -0.005732 -0.000262 -1.581443
26  20.158314 0.001465 -15.000000  -1.570796 -0.000000 -1.570796
27  6.688313 0.001464 0.000000  -0.051945 -0.000000 -1.570796
28  0.433020 -11.755867 -21.000002  -0.083842 -0.009362 3.131152
29  0.000000 13.479277 -0.000002  0.167696 0.000000 0.000000
30  0.000000 13.477240 0.000001  -0.083756 0.010203 0.009620
31  0.267270 3.664728 -1.953293  -0.106568 0.025893 0.137951
32  -0.000000 1.180357 -0.000001  -0.036623 0.007435 0.177465
33  -0.000002 0.817138 0.000001  0.004200 0.011559 -0.007420
34  0.249423 3.688543 -0.940890  -0.060580 0.013550 0.130737
35  0.000001 1.800635 -0.000001  0.004940 -0.002077 0.208495
36  -0.000001 1.243411 0.000002  0.006524 0.000040 0.064626
37  0.244726 3.701097 0.087732  0.005036 -0.002373 0.139323
38  -0.000000 1.766588 -0.000002  0.002490 0.003552 0.259702
39  -0.000000 1.189003 0.000001  -0.017590 0.001952 0.152464
40  0.277239 3.632249 1.274101  0.054558 -0.010184 0.144732
41  -0.000001 1.798490 -0.000003  0.036314 -0.010668 0.285912
42  -0.000001 1.235457 0.000001  -0.005152 -0.006816 0.068190
43  -0.315441 0.857301 0.755942  1.684115 -0.560091 -1.563926
44  -0.000000 2.265939 0.000000  -0.057905 0.032805 0.238898
45  0.000001 1.457813 0.000000  -0.029609 -0.046490 -0.034285
46  1.259681 3.818376 1.286945  0.054558 -0.010184 0.144732
47  1.226391 3.891695 0.090419  0.005036 -0.002373 0.139324
48  1.231623 3.875536 -0.958680  -0.060580 0.013550 0.130737
49  1.209919 3.994783 -2.003048  -0.106568 0.025893 0.137951
50  -0.328906 0.095430 1.403531  1.684115 -0.560091 -1.563926
51  0.152561 -38.616215 -21.000004  -0.000000 0.000000 3.141593
52  0.152561 -25.166061 -36.000004  -1.570796 -0.000000 1.570796
53  0.433020 -11.755867 -21.000002  -0.051945 0.000000 1.570796
54  -6.696000 -10.361276 -10.471000  1.559564 -0.030220 -1.545646
55  9.999999 -0.000001 -0.000001  0.000000 -0.000000 -0.000000
56  29.620384 2.666867 0.000001  0.000000 -0.000000 -0.000000
57  3.664051 2.228526 -2.524776  1.570796 0.732815 -1.570796
58  3.490277 2.388509 1.331886  0.000000 1.570796 0.000000
time 11
0  0 0 0  0 0 0
1  0.000000 0.000000 0.000000  1.570796 -0.000000 0.000000
2  6.688313 0.001464 0.000000  -0.027293 0.041814 -1.617404
3  0.000000 13.479278 -0.000000  0.004799 -0.000000 0.000000
4  -0.000000 13.477241 -0.000000  0.022770 -0.042728 0.015140
5  -0.267270 3.664728 -1.953293  -0.078681 0.003393 -1.258716
6  -0.000001 1.180355 0.000000  -0.009323 -0.036188 -1.295861
7  -0.000000 0.817138 -0.000000  0.012232 -0.001275 -1.110992
8  -0.249423 3.688543 -0.940889  -0.048514 0.001808 -1.357322
9  0.000003 1.800633 0.000000  -0.000284 0.005351 -1.434424
10  -0.000000 1.243405 0.000000  0.002243 0.006126 -1.290542
11  -0.244727 3.701101 0.087733  0.031039 -0.036268 -1.448054
12  0.000002 1.766584 0.000000  0.004075 0.001485 -1.568462
13  -0.000000 1.189006 -0.000000  -0.002671 -0.017495 -1.461225
14  -0.277240 3.632251 1.274102  0.093536 -0.061021 -1.452571
15  0.000003 1.798494 -0.000000  -0.000847 0.037839 -1.593473
16  0.000000 1.235450 0.000000  -0.007923 -0.003199 -1.375510
17  0.315441 0.857304 0.755944  2.106799 0.276084 1.834776
18  0.000005 2.265939 -0.000000  0.456781 0.182957 -0.729711
19  0.000000 1.457810 0.000001  -0.053660 0.012574 -0.739163
20  -1.259681 3.818378 1.286946  0.093536 -0.061021 -1.452571
21  -1.226391 3.891695 0.090419  0.031039 -0.036268 -1.448054
22  -1.231623 3.875540 -0.958680  -0.048514 0.001808 -1.357322
23  -1.209919 3.994786 -2.003048  -0.078681 0.003393 -1.258715
24  0.328906 0.095434 1.403533  2.106799 0.276084 1.834776
25  33.919666 -1.240239 -0.677952  0.000932 -0.000569 -1.601320
26  20.158314 0.001465 -15.000000  -1.570796 -0.000000 -1.570796
27  6.688313 0.001464 0.000000  -0.051945 -0.000000 -1.570796
28  0.433020 -11.755867 -21.000002  -0.083842 -0.009362 3.131152
29  0.000000 13.479277 -0.000002  0.167696 0.000000 0.000000
30  0.000000 13.477240 0.000001  -0.083756 0.010203 0.009620
31  0.267270 3.664728 -1.953293  -0.106568 0.025893 0.137951
32  -0.000000 1.180357 -0.000001  -0.036623 0.007435 0.177465
33  -0.000002 0.817138 0.000001  0.004200 0.011559 -0.007420
34  0.249423 3.688543 -0.940890  -0.060580 0.013550 0.130737
35  0.000001 1.800635 -0.000001  0.004940 -0.002077 0.208495
36  -0.000001 1.243411 0.000002  0.006524 0.000040 0.064626
37  0.244726 3.701097 0.087732  0.005036 -0.002373 0.139323
38  -0.000000 1.766588 -0.000002  0.002490 0.003552 0.259702
39  -0.000000 1.189003 0.000001  -0.017590 0.001952 0.152464
40  0.277239 3.632249 1.274101  0.054558 -0.010184 0.144732
41  -0.000001 1.798490 -0.000003  0.036314 -0.010668 0.285912
42  -0.000001 1.235457 0.000001  -0.005152 -0.006816 0.068190
43  -0.315441 0.857301 0.755942  1.684115 -0.560091 -1.563926
44  -0.000000 2.265939 0.000000  -0.057905 0.032805 0.238898
45  0.000001 1.457813 0.000000  -0.029609 -0.046490 -0.034285
46  1.259681 3.818376 1.286945  0.054558 -0.010184 0.144732
47  1.226391 3.891695 0.090419  0.005036 -0.002373 0.139324
48  1.231623 3.875536 -0.958680  -0.060580 0.013550 0.130737
49  1.209919 3.994783 -2.003048  -0.106568 0.025893 0.137951
50  -0.328906 0.095430 1.403531  1.684115 -0.560091 -1.563926
51  0.152561 -38.616215 -21.000004  -0.000000 0.000000 3.141593
52  0.152561 -25.166061 -36.000004  -1.570796 -0.000000 1.570796
53  0.433020 -11.755867 -21.000002  -0.051945 0.000000 1.570796
54  -6.696000 -10.651718 -10.471000  1.539676 -0.030224 -1.551701
55  10.000000 -0.000001 -0.000000  0.000000 -0.000000 -0.000000
56  29.620382 2.666867 0.000001  0.000000 -0.000000 -0.000000
57  3.664052 2.228527 -2.524775  1.570796 0.732815 -1.570796
58  3.490278 2.388511 1.331886  0.000000 1.570796 0.000000
time 12
0  0 0 0  0 0 0
1  0.000000 0.000000 0.000000  1.570796 -0.000000 0.000000
2  6.688313 0.001464 0.000000  -0.032180 0.068885 -1.647703
3  -0.000000 13.479280 -0.000000  0.004804 -0.000000 0.000000
4  -0.000000 13.477241 -0.000000  0.030332 -0.070327 0.024563
5  -0.267269 3.664730 -1.953292  -0.078681 0.003393 -1.258716
6  0.000001 1.180355 0.000000  -0.009323 -0.036188 -1.295861
7  0.000000 0.817139 0.000000  0.012232 -0.001275 -1.110992
8  -0.249423 3.688541 -0.940889  -0.048514 0.001808 -1.357322
9  -0.000001 1.800633 0.000000  -0.000284 0.005351 -1.434424
10  0.000002 1.243408 -0.000000  0.002243 0.006126 -1.290542
11  -0.244726 3.701098 0.087733  0.031039 -0.036268 -1.448054
12  0.000001 1.766585 -0.000000  0.004075 0.001485 -1.568462
13  -0.000001 1.188998 0.000000  -0.002671 -0.017495 -1.461225
14  -0.277239 3.632247 1.274102  0.093536 -0.061021 -1.452571
15  -0.000004 1.798495 -0.000000  -0.000847 0.037839 -1.593473
16  -0.000000 1.235449 0.000000  -0.007923 -0.003199 -1.375511
17  0.315441 0.857303 0.755944  2.106799 0.276084 1.834776
18  -0.000003 2.265940 -0.000000  0.456781 0.182957 -0.729711
19  -0.000000 1.457811 -0.000000  -0.053660 0.012574 -0.739163
20  -1.259681 3.818378 1.286946  0.093536 -0.061021 -1.452571
21  -1.226391 3.891695 0.090419  0.031039 -0.036268 -1.448054
22  -1.231623 3.875539 -0.958680  -0.048514 0.001808 -1.357322
23  -1.209919 3.994782 -2.003048  -0.078681 0.003393 -1.258715
24  0.328906 0.095430 1.403533  2.106799 0.276084 1.834776
25  34.138306 -2.057219 -0.817663  0.004720 -0.000767 -1.621286
26  20.158314 0.001465 -15.000000  -1.570796 -0.000000 -1.570796
27  6.688313 0.001464 0.000000  -0.051945 -0.000000 -1.570796
28  0.433020 -11.755867 -21.000002  -0.083842 -0.009362 3.131152
29  0.000000 13.479277 -0.000002  0.167696 0.000000 0.000000
30  0.000000 13.477240 0.000001  -0.083756 0.010203 0.009620
31  0.267270 3.664728 -1.953293  -0.106568 0.025893 0.137951
32  -0.000000 1.180357 -0.000001  -0.036623 0.007435 0.177465
33  -0.000002 0.817138 0.000001  0.004200 0.011559 -0.007420
34  0.249423 3.688543 -0.940890  -0.060580 0.013550 0.130737
35  0.000001 1.800635 -0.000001  0.004940 -0.002077 0.208495
36  -0.000001 1.243411 0.000002  0.006524 0.000040 0.064626
37  0.244726 3.701097 0.087732  0.005036 -0.002373 0.139323
38  -0.000000 1.766588 -0.000002  0.002490 0.003552 0.259702
39  -0.000000 1.189003 0.000001  -0.017590 0.001952 0.152464
40  0.277239 3.632249 1.274101  0.054558 -0.010184 0.144732
41  -0.000001 1.798490 -0.000003  0.036314 -0.010668 0.285912
42  -0.000001 1.235457 0.000001  -0.005152 -0.006816 0.068190
43  -0.315441 0.857301 0.755942  1.684115 -0.560091 -1.563926
44  -0.000000 2.265939 0.000000  -0.057905 0.032805 0.238898
45  0.000001 1.457813 0.000000  -0.029609 -0.046490 -0.034285
46  1.259681 3.818376 1.286945  0.054558 -0.010184 0.144732
47  1.226391 3.891695 0.090419  0.005036 -0.002373 0.139324
48  1.231623 3.875536 -0.958680  -0.060580 0.013550 0.130737
49  1.209919 3.994783 -2.003048  -0.106568 0.025893 0.137951
50  -0.328906 0.095430 1.403531  1.684115 -0.560091 -1.563926
51  0.152561 -38.616215 -21.000004  -0.000000 0.000000 3.141593
52  0.152561 -25.166061 -36.000004  -1.570796 -0.000000 1.570796
53  0.433020 -11.755867 -21.000002  -0.051945 0.000000 1.570796
54  -6.696000 -10.361276 -10.471000  1.519700 -0.030226 -1.554875
55  9.999997 -0.000000 -0.000001  0.000000 -0.000000 -0.000000
56  29.620378 2.666868 0.000001  0.000000 -0.000000 -0.000000
57  3.664051 2.228528 -2.524776  1.570796 0.732815 -1.570796
58  3.490278 2.388510 1.331886  0.000000 1.570796 0.000000
time 13
0  0 0 0  0 0 0
1  0.000000 0.000000 0.000000  1.570796 -0.000000 0.000000
2  6.688313 0.001464 0.000000  -0.023523 0.051028 -1.627701
3  -0.000000 13.479279 -0.000000  0.004800 -0.000000 -0.000000
4  0.000000 13.477237 -0.000000  0.018898 -0.052068 0.018490
5  -0.267270 3.664727 -1.953293  -0.078681 0.003393 -1.258716
6  0.000001 1.180355 0.000000  -0.009323 -0.036188 -1.295861
7  0.000001 0.817137 -0.000000  0.012232 -0.001274 -1.110992
8  -0.249423 3.688541 -0.940889  -0.048514 0.001808 -1.357322
9  0.000001 1.800634 0.000000  -0.000284 0.005351 -1.434424
10  -0.000002 1.243402 -0.000000  0.002243 0.006126 -1.290542
11  -0.244727 3.701097 0.087733  0.031039 -0.036268 -1.448054
12  0.000002 1.766585 0.000000  0.004075 0.001485 -1.568462
13  0.000000 1.189003 0.000000  -0.002671 -0.017495 -1.461225
14  -0.277239 3.632243 1.274102  0.093536 -0.061021 -1.452571
15  0.000005 1.798494 -0.000000  -0.000847 0.037839 -1.593473
16  -0.000000 1.235450 0.000000  -0.007923 -0.003199 -1.375511
17  0.315441 0.857300 0.755944  2.106799 0.276084 1.834776
18  -0.000000 2.265940 -0.000000  0.456781 0.182957 -0.729711
19  -0.000002 1.457811 -0.000001  -0.053660 0.012574 -0.739163
20  -1.259681 3.818372 1.286946  0.093536 -0.061021 -1.452571
21  -1.226391 3.891690 0.090419  0.031039 -0.036268 -1.448054
22  -1.231623 3.875535 -0.958680  -0.048514 0.001808 -1.357322
23  -1.209919 3.994781 -2.003047  -0.078681 0.003393 -1.258715
24  0.328906 0.095427 1.403533  2.106799 0.276084 1.834776
25  33.985165 -1.524028 -0.576589  0.001146 -0.000694 -1.608265
26  20.158314 0.001465 -15.000000  -1.570796 -0.000000 -1.570796
27  6.688313 0.001464 0.000000  -0.051945 -0.000000 -1.570796
28  0.433020 -11.755867 -21.000002  -0.083842 -0.009362 3.131152
29  0.000000 13.479277 -0.000002  0.167696 0.000000 0.000000
30  0.000000 13.477240 0.000001  -0.083756 0.010203 0.009620
31  0.267270 3.664728 -1.953293  -0.106568 0.025893 0.137951
32  -0.000000 1.180357 -0.000001  -0.036623 0.007435 0.177465
33  -0.000002 0.817138 0.000001  0.004200 0.011559 -0.007420
34  0.249423 3.688543 -0.940890  -0.060580 0.013550 0.130737
35  0.000001 1.800635 -0.000001  0.004940 -0.002077 0.208495
36  -0.000001 1.243411 0.000002  0.006524 0.000040 0.064626
37  0.244726 3.701097 0.087732  0.005036 -0.002373 0.139323
38  -0.000000 1.766588 -0.000002  0.002490 0.003552 0.259702
39  -0.000000 1.189003 0.000001  -0.017590 0.001952 0.152464
40  0.277239 3.632249 1.274101  0.054558 -0.010184 0.144732
41  -0.000001 1.798490 -0.000003  0.036314 -0.010668 0.285912
42  -0.000001 1.235457 0.000001  -0.005152 -0.006816 0.068190
43  -0.315441 0.857301 0.755942  1.684115 -0.560091 -1.563926
44  -0.000000 2.265939 0.000000  -0.057905 0.032805 0.238898
45  0.000001 1.457813 0.000000  -0.029609 -0.046490 -0.034285
46  1.259681 3.818376 1.286945  0.054558 -0.010184 0.144732
47  1.226391 3.891695 0.090419  0.005036 -0.002373 0.139324
48  1.231623 3.875536 -0.958680  -0.060580 0.013550 0.130737
49  1.209919 3.994783 -2.003048  -0.106568 0.025893 0.137951
50  -0.328906 0.095430 1.403531  1.684115 -0.560091 -1.563926
51  0.152561 -38.616215 -21.000004  -0.000000 0.000000 3.141593
52  0.152561 -25.166061 -36.000004  -1.570796 -0.000000 1.570796
53  0.433020 -11.755867 -21.000002  -0.051945 0.000000 1.570796
54  -6.696000 -10.745750 -10.471000  1.532727 -0.030224 -1.551701
55  9.999998 0.000001 -0.000001  0.000000 -0.000000 -0.000000
56  29.620378 2.666868 0.000001  0.000000 -0.000000 -0.000000
57  3.664051 2.228526 -2.524776  1.570796 0.732815 -1.570796
58  3.490277 2.388512 1.331885  0.000000 1.570796 0.000000
time 14
0  0 0 0  0 0 0
1  0.000000 0.000000 0.000000  1.570796 -0.000000 0.000000
2  6.688313 0.001464 0.000000  -0.045237 0.018578 -1.591489
3  0.000000 13.479278 0.000000  0.004795 -0.000000 -0.000000
4  -0.000000 13.477242 0.000000  0.036470 -0.019167 0.006683
5  -0.267270 3.664728 -1.953293  -0.078681 0.003393 -1.258715
6  -0.000003 1.180356 0.000000  -0.009323 -0.036188 -1.295861
7  -0.000000 0.817133 0.000000  0.012232 -0.001275 -1.110992
8  -0.249423 3.688544 -0.940889  -0.048514 0.001808 -1.357322
9  0.000004 1.800632 -0.000000  -0.000284 0.005351 -1.434424
10  0.000000 1.243404 -0.000000  0.002243 0.006126 -1.290542
11  -0.244726 3.701097 0.087733  0.031039 -0.036268 -1.448054
12  0.000000 1.766585 0.000000  0.004075 0.001485 -1.568462
13  -0.000000 1.189001 0.000000  -0.002671 -0.017495 -1.461225
14  -0.277239 3.632251 1.274102  0.093536 -0.061021 -1.452571
15  -0.000001 1.798494 -0.000000  -0.000847 0.037839 -1.593473
16  0.000000 1.235456 -0.000000  -0.007923 -0.003199 -1.375511
17  0.315441 0.857302 0.755944  2.106799 0.276084 1.834776
18  0.000000 2.265940 0.000000  0.456781 0.182957 -0.729711
19  -0.000000 1.457811 -0.000001  -0.053660 0.012574 -0.739163
20  -1.259681 3.818377 1.286946  0.093536 -0.061021 -1.452571
21  -1.226391 3.891694 0.090419  0.031039 -0.036268 -1.448054
22  -1.231623 3.875534 -0.958680  -0.048514 0.001808 -1.357322
23  -1.209919 3.994783 -2.003048  -0.078681 0.003393 -1.258716
24  0.328906 0.095428 1.403533  2.106799 0.276084 1.834776
25  33.699631 -0.536024 -1.157847  -0.003840 -0.000304 -1.584037
26  20.158314 0.001465 -15.000000  -1.570796 -0.000000 -1.570796
27  6.688313 0.001464 0.000000  -0.051945 -0.000000 -1.570796
28  0.433020 -11.755867 -21.000002  -0.083842 -0.009362 3.131152
29  0.000000 13.479277 -0.000002  0.167696 0.000000 0.000000
30  0.000000 13.477240 0.000001  -0.083756 0.010203 0.009620
31  0.267270 3.664728 -1.953293  -0.106568 0.025893 0.137951
32  -0.000000 1.180357 -0.000001  -0.036623 0.007435 0.177465
33  -0.000002 0.817138 0.000001  0.004200 0.011559 -0.007420
34  0.249423 3.688543 -0.940890  -0.060580 0.013550 0.130737
35  0.000001 1.800635 -0.000001  0.004940 -0.002077 0.208495
36  -0.000001 1.243411 0.000002  0.006524 0.000040 0.064626
37  0.244726 3.701097 0.087732  0.005036 -0.002373 0.139323
38  -0.000000 1.766588 -0.000002  0.002490 0.003552 0.259702
39  -0.000000 1.189003 0.000001  -0.017590 0.001952 0.152464
40  0.277239 3.632249 1.274101  0.054558 -0.010184 0.144732
41  -0.000001 1.798490 -0.000003  0.036314 -0.010668 0.285912
42  -0.000001 1.235457 0.000001  -0.005152 -0.006816 0.068190
43  -0.315441 0.857301 0.755942  1.684115 -0.560091 -1.563926
44  -0.000000 2.265939 0.000000  -0.057905 0.032805 0.238898
45  0.000001 1.457813 0.000000  -0.029609 -0.046490 -0.034285
46  1.259681 3.818376 1.286945  0.054558 -0.010184 0.144732
47  1.226391 3.891695 0.090419  0.005036 -0.002373 0.139324
48  1.231623 3.875536 -0.958680  -0.060580 0.013550 0.130737
49  1.209919 3.994783 -2.003048  -0.106568 0.025893 0.137951
50  -0.328906 0.095430 1.403531  1.684115 -0.560091 -1.563926
51  0.152561 -38.616215 -21.000004  -0.000000 0.000000 3.141593
52  0.152561 -25.166061 -36.000004  -1.570796 -0.000000 1.570796
53  0.433020 -11.755867 -21.000002  -0.051945 0.000000 1.570796
54  -6.696000 -10.361276 -10.471000  1.556969 -0.030221 -1.547459
55  9.999999 0.000001 -0.000001  0.000000 -0.000000 -0.000000
56  29.620380 2.666868 0.000001  0.000000 -0.000000 -0.000000
57  3.664052 2.228528 -2.524776  1.570796 0.732815 -1.570796
58  3.490278 2.388511 1.331886  0.000000 1.570796 0.000000
time 15
0  0 0 0  0 0 0
1  0.000000 0.000000 0.000000  1.570796 -0.000000 0.000000
2  6.688313 0.001464 0.000000  -0.070518 -0.000000 -1.570796
3  -0.000000 13.479278 0.000000  0.091132 -0.000000 -0.000000
4  0.000000 13.477241 0.000000  -0.020614 0.000000 0.000000
5  -0.267270 3.664726 -1.953293  -0.078681 0.003393 -1.258715
6  -0.000007 1.180357 -0.000000  -0.009323 -0.036188 -1.295861
7  0.000000 0.817137 0.000000  0.012232 -0.001275 -1.110992
8  -0.249423 3.688541 -0.940889  -0.048514 0.001808 -1.357322
9  -0.000007 1.800634 0.000000  -0.000284 0.005351 -1.434424
10  -0.000001 1.243402 -0.000000  0.002243 0.006126 -1.290542
11  -0.244726 3.701096 0.087733  0.031039 -0.036268 -1.448054
12  -0.000004 1.766585 0.000000  0.004075 0.001485 -1.568462
13  -0.000000 1.189007 -0.000000  -0.002671 -0.017495 -1.461225
14  -0.277239 3.632248 1.274102  0.093536 -0.061021 -1.452571
15  0.000001 1.798494 0.000000  -0.000847 0.037839 -1.593473
16  0.000000 1.235450 0.000000  -0.007923 -0.003199 -1.375511
17  0.315441 0.857300 0.755944  2.106799 0.276084 1.834776
18  0.000002 2.265938 -0.000001  0.456781 0.182957 -0.729711
19  0.000001 1.457813 0.000001  -0.053660 0.012574 -0.739163
20  -1.259681 3.818375 1.286946  0.093536 -0.061021 -1.452571
21  -1.226390 3.891693 0.090419  0.031039 -0.036268 -1.448054
22  -1.231623 3.875534 -0.958680  -0.048514 0.001808 -1.357322
23  -1.209919 3.994781 -2.003048  -0.078681 0.003393 -1.258715
24  0.328906 0.095428 1.403533  2.106799 0.276084 1.834776
25  33.608463 0.001465 -0.671943  0.000000 -0.000000 -1.570796
26  20.158314 0.001465 -15.000000  -1.570796 -0.000000 -1.570796
27  6.688313 0.001464 0.000000  -0.051945 -0.000000 -1.570796
28  0.433020 -11.755867 -21.000002  -0.083842 -0.009362 3.131152
29  0.000000 13.479277 -0.000002  0.167696 0.000000 0.000000
30  0.000000 13.477240 0.000001  -0.083756 0.010203 0.009620
31  0.267270 3.664728 -1.953293  -0.106568 0.025893 0.137951
32  -0.000000 1.180357 -0.000001  -0.036623 0.007435 0.177465
33  -0.000002 0.817138 0.000001  0.004200 0.011559 -0.007420
34  0.249423 3.688543 -0.940890  -0.060580 0.013550 0.130737
35  0.000001 1.800635 -0.000001  0.004940 -0.002077 0.208495
36  -0.000001 1.243411 0.000002  0.006524 0.000040 0.064626
37  0.244726 3.701097 0.087732  0.005036 -0.002373 0.139323
38  -0.000000 1.766588 -0.000002  0.002490 0.003552 0.259702
39  -0.000000 1.189003 0.000001  -0.017590 0.001952 0.152464
40  0.277239 3.632249 1.274101  0.054558 -0.010184 0.144732
41  -0.000001 1.798490 -0.000003  0.036314 -0.010668 0.285912
42  -0.000001 1.235457 0.000001  -0.005152 -0.006816 0.068190
43  -0.315441 0.857301 0.755942  1.684115 -0.560091 -1.563926
44  -0.000000 2.265939 0.000000  -0.057905 0.032805 0.238898
45  0.000001 1.457813 0.000000  -0.029609 -0.046490 -0.034285
46  1.259681 3.818376 1.286945  0.054558 -0.010184 0.144732
47  1.226391 3.891695 0.090419  0.005036 -0.002373 0.139324
48  1.231623 3.875536 -0.958680  -0.060580 0.013550 0.130737
49  1.209919 3.994783 -2.003048  -0.106568 0.025893 0.137951
50  -0.328906 0.095430 1.403531  1.684115 -0.560091 -1.563926
51  0.152561 -38.616215 -21.000004  -0.000000 0.000000 3.141593
52  0.152561 -25.166061 -36.000004  -1.570796 -0.000000 1.570796
53  0.433020 -11.755867 -21.000002  -0.051945 0.000000 1.570796
54  -6.696000 -10.689331 -10.471000  1.570219 -0.030224 -1.551701
55  10.000001 -0.000001 0.000000  0.000000 -0.000000 -0.000000
56  29.620378 2.666867 0.000002  0.000000 -0.000000 -0.000000
57  3.664051 2.228527 -2.524775  1.570796 0.732815 -1.570796
58  3.490277 2.388511 1.331887  0.000000 1.570796 0.000000
end
