version 1
nodes
0 "blender_implicit" -1
1 "root" -1
2 "upperarm_l" 1
3 "lowerarm_l" 2
4 "hand_l" 3
5 "pinky_0_l" 4
6 "pinky_1_l" 5
7 "pinky_2_l" 6
8 "ring_0_l" 4
9 "ring_1_l" 8
10 "ring_2_l" 9
11 "middle_0_l" 4
12 "middle_1_l" 11
13 "middle_2_l" 12
14 "index_0_l" 4
15 "index_1_l" 14
16 "index_2_l" 15
17 "thumb_0_l" 4
18 "thumb_1_l" 17
19 "thumb_2_l" 18
20 "rig_index_l" 4
21 "rig_middle_l" 4
22 "rig_ring_l" 4
23 "rig_pinky_l" 4
24 "rig_thumb_l" 4
25 "rig_hand_l" 1
26 "rig_l" 1
27 "rig_upperarm_l" 1
28 "upperarm_r" 1
29 "lowerarm_r" 28
30 "hand_r" 29
31 "pinky_0_r" 30
32 "pinky_1_r" 31
33 "pinky_2_r" 32
34 "ring_0_r" 30
35 "ring_1_r" 34
36 "ring_2_r" 35
37 "middle_0_r" 30
38 "middle_1_r" 37
39 "middle_2_r" 38
40 "index_0_r" 30
41 "index_1_r" 40
42 "index_2_r" 41
43 "thumb_0_r" 30
44 "thumb_1_r" 43
45 "thumb_2_r" 44
46 "rig_index_r" 30
47 "rig_middle_r" 30
48 "rig_ring_r" 30
49 "rig_pinky_r" 30
50 "rig_thumb_r" 30
51 "rig_hand_r" 1
52 "rig_r" 1
53 "rig_upperarm_r" 1
54 "bone_base" -1
55 "bone_barrels" 54
56 "bone_muzzle" 54
57 "bone_Ring" 54
58 "bone_ejectionPort" 54
end
skeleton
time 0
0  0 0 0  0 0 0
1  0.000000 0.000000 0.000000  1.570796 -0.000000 0.000000
2  -1.843768 -8.254290 -12.055320  1.415717 -0.036156 -2.260319
3  0.000001 13.479276 0.000000  0.369324 -0.000000 -0.000000
4  0.000000 13.477240 -0.000000  -0.237212 -0.282930 0.213290
5  -0.267270 3.664726 -1.953293  0.570287 -0.108989 -1.360402
6  -0.000001 1.180355 -0.000000  -0.005540 -0.036957 -1.399219
7  0.000001 0.817137 0.000001  0.012298 -0.000007 -1.214275
8  -0.249423 3.688542 -0.940889  0.326191 -0.061560 -1.352632
9  0.000000 1.800633 -0.000001  -0.000262 0.005352 -1.430231
10  -0.000001 1.243405 -0.000001  0.002269 0.006116 -1.286349
11  -0.244727 3.701096 0.087732  0.221244 0.005544 -1.361061
12  0.000000 1.766585 0.000000  0.004189 0.001125 -1.481426
13  -0.000000 1.189005 -0.000000  -0.004182 -0.017197 -1.374175
14  -0.277239 3.632248 1.274102  0.115075 0.054750 -1.366492
15  0.000002 1.798494 0.000000  0.002394 0.037772 -1.507786
16  0.000000 1.235450 -0.000000  -0.008167 -0.002510 -1.289887
17  0.315441 0.857300 0.755943  -0.760999 2.412031 -1.377325
18  0.000000 2.265941 -0.000001  -0.016207 -0.064542 -1.048595
19  0.000000 1.457816 0.000000  -0.051901 0.018546 -0.626230
20  -1.259681 3.818374 1.286946  0.115075 0.054750 -1.366492
21  -1.226391 3.891693 0.090419  0.221244 0.005544 -1.361061
22  -1.231624 3.875533 -0.958680  0.326191 -0.061560 -1.352631
23  -1.209920 3.994780 -2.003048  0.570287 -0.108989 -1.360402
24  0.328906 0.095428 1.403532  -0.761000 2.412031 -1.377325
25  -1.839085 -7.017211 14.413891  1.612957 -0.173969 -2.586941
26  13.824293 -20.103218 10.765717  -1.570796 -0.000000 -1.570796
27  -1.843768 -8.254290 -12.055320  -0.051945 -0.000000 -1.570796
28  0.433020 -11.755867 -21.000002  -0.083842 -0.009362 3.131152
29  0.000000 13.479277 -0.000002  0.167696 0.000000 0.000000
30  0.000000 13.477240 0.000001  -0.083756 0.010203 0.009620
31  0.267270 3.664728 -1.953293  -0.106568 0.025893 0.137951
32  -0.000000 1.180357 -0.000001  -0.036623 0.007435 0.177465
33  -0.000002 0.817138 0.000001  0.004200 0.011559 -0.007420
34  0.249423 3.688543 -0.940890  -0.060580 0.013550 0.130737
35  0.000001 1.800635 -0.000001  0.004940 -0.002077 0.208495
36  -0.000001 1.243411 0.000002  0.006524 0.000040 0.064626
37  0.244726 3.701097 0.087732  0.005036 -0.002373 0.139323
38  -0.000000 1.766588 -0.000002  0.002490 0.003552 0.259702
39  -0.000000 1.189003 0.000001  -0.017590 0.001952 0.152464
40  0.277239 3.632249 1.274101  0.054558 -0.010184 0.144732
41  -0.000001 1.798490 -0.000003  0.036314 -0.010668 0.285912
42  -0.000001 1.235457 0.000001  -0.005152 -0.006816 0.068190
43  -0.315441 0.857301 0.755942  1.684115 -0.560091 -1.563926
44  -0.000000 2.265939 0.000000  -0.057905 0.032805 0.238898
45  0.000001 1.457813 0.000000  -0.029609 -0.046490 -0.034285
46  1.259681 3.818376 1.286945  0.054558 -0.010184 0.144732
47  1.226391 3.891695 0.090419  0.005036 -0.002373 0.139324
48  1.231623 3.875536 -0.958680  -0.060580 0.013550 0.130737
49  1.209919 3.994783 -2.003048  -0.106568 0.025893 0.137951
50  -0.328906 0.095430 1.403531  1.684115 -0.560091 -1.563926
51  0.152561 -38.616215 -21.000004  -0.000000 0.000000 3.141593
52  0.152561 -25.166061 -36.000004  -1.570796 -0.000000 1.570796
53  0.433020 -11.755867 -21.000002  -0.051945 0.000000 1.570796
54  -6.728096 -8.438214 -10.547971  1.503369 -0.064891 -1.564720
55  9.999999 -0.000000 -0.000001  0.000000 -0.000000 -0.000000
56  29.620377 2.666867 0.000001  0.000000 -0.000000 -0.000000
57  3.664051 2.228525 -2.524775  0.874819 -0.251441 2.852149
58  3.490277 2.388511 1.331886  0.000000 1.570796 0.000000
time 1
0  0 0 0  0 0 0
1  0.000000 0.000000 0.000000  1.570796 -0.000000 0.000000
2  -1.843768 -8.254290 -11.871601  1.427072 -0.037323 -2.261328
3  0.000002 13.479276 -0.000000  0.353132 0.000000 -0.000000
4  0.000000 13.477239 0.000000  -0.229778 -0.267754 0.206627
5  -0.267268 3.664727 -1.953294  0.570288 -0.108989 -1.360402
6  0.000001 1.180354 -0.000001  -0.005540 -0.036957 -1.399219
7  -0.000001 0.817136 0.000000  0.012298 -0.000007 -1.214275
8  -0.249422 3.688541 -0.940890  0.326191 -0.061560 -1.352632
9  0.000001 1.800633 -0.000000  -0.000262 0.005352 -1.430231
10  0.000001 1.243408 -0.000001  0.002269 0.006116 -1.286349
11  -0.244726 3.701097 0.087732  0.221244 0.005544 -1.361062
12  0.000000 1.766585 -0.000000  0.004189 0.001125 -1.481426
13  0.000000 1.189003 -0.000001  -0.004182 -0.017197 -1.374176
14  -0.277239 3.632249 1.274101  0.115075 0.054751 -1.366492
15  0.000001 1.798493 0.000000  0.002394 0.037772 -1.507786
16  -0.000000 1.235452 0.000000  -0.008167 -0.002510 -1.289887
17  0.315442 0.857300 0.755943  -0.761000 2.412031 -1.377326
18  -0.000000 2.265939 -0.000000  -0.016207 -0.064542 -1.048595
19  0.000000 1.457812 0.000000  -0.051901 0.018546 -0.626230
20  -1.259680 3.818376 1.286944  0.115075 0.054750 -1.366492
21  -1.226390 3.891693 0.090418  0.221244 0.005544 -1.361061
22  -1.231623 3.875532 -0.958681  0.326191 -0.061560 -1.352632
23  -1.209919 3.994781 -2.003049  0.570288 -0.108989 -1.360402
24  0.328907 0.095430 1.403531  -0.761000 2.412031 -1.377326
25  -1.884853 -6.936534 14.632980  1.611410 -0.174537 -2.570786
26  13.824293 -20.103218 10.765717  -1.570796 -0.000000 -1.570796
27  -1.843768 -8.254290 -11.871601  -0.051945 -0.000000 -1.570796
28  0.433020 -11.755867 -21.000002  -0.083842 -0.009362 3.131152
29  0.000000 13.479277 -0.000002  0.167696 0.000000 0.000000
30  0.000000 13.477240 0.000001  -0.083756 0.010203 0.009620
31  0.267270 3.664728 -1.953293  -0.106568 0.025893 0.137951
32  -0.000000 1.180357 -0.000001  -0.036623 0.007435 0.177465
33  -0.000002 0.817138 0.000001  0.004200 0.011559 -0.007420
34  0.249423 3.688543 -0.940890  -0.060580 0.013550 0.130737
35  0.000001 1.800635 -0.000001  0.004940 -0.002077 0.208495
36  -0.000001 1.243411 0.000002  0.006524 0.000040 0.064626
37  0.244726 3.701097 0.087732  0.005036 -0.002373 0.139323
38  -0.000000 1.766588 -0.000002  0.002490 0.003552 0.259702
39  -0.000000 1.189003 0.000001  -0.017590 0.001952 0.152464
40  0.277239 3.632249 1.274101  0.054558 -0.010184 0.144732
41  -0.000001 1.798490 -0.000003  0.036314 -0.010668 0.285912
42  -0.000001 1.235457 0.000001  -0.005152 -0.006816 0.068190
43  -0.315441 0.857301 0.755942  1.684115 -0.560091 -1.563926
44  -0.000000 2.265939 0.000000  -0.057905 0.032805 0.238898
45  0.000001 1.457813 0.000000  -0.029609 -0.046490 -0.034285
46  1.259681 3.818376 1.286945  0.054558 -0.010184 0.144732
47  1.226391 3.891695 0.090419  0.005036 -0.002373 0.139324
48  1.231623 3.875536 -0.958680  -0.060580 0.013550 0.130737
49  1.209919 3.994783 -2.003048  -0.106568 0.025893 0.137951
50  -0.328906 0.095430 1.403531  1.684115 -0.560091 -1.563926
51  0.152561 -38.616215 -21.000004  -0.000000 0.000000 3.141593
52  0.152561 -25.166061 -36.000004  -1.570796 -0.000000 1.570796
53  0.433020 -11.755867 -21.000002  -0.051945 0.000000 1.570796
54  -6.724926 -8.660081 -10.538693  1.519295 -0.064004 -1.564453
55  10.000000 -0.000000 -0.000000  0.000000 -0.000000 -0.000000
56  29.620378 2.666867 0.000002  0.000000 -0.000000 -0.000000
57  3.664051 2.228525 -2.524776  0.845887 0.118667 -3.008726
58  3.490278 2.388511 1.331886  0.000000 1.570796 0.000000
time 2
0  0 0 0  0 0 0
1  0.000000 0.000000 0.000000  1.570796 -0.000000 0.000000
2  -1.843767 -8.254290 -11.448718  1.454822 -0.039626 -2.263134
3  0.000001 13.479278 -0.000000  0.311788 -0.000000 -0.000000
4  0.000000 13.477240 -0.000000  -0.211328 -0.235022 0.192168
5  -0.267269 3.664726 -1.953293  0.570287 -0.108989 -1.360402
6  0.000000 1.180354 0.000000  -0.005540 -0.036957 -1.399219
7  -0.000001 0.817135 -0.000001  0.012298 -0.000007 -1.214275
8  -0.249422 3.688540 -0.940888  0.326191 -0.061559 -1.352632
9  0.000001 1.800634 -0.000000  -0.000262 0.005352 -1.430231
10  0.000001 1.243407 -0.000000  0.002269 0.006116 -1.286349
11  -0.244726 3.701096 0.087733  0.221244 0.005544 -1.361062
12  -0.000001 1.766584 -0.000001  0.004189 0.001125 -1.481426
13  -0.000002 1.189003 -0.000001  -0.004182 -0.017197 -1.374176
14  -0.277238 3.632246 1.274102  0.115075 0.054750 -1.366492
15  0.000001 1.798494 0.000000  0.002394 0.037772 -1.507786
16  0.000000 1.235451 0.000000  -0.008167 -0.002510 -1.289887
17  0.315442 0.857300 0.755944  -0.761000 2.412031 -1.377325
18  0.000000 2.265941 0.000000  -0.016207 -0.064542 -1.048595
19  -0.000000 1.457810 0.000000  -0.051901 0.018546 -0.626230
20  -1.259680 3.818376 1.286946  0.115075 0.054750 -1.366492
21  -1.226390 3.891693 0.090420  0.221244 0.005544 -1.361061
22  -1.231622 3.875534 -0.958679  0.326191 -0.061560 -1.352632
23  -1.209919 3.994781 -2.003047  0.570287 -0.108989 -1.360402
24  0.328907 0.095428 1.403533  -0.761000 2.412031 -1.377326
25  -1.988705 -6.764679 15.138796  1.607486 -0.175489 -2.535155
26  13.824293 -20.103218 10.765717  -1.570796 -0.000000 -1.570796
27  -1.843767 -8.254290 -11.448718  -0.051945 -0.000000 -1.570796
28  0.433020 -11.755867 -21.000002  -0.083842 -0.009362 3.131152
29  0.000000 13.479277 -0.000002  0.167696 0.000000 0.000000
30  0.000000 13.477240 0.000001  -0.083756 0.010203 0.009620
31  0.267270 3.664728 -1.953293  -0.106568 0.025893 0.137951
32  -0.000000 1.180357 -0.000001  -0.036623 0.007435 0.177465
33  -0.000002 0.817138 0.000001  0.004200 0.011559 -0.007420
34  0.249423 3.688543 -0.940890  -0.060580 0.013550 0.130737
35  0.000001 1.800635 -0.000001  0.004940 -0.002077 0.208495
36  -0.000001 1.243411 0.000002  0.006524 0.000040 0.064626
37  0.244726 3.701097 0.087732  0.005036 -0.002373 0.139323
38  -0.000000 1.766588 -0.000002  0.002490 0.003552 0.259702
39  -0.000000 1.189003 0.000001  -0.017590 0.001952 0.152464
40  0.277239 3.632249 1.274101  0.054558 -0.010184 0.144732
41  -0.000001 1.798490 -0.000003  0.036314 -0.010668 0.285912
42  -0.000001 1.235457 0.000001  -0.005152 -0.006816 0.068190
43  -0.315441 0.857301 0.755942  1.684115 -0.560091 -1.563926
44  -0.000000 2.265939 0.000000  -0.057905 0.032805 0.238898
45  0.000001 1.457813 0.000000  -0.029609 -0.046490 -0.034285
46  1.259681 3.818376 1.286945  0.054558 -0.010184 0.144732
47  1.226391 3.891695 0.090419  0.005036 -0.002373 0.139324
48  1.231623 3.875536 -0.958680  -0.060580 0.013550 0.130737
49  1.209919 3.994783 -2.003048  -0.106568 0.025893 0.137951
50  -0.328906 0.095430 1.403531  1.684115 -0.560091 -1.563926
51  0.152561 -38.616215 -21.000004  -0.000000 0.000000 3.141593
52  0.152561 -25.166061 -36.000004  -1.570796 -0.000000 1.570796
53  0.433020 -11.755867 -21.000002  -0.051945 0.000000 1.570796
54  -6.717781 -9.170077 -10.518026  1.554328 -0.061553 -1.563713
55  9.999997 -0.000001 -0.000000  0.000000 -0.000000 -0.000000
56  29.620380 2.666866 0.000001  0.000000 -0.000000 -0.000000
57  3.664050 2.228525 -2.524775  1.184004 0.639175 -2.169877
58  3.490277 2.388510 1.331886  0.000000 1.570796 0.000000
time 3
0  0 0 0  0 0 0
1  0.000000 0.000000 0.000000  1.570796 -0.000000 0.000000
2  -1.843768 -8.254290 -10.979080  1.489227 -0.041512 -2.264278
3  0.000002 13.479277 -0.000002  0.256598 0.000000 -0.000000
4  0.000001 13.477238 0.000001  -0.187355 -0.203690 0.177426
5  -0.267271 3.664724 -1.953293  0.570287 -0.108989 -1.360402
6  0.000001 1.180355 0.000000  -0.005540 -0.036957 -1.399219
7  -0.000000 0.817138 -0.000001  0.012298 -0.000007 -1.214275
8  -0.249424 3.688542 -0.940889  0.326191 -0.061559 -1.352632
9  0.000002 1.800632 0.000000  -0.000262 0.005352 -1.430232
10  0.000000 1.243405 -0.000001  0.002269 0.006116 -1.286350
11  -0.244727 3.701095 0.087733  0.221244 0.005544 -1.361062
12  -0.000001 1.766585 0.000000  0.004189 0.001125 -1.481426
13  -0.000001 1.189005 0.000001  -0.004182 -0.017197 -1.374176
14  -0.277240 3.632247 1.274102  0.115075 0.054750 -1.366492
15  0.000001 1.798495 0.000000  0.002394 0.037772 -1.507786
16  0.000000 1.235453 -0.000000  -0.008167 -0.002510 -1.289887
17  0.315440 0.857299 0.755944  -0.761000 2.412031 -1.377325
18  0.000001 2.265939 0.000000  -0.016207 -0.064542 -1.048595
19  0.000000 1.457814 -0.000001  -0.051901 0.018546 -0.626230
20  -1.259682 3.818372 1.286946  0.115075 0.054750 -1.366492
21  -1.226391 3.891692 0.090419  0.221244 0.005544 -1.361061
22  -1.231624 3.875533 -0.958680  0.326191 -0.061560 -1.352632
23  -1.209920 3.994781 -2.003048  0.570288 -0.108989 -1.360402
24  0.328905 0.095428 1.403533  -0.761000 2.412031 -1.377325
25  -2.095534 -6.603848 15.703696  1.602310 -0.175773 -2.499317
26  13.824293 -20.103218 10.765717  -1.570796 -0.000000 -1.570796
27  -1.843768 -8.254290 -10.979080  -0.051945 -0.000000 -1.570796
28  0.433020 -11.755867 -21.000002  -0.083842 -0.009362 3.131152
29  0.000000 13.479277 -0.000002  0.167696 0.000000 0.000000
30  0.000000 13.477240 0.000001  -0.083756 0.010203 0.009620
31  0.267270 3.664728 -1.953293  -0.106568 0.025893 0.137951
32  -0.000000 1.180357 -0.000001  -0.036623 0.007435 0.177465
33  -0.000002 0.817138 0.000001  0.004200 0.011559 -0.007420
34  0.249423 3.688543 -0.940890  -0.060580 0.013550 0.130737
35  0.000001 1.800635 -0.000001  0.004940 -0.002077 0.208495
36  -0.000001 1.243411 0.000002  0.006524 0.000040 0.064626
37  0.244726 3.701097 0.087732  0.005036 -0.002373 0.139323
38  -0.000000 1.766588 -0.000002  0.002490 0.003552 0.259702
39  -0.000000 1.189003 0.000001  -0.017590 0.001952 0.152464
40  0.277239 3.632249 1.274101  0.054558 -0.010184 0.144732
41  -0.000001 1.798490 -0.000003  0.036314 -0.010668 0.285912
42  -0.000001 1.235457 0.000001  -0.005152 -0.006816 0.068190
43  -0.315441 0.857301 0.755942  1.684115 -0.560091 -1.563926
44  -0.000000 2.265939 0.000000  -0.057905 0.032805 0.238898
45  0.000001 1.457813 0.000000  -0.029609 -0.046490 -0.034285
46  1.259681 3.818376 1.286945  0.054558 -0.010184 0.144732
47  1.226391 3.891695 0.090419  0.005036 -0.002373 0.139324
48  1.231623 3.875536 -0.958680  -0.060580 0.013550 0.130737
49  1.209919 3.994783 -2.003048  -0.106568 0.025893 0.137951
50  -0.328906 0.095430 1.403531  1.684115 -0.560091 -1.563926
51  0.152561 -38.616215 -21.000004  -0.000000 0.000000 3.141593
52  0.152561 -25.166061 -36.000004  -1.570796 -0.000000 1.570796
53  0.433020 -11.755867 -21.000002  -0.051945 0.000000 1.570796
54  -6.710206 -9.734799 -10.496719  1.589353 -0.057850 -1.562592
55  10.000000 -0.000000 -0.000000  0.000000 -0.000000 -0.000000
56  29.620380 2.666867 0.000002  0.000000 -0.000000 -0.000000
57  3.664051 2.228525 -2.524775  1.570796 0.732815 -1.570796
58  3.490278 2.388510 1.331887  0.000000 1.570796 0.000000
time 4
0  0 0 0  0 0 0
1  0.000000 0.000000 0.000000  1.570796 -0.000000 0.000000
2  -1.843768 -8.254290 -10.627092  1.505859 -0.041999 -2.264065
3  0.000001 13.479277 -0.000000  0.228319 0.000000 -0.000000
4  0.000000 13.477238 0.000000  -0.177171 -0.190084 0.170109
5  -0.267269 3.664727 -1.953293  0.570288 -0.108989 -1.360402
6  -0.000003 1.180355 0.000000  -0.005540 -0.036957 -1.399219
7  -0.000001 0.817135 0.000001  0.012298 -0.000007 -1.214276
8  -0.249423 3.688541 -0.940888  0.326191 -0.061559 -1.352632
9  0.000000 1.800633 0.000000  -0.000262 0.005352 -1.430231
10  -0.000000 1.243407 -0.000000  0.002269 0.006116 -1.286349
11  -0.244726 3.701097 0.087733  0.221244 0.005544 -1.361062
12  -0.000001 1.766584 0.000000  0.004189 0.001125 -1.481426
13  0.000002 1.189006 0.000000  -0.004182 -0.017197 -1.374176
14  -0.277239 3.632250 1.274102  0.115075 0.054750 -1.366492
15  -0.000000 1.798494 -0.000000  0.002394 0.037772 -1.507786
16  0.000001 1.235450 0.000001  -0.008167 -0.002510 -1.289887
17  0.315442 0.857303 0.755944  -0.761000 2.412031 -1.377326
18  0.000002 2.265940 -0.000000  -0.016207 -0.064542 -1.048595
19  -0.000001 1.457813 -0.000000  -0.051901 0.018546 -0.626230
20  -1.259681 3.818377 1.286946  0.115075 0.054750 -1.366492
21  -1.226390 3.891694 0.090419  0.221244 0.005544 -1.361061
22  -1.231623 3.875534 -0.958680  0.326191 -0.061560 -1.352632
23  -1.209919 3.994784 -2.003047  0.570288 -0.108989 -1.360402
24  0.328907 0.095429 1.403532  -0.761000 2.412031 -1.377326
25  -2.139382 -6.548526 16.097946  1.597036 -0.174700 -2.482563
26  13.824293 -20.103218 10.765717  -1.570796 -0.000000 -1.570796
27  -1.843768 -8.254290 -10.627092  -0.051945 -0.000000 -1.570796
28  0.433020 -11.755867 -21.000002  -0.083842 -0.009362 3.131152
29  0.000000 13.479277 -0.000002  0.167696 0.000000 0.000000
30  0.000000 13.477240 0.000001  -0.083756 0.010203 0.009620
31  0.267270 3.664728 -1.953293  -0.106568 0.025893 0.137951
32  -0.000000 1.180357 -0.000001  -0.036623 0.007435 0.177465
33  -0.000002 0.817138 0.000001  0.004200 0.011559 -0.007420
34  0.249423 3.688543 -0.940890  -0.060580 0.013550 0.130737
35  0.000001 1.800635 -0.000001  0.004940 -0.002077 0.208495
36  -0.000001 1.243411 0.000002  0.006524 0.000040 0.064626
37  0.244726 3.701097 0.087732  0.005036 -0.002373 0.139323
38  -0.000000 1.766588 -0.000002  0.002490 0.003552 0.259702
39  -0.000000 1.189003 0.000001  -0.017590 0.001952 0.152464
40  0.277239 3.632249 1.274101  0.054558 -0.010184 0.144732
41  -0.000001 1.798490 -0.000003  0.036314 -0.010668 0.285912
42  -0.000001 1.235457 0.000001  -0.005152 -0.006816 0.068190
43  -0.315441 0.857301 0.755942  1.684115 -0.560091 -1.563926
44  -0.000000 2.265939 0.000000  -0.057905 0.032805 0.238898
45  0.000001 1.457813 0.000000  -0.029609 -0.046490 -0.034285
46  1.259681 3.818376 1.286945  0.054558 -0.010184 0.144732
47  1.226391 3.891695 0.090419  0.005036 -0.002373 0.139324
48  1.231623 3.875536 -0.958680  -0.060580 0.013550 0.130737
49  1.209919 3.994783 -2.003048  -0.106568 0.025893 0.137951
50  -0.328906 0.095430 1.403531  1.684115 -0.560091 -1.563926
51  0.152561 -38.616215 -21.000004  -0.000000 0.000000 3.141593
52  0.152561 -25.166061 -36.000004  -1.570796 -0.000000 1.570796
53  0.433020 -11.755867 -21.000002  -0.051945 0.000000 1.570796
54  -6.705746 -10.120841 -10.485520  1.605254 -0.053209 -1.561184
55  9.999999 0.000001 0.000001  0.000000 -0.000000 -0.000000
56  29.620378 2.666868 0.000002  0.000000 -0.000000 -0.000000
57  3.664051 2.228527 -2.524776  1.453858 0.725142 -1.746098
58  3.490276 2.388511 1.331887  0.000000 1.570796 0.000000
time 5
0  0 0 0  0 0 0
1  0.000000 0.000000 0.000000  1.570796 -0.000000 0.000000
2  -1.843768 -8.254290 -10.409547  1.504094 -0.041361 -2.262909
3  0.000001 13.479277 0.000000  0.228533 0.000000 -0.000000
4  -0.000000 13.477241 0.000000  -0.180973 -0.193618 0.169019
5  -0.267270 3.664723 -1.953292  0.570287 -0.108989 -1.360402
6  -0.000000 1.180355 -0.000000  -0.005540 -0.036957 -1.399219
7  -0.000001 0.817135 0.000000  0.012298 -0.000007 -1.214275
8  -0.249423 3.688542 -0.940888  0.326191 -0.061559 -1.352632
9  -0.000001 1.800633 -0.000000  -0.000262 0.005352 -1.430232
10  0.000001 1.243408 0.000001  0.002269 0.006116 -1.286350
11  -0.244727 3.701094 0.087733  0.221244 0.005544 -1.361062
12  0.000000 1.766586 0.000000  0.004189 0.001125 -1.481426
13  0.000000 1.189002 0.000000  -0.004182 -0.017197 -1.374176
14  -0.277239 3.632247 1.274103  0.115075 0.054750 -1.366492
15  -0.000001 1.798495 -0.000001  0.002394 0.037772 -1.507785
16  0.000000 1.235451 0.000000  -0.008167 -0.002510 -1.289887
17  0.315441 0.857298 0.755944  -0.761000 2.412031 -1.377325
18  0.000000 2.265941 -0.000000  -0.016207 -0.064542 -1.048595
19  -0.000000 1.457811 0.000000  -0.051901 0.018546 -0.626230
20  -1.259681 3.818373 1.286946  0.115075 0.054750 -1.366492
21  -1.226391 3.891691 0.090420  0.221244 0.005544 -1.361061
22  -1.231623 3.875534 -0.958680  0.326191 -0.061560 -1.352632
23  -1.209920 3.994778 -2.003047  0.570288 -0.108989 -1.360402
24  0.328906 0.095426 1.403533  -0.761000 2.412031 -1.377325
25  -2.118036 -6.590267 16.318024  1.591918 -0.172655 -2.484478
26  13.824293 -20.103218 10.765717  -1.570796 -0.000000 -1.570796
27  -1.843768 -8.254290 -10.409547  -0.051945 -0.000000 -1.570796
28  0.433020 -11.755867 -21.000002  -0.083842 -0.009362 3.131152
29  0.000000 13.479277 -0.000002  0.167696 0.000000 0.000000
30  0.000000 13.477240 0.000001  -0.083756 0.010203 0.009620
31  0.267270 3.664728 -1.953293  -0.106568 0.025893 0.137951
32  -0.000000 1.180357 -0.000001  -0.036623 0.007435 0.177465
33  -0.000002 0.817138 0.000001  0.004200 0.011559 -0.007420
34  0.249423 3.688543 -0.940890  -0.060580 0.013550 0.130737
35  0.000001 1.800635 -0.000001  0.004940 -0.002077 0.208495
36  -0.000001 1.243411 0.000002  0.006524 0.000040 0.064626
37  0.244726 3.701097 0.087732  0.005036 -0.002373 0.139323
38  -0.000000 1.766588 -0.000002  0.002490 0.003552 0.259702
39  -0.000000 1.189003 0.000001  -0.017590 0.001952 0.152464
40  0.277239 3.632249 1.274101  0.054558 -0.010184 0.144732
41  -0.000001 1.798490 -0.000003  0.036314 -0.010668 0.285912
42  -0.000001 1.235457 0.000001  -0.005152 -0.006816 0.068190
43  -0.315441 0.857301 0.755942  1.684115 -0.560091 -1.563926
44  -0.000000 2.265939 0.000000  -0.057905 0.032805 0.238898
45  0.000001 1.457813 0.000000  -0.029609 -0.046490 -0.034285
46  1.259681 3.818376 1.286945  0.054558 -0.010184 0.144732
47  1.226391 3.891695 0.090419  0.005036 -0.002373 0.139324
48  1.231623 3.875536 -0.958680  -0.060580 0.013550 0.130737
49  1.209919 3.994783 -2.003048  -0.106568 0.025893 0.137951
50  -0.328906 0.095430 1.403531  1.684115 -0.560091 -1.563926
51  0.152561 -38.616215 -21.000004  -0.000000 0.000000 3.141593
52  0.152561 -25.166061 -36.000004  -1.570796 -0.000000 1.570796
53  0.433020 -11.755867 -21.000002  -0.051945 0.000000 1.570796
54  -6.704125 -10.327117 -10.483106  1.602506 -0.047942 -1.559579
55  10.000000 0.000001 -0.000000  0.000000 -0.000000 -0.000000
56  29.620378 2.666868 0.000002  0.000000 -0.000000 -0.000000
57  3.664050 2.228528 -2.524775  1.341940 0.702556 -1.916784
58  3.490276 2.388511 1.331886  0.000000 1.570796 0.000000
time 6
0  0 0 0  0 0 0
1  0.000000 0.000000 0.000000  1.570796 -0.000000 0.000000
2  -1.843767 -8.254290 -10.213081  1.500179 -0.040474 -2.261546
3  0.000002 13.479276 -0.000000  0.231035 0.000000 -0.000000
4  0.000000 13.477241 -0.000000  -0.185987 -0.201604 0.168922
5  -0.267269 3.664726 -1.953292  0.570287 -0.108989 -1.360402
6  0.000000 1.180355 -0.000001  -0.005540 -0.036957 -1.399219
7  0.000000 0.817135 0.000000  0.012298 -0.000007 -1.214275
8  -0.249422 3.688542 -0.940888  0.326191 -0.061559 -1.352632
9  0.000002 1.800633 0.000000  -0.000262 0.005352 -1.430231
10  0.000001 1.243404 -0.000001  0.002269 0.006116 -1.286349
11  -0.244726 3.701094 0.087734  0.221244 0.005544 -1.361062
12  0.000001 1.766584 0.000001  0.004189 0.001125 -1.481426
13  -0.000000 1.189004 0.000001  -0.004182 -0.017197 -1.374176
14  -0.277239 3.632248 1.274103  0.115075 0.054750 -1.366492
15  -0.000001 1.798494 0.000000  0.002394 0.037772 -1.507786
16  0.000001 1.235451 0.000000  -0.008167 -0.002510 -1.289887
17  0.315442 0.857301 0.755944  -0.761000 2.412031 -1.377325
18  0.000000 2.265940 -0.000000  -0.016207 -0.064542 -1.048595
19  -0.000001 1.457810 0.000001  -0.051901 0.018546 -0.626230
20  -1.259680 3.818375 1.286946  0.115075 0.054750 -1.366492
21  -1.226390 3.891691 0.090420  0.221244 0.005544 -1.361061
22  -1.231623 3.875534 -0.958679  0.326191 -0.061560 -1.352632
23  -1.209918 3.994783 -2.003047  0.570288 -0.108989 -1.360402
24  0.328907 0.095428 1.403533  -0.761000 2.412031 -1.377325
25  -2.080345 -6.654436 16.514893  1.586639 -0.170412 -2.490821
26  13.824293 -20.103218 10.765717  -1.570796 -0.000000 -1.570796
27  -1.843767 -8.254290 -10.213081  -0.051945 -0.000000 -1.570796
28  0.433020 -11.755867 -21.000002  -0.083842 -0.009362 3.131152
29  0.000000 13.479277 -0.000002  0.167696 0.000000 0.000000
30  0.000000 13.477240 0.000001  -0.083756 0.010203 0.009620
31  0.267270 3.664728 -1.953293  -0.106568 0.025893 0.137951
32  -0.000000 1.180357 -0.000001  -0.036623 0.007435 0.177465
33  -0.000002 0.817138 0.000001  0.004200 0.011559 -0.007420
34  0.249423 3.688543 -0.940890  -0.060580 0.013550 0.130737
35  0.000001 1.800635 -0.000001  0.004940 -0.002077 0.208495
36  -0.000001 1.243411 0.000002  0.006524 0.000040 0.064626
37  0.244726 3.701097 0.087732  0.005036 -0.002373 0.139323
38  -0.000000 1.766588 -0.000002  0.002490 0.003552 0.259702
39  -0.000000 1.189003 0.000001  -0.017590 0.001952 0.152464
40  0.277239 3.632249 1.274101  0.054558 -0.010184 0.144732
41  -0.000001 1.798490 -0.000003  0.036314 -0.010668 0.285912
42  -0.000001 1.235457 0.000001  -0.005152 -0.006816 0.068190
43  -0.315441 0.857301 0.755942  1.684115 -0.560091 -1.563926
44  -0.000000 2.265939 0.000000  -0.057905 0.032805 0.238898
45  0.000001 1.457813 0.000000  -0.029609 -0.046490 -0.034285
46  1.259681 3.818376 1.286945  0.054558 -0.010184 0.144732
47  1.226391 3.891695 0.090419  0.005036 -0.002373 0.139324
48  1.231623 3.875536 -0.958680  -0.060580 0.013550 0.130737
49  1.209919 3.994783 -2.003048  -0.106568 0.025893 0.137951
50  -0.328906 0.095430 1.403531  1.684115 -0.560091 -1.563926
51  0.152561 -38.616215 -21.000004  -0.000000 0.000000 3.141593
52  0.152561 -25.166061 -36.000004  -1.570796 -0.000000 1.570796
53  0.433020 -11.755867 -21.000002  -0.051945 0.000000 1.570796
54  -6.702695 -10.509155 -10.480974  1.595322 -0.042362 -1.557871
55  9.999996 0.000000 -0.000000  0.000000 -0.000000 -0.000000
56  29.620378 2.666868 0.000002  0.000000 -0.000000 -0.000000
57  3.664051 2.228527 -2.524775  1.453858 0.725142 -1.746098
58  3.490278 2.388510 1.331887  0.000000 1.570796 0.000000
time 7
0  0 0 0  0 0 0
1  0.000000 0.000000 0.000000  1.570796 -0.000000 0.000000
2  -1.843678 -8.254290 -10.040269  1.495618 -0.039417 -2.260070
3  0.000001 13.479277 -0.000000  0.233576 0.000000 -0.000000
4  0.000000 13.477241 -0.000000  -0.190946 -0.212654 0.169497
5  -0.267270 3.664726 -1.953292  0.570288 -0.108989 -1.360402
6  0.000003 1.180356 0.000000  -0.005540 -0.036957 -1.399219
7  -0.000000 0.817136 0.000000  0.012298 -0.000007 -1.214275
8  -0.249423 3.688543 -0.940889  0.326191 -0.061560 -1.352632
9  0.000002 1.800633 -0.000000  -0.000262 0.005352 -1.430231
10  -0.000000 1.243405 0.000001  0.002269 0.006116 -1.286349
11  -0.244727 3.701095 0.087733  0.221244 0.005544 -1.361061
12  0.000003 1.766585 -0.000000  0.004189 0.001125 -1.481426
13  -0.000000 1.189004 -0.000000  -0.004182 -0.017197 -1.374176
14  -0.277240 3.632248 1.274103  0.115075 0.054750 -1.366492
15  -0.000001 1.798494 0.000000  0.002394 0.037772 -1.507786
16  0.000000 1.235453 0.000001  -0.008167 -0.002510 -1.289887
17  0.315441 0.857300 0.755944  -0.761000 2.412031 -1.377326
18  0.000003 2.265939 0.000000  -0.016207 -0.064542 -1.048595
19  -0.000000 1.457812 -0.000000  -0.051901 0.018546 -0.626230
20  -1.259681 3.818373 1.286946  0.115075 0.054750 -1.366492
21  -1.226391 3.891693 0.090420  0.221244 0.005544 -1.361061
22  -1.231623 3.875534 -0.958680  0.326191 -0.061560 -1.352632
23  -1.209919 3.994781 -2.003048  0.570288 -0.108989 -1.360402
24  0.328907 0.095430 1.403533  -0.761000 2.412031 -1.377325
25  -2.032528 -6.732680 16.688677  1.581427 -0.168190 -2.500145
26  13.824293 -20.103218 10.765717  -1.570796 -0.000000 -1.570796
27  -1.843678 -8.254290 -10.040269  -0.051945 -0.000000 -1.570796
28  0.433020 -11.755867 -21.000002  -0.083842 -0.009362 3.131152
29  0.000000 13.479277 -0.000002  0.167696 0.000000 0.000000
30  0.000000 13.477240 0.000001  -0.083756 0.010203 0.009620
31  0.267270 3.664728 -1.953293  -0.106568 0.025893 0.137951
32  -0.000000 1.180357 -0.000001  -0.036623 0.007435 0.177465
33  -0.000002 0.817138 0.000001  0.004200 0.011559 -0.007420
34  0.249423 3.688543 -0.940890  -0.060580 0.013550 0.130737
35  0.000001 1.800635 -0.000001  0.004940 -0.002077 0.208495
36  -0.000001 1.243411 0.000002  0.006524 0.000040 0.064626
37  0.244726 3.701097 0.087732  0.005036 -0.002373 0.139323
38  -0.000000 1.766588 -0.000002  0.002490 0.003552 0.259702
39  -0.000000 1.189003 0.000001  -0.017590 0.001952 0.152464
40  0.277239 3.632249 1.274101  0.054558 -0.010184 0.144732
41  -0.000001 1.798490 -0.000003  0.036314 -0.010668 0.285912
42  -0.000001 1.235457 0.000001  -0.005152 -0.006816 0.068190
43  -0.315441 0.857301 0.755942  1.684115 -0.560091 -1.563926
44  -0.000000 2.265939 0.000000  -0.057905 0.032805 0.238898
45  0.000001 1.457813 0.000000  -0.029609 -0.046490 -0.034285
46  1.259681 3.818376 1.286945  0.054558 -0.010184 0.144732
47  1.226391 3.891695 0.090419  0.005036 -0.002373 0.139324
48  1.231623 3.875536 -0.958680  -0.060580 0.013550 0.130737
49  1.209919 3.994783 -2.003048  -0.106568 0.025893 0.137951
50  -0.328906 0.095430 1.403531  1.684115 -0.560091 -1.563926
51  0.152561 -38.616215 -21.000004  -0.000000 0.000000 3.141593
52  0.152561 -25.166061 -36.000004  -1.570796 -0.000000 1.570796
53  0.433020 -11.755867 -21.000002  -0.051945 0.000000 1.570796
54  -6.701443 -10.668470 -10.479110  1.585187 -0.036782 -1.556151
55  10.000000 -0.000000 -0.000000  0.000000 -0.000000 -0.000000
56  29.620380 2.666867 0.000001  0.000000 -0.000000 -0.000000
57  3.664051 2.228526 -2.524775  1.570796 0.732815 -1.570796
58  3.490276 2.388511 1.331887  0.000000 1.570796 0.000000
time 8
0  0 0 0  0 0 0
1  0.000000 0.000000 0.000000  1.570796 -0.000000 0.000000
2  -1.843617 -8.254290 -9.895489  1.492508 -0.038278 -2.258579
3  0.000002 13.479276 0.000000  0.232705 0.000000 -0.000000
4  -0.000000 13.477240 0.000001  -0.193950 -0.225489 0.170200
5  -0.267269 3.664727 -1.953292  0.570288 -0.108989 -1.360402
6  0.000001 1.180355 0.000000  -0.005540 -0.036957 -1.399219
7  0.000000 0.817135 -0.000000  0.012298 -0.000007 -1.214275
8  -0.249422 3.688543 -0.940888  0.326191 -0.061559 -1.352632
9  -0.000001 1.800633 -0.000000  -0.000262 0.005352 -1.430232
10  0.000000 1.243405 -0.000000  0.002269 0.006116 -1.286349
11  -0.244727 3.701097 0.087734  0.221244 0.005544 -1.361061
12  -0.000001 1.766583 -0.000000  0.004189 0.001125 -1.481426
13  0.000000 1.189004 -0.000001  -0.004182 -0.017197 -1.374176
14  -0.277239 3.632251 1.274103  0.115075 0.054750 -1.366492
15  0.000001 1.798494 0.000000  0.002394 0.037772 -1.507786
16  0.000000 1.235450 0.000000  -0.008167 -0.002510 -1.289887
17  0.315441 0.857302 0.755945  -0.761000 2.412031 -1.377326
18  0.000000 2.265939 0.000000  -0.016207 -0.064542 -1.048595
19  0.000001 1.457811 -0.000001  -0.051901 0.018546 -0.626230
20  -1.259681 3.818376 1.286946  0.115075 0.054750 -1.366492
21  -1.226390 3.891694 0.090419  0.221244 0.005544 -1.361061
22  -1.231623 3.875536 -0.958680  0.326191 -0.061560 -1.352632
23  -1.209918 3.994784 -2.003047  0.570288 -0.108989 -1.360402
24  0.328906 0.095431 1.403533  -0.761000 2.412031 -1.377326
25  -1.980701 -6.816530 16.839783  1.576527 -0.166169 -2.511006
26  13.824293 -20.103218 10.765717  -1.570796 -0.000000 -1.570796
27  -1.843617 -8.254290 -9.895489  -0.051945 -0.000000 -1.570796
28  0.433020 -11.755867 -21.000002  -0.083842 -0.009362 3.131152
29  0.000000 13.479277 -0.000002  0.167696 0.000000 0.000000
30  0.000000 13.477240 0.000001  -0.083756 0.010203 0.009620
31  0.267270 3.664728 -1.953293  -0.106568 0.025893 0.137951
32  -0.000000 1.180357 -0.000001  -0.036623 0.007435 0.177465
33  -0.000002 0.817138 0.000001  0.004200 0.011559 -0.007420
34  0.249423 3.688543 -0.940890  -0.060580 0.013550 0.130737
35  0.000001 1.800635 -0.000001  0.004940 -0.002077 0.208495
36  -0.000001 1.243411 0.000002  0.006524 0.000040 0.064626
37  0.244726 3.701097 0.087732  0.005036 -0.002373 0.139323
38  -0.000000 1.766588 -0.000002  0.002490 0.003552 0.259702
39  -0.000000 1.189003 0.000001  -0.017590 0.001952 0.152464
40  0.277239 3.632249 1.274101  0.054558 -0.010184 0.144732
41  -0.000001 1.798490 -0.000003  0.036314 -0.010668 0.285912
42  -0.000001 1.235457 0.000001  -0.005152 -0.006816 0.068190
43  -0.315441 0.857301 0.755942  1.684115 -0.560091 -1.563926
44  -0.000000 2.265939 0.000000  -0.057905 0.032805 0.238898
45  0.000001 1.457813 0.000000  -0.029609 -0.046490 -0.034285
46  1.259681 3.818376 1.286945  0.054558 -0.010184 0.144732
47  1.226391 3.891695 0.090419  0.005036 -0.002373 0.139324
48  1.231623 3.875536 -0.958680  -0.060580 0.013550 0.130737
49  1.209919 3.994783 -2.003048  -0.106568 0.025893 0.137951
50  -0.328906 0.095430 1.403531  1.684115 -0.560091 -1.563926
51  0.152561 -38.616215 -21.000004  -0.000000 0.000000 3.141593
52  0.152561 -25.166061 -36.000004  -1.570796 -0.000000 1.570796
53  0.433020 -11.755867 -21.000002  -0.051945 0.000000 1.570796
54  -6.700358 -10.806577 -10.477493  1.573585 -0.031515 -1.554511
55  9.999999 0.000001 -0.000001  0.000000 -0.000000 -0.000000
56  29.620378 2.666867 0.000001  0.000000 -0.000000 -0.000000
57  3.664050 2.228526 -2.524776  1.570796 0.732815 -1.570796
58  3.490276 2.388511 1.331885  0.000000 1.570796 0.000000
time 9
0  0 0 0  0 0 0
1  0.000000 0.000000 0.000000  1.570796 -0.000000 0.000000
2  -1.843766 -8.254290 -9.773503  1.489958 -0.037174 -2.257179
3  0.000000 13.479278 -0.000000  0.230964 0.000000 -0.000000
4  0.000001 13.477241 0.000000  -0.196111 -0.238329 0.171060
5  -0.267270 3.664727 -1.953293  0.570288 -0.108989 -1.360402
6  0.000002 1.180354 0.000000  -0.005540 -0.036957 -1.399218
7  -0.000001 0.817137 -0.000001  0.012298 -0.000007 -1.214275
8  -0.249424 3.688541 -0.940888  0.326191 -0.061560 -1.352632
9  0.000002 1.800633 0.000000  -0.000262 0.005352 -1.430231
10  -0.000000 1.243403 0.000000  0.002269 0.006116 -1.286349
11  -0.244727 3.701097 0.087733  0.221244 0.005544 -1.361062
12  -0.000001 1.766585 -0.000000  0.004189 0.001125 -1.481426
13  0.000001 1.189002 -0.000001  -0.004182 -0.017197 -1.374176
14  -0.277240 3.632249 1.274102  0.115075 0.054750 -1.366492
15  0.000000 1.798494 -0.000000  0.002394 0.037772 -1.507786
16  -0.000001 1.235454 -0.000000  -0.008167 -0.002510 -1.289887
17  0.315440 0.857300 0.755944  -0.761000 2.412031 -1.377326
18  -0.000000 2.265939 -0.000000  -0.016207 -0.064542 -1.048595
19  0.000000 1.457813 0.000000  -0.051901 0.018546 -0.626230
20  -1.259682 3.818375 1.286946  0.115075 0.054750 -1.366492
21  -1.226392 3.891693 0.090420  0.221244 0.005544 -1.361061
22  -1.231624 3.875533 -0.958679  0.326191 -0.061560 -1.352632
23  -1.209920 3.994783 -2.003047  0.570288 -0.108989 -1.360402
24  0.328905 0.095429 1.403533  -0.761000 2.412031 -1.377325
25  -1.930723 -6.897311 16.968916  1.572204 -0.164486 -2.521958
26  13.824293 -20.103218 10.765717  -1.570796 -0.000000 -1.570796
27  -1.843766 -8.254290 -9.773503  -0.051945 -0.000000 -1.570796
28  0.433020 -11.755867 -21.000002  -0.083842 -0.009362 3.131152
29  0.000000 13.479277 -0.000002  0.167696 0.000000 0.000000
30  0.000000 13.477240 0.000001  -0.083756 0.010203 0.009620
31  0.267270 3.664728 -1.953293  -0.106568 0.025893 0.137951
32  -0.000000 1.180357 -0.000001  -0.036623 0.007435 0.177465
33  -0.000002 0.817138 0.000001  0.004200 0.011559 -0.007420
34  0.249423 3.688543 -0.940890  -0.060580 0.013550 0.130737
35  0.000001 1.800635 -0.000001  0.004940 -0.002077 0.208495
36  -0.000001 1.243411 0.000002  0.006524 0.000040 0.064626
37  0.244726 3.701097 0.087732  0.005036 -0.002373 0.139323
38  -0.000000 1.766588 -0.000002  0.002490 0.003552 0.259702
39  -0.000000 1.189003 0.000001  -0.017590 0.001952 0.152464
40  0.277239 3.632249 1.274101  0.054558 -0.010184 0.144732
41  -0.000001 1.798490 -0.000003  0.036314 -0.010668 0.285912
42  -0.000001 1.235457 0.000001  -0.005152 -0.006816 0.068190
43  -0.315441 0.857301 0.755942  1.684115 -0.560091 -1.563926
44  -0.000000 2.265939 0.000000  -0.057905 0.032805 0.238898
45  0.000001 1.457813 0.000000  -0.029609 -0.046490 -0.034285
46  1.259681 3.818376 1.286945  0.054558 -0.010184 0.144732
47  1.226391 3.891695 0.090419  0.005036 -0.002373 0.139324
48  1.231623 3.875536 -0.958680  -0.060580 0.013550 0.130737
49  1.209919 3.994783 -2.003048  -0.106568 0.025893 0.137951
50  -0.328906 0.095430 1.403531  1.684115 -0.560091 -1.563926
51  0.152561 -38.616215 -21.000004  -0.000000 0.000000 3.141593
52  0.152561 -25.166061 -36.000004  -1.570796 -0.000000 1.570796
53  0.433020 -11.755867 -21.000002  -0.051945 0.000000 1.570796
54  -6.699428 -10.924990 -10.476107  1.561993 -0.026874 -1.553042
55  9.999996 -0.000001 -0.000000  0.000000 -0.000000 -0.000000
56  29.620378 2.666867 0.000002  0.000000 -0.000000 -0.000000
57  3.664050 2.228525 -2.524775  1.570796 0.732815 -1.570796
58  3.490277 2.388510 1.331886  0.000000 1.570796 0.000000
time 10
0  0 0 0  0 0 0
1  0.000000 0.000000 0.000000  1.570796 -0.000000 0.000000
2  -1.844209 -8.254290 -9.670030  1.487413 -0.036236 -2.255992
3  0.000001 13.479276 -0.000001  0.230220 0.000000 -0.000000
4  -0.000000 13.477242 -0.000000  -0.198188 -0.249438 0.172057
5  -0.267270 3.664725 -1.953292  0.570288 -0.108989 -1.360402
6  -0.000000 1.180355 0.000001  -0.005540 -0.036957 -1.399218
7  -0.000000 0.817138 -0.000001  0.012298 -0.000007 -1.214275
8  -0.249422 3.688539 -0.940889  0.326191 -0.061560 -1.352632
9  0.000001 1.800633 0.000001  -0.000262 0.005352 -1.430231
10  -0.000001 1.243405 -0.000002  0.002269 0.006116 -1.286349
11  -0.244726 3.701096 0.087733  0.221244 0.005544 -1.361062
12  -0.000001 1.766584 -0.000001  0.004189 0.001125 -1.481426
13  -0.000001 1.189005 0.000000  -0.004182 -0.017197 -1.374176
14  -0.277239 3.632247 1.274102  0.115075 0.054750 -1.366492
15  -0.000001 1.798494 -0.000001  0.002394 0.037772 -1.507786
16  0.000000 1.235452 0.000000  -0.008167 -0.002510 -1.289887
17  0.315442 0.857300 0.755943  -0.761000 2.412031 -1.377326
18  -0.000001 2.265937 -0.000000  -0.016207 -0.064542 -1.048595
19  0.000001 1.457811 0.000000  -0.051901 0.018546 -0.626230
20  -1.259681 3.818374 1.286945  0.115075 0.054750 -1.366492
21  -1.226391 3.891690 0.090419  0.221244 0.005544 -1.361061
22  -1.231623 3.875532 -0.958681  0.326191 -0.061560 -1.352632
23  -1.209919 3.994779 -2.003048  0.570288 -0.108989 -1.360402
24  0.328906 0.095427 1.403533  -0.761000 2.412031 -1.377326
25  -1.888138 -6.966108 17.077051  1.568736 -0.163236 -2.531561
26  13.824293 -20.103218 10.765717  -1.570796 -0.000000 -1.570796
27  -1.844209 -8.254290 -9.670030  -0.051945 -0.000000 -1.570796
28  0.433020 -11.755867 -21.000002  -0.083842 -0.009362 3.131152
29  0.000000 13.479277 -0.000002  0.167696 0.000000 0.000000
30  0.000000 13.477240 0.000001  -0.083756 0.010203 0.009620
31  0.267270 3.664728 -1.953293  -0.106568 0.025893 0.137951
32  -0.000000 1.180357 -0.000001  -0.036623 0.007435 0.177465
33  -0.000002 0.817138 0.000001  0.004200 0.011559 -0.007420
34  0.249423 3.688543 -0.940890  -0.060580 0.013550 0.130737
35  0.000001 1.800635 -0.000001  0.004940 -0.002077 0.208495
36  -0.000001 1.243411 0.000002  0.006524 0.000040 0.064626
37  0.244726 3.701097 0.087732  0.005036 -0.002373 0.139323
38  -0.000000 1.766588 -0.000002  0.002490 0.003552 0.259702
39  -0.000000 1.189003 0.000001  -0.017590 0.001952 0.152464
40  0.277239 3.632249 1.274101  0.054558 -0.010184 0.144732
41  -0.000001 1.798490 -0.000003  0.036314 -0.010668 0.285912
42  -0.000001 1.235457 0.000001  -0.005152 -0.006816 0.068190
43  -0.315441 0.857301 0.755942  1.684115 -0.560091 -1.563926
44  -0.000000 2.265939 0.000000  -0.057905 0.032805 0.238898
45  0.000001 1.457813 0.000000  -0.029609 -0.046490 -0.034285
46  1.259681 3.818376 1.286945  0.054558 -0.010184 0.144732
47  1.226391 3.891695 0.090419  0.005036 -0.002373 0.139324
48  1.231623 3.875536 -0.958680  -0.060580 0.013550 0.130737
49  1.209919 3.994783 -2.003048  -0.106568 0.025893 0.137951
50  -0.328906 0.095430 1.403531  1.684115 -0.560091 -1.563926
51  0.152561 -38.616215 -21.000004  -0.000000 0.000000 3.141593
52  0.152561 -25.166061 -36.000004  -1.570796 -0.000000 1.570796
53  0.433020 -11.755867 -21.000002  -0.051945 0.000000 1.570796
54  -6.698640 -11.025225 -10.474934  1.551888 -0.023171 -1.551837
55  9.999999 -0.000000 -0.000001  0.000000 -0.000000 -0.000000
56  29.620380 2.666867 0.000001  0.000000 -0.000000 -0.000000
57  3.664051 2.228527 -2.524776  1.570796 0.732815 -1.570796
58  3.490278 2.388511 1.331885  0.000000 1.570796 0.000000
time 11
0  0 0 0  0 0 0
1  0.000000 0.000000 0.000000  1.570796 -0.000000 0.000000
2  -1.844629 -8.254290 -9.584623  1.485566 -0.035594 -2.255154
3  0.000002 13.479275 -0.000000  0.229843 0.000000 -0.000000
4  -0.000000 13.477238 0.000000  -0.199663 -0.257279 0.172879
5  -0.267270 3.664727 -1.953292  0.570287 -0.108989 -1.360402
6  -0.000000 1.180354 -0.000001  -0.005540 -0.036957 -1.399219
7  -0.000001 0.817136 0.000001  0.012298 -0.000007 -1.214275
8  -0.249423 3.688543 -0.940889  0.326191 -0.061559 -1.352632
9  -0.000002 1.800632 -0.000001  -0.000262 0.005352 -1.430231
10  -0.000000 1.243406 -0.000001  0.002269 0.006116 -1.286349
11  -0.244727 3.701096 0.087733  0.221244 0.005544 -1.361061
12  0.000001 1.766586 -0.000000  0.004189 0.001125 -1.481426
13  0.000000 1.189005 -0.000000  -0.004182 -0.017197 -1.374175
14  -0.277240 3.632249 1.274103  0.115075 0.054750 -1.366492
15  -0.000000 1.798494 -0.000001  0.002394 0.037772 -1.507786
16  0.000001 1.235453 0.000000  -0.008167 -0.002510 -1.289887
17  0.315441 0.857301 0.755944  -0.761000 2.412031 -1.377325
18  -0.000001 2.265939 0.000000  -0.016207 -0.064542 -1.048595
19  0.000000 1.457810 0.000000  -0.051901 0.018546 -0.626230
20  -1.259681 3.818376 1.286946  0.115075 0.054750 -1.366492
21  -1.226391 3.891693 0.090419  0.221244 0.005544 -1.361061
22  -1.231624 3.875535 -0.958680  0.326191 -0.061560 -1.352632
23  -1.209920 3.994782 -2.003048  0.570288 -0.108989 -1.360402
24  0.328906 0.095430 1.403533  -0.761000 2.412031 -1.377325
25  -1.858231 -7.013819 17.165331  1.566411 -0.162487 -2.538374
26  13.824293 -20.103218 10.765717  -1.570796 -0.000000 -1.570796
27  -1.844629 -8.254290 -9.584623  -0.051945 -0.000000 -1.570796
28  0.433020 -11.755867 -21.000002  -0.083842 -0.009362 3.131152
29  0.000000 13.479277 -0.000002  0.167696 0.000000 0.000000
30  0.000000 13.477240 0.000001  -0.083756 0.010203 0.009620
31  0.267270 3.664728 -1.953293  -0.106568 0.025893 0.137951
32  -0.000000 1.180357 -0.000001  -0.036623 0.007435 0.177465
33  -0.000002 0.817138 0.000001  0.004200 0.011559 -0.007420
34  0.249423 3.688543 -0.940890  -0.060580 0.013550 0.130737
35  0.000001 1.800635 -0.000001  0.004940 -0.002077 0.208495
36  -0.000001 1.243411 0.000002  0.006524 0.000040 0.064626
37  0.244726 3.701097 0.087732  0.005036 -0.002373 0.139323
38  -0.000000 1.766588 -0.000002  0.002490 0.003552 0.259702
39  -0.000000 1.189003 0.000001  -0.017590 0.001952 0.152464
40  0.277239 3.632249 1.274101  0.054558 -0.010184 0.144732
41  -0.000001 1.798490 -0.000003  0.036314 -0.010668 0.285912
42  -0.000001 1.235457 0.000001  -0.005152 -0.006816 0.068190
43  -0.315441 0.857301 0.755942  1.684115 -0.560091 -1.563926
44  -0.000000 2.265939 0.000000  -0.057905 0.032805 0.238898
45  0.000001 1.457813 0.000000  -0.029609 -0.046490 -0.034285
46  1.259681 3.818376 1.286945  0.054558 -0.010184 0.144732
47  1.226391 3.891695 0.090419  0.005036 -0.002373 0.139324
48  1.231623 3.875536 -0.958680  -0.060580 0.013550 0.130737
49  1.209919 3.994783 -2.003048  -0.106568 0.025893 0.137951
50  -0.328906 0.095430 1.403531  1.684115 -0.560091 -1.563926
51  0.152561 -38.616215 -21.000004  -0.000000 0.000000 3.141593
52  0.152561 -25.166061 -36.000004  -1.570796 -0.000000 1.570796
53  0.433020 -11.755867 -21.000002  -0.051945 0.000000 1.570796
54  -6.697984 -11.108795 -10.473955  1.544742 -0.020721 -1.550987
55  9.999999 0.000000 0.000000  0.000000 -0.000000 -0.000000
56  29.620378 2.666867 0.000002  0.000000 -0.000000 -0.000000
57  3.664051 2.228526 -2.524775  1.570796 0.732815 -1.570796
58  3.490276 2.388510 1.331886  0.000000 1.570796 0.000000
time 12
0  0 0 0  0 0 0
1  0.000000 0.000000 0.000000  1.570796 -0.000000 0.000000
2  -1.844620 -8.254290 -9.517798  1.485431 -0.035380 -2.254812
3  0.000001 13.479277 0.000000  0.228561 0.000000 -0.000000
4  -0.000000 13.477239 0.000000  -0.199683 -0.260362 0.173111
5  -0.267270 3.664726 -1.953294  0.570287 -0.108989 -1.360402
6  0.000001 1.180355 -0.000000  -0.005540 -0.036957 -1.399218
7  -0.000000 0.817136 0.000000  0.012298 -0.000007 -1.214275
8  -0.249423 3.688543 -0.940889  0.326191 -0.061560 -1.352632
9  0.000000 1.800633 0.000001  -0.000262 0.005352 -1.430231
10  -0.000000 1.243406 0.000001  0.002269 0.006116 -1.286349
11  -0.244727 3.701096 0.087733  0.221244 0.005544 -1.361062
12  -0.000000 1.766583 0.000000  0.004189 0.001125 -1.481426
13  -0.000000 1.189005 0.000001  -0.004182 -0.017197 -1.374176
14  -0.277239 3.632249 1.274102  0.115075 0.054750 -1.366492
15  0.000002 1.798494 -0.000000  0.002394 0.037772 -1.507786
16  -0.000000 1.235452 -0.000000  -0.008167 -0.002510 -1.289887
17  0.315441 0.857300 0.755943  -0.761000 2.412031 -1.377325
18  0.000000 2.265938 -0.000000  -0.016207 -0.064542 -1.048595
19  -0.000001 1.457811 0.000000  -0.051901 0.018546 -0.626230
20  -1.259681 3.818375 1.286945  0.115075 0.054750 -1.366492
21  -1.226391 3.891694 0.090419  0.221244 0.005544 -1.361061
22  -1.231624 3.875534 -0.958681  0.326191 -0.061560 -1.352632
23  -1.209920 3.994781 -2.003048  0.570287 -0.108989 -1.360402
24  0.328906 0.095428 1.403532  -0.761000 2.412031 -1.377325
25  -1.846173 -7.031279 17.234941  1.565516 -0.162303 -2.540958
26  13.824293 -20.103218 10.765717  -1.570796 -0.000000 -1.570796
27  -1.844620 -8.254290 -9.517798  -0.051945 -0.000000 -1.570796
28  0.433020 -11.755867 -21.000002  -0.083842 -0.009362 3.131152
29  0.000000 13.479277 -0.000002  0.167696 0.000000 0.000000
30  0.000000 13.477240 0.000001  -0.083756 0.010203 0.009620
31  0.267270 3.664728 -1.953293  -0.106568 0.025893 0.137951
32  -0.000000 1.180357 -0.000001  -0.036623 0.007435 0.177465
33  -0.000002 0.817138 0.000001  0.004200 0.011559 -0.007420
34  0.249423 3.688543 -0.940890  -0.060580 0.013550 0.130737
35  0.000001 1.800635 -0.000001  0.004940 -0.002077 0.208495
36  -0.000001 1.243411 0.000002  0.006524 0.000040 0.064626
37  0.244726 3.701097 0.087732  0.005036 -0.002373 0.139323
38  -0.000000 1.766588 -0.000002  0.002490 0.003552 0.259702
39  -0.000000 1.189003 0.000001  -0.017590 0.001952 0.152464
40  0.277239 3.632249 1.274101  0.054558 -0.010184 0.144732
41  -0.000001 1.798490 -0.000003  0.036314 -0.010668 0.285912
42  -0.000001 1.235457 0.000001  -0.005152 -0.006816 0.068190
43  -0.315441 0.857301 0.755942  1.684115 -0.560091 -1.563926
44  -0.000000 2.265939 0.000000  -0.057905 0.032805 0.238898
45  0.000001 1.457813 0.000000  -0.029609 -0.046490 -0.034285
46  1.259681 3.818376 1.286945  0.054558 -0.010184 0.144732
47  1.226391 3.891695 0.090419  0.005036 -0.002373 0.139324
48  1.231623 3.875536 -0.958680  -0.060580 0.013550 0.130737
49  1.209919 3.994783 -2.003048  -0.106568 0.025893 0.137951
50  -0.328906 0.095430 1.403531  1.684115 -0.560091 -1.563926
51  0.152561 -38.616215 -21.000004  -0.000000 0.000000 3.141593
52  0.152561 -25.166061 -36.000004  -1.570796 -0.000000 1.570796
53  0.433020 -11.755867 -21.000002  -0.051945 0.000000 1.570796
54  -6.697446 -11.177217 -10.473154  1.542030 -0.019834 -1.550584
55  10.000000 -0.000001 -0.000000  0.000000 -0.000000 -0.000000
56  29.620380 2.666867 0.000001  0.000000 -0.000000 -0.000000
57  3.664052 2.228525 -2.524776  1.570796 0.732815 -1.570796
58  3.490278 2.388510 1.331887  0.000000 1.570796 0.000000
time 13
0  0 0 0  0 0 0
1  0.000000 0.000000 0.000000  1.570796 -0.000000 0.000000
2  -1.843768 -8.254290 -9.470066  1.487486 -0.035461 -2.254837
3  0.000001 13.479276 -0.000000  0.224697 0.000000 -0.000000
4  0.000000 13.477239 -0.000000  -0.197720 -0.260182 0.172692
5  -0.267270 3.664725 -1.953292  0.570288 -0.108989 -1.360402
6  -0.000001 1.180355 -0.000001  -0.005540 -0.036957 -1.399219
7  0.000001 0.817136 -0.000000  0.012298 -0.000007 -1.214275
8  -0.249423 3.688541 -0.940888  0.326191 -0.061560 -1.352632
9  0.000000 1.800634 0.000000  -0.000262 0.005352 -1.430231
10  -0.000001 1.243404 0.000000  0.002269 0.006116 -1.286349
11  -0.244727 3.701095 0.087734  0.221244 0.005544 -1.361061
12  0.000002 1.766584 -0.000001  0.004189 0.001125 -1.481425
13  0.000000 1.189005 0.000001  -0.004182 -0.017197 -1.374175
14  -0.277240 3.632248 1.274102  0.115075 0.054750 -1.366492
15  0.000002 1.798495 -0.000001  0.002394 0.037772 -1.507786
16  0.000000 1.235453 -0.000001  -0.008167 -0.002510 -1.289887
17  0.315441 0.857301 0.755945  -0.761000 2.412031 -1.377325
18  -0.000000 2.265936 -0.000000  -0.016207 -0.064542 -1.048595
19  0.000001 1.457813 0.000000  -0.051901 0.018546 -0.626230
20  -1.259682 3.818375 1.286946  0.115075 0.054750 -1.366492
21  -1.226392 3.891693 0.090420  0.221244 0.005544 -1.361061
22  -1.231624 3.875534 -0.958680  0.326191 -0.061560 -1.352632
23  -1.209920 3.994782 -2.003047  0.570288 -0.108989 -1.360402
24  0.328905 0.095427 1.403533  -0.761000 2.412031 -1.377325
25  -1.846474 -7.027242 17.288383  1.565595 -0.162527 -2.540509
26  13.824293 -20.103218 10.765717  -1.570796 -0.000000 -1.570796
27  -1.843768 -8.254290 -9.470066  -0.051945 -0.000000 -1.570796
28  0.433020 -11.755867 -21.000002  -0.083842 -0.009362 3.131152
29  0.000000 13.479277 -0.000002  0.167696 0.000000 0.000000
30  0.000000 13.477240 0.000001  -0.083756 0.010203 0.009620
31  0.267270 3.664728 -1.953293  -0.106568 0.025893 0.137951
32  -0.000000 1.180357 -0.000001  -0.036623 0.007435 0.177465
33  -0.000002 0.817138 0.000001  0.004200 0.011559 -0.007420
34  0.249423 3.688543 -0.940890  -0.060580 0.013550 0.130737
35  0.000001 1.800635 -0.000001  0.004940 -0.002077 0.208495
36  -0.000001 1.243411 0.000002  0.006524 0.000040 0.064626
37  0.244726 3.701097 0.087732  0.005036 -0.002373 0.139323
38  -0.000000 1.766588 -0.000002  0.002490 0.003552 0.259702
39  -0.000000 1.189003 0.000001  -0.017590 0.001952 0.152464
40  0.277239 3.632249 1.274101  0.054558 -0.010184 0.144732
41  -0.000001 1.798490 -0.000003  0.036314 -0.010668 0.285912
42  -0.000001 1.235457 0.000001  -0.005152 -0.006816 0.068190
43  -0.315441 0.857301 0.755942  1.684115 -0.560091 -1.563926
44  -0.000000 2.265939 0.000000  -0.057905 0.032805 0.238898
45  0.000001 1.457813 0.000000  -0.029609 -0.046490 -0.034285
46  1.259681 3.818376 1.286945  0.054558 -0.010184 0.144732
47  1.226391 3.891695 0.090419  0.005036 -0.002373 0.139324
48  1.231623 3.875536 -0.958680  -0.060580 0.013550 0.130737
49  1.209919 3.994783 -2.003048  -0.106568 0.025893 0.137951
50  -0.328906 0.095430 1.403531  1.684115 -0.560091 -1.563926
51  0.152561 -38.616215 -21.000004  -0.000000 0.000000 3.141593
52  0.152561 -25.166061 -36.000004  -1.570796 -0.000000 1.570796
53  0.433020 -11.755867 -21.000002  -0.051945 0.000000 1.570796
54  -6.697016 -11.232006 -10.472513  1.542488 -0.020034 -1.550452
55  9.999998 -0.000000 -0.000001  0.000000 -0.000000 -0.000000
56  29.620378 2.666867 0.000001  0.000000 -0.000000 -0.000000
57  3.664048 2.228527 -2.524775  1.570796 0.732815 -1.570796
58  3.490276 2.388511 1.331887  0.000000 1.570796 0.000000
time 14
0  0 0 0  0 0 0
1  0.000000 0.000000 0.000000  1.570796 -0.000000 0.000000
2  -1.843769 -8.254290 -9.436330  1.490138 -0.035652 -2.254972
3  0.000002 13.479276 -0.000001  0.220026 0.000000 -0.000000
4  -0.000000 13.477239 0.000000  -0.195135 -0.259200 0.172121
5  -0.267269 3.664727 -1.953293  0.570288 -0.108989 -1.360402
6  -0.000002 1.180355 -0.000000  -0.005540 -0.036957 -1.399219
7  0.000000 0.817137 -0.000000  0.012298 -0.000007 -1.214275
8  -0.249423 3.688542 -0.940889  0.326191 -0.061560 -1.352632
9  0.000000 1.800634 0.000001  -0.000262 0.005352 -1.430231
10  -0.000000 1.243404 0.000000  0.002269 0.006116 -1.286349
11  -0.244726 3.701096 0.087733  0.221244 0.005544 -1.361062
12  0.000001 1.766584 -0.000000  0.004189 0.001125 -1.481426
13  -0.000000 1.189003 0.000000  -0.004182 -0.017197 -1.374176
14  -0.277239 3.632248 1.274102  0.115075 0.054750 -1.366492
15  -0.000002 1.798494 -0.000000  0.002394 0.037772 -1.507786
16  -0.000001 1.235450 0.000001  -0.008167 -0.002510 -1.289887
17  0.315441 0.857301 0.755943  -0.761000 2.412031 -1.377325
18  -0.000000 2.265938 0.000000  -0.016207 -0.064542 -1.048595
19  0.000000 1.457810 -0.000001  -0.051901 0.018546 -0.626230
20  -1.259680 3.818377 1.286945  0.115075 0.054750 -1.366492
21  -1.226390 3.891693 0.090419  0.221244 0.005544 -1.361061
22  -1.231623 3.875535 -0.958680  0.326191 -0.061560 -1.352632
23  -1.209919 3.994783 -2.003048  0.570287 -0.108989 -1.360402
24  0.328906 0.095428 1.403533  -0.761000 2.412031 -1.377325
25  -1.849646 -7.017622 17.328669  1.565948 -0.162923 -2.539324
26  13.824293 -20.103218 10.765717  -1.570796 -0.000000 -1.570796
27  -1.843769 -8.254290 -9.436330  -0.051945 -0.000000 -1.570796
28  0.433020 -11.755867 -21.000002  -0.083842 -0.009362 3.131152
29  0.000000 13.479277 -0.000002  0.167696 0.000000 0.000000
30  0.000000 13.477240 0.000001  -0.083756 0.010203 0.009620
31  0.267270 3.664728 -1.953293  -0.106568 0.025893 0.137951
32  -0.000000 1.180357 -0.000001  -0.036623 0.007435 0.177465
33  -0.000002 0.817138 0.000001  0.004200 0.011559 -0.007420
34  0.249423 3.688543 -0.940890  -0.060580 0.013550 0.130737
35  0.000001 1.800635 -0.000001  0.004940 -0.002077 0.208495
36  -0.000001 1.243411 0.000002  0.006524 0.000040 0.064626
37  0.244726 3.701097 0.087732  0.005036 -0.002373 0.139323
38  -0.000000 1.766588 -0.000002  0.002490 0.003552 0.259702
39  -0.000000 1.189003 0.000001  -0.017590 0.001952 0.152464
40  0.277239 3.632249 1.274101  0.054558 -0.010184 0.144732
41  -0.000001 1.798490 -0.000003  0.036314 -0.010668 0.285912
42  -0.000001 1.235457 0.000001  -0.005152 -0.006816 0.068190
43  -0.315441 0.857301 0.755942  1.684115 -0.560091 -1.563926
44  -0.000000 2.265939 0.000000  -0.057905 0.032805 0.238898
45  0.000001 1.457813 0.000000  -0.029609 -0.046490 -0.034285
46  1.259681 3.818376 1.286945  0.054558 -0.010184 0.144732
47  1.226391 3.891695 0.090419  0.005036 -0.002373 0.139324
48  1.231623 3.875536 -0.958680  -0.060580 0.013550 0.130737
49  1.209919 3.994783 -2.003048  -0.106568 0.025893 0.137951
50  -0.328906 0.095430 1.403531  1.684115 -0.560091 -1.563926
51  0.152561 -38.616215 -21.000004  -0.000000 0.000000 3.141593
52  0.152561 -25.166061 -36.000004  -1.570796 -0.000000 1.570796
53  0.433020 -11.755867 -21.000002  -0.051945 0.000000 1.570796
54  -6.696681 -11.274675 -10.472013  1.543720 -0.020571 -1.550348
55  9.999998 0.000001 0.000000  0.000000 -0.000000 -0.000000
56  29.620382 2.666868 0.000002  0.000000 -0.000000 -0.000000
57  3.664051 2.228527 -2.524776  1.570796 0.732815 -1.570796
58  3.490277 2.388511 1.331887  0.000000 1.570796 0.000000
time 15
0  0 0 0  0 0 0
1  0.000000 0.000000 0.000000  1.570796 -0.000000 0.000000
2  -1.927009 -8.254290 -9.399017  1.485643 -0.037906 -2.254545
3  0.000001 13.479276 -0.000000  0.225128 0.000000 -0.000000
4  0.000000 13.477240 -0.000000  -0.195120 -0.258066 0.170336
5  -0.267269 3.664727 -1.953294  0.570287 -0.108989 -1.360402
6  -0.000002 1.180355 -0.000000  -0.005540 -0.036957 -1.399219
7  0.000001 0.817138 -0.000000  0.012298 -0.000007 -1.214275
8  -0.249423 3.688542 -0.940890  0.326191 -0.061559 -1.352632
9  -0.000000 1.800633 -0.000000  -0.000262 0.005352 -1.430232
10  0.000001 1.243407 -0.000000  0.002269 0.006116 -1.286350
11  -0.244727 3.701097 0.087732  0.221244 0.005544 -1.361062
12  0.000002 1.766584 -0.000000  0.004189 0.001125 -1.481426
13  0.000001 1.189008 -0.000000  -0.004182 -0.017197 -1.374176
14  -0.277240 3.632248 1.274102  0.115075 0.054750 -1.366492
15  -0.000000 1.798494 -0.000000  0.002394 0.037772 -1.507786
16  -0.000002 1.235448 0.000000  -0.008167 -0.002510 -1.289887
17  0.315441 0.857301 0.755943  -0.761000 2.412031 -1.377326
18  0.000002 2.265938 0.000000  -0.016207 -0.064542 -1.048595
19  -0.000001 1.457813 -0.000000  -0.051901 0.018546 -0.626230
20  -1.259681 3.818375 1.286945  0.115075 0.054750 -1.366492
21  -1.226390 3.891695 0.090418  0.221244 0.005544 -1.361061
22  -1.231623 3.875535 -0.958681  0.326191 -0.061560 -1.352632
23  -1.209919 3.994783 -2.003049  0.570288 -0.108989 -1.360402
24  0.328906 0.095428 1.403532  -0.761000 2.412031 -1.377325
25  -1.854926 -7.004045 17.357609  1.566500 -0.163438 -2.537614
26  13.824293 -20.103218 10.765717  -1.570796 -0.000000 -1.570796
27  -1.927009 -8.254290 -9.399017  -0.051945 -0.000000 -1.570796
28  0.433020 -11.755867 -21.000002  -0.083842 -0.009362 3.131152
29  0.000000 13.479277 -0.000002  0.167696 0.000000 0.000000
30  0.000000 13.477240 0.000001  -0.083756 0.010203 0.009620
31  0.267270 3.664728 -1.953293  -0.106568 0.025893 0.137951
32  -0.000000 1.180357 -0.000001  -0.036623 0.007435 0.177465
33  -0.000002 0.817138 0.000001  0.004200 0.011559 -0.007420
34  0.249423 3.688543 -0.940890  -0.060580 0.013550 0.130737
35  0.000001 1.800635 -0.000001  0.004940 -0.002077 0.208495
36  -0.000001 1.243411 0.000002  0.006524 0.000040 0.064626
37  0.244726 3.701097 0.087732  0.005036 -0.002373 0.139323
38  -0.000000 1.766588 -0.000002  0.002490 0.003552 0.259702
39  -0.000000 1.189003 0.000001  -0.017590 0.001952 0.152464
40  0.277239 3.632249 1.274101  0.054558 -0.010184 0.144732
41  -0.000001 1.798490 -0.000003  0.036314 -0.010668 0.285912
42  -0.000001 1.235457 0.000001  -0.005152 -0.006816 0.068190
43  -0.315441 0.857301 0.755942  1.684115 -0.560091 -1.563926
44  -0.000000 2.265939 0.000000  -0.057905 0.032805 0.238898
45  0.000001 1.457813 0.000000  -0.029609 -0.046490 -0.034285
46  1.259681 3.818376 1.286945  0.054558 -0.010184 0.144732
47  1.226391 3.891695 0.090419  0.005036 -0.002373 0.139324
48  1.231623 3.875536 -0.958680  -0.060580 0.013550 0.130737
49  1.209919 3.994783 -2.003048  -0.106568 0.025893 0.137951
50  -0.328906 0.095430 1.403531  1.684115 -0.560091 -1.563926
51  0.152561 -38.616215 -21.000004  -0.000000 0.000000 3.141593
52  0.152561 -25.166061 -36.000004  -1.570796 -0.000000 1.570796
53  0.433020 -11.755867 -21.000002  -0.051945 0.000000 1.570796
54  -6.696429 -11.306740 -10.471638  1.545504 -0.021348 -1.550271
55  10.000001 -0.000000 -0.000000  0.000000 -0.000000 -0.000000
56  29.620380 2.666867 0.000001  0.000000 -0.000000 -0.000000
57  3.664051 2.228527 -2.524775  1.570796 0.732815 -1.570796
58  3.490277 2.388511 1.331887  0.000000 1.570796 0.000000
time 16
0  0 0 0  0 0 0
1  0.000000 0.000000 0.000000  1.570796 -0.000000 0.000000
2  -1.872836 -8.254290 -9.391418  1.491987 -0.036897 -2.255234
3  0.000001 13.479278 0.000000  0.216734 0.000000 -0.000000
4  0.000000 13.477239 0.000000  -0.191909 -0.255537 0.170869
5  -0.267271 3.664723 -1.953292  0.570288 -0.108989 -1.360402
6  -0.000001 1.180355 0.000001  -0.005540 -0.036957 -1.399219
7  0.000000 0.817135 -0.000000  0.012298 -0.000007 -1.214275
8  -0.249424 3.688540 -0.940889  0.326191 -0.061559 -1.352632
9  -0.000000 1.800633 -0.000001  -0.000262 0.005352 -1.430232
10  0.000002 1.243409 0.000002  0.002269 0.006116 -1.286349
11  -0.244728 3.701094 0.087733  0.221244 0.005544 -1.361062
12  -0.000001 1.766584 -0.000001  0.004189 0.001125 -1.481426
13  0.000000 1.189005 0.000000  -0.004182 -0.017197 -1.374176
14  -0.277240 3.632246 1.274102  0.115075 0.054750 -1.366492
15  -0.000001 1.798495 0.000000  0.002394 0.037772 -1.507786
16  -0.000002 1.235452 -0.000001  -0.008167 -0.002510 -1.289887
17  0.315441 0.857298 0.755944  -0.761000 2.412031 -1.377326
18  0.000001 2.265939 -0.000001  -0.016207 -0.064542 -1.048595
19  -0.000000 1.457812 0.000000  -0.051901 0.018546 -0.626230
20  -1.259682 3.818375 1.286946  0.115075 0.054750 -1.366492
21  -1.226392 3.891691 0.090419  0.221244 0.005544 -1.361061
22  -1.231624 3.875533 -0.958680  0.326191 -0.061560 -1.352632
23  -1.209920 3.994779 -2.003048  0.570288 -0.108989 -1.360402
24  0.328905 0.095428 1.403533  -0.761000 2.412031 -1.377325
25  -1.861545 -6.988142 17.377041  1.567173 -0.164021 -2.535589
26  13.824293 -20.103218 10.765717  -1.570796 -0.000000 -1.570796
27  -1.872836 -8.254290 -9.391418  -0.051945 -0.000000 -1.570796
28  0.433020 -11.755867 -21.000002  -0.083842 -0.009362 3.131152
29  0.000000 13.479277 -0.000002  0.167696 0.000000 0.000000
30  0.000000 13.477240 0.000001  -0.083756 0.010203 0.009620
31  0.267270 3.664728 -1.953293  -0.106568 0.025893 0.137951
32  -0.000000 1.180357 -0.000001  -0.036623 0.007435 0.177465
33  -0.000002 0.817138 0.000001  0.004200 0.011559 -0.007420
34  0.249423 3.688543 -0.940890  -0.060580 0.013550 0.130737
35  0.000001 1.800635 -0.000001  0.004940 -0.002077 0.208495
36  -0.000001 1.243411 0.000002  0.006524 0.000040 0.064626
37  0.244726 3.701097 0.087732  0.005036 -0.002373 0.139323
38  -0.000000 1.766588 -0.000002  0.002490 0.003552 0.259702
39  -0.000000 1.189003 0.000001  -0.017590 0.001952 0.152464
40  0.277239 3.632249 1.274101  0.054558 -0.010184 0.144732
41  -0.000001 1.798490 -0.000003  0.036314 -0.010668 0.285912
42  -0.000001 1.235457 0.000001  -0.005152 -0.006816 0.068190
43  -0.315441 0.857301 0.755942  1.684115 -0.560091 -1.563926
44  -0.000000 2.265939 0.000000  -0.057905 0.032805 0.238898
45  0.000001 1.457813 0.000000  -0.029609 -0.046490 -0.034285
46  1.259681 3.818376 1.286945  0.054558 -0.010184 0.144732
47  1.226391 3.891695 0.090419  0.005036 -0.002373 0.139324
48  1.231623 3.875536 -0.958680  -0.060580 0.013550 0.130737
49  1.209919 3.994783 -2.003048  -0.106568 0.025893 0.137951
50  -0.328906 0.095430 1.403531  1.684115 -0.560091 -1.563926
51  0.152561 -38.616215 -21.000004  -0.000000 0.000000 3.141593
52  0.152561 -25.166061 -36.000004  -1.570796 -0.000000 1.570796
53  0.433020 -11.755867 -21.000002  -0.051945 0.000000 1.570796
54  -6.696248 -11.329716 -10.471369  1.547621 -0.022270 -1.550215
55  9.999998 0.000001 -0.000001  0.000000 -0.000000 -0.000000
56  29.620378 2.666868 0.000001  0.000000 -0.000000 -0.000000
57  3.664050 2.228528 -2.524776  1.570796 0.732815 -1.570796
58  3.490277 2.388511 1.331886  0.000000 1.570796 0.000000
time 17
0  0 0 0  0 0 0
1  0.000000 0.000000 0.000000  1.570796 -0.000000 0.000000
2  -1.809101 -8.254290 -9.392188  1.499125 -0.035662 -2.256020
3  0.000001 13.479275 0.000001  0.207368 0.000000 -0.000000
4  -0.000001 13.477238 0.000000  -0.188431 -0.252813 0.171571
5  -0.267269 3.664726 -1.953293  0.570287 -0.108989 -1.360402
6  0.000001 1.180354 0.000001  -0.005540 -0.036957 -1.399219
7  -0.000001 0.817135 0.000000  0.012298 -0.000007 -1.214275
8  -0.249423 3.688539 -0.940888  0.326191 -0.061559 -1.352632
9  -0.000001 1.800632 0.000000  -0.000262 0.005352 -1.430232
10  0.000000 1.243408 -0.000001  0.002269 0.006116 -1.286350
11  -0.244727 3.701095 0.087733  0.221244 0.005544 -1.361062
12  -0.000001 1.766586 0.000001  0.004189 0.001125 -1.481426
13  0.000001 1.189005 -0.000001  -0.004182 -0.017197 -1.374176
14  -0.277239 3.632248 1.274102  0.115075 0.054750 -1.366492
15  -0.000002 1.798495 -0.000000  0.002394 0.037772 -1.507786
16  -0.000001 1.235453 -0.000000  -0.008167 -0.002510 -1.289887
17  0.315441 0.857298 0.755944  -0.761000 2.412031 -1.377326
18  -0.000000 2.265938 0.000000  -0.016207 -0.064542 -1.048595
19  -0.000000 1.457814 0.000000  -0.051901 0.018546 -0.626230
20  -1.259681 3.818372 1.286946  0.115075 0.054750 -1.366492
21  -1.226391 3.891690 0.090419  0.221244 0.005544 -1.361061
22  -1.231623 3.875531 -0.958680  0.326191 -0.061560 -1.352632
23  -1.209919 3.994778 -2.003047  0.570288 -0.108989 -1.360402
24  0.328906 0.095427 1.403533  -0.761000 2.412031 -1.377326
25  -1.868732 -6.971529 17.388792  1.567891 -0.164620 -2.533461
26  13.824293 -20.103218 10.765717  -1.570796 -0.000000 -1.570796
27  -1.809101 -8.254290 -9.392188  -0.051945 -0.000000 -1.570796
28  0.433020 -11.755867 -21.000002  -0.083842 -0.009362 3.131152
29  0.000000 13.479277 -0.000002  0.167696 0.000000 0.000000
30  0.000000 13.477240 0.000001  -0.083756 0.010203 0.009620
31  0.267270 3.664728 -1.953293  -0.106568 0.025893 0.137951
32  -0.000000 1.180357 -0.000001  -0.036623 0.007435 0.177465
33  -0.000002 0.817138 0.000001  0.004200 0.011559 -0.007420
34  0.249423 3.688543 -0.940890  -0.060580 0.013550 0.130737
35  0.000001 1.800635 -0.000001  0.004940 -0.002077 0.208495
36  -0.000001 1.243411 0.000002  0.006524 0.000040 0.064626
37  0.244726 3.701097 0.087732  0.005036 -0.002373 0.139323
38  -0.000000 1.766588 -0.000002  0.002490 0.003552 0.259702
39  -0.000000 1.189003 0.000001  -0.017590 0.001952 0.152464
40  0.277239 3.632249 1.274101  0.054558 -0.010184 0.144732
41  -0.000001 1.798490 -0.000003  0.036314 -0.010668 0.285912
42  -0.000001 1.235457 0.000001  -0.005152 -0.006816 0.068190
43  -0.315441 0.857301 0.755942  1.684115 -0.560091 -1.563926
44  -0.000000 2.265939 0.000000  -0.057905 0.032805 0.238898
45  0.000001 1.457813 0.000000  -0.029609 -0.046490 -0.034285
46  1.259681 3.818376 1.286945  0.054558 -0.010184 0.144732
47  1.226391 3.891695 0.090419  0.005036 -0.002373 0.139324
48  1.231623 3.875536 -0.958680  -0.060580 0.013550 0.130737
49  1.209919 3.994783 -2.003048  -0.106568 0.025893 0.137951
50  -0.328906 0.095430 1.403531  1.684115 -0.560091 -1.563926
51  0.152561 -38.616215 -21.000004  -0.000000 0.000000 3.141593
52  0.152561 -25.166061 -36.000004  -1.570796 -0.000000 1.570796
53  0.433020 -11.755867 -21.000002  -0.051945 0.000000 1.570796
54  -6.696127 -11.345117 -10.471189  1.549848 -0.023239 -1.550177
55  10.000000 0.000001 -0.000001  0.000000 -0.000000 -0.000000
56  29.620380 2.666867 0.000001  0.000000 -0.000000 -0.000000
57  3.664051 2.228526 -2.524776  1.570796 0.732815 -1.570796
58  3.490278 2.388511 1.331886  0.000000 1.570796 0.000000
time 18
0  0 0 0  0 0 0
1  0.000000 0.000000 0.000000  1.570796 -0.000000 0.000000
2  -1.775890 -8.254290 -9.394006  1.503793 -0.035139 -2.256558
3  0.000002 13.479277 -0.000001  0.201112 0.000000 -0.000000
4  -0.000000 13.477237 0.000000  -0.185719 -0.250430 0.171776
5  -0.267270 3.664725 -1.953293  0.570287 -0.108989 -1.360402
6  0.000001 1.180354 -0.000001  -0.005540 -0.036957 -1.399219
7  -0.000000 0.817136 0.000000  0.012298 -0.000007 -1.214275
8  -0.249423 3.688543 -0.940889  0.326191 -0.061559 -1.352632
9  -0.000001 1.800634 -0.000001  -0.000262 0.005352 -1.430232
10  0.000000 1.243404 0.000001  0.002269 0.006116 -1.286350
11  -0.244727 3.701096 0.087733  0.221244 0.005544 -1.361061
12  0.000001 1.766584 0.000000  0.004189 0.001125 -1.481426
13  -0.000000 1.189001 -0.000000  -0.004182 -0.017197 -1.374176
14  -0.277240 3.632247 1.274102  0.115075 0.054750 -1.366492
15  -0.000001 1.798494 -0.000000  0.002394 0.037772 -1.507786
16  -0.000001 1.235452 0.000001  -0.008167 -0.002510 -1.289887
17  0.315441 0.857299 0.755944  -0.761000 2.412031 -1.377326
18  -0.000001 2.265939 0.000000  -0.016207 -0.064542 -1.048595
19  -0.000000 1.457814 0.000000  -0.051901 0.018546 -0.626230
20  -1.259681 3.818375 1.286945  0.115075 0.054750 -1.366492
21  -1.226391 3.891692 0.090419  0.221244 0.005544 -1.361061
22  -1.231624 3.875533 -0.958680  0.326191 -0.061560 -1.352632
23  -1.209920 3.994782 -2.003048  0.570287 -0.108989 -1.360402
24  0.328906 0.095429 1.403533  -0.761000 2.412031 -1.377325
25  -1.875704 -6.955817 17.394703  1.568578 -0.165182 -2.531439
26  13.824293 -20.103218 10.765717  -1.570796 -0.000000 -1.570796
27  -1.775890 -8.254290 -9.394006  -0.051945 -0.000000 -1.570796
28  0.433020 -11.755867 -21.000002  -0.083842 -0.009362 3.131152
29  0.000000 13.479277 -0.000002  0.167696 0.000000 0.000000
30  0.000000 13.477240 0.000001  -0.083756 0.010203 0.009620
31  0.267270 3.664728 -1.953293  -0.106568 0.025893 0.137951
32  -0.000000 1.180357 -0.000001  -0.036623 0.007435 0.177465
33  -0.000002 0.817138 0.000001  0.004200 0.011559 -0.007420
34  0.249423 3.688543 -0.940890  -0.060580 0.013550 0.130737
35  0.000001 1.800635 -0.000001  0.004940 -0.002077 0.208495
36  -0.000001 1.243411 0.000002  0.006524 0.000040 0.064626
37  0.244726 3.701097 0.087732  0.005036 -0.002373 0.139323
38  -0.000000 1.766588 -0.000002  0.002490 0.003552 0.259702
39  -0.000000 1.189003 0.000001  -0.017590 0.001952 0.152464
40  0.277239 3.632249 1.274101  0.054558 -0.010184 0.144732
41  -0.000001 1.798490 -0.000003  0.036314 -0.010668 0.285912
42  -0.000001 1.235457 0.000001  -0.005152 -0.006816 0.068190
43  -0.315441 0.857301 0.755942  1.684115 -0.560091 -1.563926
44  -0.000000 2.265939 0.000000  -0.057905 0.032805 0.238898
45  0.000001 1.457813 0.000000  -0.029609 -0.046490 -0.034285
46  1.259681 3.818376 1.286945  0.054558 -0.010184 0.144732
47  1.226391 3.891695 0.090419  0.005036 -0.002373 0.139324
48  1.231623 3.875536 -0.958680  -0.060580 0.013550 0.130737
49  1.209919 3.994783 -2.003048  -0.106568 0.025893 0.137951
50  -0.328906 0.095430 1.403531  1.684115 -0.560091 -1.563926
51  0.152561 -38.616215 -21.000004  -0.000000 0.000000 3.141593
52  0.152561 -25.166061 -36.000004  -1.570796 -0.000000 1.570796
53  0.433020 -11.755867 -21.000002  -0.051945 0.000000 1.570796
54  -6.696054 -11.354459 -10.471080  1.551965 -0.024161 -1.550154
55  9.999999 0.000001 -0.000000  0.000000 -0.000000 -0.000000
56  29.620380 2.666867 0.000001  0.000000 -0.000000 -0.000000
57  3.664049 2.228527 -2.524776  1.570796 0.732815 -1.570796
58  3.490277 2.388512 1.331886  0.000000 1.570796 0.000000
time 19
0  0 0 0  0 0 0
1  0.000000 0.000000 0.000000  1.570796 -0.000000 0.000000
2  -1.794257 -8.254290 -9.394029  1.504691 -0.035807 -2.256653
3  0.000002 13.479278 0.000001  0.199225 0.000000 -0.000000
4  -0.000000 13.477242 0.000000  -0.183885 -0.248856 0.171013
5  -0.267269 3.664727 -1.953292  0.570287 -0.108989 -1.360402
6  0.000003 1.180354 0.000001  -0.005540 -0.036957 -1.399219
7  0.000000 0.817137 0.000001  0.012298 -0.000007 -1.214275
8  -0.249423 3.688542 -0.940887  0.326191 -0.061559 -1.352632
9  0.000004 1.800633 0.000001  -0.000262 0.005352 -1.430231
10  0.000000 1.243406 0.000000  0.002269 0.006116 -1.286349
11  -0.244726 3.701097 0.087734  0.221244 0.005544 -1.361062
12  0.000000 1.766586 0.000000  0.004189 0.001125 -1.481426
13  0.000001 1.189004 -0.000001  -0.004182 -0.017197 -1.374176
14  -0.277239 3.632249 1.274103  0.115075 0.054750 -1.366492
15  0.000002 1.798494 0.000000  0.002394 0.037772 -1.507786
16  0.000001 1.235454 0.000001  -0.008167 -0.002510 -1.289887
17  0.315441 0.857301 0.755945  -0.760999 2.412031 -1.377326
18  0.000002 2.265939 -0.000001  -0.016207 -0.064542 -1.048595
19  -0.000000 1.457813 -0.000000  -0.051901 0.018546 -0.626230
20  -1.259681 3.818376 1.286947  0.115075 0.054750 -1.366492
21  -1.226390 3.891693 0.090420  0.221244 0.005544 -1.361061
22  -1.231623 3.875536 -0.958679  0.326191 -0.061560 -1.352632
23  -1.209919 3.994781 -2.003046  0.570288 -0.108989 -1.360402
24  0.328906 0.095428 1.403534  -0.761000 2.412031 -1.377325
25  -1.881672 -6.942616 17.396626  1.569160 -0.165653 -2.529734
26  13.824293 -20.103218 10.765717  -1.570796 -0.000000 -1.570796
27  -1.794257 -8.254290 -9.394029  -0.051945 -0.000000 -1.570796
28  0.433020 -11.755867 -21.000002  -0.083842 -0.009362 3.131152
29  0.000000 13.479277 -0.000002  0.167696 0.000000 0.000000
30  0.000000 13.477240 0.000001  -0.083756 0.010203 0.009620
31  0.267270 3.664728 -1.953293  -0.106568 0.025893 0.137951
32  -0.000000 1.180357 -0.000001  -0.036623 0.007435 0.177465
33  -0.000002 0.817138 0.000001  0.004200 0.011559 -0.007420
34  0.249423 3.688543 -0.940890  -0.060580 0.013550 0.130737
35  0.000001 1.800635 -0.000001  0.004940 -0.002077 0.208495
36  -0.000001 1.243411 0.000002  0.006524 0.000040 0.064626
37  0.244726 3.701097 0.087732  0.005036 -0.002373 0.139323
38  -0.000000 1.766588 -0.000002  0.002490 0.003552 0.259702
39  -0.000000 1.189003 0.000001  -0.017590 0.001952 0.152464
40  0.277239 3.632249 1.274101  0.054558 -0.010184 0.144732
41  -0.000001 1.798490 -0.000003  0.036314 -0.010668 0.285912
42  -0.000001 1.235457 0.000001  -0.005152 -0.006816 0.068190
43  -0.315441 0.857301 0.755942  1.684115 -0.560091 -1.563926
44  -0.000000 2.265939 0.000000  -0.057905 0.032805 0.238898
45  0.000001 1.457813 0.000000  -0.029609 -0.046490 -0.034285
46  1.259681 3.818376 1.286945  0.054558 -0.010184 0.144732
47  1.226391 3.891695 0.090419  0.005036 -0.002373 0.139324
48  1.231623 3.875536 -0.958680  -0.060580 0.013550 0.130737
49  1.209919 3.994783 -2.003048  -0.106568 0.025893 0.137951
50  -0.328906 0.095430 1.403531  1.684115 -0.560091 -1.563926
51  0.152561 -38.616215 -21.000004  -0.000000 0.000000 3.141593
52  0.152561 -25.166061 -36.000004  -1.570796 -0.000000 1.570796
53  0.433020 -11.755867 -21.000002  -0.051945 0.000000 1.570796
54  -6.696016 -11.359256 -10.471024  1.553750 -0.024938 -1.550142
55  9.999999 0.000001 0.000000  0.000000 -0.000000 -0.000000
56  29.620380 2.666867 0.000002  0.000000 -0.000000 -0.000000
57  3.664053 2.228527 -2.524775  1.570796 0.732815 -1.570796
58  3.490279 2.388511 1.331887  0.000000 1.570796 0.000000
time 20
0  0 0 0  0 0 0
1  0.000000 0.000000 0.000000  1.570796 -0.000000 0.000000
2  -1.829312 -8.254290 -9.392861  1.503634 -0.036804 -2.256545
3  0.000002 13.479276 -0.000001  0.199978 -0.000000 -0.000000
4  -0.000000 13.477242 0.000000  -0.183053 -0.247942 0.170086
5  -0.267269 3.664727 -1.953293  0.570288 -0.108989 -1.360402
6  -0.000001 1.180355 -0.000001  -0.005540 -0.036957 -1.399219
7  0.000001 0.817135 -0.000000  0.012298 -0.000007 -1.214275
8  -0.249422 3.688542 -0.940889  0.326191 -0.061560 -1.352632
9  0.000001 1.800634 -0.000000  -0.000262 0.005352 -1.430231
10  -0.000001 1.243407 0.000000  0.002269 0.006116 -1.286349
11  -0.244726 3.701098 0.087733  0.221244 0.005544 -1.361062
12  -0.000001 1.766584 0.000000  0.004189 0.001125 -1.481426
13  0.000001 1.189006 -0.000001  -0.004182 -0.017197 -1.374176
14  -0.277238 3.632249 1.274102  0.115075 0.054750 -1.366492
15  0.000002 1.798493 0.000000  0.002394 0.037772 -1.507786
16  0.000001 1.235451 -0.000000  -0.008167 -0.002510 -1.289887
17  0.315442 0.857301 0.755943  -0.761000 2.412031 -1.377326
18  0.000001 2.265939 0.000000  -0.016207 -0.064542 -1.048595
19  0.000000 1.457811 0.000000  -0.051901 0.018546 -0.626230
20  -1.259681 3.818375 1.286946  0.115075 0.054750 -1.366492
21  -1.226390 3.891696 0.090419  0.221244 0.005544 -1.361061
22  -1.231622 3.875535 -0.958680  0.326191 -0.061560 -1.352632
23  -1.209918 3.994783 -2.003047  0.570288 -0.108989 -1.360402
24  0.328907 0.095429 1.403533  -0.761000 2.412031 -1.377326
25  -1.885837 -6.933523 17.396414  1.569564 -0.165976 -2.528556
26  13.824293 -20.103218 10.765717  -1.570796 -0.000000 -1.570796
27  -1.829312 -8.254290 -9.392861  -0.051945 -0.000000 -1.570796
28  0.433020 -11.755867 -21.000002  -0.083842 -0.009362 3.131152
29  0.000000 13.479277 -0.000002  0.167696 0.000000 0.000000
30  0.000000 13.477240 0.000001  -0.083756 0.010203 0.009620
31  0.267270 3.664728 -1.953293  -0.106568 0.025893 0.137951
32  -0.000000 1.180357 -0.000001  -0.036623 0.007435 0.177465
33  -0.000002 0.817138 0.000001  0.004200 0.011559 -0.007420
34  0.249423 3.688543 -0.940890  -0.060580 0.013550 0.130737
35  0.000001 1.800635 -0.000001  0.004940 -0.002077 0.208495
36  -0.000001 1.243411 0.000002  0.006524 0.000040 0.064626
37  0.244726 3.701097 0.087732  0.005036 -0.002373 0.139323
38  -0.000000 1.766588 -0.000002  0.002490 0.003552 0.259702
39  -0.000000 1.189003 0.000001  -0.017590 0.001952 0.152464
40  0.277239 3.632249 1.274101  0.054558 -0.010184 0.144732
41  -0.000001 1.798490 -0.000003  0.036314 -0.010668 0.285912
42  -0.000001 1.235457 0.000001  -0.005152 -0.006816 0.068190
43  -0.315441 0.857301 0.755942  1.684115 -0.560091 -1.563926
44  -0.000000 2.265939 0.000000  -0.057905 0.032805 0.238898
45  0.000001 1.457813 0.000000  -0.029609 -0.046490 -0.034285
46  1.259681 3.818376 1.286945  0.054558 -0.010184 0.144732
47  1.226391 3.891695 0.090419  0.005036 -0.002373 0.139324
48  1.231623 3.875536 -0.958680  -0.060580 0.013550 0.130737
49  1.209919 3.994783 -2.003048  -0.106568 0.025893 0.137951
50  -0.328906 0.095430 1.403531  1.684115 -0.560091 -1.563926
51  0.152561 -38.616215 -21.000004  -0.000000 0.000000 3.141593
52  0.152561 -25.166061 -36.000004  -1.570796 -0.000000 1.570796
53  0.433020 -11.755867 -21.000002  -0.051945 0.000000 1.570796
54  -6.696002 -11.361023 -10.471003  1.554984 -0.025475 -1.550137
55  10.000000 -0.000001 -0.000000  0.000000 -0.000000 -0.000000
56  29.620380 2.666866 0.000001  0.000000 -0.000000 -0.000000
57  3.664052 2.228525 -2.524775  1.570796 0.732815 -1.570796
58  3.490278 2.388510 1.331886  0.000000 1.570796 0.000000
time 21
0  0 0 0  0 0 0
1  0.000000 0.000000 0.000000  1.570796 -0.000000 0.000000
2  -1.843768 -8.254290 -9.392370  1.503034 -0.037209 -2.256494
3  0.000001 13.479276 -0.000000  0.200593 0.000000 -0.000000
4  -0.000000 13.477239 0.000001  -0.182874 -0.247593 0.169741
5  -0.267270 3.664725 -1.953294  0.570288 -0.108989 -1.360402
6  -0.000001 1.180356 0.000000  -0.005540 -0.036957 -1.399219
7  -0.000001 0.817137 -0.000000  0.012298 -0.000007 -1.214275
8  -0.249423 3.688542 -0.940890  0.326191 -0.061559 -1.352632
9  0.000002 1.800633 0.000000  -0.000262 0.005352 -1.430231
10  0.000001 1.243408 0.000001  0.002269 0.006116 -1.286349
11  -0.244727 3.701096 0.087732  0.221244 0.005544 -1.361061
12  0.000001 1.766585 -0.000001  0.004189 0.001125 -1.481425
13  0.000001 1.189005 -0.000001  -0.004182 -0.017197 -1.374175
14  -0.277239 3.632249 1.274101  0.115075 0.054750 -1.366492
15  0.000000 1.798494 0.000000  0.002394 0.037772 -1.507785
16  -0.000001 1.235451 0.000000  -0.008167 -0.002510 -1.289886
17  0.315441 0.857300 0.755943  -0.761000 2.412031 -1.377326
18  -0.000002 2.265938 0.000000  -0.016207 -0.064542 -1.048595
19  -0.000001 1.457814 0.000000  -0.051901 0.018546 -0.626230
20  -1.259681 3.818375 1.286945  0.115075 0.054750 -1.366492
21  -1.226391 3.891694 0.090419  0.221244 0.005544 -1.361061
22  -1.231623 3.875533 -0.958681  0.326191 -0.061560 -1.352632
23  -1.209919 3.994782 -2.003049  0.570287 -0.108989 -1.360402
24  0.328906 0.095429 1.403532  -0.761000 2.412031 -1.377325
25  -1.887403 -6.930137 17.395933  1.569714 -0.166096 -2.528117
26  13.824293 -20.103218 10.765717  -1.570796 -0.000000 -1.570796
27  -1.843768 -8.254290 -9.392370  -0.051945 -0.000000 -1.570796
28  0.433020 -11.755867 -21.000002  -0.083842 -0.009362 3.131152
29  0.000000 13.479277 -0.000002  0.167696 0.000000 0.000000
30  0.000000 13.477240 0.000001  -0.083756 0.010203 0.009620
31  0.267270 3.664728 -1.953293  -0.106568 0.025893 0.137951
32  -0.000000 1.180357 -0.000001  -0.036623 0.007435 0.177465
33  -0.000002 0.817138 0.000001  0.004200 0.011559 -0.007420
34  0.249423 3.688543 -0.940890  -0.060580 0.013550 0.130737
35  0.000001 1.800635 -0.000001  0.004940 -0.002077 0.208495
36  -0.000001 1.243411 0.000002  0.006524 0.000040 0.064626
37  0.244726 3.701097 0.087732  0.005036 -0.002373 0.139323
38  -0.000000 1.766588 -0.000002  0.002490 0.003552 0.259702
39  -0.000000 1.189003 0.000001  -0.017590 0.001952 0.152464
40  0.277239 3.632249 1.274101  0.054558 -0.010184 0.144732
41  -0.000001 1.798490 -0.000003  0.036314 -0.010668 0.285912
42  -0.000001 1.235457 0.000001  -0.005152 -0.006816 0.068190
43  -0.315441 0.857301 0.755942  1.684115 -0.560091 -1.563926
44  -0.000000 2.265939 0.000000  -0.057905 0.032805 0.238898
45  0.000001 1.457813 0.000000  -0.029609 -0.046490 -0.034285
46  1.259681 3.818376 1.286945  0.054558 -0.010184 0.144732
47  1.226391 3.891695 0.090419  0.005036 -0.002373 0.139324
48  1.231623 3.875536 -0.958680  -0.060580 0.013550 0.130737
49  1.209919 3.994783 -2.003048  -0.106568 0.025893 0.137951
50  -0.328906 0.095430 1.403531  1.684115 -0.560091 -1.563926
51  0.152561 -38.616215 -21.000004  -0.000000 0.000000 3.141593
52  0.152561 -25.166061 -36.000004  -1.570796 -0.000000 1.570796
53  0.433020 -11.755867 -21.000002  -0.051945 0.000000 1.570796
54  -6.696000 -11.361276 -10.471000  1.555444 -0.025675 -1.550137
55  9.999998 -0.000001 -0.000001  0.000000 -0.000000 -0.000000
56  29.620380 2.666866 0.000001  0.000000 -0.000000 -0.000000
57  3.664050 2.228525 -2.524775  1.570796 0.732815 -1.570796
58  3.490278 2.388509 1.331887  0.000000 1.570796 0.000000
end
