version 1
nodes
0 "blender_implicit" -1
1 "root" -1
2 "upperarm_l" 1
3 "lowerarm_l" 2
4 "hand_l" 3
5 "pinky_0_l" 4
6 "pinky_1_l" 5
7 "pinky_2_l" 6
8 "ring_0_l" 4
9 "ring_1_l" 8
10 "ring_2_l" 9
11 "middle_0_l" 4
12 "middle_1_l" 11
13 "middle_2_l" 12
14 "index_0_l" 4
15 "index_1_l" 14
16 "index_2_l" 15
17 "thumb_0_l" 4
18 "thumb_1_l" 17
19 "thumb_2_l" 18
20 "rig_index_l" 4
21 "rig_middle_l" 4
22 "rig_ring_l" 4
23 "rig_pinky_l" 4
24 "rig_thumb_l" 4
25 "rig_hand_l" 1
26 "rig_l" 1
27 "rig_upperarm_l" 1
28 "upperarm_r" 1
29 "lowerarm_r" 28
30 "hand_r" 29
31 "pinky_0_r" 30
32 "pinky_1_r" 31
33 "pinky_2_r" 32
34 "ring_0_r" 30
35 "ring_1_r" 34
36 "ring_2_r" 35
37 "middle_0_r" 30
38 "middle_1_r" 37
39 "middle_2_r" 38
40 "index_0_r" 30
41 "index_1_r" 40
42 "index_2_r" 41
43 "thumb_0_r" 30
44 "thumb_1_r" 43
45 "thumb_2_r" 44
46 "rig_index_r" 30
47 "rig_middle_r" 30
48 "rig_ring_r" 30
49 "rig_pinky_r" 30
50 "rig_thumb_r" 30
51 "rig_hand_r" 1
52 "rig_r" 1
53 "rig_upperarm_r" 1
54 "bone_base" -1
55 "bone_barrels" 54
56 "bone_muzzle" 54
57 "bone_Ring" 54
58 "bone_ejectionPort" 54
end
skeleton
time 0
0  0 0 0  0 0 0
1  0.000000 0.000000 0.000000  1.570796 -0.000000 0.000000
2  -1.843768 -8.254290 -12.055320  1.507259 -0.041576 -2.266631
3  0.000002 13.479277 -0.000000  0.229327 -0.000000 -0.000000
4  0.000000 13.477239 0.000000  -0.169949 -0.183004 0.177500
5  -0.267270 3.664724 -1.953293  0.570288 -0.108989 -1.360402
6  -0.000001 1.180355 0.000000  -0.005540 -0.036957 -1.399219
7  0.000001 0.817137 0.000001  0.012298 -0.000007 -1.214275
8  -0.249423 3.688541 -0.940889  0.326191 -0.061560 -1.352632
9  0.000001 1.800633 -0.000001  -0.000262 0.005352 -1.430231
10  -0.000001 1.243406 -0.000001  0.002269 0.006116 -1.286349
11  -0.244727 3.701095 0.087733  0.221244 0.005544 -1.361061
12  -0.000002 1.766585 0.000000  0.004189 0.001125 -1.481425
13  0.000001 1.189003 -0.000001  -0.004182 -0.017197 -1.374175
14  -0.277240 3.632246 1.274102  0.115075 0.054750 -1.366492
15  -0.000000 1.798494 0.000000  0.002394 0.037772 -1.507786
16  0.000000 1.235452 -0.000000  -0.008167 -0.002510 -1.289887
17  0.315441 0.857299 0.755944  -0.761000 2.412031 -1.377325
18  0.000001 2.265940 0.000000  -0.016207 -0.064542 -1.048595
19  0.000000 1.457812 -0.000000  -0.051901 0.018546 -0.626230
20  -1.259681 3.818374 1.286945  0.115075 0.054750 -1.366492
21  -1.226391 3.891691 0.090419  0.221244 0.005544 -1.361061
22  -1.231623 3.875533 -0.958680  0.326191 -0.061560 -1.352632
23  -1.209919 3.994779 -2.003048  0.570288 -0.108989 -1.360402
24  0.328905 0.095427 1.403533  -0.761000 2.412031 -1.377325
25  -2.181397 -6.523991 14.666088  1.606940 -0.182322 -2.479893
26  13.824293 -20.103218 10.765717  -1.570796 -0.000000 -1.570796
27  -1.843768 -8.254290 -12.055320  -0.051945 -0.000000 -1.570796
28  0.433020 -11.755867 -21.000002  -0.083842 -0.009362 3.131152
29  0.000000 13.479277 -0.000002  0.167696 0.000000 0.000000
30  0.000000 13.477240 0.000001  -0.083756 0.010203 0.009620
31  0.267270 3.664728 -1.953293  -0.106568 0.025893 0.137951
32  -0.000000 1.180357 -0.000001  -0.036623 0.007435 0.177465
33  -0.000002 0.817138 0.000001  0.004200 0.011559 -0.007420
34  0.249423 3.688543 -0.940890  -0.060580 0.013550 0.130737
35  0.000001 1.800635 -0.000001  0.004940 -0.002077 0.208495
36  -0.000001 1.243411 0.000002  0.006524 0.000040 0.064626
37  0.244726 3.701097 0.087732  0.005036 -0.002373 0.139323
38  -0.000000 1.766588 -0.000002  0.002490 0.003552 0.259702
39  -0.000000 1.189003 0.000001  -0.017590 0.001952 0.152464
40  0.277239 3.632249 1.274101  0.054558 -0.010184 0.144732
41  -0.000001 1.798490 -0.000003  0.036314 -0.010668 0.285912
42  -0.000001 1.235457 0.000001  -0.005152 -0.006816 0.068190
43  -0.315441 0.857301 0.755942  1.684115 -0.560091 -1.563926
44  -0.000000 2.265939 0.000000  -0.057905 0.032805 0.238898
45  0.000001 1.457813 0.000000  -0.029609 -0.046490 -0.034285
46  1.259681 3.818376 1.286945  0.054558 -0.010184 0.144732
47  1.226391 3.891695 0.090419  0.005036 -0.002373 0.139324
48  1.231623 3.875536 -0.958680  -0.060580 0.013550 0.130737
49  1.209919 3.994783 -2.003048  -0.106568 0.025893 0.137951
50  -0.328906 0.095430 1.403531  1.684115 -0.560091 -1.563926
51  0.152561 -38.616215 -21.000004  -0.000000 0.000000 3.141593
52  0.152561 -25.166061 -36.000004  -1.570796 -0.000000 1.570796
53  0.433020 -11.755867 -21.000002  -0.051945 0.000000 1.570796
54  -6.730359 -8.738463 -10.554821  1.609572 -0.065624 -1.561400
55  9.999998 0.000001 -0.000000  0.000000 -0.000000 -0.000000
56  29.620382 2.666868 0.000001  0.000000 -0.000000 -0.000000
57  3.664051 2.228526 -2.524775  0.839878 -0.058337 3.076655
58  3.490278 2.388511 1.331887  0.000000 1.570796 0.000000
time 1
0  0 0 0  0 0 0
1  0.000000 0.000000 0.000000  1.570796 -0.000000 0.000000
2  -1.843768 -8.254290 -11.871601  1.504715 -0.041020 -2.265599
3  0.000001 13.479278 -0.000001  0.228772 0.000000 -0.000000
4  0.000001 13.477238 0.000000  -0.173191 -0.192681 0.177315
5  -0.267270 3.664727 -1.953293  0.570288 -0.108989 -1.360402
6  -0.000002 1.180355 -0.000000  -0.005540 -0.036957 -1.399219
7  -0.000002 0.817134 0.000000  0.012298 -0.000007 -1.214275
8  -0.249423 3.688541 -0.940889  0.326191 -0.061559 -1.352632
9  -0.000000 1.800633 0.000001  -0.000262 0.005352 -1.430231
10  -0.000003 1.243404 -0.000000  0.002269 0.006116 -1.286349
11  -0.244727 3.701096 0.087733  0.221244 0.005544 -1.361062
12  0.000001 1.766585 0.000001  0.004189 0.001125 -1.481426
13  -0.000000 1.189003 -0.000001  -0.004182 -0.017197 -1.374176
14  -0.277239 3.632247 1.274101  0.115075 0.054750 -1.366492
15  -0.000000 1.798493 0.000000  0.002394 0.037772 -1.507786
16  0.000000 1.235452 0.000000  -0.008167 -0.002510 -1.289887
17  0.315441 0.857301 0.755943  -0.760999 2.412031 -1.377325
18  0.000001 2.265940 0.000000  -0.016207 -0.064542 -1.048595
19  -0.000000 1.457811 0.000000  -0.051901 0.018546 -0.626230
20  -1.259681 3.818375 1.286945  0.115075 0.054750 -1.366492
21  -1.226391 3.891694 0.090419  0.221244 0.005544 -1.361061
22  -1.231624 3.875534 -0.958680  0.326191 -0.061560 -1.352632
23  -1.209919 3.994781 -2.003048  0.570287 -0.108989 -1.360402
24  0.328906 0.095429 1.403532  -0.761000 2.412031 -1.377325
25  -2.134623 -6.583887 14.855025  1.602198 -0.180297 -2.488007
26  13.824293 -20.103218 10.765717  -1.570796 -0.000000 -1.570796
27  -1.843768 -8.254290 -11.871601  -0.051945 -0.000000 -1.570796
28  0.433020 -11.755867 -21.000002  -0.083842 -0.009362 3.131152
29  0.000000 13.479277 -0.000002  0.167696 0.000000 0.000000
30  0.000000 13.477240 0.000001  -0.083756 0.010203 0.009620
31  0.267270 3.664728 -1.953293  -0.106568 0.025893 0.137951
32  -0.000000 1.180357 -0.000001  -0.036623 0.007435 0.177465
33  -0.000002 0.817138 0.000001  0.004200 0.011559 -0.007420
34  0.249423 3.688543 -0.940890  -0.060580 0.013550 0.130737
35  0.000001 1.800635 -0.000001  0.004940 -0.002077 0.208495
36  -0.000001 1.243411 0.000002  0.006524 0.000040 0.064626
37  0.244726 3.701097 0.087732  0.005036 -0.002373 0.139323
38  -0.000000 1.766588 -0.000002  0.002490 0.003552 0.259702
39  -0.000000 1.189003 0.000001  -0.017590 0.001952 0.152464
40  0.277239 3.632249 1.274101  0.054558 -0.010184 0.144732
41  -0.000001 1.798490 -0.000003  0.036314 -0.010668 0.285912
42  -0.000001 1.235457 0.000001  -0.005152 -0.006816 0.068190
43  -0.315441 0.857301 0.755942  1.684115 -0.560091 -1.563926
44  -0.000000 2.265939 0.000000  -0.057905 0.032805 0.238898
45  0.000001 1.457813 0.000000  -0.029609 -0.046490 -0.034285
46  1.259681 3.818376 1.286945  0.054558 -0.010184 0.144732
47  1.226391 3.891695 0.090419  0.005036 -0.002373 0.139324
48  1.231623 3.875536 -0.958680  -0.060580 0.013550 0.130737
49  1.209919 3.994783 -2.003048  -0.106568 0.025893 0.137951
50  -0.328906 0.095430 1.403531  1.684115 -0.560091 -1.563926
51  0.152561 -38.616215 -21.000004  -0.000000 0.000000 3.141593
52  0.152561 -25.166061 -36.000004  -1.570796 -0.000000 1.570796
53  0.433020 -11.755867 -21.000002  -0.051945 0.000000 1.570796
54  -6.726835 -8.913416 -10.544473  1.600637 -0.060603 -1.559587
55  9.999997 0.000001 -0.000000  0.000000 -0.000000 -0.000000
56  29.620380 2.666868 0.000002  0.000000 -0.000000 -0.000000
57  3.664050 2.228527 -2.524776  0.845887 0.118667 -3.008726
58  3.490277 2.388511 1.331887  0.000000 1.570796 0.000000
time 2
0  0 0 0  0 0 0
1  0.000000 0.000000 0.000000  1.570796 -0.000000 0.000000
2  -1.843767 -8.254290 -11.448718  1.499984 -0.039668 -2.263182
3  0.000002 13.479276 -0.000000  0.225733 0.000000 -0.000000
4  0.000000 13.477239 -0.000000  -0.179690 -0.214198 0.176778
5  -0.267269 3.664726 -1.953293  0.570288 -0.108989 -1.360402
6  0.000001 1.180355 -0.000001  -0.005540 -0.036957 -1.399218
7  0.000000 0.817135 -0.000000  0.012298 -0.000007 -1.214275
8  -0.249422 3.688541 -0.940889  0.326191 -0.061559 -1.352632
9  0.000002 1.800632 0.000000  -0.000262 0.005352 -1.430232
10  0.000001 1.243405 0.000001  0.002269 0.006116 -1.286350
11  -0.244726 3.701095 0.087733  0.221244 0.005544 -1.361062
12  0.000002 1.766585 0.000000  0.004189 0.001125 -1.481426
13  -0.000001 1.189003 0.000000  -0.004182 -0.017197 -1.374176
14  -0.277239 3.632248 1.274102  0.115074 0.054750 -1.366492
15  0.000004 1.798495 0.000000  0.002394 0.037772 -1.507786
16  0.000000 1.235453 0.000001  -0.008167 -0.002510 -1.289887
17  0.315442 0.857300 0.755944  -0.760999 2.412031 -1.377325
18  -0.000001 2.265939 0.000000  -0.016207 -0.064542 -1.048595
19  -0.000000 1.457811 0.000000  -0.051901 0.018546 -0.626230
20  -1.259681 3.818375 1.286946  0.115075 0.054750 -1.366492
21  -1.226391 3.891694 0.090419  0.221244 0.005544 -1.361061
22  -1.231623 3.875534 -0.958680  0.326191 -0.061560 -1.352632
23  -1.209919 3.994781 -2.003048  0.570288 -0.108989 -1.360402
24  0.328907 0.095429 1.403533  -0.761000 2.412031 -1.377325
25  -2.032863 -6.718656 15.291556  1.591373 -0.175929 -2.505796
26  13.824293 -20.103218 10.765717  -1.570796 -0.000000 -1.570796
27  -1.843767 -8.254290 -11.448718  -0.051945 -0.000000 -1.570796
28  0.433020 -11.755867 -21.000002  -0.083842 -0.009362 3.131152
29  0.000000 13.479277 -0.000002  0.167696 0.000000 0.000000
30  0.000000 13.477240 0.000001  -0.083756 0.010203 0.009620
31  0.267270 3.664728 -1.953293  -0.106568 0.025893 0.137951
32  -0.000000 1.180357 -0.000001  -0.036623 0.007435 0.177465
33  -0.000002 0.817138 0.000001  0.004200 0.011559 -0.007420
34  0.249423 3.688543 -0.940890  -0.060580 0.013550 0.130737
35  0.000001 1.800635 -0.000001  0.004940 -0.002077 0.208495
36  -0.000001 1.243411 0.000002  0.006524 0.000040 0.064626
37  0.244726 3.701097 0.087732  0.005036 -0.002373 0.139323
38  -0.000000 1.766588 -0.000002  0.002490 0.003552 0.259702
39  -0.000000 1.189003 0.000001  -0.017590 0.001952 0.152464
40  0.277239 3.632249 1.274101  0.054558 -0.010184 0.144732
41  -0.000001 1.798490 -0.000003  0.036314 -0.010668 0.285912
42  -0.000001 1.235457 0.000001  -0.005152 -0.006816 0.068190
43  -0.315441 0.857301 0.755942  1.684115 -0.560091 -1.563926
44  -0.000000 2.265939 0.000000  -0.057905 0.032805 0.238898
45  0.000001 1.457813 0.000000  -0.029609 -0.046490 -0.034285
46  1.259681 3.818376 1.286945  0.054558 -0.010184 0.144732
47  1.226391 3.891695 0.090419  0.005036 -0.002373 0.139324
48  1.231623 3.875536 -0.958680  -0.060580 0.013550 0.130737
49  1.209919 3.994783 -2.003048  -0.106568 0.025893 0.137951
50  -0.328906 0.095430 1.403531  1.684115 -0.560091 -1.563926
51  0.152561 -38.616215 -21.000004  -0.000000 0.000000 3.141593
52  0.152561 -25.166061 -36.000004  -1.570796 -0.000000 1.570796
53  0.433020 -11.755867 -21.000002  -0.051945 0.000000 1.570796
54  -6.718912 -9.320202 -10.521452  1.581050 -0.049202 -1.555601
55  10.000000 0.000000 0.000001  0.000000 -0.000000 -0.000000
56  29.620384 2.666868 0.000002  0.000000 -0.000000 -0.000000
57  3.664051 2.228526 -2.524775  1.135449 0.609805 -2.252881
58  3.490278 2.388512 1.331887  0.000000 1.570796 0.000000
time 3
0  0 0 0  0 0 0
1  0.000000 0.000000 0.000000  1.570796 -0.000000 0.000000
2  -1.843768 -8.254290 -10.979080  1.498045 -0.038076 -2.260465
3  0.000002 13.479276 -0.000002  0.216873 0.000000 -0.000000
4  0.000001 13.477238 0.000000  -0.183848 -0.236401 0.175432
5  -0.267270 3.664726 -1.953292  0.570288 -0.108989 -1.360402
6  -0.000001 1.180355 -0.000001  -0.005540 -0.036957 -1.399218
7  0.000000 0.817136 -0.000001  0.012298 -0.000007 -1.214275
8  -0.249423 3.688542 -0.940888  0.326191 -0.061559 -1.352632
9  -0.000001 1.800633 0.000001  -0.000262 0.005352 -1.430232
10  -0.000001 1.243406 -0.000001  0.002269 0.006116 -1.286349
11  -0.244726 3.701095 0.087733  0.221244 0.005544 -1.361061
12  0.000001 1.766584 0.000000  0.004189 0.001125 -1.481426
13  0.000001 1.189005 0.000000  -0.004182 -0.017197 -1.374175
14  -0.277239 3.632248 1.274102  0.115075 0.054750 -1.366492
15  -0.000001 1.798495 0.000001  0.002394 0.037772 -1.507786
16  0.000001 1.235451 0.000001  -0.008167 -0.002510 -1.289887
17  0.315441 0.857300 0.755944  -0.761000 2.412031 -1.377326
18  -0.000000 2.265939 -0.000001  -0.016207 -0.064542 -1.048595
19  -0.000000 1.457811 0.000000  -0.051901 0.018546 -0.626230
20  -1.259681 3.818376 1.286946  0.115074 0.054750 -1.366492
21  -1.226390 3.891692 0.090419  0.221244 0.005544 -1.361061
22  -1.231623 3.875533 -0.958680  0.326191 -0.061560 -1.352632
23  -1.209919 3.994782 -2.003047  0.570287 -0.108989 -1.360402
24  0.328906 0.095430 1.403533  -0.761000 2.412031 -1.377326
25  -1.932504 -6.859599 15.782641  1.579678 -0.171465 -2.523446
26  13.824293 -20.103218 10.765717  -1.570796 -0.000000 -1.570796
27  -1.843768 -8.254290 -10.979080  -0.051945 -0.000000 -1.570796
28  0.433020 -11.755867 -21.000002  -0.083842 -0.009362 3.131152
29  0.000000 13.479277 -0.000002  0.167696 0.000000 0.000000
30  0.000000 13.477240 0.000001  -0.083756 0.010203 0.009620
31  0.267270 3.664728 -1.953293  -0.106568 0.025893 0.137951
32  -0.000000 1.180357 -0.000001  -0.036623 0.007435 0.177465
33  -0.000002 0.817138 0.000001  0.004200 0.011559 -0.007420
34  0.249423 3.688543 -0.940890  -0.060580 0.013550 0.130737
35  0.000001 1.800635 -0.000001  0.004940 -0.002077 0.208495
36  -0.000001 1.243411 0.000002  0.006524 0.000040 0.064626
37  0.244726 3.701097 0.087732  0.005036 -0.002373 0.139323
38  -0.000000 1.766588 -0.000002  0.002490 0.003552 0.259702
39  -0.000000 1.189003 0.000001  -0.017590 0.001952 0.152464
40  0.277239 3.632249 1.274101  0.054558 -0.010184 0.144732
41  -0.000001 1.798490 -0.000003  0.036314 -0.010668 0.285912
42  -0.000001 1.235457 0.000001  -0.005152 -0.006816 0.068190
43  -0.315441 0.857301 0.755942  1.684115 -0.560091 -1.563926
44  -0.000000 2.265939 0.000000  -0.057905 0.032805 0.238898
45  0.000001 1.457813 0.000000  -0.029609 -0.046490 -0.034285
46  1.259681 3.818376 1.286945  0.054558 -0.010184 0.144732
47  1.226391 3.891695 0.090419  0.005036 -0.002373 0.139324
48  1.231623 3.875536 -0.958680  -0.060580 0.013550 0.130737
49  1.209919 3.994783 -2.003048  -0.106568 0.025893 0.137951
50  -0.328906 0.095430 1.403531  1.684115 -0.560091 -1.563926
51  0.152561 -38.616215 -21.000004  -0.000000 0.000000 3.141593
52  0.152561 -25.166061 -36.000004  -1.570796 -0.000000 1.570796
53  0.433020 -11.755867 -21.000002  -0.051945 0.000000 1.570796
54  -6.710559 -9.781713 -10.497789  1.561570 -0.036918 -1.551619
55  9.999998 -0.000000 -0.000000  0.000000 -0.000000 -0.000000
56  29.620382 2.666867 0.000002  0.000000 -0.000000 -0.000000
57  3.664049 2.228526 -2.524776  1.570796 0.732815 -1.570796
58  3.490276 2.388511 1.331887  0.000000 1.570796 0.000000
time 4
0  0 0 0  0 0 0
1  0.000000 0.000000 0.000000  1.570796 -0.000000 0.000000
2  -1.843768 -8.254290 -10.627092  1.495831 -0.037042 -2.258653
3  0.000001 13.479276 0.000000  0.214915 0.000000 -0.000000
4  0.000000 13.477238 0.000000  -0.188001 -0.246796 0.174165
5  -0.267270 3.664726 -1.953293  0.570287 -0.108989 -1.360402
6  0.000001 1.180356 -0.000001  -0.005540 -0.036957 -1.399219
7  -0.000001 0.817135 -0.000001  0.012298 -0.000007 -1.214275
8  -0.249424 3.688539 -0.940889  0.326191 -0.061559 -1.352632
9  -0.000001 1.800633 -0.000000  -0.000262 0.005352 -1.430232
10  0.000001 1.243405 -0.000000  0.002269 0.006116 -1.286349
11  -0.244727 3.701093 0.087733  0.221244 0.005544 -1.361062
12  -0.000000 1.766585 0.000000  0.004189 0.001125 -1.481426
13  -0.000000 1.189004 0.000000  -0.004182 -0.017197 -1.374176
14  -0.277240 3.632246 1.274102  0.115075 0.054750 -1.366492
15  -0.000003 1.798495 -0.000000  0.002394 0.037772 -1.507786
16  0.000000 1.235453 -0.000001  -0.008167 -0.002510 -1.289887
17  0.315440 0.857300 0.755943  -0.761000 2.412031 -1.377325
18  -0.000001 2.265939 0.000001  -0.016207 -0.064542 -1.048595
19  -0.000000 1.457813 -0.000000  -0.051901 0.018546 -0.626230
20  -1.259682 3.818375 1.286946  0.115075 0.054750 -1.366492
21  -1.226391 3.891693 0.090419  0.221244 0.005544 -1.361061
22  -1.231624 3.875534 -0.958681  0.326191 -0.061560 -1.352632
23  -1.209920 3.994781 -2.003048  0.570288 -0.108989 -1.360402
24  0.328905 0.095428 1.403532  -0.761000 2.412031 -1.377326
25  -1.886484 -6.935212 16.141422  1.572576 -0.168386 -2.531170
26  13.824293 -20.103218 10.765717  -1.570796 -0.000000 -1.570796
27  -1.843768 -8.254290 -10.627092  -0.051945 -0.000000 -1.570796
28  0.433020 -11.755867 -21.000002  -0.083842 -0.009362 3.131152
29  0.000000 13.479277 -0.000002  0.167696 0.000000 0.000000
30  0.000000 13.477240 0.000001  -0.083756 0.010203 0.009620
31  0.267270 3.664728 -1.953293  -0.106568 0.025893 0.137951
32  -0.000000 1.180357 -0.000001  -0.036623 0.007435 0.177465
33  -0.000002 0.817138 0.000001  0.004200 0.011559 -0.007420
34  0.249423 3.688543 -0.940890  -0.060580 0.013550 0.130737
35  0.000001 1.800635 -0.000001  0.004940 -0.002077 0.208495
36  -0.000001 1.243411 0.000002  0.006524 0.000040 0.064626
37  0.244726 3.701097 0.087732  0.005036 -0.002373 0.139323
38  -0.000000 1.766588 -0.000002  0.002490 0.003552 0.259702
39  -0.000000 1.189003 0.000001  -0.017590 0.001952 0.152464
40  0.277239 3.632249 1.274101  0.054558 -0.010184 0.144732
41  -0.000001 1.798490 -0.000003  0.036314 -0.010668 0.285912
42  -0.000001 1.235457 0.000001  -0.005152 -0.006816 0.068190
43  -0.315441 0.857301 0.755942  1.684115 -0.560091 -1.563926
44  -0.000000 2.265939 0.000000  -0.057905 0.032805 0.238898
45  0.000001 1.457813 0.000000  -0.029609 -0.046490 -0.034285
46  1.259681 3.818376 1.286945  0.054558 -0.010184 0.144732
47  1.226391 3.891695 0.090419  0.005036 -0.002373 0.139324
48  1.231623 3.875536 -0.958680  -0.060580 0.013550 0.130737
49  1.209919 3.994783 -2.003048  -0.106568 0.025893 0.137951
50  -0.328906 0.095430 1.403531  1.684115 -0.560091 -1.563926
51  0.152561 -38.616215 -21.000004  -0.000000 0.000000 3.141593
52  0.152561 -25.166061 -36.000004  -1.570796 -0.000000 1.570796
53  0.433020 -11.755867 -21.000002  -0.051945 0.000000 1.570796
54  -6.705746 -10.120841 -10.485520  1.552791 -0.029246 -1.549810
55  9.999997 0.000002 -0.000001  0.000000 -0.000000 -0.000000
56  29.620382 2.666868 0.000001  0.000000 -0.000000 -0.000000
57  3.664051 2.228528 -2.524776  1.453858 0.725142 -1.746098
58  3.490278 2.388511 1.331886  0.000000 1.570796 0.000000
time 5
0  0 0 0  0 0 0
1  0.000000 0.000000 0.000000  1.570796 -0.000000 0.000000
2  -1.843768 -8.254290 -10.409547  1.495552 -0.036671 -2.257842
3  0.000001 13.479277 0.000000  0.215027 0.000000 -0.000000
4  -0.000000 13.477240 -0.000001  -0.189752 -0.246508 0.172447
5  -0.267270 3.664727 -1.953293  0.570288 -0.108989 -1.360402
6  -0.000003 1.180355 -0.000001  -0.005540 -0.036957 -1.399219
7  0.000001 0.817136 0.000001  0.012298 -0.000007 -1.214275
8  -0.249423 3.688543 -0.940889  0.326191 -0.061559 -1.352632
9  -0.000001 1.800633 0.000000  -0.000262 0.005352 -1.430232
10  -0.000000 1.243406 0.000000  0.002269 0.006116 -1.286349
11  -0.244727 3.701097 0.087733  0.221244 0.005544 -1.361062
12  -0.000001 1.766585 -0.000000  0.004189 0.001125 -1.481426
13  -0.000001 1.189004 -0.000001  -0.004182 -0.017197 -1.374176
14  -0.277240 3.632249 1.274102  0.115075 0.054750 -1.366492
15  -0.000001 1.798494 0.000000  0.002394 0.037772 -1.507786
16  0.000000 1.235452 0.000000  -0.008167 -0.002510 -1.289887
17  0.315440 0.857302 0.755944  -0.761000 2.412031 -1.377325
18  0.000001 2.265940 0.000000  -0.016207 -0.064542 -1.048595
19  0.000000 1.457810 -0.000000  -0.051901 0.018546 -0.626230
20  -1.259682 3.818377 1.286945  0.115075 0.054750 -1.366492
21  -1.226391 3.891694 0.090419  0.221244 0.005544 -1.361061
22  -1.231623 3.875535 -0.958681  0.326191 -0.061560 -1.352632
23  -1.209919 3.994783 -2.003048  0.570288 -0.108989 -1.360402
24  0.328906 0.095430 1.403533  -0.761000 2.412031 -1.377325
25  -1.889220 -6.946717 16.359365  1.570040 -0.166492 -2.529716
26  13.824293 -20.103218 10.765717  -1.570796 -0.000000 -1.570796
27  -1.843768 -8.254290 -10.409547  -0.051945 -0.000000 -1.570796
28  0.433020 -11.755867 -21.000002  -0.083842 -0.009362 3.131152
29  0.000000 13.479277 -0.000002  0.167696 0.000000 0.000000
30  0.000000 13.477240 0.000001  -0.083756 0.010203 0.009620
31  0.267270 3.664728 -1.953293  -0.106568 0.025893 0.137951
32  -0.000000 1.180357 -0.000001  -0.036623 0.007435 0.177465
33  -0.000002 0.817138 0.000001  0.004200 0.011559 -0.007420
34  0.249423 3.688543 -0.940890  -0.060580 0.013550 0.130737
35  0.000001 1.800635 -0.000001  0.004940 -0.002077 0.208495
36  -0.000001 1.243411 0.000002  0.006524 0.000040 0.064626
37  0.244726 3.701097 0.087732  0.005036 -0.002373 0.139323
38  -0.000000 1.766588 -0.000002  0.002490 0.003552 0.259702
39  -0.000000 1.189003 0.000001  -0.017590 0.001952 0.152464
40  0.277239 3.632249 1.274101  0.054558 -0.010184 0.144732
41  -0.000001 1.798490 -0.000003  0.036314 -0.010668 0.285912
42  -0.000001 1.235457 0.000001  -0.005152 -0.006816 0.068190
43  -0.315441 0.857301 0.755942  1.684115 -0.560091 -1.563926
44  -0.000000 2.265939 0.000000  -0.057905 0.032805 0.238898
45  0.000001 1.457813 0.000000  -0.029609 -0.046490 -0.034285
46  1.259681 3.818376 1.286945  0.054558 -0.010184 0.144732
47  1.226391 3.891695 0.090419  0.005036 -0.002373 0.139324
48  1.231623 3.875536 -0.958680  -0.060580 0.013550 0.130737
49  1.209919 3.994783 -2.003048  -0.106568 0.025893 0.137951
50  -0.328906 0.095430 1.403531  1.684115 -0.560091 -1.563926
51  0.152561 -38.616215 -21.000004  -0.000000 0.000000 3.141593
52  0.152561 -25.166061 -36.000004  -1.570796 -0.000000 1.570796
53  0.433020 -11.755867 -21.000002  -0.051945 0.000000 1.570796
54  -6.704125 -10.327117 -10.483106  1.553889 -0.026134 -1.549957
55  9.999998 0.000001 0.000000  0.000000 -0.000000 -0.000000
56  29.620380 2.666868 0.000002  0.000000 -0.000000 -0.000000
57  3.664050 2.228528 -2.524775  1.341940 0.702556 -1.916784
58  3.490277 2.388512 1.331887  0.000000 1.570796 0.000000
time 6
0  0 0 0  0 0 0
1  0.000000 0.000000 0.000000  1.570796 -0.000000 0.000000
2  -1.843767 -8.254290 -10.213081  1.494339 -0.036479 -2.257269
3  0.000002 13.479278 -0.000000  0.218040 0.000000 -0.000000
4  0.000000 13.477236 0.000000  -0.192459 -0.244115 0.170957
5  -0.267269 3.664724 -1.953293  0.570288 -0.108989 -1.360402
6  0.000001 1.180354 -0.000001  -0.005540 -0.036957 -1.399219
7  -0.000001 0.817135 -0.000001  0.012298 -0.000007 -1.214275
8  -0.249422 3.688539 -0.940889  0.326191 -0.061560 -1.352632
9  0.000001 1.800632 0.000001  -0.000262 0.005352 -1.430231
10  0.000000 1.243406 -0.000000  0.002269 0.006116 -1.286349
11  -0.244726 3.701093 0.087733  0.221244 0.005544 -1.361062
12  0.000001 1.766584 0.000000  0.004189 0.001125 -1.481426
13  0.000001 1.189004 0.000001  -0.004182 -0.017197 -1.374176
14  -0.277239 3.632246 1.274102  0.115075 0.054751 -1.366492
15  0.000002 1.798493 0.000000  0.002394 0.037772 -1.507786
16  -0.000001 1.235450 0.000000  -0.008167 -0.002510 -1.289887
17  0.315441 0.857299 0.755944  -0.761000 2.412031 -1.377326
18  -0.000001 2.265939 0.000000  -0.016207 -0.064542 -1.048595
19  0.000000 1.457812 0.000000  -0.051901 0.018546 -0.626230
20  -1.259681 3.818372 1.286946  0.115075 0.054750 -1.366492
21  -1.226390 3.891694 0.090419  0.221244 0.005544 -1.361061
22  -1.231623 3.875532 -0.958680  0.326191 -0.061560 -1.352632
23  -1.209919 3.994780 -2.003048  0.570287 -0.108989 -1.360402
24  0.328906 0.095427 1.403533  -0.761000 2.412031 -1.377325
25  -1.899298 -6.945969 16.551382  1.568237 -0.164857 -2.526700
26  13.824293 -20.103218 10.765717  -1.570796 -0.000000 -1.570796
27  -1.843767 -8.254290 -10.213081  -0.051945 -0.000000 -1.570796
28  0.433020 -11.755867 -21.000002  -0.083842 -0.009362 3.131152
29  0.000000 13.479277 -0.000002  0.167696 0.000000 0.000000
30  0.000000 13.477240 0.000001  -0.083756 0.010203 0.009620
31  0.267270 3.664728 -1.953293  -0.106568 0.025893 0.137951
32  -0.000000 1.180357 -0.000001  -0.036623 0.007435 0.177465
33  -0.000002 0.817138 0.000001  0.004200 0.011559 -0.007420
34  0.249423 3.688543 -0.940890  -0.060580 0.013550 0.130737
35  0.000001 1.800635 -0.000001  0.004940 -0.002077 0.208495
36  -0.000001 1.243411 0.000002  0.006524 0.000040 0.064626
37  0.244726 3.701097 0.087732  0.005036 -0.002373 0.139323
38  -0.000000 1.766588 -0.000002  0.002490 0.003552 0.259702
39  -0.000000 1.189003 0.000001  -0.017590 0.001952 0.152464
40  0.277239 3.632249 1.274101  0.054558 -0.010184 0.144732
41  -0.000001 1.798490 -0.000003  0.036314 -0.010668 0.285912
42  -0.000001 1.235457 0.000001  -0.005152 -0.006816 0.068190
43  -0.315441 0.857301 0.755942  1.684115 -0.560091 -1.563926
44  -0.000000 2.265939 0.000000  -0.057905 0.032805 0.238898
45  0.000001 1.457813 0.000000  -0.029609 -0.046490 -0.034285
46  1.259681 3.818376 1.286945  0.054558 -0.010184 0.144732
47  1.226391 3.891695 0.090419  0.005036 -0.002373 0.139324
48  1.231623 3.875536 -0.958680  -0.060580 0.013550 0.130737
49  1.209919 3.994783 -2.003048  -0.106568 0.025893 0.137951
50  -0.328906 0.095430 1.403531  1.684115 -0.560091 -1.563926
51  0.152561 -38.616215 -21.000004  -0.000000 0.000000 3.141593
52  0.152561 -25.166061 -36.000004  -1.570796 -0.000000 1.570796
53  0.433020 -11.755867 -21.000002  -0.051945 0.000000 1.570796
54  -6.702695 -10.509155 -10.480974  1.556658 -0.023795 -1.550340
55  9.999998 -0.000001 -0.000001  0.000000 -0.000000 -0.000000
56  29.620378 2.666866 0.000001  0.000000 -0.000000 -0.000000
57  3.664051 2.228524 -2.524776  1.453858 0.725142 -1.746098
58  3.490277 2.388509 1.331886  0.000000 1.570796 0.000000
time 7
0  0 0 0  0 0 0
1  0.000000 0.000000 0.000000  1.570796 -0.000000 0.000000
2  -1.843678 -8.254290 -10.040269  1.493437 -0.036420 -2.256887
3  0.000002 13.479277 -0.000000  0.221163 0.000000 -0.000000
4  -0.000001 13.477238 -0.000000  -0.194796 -0.240451 0.169454
5  -0.267270 3.664726 -1.953293  0.570288 -0.108989 -1.360402
6  -0.000000 1.180355 0.000001  -0.005540 -0.036957 -1.399219
7  -0.000000 0.817136 0.000001  0.012298 -0.000007 -1.214275
8  -0.249423 3.688543 -0.940889  0.326191 -0.061560 -1.352632
9  0.000002 1.800632 -0.000000  -0.000262 0.005352 -1.430231
10  -0.000001 1.243404 0.000000  0.002269 0.006116 -1.286349
11  -0.244727 3.701096 0.087733  0.221244 0.005544 -1.361062
12  0.000000 1.766584 -0.000000  0.004189 0.001125 -1.481426
13  -0.000000 1.189005 0.000000  -0.004182 -0.017197 -1.374176
14  -0.277240 3.632249 1.274102  0.115075 0.054750 -1.366492
15  0.000001 1.798494 -0.000001  0.002394 0.037772 -1.507786
16  0.000001 1.235452 0.000001  -0.008167 -0.002510 -1.289887
17  0.315440 0.857301 0.755944  -0.761000 2.412031 -1.377326
18  -0.000000 2.265939 -0.000000  -0.016207 -0.064542 -1.048595
19  -0.000000 1.457812 0.000000  -0.051901 0.018546 -0.626230
20  -1.259682 3.818375 1.286946  0.115075 0.054750 -1.366492
21  -1.226391 3.891694 0.090419  0.221244 0.005544 -1.361061
22  -1.231624 3.875535 -0.958680  0.326191 -0.061560 -1.352632
23  -1.209920 3.994783 -2.003048  0.570287 -0.108989 -1.360402
24  0.328905 0.095429 1.403532  -0.761000 2.412031 -1.377325
25  -1.914376 -6.936276 16.719067  1.567052 -0.163474 -2.522662
26  13.824293 -20.103218 10.765717  -1.570796 -0.000000 -1.570796
27  -1.843678 -8.254290 -10.040269  -0.051945 -0.000000 -1.570796
28  0.433020 -11.755867 -21.000002  -0.083842 -0.009362 3.131152
29  0.000000 13.479277 -0.000002  0.167696 0.000000 0.000000
30  0.000000 13.477240 0.000001  -0.083756 0.010203 0.009620
31  0.267270 3.664728 -1.953293  -0.106568 0.025893 0.137951
32  -0.000000 1.180357 -0.000001  -0.036623 0.007435 0.177465
33  -0.000002 0.817138 0.000001  0.004200 0.011559 -0.007420
34  0.249423 3.688543 -0.940890  -0.060580 0.013550 0.130737
35  0.000001 1.800635 -0.000001  0.004940 -0.002077 0.208495
36  -0.000001 1.243411 0.000002  0.006524 0.000040 0.064626
37  0.244726 3.701097 0.087732  0.005036 -0.002373 0.139323
38  -0.000000 1.766588 -0.000002  0.002490 0.003552 0.259702
39  -0.000000 1.189003 0.000001  -0.017590 0.001952 0.152464
40  0.277239 3.632249 1.274101  0.054558 -0.010184 0.144732
41  -0.000001 1.798490 -0.000003  0.036314 -0.010668 0.285912
42  -0.000001 1.235457 0.000001  -0.005152 -0.006816 0.068190
43  -0.315441 0.857301 0.755942  1.684115 -0.560091 -1.563926
44  -0.000000 2.265939 0.000000  -0.057905 0.032805 0.238898
45  0.000001 1.457813 0.000000  -0.029609 -0.046490 -0.034285
46  1.259681 3.818376 1.286945  0.054558 -0.010184 0.144732
47  1.226391 3.891695 0.090419  0.005036 -0.002373 0.139324
48  1.231623 3.875536 -0.958680  -0.060580 0.013550 0.130737
49  1.209919 3.994783 -2.003048  -0.106568 0.025893 0.137951
50  -0.328906 0.095430 1.403531  1.684115 -0.560091 -1.563926
51  0.152561 -38.616215 -21.000004  -0.000000 0.000000 3.141593
52  0.152561 -25.166061 -36.000004  -1.570796 -0.000000 1.570796
53  0.433020 -11.755867 -21.000002  -0.051945 0.000000 1.570796
54  -6.701443 -10.668470 -10.479110  1.560537 -0.022119 -1.550880
55  9.999997 0.000000 -0.000001  0.000000 -0.000000 -0.000000
56  29.620380 2.666866 0.000001  0.000000 -0.000000 -0.000000
57  3.664050 2.228526 -2.524776  1.570796 0.732815 -1.570796
58  3.490276 2.388510 1.331886  0.000000 1.570796 0.000000
time 8
0  0 0 0  0 0 0
1  0.000000 0.000000 0.000000  1.570796 -0.000000 0.000000
2  -1.843617 -8.254290 -9.895489  1.494619 -0.036450 -2.256653
3  0.000002 13.479277 -0.000000  0.220533 0.000000 -0.000000
4  -0.000000 13.477239 -0.000000  -0.194886 -0.236428 0.167591
5  -0.267269 3.664724 -1.953293  0.570288 -0.108989 -1.360402
6  -0.000001 1.180355 -0.000000  -0.005540 -0.036957 -1.399219
7  0.000000 0.817138 -0.000001  0.012298 -0.000007 -1.214275
8  -0.249422 3.688541 -0.940889  0.326191 -0.061560 -1.352632
9  -0.000000 1.800633 -0.000001  -0.000262 0.005352 -1.430231
10  0.000001 1.243407 -0.000001  0.002269 0.006116 -1.286349
11  -0.244726 3.701094 0.087733  0.221244 0.005544 -1.361061
12  -0.000001 1.766585 0.000000  0.004189 0.001125 -1.481426
13  0.000001 1.189004 -0.000000  -0.004182 -0.017197 -1.374175
14  -0.277238 3.632248 1.274102  0.115075 0.054751 -1.366492
15  -0.000000 1.798495 -0.000000  0.002394 0.037772 -1.507786
16  -0.000001 1.235451 -0.000000  -0.008167 -0.002510 -1.289887
17  0.315442 0.857298 0.755944  -0.761000 2.412031 -1.377326
18  0.000001 2.265939 0.000000  -0.016207 -0.064542 -1.048595
19  0.000000 1.457811 0.000000  -0.051901 0.018546 -0.626230
20  -1.259680 3.818373 1.286946  0.115075 0.054750 -1.366492
21  -1.226390 3.891691 0.090419  0.221244 0.005544 -1.361061
22  -1.231622 3.875535 -0.958680  0.326191 -0.061560 -1.352632
23  -1.209918 3.994782 -2.003048  0.570288 -0.108989 -1.360402
24  0.328907 0.095428 1.403533  -0.761000 2.412031 -1.377325
25  -1.932099 -6.920937 16.863970  1.566364 -0.162344 -2.518145
26  13.824293 -20.103218 10.765717  -1.570796 -0.000000 -1.570796
27  -1.843617 -8.254290 -9.895489  -0.051945 -0.000000 -1.570796
28  0.433020 -11.755867 -21.000002  -0.083842 -0.009362 3.131152
29  0.000000 13.479277 -0.000002  0.167696 0.000000 0.000000
30  0.000000 13.477240 0.000001  -0.083756 0.010203 0.009620
31  0.267270 3.664728 -1.953293  -0.106568 0.025893 0.137951
32  -0.000000 1.180357 -0.000001  -0.036623 0.007435 0.177465
33  -0.000002 0.817138 0.000001  0.004200 0.011559 -0.007420
34  0.249423 3.688543 -0.940890  -0.060580 0.013550 0.130737
35  0.000001 1.800635 -0.000001  0.004940 -0.002077 0.208495
36  -0.000001 1.243411 0.000002  0.006524 0.000040 0.064626
37  0.244726 3.701097 0.087732  0.005036 -0.002373 0.139323
38  -0.000000 1.766588 -0.000002  0.002490 0.003552 0.259702
39  -0.000000 1.189003 0.000001  -0.017590 0.001952 0.152464
40  0.277239 3.632249 1.274101  0.054558 -0.010184 0.144732
41  -0.000001 1.798490 -0.000003  0.036314 -0.010668 0.285912
42  -0.000001 1.235457 0.000001  -0.005152 -0.006816 0.068190
43  -0.315441 0.857301 0.755942  1.684115 -0.560091 -1.563926
44  -0.000000 2.265939 0.000000  -0.057905 0.032805 0.238898
45  0.000001 1.457813 0.000000  -0.029609 -0.046490 -0.034285
46  1.259681 3.818376 1.286945  0.054558 -0.010184 0.144732
47  1.226391 3.891695 0.090419  0.005036 -0.002373 0.139324
48  1.231623 3.875536 -0.958680  -0.060580 0.013550 0.130737
49  1.209919 3.994783 -2.003048  -0.106568 0.025893 0.137951
50  -0.328906 0.095430 1.403531  1.684115 -0.560091 -1.563926
51  0.152561 -38.616215 -21.000004  -0.000000 0.000000 3.141593
52  0.152561 -25.166061 -36.000004  -1.570796 -0.000000 1.570796
53  0.433020 -11.755867 -21.000002  -0.051945 0.000000 1.570796
54  -6.700358 -10.806577 -10.477493  1.564966 -0.020996 -1.551499
55  9.999997 0.000000 0.000000  0.000000 -0.000000 -0.000000
56  29.620378 2.666867 0.000002  0.000000 -0.000000 -0.000000
57  3.664050 2.228527 -2.524775  1.570796 0.732815 -1.570796
58  3.490276 2.388511 1.331886  0.000000 1.570796 0.000000
time 9
0  0 0 0  0 0 0
1  0.000000 0.000000 0.000000  1.570796 -0.000000 0.000000
2  -1.843766 -8.254290 -9.773503  1.496428 -0.036543 -2.256518
3  0.000002 13.479277 -0.000000  0.218766 0.000000 -0.000000
4  -0.000001 13.477240 0.000000  -0.194152 -0.232411 0.165797
5  -0.267269 3.664727 -1.953293  0.570287 -0.108989 -1.360402
6  -0.000003 1.180355 -0.000001  -0.005540 -0.036957 -1.399219
7  0.000000 0.817137 -0.000000  0.012298 -0.000007 -1.214275
8  -0.249422 3.688544 -0.940889  0.326191 -0.061559 -1.352632
9  0.000001 1.800633 0.000000  -0.000262 0.005352 -1.430232
10  0.000001 1.243409 0.000000  0.002269 0.006116 -1.286349
11  -0.244725 3.701097 0.087733  0.221244 0.005544 -1.361062
12  0.000000 1.766586 -0.000000  0.004189 0.001125 -1.481426
13  0.000000 1.189004 0.000000  -0.004182 -0.017197 -1.374176
14  -0.277239 3.632249 1.274102  0.115075 0.054751 -1.366492
15  -0.000002 1.798494 -0.000000  0.002394 0.037772 -1.507786
16  -0.000001 1.235451 0.000001  -0.008167 -0.002510 -1.289887
17  0.315442 0.857301 0.755944  -0.761000 2.412031 -1.377325
18  -0.000001 2.265940 -0.000000  -0.016207 -0.064542 -1.048595
19  0.000000 1.457813 0.000000  -0.051901 0.018546 -0.626230
20  -1.259681 3.818377 1.286945  0.115075 0.054750 -1.366492
21  -1.226390 3.891694 0.090419  0.221244 0.005544 -1.361061
22  -1.231622 3.875536 -0.958680  0.326191 -0.061560 -1.352632
23  -1.209919 3.994782 -2.003048  0.570288 -0.108989 -1.360402
24  0.328907 0.095429 1.403533  -0.761000 2.412031 -1.377325
25  -1.950067 -6.903224 16.987616  1.566049 -0.161469 -2.513690
26  13.824293 -20.103218 10.765717  -1.570796 -0.000000 -1.570796
27  -1.843766 -8.254290 -9.773503  -0.051945 -0.000000 -1.570796
28  0.433020 -11.755867 -21.000002  -0.083842 -0.009362 3.131152
29  0.000000 13.479277 -0.000002  0.167696 0.000000 0.000000
30  0.000000 13.477240 0.000001  -0.083756 0.010203 0.009620
31  0.267270 3.664728 -1.953293  -0.106568 0.025893 0.137951
32  -0.000000 1.180357 -0.000001  -0.036623 0.007435 0.177465
33  -0.000002 0.817138 0.000001  0.004200 0.011559 -0.007420
34  0.249423 3.688543 -0.940890  -0.060580 0.013550 0.130737
35  0.000001 1.800635 -0.000001  0.004940 -0.002077 0.208495
36  -0.000001 1.243411 0.000002  0.006524 0.000040 0.064626
37  0.244726 3.701097 0.087732  0.005036 -0.002373 0.139323
38  -0.000000 1.766588 -0.000002  0.002490 0.003552 0.259702
39  -0.000000 1.189003 0.000001  -0.017590 0.001952 0.152464
40  0.277239 3.632249 1.274101  0.054558 -0.010184 0.144732
41  -0.000001 1.798490 -0.000003  0.036314 -0.010668 0.285912
42  -0.000001 1.235457 0.000001  -0.005152 -0.006816 0.068190
43  -0.315441 0.857301 0.755942  1.684115 -0.560091 -1.563926
44  -0.000000 2.265939 0.000000  -0.057905 0.032805 0.238898
45  0.000001 1.457813 0.000000  -0.029609 -0.046490 -0.034285
46  1.259681 3.818376 1.286945  0.054558 -0.010184 0.144732
47  1.226391 3.891695 0.090419  0.005036 -0.002373 0.139324
48  1.231623 3.875536 -0.958680  -0.060580 0.013550 0.130737
49  1.209919 3.994783 -2.003048  -0.106568 0.025893 0.137951
50  -0.328906 0.095430 1.403531  1.684115 -0.560091 -1.563926
51  0.152561 -38.616215 -21.000004  -0.000000 0.000000 3.141593
52  0.152561 -25.166061 -36.000004  -1.570796 -0.000000 1.570796
53  0.433020 -11.755867 -21.000002  -0.051945 0.000000 1.570796
54  -6.699428 -10.924990 -10.476107  1.569386 -0.020315 -1.552118
55  9.999999 -0.000001 -0.000001  0.000000 -0.000000 -0.000000
56  29.620380 2.666867 0.000001  0.000000 -0.000000 -0.000000
57  3.664051 2.228524 -2.524776  1.570796 0.732815 -1.570796
58  3.490278 2.388510 1.331885  0.000000 1.570796 0.000000
time 10
0  0 0 0  0 0 0
1  0.000000 0.000000 0.000000  1.570796 -0.000000 0.000000
2  -1.844209 -8.254290 -9.670030  1.497735 -0.036669 -2.256443
3  0.000002 13.479277 -0.000001  0.217825 0.000000 -0.000000
4  0.000000 13.477238 -0.000000  -0.193680 -0.228823 0.164411
5  -0.267269 3.664727 -1.953292  0.570287 -0.108989 -1.360402
6  0.000001 1.180355 0.000000  -0.005540 -0.036957 -1.399218
7  -0.000001 0.817138 0.000000  0.012298 -0.000007 -1.214275
8  -0.249423 3.688541 -0.940888  0.326191 -0.061560 -1.352632
9  0.000001 1.800634 -0.000000  -0.000262 0.005352 -1.430231
10  0.000001 1.243407 0.000001  0.002269 0.006116 -1.286349
11  -0.244727 3.701096 0.087734  0.221244 0.005544 -1.361061
12  -0.000001 1.766585 -0.000000  0.004189 0.001125 -1.481426
13  0.000000 1.189004 0.000001  -0.004182 -0.017197 -1.374176
14  -0.277239 3.632247 1.274103  0.115075 0.054750 -1.366492
15  0.000001 1.798494 0.000000  0.002394 0.037772 -1.507786
16  -0.000000 1.235450 -0.000000  -0.008167 -0.002510 -1.289887
17  0.315441 0.857299 0.755944  -0.761000 2.412031 -1.377325
18  0.000000 2.265941 0.000000  -0.016207 -0.064542 -1.048595
19  0.000000 1.457811 0.000000  -0.051901 0.018546 -0.626230
20  -1.259681 3.818374 1.286946  0.115075 0.054750 -1.366492
21  -1.226391 3.891691 0.090420  0.221244 0.005544 -1.361061
22  -1.231623 3.875536 -0.958679  0.326191 -0.061560 -1.352632
23  -1.209919 3.994780 -2.003047  0.570287 -0.108989 -1.360402
24  0.328906 0.095429 1.403533  -0.761000 2.412031 -1.377325
25  -1.965840 -6.886384 17.091551  1.565980 -0.160848 -2.509836
26  13.824293 -20.103218 10.765717  -1.570796 -0.000000 -1.570796
27  -1.844209 -8.254290 -9.670030  -0.051945 -0.000000 -1.570796
28  0.433020 -11.755867 -21.000002  -0.083842 -0.009362 3.131152
29  0.000000 13.479277 -0.000002  0.167696 0.000000 0.000000
30  0.000000 13.477240 0.000001  -0.083756 0.010203 0.009620
31  0.267270 3.664728 -1.953293  -0.106568 0.025893 0.137951
32  -0.000000 1.180357 -0.000001  -0.036623 0.007435 0.177465
33  -0.000002 0.817138 0.000001  0.004200 0.011559 -0.007420
34  0.249423 3.688543 -0.940890  -0.060580 0.013550 0.130737
35  0.000001 1.800635 -0.000001  0.004940 -0.002077 0.208495
36  -0.000001 1.243411 0.000002  0.006524 0.000040 0.064626
37  0.244726 3.701097 0.087732  0.005036 -0.002373 0.139323
38  -0.000000 1.766588 -0.000002  0.002490 0.003552 0.259702
39  -0.000000 1.189003 0.000001  -0.017590 0.001952 0.152464
40  0.277239 3.632249 1.274101  0.054558 -0.010184 0.144732
41  -0.000001 1.798490 -0.000003  0.036314 -0.010668 0.285912
42  -0.000001 1.235457 0.000001  -0.005152 -0.006816 0.068190
43  -0.315441 0.857301 0.755942  1.684115 -0.560091 -1.563926
44  -0.000000 2.265939 0.000000  -0.057905 0.032805 0.238898
45  0.000001 1.457813 0.000000  -0.029609 -0.046490 -0.034285
46  1.259681 3.818376 1.286945  0.054558 -0.010184 0.144732
47  1.226391 3.891695 0.090419  0.005036 -0.002373 0.139324
48  1.231623 3.875536 -0.958680  -0.060580 0.013550 0.130737
49  1.209919 3.994783 -2.003048  -0.106568 0.025893 0.137951
50  -0.328906 0.095430 1.403531  1.684115 -0.560091 -1.563926
51  0.152561 -38.616215 -21.000004  -0.000000 0.000000 3.141593
52  0.152561 -25.166061 -36.000004  -1.570796 -0.000000 1.570796
53  0.433020 -11.755867 -21.000002  -0.051945 0.000000 1.570796
54  -6.698640 -11.025225 -10.474934  1.573236 -0.019965 -1.552657
55  9.999998 0.000002 -0.000001  0.000000 -0.000000 -0.000000
56  29.620382 2.666869 0.000001  0.000000 -0.000000 -0.000000
57  3.664052 2.228528 -2.524776  1.570796 0.732815 -1.570796
58  3.490278 2.388512 1.331885  0.000000 1.570796 0.000000
time 11
0  0 0 0  0 0 0
1  0.000000 0.000000 0.000000  1.570796 -0.000000 0.000000
2  -1.844629 -8.254290 -9.584623  1.498701 -0.036786 -2.256392
3  0.000000 13.479276 -0.000001  0.217105 0.000000 -0.000000
4  -0.000000 13.477239 0.000001  -0.193259 -0.226292 0.163475
5  -0.267269 3.664726 -1.953294  0.570287 -0.108989 -1.360402
6  0.000000 1.180355 -0.000001  -0.005540 -0.036957 -1.399219
7  0.000000 0.817138 0.000000  0.012298 -0.000007 -1.214275
8  -0.249423 3.688541 -0.940889  0.326191 -0.061559 -1.352632
9  0.000001 1.800633 -0.000000  -0.000262 0.005352 -1.430232
10  0.000000 1.243404 0.000000  0.002269 0.006116 -1.286349
11  -0.244726 3.701093 0.087732  0.221244 0.005544 -1.361061
12  0.000002 1.766583 0.000000  0.004189 0.001125 -1.481426
13  0.000000 1.189003 -0.000001  -0.004182 -0.017197 -1.374175
14  -0.277239 3.632246 1.274102  0.115075 0.054751 -1.366492
15  -0.000000 1.798495 0.000000  0.002394 0.037772 -1.507786
16  0.000001 1.235449 -0.000000  -0.008167 -0.002510 -1.289887
17  0.315441 0.857297 0.755943  -0.760999 2.412031 -1.377325
18  0.000000 2.265938 0.000000  -0.016207 -0.064542 -1.048595
19  0.000001 1.457810 0.000000  -0.051901 0.018546 -0.626230
20  -1.259681 3.818372 1.286945  0.115075 0.054750 -1.366492
21  -1.226390 3.891692 0.090419  0.221244 0.005544 -1.361061
22  -1.231623 3.875533 -0.958681  0.326191 -0.061560 -1.352632
23  -1.209919 3.994780 -2.003048  0.570288 -0.108989 -1.360402
24  0.328906 0.095427 1.403532  -0.761000 2.412031 -1.377325
25  -1.976939 -6.873636 17.177307  1.566032 -0.160479 -2.507127
26  13.824293 -20.103218 10.765717  -1.570796 -0.000000 -1.570796
27  -1.844629 -8.254290 -9.584623  -0.051945 -0.000000 -1.570796
28  0.433020 -11.755867 -21.000002  -0.083842 -0.009362 3.131152
29  0.000000 13.479277 -0.000002  0.167696 0.000000 0.000000
30  0.000000 13.477240 0.000001  -0.083756 0.010203 0.009620
31  0.267270 3.664728 -1.953293  -0.106568 0.025893 0.137951
32  -0.000000 1.180357 -0.000001  -0.036623 0.007435 0.177465
33  -0.000002 0.817138 0.000001  0.004200 0.011559 -0.007420
34  0.249423 3.688543 -0.940890  -0.060580 0.013550 0.130737
35  0.000001 1.800635 -0.000001  0.004940 -0.002077 0.208495
36  -0.000001 1.243411 0.000002  0.006524 0.000040 0.064626
37  0.244726 3.701097 0.087732  0.005036 -0.002373 0.139323
38  -0.000000 1.766588 -0.000002  0.002490 0.003552 0.259702
39  -0.000000 1.189003 0.000001  -0.017590 0.001952 0.152464
40  0.277239 3.632249 1.274101  0.054558 -0.010184 0.144732
41  -0.000001 1.798490 -0.000003  0.036314 -0.010668 0.285912
42  -0.000001 1.235457 0.000001  -0.005152 -0.006816 0.068190
43  -0.315441 0.857301 0.755942  1.684115 -0.560091 -1.563926
44  -0.000000 2.265939 0.000000  -0.057905 0.032805 0.238898
45  0.000001 1.457813 0.000000  -0.029609 -0.046490 -0.034285
46  1.259681 3.818376 1.286945  0.054558 -0.010184 0.144732
47  1.226391 3.891695 0.090419  0.005036 -0.002373 0.139324
48  1.231623 3.875536 -0.958680  -0.060580 0.013550 0.130737
49  1.209919 3.994783 -2.003048  -0.106568 0.025893 0.137951
50  -0.328906 0.095430 1.403531  1.684115 -0.560091 -1.563926
51  0.152561 -38.616215 -21.000004  -0.000000 0.000000 3.141593
52  0.152561 -25.166061 -36.000004  -1.570796 -0.000000 1.570796
53  0.433020 -11.755867 -21.000002  -0.051945 0.000000 1.570796
54  -6.697984 -11.108795 -10.473955  1.575957 -0.019837 -1.553039
55  10.000000 0.000000 -0.000001  0.000000 -0.000000 -0.000000
56  29.620384 2.666867 0.000001  0.000000 -0.000000 -0.000000
57  3.664051 2.228527 -2.524776  1.570796 0.732815 -1.570796
58  3.490278 2.388511 1.331886  0.000000 1.570796 0.000000
time 12
0  0 0 0  0 0 0
1  0.000000 0.000000 0.000000  1.570796 -0.000000 0.000000
2  -1.844620 -8.254290 -9.517798  1.499837 -0.036849 -2.256332
3  0.000002 13.479276 0.000000  0.215307 0.000000 -0.000000
4  0.000000 13.477236 0.000001  -0.192323 -0.225496 0.162957
5  -0.267269 3.664730 -1.953292  0.570288 -0.108989 -1.360402
6  -0.000000 1.180356 0.000001  -0.005540 -0.036957 -1.399219
7  0.000001 0.817138 -0.000001  0.012298 -0.000007 -1.214275
8  -0.249422 3.688545 -0.940888  0.326191 -0.061560 -1.352632
9  -0.000001 1.800635 0.000000  -0.000262 0.005352 -1.430232
10  0.000001 1.243406 0.000000  0.002269 0.006116 -1.286349
11  -0.244726 3.701097 0.087734  0.221244 0.005544 -1.361061
12  -0.000000 1.766584 0.000000  0.004189 0.001125 -1.481426
13  -0.000001 1.189004 -0.000001  -0.004182 -0.017197 -1.374176
14  -0.277240 3.632250 1.274103  0.115075 0.054750 -1.366492
15  0.000000 1.798495 0.000000  0.002394 0.037772 -1.507786
16  0.000000 1.235452 -0.000000  -0.008167 -0.002510 -1.289887
17  0.315441 0.857302 0.755944  -0.761000 2.412031 -1.377325
18  -0.000000 2.265940 -0.000000  -0.016207 -0.064542 -1.048595
19  -0.000000 1.457812 0.000000  -0.051901 0.018546 -0.626230
20  -1.259681 3.818377 1.286946  0.115075 0.054750 -1.366492
21  -1.226391 3.891696 0.090420  0.221244 0.005544 -1.361061
22  -1.231623 3.875537 -0.958679  0.326191 -0.061560 -1.352632
23  -1.209919 3.994783 -2.003047  0.570288 -0.108989 -1.360402
24  0.328906 0.095432 1.403533  -0.761000 2.412031 -1.377326
25  -1.980870 -6.868194 17.246449  1.566076 -0.160357 -2.506103
26  13.824293 -20.103218 10.765717  -1.570796 -0.000000 -1.570796
27  -1.844620 -8.254290 -9.517798  -0.051945 -0.000000 -1.570796
28  0.433020 -11.755867 -21.000002  -0.083842 -0.009362 3.131152
29  0.000000 13.479277 -0.000002  0.167696 0.000000 0.000000
30  0.000000 13.477240 0.000001  -0.083756 0.010203 0.009620
31  0.267270 3.664728 -1.953293  -0.106568 0.025893 0.137951
32  -0.000000 1.180357 -0.000001  -0.036623 0.007435 0.177465
33  -0.000002 0.817138 0.000001  0.004200 0.011559 -0.007420
34  0.249423 3.688543 -0.940890  -0.060580 0.013550 0.130737
35  0.000001 1.800635 -0.000001  0.004940 -0.002077 0.208495
36  -0.000001 1.243411 0.000002  0.006524 0.000040 0.064626
37  0.244726 3.701097 0.087732  0.005036 -0.002373 0.139323
38  -0.000000 1.766588 -0.000002  0.002490 0.003552 0.259702
39  -0.000000 1.189003 0.000001  -0.017590 0.001952 0.152464
40  0.277239 3.632249 1.274101  0.054558 -0.010184 0.144732
41  -0.000001 1.798490 -0.000003  0.036314 -0.010668 0.285912
42  -0.000001 1.235457 0.000001  -0.005152 -0.006816 0.068190
43  -0.315441 0.857301 0.755942  1.684115 -0.560091 -1.563926
44  -0.000000 2.265939 0.000000  -0.057905 0.032805 0.238898
45  0.000001 1.457813 0.000000  -0.029609 -0.046490 -0.034285
46  1.259681 3.818376 1.286945  0.054558 -0.010184 0.144732
47  1.226391 3.891695 0.090419  0.005036 -0.002373 0.139324
48  1.231623 3.875536 -0.958680  -0.060580 0.013550 0.130737
49  1.209919 3.994783 -2.003048  -0.106568 0.025893 0.137951
50  -0.328906 0.095430 1.403531  1.684115 -0.560091 -1.563926
51  0.152561 -38.616215 -21.000004  -0.000000 0.000000 3.141593
52  0.152561 -25.166061 -36.000004  -1.570796 -0.000000 1.570796
53  0.433020 -11.755867 -21.000002  -0.051945 0.000000 1.570796
54  -6.697446 -11.177217 -10.473154  1.576988 -0.019818 -1.553184
55  10.000001 -0.000001 -0.000001  0.000000 -0.000000 -0.000000
56  29.620380 2.666867 0.000001  0.000000 -0.000000 -0.000000
57  3.664052 2.228525 -2.524776  1.570796 0.732815 -1.570796
58  3.490278 2.388510 1.331886  0.000000 1.570796 0.000000
time 13
0  0 0 0  0 0 0
1  0.000000 0.000000 0.000000  1.570796 -0.000000 0.000000
2  -1.843768 -8.254290 -9.470066  1.501718 -0.036864 -2.256285
3  0.000001 13.479276 0.000000  0.211293 -0.000000 -0.000000
4  -0.000000 13.477242 -0.000000  -0.190250 -0.226584 0.162810
5  -0.267269 3.664728 -1.953293  0.570287 -0.108989 -1.360402
6  -0.000001 1.180355 -0.000001  -0.005540 -0.036957 -1.399219
7  -0.000001 0.817133 0.000002  0.012298 -0.000007 -1.214275
8  -0.249423 3.688543 -0.940889  0.326191 -0.061559 -1.352632
9  -0.000002 1.800633 -0.000001  -0.000262 0.005352 -1.430231
10  0.000000 1.243405 -0.000000  0.002269 0.006116 -1.286349
11  -0.244726 3.701097 0.087732  0.221244 0.005544 -1.361062
12  0.000001 1.766584 0.000000  0.004189 0.001125 -1.481426
13  0.000000 1.189002 0.000000  -0.004182 -0.017197 -1.374176
14  -0.277239 3.632250 1.274102  0.115075 0.054750 -1.366492
15  0.000000 1.798494 -0.000000  0.002394 0.037772 -1.507786
16  -0.000002 1.235452 0.000001  -0.008167 -0.002510 -1.289887
17  0.315441 0.857301 0.755943  -0.761000 2.412031 -1.377325
18  -0.000000 2.265940 -0.000000  -0.016207 -0.064542 -1.048595
19  0.000000 1.457813 0.000000  -0.051901 0.018546 -0.626230
20  -1.259682 3.818374 1.286945  0.115074 0.054750 -1.366492
21  -1.226391 3.891695 0.090419  0.221244 0.005544 -1.361061
22  -1.231624 3.875535 -0.958681  0.326191 -0.061560 -1.352632
23  -1.209919 3.994783 -2.003048  0.570287 -0.108989 -1.360402
24  0.328906 0.095431 1.403532  -0.761000 2.412031 -1.377325
25  -1.977248 -6.869720 17.300041  1.566197 -0.160556 -2.506857
26  13.824293 -20.103218 10.765717  -1.570796 -0.000000 -1.570796
27  -1.843768 -8.254290 -9.470066  -0.051945 -0.000000 -1.570796
28  0.433020 -11.755867 -21.000002  -0.083842 -0.009362 3.131152
29  0.000000 13.479277 -0.000002  0.167696 0.000000 0.000000
30  0.000000 13.477240 0.000001  -0.083756 0.010203 0.009620
31  0.267270 3.664728 -1.953293  -0.106568 0.025893 0.137951
32  -0.000000 1.180357 -0.000001  -0.036623 0.007435 0.177465
33  -0.000002 0.817138 0.000001  0.004200 0.011559 -0.007420
34  0.249423 3.688543 -0.940890  -0.060580 0.013550 0.130737
35  0.000001 1.800635 -0.000001  0.004940 -0.002077 0.208495
36  -0.000001 1.243411 0.000002  0.006524 0.000040 0.064626
37  0.244726 3.701097 0.087732  0.005036 -0.002373 0.139323
38  -0.000000 1.766588 -0.000002  0.002490 0.003552 0.259702
39  -0.000000 1.189003 0.000001  -0.017590 0.001952 0.152464
40  0.277239 3.632249 1.274101  0.054558 -0.010184 0.144732
41  -0.000001 1.798490 -0.000003  0.036314 -0.010668 0.285912
42  -0.000001 1.235457 0.000001  -0.005152 -0.006816 0.068190
43  -0.315441 0.857301 0.755942  1.684115 -0.560091 -1.563926
44  -0.000000 2.265939 0.000000  -0.057905 0.032805 0.238898
45  0.000001 1.457813 0.000000  -0.029609 -0.046490 -0.034285
46  1.259681 3.818376 1.286945  0.054558 -0.010184 0.144732
47  1.226391 3.891695 0.090419  0.005036 -0.002373 0.139324
48  1.231623 3.875536 -0.958680  -0.060580 0.013550 0.130737
49  1.209919 3.994783 -2.003048  -0.106568 0.025893 0.137951
50  -0.328906 0.095430 1.403531  1.684115 -0.560091 -1.563926
51  0.152561 -38.616215 -21.000004  -0.000000 0.000000 3.141593
52  0.152561 -25.166061 -36.000004  -1.570796 -0.000000 1.570796
53  0.433020 -11.755867 -21.000002  -0.051945 0.000000 1.570796
54  -6.697016 -11.232006 -10.472513  1.576250 -0.020019 -1.553079
55  10.000000 0.000000 -0.000001  0.000000 -0.000000 -0.000000
56  29.620380 2.666868 0.000001  0.000000 -0.000000 -0.000000
57  3.664052 2.228527 -2.524776  1.570796 0.732815 -1.570796
58  3.490278 2.388512 1.331885  0.000000 1.570796 0.000000
time 14
0  0 0 0  0 0 0
1  0.000000 0.000000 0.000000  1.570796 -0.000000 0.000000
2  -1.843769 -8.254290 -9.436330  1.503250 -0.036913 -2.256272
3  0.000002 13.479277 -0.000001  0.207450 -0.000000 -0.000000
4  -0.000001 13.477239 -0.000000  -0.188117 -0.228841 0.163150
5  -0.267271 3.664728 -1.953293  0.570287 -0.108989 -1.360402
6  0.000001 1.180355 0.000001  -0.005540 -0.036957 -1.399219
7  -0.000000 0.817136 -0.000000  0.012298 -0.000007 -1.214275
8  -0.249424 3.688544 -0.940889  0.326191 -0.061560 -1.352632
9  -0.000003 1.800633 0.000001  -0.000262 0.005352 -1.430231
10  -0.000002 1.243405 -0.000000  0.002269 0.006116 -1.286349
11  -0.244728 3.701096 0.087733  0.221244 0.005544 -1.361062
12  -0.000001 1.766584 0.000000  0.004189 0.001125 -1.481426
13  0.000000 1.189002 0.000000  -0.004182 -0.017197 -1.374176
14  -0.277241 3.632250 1.274102  0.115075 0.054750 -1.366492
15  0.000000 1.798494 0.000000  0.002394 0.037772 -1.507786
16  0.000001 1.235454 0.000000  -0.008167 -0.002510 -1.289887
17  0.315440 0.857301 0.755944  -0.761000 2.412031 -1.377326
18  0.000001 2.265940 0.000001  -0.016207 -0.064542 -1.048595
19  -0.000000 1.457813 -0.000001  -0.051901 0.018546 -0.626230
20  -1.259683 3.818376 1.286946  0.115075 0.054750 -1.366492
21  -1.226392 3.891696 0.090419  0.221244 0.005544 -1.361061
22  -1.231625 3.875535 -0.958681  0.326191 -0.061560 -1.352632
23  -1.209920 3.994785 -2.003048  0.570287 -0.108989 -1.360402
24  0.328905 0.095430 1.403533  -0.761000 2.412031 -1.377325
25  -1.968372 -6.875039 17.339514  1.566521 -0.161089 -2.508877
26  13.824293 -20.103218 10.765717  -1.570796 -0.000000 -1.570796
27  -1.843769 -8.254290 -9.436330  -0.051945 -0.000000 -1.570796
28  0.433020 -11.755867 -21.000002  -0.083842 -0.009362 3.131152
29  0.000000 13.479277 -0.000002  0.167696 0.000000 0.000000
30  0.000000 13.477240 0.000001  -0.083756 0.010203 0.009620
31  0.267270 3.664728 -1.953293  -0.106568 0.025893 0.137951
32  -0.000000 1.180357 -0.000001  -0.036623 0.007435 0.177465
33  -0.000002 0.817138 0.000001  0.004200 0.011559 -0.007420
34  0.249423 3.688543 -0.940890  -0.060580 0.013550 0.130737
35  0.000001 1.800635 -0.000001  0.004940 -0.002077 0.208495
36  -0.000001 1.243411 0.000002  0.006524 0.000040 0.064626
37  0.244726 3.701097 0.087732  0.005036 -0.002373 0.139323
38  -0.000000 1.766588 -0.000002  0.002490 0.003552 0.259702
39  -0.000000 1.189003 0.000001  -0.017590 0.001952 0.152464
40  0.277239 3.632249 1.274101  0.054558 -0.010184 0.144732
41  -0.000001 1.798490 -0.000003  0.036314 -0.010668 0.285912
42  -0.000001 1.235457 0.000001  -0.005152 -0.006816 0.068190
43  -0.315441 0.857301 0.755942  1.684115 -0.560091 -1.563926
44  -0.000000 2.265939 0.000000  -0.057905 0.032805 0.238898
45  0.000001 1.457813 0.000000  -0.029609 -0.046490 -0.034285
46  1.259681 3.818376 1.286945  0.054558 -0.010184 0.144732
47  1.226391 3.891695 0.090419  0.005036 -0.002373 0.139324
48  1.231623 3.875536 -0.958680  -0.060580 0.013550 0.130737
49  1.209919 3.994783 -2.003048  -0.106568 0.025893 0.137951
50  -0.328906 0.095430 1.403531  1.684115 -0.560091 -1.563926
51  0.152561 -38.616215 -21.000004  -0.000000 0.000000 3.141593
52  0.152561 -25.166061 -36.000004  -1.570796 -0.000000 1.570796
53  0.433020 -11.755867 -21.000002  -0.051945 0.000000 1.570796
54  -6.696681 -11.274675 -10.472013  1.574272 -0.020557 -1.552799
55  9.999998 -0.000001 -0.000001  0.000000 -0.000000 -0.000000
56  29.620380 2.666866 0.000000  0.000000 -0.000000 -0.000000
57  3.664049 2.228525 -2.524776  1.570796 0.732815 -1.570796
58  3.490277 2.388510 1.331885  0.000000 1.570796 0.000000
time 15
0  0 0 0  0 0 0
1  0.000000 0.000000 0.000000  1.570796 -0.000000 0.000000
2  -1.927009 -8.254290 -9.399017  1.496566 -0.038977 -2.255643
3  0.000001 13.479278 -0.000000  0.214876 0.000000 -0.000000
4  0.000000 13.477238 -0.000000  -0.189345 -0.232313 0.162727
5  -0.267270 3.664725 -1.953292  0.570288 -0.108989 -1.360402
6  -0.000000 1.180355 0.000001  -0.005540 -0.036957 -1.399219
7  -0.000001 0.817134 -0.000000  0.012298 -0.000007 -1.214275
8  -0.249423 3.688540 -0.940888  0.326191 -0.061559 -1.352632
9  0.000002 1.800633 0.000000  -0.000262 0.005352 -1.430231
10  -0.000000 1.243405 0.000001  0.002269 0.006116 -1.286350
11  -0.244727 3.701097 0.087733  0.221244 0.005544 -1.361061
12  0.000000 1.766585 -0.000000  0.004189 0.001125 -1.481426
13  0.000001 1.189004 -0.000000  -0.004182 -0.017197 -1.374175
14  -0.277240 3.632248 1.274102  0.115075 0.054750 -1.366492
15  0.000000 1.798493 -0.000001  0.002394 0.037772 -1.507786
16  0.000000 1.235452 -0.000000  -0.008167 -0.002510 -1.289887
17  0.315440 0.857300 0.755944  -0.761000 2.412031 -1.377326
18  0.000000 2.265938 0.000000  -0.016207 -0.064542 -1.048595
19  0.000001 1.457810 -0.000000  -0.051901 0.018546 -0.626230
20  -1.259682 3.818375 1.286946  0.115075 0.054750 -1.366492
21  -1.226391 3.891692 0.090420  0.221244 0.005544 -1.361061
22  -1.231624 3.875533 -0.958680  0.326191 -0.061560 -1.352632
23  -1.209919 3.994783 -2.003047  0.570288 -0.108989 -1.360402
24  0.328905 0.095428 1.403533  -0.761000 2.412031 -1.377325
25  -1.955787 -6.883116 17.366955  1.566995 -0.161858 -2.511803
26  13.824293 -20.103218 10.765717  -1.570796 -0.000000 -1.570796
27  -1.927009 -8.254290 -9.399017  -0.051945 -0.000000 -1.570796
28  0.433020 -11.755867 -21.000002  -0.083842 -0.009362 3.131152
29  0.000000 13.479277 -0.000002  0.167696 0.000000 0.000000
30  0.000000 13.477240 0.000001  -0.083756 0.010203 0.009620
31  0.267270 3.664728 -1.953293  -0.106568 0.025893 0.137951
32  -0.000000 1.180357 -0.000001  -0.036623 0.007435 0.177465
33  -0.000002 0.817138 0.000001  0.004200 0.011559 -0.007420
34  0.249423 3.688543 -0.940890  -0.060580 0.013550 0.130737
35  0.000001 1.800635 -0.000001  0.004940 -0.002077 0.208495
36  -0.000001 1.243411 0.000002  0.006524 0.000040 0.064626
37  0.244726 3.701097 0.087732  0.005036 -0.002373 0.139323
38  -0.000000 1.766588 -0.000002  0.002490 0.003552 0.259702
39  -0.000000 1.189003 0.000001  -0.017590 0.001952 0.152464
40  0.277239 3.632249 1.274101  0.054558 -0.010184 0.144732
41  -0.000001 1.798490 -0.000003  0.036314 -0.010668 0.285912
42  -0.000001 1.235457 0.000001  -0.005152 -0.006816 0.068190
43  -0.315441 0.857301 0.755942  1.684115 -0.560091 -1.563926
44  -0.000000 2.265939 0.000000  -0.057905 0.032805 0.238898
45  0.000001 1.457813 0.000000  -0.029609 -0.046490 -0.034285
46  1.259681 3.818376 1.286945  0.054558 -0.010184 0.144732
47  1.226391 3.891695 0.090419  0.005036 -0.002373 0.139324
48  1.231623 3.875536 -0.958680  -0.060580 0.013550 0.130737
49  1.209919 3.994783 -2.003048  -0.106568 0.025893 0.137951
50  -0.328906 0.095430 1.403531  1.684115 -0.560091 -1.563926
51  0.152561 -38.616215 -21.000004  -0.000000 0.000000 3.141593
52  0.152561 -25.166061 -36.000004  -1.570796 -0.000000 1.570796
53  0.433020 -11.755867 -21.000002  -0.051945 0.000000 1.570796
54  -6.696429 -11.306740 -10.471638  1.571406 -0.021337 -1.552394
55  9.999999 0.000000 -0.000000  0.000000 -0.000000 -0.000000
56  29.620377 2.666868 0.000001  0.000000 -0.000000 -0.000000
57  3.664051 2.228528 -2.524776  1.570796 0.732815 -1.570796
58  3.490277 2.388511 1.331886  0.000000 1.570796 0.000000
time 16
0  0 0 0  0 0 0
1  0.000000 0.000000 0.000000  1.570796 -0.000000 0.000000
2  -1.872836 -8.254290 -9.391418  1.500807 -0.037735 -2.256095
3  0.000001 13.479278 0.000002  0.208221 -0.000000 -0.000000
4  0.000001 13.477239 0.000000  -0.187131 -0.235297 0.164865
5  -0.267269 3.664726 -1.953293  0.570288 -0.108989 -1.360402
6  -0.000002 1.180355 -0.000000  -0.005540 -0.036957 -1.399219
7  0.000001 0.817136 0.000001  0.012298 -0.000007 -1.214275
8  -0.249423 3.688540 -0.940889  0.326191 -0.061560 -1.352632
9  0.000003 1.800633 -0.000000  -0.000262 0.005352 -1.430231
10  0.000000 1.243406 0.000001  0.002269 0.006116 -1.286349
11  -0.244726 3.701096 0.087733  0.221244 0.005544 -1.361062
12  -0.000001 1.766584 0.000001  0.004189 0.001125 -1.481426
13  0.000002 1.189003 -0.000000  -0.004182 -0.017197 -1.374176
14  -0.277240 3.632248 1.274102  0.115075 0.054750 -1.366492
15  0.000001 1.798494 0.000000  0.002394 0.037772 -1.507786
16  0.000000 1.235451 0.000001  -0.008167 -0.002510 -1.289887
17  0.315441 0.857299 0.755944  -0.761000 2.412031 -1.377325
18  -0.000000 2.265939 0.000000  -0.016207 -0.064542 -1.048595
19  -0.000001 1.457813 -0.000000  -0.051901 0.018546 -0.626230
20  -1.259681 3.818374 1.286945  0.115075 0.054750 -1.366492
21  -1.226391 3.891691 0.090419  0.221244 0.005544 -1.361061
22  -1.231623 3.875534 -0.958680  0.326191 -0.061560 -1.352632
23  -1.209919 3.994782 -2.003048  0.570288 -0.108989 -1.360402
24  0.328906 0.095427 1.403533  -0.761000 2.412031 -1.377325
25  -1.941035 -6.892911 17.384464  1.567562 -0.162767 -2.515274
26  13.824293 -20.103218 10.765717  -1.570796 -0.000000 -1.570796
27  -1.872836 -8.254290 -9.391418  -0.051945 -0.000000 -1.570796
28  0.433020 -11.755867 -21.000002  -0.083842 -0.009362 3.131152
29  0.000000 13.479277 -0.000002  0.167696 0.000000 0.000000
30  0.000000 13.477240 0.000001  -0.083756 0.010203 0.009620
31  0.267270 3.664728 -1.953293  -0.106568 0.025893 0.137951
32  -0.000000 1.180357 -0.000001  -0.036623 0.007435 0.177465
33  -0.000002 0.817138 0.000001  0.004200 0.011559 -0.007420
34  0.249423 3.688543 -0.940890  -0.060580 0.013550 0.130737
35  0.000001 1.800635 -0.000001  0.004940 -0.002077 0.208495
36  -0.000001 1.243411 0.000002  0.006524 0.000040 0.064626
37  0.244726 3.701097 0.087732  0.005036 -0.002373 0.139323
38  -0.000000 1.766588 -0.000002  0.002490 0.003552 0.259702
39  -0.000000 1.189003 0.000001  -0.017590 0.001952 0.152464
40  0.277239 3.632249 1.274101  0.054558 -0.010184 0.144732
41  -0.000001 1.798490 -0.000003  0.036314 -0.010668 0.285912
42  -0.000001 1.235457 0.000001  -0.005152 -0.006816 0.068190
43  -0.315441 0.857301 0.755942  1.684115 -0.560091 -1.563926
44  -0.000000 2.265939 0.000000  -0.057905 0.032805 0.238898
45  0.000001 1.457813 0.000000  -0.029609 -0.046490 -0.034285
46  1.259681 3.818376 1.286945  0.054558 -0.010184 0.144732
47  1.226391 3.891695 0.090419  0.005036 -0.002373 0.139324
48  1.231623 3.875536 -0.958680  -0.060580 0.013550 0.130737
49  1.209919 3.994783 -2.003048  -0.106568 0.025893 0.137951
50  -0.328906 0.095430 1.403531  1.684115 -0.560091 -1.563926
51  0.152561 -38.616215 -21.000004  -0.000000 0.000000 3.141593
52  0.152561 -25.166061 -36.000004  -1.570796 -0.000000 1.570796
53  0.433020 -11.755867 -21.000002  -0.051945 0.000000 1.570796
54  -6.696248 -11.329716 -10.471369  1.568009 -0.022261 -1.551913
55  9.999999 0.000000 -0.000000  0.000000 -0.000000 -0.000000
56  29.620384 2.666867 0.000002  0.000000 -0.000000 -0.000000
57  3.664052 2.228527 -2.524775  1.570796 0.732815 -1.570796
58  3.490277 2.388511 1.331886  0.000000 1.570796 0.000000
time 17
0  0 0 0  0 0 0
1  0.000000 0.000000 0.000000  1.570796 -0.000000 0.000000
2  -1.809101 -8.254290 -9.392188  1.505617 -0.036258 -2.256634
3  0.000002 13.479275 0.000001  0.200913 0.000000 -0.000000
4  0.000000 13.477241 -0.000000  -0.184826 -0.238360 0.167264
5  -0.267270 3.664724 -1.953293  0.570288 -0.108989 -1.360402
6  -0.000002 1.180355 0.000001  -0.005540 -0.036957 -1.399219
7  -0.000000 0.817137 -0.000002  0.012298 -0.000007 -1.214275
8  -0.249423 3.688539 -0.940889  0.326191 -0.061560 -1.352632
9  -0.000003 1.800634 -0.000001  -0.000262 0.005352 -1.430231
10  0.000000 1.243406 -0.000001  0.002269 0.006116 -1.286349
11  -0.244727 3.701094 0.087732  0.221244 0.005544 -1.361061
12  -0.000003 1.766585 0.000000  0.004189 0.001125 -1.481425
13  0.000000 1.189002 -0.000000  -0.004182 -0.017197 -1.374175
14  -0.277240 3.632247 1.274102  0.115075 0.054750 -1.366492
15  -0.000001 1.798494 0.000000  0.002394 0.037772 -1.507786
16  0.000000 1.235452 0.000001  -0.008167 -0.002510 -1.289887
17  0.315441 0.857301 0.755943  -0.761000 2.412031 -1.377326
18  0.000001 2.265939 0.000000  -0.016207 -0.064542 -1.048595
19  -0.000000 1.457812 0.000000  -0.051901 0.018546 -0.626230
20  -1.259681 3.818373 1.286945  0.115075 0.054750 -1.366492
21  -1.226391 3.891692 0.090419  0.221244 0.005544 -1.361061
22  -1.231623 3.875535 -0.958681  0.326191 -0.061560 -1.352632
23  -1.209919 3.994782 -2.003048  0.570288 -0.108989 -1.360402
24  0.328906 0.095428 1.403532  -0.761000 2.412031 -1.377325
25  -1.925640 -6.903370 17.394127  1.568166 -0.163720 -2.518928
26  13.824293 -20.103218 10.765717  -1.570796 -0.000000 -1.570796
27  -1.809101 -8.254290 -9.392188  -0.051945 -0.000000 -1.570796
28  0.433020 -11.755867 -21.000002  -0.083842 -0.009362 3.131152
29  0.000000 13.479277 -0.000002  0.167696 0.000000 0.000000
30  0.000000 13.477240 0.000001  -0.083756 0.010203 0.009620
31  0.267270 3.664728 -1.953293  -0.106568 0.025893 0.137951
32  -0.000000 1.180357 -0.000001  -0.036623 0.007435 0.177465
33  -0.000002 0.817138 0.000001  0.004200 0.011559 -0.007420
34  0.249423 3.688543 -0.940890  -0.060580 0.013550 0.130737
35  0.000001 1.800635 -0.000001  0.004940 -0.002077 0.208495
36  -0.000001 1.243411 0.000002  0.006524 0.000040 0.064626
37  0.244726 3.701097 0.087732  0.005036 -0.002373 0.139323
38  -0.000000 1.766588 -0.000002  0.002490 0.003552 0.259702
39  -0.000000 1.189003 0.000001  -0.017590 0.001952 0.152464
40  0.277239 3.632249 1.274101  0.054558 -0.010184 0.144732
41  -0.000001 1.798490 -0.000003  0.036314 -0.010668 0.285912
42  -0.000001 1.235457 0.000001  -0.005152 -0.006816 0.068190
43  -0.315441 0.857301 0.755942  1.684115 -0.560091 -1.563926
44  -0.000000 2.265939 0.000000  -0.057905 0.032805 0.238898
45  0.000001 1.457813 0.000000  -0.029609 -0.046490 -0.034285
46  1.259681 3.818376 1.286945  0.054558 -0.010184 0.144732
47  1.226391 3.891695 0.090419  0.005036 -0.002373 0.139324
48  1.231623 3.875536 -0.958680  -0.060580 0.013550 0.130737
49  1.209919 3.994783 -2.003048  -0.106568 0.025893 0.137951
50  -0.328906 0.095430 1.403531  1.684115 -0.560091 -1.563926
51  0.152561 -38.616215 -21.000004  -0.000000 0.000000 3.141593
52  0.152561 -25.166061 -36.000004  -1.570796 -0.000000 1.570796
53  0.433020 -11.755867 -21.000002  -0.051945 0.000000 1.570796
54  -6.696127 -11.345117 -10.471189  1.564433 -0.023233 -1.551407
55  10.000000 -0.000001 0.000000  0.000000 -0.000000 -0.000000
56  29.620380 2.666867 0.000002  0.000000 -0.000000 -0.000000
57  3.664051 2.228525 -2.524775  1.570796 0.732815 -1.570796
58  3.490278 2.388510 1.331886  0.000000 1.570796 0.000000
time 18
0  0 0 0  0 0 0
1  0.000000 0.000000 0.000000  1.570796 -0.000000 0.000000
2  -1.775890 -8.254290 -9.394006  1.507899 -0.035509 -2.256939
3  0.000002 13.479276 0.000000  0.196961 0.000000 -0.000000
4  -0.000000 13.477240 -0.000001  -0.183405 -0.241453 0.169094
5  -0.267269 3.664728 -1.953293  0.570287 -0.108989 -1.360402
6  -0.000001 1.180354 0.000001  -0.005540 -0.036957 -1.399219
7  0.000001 0.817136 0.000000  0.012298 -0.000007 -1.214275
8  -0.249422 3.688545 -0.940890  0.326191 -0.061560 -1.352632
9  -0.000000 1.800633 0.000000  -0.000262 0.005352 -1.430231
10  -0.000001 1.243405 0.000000  0.002269 0.006116 -1.286349
11  -0.244726 3.701097 0.087732  0.221244 0.005544 -1.361062
12  -0.000001 1.766585 -0.000000  0.004189 0.001125 -1.481426
13  -0.000002 1.189003 0.000000  -0.004182 -0.017197 -1.374176
14  -0.277239 3.632251 1.274101  0.115075 0.054750 -1.366492
15  -0.000002 1.798494 -0.000000  0.002394 0.037772 -1.507785
16  0.000001 1.235452 0.000000  -0.008167 -0.002510 -1.289887
17  0.315441 0.857300 0.755943  -0.760999 2.412031 -1.377326
18  -0.000001 2.265936 0.000000  -0.016207 -0.064542 -1.048595
19  0.000000 1.457813 0.000000  -0.051901 0.018546 -0.626230
20  -1.259681 3.818377 1.286945  0.115075 0.054750 -1.366492
21  -1.226390 3.891696 0.090419  0.221244 0.005544 -1.361061
22  -1.231623 3.875537 -0.958681  0.326191 -0.061560 -1.352632
23  -1.209919 3.994784 -2.003048  0.570288 -0.108989 -1.360402
24  0.328906 0.095431 1.403532  -0.761000 2.412031 -1.377325
25  -1.911105 -6.913420 17.398026  1.568746 -0.164622 -2.522403
26  13.824293 -20.103218 10.765717  -1.570796 -0.000000 -1.570796
27  -1.775890 -8.254290 -9.394006  -0.051945 -0.000000 -1.570796
28  0.433020 -11.755867 -21.000002  -0.083842 -0.009362 3.131152
29  0.000000 13.479277 -0.000002  0.167696 0.000000 0.000000
30  0.000000 13.477240 0.000001  -0.083756 0.010203 0.009620
31  0.267270 3.664728 -1.953293  -0.106568 0.025893 0.137951
32  -0.000000 1.180357 -0.000001  -0.036623 0.007435 0.177465
33  -0.000002 0.817138 0.000001  0.004200 0.011559 -0.007420
34  0.249423 3.688543 -0.940890  -0.060580 0.013550 0.130737
35  0.000001 1.800635 -0.000001  0.004940 -0.002077 0.208495
36  -0.000001 1.243411 0.000002  0.006524 0.000040 0.064626
37  0.244726 3.701097 0.087732  0.005036 -0.002373 0.139323
38  -0.000000 1.766588 -0.000002  0.002490 0.003552 0.259702
39  -0.000000 1.189003 0.000001  -0.017590 0.001952 0.152464
40  0.277239 3.632249 1.274101  0.054558 -0.010184 0.144732
41  -0.000001 1.798490 -0.000003  0.036314 -0.010668 0.285912
42  -0.000001 1.235457 0.000001  -0.005152 -0.006816 0.068190
43  -0.315441 0.857301 0.755942  1.684115 -0.560091 -1.563926
44  -0.000000 2.265939 0.000000  -0.057905 0.032805 0.238898
45  0.000001 1.457813 0.000000  -0.029609 -0.046490 -0.034285
46  1.259681 3.818376 1.286945  0.054558 -0.010184 0.144732
47  1.226391 3.891695 0.090419  0.005036 -0.002373 0.139324
48  1.231623 3.875536 -0.958680  -0.060580 0.013550 0.130737
49  1.209919 3.994783 -2.003048  -0.106568 0.025893 0.137951
50  -0.328906 0.095430 1.403531  1.684115 -0.560091 -1.563926
51  0.152561 -38.616215 -21.000004  -0.000000 0.000000 3.141593
52  0.152561 -25.166061 -36.000004  -1.570796 -0.000000 1.570796
53  0.433020 -11.755867 -21.000002  -0.051945 0.000000 1.570796
54  -6.696054 -11.354459 -10.471080  1.561033 -0.024157 -1.550927
55  9.999999 -0.000002 -0.000001  0.000000 -0.000000 -0.000000
56  29.620378 2.666866 0.000001  0.000000 -0.000000 -0.000000
57  3.664050 2.228525 -2.524776  1.570796 0.732815 -1.570796
58  3.490277 2.388510 1.331886  0.000000 1.570796 0.000000
time 19
0  0 0 0  0 0 0
1  0.000000 0.000000 0.000000  1.570796 -0.000000 0.000000
2  -1.794257 -8.254290 -9.394029  1.506691 -0.035987 -2.256838
3  0.000002 13.479277 0.000000  0.197201 -0.000000 -0.000000
4  -0.000000 13.477239 0.000000  -0.182756 -0.244485 0.169710
5  -0.267270 3.664724 -1.953292  0.570288 -0.108989 -1.360402
6  0.000002 1.180355 -0.000001  -0.005540 -0.036957 -1.399219
7  -0.000001 0.817135 0.000000  0.012298 -0.000007 -1.214276
8  -0.249423 3.688540 -0.940888  0.326191 -0.061560 -1.352632
9  -0.000002 1.800634 -0.000000  -0.000262 0.005352 -1.430231
10  0.000001 1.243406 -0.000000  0.002269 0.006116 -1.286349
11  -0.244727 3.701095 0.087734  0.221244 0.005544 -1.361062
12  0.000001 1.766583 0.000001  0.004189 0.001125 -1.481426
13  0.000000 1.189003 0.000001  -0.004182 -0.017197 -1.374176
14  -0.277239 3.632248 1.274102  0.115075 0.054751 -1.366492
15  -0.000001 1.798493 -0.000001  0.002394 0.037772 -1.507786
16  -0.000001 1.235449 0.000000  -0.008167 -0.002510 -1.289887
17  0.315441 0.857299 0.755945  -0.761000 2.412031 -1.377325
18  -0.000001 2.265939 0.000000  -0.016207 -0.064542 -1.048595
19  0.000000 1.457813 0.000001  -0.051901 0.018546 -0.626230
20  -1.259681 3.818375 1.286946  0.115075 0.054750 -1.366492
21  -1.226391 3.891693 0.090420  0.221244 0.005544 -1.361061
22  -1.231623 3.875534 -0.958679  0.326191 -0.061560 -1.352632
23  -1.209919 3.994780 -2.003047  0.570288 -0.108989 -1.360402
24  0.328906 0.095428 1.403533  -0.761000 2.412031 -1.377325
25  -1.898912 -6.921968 17.398247  1.569241 -0.165380 -2.525335
26  13.824293 -20.103218 10.765717  -1.570796 -0.000000 -1.570796
27  -1.794257 -8.254290 -9.394029  -0.051945 -0.000000 -1.570796
28  0.433020 -11.755867 -21.000002  -0.083842 -0.009362 3.131152
29  0.000000 13.479277 -0.000002  0.167696 0.000000 0.000000
30  0.000000 13.477240 0.000001  -0.083756 0.010203 0.009620
31  0.267270 3.664728 -1.953293  -0.106568 0.025893 0.137951
32  -0.000000 1.180357 -0.000001  -0.036623 0.007435 0.177465
33  -0.000002 0.817138 0.000001  0.004200 0.011559 -0.007420
34  0.249423 3.688543 -0.940890  -0.060580 0.013550 0.130737
35  0.000001 1.800635 -0.000001  0.004940 -0.002077 0.208495
36  -0.000001 1.243411 0.000002  0.006524 0.000040 0.064626
37  0.244726 3.701097 0.087732  0.005036 -0.002373 0.139323
38  -0.000000 1.766588 -0.000002  0.002490 0.003552 0.259702
39  -0.000000 1.189003 0.000001  -0.017590 0.001952 0.152464
40  0.277239 3.632249 1.274101  0.054558 -0.010184 0.144732
41  -0.000001 1.798490 -0.000003  0.036314 -0.010668 0.285912
42  -0.000001 1.235457 0.000001  -0.005152 -0.006816 0.068190
43  -0.315441 0.857301 0.755942  1.684115 -0.560091 -1.563926
44  -0.000000 2.265939 0.000000  -0.057905 0.032805 0.238898
45  0.000001 1.457813 0.000000  -0.029609 -0.046490 -0.034285
46  1.259681 3.818376 1.286945  0.054558 -0.010184 0.144732
47  1.226391 3.891695 0.090419  0.005036 -0.002373 0.139324
48  1.231623 3.875536 -0.958680  -0.060580 0.013550 0.130737
49  1.209919 3.994783 -2.003048  -0.106568 0.025893 0.137951
50  -0.328906 0.095430 1.403531  1.684115 -0.560091 -1.563926
51  0.152561 -38.616215 -21.000004  -0.000000 0.000000 3.141593
52  0.152561 -25.166061 -36.000004  -1.570796 -0.000000 1.570796
53  0.433020 -11.755867 -21.000002  -0.051945 0.000000 1.570796
54  -6.696016 -11.359256 -10.471024  1.558165 -0.024936 -1.550521
55  9.999998 0.000000 -0.000001  0.000000 -0.000000 -0.000000
56  29.620380 2.666867 0.000001  0.000000 -0.000000 -0.000000
57  3.664050 2.228527 -2.524776  1.570796 0.732815 -1.570796
58  3.490277 2.388511 1.331886  0.000000 1.570796 0.000000
time 20
0  0 0 0  0 0 0
1  0.000000 0.000000 0.000000  1.570796 -0.000000 0.000000
2  -1.829312 -8.254290 -9.392861  1.504175 -0.036853 -2.256595
3  0.000002 13.479276 0.000000  0.199436 -0.000000 -0.000000
4  -0.000001 13.477241 -0.000000  -0.182749 -0.246753 0.169733
5  -0.267270 3.664724 -1.953293  0.570287 -0.108989 -1.360402
6  -0.000001 1.180355 0.000000  -0.005540 -0.036957 -1.399219
7  -0.000001 0.817133 -0.000001  0.012298 -0.000007 -1.214275
8  -0.249423 3.688540 -0.940889  0.326191 -0.061560 -1.352632
9  -0.000000 1.800632 0.000000  -0.000262 0.005352 -1.430231
10  0.000000 1.243404 0.000000  0.002269 0.006116 -1.286349
11  -0.244727 3.701095 0.087733  0.221244 0.005544 -1.361062
12  0.000001 1.766584 -0.000000  0.004189 0.001125 -1.481426
13  0.000000 1.189003 -0.000001  -0.004182 -0.017197 -1.374176
14  -0.277240 3.632248 1.274102  0.115075 0.054750 -1.366492
15  -0.000000 1.798495 0.000000  0.002394 0.037772 -1.507786
16  0.000001 1.235449 0.000000  -0.008167 -0.002510 -1.289887
17  0.315440 0.857298 0.755944  -0.760999 2.412031 -1.377325
18  0.000001 2.265940 0.000000  -0.016207 -0.064542 -1.048595
19  0.000000 1.457812 -0.000000  -0.051901 0.018546 -0.626230
20  -1.259682 3.818372 1.286946  0.115075 0.054750 -1.366492
21  -1.226392 3.891694 0.090420  0.221244 0.005544 -1.361061
22  -1.231624 3.875534 -0.958680  0.326191 -0.061560 -1.352632
23  -1.209920 3.994781 -2.003047  0.570288 -0.108989 -1.360402
24  0.328906 0.095428 1.403533  -0.761000 2.412031 -1.377326
25  -1.890525 -6.927911 17.396856  1.569585 -0.165901 -2.527361
26  13.824293 -20.103218 10.765717  -1.570796 -0.000000 -1.570796
27  -1.829312 -8.254290 -9.392861  -0.051945 -0.000000 -1.570796
28  0.433020 -11.755867 -21.000002  -0.083842 -0.009362 3.131152
29  0.000000 13.479277 -0.000002  0.167696 0.000000 0.000000
30  0.000000 13.477240 0.000001  -0.083756 0.010203 0.009620
31  0.267270 3.664728 -1.953293  -0.106568 0.025893 0.137951
32  -0.000000 1.180357 -0.000001  -0.036623 0.007435 0.177465
33  -0.000002 0.817138 0.000001  0.004200 0.011559 -0.007420
34  0.249423 3.688543 -0.940890  -0.060580 0.013550 0.130737
35  0.000001 1.800635 -0.000001  0.004940 -0.002077 0.208495
36  -0.000001 1.243411 0.000002  0.006524 0.000040 0.064626
37  0.244726 3.701097 0.087732  0.005036 -0.002373 0.139323
38  -0.000000 1.766588 -0.000002  0.002490 0.003552 0.259702
39  -0.000000 1.189003 0.000001  -0.017590 0.001952 0.152464
40  0.277239 3.632249 1.274101  0.054558 -0.010184 0.144732
41  -0.000001 1.798490 -0.000003  0.036314 -0.010668 0.285912
42  -0.000001 1.235457 0.000001  -0.005152 -0.006816 0.068190
43  -0.315441 0.857301 0.755942  1.684115 -0.560091 -1.563926
44  -0.000000 2.265939 0.000000  -0.057905 0.032805 0.238898
45  0.000001 1.457813 0.000000  -0.029609 -0.046490 -0.034285
46  1.259681 3.818376 1.286945  0.054558 -0.010184 0.144732
47  1.226391 3.891695 0.090419  0.005036 -0.002373 0.139324
48  1.231623 3.875536 -0.958680  -0.060580 0.013550 0.130737
49  1.209919 3.994783 -2.003048  -0.106568 0.025893 0.137951
50  -0.328906 0.095430 1.403531  1.684115 -0.560091 -1.563926
51  0.152561 -38.616215 -21.000004  -0.000000 0.000000 3.141593
52  0.152561 -25.166061 -36.000004  -1.570796 -0.000000 1.570796
53  0.433020 -11.755867 -21.000002  -0.051945 0.000000 1.570796
54  -6.696002 -11.361023 -10.471003  1.556184 -0.025474 -1.550241
55  9.999998 0.000000 -0.000001  0.000000 -0.000000 -0.000000
56  29.620382 2.666867 0.000001  0.000000 -0.000000 -0.000000
57  3.664052 2.228526 -2.524776  1.570796 0.732815 -1.570796
58  3.490279 2.388510 1.331887  0.000000 1.570796 0.000000
time 21
0  0 0 0  0 0 0
1  0.000000 0.000000 0.000000  1.570796 -0.000000 0.000000
2  -1.843768 -8.254290 -9.392370  1.503034 -0.037209 -2.256494
3  0.000001 13.479276 -0.000000  0.200593 0.000000 -0.000000
4  -0.000000 13.477239 0.000001  -0.182874 -0.247593 0.169741
5  -0.267270 3.664725 -1.953294  0.570288 -0.108989 -1.360402
6  -0.000001 1.180356 0.000000  -0.005540 -0.036957 -1.399219
7  -0.000001 0.817137 -0.000000  0.012298 -0.000007 -1.214275
8  -0.249423 3.688542 -0.940890  0.326191 -0.061559 -1.352632
9  0.000002 1.800633 0.000000  -0.000262 0.005352 -1.430231
10  0.000001 1.243408 0.000001  0.002269 0.006116 -1.286349
11  -0.244727 3.701096 0.087732  0.221244 0.005544 -1.361061
12  0.000001 1.766585 -0.000001  0.004189 0.001125 -1.481425
13  0.000001 1.189005 -0.000001  -0.004182 -0.017197 -1.374175
14  -0.277239 3.632249 1.274101  0.115075 0.054750 -1.366492
15  0.000000 1.798494 0.000000  0.002394 0.037772 -1.507785
16  -0.000001 1.235451 0.000000  -0.008167 -0.002510 -1.289886
17  0.315441 0.857300 0.755943  -0.761000 2.412031 -1.377325
18  -0.000002 2.265938 0.000000  -0.016207 -0.064542 -1.048595
19  0.000000 1.457811 0.000000  -0.051901 0.018546 -0.626230
20  -1.259681 3.818375 1.286945  0.115075 0.054750 -1.366492
21  -1.226391 3.891694 0.090419  0.221244 0.005544 -1.361061
22  -1.231623 3.875533 -0.958681  0.326191 -0.061560 -1.352632
23  -1.209919 3.994782 -2.003049  0.570287 -0.108989 -1.360402
24  0.328906 0.095429 1.403532  -0.761000 2.412031 -1.377325
25  -1.887403 -6.930137 17.395933  1.569714 -0.166096 -2.528117
26  13.824293 -20.103218 10.765717  -1.570796 -0.000000 -1.570796
27  -1.843768 -8.254290 -9.392370  -0.051945 -0.000000 -1.570796
28  0.433020 -11.755867 -21.000002  -0.083842 -0.009362 3.131152
29  0.000000 13.479277 -0.000002  0.167696 0.000000 0.000000
30  0.000000 13.477240 0.000001  -0.083756 0.010203 0.009620
31  0.267270 3.664728 -1.953293  -0.106568 0.025893 0.137951
32  -0.000000 1.180357 -0.000001  -0.036623 0.007435 0.177465
33  -0.000002 0.817138 0.000001  0.004200 0.011559 -0.007420
34  0.249423 3.688543 -0.940890  -0.060580 0.013550 0.130737
35  0.000001 1.800635 -0.000001  0.004940 -0.002077 0.208495
36  -0.000001 1.243411 0.000002  0.006524 0.000040 0.064626
37  0.244726 3.701097 0.087732  0.005036 -0.002373 0.139323
38  -0.000000 1.766588 -0.000002  0.002490 0.003552 0.259702
39  -0.000000 1.189003 0.000001  -0.017590 0.001952 0.152464
40  0.277239 3.632249 1.274101  0.054558 -0.010184 0.144732
41  -0.000001 1.798490 -0.000003  0.036314 -0.010668 0.285912
42  -0.000001 1.235457 0.000001  -0.005152 -0.006816 0.068190
43  -0.315441 0.857301 0.755942  1.684115 -0.560091 -1.563926
44  -0.000000 2.265939 0.000000  -0.057905 0.032805 0.238898
45  0.000001 1.457813 0.000000  -0.029609 -0.046490 -0.034285
46  1.259681 3.818376 1.286945  0.054558 -0.010184 0.144732
47  1.226391 3.891695 0.090419  0.005036 -0.002373 0.139324
48  1.231623 3.875536 -0.958680  -0.060580 0.013550 0.130737
49  1.209919 3.994783 -2.003048  -0.106568 0.025893 0.137951
50  -0.328906 0.095430 1.403531  1.684115 -0.560091 -1.563926
51  0.152561 -38.616215 -21.000004  -0.000000 0.000000 3.141593
52  0.152561 -25.166061 -36.000004  -1.570796 -0.000000 1.570796
53  0.433020 -11.755867 -21.000002  -0.051945 0.000000 1.570796
54  -6.696000 -11.361276 -10.471000  1.555444 -0.025675 -1.550137
55  9.999998 -0.000001 -0.000001  0.000000 -0.000000 -0.000000
56  29.620380 2.666866 0.000001  0.000000 -0.000000 -0.000000
57  3.664050 2.228525 -2.524775  1.570796 0.732815 -1.570796
58  3.490278 2.388509 1.331887  0.000000 1.570796 0.000000
end
