version 1
nodes
0 "blender_implicit" -1
1 "root" -1
2 "upperarm_l" 1
3 "lowerarm_l" 2
4 "hand_l" 3
5 "pinky_0_l" 4
6 "pinky_1_l" 5
7 "pinky_2_l" 6
8 "ring_0_l" 4
9 "ring_1_l" 8
10 "ring_2_l" 9
11 "middle_0_l" 4
12 "middle_1_l" 11
13 "middle_2_l" 12
14 "index_0_l" 4
15 "index_1_l" 14
16 "index_2_l" 15
17 "thumb_0_l" 4
18 "thumb_1_l" 17
19 "thumb_2_l" 18
20 "rig_index_l" 4
21 "rig_middle_l" 4
22 "rig_ring_l" 4
23 "rig_pinky_l" 4
24 "rig_thumb_l" 4
25 "rig_hand_l" 1
26 "rig_l" 1
27 "rig_upperarm_l" 1
28 "upperarm_r" 1
29 "lowerarm_r" 28
30 "hand_r" 29
31 "pinky_0_r" 30
32 "pinky_1_r" 31
33 "pinky_2_r" 32
34 "ring_0_r" 30
35 "ring_1_r" 34
36 "ring_2_r" 35
37 "middle_0_r" 30
38 "middle_1_r" 37
39 "middle_2_r" 38
40 "index_0_r" 30
41 "index_1_r" 40
42 "index_2_r" 41
43 "thumb_0_r" 30
44 "thumb_1_r" 43
45 "thumb_2_r" 44
46 "rig_index_r" 30
47 "rig_middle_r" 30
48 "rig_ring_r" 30
49 "rig_pinky_r" 30
50 "rig_thumb_r" 30
51 "rig_hand_r" 1
52 "rig_r" 1
53 "rig_upperarm_r" 1
54 "weapon_bone_CONTROL" -1
55 "weapon_bone_parent" 54
56 "weapon_bone" 55
end
skeleton
time 0
0  0 0 0  0 0 0
1  0.000000 0.000000 0.000000  1.570796 -0.000000 0.000000
2  0.449198 -13.144855 -6.669335  0.490601 0.136172 -1.577608
3  0.000002 13.479276 0.000001  0.981177 0.000000 -0.000000
4  0.000001 13.477239 -0.000001  0.479910 -0.209447 0.728302
5  -0.267270 3.664726 -1.953294  -0.108790 -0.013788 -0.026065
6  -0.000001 1.180356 0.000001  -0.034029 -0.015446 -0.403202
7  0.000000 0.817134 0.000000  0.006682 -0.010324 -0.218454
8  -0.249423 3.688540 -0.940889  -0.061758 -0.006265 -0.011920
9  -0.000001 1.800633 -0.000001  0.004369 0.003102 -0.427837
10  0.000001 1.243406 0.000001  0.006376 0.001380 -0.283965
11  -0.244727 3.701096 0.087733  0.005332 0.001603 0.009044
12  -0.000001 1.766585 0.000000  0.003116 -0.003017 -0.449710
13  0.000000 1.189005 -0.000000  -0.016905 -0.005239 -0.342445
14  -0.277239 3.632247 1.274103  0.087512 0.000229 0.111810
15  -0.000002 1.798495 -0.000000  0.035324 0.013594 -0.367525
16  -0.000000 1.235451 0.000001  -0.005691 0.006373 -0.149850
17  0.315442 0.857299 0.755944  1.818756 0.659267 1.317010
18  -0.000000 2.265939 0.000000  -0.099084 -0.037733 -0.688853
19  0.000001 1.457811 0.000000  -0.037760 0.040153 -0.153383
20  -1.259681 3.818374 1.286946  0.087511 0.000230 0.111810
21  -1.226391 3.891693 0.090420  0.005332 0.001603 0.009044
22  -1.231623 3.875534 -0.958679  -0.061758 -0.006265 -0.011920
23  -1.209918 3.994781 -2.003048  -0.108790 -0.013788 -0.026066
24  0.328908 0.095428 1.403533  1.818756 0.659268 1.317010
25  13.652142 -15.917541 12.909437  2.074395 -0.598176 -1.750965
26  24.489557 -12.765261 -10.634670  -1.570796 -0.000000 -1.570796
27  0.449198 -13.144855 -6.669335  -0.051945 -0.000000 -1.570796
28  -9.523657 -7.409284 -2.492052  0.571003 -0.153064 1.804604
29  -0.000000 13.479276 -0.000000  1.632396 -0.000000 0.000000
30  0.000000 13.477239 0.000000  -1.560066 0.624494 -0.890997
31  0.267269 3.664726 -1.953295  0.109629 -0.107225 0.495175
32  0.000001 1.180355 0.000001  -0.029953 -0.007842 0.846531
33  0.000002 0.817134 0.000000  0.012285 -0.000556 1.260036
34  0.249421 3.688541 -0.940890  -0.126560 -0.145246 0.899651
35  0.000002 1.800634 0.000001  -0.009643 -0.027168 1.400081
36  -0.000002 1.243405 0.000001  0.002452 -0.006045 1.256196
37  0.244727 3.701097 0.087733  -0.174753 -0.151318 0.769501
38  -0.000003 1.766583 0.000001  0.009385 0.010267 1.319679
39  -0.000001 1.189005 0.000000  -0.006898 0.016298 1.212361
40  0.277238 3.632249 1.274102  -0.295695 -0.170063 0.706217
41  -0.000001 1.798494 0.000001  0.035176 0.008609 1.280163
42  -0.000002 1.235451 0.000001  -0.008523 0.000599 1.061936
43  -0.315442 0.857300 0.755943  -0.678476 -2.468995 1.317854
44  0.000000 2.265940 0.000000  -0.026878 0.060881 0.878738
45  0.000001 1.457812 0.000001  -0.051628 -0.019293 0.611810
46  1.259680 3.818375 1.286944  -0.295695 -0.170063 0.706217
47  1.226390 3.891693 0.090418  -0.174753 -0.151318 0.769501
48  1.231623 3.875534 -0.958681  -0.126560 -0.145246 0.899651
49  1.209919 3.994781 -2.003049  0.109629 -0.107225 0.495175
50  -0.328907 0.095430 1.403532  -0.678476 -2.468995 1.317854
51  -12.163398 -10.883076 15.448385  0.910479 0.083567 2.815915
52  -23.015259 -13.132422 13.334921  -1.570796 -0.000000 1.570796
53  -9.523657 -7.409284 -2.492052  -0.051945 0.000000 1.570796
54  -12.337009 -18.194151 -13.518669  2.227995 0.421938 -0.083547
55  0.000000 -0.000000 0.000002  -0.000000 -0.000000 0.000000
56  0.000000 -0.000000 0.000002  -0.000000 -0.000000 0.000000
time 1
0  0 0 0  0 0 0
1  0.000000 0.000000 0.000000  1.570796 -0.000000 0.000000
2  0.449198 -13.144855 -6.669335  0.404134 0.149400 -1.579835
3  -0.000001 13.479279 0.000000  1.095043 0.000000 -0.000000
4  0.000000 13.477240 -0.000001  0.445175 -0.113766 0.722268
5  -0.267268 3.664726 -1.953292  -0.109652 0.001101 0.109510
6  0.000003 1.180356 0.000001  -0.035812 -0.010677 -0.266890
7  0.000001 0.817135 -0.000000  0.005216 -0.011137 -0.082065
8  -0.249421 3.688542 -0.940888  -0.062037 0.002185 0.124205
9  -0.000001 1.800633 0.000001  0.004751 0.002479 -0.291451
10  0.000000 1.243406 -0.000000  0.006504 0.000501 -0.147581
11  -0.244726 3.701097 0.087733  0.005500 0.000863 0.145429
12  0.000002 1.766584 0.000001  0.002677 -0.003413 -0.313324
13  0.000000 1.189004 0.000001  -0.017460 -0.002892 -0.206077
14  -0.277239 3.632248 1.274102  0.086734 -0.011656 0.247681
15  -0.000001 1.798494 -0.000001  0.036842 0.008670 -0.231321
16  0.000000 1.235452 0.000001  -0.004772 0.007087 -0.013563
17  0.315442 0.857300 0.755943  1.797130 0.526679 1.278400
18  0.000000 2.265939 0.000001  -0.106089 -0.032148 -0.554126
19  -0.000001 1.457812 -0.000001  -0.032022 0.044862 -0.018563
20  -1.259681 3.818376 1.286946  0.086734 -0.011656 0.247680
21  -1.226389 3.891693 0.090419  0.005500 0.000863 0.145429
22  -1.231621 3.875535 -0.958680  -0.062037 0.002185 0.124205
23  -1.209919 3.994781 -2.003048  -0.109652 0.001101 0.109510
24  0.328908 0.095428 1.403533  1.797130 0.526679 1.278400
25  13.780743 -16.055128 11.863887  2.005285 -0.576279 -1.658903
26  24.489557 -12.765261 -10.634670  -1.570796 -0.000000 -1.570796
27  0.449198 -13.144855 -6.669335  -0.051945 -0.000000 -1.570796
28  -9.549700 -7.582087 -0.966035  0.823747 -0.169727 1.637605
29  -0.000000 13.479277 0.000000  1.570796 0.259226 1.570796
30  0.000000 13.477241 0.000000  -0.370336 -0.357528 -0.772291
31  0.267268 3.664728 -1.953292  0.109629 -0.107225 0.495175
32  0.000001 1.180357 0.000000  -0.029953 -0.007842 0.846531
33  0.000000 0.817135 -0.000000  0.012285 -0.000556 1.260036
34  0.249422 3.688542 -0.940889  -0.126560 -0.145246 0.899651
35  0.000002 1.800633 -0.000000  -0.009643 -0.027168 1.400081
36  -0.000000 1.243407 0.000001  0.002452 -0.006045 1.256196
37  0.244726 3.701095 0.087733  -0.174753 -0.151318 0.769501
38  0.000000 1.766582 0.000000  0.009385 0.010267 1.319679
39  0.000000 1.189002 0.000001  -0.006898 0.016298 1.212362
40  0.277238 3.632249 1.274102  -0.295695 -0.170063 0.706217
41  0.000000 1.798495 0.000002  0.035176 0.008609 1.280163
42  -0.000000 1.235451 0.000002  -0.008523 0.000599 1.061936
43  -0.315442 0.857301 0.755945  -0.678476 -2.468995 1.317854
44  0.000000 2.265938 -0.000002  -0.026878 0.060881 0.878738
45  0.000001 1.457810 -0.000000  -0.051628 -0.019293 0.611810
46  1.259681 3.818375 1.286945  -0.295695 -0.170063 0.706217
47  1.226390 3.891693 0.090419  -0.174753 -0.151318 0.769501
48  1.231622 3.875535 -0.958681  -0.126560 -0.145246 0.899651
49  1.209919 3.994781 -2.003048  0.109629 -0.107225 0.495175
50  -0.328907 0.095429 1.403533  -0.678476 -2.468995 1.317854
51  -11.253874 -11.297848 20.003632  0.966955 0.131725 2.817663
52  -30.119099 -8.889764 -1.365295  -1.570796 -0.000000 1.570796
53  -9.549700 -7.582087 -0.966035  -0.051945 0.000000 1.570796
54  -11.516902 -22.917492 -13.738331  2.152820 0.418513 -0.141947
55  0.000001 0.000000 -0.000001  0.000000 -0.000000 0.000000
56  0.000001 0.000000 -0.000001  0.000000 -0.000000 0.000000
time 2
0  0 0 0  0 0 0
1  0.000000 0.000000 0.000000  1.570796 -0.000000 0.000000
2  0.449198 -13.144855 -6.669335  0.227751 0.183403 -1.585604
3  0.000001 13.479277 0.000000  1.303743 0.000000 -0.000000
4  -0.000000 13.477239 -0.000000  0.369455 0.086185 0.713336
5  -0.267270 3.664726 -1.953293  -0.107934 0.019403 0.276691
6  0.000001 1.180357 0.000000  -0.037093 -0.004534 -0.098831
7  0.000001 0.817137 -0.000001  0.003279 -0.011853 0.086111
8  -0.249424 3.688541 -0.940890  -0.060799 0.012531 0.292061
9  0.000002 1.800633 0.000000  0.005098 0.001649 -0.123284
10  -0.000001 1.243405 0.000001  0.006496 -0.000595 0.020584
11  -0.244727 3.701095 0.087732  0.005567 -0.000070 0.313595
12  0.000001 1.766585 -0.000000  0.002067 -0.003813 -0.145154
13  0.000001 1.189004 -0.000001  -0.017698 0.000071 -0.037934
14  -0.277240 3.632247 1.274101  0.082901 -0.025962 0.415267
15  -0.000001 1.798494 -0.000000  0.037773 0.002388 -0.063388
16  0.000000 1.235451 0.000000  -0.003519 0.007786 0.154487
17  0.315440 0.857300 0.755943  1.797195 0.527207 1.278555
18  -0.000001 2.265938 0.000000  -0.106063 -0.032172 -0.554665
19  -0.000000 1.457811 0.000002  -0.032047 0.044845 -0.019103
20  -1.259682 3.818375 1.286945  0.082901 -0.025962 0.415267
21  -1.226391 3.891693 0.090419  0.005567 -0.000070 0.313595
22  -1.231624 3.875533 -0.958681  -0.060799 0.012531 0.292061
23  -1.209921 3.994781 -2.003049  -0.107934 0.019403 0.276691
24  0.328905 0.095428 1.403532  1.797195 0.527207 1.278555
25  14.063665 -16.357822 9.563675  1.845487 -0.523343 -1.456367
26  24.489557 -12.765261 -10.634670  -1.570796 -0.000000 -1.570796
27  0.449198 -13.144855 -6.669335  -0.051945 -0.000000 -1.570796
28  -9.577389 -8.199335 2.574302  1.298103 -0.170623 1.905302
29  0.000001 13.479273 -0.000000  0.848866 0.583954 0.559433
30  -0.000001 13.477240 -0.000001  -0.711394 0.037854 -0.598282
31  0.267268 3.664725 -1.953292  0.109629 -0.107225 0.495175
32  -0.000001 1.180351 -0.000001  -0.029953 -0.007842 0.846531
33  0.000001 0.817135 -0.000000  0.012285 -0.000556 1.260036
34  0.249422 3.688540 -0.940887  -0.126560 -0.145246 0.899651
35  0.000003 1.800636 0.000001  -0.009643 -0.027168 1.400081
36  0.000000 1.243406 -0.000001  0.002452 -0.006045 1.256196
37  0.244726 3.701094 0.087734  -0.174753 -0.151318 0.769501
38  0.000001 1.766583 0.000001  0.009385 0.010267 1.319679
39  -0.000002 1.189005 0.000001  -0.006898 0.016298 1.212362
40  0.277238 3.632247 1.274104  -0.295695 -0.170063 0.706217
41  -0.000001 1.798494 -0.000001  0.035176 0.008609 1.280163
42  0.000001 1.235452 0.000002  -0.008523 0.000599 1.061936
43  -0.315442 0.857298 0.755944  -0.678476 -2.468995 1.317854
44  0.000001 2.265938 0.000000  -0.026878 0.060881 0.878738
45  0.000001 1.457809 0.000001  -0.051628 -0.019293 0.611810
46  1.259681 3.818373 1.286947  -0.295695 -0.170063 0.706217
47  1.226390 3.891692 0.090420  -0.174753 -0.151318 0.769501
48  1.231622 3.875533 -0.958680  -0.126560 -0.145246 0.899651
49  1.209919 3.994781 -2.003048  0.109629 -0.107225 0.495175
50  -0.328906 0.095427 1.403533  -0.678476 -2.468995 1.317854
51  -6.588757 -11.721710 27.579258  1.023473 0.179876 2.825180
52  -20.394690 -11.890781 2.199921  -1.570796 -0.000000 1.570796
53  -9.577389 -8.199335 2.574302  -0.051945 0.000000 1.570796
54  -6.938814 -30.643932 -13.957993  2.079251 0.408165 -0.199637
55  0.000000 -0.000001 0.000001  0.000000 -0.000000 0.000000
56  0.000000 -0.000001 0.000001  0.000000 -0.000000 0.000000
time 3
0  0 0 0  0 0 0
1  0.000000 0.000000 0.000000  1.570796 -0.000000 0.000000
2  0.449198 -13.144855 -6.669335  0.061731 0.226209 -1.592974
3  0.000001 13.479277 0.000001  1.470520 0.000000 -0.000000
4  -0.000001 13.477239 0.000000  0.280821 0.277724 0.717109
5  -0.267269 3.664726 -1.953293  -0.108534 0.015685 0.242474
6  -0.000001 1.180356 -0.000001  -0.036916 -0.005807 -0.133221
7  0.000000 0.817134 0.000001  0.003685 -0.011733 0.051696
8  -0.249421 3.688542 -0.940888  -0.061193 0.010433 0.257709
9  -0.000002 1.800633 0.000002  0.005039 0.001823 -0.157697
10  0.000000 1.243406 0.000000  0.006513 -0.000371 -0.013829
11  -0.244726 3.701095 0.087733  0.005566 0.000122 0.279182
12  0.000000 1.766586 0.000002  0.002197 -0.003740 -0.179567
13  -0.000001 1.189003 0.000000  -0.017690 -0.000538 -0.072342
14  -0.277238 3.632248 1.274102  0.082517 -0.023029 0.380969
15  0.000000 1.798495 -0.000000  0.037668 0.003685 -0.097751
16  -0.000001 1.235452 -0.000001  -0.003785 0.007660 0.120099
17  0.315442 0.857300 0.755943  1.797654 0.530907 1.279642
18  -0.000001 2.265940 0.000000  -0.105877 -0.032342 -0.558443
19  0.000001 1.457811 -0.000000  -0.032216 0.044724 -0.022885
20  -1.259681 3.818375 1.286945  0.082517 -0.023029 0.380969
21  -1.226390 3.891693 0.090419  0.005566 0.000122 0.279182
22  -1.231622 3.875535 -0.958681  -0.061193 0.010433 0.257709
23  -1.209918 3.994781 -2.003048  -0.108534 0.015685 0.242474
24  0.328906 0.095430 1.403532  1.797654 0.530907 1.279642
25  14.346586 -16.660513 7.263463  1.666295 -0.458498 -1.253831
26  24.489557 -12.765261 -10.634670  -1.570796 -0.000000 -1.570796
27  0.449198 -13.144855 -6.669335  -0.051945 -0.000000 -1.570796
28  -9.531058 -9.409285 6.572386  -1.571664 -2.897242 -0.042724
29  -0.000001 13.479274 0.000002  0.143342 0.000000 0.000000
30  -0.000000 13.477238 0.000000  -0.916279 0.315825 -0.029423
31  0.267270 3.664727 -1.953293  0.109629 -0.107225 0.495175
32  -0.000000 1.180359 -0.000000  -0.029953 -0.007842 0.846531
33  0.000001 0.817135 0.000002  0.012286 -0.000556 1.260036
34  0.249423 3.688540 -0.940890  -0.126560 -0.145246 0.899651
35  0.000002 1.800635 -0.000001  -0.009643 -0.027168 1.400081
36  -0.000000 1.243405 0.000000  0.002452 -0.006045 1.256196
37  0.244728 3.701099 0.087734  -0.174753 -0.151318 0.769501
38  0.000002 1.766585 -0.000000  0.009385 0.010267 1.319679
39  0.000004 1.189002 0.000000  -0.006898 0.016298 1.212361
40  0.277240 3.632251 1.274103  -0.295695 -0.170063 0.706217
41  -0.000001 1.798495 0.000000  0.035176 0.008609 1.280163
42  0.000001 1.235452 0.000002  -0.008523 0.000599 1.061936
43  -0.315440 0.857301 0.755944  -0.678477 -2.468995 1.317854
44  -0.000000 2.265940 0.000001  -0.026878 0.060881 0.878738
45  0.000001 1.457810 -0.000000  -0.051628 -0.019293 0.611810
46  1.259681 3.818377 1.286947  -0.295695 -0.170063 0.706217
47  1.226391 3.891693 0.090417  -0.174753 -0.151318 0.769501
48  1.231624 3.875536 -0.958679  -0.126560 -0.145246 0.899651
49  1.209919 3.994781 -2.003049  0.109629 -0.107225 0.495175
50  -0.328905 0.095432 1.403534  -0.678476 -2.468995 1.317854
51  -2.967288 -7.786163 32.595642  0.721239 -0.248341 -2.857234
52  -9.069562 -16.182709 9.581903  -1.570796 -0.000000 1.570796
53  -9.531058 -9.409285 6.572386  -0.051945 0.000000 1.570796
54  -0.772398 -34.458557 -10.281702  2.367805 -0.179567 0.276891
55  -0.000002 0.000001 0.000000  -0.000000 0.000000 0.000000
56  -0.000002 0.000001 0.000000  -0.000000 0.000000 0.000000
time 4
0  0 0 0  0 0 0
1  0.000000 0.000000 0.000000  1.570796 -0.000000 0.000000
2  0.449198 -13.144855 -6.669335  -0.012051 0.249505 -1.597045
3  -0.000001 13.479277 0.000000  1.535408 0.000000 -0.000000
4  0.000002 13.477239 -0.000001  0.187039 0.368361 0.701461
5  -0.267271 3.664727 -1.953292  -0.109511 0.005673 0.151060
6  0.000000 1.180354 -0.000001  -0.036227 -0.009171 -0.225115
7  -0.000000 0.817137 0.000002  0.004746 -0.011345 -0.040263
8  -0.249425 3.688542 -0.940888  -0.061891 0.004773 0.165926
9  -0.000002 1.800633 -0.000001  0.004850 0.002278 -0.249651
10  0.000001 1.243406 0.000000  0.006520 0.000228 -0.105781
11  -0.244729 3.701097 0.087734  0.005531 0.000632 0.187229
12  -0.000001 1.766586 0.000000  0.002532 -0.003522 -0.271522
13  -0.000001 1.189003 -0.000001  -0.017565 -0.002160 -0.164283
14  -0.277242 3.632250 1.274104  0.083588 -0.015128 0.289340
15  0.000001 1.798493 0.000000  0.037172 0.007124 -0.189574
16  0.000000 1.235452 -0.000000  -0.004472 0.007280 0.028211
17  0.315438 0.857302 0.755945  1.798939 0.540955 1.282597
18  -0.000000 2.265940 -0.000000  -0.105369 -0.032797 -0.568696
19  -0.000001 1.457812 0.000001  -0.032673 0.044391 -0.033149
20  -1.259681 3.818375 1.286947  0.083588 -0.015128 0.289340
21  -1.226392 3.891695 0.090420  0.005531 0.000632 0.187229
22  -1.231624 3.875535 -0.958679  -0.061891 0.004773 0.165926
23  -1.209921 3.994783 -2.003047  -0.109511 0.005673 0.151060
24  0.328904 0.095429 1.403534  1.798939 0.540955 1.282597
25  14.475187 -16.798100 6.217914  1.539006 -0.400878 -1.161769
26  24.489557 -12.765261 -10.634670  -1.570796 -0.000000 -1.570796
27  0.449198 -13.144855 -6.669335  -0.051945 -0.000000 -1.570796
28  -9.381649 -11.082344 9.605203  -1.622088 -2.973959 0.089882
29  0.000001 13.479276 0.000001  0.309696 0.000000 0.000000
30  -0.000000 13.477238 0.000000  -0.986511 0.313221 0.319926
31  0.267270 3.664728 -1.953294  0.109629 -0.107225 0.495175
32  0.000000 1.180356 -0.000001  -0.029953 -0.007842 0.846531
33  -0.000001 0.817137 -0.000001  0.012286 -0.000556 1.260036
34  0.249423 3.688545 -0.940893  -0.126560 -0.145246 0.899651
35  0.000002 1.800633 0.000001  -0.009643 -0.027168 1.400081
36  -0.000001 1.243406 0.000000  0.002452 -0.006045 1.256196
37  0.244727 3.701098 0.087731  -0.174753 -0.151318 0.769501
38  0.000001 1.766585 -0.000001  0.009385 0.010267 1.319679
39  -0.000001 1.189010 -0.000001  -0.006898 0.016298 1.212361
40  0.277240 3.632251 1.274102  -0.295695 -0.170063 0.706217
41  0.000007 1.798495 0.000000  0.035176 0.008609 1.280163
42  -0.000001 1.235452 -0.000001  -0.008523 0.000599 1.061936
43  -0.315441 0.857301 0.755943  -0.678476 -2.468995 1.317854
44  -0.000001 2.265940 -0.000004  -0.026878 0.060881 0.878738
45  0.000001 1.457812 -0.000005  -0.051628 -0.019293 0.611810
46  1.259681 3.818377 1.286947  -0.295695 -0.170063 0.706217
47  1.226393 3.891696 0.090419  -0.174753 -0.151318 0.769501
48  1.231624 3.875536 -0.958681  -0.126560 -0.145246 0.899651
49  1.209920 3.994786 -2.003049  0.109629 -0.107225 0.495175
50  -0.328906 0.095432 1.403531  -0.678476 -2.468995 1.317854
51  -5.226518 -7.943834 35.725174  0.699356 -0.539280 -2.790694
52  -8.002417 -17.198303 14.478640  -1.570796 -0.000000 1.570796
53  -9.381649 -11.082344 9.605203  -0.051945 0.000000 1.570796
54  -2.440331 -37.049324 -10.179792  2.277412 -0.202323 0.577004
55  -0.000001 -0.000001 0.000000  0.000000 0.000000 -0.000000
56  -0.000001 -0.000001 0.000000  0.000000 0.000000 -0.000000
time 5
0  0 0 0  0 0 0
1  0.000000 0.000000 0.000000  1.570796 -0.000000 0.000000
2  0.449198 -13.144855 -6.669335  -0.012706 0.247611 -1.596712
3  0.000000 13.479278 0.000000  1.541013 0.000000 -0.000000
4  0.000001 13.477238 -0.000001  0.099837 0.379451 0.654691
5  -0.267269 3.664728 -1.953293  -0.109303 -0.008823 0.019288
6  0.000001 1.180356 0.000001  -0.034698 -0.013878 -0.357604
7  0.000002 0.817134 0.000001  0.006204 -0.010618 -0.172832
8  -0.249422 3.688542 -0.940888  -0.061980 -0.003444 0.033614
9  0.000002 1.800635 -0.000000  0.004506 0.002899 -0.382216
10  0.000003 1.243405 0.000001  0.006432 0.001088 -0.238345
11  -0.244725 3.701096 0.087733  0.005399 0.001358 0.054665
12  0.000000 1.766584 -0.000001  0.002975 -0.003156 -0.404089
13  -0.000002 1.189004 -0.000001  -0.017126 -0.004463 -0.296829
14  -0.277238 3.632249 1.274102  0.084804 -0.003620 0.157267
15  0.000000 1.798494 -0.000001  0.035906 0.011971 -0.321959
16  -0.000000 1.235452 -0.000000  -0.005394 0.006626 -0.104258
17  0.315443 0.857300 0.755944  1.801607 0.560548 1.288372
18  -0.000000 2.265940 -0.000001  -0.104366 -0.033669 -0.588664
19  0.000000 1.457811 0.000001  -0.033554 0.043729 -0.053137
20  -1.259681 3.818376 1.286946  0.084804 -0.003620 0.157267
21  -1.226389 3.891694 0.090419  0.005399 0.001358 0.054665
22  -1.231623 3.875535 -0.958680  -0.061979 -0.003444 0.033614
23  -1.209918 3.994782 -2.003047  -0.109303 -0.008823 0.019288
24  0.328907 0.095429 1.403532  1.801607 0.560548 1.288372
25  14.410299 -16.765850 6.218399  1.471988 -0.359726 -1.162109
26  24.489557 -12.765261 -10.634670  -1.570796 -0.000000 -1.570796
27  0.449198 -13.144855 -6.669335  -0.051945 -0.000000 -1.570796
28  -9.286521 -11.977547 10.783969  -1.556998 -2.961448 0.181904
29  -0.000001 13.479277 0.000001  0.207832 -0.000000 0.000000
30  0.000001 13.477238 -0.000000  -0.965704 0.234802 0.369836
31  0.267269 3.664727 -1.953294  0.109629 -0.107225 0.495175
32  0.000002 1.180355 -0.000001  -0.029953 -0.007842 0.846531
33  0.000002 0.817132 0.000001  0.012285 -0.000556 1.260036
34  0.249423 3.688541 -0.940890  -0.126560 -0.145246 0.899651
35  0.000002 1.800633 0.000001  -0.009643 -0.027168 1.400081
36  -0.000000 1.243409 -0.000000  0.002452 -0.006045 1.256196
37  0.244725 3.701094 0.087732  -0.174753 -0.151318 0.769501
38  -0.000003 1.766585 0.000001  0.009385 0.010267 1.319679
39  0.000001 1.189009 -0.000002  -0.006898 0.016298 1.212361
40  0.277239 3.632248 1.274101  -0.295695 -0.170063 0.706217
41  -0.000003 1.798494 -0.000002  0.035176 0.008609 1.280163
42  -0.000003 1.235458 -0.000001  -0.008523 0.000599 1.061936
43  -0.315444 0.857298 0.755939  -0.678476 -2.468995 1.317854
44  -0.000001 2.265941 -0.000002  -0.026878 0.060881 0.878738
45  -0.000001 1.457811 -0.000001  -0.051628 -0.019293 0.611810
46  1.259680 3.818372 1.286943  -0.295695 -0.170063 0.706217
47  1.226392 3.891695 0.090418  -0.174753 -0.151318 0.769501
48  1.231624 3.875534 -0.958681  -0.126560 -0.145246 0.899651
49  1.209918 3.994780 -2.003050  0.109629 -0.107225 0.495175
50  -0.328907 0.095427 1.403531  -0.678476 -2.468995 1.317854
51  -5.164262 -8.017918 36.978691  0.713989 -0.582584 -2.779463
52  -7.455713 -18.502657 14.189394  -1.570796 -0.000000 1.570796
53  -9.286521 -11.977547 10.783969  -0.051945 0.000000 1.570796
54  -2.289176 -38.258781 -10.165234  2.243936 -0.202975 0.620001
55  0.000001 0.000000 -0.000000  -0.000000 -0.000000 -0.000000
56  0.000001 0.000000 -0.000000  -0.000000 -0.000000 -0.000000
time 6
0  0 0 0  0 0 0
1  0.000000 0.000000 0.000000  1.570796 -0.000000 0.000000
2  0.449198 -13.144855 -6.669335  -0.014408 0.241608 -1.595660
3  0.000001 13.479277 0.000001  1.556737 0.000000 -0.000000
4  0.000000 13.477239 -0.000001  0.026617 0.390202 0.612255
5  -0.267268 3.664725 -1.953292  -0.106617 -0.025692 -0.136073
6  -0.000001 1.180355 -0.000001  -0.032117 -0.019108 -0.513783
7  -0.000000 0.817134 0.000001  0.007781 -0.009523 -0.329082
8  -0.249421 3.688542 -0.940890  -0.060691 -0.013041 -0.122345
9  0.000001 1.800634 -0.000000  0.004000 0.003565 -0.538464
10  -0.000001 1.243405 -0.000001  0.006185 0.002076 -0.394591
11  -0.244725 3.701095 0.087734  0.005122 0.002181 -0.101582
12  -0.000001 1.766587 -0.000000  0.003430 -0.002655 -0.560337
13  0.000000 1.189006 0.000000  -0.016223 -0.007073 -0.453059
14  -0.277237 3.632248 1.274103  0.084963 0.009956 0.001607
15  0.000001 1.798494 0.000001  0.033609 0.017408 -0.478020
16  -0.000001 1.235452 -0.000000  -0.006359 0.005707 -0.260397
17  0.315443 0.857300 0.755943  1.806494 0.592922 1.297973
18  0.000001 2.265940 0.000002  -0.102675 -0.035063 -0.621588
19  -0.000000 1.457812 -0.000001  -0.034975 0.042601 -0.086087
20  -1.259680 3.818374 1.286946  0.084963 0.009956 0.001607
21  -1.226388 3.891693 0.090419  0.005122 0.002181 -0.101582
22  -1.231622 3.875533 -0.958679  -0.060691 -0.013041 -0.122345
23  -1.209916 3.994781 -2.003048  -0.106617 -0.025692 -0.136073
24  0.328909 0.095428 1.403533  1.806494 0.592922 1.297973
25  14.226923 -16.665127 6.221796  1.423967 -0.330240 -1.164491
26  24.489557 -12.765261 -10.634670  -1.570796 -0.000000 -1.570796
27  0.449198 -13.144855 -6.669335  -0.051945 -0.000000 -1.570796
28  -9.292231 -11.678528 10.698735  -1.597728 -2.964045 0.139071
29  -0.000001 13.479278 0.000000  0.285671 0.000000 0.000000
30  -0.000000 13.477239 -0.000002  -0.984575 0.253428 0.330502
31  0.267269 3.664725 -1.953291  0.109629 -0.107225 0.495175
32  0.000002 1.180353 -0.000000  -0.029953 -0.007842 0.846531
33  -0.000001 0.817134 0.000003  0.012285 -0.000556 1.260036
34  0.249422 3.688540 -0.940887  -0.126560 -0.145246 0.899651
35  -0.000000 1.800634 0.000001  -0.009643 -0.027168 1.400081
36  0.000001 1.243406 0.000001  0.002452 -0.006045 1.256196
37  0.244725 3.701093 0.087733  -0.174753 -0.151318 0.769501
38  -0.000001 1.766585 0.000001  0.009385 0.010267 1.319679
39  0.000002 1.189004 -0.000001  -0.006898 0.016298 1.212361
40  0.277238 3.632246 1.274104  -0.295695 -0.170063 0.706217
41  0.000001 1.798494 0.000001  0.035176 0.008609 1.280163
42  0.000001 1.235453 0.000002  -0.008523 0.000599 1.061936
43  -0.315440 0.857300 0.755947  -0.678477 -2.468995 1.317854
44  -0.000000 2.265939 -0.000003  -0.026878 0.060881 0.878738
45  0.000001 1.457810 0.000002  -0.051628 -0.019293 0.611810
46  1.259681 3.818374 1.286947  -0.295695 -0.170063 0.706217
47  1.226389 3.891690 0.090418  -0.174753 -0.151318 0.769501
48  1.231622 3.875534 -0.958679  -0.126560 -0.145246 0.899651
49  1.209918 3.994781 -2.003047  0.109629 -0.107225 0.495175
50  -0.328905 0.095428 1.403534  -0.678476 -2.468995 1.317854
51  -5.084250 -7.974097 36.785110  0.732889 -0.551289 -2.811185
52  -7.561547 -19.371208 14.307751  -1.570796 -0.000000 1.570796
53  -9.292231 -11.678528 10.698735  -0.051945 0.000000 1.570796
54  -2.302577 -38.173298 -10.176586  2.252699 -0.182718 0.583472
55  0.000001 0.000001 -0.000001  -0.000000 -0.000000 -0.000000
56  0.000001 0.000001 -0.000001  -0.000000 -0.000000 -0.000000
time 7
0  0 0 0  0 0 0
1  0.000000 0.000000 0.000000  1.570796 -0.000000 0.000000
2  0.449198 -13.144855 -6.669335  -0.016587 0.230977 -1.593803
3  0.000002 13.479276 0.000000  1.580751 0.000000 -0.000000
4  -0.000000 13.477239 0.000000  -0.036338 0.397853 0.571647
5  -0.267269 3.664727 -1.953295  -0.101065 -0.042625 -0.298289
6  0.000000 1.180357 0.000000  -0.028592 -0.024066 -0.676744
7  -0.000001 0.817137 -0.000000  0.009223 -0.008135 -0.492080
8  -0.249422 3.688542 -0.940890  -0.057776 -0.022712 -0.285086
9  0.000003 1.800632 -0.000001  0.003369 0.004167 -0.701466
10  0.000001 1.243405 -0.000000  0.005766 0.003052 -0.557590
11  -0.244726 3.701096 0.087731  0.004700 0.002984 -0.264582
12  -0.000001 1.766584 -0.000001  0.003815 -0.002063 -0.723339
13  0.000002 1.189004 -0.000000  -0.014860 -0.009612 -0.616047
14  -0.277239 3.632250 1.274101  0.083291 0.023870 -0.160824
15  0.000001 1.798494 0.000000  0.030342 0.022627 -0.640868
16  0.000001 1.235452 0.000001  -0.007200 0.004600 -0.423294
17  0.315442 0.857300 0.755942  1.814960 0.641368 1.312558
18  0.000000 2.265940 0.000000  -0.100070 -0.037036 -0.670711
19  0.000000 1.457811 0.000001  -0.037026 0.040832 -0.135235
20  -1.259681 3.818375 1.286944  0.083291 0.023870 -0.160824
21  -1.226389 3.891695 0.090418  0.004700 0.002984 -0.264582
22  -1.231622 3.875534 -0.958681  -0.057776 -0.022712 -0.285086
23  -1.209918 3.994782 -2.003048  -0.101064 -0.042625 -0.298289
24  0.328907 0.095429 1.403531  1.814960 0.641368 1.312558
25  13.941984 -16.489967 6.231017  1.391778 -0.310474 -1.170956
26  24.489557 -12.765261 -10.634670  -1.570796 -0.000000 -1.570796
27  0.449198 -13.144855 -6.669335  -0.051945 -0.000000 -1.570796
28  -9.330539 -10.966143 10.102181  -1.652139 -2.968481 0.027363
29  -0.000001 13.479274 0.000001  0.389500 -0.000000 0.000000
30  0.000001 13.477241 0.000000  -1.023980 0.280727 0.232757
31  0.267269 3.664726 -1.953291  0.109629 -0.107225 0.495175
32  0.000005 1.180355 -0.000002  -0.029953 -0.007842 0.846531
33  0.000001 0.817134 0.000000  0.012285 -0.000556 1.260036
34  0.249421 3.688539 -0.940889  -0.126560 -0.145246 0.899651
35  0.000004 1.800634 0.000003  -0.009643 -0.027168 1.400081
36  0.000001 1.243405 -0.000002  0.002452 -0.006045 1.256196
37  0.244727 3.701095 0.087734  -0.174753 -0.151318 0.769501
38  -0.000003 1.766585 -0.000001  0.009385 0.010267 1.319679
39  -0.000002 1.188999 0.000000  -0.006898 0.016298 1.212361
40  0.277239 3.632247 1.274102  -0.295695 -0.170063 0.706217
41  0.000004 1.798494 0.000003  0.035176 0.008609 1.280163
42  -0.000003 1.235453 -0.000002  -0.008523 0.000599 1.061936
43  -0.315441 0.857300 0.755944  -0.678477 -2.468995 1.317854
44  -0.000002 2.265938 -0.000006  -0.026878 0.060881 0.878738
45  -0.000000 1.457812 0.000000  -0.051628 -0.019293 0.611810
46  1.259682 3.818374 1.286948  -0.295695 -0.170063 0.706217
47  1.226391 3.891692 0.090419  -0.174753 -0.151318 0.769501
48  1.231623 3.875534 -0.958679  -0.126560 -0.145246 0.899651
49  1.209919 3.994781 -2.003046  0.109629 -0.107225 0.495175
50  -0.328905 0.095430 1.403535  -0.678476 -2.468995 1.317854
51  -4.887946 -7.850981 35.986374  0.750733 -0.468842 -2.891817
52  -8.302378 -19.904379 14.581337  -1.570796 -0.000000 1.570796
53  -9.330539 -10.966143 10.102181  -0.051945 0.000000 1.570796
54  -2.396384 -37.574905 -10.256058  2.297489 -0.125457 0.493083
55  -0.000001 0.000001 0.000003  -0.000000 0.000000 0.000000
56  -0.000001 0.000001 0.000003  -0.000000 0.000000 0.000000
time 8
0  0 0 0  0 0 0
1  0.000000 0.000000 0.000000  1.570796 -0.000000 0.000000
2  0.449198 -13.144855 -6.669335  -0.018509 0.215149 -1.591057
3  0.000002 13.479277 0.000000  1.611053 0.000000 -0.000000
4  0.000000 13.477239 -0.000001  -0.092541 0.399582 0.530727
5  -0.267270 3.664726 -1.953291  -0.093429 -0.057493 -0.450582
6  0.000001 1.180357 0.000000  -0.024595 -0.028137 -0.829564
7  -0.000001 0.817134 -0.000001  0.010354 -0.006636 -0.644898
8  -0.249421 3.688542 -0.940887  -0.053651 -0.031238 -0.437730
9  -0.000002 1.800632 -0.000001  0.002695 0.004631 -0.854292
10  -0.000001 1.243405 -0.000000  0.005234 0.003894 -0.710414
11  -0.244726 3.701096 0.087734  0.004191 0.003664 -0.417407
12  -0.000002 1.766585 -0.000002  0.004085 -0.001458 -0.876163
13  -0.000001 1.189003 -0.000001  -0.013224 -0.011762 -0.768866
14  -0.277239 3.632248 1.274103  0.079614 0.036369 -0.313206
15  -0.000001 1.798494 -0.000000  0.026547 0.026980 -0.793602
16  0.000003 1.235451 -0.000000  -0.007816 0.003451 -0.576040
17  0.315443 0.857299 0.755944  1.829306 0.709234 1.333695
18  -0.000001 2.265940 0.000001  -0.096279 -0.039572 -0.739281
19  -0.000001 1.457813 0.000001  -0.039736 0.038199 -0.203815
20  -1.259682 3.818375 1.286946  0.079614 0.036369 -0.313206
21  -1.226390 3.891693 0.090420  0.004191 0.003664 -0.417407
22  -1.231622 3.875534 -0.958680  -0.053651 -0.031238 -0.437730
23  -1.209917 3.994781 -2.003047  -0.093429 -0.057492 -0.450582
24  0.328907 0.095429 1.403534  1.829306 0.709234 1.333695
25  13.572409 -16.234413 6.248974  1.372252 -0.298486 -1.183545
26  24.489557 -12.765261 -10.634670  -1.570796 -0.000000 -1.570796
27  0.449198 -13.144855 -6.669335  -0.051945 -0.000000 -1.570796
28  -9.433219 -10.117393 8.483030  1.449224 -0.164128 2.961540
29  0.000001 13.479277 -0.000000  0.480827 -0.000000 0.000000
30  -0.000001 13.477239 0.000002  -1.063927 0.356854 0.088564
31  0.267272 3.664732 -1.953295  0.109629 -0.107225 0.495175
32  -0.000001 1.180353 -0.000000  -0.029953 -0.007842 0.846531
33  -0.000005 0.817135 -0.000003  0.012285 -0.000556 1.260037
34  0.249424 3.688544 -0.940892  -0.126560 -0.145246 0.899651
35  -0.000003 1.800633 -0.000000  -0.009643 -0.027168 1.400081
36  -0.000002 1.243404 0.000001  0.002452 -0.006045 1.256196
37  0.244727 3.701098 0.087730  -0.174753 -0.151318 0.769501
38  0.000002 1.766585 0.000000  0.009385 0.010267 1.319679
39  -0.000002 1.189009 -0.000003  -0.006898 0.016298 1.212362
40  0.277241 3.632251 1.274099  -0.295695 -0.170063 0.706217
41  -0.000001 1.798493 0.000000  0.035176 0.008609 1.280163
42  0.000000 1.235448 -0.000001  -0.008523 0.000599 1.061936
43  -0.315441 0.857303 0.755940  -0.678476 -2.468995 1.317854
44  -0.000000 2.265940 -0.000000  -0.026878 0.060881 0.878738
45  -0.000001 1.457811 -0.000003  -0.051628 -0.019293 0.611810
46  1.259682 3.818377 1.286943  -0.295695 -0.170063 0.706217
47  1.226392 3.891696 0.090415  -0.174753 -0.151318 0.769501
48  1.231624 3.875538 -0.958682  -0.126560 -0.145246 0.899651
49  1.209920 3.994785 -2.003050  0.109629 -0.107225 0.495175
50  -0.328905 0.095432 1.403532  -0.678476 -2.468995 1.317854
51  -4.698569 -7.824728 34.129604  0.765555 -0.357791 -2.997996
52  -10.313205 -20.875181 14.887922  -1.570796 -0.000000 1.570796
53  -9.433219 -10.117393 8.483030  -0.051945 0.000000 1.570796
54  -2.651000 -35.950691 -10.471766  2.347425 -0.038238 0.377295
55  0.000000 0.000001 0.000002  0.000000 -0.000000 0.000000
56  0.000000 0.000001 0.000002  0.000000 -0.000000 0.000000
time 9
0  0 0 0  0 0 0
1  0.000000 0.000000 0.000000  1.570796 -0.000000 0.000000
2  0.449198 -13.144855 -6.669335  -0.019333 0.193523 -1.587335
3  0.000001 13.479276 0.000000  1.645526 0.000000 -0.000000
4  -0.000001 13.477238 -0.000000  -0.145371 0.392444 0.487865
5  -0.267268 3.664727 -1.953293  -0.085813 -0.068355 -0.571553
6  -0.000000 1.180356 0.000000  -0.021012 -0.030905 -0.950800
7  -0.000000 0.817134 -0.000001  0.011081 -0.005335 -0.766109
8  -0.249422 3.688543 -0.940890  -0.049484 -0.037494 -0.558858
9  -0.000000 1.800632 0.000001  0.002115 0.004923 -0.975511
10  0.000001 1.243406 0.000000  0.004725 0.004498 -0.831631
11  -0.244726 3.701096 0.087733  0.003717 0.004144 -0.538625
12  -0.000001 1.766584 0.000000  0.004231 -0.000954 -0.997380
13  -0.000000 1.189006 -0.000001  -0.011705 -0.013275 -0.890084
14  -0.277239 3.632249 1.274101  0.074705 0.045647 -0.434172
15  -0.000002 1.798495 0.000001  0.023091 0.029991 -0.914795
16  -0.000000 1.235452 -0.000001  -0.008176 0.002480 -0.697218
17  0.315442 0.857300 0.755943  1.860279 0.824474 1.378699
18  -0.000000 2.265940 0.000000  -0.089508 -0.043247 -0.855156
19  -0.000001 1.457811 -0.000001  -0.043883 0.033352 -0.319638
20  -1.259680 3.818375 1.286946  0.074705 0.045647 -0.434172
21  -1.226391 3.891694 0.090418  0.003717 0.004144 -0.538625
22  -1.231623 3.875535 -0.958681  -0.049484 -0.037494 -0.558858
23  -1.209918 3.994783 -2.003049  -0.085813 -0.068355 -0.571553
24  0.328907 0.095429 1.403532  1.860279 0.824474 1.378699
25  13.135126 -15.892500 6.278579  1.362226 -0.292329 -1.204301
26  24.489557 -12.765261 -10.634670  -1.570796 -0.000000 -1.570796
27  0.449198 -13.144855 -6.669335  -0.051945 -0.000000 -1.570796
28  -9.523657 -9.409285 3.626774  1.491280 -0.098499 2.718617
29  -0.000001 13.479278 -0.000001  0.313729 -0.000000 0.000000
30  0.000000 13.477238 0.000001  -0.938426 0.465515 0.052103
31  0.267269 3.664728 -1.953291  0.109629 -0.107225 0.495175
32  -0.000004 1.180355 0.000000  -0.029953 -0.007842 0.846531
33  -0.000001 0.817136 0.000004  0.012285 -0.000556 1.260036
34  0.249422 3.688542 -0.940886  -0.126560 -0.145245 0.899651
35  -0.000002 1.800633 0.000000  -0.009643 -0.027168 1.400081
36  0.000003 1.243406 -0.000000  0.002452 -0.006045 1.256196
37  0.244726 3.701097 0.087736  -0.174753 -0.151318 0.769501
38  -0.000002 1.766585 0.000001  0.009385 0.010267 1.319679
39  0.000001 1.189002 -0.000002  -0.006898 0.016298 1.212362
40  0.277238 3.632248 1.274103  -0.295695 -0.170063 0.706217
41  -0.000002 1.798494 0.000000  0.035176 0.008609 1.280163
42  0.000000 1.235452 -0.000003  -0.008523 0.000599 1.061936
43  -0.315442 0.857301 0.755946  -0.678476 -2.468995 1.317854
44  0.000000 2.265938 0.000004  -0.026878 0.060881 0.878738
45  -0.000000 1.457810 -0.000000  -0.051628 -0.019293 0.611810
46  1.259680 3.818374 1.286947  -0.295695 -0.170063 0.706217
47  1.226389 3.891695 0.090422  -0.174753 -0.151318 0.769501
48  1.231622 3.875536 -0.958677  -0.126560 -0.145246 0.899651
49  1.209919 3.994782 -2.003046  0.109629 -0.107225 0.495175
50  -0.328907 0.095430 1.403536  -0.678476 -2.468995 1.317854
51  -6.298816 -8.605081 30.044050  0.776611 -0.238736 -3.110910
52  -14.303683 -22.796757 15.127203  -1.570796 -0.000000 1.570796
53  -9.523657 -9.409285 3.626774  -0.051945 0.000000 1.570796
54  -4.783594 -32.079105 -11.447330  2.381441 0.065812 0.258062
55  0.000000 0.000000 0.000004  -0.000000 -0.000000 0.000000
56  0.000000 0.000000 0.000004  -0.000000 -0.000000 0.000000
time 10
0  0 0 0  0 0 0
1  0.000000 0.000000 0.000000  1.570796 -0.000000 0.000000
2  0.449198 -13.144855 -6.669335  -0.018162 0.165484 -1.582555
3  0.000000 13.479278 0.000000  1.681977 0.000000 -0.000000
4  -0.000001 13.477240 0.000001  -0.198034 0.373325 0.442105
5  -0.267268 3.664725 -1.953292  -0.082283 -0.072568 -0.621671
6  0.000001 1.180355 -0.000001  -0.019436 -0.031919 -1.000985
7  0.000000 0.817135 0.000001  0.011334 -0.004773 -0.816276
8  -0.249421 3.688540 -0.940889  -0.047542 -0.039928 -0.609007
9  -0.000001 1.800632 -0.000000  0.001866 0.005023 -1.025682
10  0.000000 1.243407 0.000000  0.004493 0.004730 -0.881802
11  -0.244725 3.701096 0.087732  0.003505 0.004326 -0.588796
12  0.000001 1.766585 -0.000001  0.004274 -0.000740 -1.047550
13  0.000000 1.189003 0.000000  -0.011024 -0.013845 -0.940256
14  -0.277238 3.632248 1.274102  0.072097 0.049289 -0.484268
15  0.000000 1.798494 -0.000000  0.021558 0.031111 -0.964969
16  -0.000000 1.235452 0.000000  -0.008290 0.002067 -0.747379
17  0.315443 0.857299 0.755943  1.888301 0.900310 1.415199
18  -0.000001 2.265939 -0.000000  -0.084843 -0.045226 -0.931355
19  0.000000 1.457811 -0.000001  -0.046292 0.029917 -0.395761
20  -1.259680 3.818375 1.286946  0.072097 0.049289 -0.484268
21  -1.226388 3.891693 0.090419  0.003505 0.004326 -0.588795
22  -1.231622 3.875533 -0.958681  -0.047543 -0.039928 -0.609007
23  -1.209917 3.994782 -2.003048  -0.082284 -0.072568 -0.621671
24  0.328907 0.095428 1.403532  1.888301 0.900310 1.415199
25  12.647062 -15.458266 6.322743  1.358532 -0.290061 -1.235264
26  24.489557 -12.765261 -10.634670  -1.570796 -0.000000 -1.570796
27  0.449198 -13.144855 -6.669335  -0.051945 -0.000000 -1.570796
28  -9.555275 -8.911913 -2.446604  1.426778 -0.013682 2.585024
29  -0.000001 13.479276 -0.000001  0.188750 0.000000 0.000000
30  -0.000000 13.477237 -0.000001  -0.772743 0.473392 0.103089
31  0.267269 3.664726 -1.953293  0.109629 -0.107225 0.495175
32  -0.000001 1.180355 0.000003  -0.029953 -0.007842 0.846531
33  -0.000001 0.817134 0.000001  0.012285 -0.000556 1.260036
34  0.249422 3.688543 -0.940891  -0.126560 -0.145246 0.899651
35  -0.000001 1.800632 0.000001  -0.009643 -0.027168 1.400081
36  -0.000001 1.243406 0.000002  0.002452 -0.006045 1.256196
37  0.244725 3.701097 0.087731  -0.174753 -0.151318 0.769501
38  -0.000002 1.766585 0.000000  0.009385 0.010267 1.319679
39  0.000001 1.189001 -0.000003  -0.006897 0.016298 1.212361
40  0.277239 3.632248 1.274101  -0.295695 -0.170063 0.706217
41  0.000002 1.798492 -0.000002  0.035176 0.008609 1.280163
42  -0.000001 1.235453 0.000001  -0.008523 0.000599 1.061936
43  -0.315441 0.857300 0.755942  -0.678476 -2.468995 1.317854
44  0.000000 2.265941 0.000000  -0.026878 0.060881 0.878738
45  0.000000 1.457810 0.000000  -0.051628 -0.019293 0.611810
46  1.259682 3.818377 1.286945  -0.295695 -0.170063 0.706217
47  1.226391 3.891693 0.090419  -0.174753 -0.151318 0.769501
48  1.231624 3.875536 -0.958680  -0.126560 -0.145246 0.899651
49  1.209918 3.994783 -2.003050  0.109629 -0.107225 0.495175
50  -0.328906 0.095429 1.403531  -0.678476 -2.468995 1.317854
51  -9.947525 -10.236517 24.354374  0.784676 -0.124306 3.057246
52  -19.367996 -25.142738 15.286573  -1.570796 -0.000000 1.570796
53  -9.555275 -8.911913 -2.446604  -0.051945 0.000000 1.570796
54  -9.004929 -26.562126 -13.195075  2.393448 0.179105 0.145171
55  -0.000000 0.000000 0.000002  -0.000000 -0.000000 0.000000
56  -0.000000 0.000000 0.000002  -0.000000 -0.000000 0.000000
time 11
0  0 0 0  0 0 0
1  0.000000 0.000000 0.000000  1.570796 -0.000000 0.000000
2  0.449198 -13.144855 -6.669335  -0.014211 0.130448 -1.576646
3  0.000001 13.479278 0.000001  1.718333 0.000000 -0.000000
4  -0.000001 13.477240 0.000002  -0.253520 0.338978 0.393305
5  -0.267271 3.664727 -1.953292  -0.083485 -0.071182 -0.604945
6  -0.000002 1.180355 0.000000  -0.019968 -0.031589 -0.984240
7  0.000001 0.817138 -0.000001  0.011253 -0.004962 -0.799538
8  -0.249424 3.688542 -0.940888  -0.048204 -0.039127 -0.592274
9  0.000000 1.800632 -0.000000  0.001950 0.004991 -1.008942
10  -0.000001 1.243407 0.000000  0.004572 0.004654 -0.865062
11  -0.244727 3.701096 0.087734  0.003577 0.004266 -0.572056
12  -0.000001 1.766584 -0.000000  0.004261 -0.000812 -1.030810
13  0.000000 1.189004 0.000000  -0.011254 -0.013659 -0.923515
14  -0.277241 3.632248 1.274103  0.072781 0.047999 -0.467560
15  0.000001 1.798495 -0.000000  0.022076 0.030746 -0.948233
16  0.000001 1.235452 0.000000  -0.008255 0.002206 -0.730648
17  0.315440 0.857300 0.755944  1.885467 0.893559 1.411897
18  0.000000 2.265939 -0.000002  -0.085264 -0.045064 -0.924563
19  -0.000000 1.457811 -0.000001  -0.046088 0.030231 -0.388976
20  -1.259683 3.818374 1.286947  0.072781 0.047999 -0.467560
21  -1.226392 3.891692 0.090420  0.003577 0.004266 -0.572056
22  -1.231625 3.875533 -0.958680  -0.048204 -0.039127 -0.592273
23  -1.209920 3.994781 -2.003047  -0.083485 -0.071182 -0.604945
24  0.328905 0.095428 1.403533  1.885467 0.893559 1.411897
25  12.125143 -14.925753 6.384378  1.358005 -0.289737 -1.278477
26  24.489557 -12.765261 -10.634670  -1.570796 -0.000000 -1.570796
27  0.449198 -13.144855 -6.669335  -0.051945 -0.000000 -1.570796
28  -9.536996 -8.504702 -5.217978  0.990975 0.055770 2.539904
29  -0.000001 13.479275 0.000001  0.755419 -0.000000 0.000000
30  0.000000 13.477238 0.000001  -0.960094 0.408952 0.007680
31  0.267269 3.664725 -1.953293  0.109629 -0.107225 0.495175
32  -0.000001 1.180355 0.000002  -0.029953 -0.007842 0.846531
33  -0.000001 0.817136 0.000002  0.012285 -0.000556 1.260036
34  0.249423 3.688541 -0.940889  -0.126560 -0.145246 0.899651
35  0.000001 1.800632 0.000002  -0.009643 -0.027168 1.400081
36  0.000001 1.243406 0.000001  0.002452 -0.006045 1.256196
37  0.244726 3.701096 0.087734  -0.174753 -0.151318 0.769501
38  0.000001 1.766583 0.000001  0.009385 0.010267 1.319679
39  0.000001 1.189004 -0.000001  -0.006897 0.016298 1.212361
40  0.277239 3.632248 1.274103  -0.295695 -0.170063 0.706217
41  -0.000001 1.798494 -0.000000  0.035176 0.008610 1.280163
42  0.000000 1.235453 0.000000  -0.008523 0.000599 1.061936
43  -0.315442 0.857299 0.755944  -0.678476 -2.468995 1.317854
44  0.000000 2.265940 0.000000  -0.026878 0.060881 0.878738
45  0.000000 1.457811 0.000002  -0.051628 -0.019293 0.611810
46  1.259681 3.818374 1.286947  -0.295695 -0.170063 0.706217
47  1.226391 3.891693 0.090420  -0.174753 -0.151318 0.769501
48  1.231622 3.875533 -0.958680  -0.126560 -0.145246 0.899651
49  1.209919 3.994781 -2.003046  0.109629 -0.107225 0.495175
50  -0.328906 0.095427 1.403533  -0.678476 -2.468995 1.317854
51  -13.512362 -11.877290 19.289700  0.790936 -0.025147 2.940999
52  -23.717939 -27.126904 15.375360  -1.570796 -0.000000 1.570796
53  -9.536996 -8.504702 -5.217978  -0.051945 0.000000 1.570796
54  -13.135807 -21.622169 -14.866188  2.384025 0.296148 0.045515
55  0.000001 -0.000000 0.000001  0.000000 0.000000 -0.000000
56  0.000001 -0.000000 0.000001  0.000000 0.000000 -0.000000
time 12
0  0 0 0  0 0 0
1  0.000000 0.000000 0.000000  1.570796 -0.000000 0.000000
2  0.449198 -13.144855 -6.669335  -0.006286 0.087932 -1.569548
3  0.000001 13.479277 0.000001  1.751830 0.000000 -0.000000
4  0.000001 13.477237 0.000000  -0.313290 0.213736 0.379447
5  -0.267270 3.664727 -1.953293  -0.086625 -0.067321 -0.559565
6  0.000001 1.180355 -0.000000  -0.021382 -0.030650 -0.938793
7  0.000000 0.817135 -0.000000  0.011016 -0.005468 -0.754105
8  -0.249424 3.688541 -0.940889  -0.049930 -0.036898 -0.546859
9  0.000001 1.800633 0.000001  0.002174 0.004897 -0.963506
10  0.000000 1.243405 0.000000  0.004778 0.004441 -0.819626
11  -0.244727 3.701096 0.087733  0.003767 0.004099 -0.526620
12  0.000000 1.766584 -0.000001  0.004219 -0.001005 -0.985375
13  -0.000000 1.189005 0.000001  -0.011863 -0.013133 -0.878078
14  -0.277240 3.632248 1.274103  0.074570 0.044460 -0.422219
15  -0.000000 1.798495 0.000001  0.023449 0.029712 -0.902809
16  0.000001 1.235453 -0.000000  -0.008146 0.002578 -0.685234
17  0.315440 0.857300 0.755944  1.878091 0.875226 1.403158
18  -0.000000 2.265939 -0.000000  -0.086404 -0.044610 -0.906127
19  -0.000001 1.457813 0.000001  -0.045524 0.031074 -0.370561
20  -1.259682 3.818375 1.286946  0.074570 0.044460 -0.422219
21  -1.226391 3.891694 0.090418  0.003767 0.004099 -0.526620
22  -1.231623 3.875535 -0.958681  -0.049930 -0.036898 -0.546859
23  -1.209919 3.994783 -2.003048  -0.086625 -0.067321 -0.559565
24  0.328905 0.095430 1.403533  1.878091 0.875226 1.403158
25  11.586298 -14.288996 6.466398  1.372997 -0.317410 -1.415315
26  24.489557 -12.765261 -10.634670  -1.570796 -0.000000 -1.570796
27  0.449198 -13.144855 -6.669335  -0.051945 -0.000000 -1.570796
28  -9.527609 -8.178631 -6.641115  0.883586 0.073794 2.524439
29  0.000000 13.479278 -0.000001  0.821504 -0.000000 0.000000
30  0.000001 13.477239 0.000001  -0.929757 0.299746 -0.018094
31  0.267269 3.664728 -1.953292  0.109629 -0.107225 0.495175
32  -0.000002 1.180352 0.000001  -0.029953 -0.007842 0.846531
33  0.000003 0.817136 0.000000  0.012285 -0.000556 1.260036
34  0.249422 3.688544 -0.940887  -0.126560 -0.145246 0.899651
35  0.000000 1.800634 -0.000000  -0.009643 -0.027168 1.400081
36  -0.000000 1.243405 0.000000  0.002452 -0.006045 1.256196
37  0.244726 3.701096 0.087734  -0.174753 -0.151318 0.769501
38  0.000001 1.766583 0.000000  0.009385 0.010267 1.319679
39  -0.000001 1.189004 0.000000  -0.006898 0.016298 1.212361
40  0.277238 3.632248 1.274102  -0.295695 -0.170063 0.706217
41  0.000002 1.798493 -0.000001  0.035176 0.008609 1.280163
42  0.000002 1.235454 -0.000000  -0.008523 0.000599 1.061936
43  -0.315443 0.857301 0.755946  -0.678476 -2.468995 1.317854
44  -0.000002 2.265937 0.000000  -0.026878 0.060881 0.878738
45  -0.000000 1.457811 -0.000002  -0.051628 -0.019293 0.611810
46  1.259680 3.818375 1.286948  -0.295695 -0.170063 0.706217
47  1.226388 3.891696 0.090420  -0.174753 -0.151318 0.769501
48  1.231620 3.875536 -0.958678  -0.126560 -0.145246 0.899651
49  1.209919 3.994783 -2.003047  0.109629 -0.107225 0.495175
50  -0.328906 0.095430 1.403533  -0.678476 -2.468995 1.317854
51  -14.861390 -12.666162 17.069136  0.796461 0.048103 2.824183
52  -25.565298 -27.963011 15.402884  -1.570796 -0.000000 1.570796
53  -9.527609 -8.178631 -6.641115  -0.051945 0.000000 1.570796
54  -14.997034 -19.481651 -15.611851  2.359130 0.413110 -0.032658
55  -0.000000 -0.000000 -0.000001  0.000000 -0.000000 0.000000
56  -0.000000 -0.000000 -0.000001  0.000000 -0.000000 0.000000
time 13
0  0 0 0  0 0 0
1  0.000000 0.000000 0.000000  1.570796 -0.000000 0.000000
2  0.449198 -13.144855 -6.669335  0.006396 0.037643 -1.561219
3  0.000003 13.479277 0.000001  1.780123 0.000000 -0.000000
4  -0.000001 13.477240 -0.000000  -0.378016 0.033783 0.408789
5  -0.267269 3.664726 -1.953293  -0.090925 -0.061382 -0.492732
6  -0.000002 1.180355 -0.000000  -0.023385 -0.029151 -0.871822
7  0.000000 0.817137 -0.000001  0.010625 -0.006192 -0.687150
8  -0.249421 3.688540 -0.940889  -0.052285 -0.033476 -0.479947
9  -0.000000 1.800634 0.000002  0.002497 0.004741 -0.896547
10  0.000000 1.243406 -0.000000  0.005065 0.004112 -0.752668
11  -0.244725 3.701095 0.087733  0.004033 0.003838 -0.459661
12  0.000001 1.766584 -0.000000  0.004143 -0.001285 -0.918417
13  0.000001 1.189004 0.000002  -0.012715 -0.012310 -0.811120
14  -0.277239 3.632248 1.274102  0.077019 0.039154 -0.355417
15  0.000002 1.798495 -0.000000  0.025383 0.028077 -0.835875
16  -0.000001 1.235452 -0.000001  -0.007955 0.003117 -0.618310
17  0.315442 0.857300 0.755944  1.868015 0.848196 1.390826
18  -0.000002 2.265941 0.000000  -0.088067 -0.043903 -0.878960
19  -0.000000 1.457811 0.000000  -0.044664 0.032299 -0.343422
20  -1.259681 3.818375 1.286945  0.077019 0.039154 -0.355417
21  -1.226390 3.891694 0.090419  0.004033 0.003838 -0.459661
22  -1.231622 3.875534 -0.958681  -0.052285 -0.033476 -0.479947
23  -1.209919 3.994782 -2.003048  -0.090925 -0.061382 -0.492732
24  0.328907 0.095428 1.403534  1.868015 0.848196 1.390826
25  11.047451 -13.542037 6.571713  1.410896 -0.368804 -1.617043
26  24.489557 -12.765261 -10.634670  -1.570796 -0.000000 -1.570796
27  0.449198 -13.144855 -6.669335  -0.051945 -0.000000 -1.570796
28  -9.524151 -7.924687 -7.165431  0.945086 0.025357 2.442278
29  0.000000 13.479276 0.000000  0.723823 0.000000 0.000000
30  0.000000 13.477238 0.000000  -0.839462 0.257041 -0.096761
31  0.267268 3.664727 -1.953292  0.109629 -0.107225 0.495175
32  0.000001 1.180357 0.000000  -0.029953 -0.007842 0.846531
33  -0.000002 0.817135 0.000000  0.012285 -0.000556 1.260036
34  0.249421 3.688542 -0.940890  -0.126560 -0.145246 0.899651
35  0.000000 1.800633 0.000000  -0.009643 -0.027168 1.400081
36  -0.000001 1.243408 0.000002  0.002452 -0.006045 1.256196
37  0.244726 3.701096 0.087733  -0.174753 -0.151318 0.769501
38  -0.000000 1.766584 -0.000000  0.009385 0.010267 1.319679
39  -0.000001 1.189004 0.000000  -0.006898 0.016298 1.212362
40  0.277238 3.632248 1.274102  -0.295695 -0.170063 0.706218
41  0.000001 1.798492 0.000000  0.035176 0.008609 1.280163
42  -0.000001 1.235452 -0.000001  -0.008523 0.000599 1.061936
43  -0.315441 0.857300 0.755942  -0.678476 -2.468995 1.317854
44  -0.000002 2.265940 0.000000  -0.026878 0.060881 0.878738
45  -0.000001 1.457811 -0.000001  -0.051629 -0.019293 0.611810
46  1.259680 3.818375 1.286945  -0.295695 -0.170063 0.706217
47  1.226390 3.891695 0.090419  -0.174753 -0.151318 0.769501
48  1.231622 3.875535 -0.958679  -0.126560 -0.145246 0.899651
49  1.209918 3.994781 -2.003047  0.109629 -0.107225 0.495175
50  -0.328907 0.095429 1.403533  -0.678476 -2.468995 1.317854
51  -14.228070 -12.558555 17.163803  0.857767 0.092601 2.708696
52  -25.166855 -25.645729 15.079765  -1.570796 -0.000000 1.570796
53  -9.524151 -7.924687 -7.165431  -0.051945 0.000000 1.570796
54  -14.751406 -19.777969 -15.280313  2.268734 0.528110 -0.092759
55  0.000001 0.000000 0.000000  -0.000000 -0.000000 0.000000
56  0.000001 0.000000 0.000000  -0.000000 -0.000000 0.000000
time 14
0  0 0 0  0 0 0
1  0.000000 0.000000 0.000000  1.570796 -0.000000 0.000000
2  0.449198 -13.144855 -6.669335  0.024683 -0.020402 -1.551642
3  -0.000000 13.479276 0.000001  1.800498 0.000000 -0.000000
4  0.000001 13.477239 -0.000001  -0.411624 -0.057603 0.406490
5  -0.267270 3.664727 -1.953292  -0.095595 -0.053807 -0.411644
6  0.000000 1.180354 -0.000001  -0.025675 -0.027156 -0.790510
7  -0.000001 0.817135 -0.000001  0.010087 -0.007035 -0.605848
8  -0.249423 3.688542 -0.940887  -0.054828 -0.029121 -0.398717
9  0.000001 1.800633 0.000001  0.002874 0.004523 -0.815240
10  0.000000 1.243407 -0.000001  0.005382 0.003687 -0.671362
11  -0.244726 3.701097 0.087734  0.004331 0.003498 -0.378355
12  -0.000001 1.766584 -0.000001  0.004025 -0.001617 -0.837111
13  -0.000001 1.189004 0.000001  -0.013673 -0.011237 -0.729814
14  -0.277240 3.632249 1.274104  0.079684 0.032584 -0.274327
15  0.000000 1.798495 0.000000  0.027578 0.025925 -0.754608
16  -0.000000 1.235452 0.000001  -0.007676 0.003753 -0.537046
17  0.315441 0.857300 0.755946  1.856951 0.815366 1.376618
18  -0.000001 2.265940 0.000002  -0.090059 -0.042985 -0.845974
19  0.000000 1.457811 0.000001  -0.043576 0.033753 -0.310463
20  -1.259681 3.818375 1.286947  0.079685 0.032584 -0.274327
21  -1.226391 3.891694 0.090420  0.004331 0.003498 -0.378355
22  -1.231623 3.875535 -0.958680  -0.054828 -0.029121 -0.398717
23  -1.209920 3.994781 -2.003046  -0.095595 -0.053807 -0.411644
24  0.328906 0.095429 1.403534  1.856951 0.815366 1.376618
25  10.525534 -12.678911 6.703235  1.461089 -0.396477 -1.720536
26  24.489557 -12.765261 -10.634670  -1.570796 -0.000000 -1.570796
27  0.449198 -13.144855 -6.669335  -0.051945 -0.000000 -1.570796
28  -9.523657 -7.733853 -7.240331  1.009605 -0.043887 2.236954
29  -0.000000 13.479277 0.000002  0.663684 0.000000 0.000000
30  -0.000000 13.477239 0.000001  -0.711057 0.338190 -0.203861
31  0.267267 3.664729 -1.953291  0.109629 -0.107225 0.495175
32  0.000001 1.180356 -0.000002  -0.029953 -0.007842 0.846531
33  0.000002 0.817134 -0.000002  0.012285 -0.000556 1.260036
34  0.249421 3.688544 -0.940888  -0.126560 -0.145246 0.899651
35  -0.000001 1.800633 -0.000002  -0.009643 -0.027168 1.400081
36  0.000003 1.243404 -0.000000  0.002452 -0.006045 1.256196
37  0.244725 3.701100 0.087734  -0.174753 -0.151318 0.769501
38  0.000000 1.766585 0.000001  0.009385 0.010267 1.319680
39  -0.000002 1.189005 -0.000000  -0.006898 0.016298 1.212362
40  0.277238 3.632251 1.274104  -0.295695 -0.170063 0.706218
41  0.000001 1.798495 0.000000  0.035176 0.008609 1.280163
42  0.000002 1.235454 -0.000000  -0.008523 0.000599 1.061936
43  -0.315443 0.857302 0.755945  -0.678476 -2.468995 1.317854
44  0.000001 2.265939 -0.000000  -0.026878 0.060881 0.878738
45  0.000001 1.457813 0.000000  -0.051628 -0.019293 0.611810
46  1.259680 3.818378 1.286947  -0.295695 -0.170063 0.706217
47  1.226389 3.891696 0.090421  -0.174753 -0.151318 0.769501
48  1.231622 3.875535 -0.958679  -0.126560 -0.145246 0.899651
49  1.209918 3.994784 -2.003047  0.109629 -0.107225 0.495175
50  -0.328907 0.095430 1.403533  -0.678476 -2.468995 1.317854
51  -13.406574 -12.170818 17.553795  1.010231 0.115614 2.596585
52  -24.290279 -20.547716 14.368902  -1.570796 -0.000000 1.570796
53  -9.523657 -7.733853 -7.240331  -0.051945 0.000000 1.570796
54  -14.103844 -20.559174 -14.406265  2.078310 0.638001 -0.146840
55  0.000001 0.000000 -0.000000  -0.000000 0.000000 -0.000000
56  0.000001 0.000000 -0.000000  -0.000000 0.000000 -0.000000
time 15
0  0 0 0  0 0 0
1  0.000000 0.000000 0.000000  1.570796 -0.000000 0.000000
2  0.449198 -13.144855 -6.669335  0.094776 -0.081316 -1.541567
3  0.000001 13.479279 0.000000  1.761276 0.000000 -0.000000
4  0.000000 13.477240 -0.000000  -0.393275 -0.064113 0.344179
5  -0.267269 3.664726 -1.953293  -0.099959 -0.045163 -0.323478
6  -0.000000 1.180355 -0.000000  -0.027974 -0.024781 -0.702033
7  0.000000 0.817136 -0.000000  0.009426 -0.007899 -0.517371
8  -0.249421 3.688541 -0.940890  -0.057184 -0.024165 -0.310344
9  0.000000 1.800633 0.000000  0.003262 0.004251 -0.726759
10  -0.000000 1.243406 -0.000000  0.005687 0.003197 -0.582882
11  -0.244725 3.701095 0.087732  0.004623 0.003102 -0.289874
12  0.000001 1.766584 -0.000001  0.003866 -0.001966 -0.748631
13  0.000000 1.189003 -0.000000  -0.014612 -0.009985 -0.641337
14  -0.277239 3.632247 1.274101  0.082191 0.025307 -0.186109
15  0.000000 1.798494 0.000001  0.029760 0.023388 -0.666182
16  -0.000000 1.235452 -0.000001  -0.007314 0.004416 -0.448612
17  0.315442 0.857300 0.755943  1.846238 0.779647 1.361968
18  -0.000001 2.265938 -0.000002  -0.092192 -0.041911 -0.810081
19  0.000000 1.457810 -0.000000  -0.042337 0.035294 -0.274593
20  -1.259680 3.818375 1.286946  0.082191 0.025307 -0.186109
21  -1.226390 3.891693 0.090418  0.004623 0.003102 -0.289874
22  -1.231622 3.875534 -0.958681  -0.057184 -0.024165 -0.310344
23  -1.209919 3.994781 -2.003048  -0.099959 -0.045163 -0.323478
24  0.328907 0.095428 1.403533  1.846238 0.779647 1.361968
25  10.037470 -11.709985 7.491319  1.514145 -0.390220 -1.711318
26  24.489557 -12.765261 -10.634670  -1.570796 -0.000000 -1.570796
27  0.449198 -13.144855 -6.669335  -0.051945 -0.000000 -1.570796
28  -9.523657 -7.597114 -6.888607  1.085867 -0.101428 1.953903
29  -0.000000 13.479276 0.000000  0.628792 -0.000000 0.000000
30  0.000000 13.477240 -0.000001  -0.578348 0.489723 -0.320532
31  0.267270 3.664727 -1.953293  0.109629 -0.107225 0.495175
32  -0.000001 1.180355 -0.000001  -0.029953 -0.007842 0.846531
33  -0.000002 0.817135 -0.000000  0.012285 -0.000556 1.260036
34  0.249424 3.688541 -0.940889  -0.126560 -0.145246 0.899651
35  0.000002 1.800633 -0.000000  -0.009643 -0.027168 1.400081
36  0.000000 1.243408 0.000000  0.002452 -0.006045 1.256196
37  0.244727 3.701096 0.087732  -0.174753 -0.151318 0.769501
38  0.000003 1.766585 0.000001  0.009385 0.010267 1.319679
39  -0.000002 1.189003 0.000001  -0.006898 0.016298 1.212362
40  0.277241 3.632246 1.274102  -0.295695 -0.170063 0.706217
41  -0.000000 1.798495 -0.000001  0.035176 0.008609 1.280163
42  0.000001 1.235450 -0.000003  -0.008523 0.000599 1.061936
43  -0.315440 0.857299 0.755944  -0.678476 -2.468995 1.317854
44  -0.000002 2.265939 0.000001  -0.026878 0.060881 0.878738
45  0.000001 1.457813 0.000001  -0.051628 -0.019293 0.611810
46  1.259682 3.818377 1.286946  -0.295695 -0.170063 0.706217
47  1.226392 3.891691 0.090419  -0.174753 -0.151318 0.769501
48  1.231624 3.875534 -0.958681  -0.126560 -0.145246 0.899651
49  1.209920 3.994784 -2.003047  0.109629 -0.107225 0.495175
50  -0.328905 0.095428 1.403533  -0.678476 -2.468995 1.317854
51  -12.603107 -11.596043 18.243954  1.222763 0.122163 2.488133
52  -23.413702 -15.449702 13.658039  -1.570796 -0.000000 1.570796
53  -9.523657 -7.597114 -6.888607  -0.051945 0.000000 1.570796
54  -13.188322 -21.663633 -13.170540  1.821522 0.739486 -0.196603
55  -0.000001 0.000001 -0.000001  -0.000000 -0.000000 0.000000
56  -0.000001 0.000001 -0.000001  -0.000000 -0.000000 0.000000
time 16
0  0 0 0  0 0 0
1  0.000000 0.000000 0.000000  1.570796 -0.000000 0.000000
2  0.449198 -13.144855 -6.669335  0.234814 -0.130617 -1.533341
3  0.000001 13.479278 0.000001  1.627484 0.000000 -0.000000
4  0.000003 13.477239 0.000002  -0.345486 -0.067770 0.278226
5  -0.267270 3.664726 -1.953294  -0.103543 -0.036170 -0.235382
6  -0.000000 1.180355 0.000001  -0.030054 -0.022213 -0.613567
7  -0.000000 0.817136 -0.000000  0.008691 -0.008701 -0.428893
8  -0.249423 3.688541 -0.940890  -0.059093 -0.019020 -0.221992
9  -0.000001 1.800635 0.000000  0.003625 0.003946 -0.638278
10  -0.000001 1.243408 0.000000  0.005947 0.002682 -0.494402
11  -0.244726 3.701096 0.087732  0.004879 0.002681 -0.201394
12  0.000001 1.766585 0.000001  0.003677 -0.002300 -0.660150
13  0.000001 1.189004 0.000000  -0.015437 -0.008655 -0.552863
14  -0.277239 3.632247 1.274101  0.084276 0.017934 -0.097912
15  0.000001 1.798493 0.000000  0.031709 0.020669 -0.577768
16  -0.000001 1.235451 0.000000  -0.006896 0.005045 -0.360179
17  0.315441 0.857299 0.755944  1.836782 0.743955 1.348023
18  0.000001 2.265939 -0.000000  -0.094284 -0.040762 -0.774193
19  -0.000000 1.457812 -0.000002  -0.041044 0.036790 -0.238720
20  -1.259681 3.818374 1.286945  0.084276 0.017934 -0.097912
21  -1.226390 3.891693 0.090419  0.004879 0.002681 -0.201394
22  -1.231622 3.875534 -0.958681  -0.059093 -0.019020 -0.221992
23  -1.209919 3.994781 -2.003048  -0.103543 -0.036170 -0.235382
24  0.328906 0.095427 1.403532  1.836782 0.743955 1.348023
25  9.600185 -10.710931 9.237067  1.565387 -0.374576 -1.688272
26  24.489557 -12.765261 -10.634670  -1.570796 -0.000000 -1.570796
27  0.449198 -13.144855 -6.669335  -0.051945 -0.000000 -1.570796
28  -9.523657 -7.505452 -6.009296  1.123619 -0.104391 1.826839
29  0.000000 13.479276 0.000002  0.642722 -0.000000 0.000000
30  0.000001 13.477239 0.000000  -0.395946 0.496068 -0.352126
31  0.267270 3.664725 -1.953292  0.109629 -0.107225 0.495175
32  0.000000 1.180354 -0.000001  -0.029953 -0.007842 0.846531
33  -0.000003 0.817135 0.000001  0.012285 -0.000556 1.260036
34  0.249423 3.688540 -0.940888  -0.126560 -0.145246 0.899651
35  0.000002 1.800634 -0.000001  -0.009643 -0.027168 1.400080
36  -0.000003 1.243404 -0.000001  0.002452 -0.006045 1.256196
37  0.244726 3.701097 0.087734  -0.174753 -0.151318 0.769501
38  0.000000 1.766582 0.000000  0.009385 0.010267 1.319679
39  -0.000002 1.189004 -0.000001  -0.006898 0.016298 1.212362
40  0.277239 3.632247 1.274103  -0.295695 -0.170063 0.706217
41  0.000002 1.798494 -0.000000  0.035176 0.008609 1.280163
42  -0.000001 1.235451 0.000001  -0.008523 0.000599 1.061936
43  -0.315440 0.857297 0.755944  -0.678476 -2.468995 1.317854
44  -0.000001 2.265940 0.000000  -0.026878 0.060881 0.878738
45  0.000001 1.457813 -0.000001  -0.051628 -0.019293 0.611810
46  1.259682 3.818375 1.286946  -0.295695 -0.170063 0.706217
47  1.226391 3.891692 0.090420  -0.174753 -0.151318 0.769501
48  1.231623 3.875534 -0.958680  -0.126560 -0.145246 0.899651
49  1.209919 3.994780 -2.003047  0.109629 -0.107225 0.495175
50  -0.328906 0.095428 1.403533  -0.678476 -2.468995 1.317854
51  -11.959489 -10.876236 19.226599  1.464422 0.118199 2.384885
52  -23.015259 -13.132422 13.334921  -1.570796 -0.000000 1.570796
53  -9.523657 -7.505452 -6.009296  -0.051945 0.000000 1.570796
54  -12.138823 -22.929724 -11.753977  1.532274 0.829465 -0.242600
55  0.000000 0.000000 0.000000  -0.000000 -0.000000 -0.000000
56  0.000000 0.000000 0.000000  -0.000000 -0.000000 -0.000000
time 17
0  0 0 0  0 0 0
1  0.000000 0.000000 0.000000  1.570796 -0.000000 0.000000
2  0.449198 -13.144855 -6.669335  0.407294 -0.163569 -1.527785
3  0.000001 13.479276 0.000000  1.422985 0.000000 -0.000000
4  0.000001 13.477240 0.000000  -0.260134 -0.069084 0.217988
5  -0.267270 3.664726 -1.953294  -0.106126 -0.027657 -0.154481
6  -0.000000 1.180354 -0.000000  -0.031758 -0.019699 -0.532283
7  -0.000001 0.817136 -0.000000  0.007956 -0.009378 -0.347588
8  -0.249423 3.688542 -0.940889  -0.060440 -0.014161 -0.140819
9  -0.000001 1.800632 -0.000000  0.003934 0.003639 -0.556971
10  0.000000 1.243406 -0.000000  0.006145 0.002190 -0.413097
11  -0.244727 3.701096 0.087732  0.005081 0.002276 -0.120089
12  -0.000001 1.766585 -0.000001  0.003478 -0.002591 -0.578844
13  -0.000002 1.189005 0.000001  -0.016089 -0.007372 -0.471564
14  -0.277240 3.632249 1.274101  0.085815 0.011105 -0.016879
15  -0.000000 1.798492 0.000000  0.033281 0.018027 -0.496532
16  0.000000 1.235452 -0.000000  -0.006464 0.005588 -0.278916
17  0.315441 0.857300 0.755943  1.829110 0.711194 1.335726
18  0.000000 2.265940 0.000000  -0.096169 -0.039640 -0.741218
19  0.000000 1.457812 -0.000001  -0.039810 0.038122 -0.205751
20  -1.259682 3.818375 1.286945  0.085815 0.011105 -0.016879
21  -1.226391 3.891693 0.090419  0.005081 0.002276 -0.120088
22  -1.231623 3.875536 -0.958680  -0.060440 -0.014161 -0.140819
23  -1.209919 3.994781 -2.003048  -0.106126 -0.027657 -0.154481
24  0.328905 0.095428 1.403532  1.829110 0.711194 1.335726
25  9.230614 -9.773745 11.449514  1.611322 -0.354238 -1.658312
26  24.489557 -12.765261 -10.634670  -1.570796 -0.000000 -1.570796
27  0.449198 -13.144855 -6.669335  -0.051945 -0.000000 -1.570796
28  -9.523657 -7.449856 -4.866191  1.135147 -0.074117 1.876988
29  0.000001 13.479276 -0.000000  0.661154 -0.000000 0.000000
30  0.000000 13.477241 -0.000000  -0.150586 0.357976 -0.283068
31  0.267270 3.664728 -1.953294  0.109629 -0.107225 0.495175
32  0.000001 1.180355 0.000001  -0.029953 -0.007842 0.846531
33  0.000002 0.817134 -0.000000  0.012285 -0.000556 1.260036
34  0.249424 3.688540 -0.940890  -0.126560 -0.145246 0.899651
35  0.000000 1.800636 0.000001  -0.009643 -0.027168 1.400081
36  -0.000002 1.243406 0.000002  0.002452 -0.006045 1.256196
37  0.244727 3.701095 0.087733  -0.174753 -0.151318 0.769501
38  -0.000001 1.766584 -0.000000  0.009385 0.010267 1.319679
39  -0.000001 1.189003 -0.000001  -0.006898 0.016298 1.212361
40  0.277239 3.632247 1.274101  -0.295695 -0.170063 0.706217
41  0.000001 1.798498 -0.000001  0.035176 0.008609 1.280163
42  0.000000 1.235453 -0.000001  -0.008523 0.000599 1.061936
43  -0.315440 0.857299 0.755943  -0.678476 -2.468995 1.317854
44  -0.000003 2.265940 0.000000  -0.026878 0.060881 0.878738
45  -0.000001 1.457812 0.000000  -0.051628 -0.019293 0.611810
46  1.259682 3.818374 1.286945  -0.295695 -0.170063 0.706217
47  1.226391 3.891692 0.090418  -0.174753 -0.151318 0.769501
48  1.231623 3.875534 -0.958681  -0.126560 -0.145246 0.899651
49  1.209919 3.994781 -2.003048  0.109629 -0.107225 0.495175
50  -0.328906 0.095429 1.403532  -0.678476 -2.468995 1.317854
51  -11.508035 -10.046362 20.420139  1.704784 0.109770 2.291150
52  -23.015259 -13.132422 13.334921  -1.570796 -0.000000 1.570796
53  -9.523657 -7.449856 -4.866191  -0.051945 0.000000 1.570796
54  -11.089323 -24.195812 -10.337415  1.245114 0.904917 -0.283928
55  0.000000 0.000000 -0.000002  0.000000 -0.000000 0.000000
56  0.000000 0.000000 -0.000002  0.000000 -0.000000 0.000000
time 18
0  0 0 0  0 0 0
1  0.000000 0.000000 0.000000  1.570796 -0.000000 0.000000
2  0.449198 -13.144855 -6.669335  0.583182 -0.182927 -1.524493
3  0.000000 13.479278 0.000000  1.179592 0.000000 -0.000000
4  -0.000002 13.477240 0.000002  -0.146641 -0.067325 0.168410
5  -0.267269 3.664727 -1.953293  -0.107730 -0.020509 -0.087886
6  0.000001 1.180356 -0.000000  -0.033004 -0.017530 -0.465350
7  0.000000 0.817135 0.000000  0.007311 -0.009889 -0.280630
8  -0.249422 3.688540 -0.940888  -0.061251 -0.010088 -0.073980
9  -0.000000 1.800633 0.000001  0.004168 0.003367 -0.490013
10  0.000001 1.243405 0.000000  0.006278 0.001774 -0.346140
11  -0.244726 3.701095 0.087733  0.005222 0.001931 -0.053131
12  0.000000 1.766587 -0.000001  0.003297 -0.002818 -0.511886
13  -0.000000 1.189002 -0.000000  -0.016546 -0.006279 -0.404612
14  -0.277239 3.632248 1.274102  0.086809 0.005465 0.049849
15  -0.000001 1.798493 0.000000  0.034412 0.015761 -0.429637
16  0.000000 1.235453 0.000001  -0.006075 0.006008 -0.211993
17  0.315442 0.857300 0.755945  1.823472 0.684251 1.325910
18  0.000001 2.265940 -0.000001  -0.097693 -0.038670 -0.714064
19  -0.000000 1.457810 -0.000001  -0.038760 0.039189 -0.178598
20  -1.259680 3.818376 1.286946  0.086809 0.005465 0.049849
21  -1.226390 3.891694 0.090420  0.005222 0.001931 -0.053131
22  -1.231623 3.875533 -0.958680  -0.061251 -0.010088 -0.073980
23  -1.209918 3.994781 -2.003047  -0.107730 -0.020509 -0.087886
24  0.328906 0.095428 1.403533  1.823472 0.684251 1.325910
25  8.945675 -8.990423 13.637697  1.648457 -0.333901 -1.628352
26  24.489557 -12.765261 -10.634670  -1.570796 -0.000000 -1.570796
27  0.449198 -13.144855 -6.669335  -0.051945 -0.000000 -1.570796
28  -9.523657 -7.421305 -3.723087  1.151709 -0.043276 1.920794
29  0.000001 13.479277 0.000001  0.665956 -0.000000 0.000000
30  0.000000 13.477238 -0.000001  0.060581 0.246446 -0.216549
31  0.267270 3.664726 -1.953292  0.109629 -0.107225 0.495175
32  0.000000 1.180355 0.000000  -0.029953 -0.007842 0.846531
33  -0.000001 0.817136 -0.000001  0.012285 -0.000556 1.260037
34  0.249424 3.688540 -0.940888  -0.126560 -0.145246 0.899651
35  0.000001 1.800635 0.000000  -0.009643 -0.027168 1.400081
36  -0.000002 1.243407 0.000001  0.002452 -0.006045 1.256196
37  0.244727 3.701096 0.087733  -0.174753 -0.151318 0.769501
38  -0.000000 1.766586 0.000000  0.009385 0.010267 1.319679
39  -0.000002 1.189003 0.000001  -0.006898 0.016298 1.212362
40  0.277239 3.632247 1.274103  -0.295695 -0.170063 0.706217
41  -0.000000 1.798495 -0.000002  0.035176 0.008609 1.280163
42  -0.000000 1.235451 0.000001  -0.008523 0.000599 1.061936
43  -0.315441 0.857301 0.755943  -0.678476 -2.468995 1.317854
44  -0.000002 2.265941 -0.000000  -0.026878 0.060881 0.878738
45  -0.000000 1.457811 0.000001  -0.051628 -0.019293 0.611810
46  1.259681 3.818374 1.286947  -0.295695 -0.170063 0.706217
47  1.226391 3.891693 0.090421  -0.174753 -0.151318 0.769501
48  1.231623 3.875534 -0.958680  -0.126560 -0.145246 0.899651
49  1.209919 3.994780 -2.003047  0.109629 -0.107225 0.495175
50  -0.328906 0.095428 1.403534  -0.678476 -2.468995 1.317854
51  -11.205935 -9.204287 21.634228  1.913786 0.101501 2.213943
52  -23.015259 -13.132422 13.334921  -1.570796 -0.000000 1.570796
53  -9.523657 -7.421305 -3.723087  -0.051945 0.000000 1.570796
54  -10.173801 -25.300274 -9.101689  0.995565 0.962821 -0.318010
55  0.000000 -0.000000 0.000000  0.000000 0.000000 0.000000
56  0.000000 -0.000000 0.000000  0.000000 0.000000 0.000000
time 19
0  0 0 0  0 0 0
1  0.000000 0.000000 0.000000  1.570796 -0.000000 0.000000
2  0.449198 -13.144855 -6.669335  0.731316 -0.192662 -1.522829
3  0.000000 13.479277 0.000000  0.951298 0.000000 -0.000000
4  -0.000001 13.477239 0.000002  -0.034505 -0.063754 0.134506
5  -0.267269 3.664726 -1.953293  -0.108546 -0.015604 -0.042708
6  -0.000002 1.180356 0.000000  -0.033766 -0.016013 -0.419934
7  0.000000 0.817138 -0.000002  0.006854 -0.010211 -0.235194
8  -0.249423 3.688541 -0.940889  -0.061645 -0.007297 -0.028628
9  -0.000000 1.800632 -0.000000  0.004317 0.003174 -0.444577
10  -0.000000 1.243406 -0.000001  0.006352 0.001487 -0.300704
11  -0.244726 3.701094 0.087732  0.005304 0.001692 -0.007695
12  -0.000000 1.766585 0.000001  0.003166 -0.002965 -0.466450
13  -0.000000 1.189007 -0.000000  -0.016815 -0.005521 -0.359182
14  -0.277240 3.632246 1.274101  0.087343 0.001638 0.095128
15  -0.000000 1.798494 -0.000001  0.035091 0.014183 -0.384248
16  -0.000000 1.235450 -0.000001  -0.005797 0.006277 -0.166581
17  0.315440 0.857299 0.755943  1.819978 0.665990 1.319388
18  0.000001 2.265941 0.000001  -0.098712 -0.037988 -0.695640
19  0.000001 1.457814 0.000000  -0.038032 0.039896 -0.160172
20  -1.259681 3.818374 1.286945  0.087343 0.001638 0.095128
21  -1.226390 3.891694 0.090418  0.005304 0.001692 -0.007695
22  -1.231622 3.875534 -0.958681  -0.061645 -0.007297 -0.028628
23  -1.209919 3.994782 -2.003049  -0.108546 -0.015604 -0.042708
24  0.328906 0.095429 1.403532  1.819978 0.665990 1.319388
25  8.762295 -8.452965 15.310646  1.673298 -0.318257 -1.605306
26  24.489557 -12.765261 -10.634670  -1.570796 -0.000000 -1.570796
27  0.449198 -13.144855 -6.669335  -0.051945 -0.000000 -1.570796
28  -9.523657 -7.410787 -2.843776  1.169908 -0.019305 1.950578
29  -0.000000 13.479277 -0.000001  0.660499 -0.000000 0.000000
30  0.000000 13.477239 -0.000001  0.208300 0.173062 -0.167389
31  0.267269 3.664727 -1.953293  0.109629 -0.107225 0.495175
32  -0.000001 1.180357 0.000000  -0.029953 -0.007842 0.846531
33  -0.000002 0.817136 0.000000  0.012285 -0.000556 1.260036
34  0.249423 3.688542 -0.940889  -0.126560 -0.145246 0.899651
35  -0.000000 1.800633 -0.000002  -0.009643 -0.027168 1.400081
36  0.000000 1.243409 0.000001  0.002452 -0.006045 1.256196
37  0.244726 3.701098 0.087732  -0.174753 -0.151318 0.769501
38  -0.000000 1.766587 0.000002  0.009385 0.010267 1.319679
39  0.000002 1.189004 -0.000002  -0.006898 0.016298 1.212362
40  0.277240 3.632250 1.274101  -0.295695 -0.170063 0.706217
41  0.000001 1.798497 0.000002  0.035176 0.008609 1.280163
42  0.000001 1.235451 -0.000000  -0.008523 0.000599 1.061936
43  -0.315441 0.857299 0.755943  -0.678476 -2.468995 1.317854
44  -0.000003 2.265940 0.000001  -0.026878 0.060881 0.878738
45  -0.000000 1.457809 0.000000  -0.051628 -0.019293 0.611810
46  1.259682 3.818377 1.286946  -0.295695 -0.170063 0.706217
47  1.226390 3.891694 0.090419  -0.174753 -0.151318 0.769501
48  1.231623 3.875536 -0.958680  -0.126560 -0.145246 0.899651
49  1.209919 3.994783 -2.003047  0.109629 -0.107225 0.495175
50  -0.328906 0.095429 1.403533  -0.678476 -2.468995 1.317854
51  -11.013762 -8.534266 22.587343  2.061376 0.095791 2.161661
52  -23.015259 -13.132422 13.334921  -1.570796 -0.000000 1.570796
53  -9.523657 -7.410787 -2.843776  -0.051945 0.000000 1.570796
54  -9.526237 -26.081478 -8.227640  0.819913 1.000065 -0.340948
55  0.000000 0.000002 0.000001  0.000000 -0.000000 -0.000000
56  0.000000 0.000002 0.000001  0.000000 -0.000000 -0.000000
time 20
0  0 0 0  0 0 0
1  0.000000 0.000000 0.000000  1.570796 -0.000000 0.000000
2  0.449198 -13.144855 -6.669335  0.797174 -0.195561 -1.522332
3  0.000000 13.479278 0.000000  0.843637 0.000000 -0.000000
4  -0.000000 13.477238 0.000001  0.019215 -0.061836 0.121832
5  -0.267270 3.664725 -1.953293  -0.108791 -0.013788 -0.026066
6  0.000001 1.180357 -0.000000  -0.034029 -0.015446 -0.403202
7  -0.000000 0.817138 -0.000000  0.006682 -0.010324 -0.218454
8  -0.249423 3.688541 -0.940888  -0.061758 -0.006265 -0.011920
9  -0.000001 1.800632 -0.000000  0.004369 0.003102 -0.427837
10  -0.000001 1.243406 -0.000000  0.006376 0.001380 -0.283965
11  -0.244727 3.701094 0.087732  0.005332 0.001603 0.009044
12  0.000001 1.766584 -0.000000  0.003116 -0.003017 -0.449710
13  -0.000000 1.189004 0.000001  -0.016905 -0.005239 -0.342445
14  -0.277240 3.632247 1.274102  0.087511 0.000230 0.111810
15  -0.000000 1.798493 0.000000  0.035323 0.013594 -0.367526
16  0.000001 1.235452 -0.000001  -0.005691 0.006373 -0.149850
17  0.315440 0.857299 0.755944  1.818756 0.659268 1.317010
18  -0.000000 2.265939 -0.000001  -0.099084 -0.037733 -0.688853
19  -0.000001 1.457811 0.000000  -0.037760 0.040154 -0.153383
20  -1.259682 3.818374 1.286946  0.087511 0.000230 0.111810
21  -1.226392 3.891692 0.090419  0.005332 0.001603 0.009044
22  -1.231623 3.875535 -0.958680  -0.061758 -0.006265 -0.011920
23  -1.209921 3.994780 -2.003048  -0.108791 -0.013788 -0.026065
24  0.328906 0.095428 1.403533  1.818756 0.659268 1.317010
25  8.697409 -8.253369 15.977400  1.682355 -0.311999 -1.596087
26  24.489557 -12.765261 -10.634670  -1.570796 -0.000000 -1.570796
27  0.449198 -13.144855 -6.669335  -0.051945 -0.000000 -1.570796
28  -9.523657 -7.409284 -2.492052  1.178104 -0.009833 1.961370
29  0.000001 13.479277 0.000001  0.657103 -0.000000 0.000000
30  0.000001 13.477240 0.000002  0.263555 0.146754 -0.148549
31  0.267269 3.664726 -1.953293  0.109629 -0.107225 0.495176
32  -0.000001 1.180354 0.000002  -0.029953 -0.007842 0.846531
33  0.000000 0.817135 -0.000001  0.012285 -0.000556 1.260036
34  0.249423 3.688543 -0.940889  -0.126560 -0.145246 0.899651
35  -0.000001 1.800630 -0.000002  -0.009643 -0.027168 1.400081
36  0.000000 1.243405 0.000001  0.002452 -0.006045 1.256197
37  0.244727 3.701096 0.087732  -0.174754 -0.151318 0.769502
38  0.000000 1.766585 0.000001  0.009385 0.010267 1.319679
39  0.000003 1.189004 -0.000001  -0.006898 0.016298 1.212361
40  0.277239 3.632248 1.274103  -0.295695 -0.170063 0.706218
41  -0.000001 1.798495 -0.000000  0.035176 0.008609 1.280163
42  -0.000001 1.235452 -0.000000  -0.008523 0.000599 1.061936
43  -0.315441 0.857302 0.755943  -0.678476 -2.468995 1.317854
44  0.000000 2.265940 -0.000001  -0.026878 0.060881 0.878738
45  0.000002 1.457815 -0.000001  -0.051628 -0.019293 0.611810
46  1.259682 3.818375 1.286945  -0.295695 -0.170063 0.706217
47  1.226390 3.891694 0.090419  -0.174753 -0.151318 0.769501
48  1.231622 3.875536 -0.958681  -0.126560 -0.145246 0.899651
49  1.209918 3.994783 -2.003049  0.109629 -0.107225 0.495175
50  -0.328906 0.095429 1.403532  -0.678476 -2.468995 1.317854
51  -10.941189 -8.263663 22.968529  2.117321 0.093620 2.142558
52  -23.015259 -13.132422 13.334921  -1.570796 -0.000000 1.570796
53  -9.523657 -7.409284 -2.492052  -0.051945 0.000000 1.570796
54  -9.280611 -26.377796 -7.896104  0.753846 1.013292 -0.349041
55  -0.000001 -0.000001 -0.000002  0.000000 -0.000000 -0.000000
56  -0.000001 -0.000001 -0.000002  0.000000 -0.000000 -0.000000
end
