version 1
nodes
0 "blender_implicit" -1
1 "root" -1
2 "upperarm_l" 1
3 "lowerarm_l" 2
4 "hand_l" 3
5 "pinky_0_l" 4
6 "pinky_1_l" 5
7 "pinky_2_l" 6
8 "ring_0_l" 4
9 "ring_1_l" 8
10 "ring_2_l" 9
11 "middle_0_l" 4
12 "middle_1_l" 11
13 "middle_2_l" 12
14 "index_0_l" 4
15 "index_1_l" 14
16 "index_2_l" 15
17 "thumb_0_l" 4
18 "thumb_1_l" 17
19 "thumb_2_l" 18
20 "rig_index_l" 4
21 "rig_middle_l" 4
22 "rig_ring_l" 4
23 "rig_pinky_l" 4
24 "rig_thumb_l" 4
25 "rig_hand_l" 1
26 "rig_l" 1
27 "rig_upperarm_l" 1
28 "upperarm_r" 1
29 "lowerarm_r" 28
30 "hand_r" 29
31 "pinky_0_r" 30
32 "pinky_1_r" 31
33 "pinky_2_r" 32
34 "ring_0_r" 30
35 "ring_1_r" 34
36 "ring_2_r" 35
37 "middle_0_r" 30
38 "middle_1_r" 37
39 "middle_2_r" 38
40 "index_0_r" 30
41 "index_1_r" 40
42 "index_2_r" 41
43 "thumb_0_r" 30
44 "thumb_1_r" 43
45 "thumb_2_r" 44
46 "rig_index_r" 30
47 "rig_middle_r" 30
48 "rig_ring_r" 30
49 "rig_pinky_r" 30
50 "rig_thumb_r" 30
51 "rig_hand_r" 1
52 "rig_r" 1
53 "rig_upperarm_r" 1
54 "weapon_bone_CONTROL" -1
55 "weapon_bone_parent" 54
56 "weapon_bone" 55
end
skeleton
time 0
0  0 0 0  0 0 0
1  0.000000 0.000000 0.000000  1.570796 -0.000000 0.000000
2  0.449198 -13.144855 -6.669335  0.490601 0.136172 -1.577608
3  0.000002 13.479276 0.000001  0.981177 0.000000 -0.000000
4  0.000001 13.477239 -0.000001  0.479910 -0.209447 0.728302
5  -0.267270 3.664726 -1.953294  -0.108790 -0.013788 -0.026065
6  -0.000001 1.180356 0.000001  -0.034029 -0.015446 -0.403202
7  0.000000 0.817134 0.000000  0.006682 -0.010324 -0.218454
8  -0.249423 3.688540 -0.940889  -0.061758 -0.006265 -0.011920
9  -0.000001 1.800633 -0.000001  0.004369 0.003102 -0.427837
10  0.000001 1.243406 0.000001  0.006376 0.001380 -0.283965
11  -0.244727 3.701096 0.087733  0.005332 0.001603 0.009044
12  -0.000001 1.766585 0.000000  0.003116 -0.003017 -0.449710
13  0.000000 1.189005 -0.000000  -0.016905 -0.005239 -0.342445
14  -0.277239 3.632247 1.274103  0.087512 0.000229 0.111810
15  -0.000002 1.798495 -0.000000  0.035324 0.013594 -0.367525
16  -0.000000 1.235451 0.000001  -0.005691 0.006373 -0.149850
17  0.315442 0.857299 0.755944  1.818756 0.659267 1.317010
18  -0.000000 2.265939 0.000000  -0.099084 -0.037733 -0.688853
19  0.000001 1.457811 0.000000  -0.037760 0.040153 -0.153383
20  -1.259681 3.818374 1.286946  0.087511 0.000230 0.111810
21  -1.226391 3.891693 0.090420  0.005332 0.001603 0.009044
22  -1.231623 3.875534 -0.958679  -0.061758 -0.006265 -0.011920
23  -1.209918 3.994781 -2.003048  -0.108790 -0.013788 -0.026066
24  0.328908 0.095428 1.403533  1.818756 0.659268 1.317010
25  13.652142 -15.917541 12.909437  2.074395 -0.598176 -1.750965
26  24.489557 -12.765261 -10.634670  -1.570796 -0.000000 -1.570796
27  0.449198 -13.144855 -6.669335  -0.051945 -0.000000 -1.570796
28  -9.523657 -7.409284 -2.492052  0.416445 0.070691 2.048534
29  -0.000000 13.479275 0.000000  1.714436 -0.000000 0.000000
30  -0.000000 13.477239 0.000002  -0.817111 0.123228 0.146503
31  0.267269 3.664725 -1.953294  0.109629 -0.107225 0.495175
32  -0.000000 1.180355 -0.000002  -0.029953 -0.007842 0.846531
33  -0.000003 0.817135 0.000002  0.012285 -0.000556 1.260036
34  0.249423 3.688541 -0.940890  -0.126560 -0.145246 0.899651
35  0.000001 1.800633 0.000001  -0.009643 -0.027168 1.400081
36  -0.000001 1.243407 0.000000  0.002452 -0.006045 1.256196
37  0.244726 3.701094 0.087733  -0.174753 -0.151318 0.769501
38  0.000000 1.766586 0.000002  0.009385 0.010267 1.319679
39  -0.000000 1.189005 0.000001  -0.006898 0.016298 1.212361
40  0.277239 3.632247 1.274102  -0.295695 -0.170063 0.706217
41  -0.000001 1.798493 0.000000  0.035176 0.008609 1.280163
42  0.000000 1.235449 -0.000001  -0.008523 0.000599 1.061936
43  -0.315441 0.857299 0.755943  -0.678476 -2.468995 1.317854
44  -0.000000 2.265941 0.000000  -0.026878 0.060881 0.878738
45  -0.000000 1.457811 0.000001  -0.051628 -0.019293 0.611810
46  1.259681 3.818373 1.286947  -0.295695 -0.170063 0.706217
47  1.226390 3.891692 0.090420  -0.174753 -0.151318 0.769501
48  1.231623 3.875534 -0.958680  -0.126560 -0.145246 0.899651
49  1.209918 3.994780 -2.003048  0.109629 -0.107225 0.495175
50  -0.328906 0.095426 1.403532  -0.678476 -2.468995 1.317854
51  -14.660326 -8.726940 14.335854  1.304058 -0.118501 2.075901
52  -23.015259 -13.132422 13.334921  -1.570796 -0.000000 1.570796
53  -9.523657 -7.409284 -2.492052  -0.051945 0.000000 1.570796
54  -15.191389 -17.658140 -10.514706  2.047884 1.149954 0.214758
55  -0.000000 0.000000 0.000001  0.000000 0.000000 0.000000
56  -0.000000 0.000000 0.000001  0.000000 0.000000 0.000000
time 1
0  0 0 0  0 0 0
1  0.000000 0.000000 0.000000  1.570796 -0.000000 0.000000
2  0.449198 -13.144855 -6.669335  0.404134 0.149400 -1.579835
3  -0.000001 13.479279 0.000000  1.095043 0.000000 -0.000000
4  0.000000 13.477240 -0.000001  0.445175 -0.113766 0.722268
5  -0.267268 3.664726 -1.953292  -0.108452 -0.016250 -0.048636
6  0.000000 1.180355 -0.000000  -0.033670 -0.016214 -0.425893
7  0.000000 0.817137 0.000001  0.006915 -0.010170 -0.241156
8  -0.249421 3.688542 -0.940888  -0.061601 -0.007664 -0.034579
9  -0.000002 1.800632 -0.000000  0.004298 0.003200 -0.450539
10  -0.000001 1.243407 0.000000  0.006343 0.001525 -0.306666
11  -0.244726 3.701097 0.087733  0.005294 0.001723 -0.013657
12  0.000000 1.766585 -0.000001  0.003183 -0.002946 -0.472412
13  0.000002 1.189003 -0.000001  -0.016781 -0.005621 -0.365144
14  -0.277239 3.632248 1.274102  0.087222 0.002101 0.089182
15  0.000000 1.798494 0.000001  0.035006 0.014392 -0.390206
16  -0.000002 1.235451 0.000000  -0.005834 0.006242 -0.172542
17  0.315442 0.857300 0.755943  1.821350 0.680670 1.325466
18  0.000001 2.265939 0.000000  -0.097895 -0.038537 -0.710428
19  0.000002 1.457810 -0.000000  -0.038618 0.039330 -0.174962
20  -1.259681 3.818376 1.286946  0.087222 0.002101 0.089182
21  -1.226389 3.891693 0.090419  0.005294 0.001723 -0.013657
22  -1.231621 3.875535 -0.958680  -0.061601 -0.007664 -0.034579
23  -1.209919 3.994781 -2.003048  -0.108452 -0.016250 -0.048636
24  0.328908 0.095428 1.403533  1.821350 0.680670 1.325466
25  13.780743 -16.055128 11.863887  2.005285 -0.576279 -1.658903
26  24.489557 -12.765261 -10.634670  -1.570796 -0.000000 -1.570796
27  0.449198 -13.144855 -6.669335  -0.051945 -0.000000 -1.570796
28  -9.378229 -7.524099 -0.895891  0.703447 0.056092 1.958228
29  0.000001 13.479278 -0.000002  1.536177 -0.000000 0.000000
30  0.000000 13.477239 -0.000000  -1.108379 0.111155 0.053802
31  0.267269 3.664724 -1.953295  0.109629 -0.107225 0.495175
32  0.000001 1.180356 -0.000001  -0.029953 -0.007842 0.846531
33  0.000001 0.817135 0.000000  0.012285 -0.000556 1.260036
34  0.249422 3.688540 -0.940891  -0.126560 -0.145246 0.899651
35  -0.000000 1.800634 -0.000002  -0.009643 -0.027168 1.400081
36  0.000003 1.243406 0.000000  0.002452 -0.006045 1.256196
37  0.244726 3.701094 0.087732  -0.174753 -0.151318 0.769501
38  -0.000000 1.766586 0.000001  0.009385 0.010267 1.319679
39  0.000002 1.189003 -0.000001  -0.006898 0.016298 1.212361
40  0.277239 3.632249 1.274101  -0.295695 -0.170063 0.706217
41  0.000000 1.798495 -0.000001  0.035176 0.008609 1.280163
42  0.000002 1.235450 0.000000  -0.008523 0.000599 1.061936
43  -0.315442 0.857298 0.755942  -0.678476 -2.468995 1.317854
44  0.000001 2.265939 0.000002  -0.026878 0.060881 0.878738
45  0.000002 1.457814 -0.000001  -0.051628 -0.019293 0.611810
46  1.259681 3.818375 1.286945  -0.295695 -0.170063 0.706217
47  1.226391 3.891691 0.090417  -0.174753 -0.151318 0.769501
48  1.231623 3.875534 -0.958680  -0.126560 -0.145246 0.899651
49  1.209919 3.994781 -2.003048  0.109629 -0.107225 0.495175
50  -0.328907 0.095427 1.403532  -0.678476 -2.468995 1.317854
51  -11.567196 -7.249186 18.365702  1.128282 -0.054929 2.012223
52  -25.146717 -13.174272 12.035620  -1.570796 -0.000000 1.570796
53  -9.378229 -7.524099 -0.895891  -0.051945 0.000000 1.570796
54  -12.836466 -21.479006 -9.041397  2.144277 1.223664 0.119257
55  0.000001 0.000001 -0.000002  -0.000000 -0.000000 -0.000000
56  0.000001 0.000001 -0.000002  -0.000000 -0.000000 -0.000000
time 2
0  0 0 0  0 0 0
1  0.000000 0.000000 0.000000  1.570796 -0.000000 0.000000
2  0.449198 -13.144855 -6.669335  0.227751 0.183403 -1.585604
3  0.000001 13.479277 0.000000  1.303743 0.000000 -0.000000
4  -0.000000 13.477239 -0.000000  0.369455 0.086185 0.713336
5  -0.267270 3.664726 -1.953293  -0.107252 -0.022884 -0.109908
6  0.000000 1.180356 -0.000001  -0.032608 -0.018257 -0.487486
7  0.000000 0.817136 -0.000001  0.007528 -0.009725 -0.302775
8  -0.249424 3.688541 -0.940890  -0.061013 -0.011441 -0.096085
9  -0.000002 1.800632 -0.000001  0.004093 0.003459 -0.512157
10  0.000000 1.243405 -0.000001  0.006237 0.001912 -0.368284
11  -0.244727 3.701095 0.087732  0.005178 0.002046 -0.075275
12  0.000000 1.766585 0.000000  0.003359 -0.002744 -0.534030
13  0.000000 1.189004 0.000001  -0.016403 -0.006644 -0.426755
14  -0.277240 3.632247 1.274101  0.086294 0.007186 0.027765
15  -0.000000 1.798495 0.000000  0.034054 0.016519 -0.451769
16  -0.000000 1.235450 0.000001  -0.006207 0.005872 -0.234134
17  0.315440 0.857300 0.755943  1.830517 0.738872 1.349378
18  -0.000001 2.265941 0.000001  -0.094583 -0.040589 -0.768996
19  0.000001 1.457811 -0.000002  -0.040853 0.037002 -0.233525
20  -1.259682 3.818375 1.286945  0.086294 0.007186 0.027765
21  -1.226391 3.891693 0.090419  0.005178 0.002046 -0.075275
22  -1.231624 3.875533 -0.958681  -0.061013 -0.011441 -0.096085
23  -1.209921 3.994781 -2.003049  -0.107252 -0.022884 -0.109908
24  0.328905 0.095428 1.403532  1.830517 0.738872 1.349378
25  14.063665 -16.357822 9.563675  1.845487 -0.523343 -1.456367
26  24.489557 -12.765261 -10.634670  -1.570796 -0.000000 -1.570796
27  0.449198 -13.144855 -6.669335  -0.051945 -0.000000 -1.570796
28  -8.972466 -7.861137 2.549230  1.278098 0.087758 1.862290
29  0.000001 13.479274 0.000001  0.894292 -0.000000 0.000000
30  0.000000 13.477240 0.000002  -1.369789 0.020110 -0.013753
31  0.267270 3.664727 -1.953292  0.109629 -0.107225 0.495175
32  -0.000001 1.180355 -0.000001  -0.029953 -0.007842 0.846531
33  0.000002 0.817135 0.000001  0.012285 -0.000556 1.260036
34  0.249423 3.688543 -0.940890  -0.126560 -0.145246 0.899651
35  0.000001 1.800633 0.000001  -0.009643 -0.027168 1.400081
36  -0.000001 1.243404 -0.000000  0.002452 -0.006045 1.256196
37  0.244727 3.701099 0.087734  -0.174753 -0.151318 0.769501
38  -0.000002 1.766585 0.000000  0.009385 0.010267 1.319679
39  -0.000002 1.189005 -0.000002  -0.006898 0.016298 1.212361
40  0.277239 3.632251 1.274104  -0.295695 -0.170063 0.706217
41  0.000001 1.798492 0.000000  0.035176 0.008609 1.280163
42  0.000000 1.235451 -0.000001  -0.008523 0.000599 1.061936
43  -0.315441 0.857303 0.755945  -0.678476 -2.468995 1.317854
44  0.000001 2.265939 -0.000000  -0.026878 0.060881 0.878738
45  -0.000000 1.457810 0.000002  -0.051628 -0.019293 0.611810
46  1.259682 3.818377 1.286945  -0.295695 -0.170063 0.706217
47  1.226391 3.891694 0.090419  -0.174753 -0.151318 0.769501
48  1.231623 3.875537 -0.958680  -0.126560 -0.145246 0.899651
49  1.209920 3.994783 -2.003048  0.109629 -0.107225 0.495175
50  -0.328906 0.095432 1.403534  -0.678476 -2.468995 1.317854
51  -5.996980 -4.770719 26.473297  0.804882 0.087687 1.886747
52  -29.105141 -13.251991 9.622633  -1.570796 -0.000000 1.570796
53  -8.972466 -7.861137 2.549230  -0.051945 0.000000 1.570796
54  -8.463039 -28.938957 -6.305254  2.063673 1.340340 -0.311737
55  0.000000 -0.000001 0.000000  0.000000 0.000000 0.000000
56  0.000000 -0.000001 0.000000  0.000000 0.000000 0.000000
time 3
0  0 0 0  0 0 0
1  0.000000 0.000000 0.000000  1.570796 -0.000000 0.000000
2  0.449198 -13.144855 -6.669335  0.061731 0.226209 -1.592974
3  0.000001 13.479277 0.000001  1.470520 0.000000 -0.000000
4  -0.000001 13.477239 0.000000  0.280821 0.277724 0.717109
5  -0.267269 3.664726 -1.953293  -0.104750 -0.032498 -0.200239
6  0.000004 1.180356 0.000001  -0.030819 -0.021138 -0.578262
7  0.000001 0.817134 0.000000  0.008379 -0.009002 -0.393580
8  -0.249421 3.688542 -0.940888  -0.059727 -0.016923 -0.186734
9  -0.000001 1.800634 0.000001  0.003762 0.003816 -0.602963
10  -0.000001 1.243405 -0.000001  0.006038 0.002470 -0.459089
11  -0.244726 3.701095 0.087733  0.004971 0.002507 -0.166080
12  -0.000000 1.766584 0.000001  0.003594 -0.002428 -0.624836
13  -0.000001 1.189003 -0.000000  -0.015733 -0.008104 -0.517552
14  -0.277238 3.632248 1.274102  0.084545 0.014671 -0.062748
15  0.000002 1.798494 0.000001  0.032418 0.019538 -0.542501
16  0.000001 1.235450 0.000001  -0.006714 0.005285 -0.324902
17  0.315442 0.857300 0.755943  1.850467 0.824789 1.388088
18  0.000000 2.265939 -0.000000  -0.089497 -0.043252 -0.855327
19  -0.000002 1.457812 -0.000002  -0.043889 0.033344 -0.319809
20  -1.259681 3.818375 1.286945  0.084545 0.014671 -0.062748
21  -1.226390 3.891693 0.090419  0.004971 0.002507 -0.166080
22  -1.231622 3.875535 -0.958681  -0.059726 -0.016923 -0.186734
23  -1.209918 3.994781 -2.003048  -0.104749 -0.032499 -0.200239
24  0.328906 0.095430 1.403532  1.850468 0.824789 1.388088
25  14.346586 -16.660513 7.263463  1.666295 -0.458498 -1.253831
26  24.489557 -12.765261 -10.634670  -1.570796 -0.000000 -1.570796
27  0.449198 -13.144855 -6.669335  -0.051945 -0.000000 -1.570796
28  -8.352142 -8.409285 5.828264  1.797562 0.132932 1.795344
29  -0.000001 13.479276 0.000000  0.004796 0.000000 -0.000000
30  -0.000000 13.477242 -0.000001  -1.169320 -0.002982 -0.103605
31  0.267270 3.664724 -1.953295  0.109630 -0.107226 0.495175
32  -0.000000 1.180351 -0.000004  -0.029953 -0.007842 0.846531
33  0.000003 0.817136 -0.000002  0.012285 -0.000556 1.260037
34  0.249423 3.688542 -0.940889  -0.126560 -0.145246 0.899651
35  0.000000 1.800633 0.000001  -0.009643 -0.027168 1.400081
36  0.000004 1.243407 0.000001  0.002452 -0.006045 1.256197
37  0.244727 3.701094 0.087731  -0.174753 -0.151318 0.769501
38  0.000000 1.766585 0.000001  0.009385 0.010267 1.319679
39  -0.000001 1.189003 -0.000000  -0.006898 0.016298 1.212362
40  0.277239 3.632247 1.274101  -0.295695 -0.170063 0.706217
41  0.000001 1.798493 0.000002  0.035176 0.008609 1.280163
42  0.000001 1.235451 0.000001  -0.008523 0.000599 1.061936
43  -0.315441 0.857298 0.755941  -0.678476 -2.468995 1.317854
44  0.000000 2.265939 -0.000001  -0.026878 0.060881 0.878738
45  -0.000001 1.457811 -0.000001  -0.051628 -0.019293 0.611810
46  1.259681 3.818373 1.286944  -0.295695 -0.170063 0.706217
47  1.226390 3.891693 0.090420  -0.174753 -0.151318 0.769501
48  1.231623 3.875533 -0.958680  -0.126560 -0.145246 0.899651
49  1.209919 3.994782 -2.003047  0.109629 -0.107225 0.495175
50  -0.328906 0.095428 1.403533  -0.678476 -2.468995 1.317854
51  -3.129660 -3.628651 31.985468  0.636800 0.234419 1.816763
52  -31.236601 -13.293841 8.323332  -1.570796 -0.000000 1.570796
53  -8.352142 -8.409285 5.828264  -0.051945 0.000000 1.570796
54  -6.108118 -34.034027 -4.831946  1.634376 1.319651 -0.929353
55  -0.000001 -0.000001 -0.000000  0.000000 -0.000000 0.000000
56  -0.000001 -0.000001 -0.000000  0.000000 -0.000000 0.000000
time 4
0  0 0 0  0 0 0
1  0.000000 0.000000 0.000000  1.570796 -0.000000 0.000000
2  0.449198 -13.144855 -6.669335  -0.012051 0.249505 -1.597045
3  -0.000001 13.479277 0.000000  1.535408 0.000000 -0.000000
4  0.000002 13.477239 -0.000001  0.187039 0.368361 0.701461
5  -0.267271 3.664727 -1.953292  -0.100558 -0.043809 -0.310003
6  -0.000001 1.180354 0.000001  -0.028307 -0.024400 -0.688504
7  0.000003 0.817134 0.000000  0.009319 -0.008026 -0.503842
8  -0.249425 3.688542 -0.940888  -0.057505 -0.023389 -0.296832
9  0.000002 1.800633 -0.000000  0.003320 0.004206 -0.713228
10  0.000000 1.243406 -0.000001  0.005729 0.003120 -0.569352
11  -0.244729 3.701097 0.087734  0.004665 0.003039 -0.276344
12  -0.000001 1.766585 -0.000000  0.003839 -0.002018 -0.735101
13  0.000000 1.189002 -0.000001  -0.014746 -0.009786 -0.627808
14  -0.277242 3.632250 1.274104  0.081814 0.023694 -0.172673
15  -0.000001 1.798495 0.000000  0.030073 0.022984 -0.652690
16  -0.000000 1.235451 -0.000001  -0.007254 0.004514 -0.435118
17  0.315438 0.857302 0.755945  1.887730 0.928912 1.443655
18  0.000002 2.265939 0.000001  -0.083040 -0.045881 -0.960187
19  -0.000000 1.457812 -0.000000  -0.047134 0.028572 -0.424555
20  -1.259681 3.818375 1.286947  0.081813 0.023694 -0.172673
21  -1.226392 3.891695 0.090420  0.004665 0.003039 -0.276344
22  -1.231624 3.875535 -0.958679  -0.057505 -0.023389 -0.296832
23  -1.209921 3.994783 -2.003047  -0.100558 -0.043809 -0.310003
24  0.328904 0.095429 1.403534  1.887730 0.928912 1.443655
25  14.475187 -16.798100 6.217914  1.539006 -0.400878 -1.161769
26  24.489557 -12.765261 -10.634670  -1.570796 -0.000000 -1.570796
27  0.449198 -13.144855 -6.669335  -0.051945 -0.000000 -1.570796
28  -7.642899 -9.071785 7.415173  1.497668 0.205112 1.384070
29  -0.000002 13.479277 0.000001  0.418411 -0.000000 0.000000
30  -0.000001 13.477240 -0.000000  -1.438506 0.338681 -0.304609
31  0.267269 3.664725 -1.953293  0.109630 -0.107225 0.495176
32  -0.000002 1.180350 0.000000  -0.029953 -0.007842 0.846531
33  -0.000000 0.817137 -0.000001  0.012285 -0.000556 1.260037
34  0.249422 3.688539 -0.940889  -0.126560 -0.145246 0.899651
35  0.000000 1.800633 0.000002  -0.009643 -0.027168 1.400081
36  0.000002 1.243406 -0.000000  0.002452 -0.006045 1.256196
37  0.244725 3.701096 0.087733  -0.174753 -0.151318 0.769501
38  0.000000 1.766586 -0.000001  0.009385 0.010267 1.319679
39  0.000001 1.189003 -0.000001  -0.006898 0.016298 1.212361
40  0.277238 3.632247 1.274102  -0.295695 -0.170063 0.706218
41  0.000001 1.798496 -0.000000  0.035176 0.008609 1.280163
42  0.000002 1.235452 -0.000002  -0.008523 0.000599 1.061936
43  -0.315442 0.857297 0.755941  -0.678476 -2.468995 1.317854
44  0.000000 2.265935 0.000001  -0.026878 0.060881 0.878738
45  0.000001 1.457815 -0.000001  -0.051628 -0.019293 0.611810
46  1.259681 3.818374 1.286945  -0.295695 -0.170063 0.706217
47  1.226389 3.891694 0.090418  -0.174753 -0.151318 0.769501
48  1.231622 3.875534 -0.958680  -0.126560 -0.145246 0.899651
49  1.209919 3.994781 -2.003049  0.109629 -0.107225 0.495175
50  -0.328907 0.095429 1.403533  -0.678476 -2.468995 1.317854
51  -3.140667 -4.507300 32.992046  0.652918 0.340305 1.832137
52  -21.590742 -6.230867 8.387184  -1.570796 -0.000000 1.570796
53  -7.642899 -9.071785 7.415173  -0.051945 0.000000 1.570796
54  -6.131430 -35.123940 -5.520261  1.473974 1.223440 -1.094444
55  -0.000000 -0.000000 0.000001  -0.000000 -0.000000 0.000000
56  -0.000000 -0.000000 0.000001  -0.000000 -0.000000 0.000000
time 5
0  0 0 0  0 0 0
1  0.000000 0.000000 0.000000  1.570796 -0.000000 0.000000
2  0.449198 -13.144855 -6.669335  -0.012706 0.247611 -1.596712
3  0.000000 13.479278 0.000000  1.541013 0.000000 -0.000000
4  0.000001 13.477238 -0.000001  0.099837 0.379451 0.654691
5  -0.267269 3.664728 -1.953293  -0.094615 -0.055514 -0.429573
6  0.000001 1.180356 0.000000  -0.025183 -0.027613 -0.808494
7  0.000000 0.817132 -0.000000  0.010212 -0.006852 -0.623831
8  -0.249422 3.688542 -0.940888  -0.054296 -0.030102 -0.416681
9  0.000002 1.800634 -0.000000  0.002792 0.004573 -0.833223
10  0.000003 1.243404 -0.000000  0.005315 0.003783 -0.689345
11  -0.244725 3.701096 0.087733  0.004267 0.003575 -0.396338
12  0.000001 1.766583 -0.000000  0.004053 -0.001544 -0.855094
13  -0.000002 1.189002 0.000000  -0.013469 -0.011481 -0.747797
14  -0.277238 3.632249 1.274102  0.078096 0.033350 -0.292333
15  0.000001 1.798495 0.000002  0.027107 0.026417 -0.772623
16  -0.000003 1.235451 -0.000001  -0.007742 0.003614 -0.555061
17  0.315443 0.857300 0.755944  1.951535 1.041018 1.522171
18  0.000000 2.265940 0.000000  -0.075743 -0.047958 -1.074328
19  -0.000001 1.457810 0.000001  -0.050077 0.023024 -0.538509
20  -1.259681 3.818376 1.286946  0.078097 0.033350 -0.292333
21  -1.226389 3.891694 0.090419  0.004267 0.003575 -0.396338
22  -1.231623 3.875535 -0.958680  -0.054296 -0.030102 -0.416681
23  -1.209918 3.994782 -2.003047  -0.094616 -0.055514 -0.429573
24  0.328907 0.095429 1.403532  1.951535 1.041018 1.522171
25  14.410299 -16.765850 6.218399  1.471988 -0.359726 -1.162109
26  24.489557 -12.765261 -10.634670  -1.570796 -0.000000 -1.570796
27  0.449198 -13.144855 -6.669335  -0.051945 -0.000000 -1.570796
28  -7.289827 -9.409285 7.739925  1.429105 0.179015 1.369326
29  -0.000002 13.479275 -0.000002  0.533346 -0.000000 0.000000
30  -0.000000 13.477237 0.000000  -1.499179 0.321011 -0.401143
31  0.267271 3.664726 -1.953292  0.109630 -0.107225 0.495176
32  0.000001 1.180356 0.000000  -0.029953 -0.007842 0.846531
33  -0.000000 0.817134 -0.000005  0.012285 -0.000556 1.260037
34  0.249423 3.688543 -0.940885  -0.126560 -0.145246 0.899651
35  -0.000001 1.800634 -0.000003  -0.009643 -0.027168 1.400081
36  -0.000004 1.243407 -0.000002  0.002452 -0.006045 1.256196
37  0.244726 3.701097 0.087736  -0.174753 -0.151318 0.769501
38  0.000001 1.766583 0.000000  0.009385 0.010267 1.319679
39  -0.000002 1.189003 -0.000000  -0.006898 0.016298 1.212362
40  0.277240 3.632249 1.274105  -0.295695 -0.170063 0.706218
41  0.000001 1.798495 -0.000004  0.035176 0.008609 1.280163
42  -0.000000 1.235451 -0.000001  -0.008523 0.000599 1.061936
43  -0.315440 0.857298 0.755943  -0.678476 -2.468995 1.317854
44  0.000000 2.265939 -0.000001  -0.026878 0.060881 0.878738
45  -0.000001 1.457813 -0.000000  -0.051628 -0.019293 0.611810
46  1.259682 3.818373 1.286946  -0.295695 -0.170063 0.706217
47  1.226390 3.891694 0.090422  -0.174753 -0.151318 0.769501
48  1.231624 3.875534 -0.958679  -0.126560 -0.145246 0.899651
49  1.209919 3.994783 -2.003045  0.109629 -0.107225 0.495175
50  -0.328906 0.095431 1.403535  -0.678476 -2.468995 1.317854
51  -3.195156 -5.556705 33.128155  0.667114 0.383350 1.855179
52  -21.611507 -6.331473 8.566858  -1.570796 -0.000000 1.570796
53  -7.289827 -9.409285 7.739925  -0.051945 0.000000 1.570796
54  -6.165501 -35.308231 -6.526259  1.461863 1.175140 -1.104545
55  -0.000000 -0.000000 -0.000003  -0.000000 0.000000 0.000000
56  -0.000000 -0.000000 -0.000003  -0.000000 0.000000 0.000000
time 6
0  0 0 0  0 0 0
1  0.000000 0.000000 0.000000  1.570796 -0.000000 0.000000
2  0.449198 -13.144855 -6.669335  -0.014408 0.241608 -1.595660
3  0.000001 13.479277 0.000001  1.556737 0.000000 -0.000000
4  0.000000 13.477239 -0.000001  0.026617 0.390202 0.612255
5  -0.267268 3.664725 -1.953292  -0.087312 -0.066428 -0.549293
6  -0.000000 1.180354 0.000002  -0.021696 -0.030428 -0.928503
7  -0.000001 0.817135 0.000000  0.010959 -0.005581 -0.743818
8  -0.249421 3.688542 -0.940890  -0.050306 -0.036382 -0.536578
9  0.000000 1.800633 0.000000  0.002224 0.004875 -0.953218
10  -0.000002 1.243407 -0.000001  0.004824 0.004392 -0.809339
11  -0.244725 3.701095 0.087734  0.003809 0.004060 -0.516332
12  0.000002 1.766585 0.000001  0.004209 -0.001048 -0.975087
13  0.000001 1.189006 0.000000  -0.011997 -0.013011 -0.867791
14  -0.277237 3.632248 1.274103  0.073628 0.042747 -0.412046
15  0.000002 1.798494 0.000000  0.023751 0.029471 -0.892578
16  -0.000001 1.235455 0.000001  -0.008119 0.002661 -0.675005
17  0.315443 0.857300 0.755943  -1.086687 1.991611 -1.506443
18  0.000000 2.265940 -0.000000  -0.068255 -0.049191 -1.188491
19  0.000001 1.457811 -0.000001  -0.052369 0.017179 -0.652433
20  -1.259680 3.818374 1.286946  0.073628 0.042747 -0.412046
21  -1.226388 3.891693 0.090419  0.003809 0.004060 -0.516332
22  -1.231622 3.875533 -0.958679  -0.050307 -0.036382 -0.536578
23  -1.209916 3.994781 -2.003048  -0.087312 -0.066428 -0.549293
24  0.328909 0.095428 1.403533  -1.086687 1.991611 -1.506443
25  14.226923 -16.665127 6.221796  1.423967 -0.330240 -1.164491
26  24.489557 -12.765261 -10.634670  -1.570796 -0.000000 -1.570796
27  0.449198 -13.144855 -6.669335  -0.051945 -0.000000 -1.570796
28  -7.318288 -9.383802 7.609562  1.462455 0.164879 1.394145
29  -0.000000 13.479275 0.000001  0.469246 0.000000 0.000000
30  0.000001 13.477238 -0.000001  -1.452634 0.318677 -0.396442
31  0.267270 3.664729 -1.953292  0.109630 -0.107225 0.495175
32  -0.000000 1.180352 0.000001  -0.029953 -0.007842 0.846531
33  0.000004 0.817137 -0.000003  0.012285 -0.000556 1.260037
34  0.249422 3.688545 -0.940886  -0.126560 -0.145246 0.899651
35  0.000000 1.800633 0.000000  -0.009643 -0.027168 1.400081
36  0.000002 1.243404 0.000001  0.002452 -0.006045 1.256196
37  0.244728 3.701098 0.087734  -0.174753 -0.151318 0.769501
38  -0.000000 1.766582 0.000000  0.009385 0.010267 1.319680
39  -0.000002 1.189004 0.000002  -0.006898 0.016298 1.212362
40  0.277239 3.632252 1.274106  -0.295695 -0.170063 0.706217
41  -0.000000 1.798494 -0.000002  0.035176 0.008609 1.280163
42  -0.000000 1.235451 0.000001  -0.008523 0.000599 1.061936
43  -0.315442 0.857304 0.755948  -0.678476 -2.468995 1.317854
44  -0.000000 2.265936 0.000000  -0.026878 0.060881 0.878738
45  -0.000002 1.457814 -0.000000  -0.051628 -0.019293 0.611810
46  1.259682 3.818376 1.286946  -0.295695 -0.170063 0.706217
47  1.226392 3.891696 0.090420  -0.174753 -0.151318 0.769501
48  1.231624 3.875537 -0.958679  -0.126560 -0.145246 0.899651
49  1.209919 3.994786 -2.003047  0.109629 -0.107225 0.495175
50  -0.328906 0.095432 1.403535  -0.678476 -2.468995 1.317854
51  -3.317979 -5.761531 33.265614  0.674406 0.382310 1.867077
52  -21.669651 -6.613170 8.844538  -1.570796 -0.000000 1.570796
53  -7.318288 -9.383802 7.609562  -0.051945 0.000000 1.570796
54  -6.264463 -35.466667 -6.756168  1.481746 1.170079 -1.079438
55  -0.000001 -0.000000 -0.000001  0.000000 -0.000000 0.000000
56  -0.000001 -0.000000 -0.000001  0.000000 -0.000000 0.000000
time 7
0  0 0 0  0 0 0
1  0.000000 0.000000 0.000000  1.570796 -0.000000 0.000000
2  0.449198 -13.144855 -6.669335  -0.016587 0.230977 -1.593803
3  0.000002 13.479276 0.000000  1.580751 0.000000 -0.000000
4  -0.000000 13.477239 0.000000  -0.036338 0.397853 0.571647
5  -0.267269 3.664727 -1.953295  -0.079486 -0.075622 -0.659452
6  -0.000002 1.180355 0.000001  -0.018216 -0.032631 -1.038799
7  0.000000 0.817133 -0.000000  0.011506 -0.004341 -0.854075
8  -0.249422 3.688542 -0.940890  -0.046000 -0.041695 -0.646799
9  -0.000000 1.800633 0.000000  0.001675 0.005090 -1.063484
10  -0.000001 1.243406 0.000001  0.004311 0.004896 -0.919604
11  -0.244726 3.701096 0.087731  0.003339 0.004455 -0.626597
12  0.000001 1.766584 0.000001  0.004299 -0.000578 -1.085351
13  0.000000 1.189002 0.000000  -0.010493 -0.014252 -0.978059
14  -0.277239 3.632250 1.274101  0.068889 0.051078 -0.522111
15  -0.000002 1.798494 0.000000  0.020365 0.031904 -1.002828
16  0.000001 1.235451 0.000000  -0.008363 0.001752 -0.785226
17  0.315442 0.857300 0.755942  -0.928550 1.897743 -1.343750
18  -0.000000 2.265939 0.000000  -0.061291 -0.049566 -1.293407
19  0.000001 1.457811 -0.000001  -0.053877 0.011609 -0.757099
20  -1.259681 3.818375 1.286944  0.068888 0.051078 -0.522111
21  -1.226389 3.891695 0.090418  0.003339 0.004455 -0.626597
22  -1.231622 3.875534 -0.958681  -0.046000 -0.041695 -0.646799
23  -1.209918 3.994782 -2.003048  -0.079486 -0.075622 -0.659452
24  0.328907 0.095429 1.403531  -0.928550 1.897743 -1.343750
25  13.941984 -16.489967 6.231017  1.391778 -0.310474 -1.170956
26  24.489557 -12.765261 -10.634670  -1.570796 -0.000000 -1.570796
27  0.449198 -13.144855 -6.669335  -0.051945 -0.000000 -1.570796
28  -7.398375 -9.312099 7.242726  1.497752 0.138694 1.433089
29  -0.000002 13.479274 0.000000  0.367497 0.000000 0.000000
30  -0.000001 13.477239 0.000000  -1.349792 0.309440 -0.379667
31  0.267269 3.664728 -1.953288  0.109630 -0.107225 0.495175
32  0.000000 1.180355 0.000001  -0.029953 -0.007842 0.846531
33  0.000000 0.817135 -0.000000  0.012285 -0.000556 1.260037
34  0.249422 3.688542 -0.940885  -0.126560 -0.145246 0.899651
35  0.000001 1.800631 -0.000003  -0.009643 -0.027168 1.400081
36  -0.000002 1.243406 -0.000002  0.002452 -0.006045 1.256197
37  0.244727 3.701096 0.087735  -0.174753 -0.151318 0.769501
38  -0.000000 1.766583 0.000000  0.009385 0.010267 1.319680
39  -0.000002 1.189003 -0.000002  -0.006898 0.016298 1.212362
40  0.277239 3.632249 1.274107  -0.295695 -0.170063 0.706217
41  -0.000002 1.798493 -0.000000  0.035176 0.008609 1.280163
42  0.000002 1.235451 0.000001  -0.008523 0.000599 1.061936
43  -0.315442 0.857302 0.755949  -0.678476 -2.468995 1.317854
44  -0.000000 2.265941 0.000000  -0.026878 0.060881 0.878738
45  0.000000 1.457813 -0.000001  -0.051628 -0.019293 0.611810
46  1.259682 3.818373 1.286947  -0.295695 -0.170063 0.706217
47  1.226390 3.891694 0.090422  -0.174753 -0.151318 0.769501
48  1.231624 3.875533 -0.958679  -0.126560 -0.145246 0.899651
49  1.209920 3.994782 -2.003046  0.109629 -0.107225 0.495175
50  -0.328906 0.095430 1.403535  -0.678476 -2.468995 1.317854
51  -3.998624 -6.106884 33.330215  0.689777 0.378308 1.870766
52  -21.758942 -7.045774 9.202402  -1.570796 -0.000000 1.570796
53  -7.398375 -9.312099 7.242726  -0.051945 0.000000 1.570796
54  -6.914165 -35.575069 -7.094795  1.476748 1.170716 -1.069223
55  0.000002 0.000002 0.000002  0.000000 -0.000000 0.000000
56  0.000002 0.000002 0.000002  0.000000 -0.000000 0.000000
time 8
0  0 0 0  0 0 0
1  0.000000 0.000000 0.000000  1.570796 -0.000000 0.000000
2  0.449198 -13.144855 -6.669335  -0.018509 0.215149 -1.591057
3  0.000002 13.479277 0.000000  1.611053 0.000000 -0.000000
4  0.000000 13.477239 -0.000001  -0.092541 0.399582 0.530727
5  -0.267270 3.664726 -1.953291  -0.072307 -0.082512 -0.750281
6  0.000001 1.180356 0.000000  -0.015181 -0.034148 -1.129642
7  -0.000000 0.817136 -0.000001  0.011853 -0.003280 -0.944875
8  -0.249421 3.688542 -0.940887  -0.042031 -0.045694 -0.737604
9  0.000000 1.800632 -0.000000  0.001206 0.005221 -1.154292
10  -0.000001 1.243404 0.000001  0.003849 0.005267 -1.010410
11  -0.244726 3.701096 0.087734  0.002921 0.004739 -0.717404
12  -0.000000 1.766584 -0.000000  0.004333 -0.000186 -1.176157
13  0.000000 1.189004 0.000002  -0.009157 -0.015145 -1.068871
14  -0.277239 3.632248 1.274103  0.064555 0.057673 -0.612801
15  -0.000001 1.798495 -0.000000  0.017389 0.033619 -1.093636
16  0.000000 1.235448 0.000000  -0.008487 0.000987 -0.875999
17  0.315443 0.857299 0.755944  -0.715135 1.830211 -1.129549
18  0.000000 2.265939 -0.000001  -0.055552 -0.049326 -1.379809
19  0.000001 1.457810 -0.000001  -0.054676 0.006923 -0.843285
20  -1.259682 3.818375 1.286946  0.064555 0.057673 -0.612802
21  -1.226390 3.891693 0.090420  0.002921 0.004739 -0.717404
22  -1.231622 3.875534 -0.958680  -0.042031 -0.045694 -0.737604
23  -1.209917 3.994781 -2.003047  -0.072307 -0.082512 -0.750281
24  0.328907 0.095429 1.403534  -0.715135 1.830210 -1.129549
25  13.572409 -16.234413 6.248974  1.372252 -0.298486 -1.183545
26  24.489557 -12.765261 -10.634670  -1.570796 -0.000000 -1.570796
27  0.449198 -13.144855 -6.669335  -0.051945 -0.000000 -1.570796
28  -7.522145 -9.201284 6.675799  0.984270 0.034084 1.466573
29  -0.000002 13.479276 0.000001  1.076593 -0.000000 0.000000
30  -0.000000 13.477237 -0.000000  -1.459163 0.170483 -0.490972
31  0.267269 3.664727 -1.953291  0.109629 -0.107225 0.495175
32  0.000001 1.180355 -0.000001  -0.029954 -0.007842 0.846531
33  -0.000000 0.817135 -0.000001  0.012285 -0.000556 1.260036
34  0.249424 3.688545 -0.940888  -0.126560 -0.145246 0.899651
35  0.000000 1.800635 0.000001  -0.009643 -0.027168 1.400081
36  0.000003 1.243403 0.000001  0.002452 -0.006045 1.256196
37  0.244726 3.701099 0.087736  -0.174753 -0.151318 0.769501
38  -0.000001 1.766583 -0.000002  0.009385 0.010267 1.319679
39  0.000001 1.189004 -0.000003  -0.006898 0.016298 1.212362
40  0.277240 3.632252 1.274104  -0.295695 -0.170063 0.706217
41  0.000000 1.798495 0.000001  0.035176 0.008609 1.280163
42  -0.000000 1.235452 0.000000  -0.008523 0.000599 1.061936
43  -0.315440 0.857302 0.755946  -0.678476 -2.468995 1.317854
44  0.000000 2.265940 0.000000  -0.026878 0.060881 0.878738
45  -0.000001 1.457808 0.000000  -0.051628 -0.019293 0.611810
46  1.259682 3.818377 1.286947  -0.295695 -0.170063 0.706217
47  1.226391 3.891696 0.090420  -0.174753 -0.151318 0.769501
48  1.231623 3.875535 -0.958678  -0.126560 -0.145246 0.899651
49  1.209919 3.994783 -2.003046  0.109629 -0.107225 0.495175
50  -0.328906 0.095432 1.403536  -0.678476 -2.468995 1.317854
51  -8.551098 -8.301620 29.778751  0.727743 0.367762 1.872412
52  -21.873154 -7.599106 9.622633  -1.570796 -0.000000 1.570796
53  -7.522145 -9.201284 6.675799  -0.051945 0.000000 1.570796
54  -11.393671 -32.130222 -9.253502  1.448702 1.176284 -1.058193
55  0.000001 -0.000000 -0.000001  -0.000000 0.000000 0.000000
56  0.000001 -0.000000 -0.000001  -0.000000 0.000000 0.000000
time 9
0  0 0 0  0 0 0
1  0.000000 0.000000 0.000000  1.570796 -0.000000 0.000000
2  0.449198 -13.144855 -6.669335  -0.019333 0.193523 -1.587335
3  0.000001 13.479276 0.000000  1.645526 0.000000 -0.000000
4  -0.000001 13.477238 -0.000000  -0.145371 0.392444 0.487865
5  -0.267268 3.664727 -1.953293  -0.067089 -0.086805 -0.811971
6  -0.000000 1.180356 -0.000001  -0.013049 -0.035018 -1.191291
7  0.000001 0.817136 -0.000000  0.012032 -0.002544 -1.006489
8  -0.249422 3.688543 -0.940890  -0.039138 -0.048194 -0.799239
9  0.000000 1.800632 0.000001  0.000882 0.005285 -1.215911
10  0.000001 1.243406 0.000000  0.003518 0.005494 -1.072029
11  -0.244726 3.701096 0.087733  0.002624 0.004910 -0.779023
12  0.000001 1.766585 0.000000  0.004337 0.000081 -1.237775
13  -0.000001 1.189003 -0.000001  -0.008207 -0.015680 -1.130494
14  -0.277239 3.632249 1.274101  0.061406 0.061993 -0.674369
15  -0.000003 1.798494 0.000001  0.015285 0.034626 -1.155263
16  -0.000000 1.235451 0.000000  -0.008532 0.000463 -0.937596
17  0.315442 0.857300 0.755943  -0.502965 1.794084 -0.918340
18  -0.000001 2.265939 0.000000  -0.051679 -0.048882 -1.438436
19  -0.000001 1.457811 0.000002  -0.054987 0.003713 -0.901765
20  -1.259680 3.818375 1.286946  0.061406 0.061993 -0.674369
21  -1.226391 3.891694 0.090418  0.002624 0.004910 -0.779023
22  -1.231623 3.875535 -0.958681  -0.039138 -0.048194 -0.799240
23  -1.209918 3.994783 -2.003049  -0.067089 -0.086805 -0.811971
24  0.328907 0.095429 1.403532  -0.502965 1.794084 -0.918341
25  13.135126 -15.892500 6.278579  1.362226 -0.292329 -1.204301
26  24.489557 -12.765261 -10.634670  -1.570796 -0.000000 -1.570796
27  0.449198 -13.144855 -6.669335  -0.051945 -0.000000 -1.570796
28  -7.681657 -9.058468 5.945160  0.373611 -0.190428 1.458247
29  -0.000001 13.479276 -0.000000  1.553421 -0.000000 0.000000
30  0.000000 13.477237 -0.000002  -1.222647 0.186997 -0.655512
31  0.267270 3.664726 -1.953294  0.109629 -0.107225 0.495175
32  0.000000 1.180354 0.000001  -0.029953 -0.007842 0.846531
33  -0.000004 0.817134 0.000002  0.012285 -0.000556 1.260036
34  0.249424 3.688540 -0.940889  -0.126560 -0.145246 0.899651
35  -0.000003 1.800633 -0.000002  -0.009643 -0.027168 1.400081
36  0.000000 1.243406 -0.000002  0.002452 -0.006045 1.256196
37  0.244726 3.701094 0.087732  -0.174753 -0.151318 0.769501
38  -0.000001 1.766586 -0.000000  0.009385 0.010267 1.319679
39  -0.000001 1.189003 0.000001  -0.006898 0.016298 1.212361
40  0.277240 3.632245 1.274101  -0.295695 -0.170063 0.706217
41  -0.000000 1.798495 -0.000001  0.035176 0.008609 1.280163
42  0.000000 1.235450 -0.000000  -0.008523 0.000599 1.061936
43  -0.315440 0.857299 0.755942  -0.678476 -2.468995 1.317854
44  0.000002 2.265939 -0.000001  -0.026878 0.060881 0.878738
45  0.000000 1.457814 -0.000001  -0.051628 -0.019293 0.611810
46  1.259682 3.818372 1.286945  -0.295695 -0.170063 0.706217
47  1.226392 3.891691 0.090418  -0.174753 -0.151318 0.769501
48  1.231623 3.875532 -0.958679  -0.126560 -0.145246 0.899651
49  1.209920 3.994780 -2.003051  0.109629 -0.107225 0.495175
50  -0.328905 0.095426 1.403533  -0.678476 -2.468995 1.317854
51  -15.854179 -11.477725 23.177759  0.802677 0.347014 1.877852
52  -22.006052 -8.242983 10.087412  -1.570796 -0.000000 1.570796
53  -7.681657 -9.058468 5.945160  -0.051945 0.000000 1.570796
54  -18.536282 -25.732649 -12.369116  1.399788 1.185645 -1.030247
55  -0.000001 -0.000000 0.000001  -0.000000 -0.000000 -0.000000
56  -0.000001 -0.000000 0.000001  -0.000000 -0.000000 -0.000000
time 10
0  0 0 0  0 0 0
1  0.000000 0.000000 0.000000  1.570796 -0.000000 0.000000
2  0.449198 -13.144855 -6.669335  -0.018162 0.165484 -1.582555
3  0.000000 13.479278 0.000000  1.681977 0.000000 -0.000000
4  -0.000001 13.477240 0.000001  -0.198034 0.373325 0.442105
5  -0.267268 3.664725 -1.953292  -0.065101 -0.088304 -0.834710
6  0.000001 1.180355 -0.000000  -0.012250 -0.035305 -1.214004
7  0.000001 0.817136 0.000000  0.012087 -0.002270 -1.029189
8  -0.249421 3.688540 -0.940889  -0.038034 -0.049070 -0.821951
9  0.000000 1.800633 0.000000  0.000762 0.005304 -1.238613
10  -0.000001 1.243405 0.000000  0.003392 0.005572 -1.094731
11  -0.244725 3.701096 0.087732  0.002511 0.004969 -0.801725
12  -0.000001 1.766584 -0.000001  0.004334 0.000179 -1.260476
13  -0.000000 1.189004 -0.000000  -0.007849 -0.015862 -1.153198
14  -0.277238 3.632248 1.274102  0.060205 0.063550 -0.697057
15  -0.000001 1.798496 0.000000  0.014496 0.034963 -1.177970
16  -0.000002 1.235450 -0.000000  -0.008540 0.000269 -0.960290
17  0.315443 0.857299 0.755943  -0.408331 1.783776 -0.824362
18  -0.000000 2.265940 -0.000000  -0.050260 -0.048661 -1.460035
19  0.000001 1.457812 -0.000002  -0.055055 0.002526 -0.923309
20  -1.259680 3.818375 1.286946  0.060205 0.063550 -0.697057
21  -1.226388 3.891693 0.090419  0.002511 0.004969 -0.801725
22  -1.231622 3.875533 -0.958681  -0.038034 -0.049070 -0.821951
23  -1.209917 3.994782 -2.003048  -0.065101 -0.088304 -0.834710
24  0.328907 0.095428 1.403532  -0.408331 1.783776 -0.824362
25  12.647062 -15.458266 6.322743  1.358532 -0.290061 -1.235264
26  24.489557 -12.765261 -10.634670  -1.570796 -0.000000 -1.570796
27  0.449198 -13.144855 -6.669335  -0.051945 -0.000000 -1.570796
28  -7.868968 -8.890766 5.087191  0.169458 -0.404384 1.409440
29  0.000000 13.479277 -0.000000  1.557426 -0.000000 0.000000
30  0.000001 13.477240 -0.000001  -0.922622 0.347871 -0.801440
31  0.267267 3.664728 -1.953291  0.109629 -0.107225 0.495175
32  -0.000000 1.180353 -0.000000  -0.029954 -0.007842 0.846531
33  -0.000002 0.817135 0.000003  0.012285 -0.000556 1.260037
34  0.249422 3.688542 -0.940890  -0.126560 -0.145246 0.899651
35  0.000001 1.800629 -0.000002  -0.009643 -0.027168 1.400081
36  0.000002 1.243405 0.000002  0.002452 -0.006045 1.256196
37  0.244726 3.701097 0.087732  -0.174753 -0.151318 0.769501
38  0.000000 1.766582 0.000001  0.009385 0.010267 1.319679
39  -0.000003 1.189005 -0.000002  -0.006898 0.016298 1.212362
40  0.277238 3.632248 1.274103  -0.295695 -0.170063 0.706217
41  0.000003 1.798494 -0.000002  0.035176 0.008609 1.280163
42  -0.000000 1.235450 -0.000003  -0.008523 0.000599 1.061936
43  -0.315443 0.857300 0.755944  -0.678476 -2.468995 1.317854
44  -0.000002 2.265938 0.000000  -0.026878 0.060881 0.878739
45  0.000002 1.457812 -0.000001  -0.051628 -0.019293 0.611810
46  1.259681 3.818374 1.286946  -0.295695 -0.170063 0.706217
47  1.226389 3.891690 0.090419  -0.174753 -0.151318 0.769501
48  1.231622 3.875535 -0.958680  -0.126560 -0.145246 0.899651
49  1.209918 3.994783 -2.003048  0.109629 -0.107225 0.495175
50  -0.328906 0.095430 1.403531  -0.678476 -2.468995 1.317854
51  -19.899544 -13.145491 19.415867  0.928677 0.312327 1.892164
52  -22.151411 -8.947224 10.578918  -1.570796 -0.000000 1.570796
53  -7.868968 -8.890766 5.087191  -0.051945 0.000000 1.570796
54  -22.267122 -22.287804 -13.959286  1.333997 1.196708 -0.967266
55  0.000000 0.000000 -0.000002  -0.000000 -0.000000 0.000000
56  0.000000 0.000000 -0.000002  -0.000000 -0.000000 0.000000
time 11
0  0 0 0  0 0 0
1  0.000000 0.000000 0.000000  1.570796 -0.000000 0.000000
2  0.449198 -13.144855 -6.669335  -0.014211 0.130448 -1.576646
3  0.000001 13.479278 0.000001  1.718333 0.000000 -0.000000
4  -0.000001 13.477240 0.000002  -0.253520 0.338978 0.393305
5  -0.267271 3.664727 -1.953292  -0.067089 -0.086805 -0.811971
6  -0.000000 1.180356 0.000001  -0.013049 -0.035018 -1.191291
7  -0.000001 0.817135 -0.000001  0.012032 -0.002544 -1.006489
8  -0.249424 3.688542 -0.940888  -0.039138 -0.048194 -0.799240
9  -0.000001 1.800632 -0.000001  0.000882 0.005285 -1.215911
10  0.000000 1.243405 0.000000  0.003518 0.005494 -1.072029
11  -0.244727 3.701096 0.087734  0.002624 0.004910 -0.779023
12  -0.000002 1.766585 0.000001  0.004337 0.000081 -1.237775
13  0.000000 1.189005 -0.000001  -0.008207 -0.015680 -1.130494
14  -0.277241 3.632248 1.274103  0.061406 0.061993 -0.674369
15  0.000001 1.798493 0.000000  0.015285 0.034625 -1.155263
16  0.000000 1.235452 -0.000000  -0.008532 0.000463 -0.937596
17  0.315440 0.857300 0.755944  -0.502965 1.794084 -0.918341
18  0.000001 2.265939 0.000000  -0.051679 -0.048882 -1.438436
19  -0.000000 1.457812 -0.000001  -0.054987 0.003713 -0.901764
20  -1.259683 3.818374 1.286947  0.061406 0.061993 -0.674369
21  -1.226392 3.891692 0.090420  0.002624 0.004910 -0.779023
22  -1.231625 3.875533 -0.958680  -0.039138 -0.048194 -0.799240
23  -1.209920 3.994781 -2.003047  -0.067089 -0.086805 -0.811971
24  0.328905 0.095428 1.403533  -0.502965 1.794084 -0.918340
25  12.125143 -14.925753 6.384378  1.358005 -0.289737 -1.278477
26  24.489557 -12.765261 -10.634670  -1.570796 -0.000000 -1.570796
27  0.449198 -13.144855 -6.669335  -0.051945 -0.000000 -1.570796
28  -8.076135 -8.705284 4.138268  0.185288 -0.394169 1.435455
29  -0.000002 13.479277 0.000001  1.478635 -0.000000 0.000000
30  -0.000000 13.477239 0.000000  -0.443555 0.437661 -0.656790
31  0.267271 3.664724 -1.953292  0.109630 -0.107225 0.495175
32  -0.000001 1.180355 0.000002  -0.029953 -0.007842 0.846531
33  -0.000001 0.817133 0.000001  0.012285 -0.000556 1.260036
34  0.249424 3.688542 -0.940888  -0.126560 -0.145246 0.899651
35  0.000000 1.800631 -0.000001  -0.009643 -0.027168 1.400081
36  0.000001 1.243407 -0.000002  0.002452 -0.006045 1.256196
37  0.244729 3.701094 0.087733  -0.174753 -0.151318 0.769501
38  -0.000000 1.766583 0.000001  0.009385 0.010267 1.319679
39  -0.000000 1.189003 0.000002  -0.006898 0.016298 1.212362
40  0.277240 3.632246 1.274102  -0.295695 -0.170063 0.706217
41  0.000001 1.798497 -0.000001  0.035176 0.008609 1.280163
42  0.000001 1.235452 0.000002  -0.008523 0.000599 1.061936
43  -0.315441 0.857299 0.755945  -0.678476 -2.468995 1.317854
44  0.000001 2.265939 0.000001  -0.026878 0.060881 0.878738
45  -0.000001 1.457814 -0.000001  -0.051628 -0.019293 0.611810
46  1.259681 3.818374 1.286945  -0.295695 -0.170063 0.706217
47  1.226391 3.891691 0.090419  -0.174753 -0.151318 0.769501
48  1.231624 3.875535 -0.958679  -0.126560 -0.145246 0.899651
49  1.209920 3.994782 -2.003047  0.109629 -0.107225 0.495175
50  -0.328905 0.095429 1.403533  -0.678476 -2.468995 1.317854
51  -20.784849 -13.137367 18.819164  1.318890 0.197829 1.939338
52  -22.302999 -9.681645 11.079334  -1.570796 -0.000000 1.570796
53  -8.076135 -8.705284 4.138268  -0.051945 0.000000 1.570796
54  -21.903500 -22.402323 -13.789516  1.186442 1.215438 -0.711406
55  0.000000 -0.000001 -0.000002  -0.000000 -0.000000 -0.000000
56  0.000000 -0.000001 -0.000002  -0.000000 -0.000000 -0.000000
time 12
0  0 0 0  0 0 0
1  0.000000 0.000000 0.000000  1.570796 -0.000000 0.000000
2  0.449198 -13.144855 -6.669335  -0.006286 0.087932 -1.569548
3  0.000001 13.479277 0.000001  1.751830 0.000000 -0.000000
4  0.000001 13.477237 0.000000  -0.313290 0.213736 0.379447
5  -0.267270 3.664727 -1.953293  -0.072307 -0.082512 -0.750281
6  -0.000001 1.180356 -0.000002  -0.015181 -0.034148 -1.129642
7  -0.000000 0.817136 -0.000003  0.011853 -0.003280 -0.944875
8  -0.249424 3.688541 -0.940889  -0.042031 -0.045694 -0.737604
9  -0.000001 1.800633 0.000001  0.001206 0.005221 -1.154292
10  -0.000001 1.243407 -0.000001  0.003849 0.005267 -1.010410
11  -0.244727 3.701096 0.087733  0.002921 0.004739 -0.717404
12  0.000001 1.766583 -0.000000  0.004333 -0.000186 -1.176157
13  0.000000 1.189003 -0.000000  -0.009157 -0.015145 -1.068871
14  -0.277240 3.632248 1.274103  0.064555 0.057673 -0.612802
15  0.000000 1.798494 0.000000  0.017389 0.033619 -1.093636
16  0.000001 1.235451 -0.000000  -0.008487 0.000987 -0.875999
17  0.315440 0.857300 0.755944  -0.715135 1.830211 -1.129549
18  -0.000000 2.265939 0.000000  -0.055552 -0.049326 -1.379809
19  -0.000001 1.457812 0.000003  -0.054676 0.006923 -0.843285
20  -1.259682 3.818375 1.286946  0.064555 0.057673 -0.612802
21  -1.226391 3.891694 0.090418  0.002921 0.004739 -0.717404
22  -1.231623 3.875535 -0.958681  -0.042031 -0.045694 -0.737604
23  -1.209919 3.994783 -2.003048  -0.072307 -0.082512 -0.750281
24  0.328905 0.095430 1.403533  -0.715135 1.830211 -1.129549
25  11.586298 -14.288996 6.466398  1.372997 -0.317410 -1.415315
26  24.489557 -12.765261 -10.634670  -1.570796 -0.000000 -1.570796
27  0.449198 -13.144855 -6.669335  -0.051945 -0.000000 -1.570796
28  -8.295216 -8.509136 3.134777  0.248355 -0.321842 1.506492
29  0.000000 13.479278 0.000000  1.303290 -0.000000 0.000000
30  0.000001 13.477242 -0.000000  0.309999 0.494348 -0.357296
31  0.267269 3.664727 -1.953294  0.109629 -0.107225 0.495176
32  -0.000000 1.180356 0.000000  -0.029953 -0.007842 0.846531
33  -0.000002 0.817135 -0.000003  0.012285 -0.000556 1.260036
34  0.249424 3.688543 -0.940891  -0.126560 -0.145246 0.899651
35  -0.000000 1.800632 0.000001  -0.009643 -0.027168 1.400081
36  0.000000 1.243404 -0.000000  0.002452 -0.006045 1.256196
37  0.244727 3.701094 0.087732  -0.174753 -0.151318 0.769501
38  -0.000001 1.766583 0.000000  0.009385 0.010267 1.319679
39  0.000000 1.189003 -0.000001  -0.006898 0.016298 1.212362
40  0.277239 3.632247 1.274102  -0.295695 -0.170063 0.706218
41  0.000001 1.798496 0.000002  0.035176 0.008609 1.280163
42  -0.000002 1.235452 -0.000000  -0.008523 0.000599 1.061936
43  -0.315442 0.857299 0.755944  -0.678476 -2.468995 1.317854
44  -0.000001 2.265938 0.000001  -0.026878 0.060881 0.878738
45  0.000002 1.457810 -0.000002  -0.051628 -0.019293 0.611810
46  1.259680 3.818374 1.286944  -0.295695 -0.170063 0.706217
47  1.226390 3.891693 0.090419  -0.174753 -0.151318 0.769501
48  1.231622 3.875535 -0.958680  -0.126560 -0.145246 0.899651
49  1.209919 3.994781 -2.003050  0.109629 -0.107225 0.495175
50  -0.328906 0.095428 1.403533  -0.678476 -2.468995 1.317854
51  -21.932512 -12.952179 19.060534  1.881594 0.039779 1.994476
52  -22.454588 -10.416066 11.570841  -1.570796 -0.000000 1.570796
53  -8.295216 -8.509136 3.134777  -0.051945 0.000000 1.570796
54  -20.916525 -22.713163 -13.328714  0.991992 1.190807 -0.317428
55  0.000000 0.000000 0.000001  -0.000000 -0.000000 -0.000000
56  0.000000 0.000000 0.000001  -0.000000 -0.000000 -0.000000
time 13
0  0 0 0  0 0 0
1  0.000000 0.000000 0.000000  1.570796 -0.000000 0.000000
2  0.449198 -13.144855 -6.669335  0.006396 0.037643 -1.561219
3  0.000003 13.479277 0.000001  1.780123 0.000000 -0.000000
4  -0.000001 13.477240 -0.000000  -0.378016 0.033783 0.408789
5  -0.267269 3.664726 -1.953293  -0.079486 -0.075622 -0.659452
6  0.000001 1.180354 0.000000  -0.018216 -0.032631 -1.038799
7  -0.000000 0.817134 0.000002  0.011506 -0.004341 -0.854075
8  -0.249421 3.688540 -0.940889  -0.046000 -0.041695 -0.646799
9  0.000001 1.800633 0.000000  0.001675 0.005090 -1.063484
10  0.000000 1.243406 0.000001  0.004311 0.004896 -0.919603
11  -0.244725 3.701095 0.087733  0.003339 0.004455 -0.626597
12  0.000000 1.766585 -0.000001  0.004299 -0.000578 -1.085351
13  -0.000001 1.189004 0.000000  -0.010493 -0.014252 -0.978059
14  -0.277239 3.632248 1.274102  0.068888 0.051078 -0.522111
15  0.000000 1.798494 -0.000000  0.020365 0.031904 -1.002828
16  0.000001 1.235451 0.000000  -0.008363 0.001752 -0.785226
17  0.315442 0.857300 0.755944  -0.928550 1.897742 -1.343750
18  0.000000 2.265940 -0.000000  -0.061291 -0.049566 -1.293407
19  -0.000001 1.457811 0.000000  -0.053877 0.011609 -0.757100
20  -1.259681 3.818375 1.286945  0.068888 0.051078 -0.522111
21  -1.226390 3.891694 0.090419  0.003339 0.004455 -0.626597
22  -1.231622 3.875534 -0.958681  -0.046000 -0.041695 -0.646799
23  -1.209919 3.994782 -2.003048  -0.079486 -0.075622 -0.659452
24  0.328907 0.095428 1.403534  -0.928550 1.897742 -1.343750
25  11.047451 -13.542037 6.571713  1.410896 -0.368804 -1.617043
26  24.489557 -12.765261 -10.634670  -1.570796 -0.000000 -1.570796
27  0.449198 -13.144855 -6.669335  -0.051945 -0.000000 -1.570796
28  -8.518268 -8.309433 2.113095  0.355837 -0.186920 1.636755
29  -0.000002 13.479276 0.000000  1.170308 -0.000000 0.000000
30  0.000000 13.477237 0.000001  0.663334 0.408395 -0.132512
31  0.267269 3.664728 -1.953291  0.109629 -0.107225 0.495175
32  -0.000001 1.180353 0.000002  -0.029953 -0.007842 0.846531
33  -0.000001 0.817135 0.000003  0.012285 -0.000556 1.260036
34  0.249423 3.688542 -0.940887  -0.126560 -0.145246 0.899651
35  0.000001 1.800632 0.000000  -0.009643 -0.027168 1.400081
36  -0.000001 1.243407 -0.000001  0.002452 -0.006045 1.256196
37  0.244727 3.701095 0.087736  -0.174753 -0.151318 0.769501
38  0.000000 1.766585 -0.000001  0.009385 0.010267 1.319679
39  0.000003 1.189004 -0.000001  -0.006897 0.016298 1.212362
40  0.277240 3.632249 1.274103  -0.295695 -0.170063 0.706217
41  -0.000000 1.798494 0.000001  0.035176 0.008609 1.280163
42  0.000000 1.235451 -0.000003  -0.008523 0.000599 1.061936
43  -0.315441 0.857299 0.755946  -0.678476 -2.468995 1.317854
44  -0.000001 2.265939 -0.000001  -0.026878 0.060881 0.878738
45  -0.000002 1.457811 0.000000  -0.051628 -0.019293 0.611810
46  1.259680 3.818376 1.286947  -0.295695 -0.170063 0.706217
47  1.226389 3.891694 0.090421  -0.174753 -0.151318 0.769501
48  1.231624 3.875533 -0.958680  -0.126560 -0.145246 0.899651
49  1.209919 3.994781 -2.003046  0.109629 -0.107225 0.495175
50  -0.328906 0.095428 1.403534  -0.678476 -2.468995 1.317854
51  -21.503132 -12.549036 19.955727  2.172158 -0.032616 2.039056
52  -22.599947 -11.120307 12.035620  -1.570796 -0.000000 1.570796
53  -8.518268 -8.309433 2.113095  -0.051945 0.000000 1.570796
54  -19.462036 -23.171242 -12.649638  0.868329 1.135165 -0.137651
55  -0.000002 -0.000001 0.000000  0.000000 -0.000000 0.000000
56  -0.000002 -0.000001 0.000000  0.000000 -0.000000 0.000000
time 14
0  0 0 0  0 0 0
1  0.000000 0.000000 0.000000  1.570796 -0.000000 0.000000
2  0.449198 -13.144855 -6.669335  0.024683 -0.020402 -1.551642
3  -0.000000 13.479276 0.000001  1.800498 0.000000 -0.000000
4  0.000001 13.477239 -0.000001  -0.411624 -0.057603 0.406490
5  -0.267270 3.664727 -1.953292  -0.087312 -0.066427 -0.549293
6  -0.000000 1.180357 -0.000000  -0.021696 -0.030429 -0.928503
7  -0.000000 0.817136 0.000001  0.010959 -0.005581 -0.743818
8  -0.249423 3.688542 -0.940887  -0.050307 -0.036382 -0.536578
9  -0.000000 1.800632 -0.000001  0.002224 0.004875 -0.953218
10  -0.000000 1.243406 -0.000001  0.004824 0.004392 -0.809338
11  -0.244726 3.701097 0.087734  0.003809 0.004060 -0.516332
12  -0.000001 1.766583 -0.000000  0.004209 -0.001048 -0.975087
13  -0.000001 1.189004 -0.000000  -0.011997 -0.013011 -0.867791
14  -0.277240 3.632249 1.274104  0.073628 0.042747 -0.412046
15  0.000000 1.798494 -0.000001  0.023751 0.029471 -0.892578
16  -0.000000 1.235452 -0.000000  -0.008119 0.002661 -0.675005
17  0.315441 0.857300 0.755946  -1.086687 1.991611 -1.506443
18  0.000000 2.265939 -0.000000  -0.068255 -0.049191 -1.188491
19  0.000001 1.457812 0.000001  -0.052369 0.017179 -0.652433
20  -1.259681 3.818375 1.286947  0.073628 0.042747 -0.412046
21  -1.226391 3.891694 0.090420  0.003809 0.004060 -0.516332
22  -1.231623 3.875535 -0.958680  -0.050307 -0.036382 -0.536578
23  -1.209920 3.994781 -2.003046  -0.087312 -0.066428 -0.549293
24  0.328906 0.095429 1.403534  -1.086687 1.991611 -1.506443
25  10.525534 -12.678911 6.703235  1.461089 -0.396477 -1.720536
26  24.489557 -12.765261 -10.634670  -1.570796 -0.000000 -1.570796
27  0.449198 -13.144855 -6.669335  -0.051945 -0.000000 -1.570796
28  -8.737349 -8.113285 1.109604  0.460102 -0.078041 1.764589
29  -0.000002 13.479277 0.000000  1.154323 -0.000000 0.000000
30  -0.000000 13.477238 0.000000  0.560796 0.308396 -0.065058
31  0.267270 3.664726 -1.953292  0.109629 -0.107225 0.495175
32  0.000001 1.180354 -0.000001  -0.029953 -0.007842 0.846531
33  -0.000002 0.817133 -0.000001  0.012285 -0.000556 1.260036
34  0.249423 3.688542 -0.940887  -0.126560 -0.145246 0.899651
35  0.000001 1.800633 0.000001  -0.009643 -0.027168 1.400081
36  0.000001 1.243407 0.000000  0.002452 -0.006045 1.256197
37  0.244728 3.701095 0.087734  -0.174753 -0.151318 0.769501
38  0.000001 1.766587 0.000001  0.009385 0.010267 1.319679
39  0.000000 1.189003 0.000001  -0.006898 0.016298 1.212361
40  0.277240 3.632248 1.274102  -0.295695 -0.170063 0.706217
41  0.000001 1.798494 -0.000001  0.035176 0.008609 1.280163
42  -0.000001 1.235451 0.000001  -0.008523 0.000599 1.061936
43  -0.315442 0.857299 0.755945  -0.678476 -2.468995 1.317854
44  -0.000002 2.265941 0.000001  -0.026878 0.060881 0.878738
45  -0.000000 1.457815 -0.000000  -0.051628 -0.019293 0.611810
46  1.259682 3.818374 1.286946  -0.295695 -0.170063 0.706217
47  1.226392 3.891691 0.090421  -0.174753 -0.151318 0.769501
48  1.231624 3.875533 -0.958679  -0.126560 -0.145246 0.899651
49  1.209920 3.994783 -2.003046  0.109629 -0.107225 0.495175
50  -0.328906 0.095428 1.403533  -0.678476 -2.468995 1.317854
51  -19.719730 -11.813861 20.499544  2.169084 -0.025631 2.075624
52  -22.732847 -11.764183 12.455851  -1.570796 -0.000000 1.570796
53  -8.737349 -8.113285 1.109604  -0.051945 0.000000 1.570796
54  -17.695869 -23.727482 -11.825046  0.869255 1.098383 -0.142802
55  0.000000 0.000001 -0.000001  0.000000 0.000000 -0.000000
56  0.000000 0.000001 -0.000001  0.000000 0.000000 -0.000000
time 15
0  0 0 0  0 0 0
1  0.000000 0.000000 0.000000  1.570796 -0.000000 0.000000
2  0.449198 -13.144855 -6.669335  0.094776 -0.081316 -1.541567
3  0.000001 13.479279 0.000000  1.761276 0.000000 -0.000000
4  0.000000 13.477240 -0.000000  -0.393275 -0.064113 0.344179
5  -0.267269 3.664726 -1.953293  -0.094615 -0.055514 -0.429573
6  0.000000 1.180354 0.000002  -0.025183 -0.027613 -0.808493
7  -0.000000 0.817136 -0.000001  0.010212 -0.006852 -0.623831
8  -0.249421 3.688541 -0.940890  -0.054296 -0.030102 -0.416682
9  0.000000 1.800634 -0.000000  0.002792 0.004573 -0.833223
10  0.000001 1.243407 0.000003  0.005315 0.003783 -0.689345
11  -0.244725 3.701095 0.087732  0.004268 0.003575 -0.396338
12  0.000000 1.766583 0.000001  0.004053 -0.001544 -0.855094
13  0.000001 1.189003 0.000001  -0.013469 -0.011481 -0.747797
14  -0.277239 3.632247 1.274101  0.078097 0.033350 -0.292333
15  -0.000002 1.798494 -0.000000  0.027107 0.026417 -0.772623
16  -0.000000 1.235451 -0.000000  -0.007742 0.003614 -0.555061
17  0.315442 0.857300 0.755943  1.951536 1.041018 1.522171
18  -0.000000 2.265940 -0.000000  -0.075743 -0.047958 -1.074328
19  -0.000001 1.457811 -0.000001  -0.050077 0.023024 -0.538509
20  -1.259680 3.818375 1.286946  0.078097 0.033350 -0.292333
21  -1.226390 3.891693 0.090418  0.004267 0.003575 -0.396338
22  -1.231622 3.875534 -0.958681  -0.054296 -0.030102 -0.416681
23  -1.209919 3.994781 -2.003048  -0.094616 -0.055514 -0.429573
24  0.328907 0.095428 1.403533  1.951536 1.041018 1.522171
25  10.037470 -11.709985 7.491319  1.514145 -0.390220 -1.711318
26  24.489557 -12.765261 -10.634670  -1.570796 -0.000000 -1.570796
27  0.449198 -13.144855 -6.669335  -0.051945 -0.000000 -1.570796
28  -8.944515 -7.927803 0.160682  0.596192 -0.022377 1.857213
29  -0.000001 13.479277 -0.000001  1.111621 -0.000000 0.000000
30  0.000000 13.477239 0.000001  0.451185 0.240831 -0.048535
31  0.267269 3.664725 -1.953292  0.109629 -0.107225 0.495175
32  -0.000001 1.180354 0.000000  -0.029953 -0.007842 0.846531
33  -0.000001 0.817135 0.000000  0.012285 -0.000556 1.260036
34  0.249422 3.688539 -0.940886  -0.126560 -0.145246 0.899651
35  0.000001 1.800636 -0.000001  -0.009643 -0.027168 1.400081
36  0.000000 1.243406 -0.000002  0.002452 -0.006045 1.256196
37  0.244726 3.701095 0.087734  -0.174753 -0.151318 0.769501
38  0.000001 1.766585 -0.000001  0.009385 0.010267 1.319679
39  0.000000 1.189003 -0.000000  -0.006898 0.016298 1.212361
40  0.277239 3.632248 1.274103  -0.295695 -0.170063 0.706217
41  -0.000001 1.798493 -0.000000  0.035176 0.008609 1.280163
42  -0.000000 1.235452 0.000003  -0.008523 0.000599 1.061936
43  -0.315441 0.857299 0.755942  -0.678476 -2.468995 1.317854
44  0.000002 2.265939 0.000001  -0.026878 0.060881 0.878738
45  -0.000000 1.457813 0.000001  -0.051628 -0.019293 0.611810
46  1.259681 3.818373 1.286946  -0.295695 -0.170063 0.706217
47  1.226390 3.891692 0.090421  -0.174753 -0.151318 0.769501
48  1.231621 3.875534 -0.958678  -0.126560 -0.145246 0.899651
49  1.209919 3.994780 -2.003047  0.109629 -0.107225 0.495175
50  -0.328906 0.095427 1.403533  -0.678476 -2.468995 1.317854
51  -17.745577 -11.007776 21.073711  2.161177 -0.007611 2.102379
52  -22.847057 -12.317516 12.813717  -1.570796 -0.000000 1.570796
53  -8.944515 -7.927803 0.160682  -0.051945 0.000000 1.570796
54  -15.773865 -24.332800 -10.927694  0.853404 1.070246 -0.172611
55  -0.000002 0.000000 0.000001  -0.000000 -0.000000 0.000000
56  -0.000002 0.000000 0.000001  -0.000000 -0.000000 0.000000
time 16
0  0 0 0  0 0 0
1  0.000000 0.000000 0.000000  1.570796 -0.000000 0.000000
2  0.449198 -13.144855 -6.669335  0.234814 -0.130617 -1.533341
3  0.000001 13.479278 0.000001  1.627484 0.000000 -0.000000
4  0.000003 13.477239 0.000002  -0.345486 -0.067770 0.278226
5  -0.267270 3.664726 -1.953294  -0.100558 -0.043809 -0.310003
6  -0.000000 1.180355 0.000001  -0.028307 -0.024400 -0.688504
7  0.000000 0.817135 0.000001  0.009319 -0.008026 -0.503842
8  -0.249423 3.688541 -0.940890  -0.057505 -0.023389 -0.296832
9  -0.000000 1.800632 0.000002  0.003319 0.004206 -0.713228
10  0.000000 1.243407 0.000001  0.005729 0.003120 -0.569352
11  -0.244726 3.701096 0.087732  0.004665 0.003039 -0.276344
12  0.000001 1.766585 0.000001  0.003839 -0.002018 -0.735101
13  -0.000000 1.189002 -0.000000  -0.014746 -0.009786 -0.627808
14  -0.277239 3.632247 1.274101  0.081813 0.023694 -0.172673
15  0.000001 1.798495 0.000001  0.030073 0.022984 -0.652690
16  -0.000000 1.235450 -0.000000  -0.007254 0.004514 -0.435118
17  0.315441 0.857299 0.755944  1.887730 0.928912 1.443656
18  0.000001 2.265940 0.000000  -0.083040 -0.045881 -0.960187
19  -0.000001 1.457813 0.000001  -0.047134 0.028572 -0.424555
20  -1.259681 3.818374 1.286945  0.081814 0.023694 -0.172673
21  -1.226390 3.891693 0.090419  0.004665 0.003039 -0.276344
22  -1.231622 3.875534 -0.958681  -0.057505 -0.023389 -0.296832
23  -1.209919 3.994781 -2.003048  -0.100558 -0.043809 -0.310003
24  0.328906 0.095427 1.403532  1.887730 0.928912 1.443655
25  9.600185 -10.710931 9.237067  1.565387 -0.374576 -1.688272
26  24.489557 -12.765261 -10.634670  -1.570796 -0.000000 -1.570796
27  0.449198 -13.144855 -6.669335  -0.051945 -0.000000 -1.570796
28  -9.131826 -7.760099 -0.697288  0.747281 -0.002705 1.915118
29  -0.000000 13.479279 0.000002  1.035495 -0.000000 0.000000
30  0.000001 13.477239 0.000001  0.359884 0.196819 -0.063487
31  0.267269 3.664727 -1.953294  0.109629 -0.107225 0.495175
32  0.000000 1.180354 0.000002  -0.029953 -0.007842 0.846531
33  -0.000001 0.817135 0.000003  0.012285 -0.000556 1.260036
34  0.249422 3.688542 -0.940888  -0.126560 -0.145246 0.899651
35  0.000001 1.800634 0.000000  -0.009643 -0.027168 1.400081
36  -0.000000 1.243407 -0.000002  0.002452 -0.006045 1.256196
37  0.244725 3.701096 0.087732  -0.174754 -0.151318 0.769501
38  0.000000 1.766586 -0.000003  0.009385 0.010267 1.319679
39  0.000001 1.189005 0.000001  -0.006898 0.016298 1.212361
40  0.277238 3.632249 1.274101  -0.295695 -0.170063 0.706217
41  0.000001 1.798497 -0.000001  0.035176 0.008609 1.280163
42  0.000002 1.235452 -0.000003  -0.008523 0.000599 1.061936
43  -0.315443 0.857300 0.755943  -0.678476 -2.468995 1.317854
44  0.000004 2.265939 -0.000000  -0.026878 0.060881 0.878739
45  -0.000001 1.457812 -0.000000  -0.051628 -0.019293 0.611810
46  1.259681 3.818376 1.286945  -0.295695 -0.170063 0.706217
47  1.226389 3.891695 0.090418  -0.174753 -0.151318 0.769501
48  1.231623 3.875534 -0.958680  -0.126560 -0.145246 0.899651
49  1.209919 3.994781 -2.003047  0.109629 -0.107225 0.495175
50  -0.328907 0.095430 1.403531  -0.678476 -2.468995 1.317854
51  -15.749393 -10.197397 21.638544  2.150410 0.017037 2.120861
52  -22.936350 -12.750121 13.091393  -1.570796 -0.000000 1.570796
53  -9.131826 -7.760099 -0.697288  -0.051945 0.000000 1.570796
54  -13.851862 -24.938120 -10.030344  0.829443 1.049056 -0.215432
55  0.000001 -0.000002 0.000002  -0.000000 0.000000 -0.000000
56  0.000001 -0.000002 0.000002  -0.000000 0.000000 -0.000000
time 17
0  0 0 0  0 0 0
1  0.000000 0.000000 0.000000  1.570796 -0.000000 0.000000
2  0.449198 -13.144855 -6.669335  0.407294 -0.163569 -1.527785
3  0.000001 13.479276 0.000000  1.422985 0.000000 -0.000000
4  0.000001 13.477240 0.000000  -0.260134 -0.069084 0.217988
5  -0.267270 3.664726 -1.953294  -0.104749 -0.032499 -0.200239
6  -0.000001 1.180356 -0.000000  -0.030819 -0.021138 -0.578262
7  0.000000 0.817136 -0.000001  0.008379 -0.009002 -0.393580
8  -0.249423 3.688542 -0.940889  -0.059727 -0.016923 -0.186735
9  -0.000001 1.800634 -0.000000  0.003762 0.003816 -0.602963
10  -0.000001 1.243404 -0.000001  0.006038 0.002470 -0.459089
11  -0.244727 3.701096 0.087732  0.004971 0.002507 -0.166081
12  -0.000000 1.766585 -0.000001  0.003594 -0.002428 -0.624836
13  0.000000 1.189001 0.000000  -0.015733 -0.008104 -0.517552
14  -0.277240 3.632249 1.274101  0.084545 0.014671 -0.062748
15  -0.000001 1.798494 -0.000001  0.032418 0.019538 -0.542501
16  0.000000 1.235451 0.000000  -0.006714 0.005285 -0.324901
17  0.315441 0.857300 0.755943  1.850468 0.824789 1.388088
18  -0.000001 2.265939 -0.000002  -0.089497 -0.043252 -0.855327
19  -0.000001 1.457812 0.000002  -0.043889 0.033344 -0.319809
20  -1.259682 3.818375 1.286945  0.084545 0.014671 -0.062748
21  -1.226391 3.891693 0.090419  0.004971 0.002507 -0.166080
22  -1.231623 3.875536 -0.958680  -0.059726 -0.016923 -0.186734
23  -1.209919 3.994781 -2.003048  -0.104750 -0.032499 -0.200239
24  0.328905 0.095428 1.403532  1.850468 0.824789 1.388088
25  9.230614 -9.773745 11.449514  1.611322 -0.354238 -1.658312
26  24.489557 -12.765261 -10.634670  -1.570796 -0.000000 -1.570796
27  0.449198 -13.144855 -6.669335  -0.051945 -0.000000 -1.570796
28  -9.291338 -7.617284 -1.427929  0.898834 -0.000599 1.946500
29  0.000001 13.479278 0.000001  0.929333 -0.000000 0.000000
30  -0.000001 13.477238 0.000002  0.298810 0.168236 -0.091482
31  0.267268 3.664727 -1.953291  0.109629 -0.107225 0.495175
32  -0.000001 1.180357 -0.000000  -0.029953 -0.007842 0.846531
33  -0.000001 0.817133 -0.000000  0.012285 -0.000556 1.260036
34  0.249422 3.688543 -0.940886  -0.126560 -0.145246 0.899651
35  -0.000000 1.800631 0.000000  -0.009643 -0.027168 1.400081
36  0.000001 1.243407 -0.000002  0.002452 -0.006045 1.256196
37  0.244725 3.701098 0.087734  -0.174753 -0.151318 0.769501
38  -0.000000 1.766585 -0.000001  0.009385 0.010267 1.319679
39  -0.000003 1.189002 0.000000  -0.006898 0.016298 1.212361
40  0.277238 3.632250 1.274105  -0.295695 -0.170063 0.706217
41  0.000001 1.798494 0.000000  0.035176 0.008609 1.280163
42  0.000001 1.235451 0.000002  -0.008523 0.000599 1.061936
43  -0.315443 0.857303 0.755945  -0.678476 -2.468995 1.317854
44  0.000004 2.265942 -0.000000  -0.026878 0.060881 0.878738
45  0.000000 1.457812 -0.000001  -0.051628 -0.019293 0.611810
46  1.259680 3.818374 1.286947  -0.295695 -0.170063 0.706217
47  1.226389 3.891693 0.090422  -0.174753 -0.151318 0.769501
48  1.231621 3.875535 -0.958678  -0.126560 -0.145246 0.899651
49  1.209917 3.994783 -2.003046  0.109629 -0.107225 0.495175
50  -0.328908 0.095428 1.403534  -0.678476 -2.468995 1.317854
51  -13.900749 -9.450598 22.153498  2.138739 0.043903 2.132604
52  -22.994493 -13.031816 13.271069  -1.570796 -0.000000 1.570796
53  -9.291338 -7.617284 -1.427929  -0.051945 0.000000 1.570796
54  -12.085697 -25.494358 -9.205751  0.803060 1.033358 -0.262291
55  0.000000 0.000000 0.000001  -0.000000 -0.000000 0.000000
56  0.000000 0.000000 0.000001  -0.000000 -0.000000 0.000000
time 18
0  0 0 0  0 0 0
1  0.000000 0.000000 0.000000  1.570796 -0.000000 0.000000
2  0.449198 -13.144855 -6.669335  0.583182 -0.182927 -1.524493
3  0.000000 13.479278 0.000000  1.179592 0.000000 -0.000000
4  -0.000002 13.477240 0.000002  -0.146641 -0.067325 0.168410
5  -0.267269 3.664727 -1.953293  -0.107252 -0.022884 -0.109908
6  0.000000 1.180355 0.000000  -0.032608 -0.018257 -0.487486
7  -0.000000 0.817134 0.000000  0.007528 -0.009725 -0.302774
8  -0.249422 3.688540 -0.940888  -0.061013 -0.011441 -0.096084
9  0.000001 1.800635 -0.000000  0.004093 0.003459 -0.512157
10  0.000001 1.243404 -0.000000  0.006237 0.001912 -0.368283
11  -0.244726 3.701095 0.087733  0.005178 0.002046 -0.075275
12  -0.000000 1.766585 0.000000  0.003359 -0.002744 -0.534030
13  0.000001 1.189004 -0.000000  -0.016403 -0.006644 -0.426755
14  -0.277239 3.632248 1.274102  0.086294 0.007186 0.027765
15  0.000001 1.798494 0.000001  0.034054 0.016519 -0.451769
16  -0.000001 1.235451 0.000000  -0.006207 0.005872 -0.234134
17  0.315442 0.857300 0.755945  1.830517 0.738872 1.349378
18  -0.000001 2.265940 -0.000000  -0.094584 -0.040589 -0.768996
19  -0.000000 1.457810 -0.000000  -0.040853 0.037002 -0.233524
20  -1.259680 3.818376 1.286946  0.086294 0.007186 0.027765
21  -1.226390 3.891694 0.090420  0.005178 0.002046 -0.075275
22  -1.231623 3.875533 -0.958680  -0.061013 -0.011441 -0.096084
23  -1.209918 3.994781 -2.003047  -0.107252 -0.022884 -0.109908
24  0.328906 0.095428 1.403533  1.830517 0.738872 1.349378
25  8.945675 -8.990423 13.637697  1.648457 -0.333901 -1.628352
26  24.489557 -12.765261 -10.634670  -1.570796 -0.000000 -1.570796
27  0.449198 -13.144855 -6.669335  -0.051945 -0.000000 -1.570796
28  -9.415109 -7.506469 -1.994854  1.035639 -0.004634 1.958203
29  -0.000000 13.479275 0.000000  0.808370 -0.000000 0.000000
30  -0.000000 13.477237 -0.000001  0.268976 0.153752 -0.120505
31  0.267269 3.664727 -1.953292  0.109629 -0.107225 0.495175
32  -0.000001 1.180355 -0.000000  -0.029953 -0.007842 0.846531
33  -0.000001 0.817134 0.000000  0.012285 -0.000556 1.260036
34  0.249422 3.688543 -0.940889  -0.126560 -0.145246 0.899651
35  -0.000000 1.800634 0.000001  -0.009643 -0.027168 1.400081
36  -0.000001 1.243406 0.000001  0.002452 -0.006045 1.256196
37  0.244727 3.701099 0.087733  -0.174753 -0.151318 0.769501
38  -0.000001 1.766582 0.000003  0.009385 0.010267 1.319679
39  0.000001 1.189004 0.000000  -0.006898 0.016298 1.212362
40  0.277240 3.632248 1.274102  -0.295695 -0.170063 0.706218
41  0.000001 1.798492 0.000003  0.035176 0.008609 1.280163
42  0.000002 1.235452 0.000000  -0.008523 0.000599 1.061936
43  -0.315441 0.857302 0.755944  -0.678476 -2.468995 1.317854
44  0.000000 2.265940 0.000002  -0.026878 0.060881 0.878738
45  0.000002 1.457811 0.000001  -0.051628 -0.019293 0.611810
46  1.259682 3.818377 1.286945  -0.295695 -0.170063 0.706217
47  1.226390 3.891695 0.090418  -0.174753 -0.151318 0.769501
48  1.231623 3.875536 -0.958681  -0.126560 -0.145246 0.899651
49  1.209919 3.994782 -2.003048  0.109629 -0.107225 0.495175
50  -0.328906 0.095430 1.403532  -0.678476 -2.468995 1.317854
51  -12.369738 -8.835023 22.576323  2.128082 0.068573 2.139132
52  -23.015259 -13.132422 13.334921  -1.570796 -0.000000 1.570796
53  -9.415109 -7.506469 -1.994854  -0.051945 0.000000 1.570796
54  -10.631207 -25.952436 -8.526674  0.778798 1.022278 -0.305260
55  0.000000 -0.000001 -0.000000  0.000000 0.000000 0.000000
56  0.000000 -0.000001 -0.000000  0.000000 0.000000 0.000000
time 19
0  0 0 0  0 0 0
1  0.000000 0.000000 0.000000  1.570796 -0.000000 0.000000
2  0.449198 -13.144855 -6.669335  0.731316 -0.192662 -1.522829
3  0.000000 13.479277 0.000000  0.951298 0.000000 -0.000000
4  -0.000001 13.477239 0.000002  -0.034505 -0.063754 0.134506
5  -0.267269 3.664726 -1.953293  -0.108452 -0.016250 -0.048636
6  0.000001 1.180357 -0.000001  -0.033670 -0.016214 -0.425893
7  0.000000 0.817134 0.000001  0.006915 -0.010170 -0.241156
8  -0.249423 3.688541 -0.940889  -0.061601 -0.007664 -0.034579
9  -0.000001 1.800633 0.000001  0.004298 0.003200 -0.450539
10  -0.000001 1.243408 -0.000001  0.006343 0.001525 -0.306666
11  -0.244726 3.701094 0.087732  0.005294 0.001723 -0.013657
12  -0.000000 1.766584 0.000001  0.003183 -0.002946 -0.472412
13  -0.000000 1.189004 0.000000  -0.016781 -0.005622 -0.365143
14  -0.277240 3.632246 1.274101  0.087222 0.002101 0.089182
15  -0.000000 1.798492 -0.000001  0.035006 0.014392 -0.390206
16  -0.000001 1.235454 -0.000002  -0.005834 0.006242 -0.172542
17  0.315440 0.857299 0.755943  1.821350 0.680670 1.325466
18  -0.000000 2.265939 -0.000000  -0.097895 -0.038537 -0.710428
19  -0.000001 1.457812 0.000000  -0.038618 0.039330 -0.174961
20  -1.259681 3.818374 1.286945  0.087222 0.002101 0.089182
21  -1.226390 3.891694 0.090418  0.005294 0.001723 -0.013657
22  -1.231622 3.875534 -0.958681  -0.061601 -0.007664 -0.034579
23  -1.209919 3.994782 -2.003049  -0.108452 -0.016250 -0.048636
24  0.328906 0.095429 1.403532  1.821350 0.680670 1.325466
25  8.762295 -8.452965 15.310646  1.673298 -0.318257 -1.605306
26  24.489557 -12.765261 -10.634670  -1.570796 -0.000000 -1.570796
27  0.449198 -13.144855 -6.669335  -0.051945 -0.000000 -1.570796
28  -9.495195 -7.434766 -2.361690  1.137803 -0.008444 1.960598
29  0.000000 13.479280 0.000002  0.702497 -0.000000 0.000000
30  -0.000000 13.477238 -0.000000  0.262385 0.148507 -0.141222
31  0.267269 3.664726 -1.953295  0.109629 -0.107225 0.495175
32  0.000001 1.180355 0.000003  -0.029953 -0.007842 0.846531
33  -0.000001 0.817134 0.000003  0.012285 -0.000556 1.260036
34  0.249422 3.688540 -0.940890  -0.126560 -0.145246 0.899651
35  -0.000001 1.800634 0.000001  -0.009643 -0.027168 1.400081
36  -0.000001 1.243406 0.000000  0.002452 -0.006045 1.256196
37  0.244726 3.701093 0.087731  -0.174753 -0.151318 0.769501
38  -0.000000 1.766583 0.000002  0.009385 0.010267 1.319679
39  -0.000003 1.189003 0.000000  -0.006898 0.016298 1.212361
40  0.277239 3.632247 1.274100  -0.295695 -0.170063 0.706217
41  -0.000000 1.798492 0.000002  0.035176 0.008609 1.280163
42  -0.000001 1.235451 -0.000002  -0.008523 0.000599 1.061936
43  -0.315441 0.857300 0.755941  -0.678476 -2.468995 1.317854
44  0.000000 2.265939 -0.000001  -0.026878 0.060881 0.878738
45  -0.000001 1.457806 0.000000  -0.051628 -0.019293 0.611810
46  1.259681 3.818374 1.286944  -0.295695 -0.170063 0.706217
47  1.226390 3.891694 0.090416  -0.174753 -0.151318 0.769501
48  1.231622 3.875533 -0.958683  -0.126560 -0.145246 0.899651
49  1.209918 3.994781 -2.003050  0.109629 -0.107225 0.495175
50  -0.328907 0.095427 1.403531  -0.678476 -2.468995 1.317854
51  -11.326576 -8.417425 22.863005  2.120322 0.086621 2.141951
52  -23.015259 -13.132422 13.334921  -1.570796 -0.000000 1.570796
53  -9.495195 -7.434766 -2.361690  -0.051945 0.000000 1.570796
54  -9.644234 -26.263277 -8.065873  0.760905 1.015554 -0.336748
55  0.000001 0.000001 -0.000000  -0.000000 -0.000000 -0.000000
56  0.000001 0.000001 -0.000000  -0.000000 -0.000000 -0.000000
time 20
0  0 0 0  0 0 0
1  0.000000 0.000000 0.000000  1.570796 -0.000000 0.000000
2  0.449198 -13.144855 -6.669335  0.797174 -0.195561 -1.522332
3  0.000000 13.479278 0.000000  0.843637 0.000000 -0.000000
4  -0.000000 13.477238 0.000001  0.019215 -0.061836 0.121832
5  -0.267270 3.664725 -1.953293  -0.108791 -0.013788 -0.026066
6  0.000001 1.180357 -0.000000  -0.034029 -0.015446 -0.403202
7  -0.000000 0.817138 -0.000000  0.006682 -0.010324 -0.218454
8  -0.249423 3.688541 -0.940888  -0.061758 -0.006265 -0.011920
9  -0.000001 1.800632 -0.000000  0.004369 0.003102 -0.427837
10  -0.000001 1.243406 -0.000000  0.006376 0.001380 -0.283965
11  -0.244727 3.701094 0.087732  0.005332 0.001603 0.009044
12  0.000001 1.766584 -0.000000  0.003116 -0.003017 -0.449710
13  -0.000000 1.189004 0.000001  -0.016905 -0.005239 -0.342445
14  -0.277240 3.632247 1.274102  0.087511 0.000230 0.111810
15  -0.000000 1.798493 0.000000  0.035323 0.013594 -0.367526
16  0.000001 1.235452 -0.000001  -0.005691 0.006373 -0.149850
17  0.315440 0.857299 0.755944  1.818756 0.659268 1.317010
18  0.000001 2.265939 -0.000000  -0.099084 -0.037733 -0.688853
19  -0.000001 1.457812 -0.000000  -0.037760 0.040154 -0.153383
20  -1.259682 3.818374 1.286946  0.087511 0.000230 0.111810
21  -1.226392 3.891692 0.090419  0.005332 0.001603 0.009044
22  -1.231623 3.875535 -0.958680  -0.061758 -0.006265 -0.011920
23  -1.209921 3.994780 -2.003048  -0.108791 -0.013788 -0.026065
24  0.328906 0.095428 1.403533  1.818756 0.659268 1.317010
25  8.697409 -8.253369 15.977400  1.682355 -0.311999 -1.596087
26  24.489557 -12.765261 -10.634670  -1.570796 -0.000000 -1.570796
27  0.449198 -13.144855 -6.669335  -0.051945 -0.000000 -1.570796
28  -9.523657 -7.409284 -2.492052  1.178104 -0.009833 1.961370
29  0.000001 13.479277 0.000001  0.657103 -0.000000 0.000000
30  0.000001 13.477240 0.000002  0.263555 0.146754 -0.148549
31  0.267269 3.664726 -1.953293  0.109629 -0.107225 0.495176
32  -0.000001 1.180354 0.000002  -0.029953 -0.007842 0.846531
33  0.000000 0.817135 -0.000001  0.012285 -0.000556 1.260036
34  0.249423 3.688543 -0.940889  -0.126560 -0.145246 0.899651
35  -0.000001 1.800630 -0.000002  -0.009643 -0.027168 1.400081
36  0.000000 1.243405 0.000001  0.002452 -0.006045 1.256197
37  0.244727 3.701096 0.087732  -0.174754 -0.151318 0.769502
38  0.000000 1.766585 0.000001  0.009385 0.010267 1.319679
39  0.000003 1.189004 -0.000001  -0.006898 0.016298 1.212361
40  0.277239 3.632248 1.274103  -0.295695 -0.170063 0.706218
41  -0.000001 1.798495 -0.000000  0.035176 0.008609 1.280163
42  -0.000001 1.235452 -0.000000  -0.008523 0.000599 1.061936
43  -0.315441 0.857302 0.755943  -0.678476 -2.468995 1.317854
44  0.000000 2.265940 -0.000001  -0.026878 0.060881 0.878738
45  0.000002 1.457815 -0.000001  -0.051628 -0.019293 0.611810
46  1.259682 3.818375 1.286945  -0.295695 -0.170063 0.706217
47  1.226390 3.891694 0.090419  -0.174753 -0.151318 0.769501
48  1.231622 3.875536 -0.958681  -0.126560 -0.145246 0.899651
49  1.209918 3.994783 -2.003049  0.109629 -0.107225 0.495175
50  -0.328906 0.095429 1.403532  -0.678476 -2.468995 1.317854
51  -10.941189 -8.263663 22.968529  2.117321 0.093620 2.142558
52  -23.015259 -13.132422 13.334921  -1.570796 -0.000000 1.570796
53  -9.523657 -7.409284 -2.492052  -0.051945 0.000000 1.570796
54  -9.280611 -26.377796 -7.896104  0.753846 1.013292 -0.349041
55  -0.000001 -0.000001 -0.000002  0.000000 -0.000000 -0.000000
56  -0.000001 -0.000001 -0.000002  0.000000 -0.000000 -0.000000
end
