version 1
nodes
0 "blender_implicit" -1
1 "root" -1
2 "upperarm_l" 1
3 "lowerarm_l" 2
4 "hand_l" 3
5 "pinky_0_l" 4
6 "pinky_1_l" 5
7 "pinky_2_l" 6
8 "ring_0_l" 4
9 "ring_1_l" 8
10 "ring_2_l" 9
11 "middle_0_l" 4
12 "middle_1_l" 11
13 "middle_2_l" 12
14 "index_0_l" 4
15 "index_1_l" 14
16 "index_2_l" 15
17 "thumb_0_l" 4
18 "thumb_1_l" 17
19 "thumb_2_l" 18
20 "rig_index_l" 4
21 "rig_middle_l" 4
22 "rig_ring_l" 4
23 "rig_pinky_l" 4
24 "rig_thumb_l" 4
25 "rig_hand_l" 1
26 "rig_l" 1
27 "rig_upperarm_l" 1
28 "upperarm_r" 1
29 "lowerarm_r" 28
30 "hand_r" 29
31 "pinky_0_r" 30
32 "pinky_1_r" 31
33 "pinky_2_r" 32
34 "ring_0_r" 30
35 "ring_1_r" 34
36 "ring_2_r" 35
37 "middle_0_r" 30
38 "middle_1_r" 37
39 "middle_2_r" 38
40 "index_0_r" 30
41 "index_1_r" 40
42 "index_2_r" 41
43 "thumb_0_r" 30
44 "thumb_1_r" 43
45 "thumb_2_r" 44
46 "rig_index_r" 30
47 "rig_middle_r" 30
48 "rig_ring_r" 30
49 "rig_pinky_r" 30
50 "rig_thumb_r" 30
51 "rig_hand_r" 1
52 "rig_r" 1
53 "rig_upperarm_r" 1
54 "weapon_bone_CONTROL" -1
55 "weapon_bone_parent" 54
56 "weapon_bone" 55
end
skeleton
time 0
0  0 0 0  0 0 0
1  0.000000 0.000000 0.000000  1.570796 -0.000000 0.000000
2  0.449198 -13.144855 -6.669335  0.490601 0.136172 -1.577608
3  0.000002 13.479276 0.000001  0.981177 0.000000 -0.000000
4  0.000001 13.477239 -0.000001  0.479910 -0.209447 0.728302
5  -0.267270 3.664726 -1.953294  -0.108790 -0.013788 -0.026065
6  -0.000001 1.180356 0.000001  -0.034029 -0.015446 -0.403202
7  0.000000 0.817134 0.000000  0.006682 -0.010324 -0.218454
8  -0.249423 3.688540 -0.940889  -0.061758 -0.006265 -0.011920
9  -0.000001 1.800633 -0.000001  0.004369 0.003102 -0.427837
10  0.000001 1.243406 0.000001  0.006376 0.001380 -0.283965
11  -0.244727 3.701096 0.087733  0.005332 0.001603 0.009044
12  -0.000001 1.766585 0.000000  0.003116 -0.003017 -0.449710
13  0.000000 1.189005 -0.000000  -0.016905 -0.005239 -0.342445
14  -0.277239 3.632247 1.274103  0.087512 0.000229 0.111810
15  -0.000002 1.798495 -0.000000  0.035324 0.013594 -0.367525
16  -0.000000 1.235451 0.000001  -0.005691 0.006373 -0.149850
17  0.315442 0.857299 0.755944  1.818756 0.659267 1.317010
18  -0.000000 2.265939 0.000000  -0.099084 -0.037733 -0.688853
19  0.000001 1.457811 0.000000  -0.037760 0.040153 -0.153383
20  -1.259681 3.818374 1.286946  0.087511 0.000230 0.111810
21  -1.226391 3.891693 0.090420  0.005332 0.001603 0.009044
22  -1.231623 3.875534 -0.958679  -0.061758 -0.006265 -0.011920
23  -1.209918 3.994781 -2.003048  -0.108790 -0.013788 -0.026066
24  0.328908 0.095428 1.403533  1.818756 0.659268 1.317010
25  13.652142 -15.917541 12.909437  2.074395 -0.598176 -1.750965
26  24.489557 -12.765261 -10.634670  -1.570796 -0.000000 -1.570796
27  0.449198 -13.144855 -6.669335  -0.051945 -0.000000 -1.570796
28  -9.523657 -7.409284 -2.492052  1.178104 -0.009833 1.961370
29  0.000001 13.479277 0.000001  0.657103 -0.000000 0.000000
30  0.000001 13.477240 0.000002  0.263555 0.146754 -0.148549
31  0.267269 3.664726 -1.953293  0.109629 -0.107225 0.495176
32  -0.000001 1.180354 0.000002  -0.029953 -0.007842 0.846531
33  0.000000 0.817135 -0.000001  0.012285 -0.000556 1.260036
34  0.249423 3.688543 -0.940889  -0.126560 -0.145246 0.899651
35  -0.000001 1.800630 -0.000002  -0.009643 -0.027168 1.400081
36  0.000000 1.243405 0.000001  0.002452 -0.006045 1.256197
37  0.244727 3.701096 0.087732  -0.174754 -0.151318 0.769502
38  0.000000 1.766585 0.000001  0.009385 0.010267 1.319679
39  0.000003 1.189004 -0.000001  -0.006898 0.016298 1.212361
40  0.277239 3.632248 1.274103  -0.295695 -0.170063 0.706218
41  -0.000001 1.798495 -0.000000  0.035176 0.008609 1.280163
42  -0.000001 1.235452 -0.000000  -0.008523 0.000599 1.061936
43  -0.315441 0.857302 0.755943  -0.678476 -2.468995 1.317854
44  0.000000 2.265940 -0.000001  -0.026878 0.060881 0.878738
45  0.000002 1.457815 -0.000001  -0.051628 -0.019293 0.611810
46  1.259682 3.818375 1.286945  -0.295695 -0.170063 0.706217
47  1.226390 3.891694 0.090419  -0.174753 -0.151318 0.769501
48  1.231622 3.875536 -0.958681  -0.126560 -0.145246 0.899651
49  1.209918 3.994783 -2.003049  0.109629 -0.107225 0.495175
50  -0.328906 0.095429 1.403532  -0.678476 -2.468995 1.317854
51  -10.941189 -8.263663 22.968529  2.117321 0.093620 2.142558
52  -23.015259 -13.132422 13.334921  -1.570796 -0.000000 1.570796
53  -9.523657 -7.409284 -2.492052  -0.051945 0.000000 1.570796
54  -9.280611 -26.377796 -7.896104  0.753846 1.013292 -0.349041
55  -0.000001 -0.000001 -0.000002  0.000000 -0.000000 -0.000000
56  -0.000001 -0.000001 -0.000002  0.000000 -0.000000 -0.000000
time 1
0  0 0 0  0 0 0
1  0.000000 0.000000 0.000000  1.570796 -0.000000 0.000000
2  0.449198 -13.144855 -6.669335  0.404134 0.149400 -1.579835
3  -0.000001 13.479279 0.000000  1.095043 0.000000 -0.000000
4  0.000000 13.477240 -0.000001  0.445175 -0.113766 0.722268
5  -0.267268 3.664726 -1.953292  -0.108790 -0.013788 -0.026065
6  0.000003 1.180356 0.000001  -0.034029 -0.015446 -0.403202
7  0.000000 0.817136 -0.000001  0.006682 -0.010324 -0.218454
8  -0.249421 3.688542 -0.940888  -0.061758 -0.006265 -0.011920
9  -0.000001 1.800631 0.000000  0.004369 0.003102 -0.427837
10  0.000001 1.243407 -0.000002  0.006376 0.001380 -0.283965
11  -0.244726 3.701097 0.087733  0.005331 0.001603 0.009044
12  0.000002 1.766585 -0.000000  0.003116 -0.003017 -0.449710
13  -0.000001 1.189005 -0.000000  -0.016905 -0.005239 -0.342445
14  -0.277239 3.632248 1.274102  0.087511 0.000230 0.111810
15  -0.000000 1.798494 0.000001  0.035323 0.013594 -0.367526
16  -0.000001 1.235450 -0.000001  -0.005691 0.006373 -0.149850
17  0.315442 0.857300 0.755943  1.818756 0.659268 1.317010
18  0.000001 2.265940 0.000003  -0.099084 -0.037733 -0.688853
19  0.000000 1.457811 0.000001  -0.037760 0.040153 -0.153383
20  -1.259681 3.818376 1.286946  0.087511 0.000230 0.111810
21  -1.226389 3.891693 0.090419  0.005331 0.001603 0.009044
22  -1.231621 3.875535 -0.958680  -0.061758 -0.006265 -0.011920
23  -1.209919 3.994781 -2.003048  -0.108790 -0.013788 -0.026066
24  0.328908 0.095428 1.403533  1.818756 0.659268 1.317010
25  13.780743 -16.055128 11.863887  2.005285 -0.576279 -1.658903
26  24.489557 -12.765261 -10.634670  -1.570796 -0.000000 -1.570796
27  0.449198 -13.144855 -6.669335  -0.051945 -0.000000 -1.570796
28  -9.523657 -7.409284 -2.492052  0.935116 0.083769 1.979013
29  0.000000 13.479277 -0.000001  1.110510 -0.000000 0.000000
30  0.000000 13.477238 0.000002  -0.346863 0.071102 0.018151
31  0.267270 3.664727 -1.953292  0.109629 -0.107225 0.495175
32  0.000000 1.180354 0.000000  -0.029953 -0.007842 0.846531
33  0.000002 0.817135 -0.000001  0.012285 -0.000556 1.260036
34  0.249423 3.688544 -0.940887  -0.126560 -0.145246 0.899651
35  0.000003 1.800633 -0.000002  -0.009643 -0.027168 1.400081
36  0.000002 1.243406 -0.000001  0.002452 -0.006045 1.256196
37  0.244727 3.701097 0.087733  -0.174753 -0.151318 0.769501
38  -0.000002 1.766584 0.000000  0.009385 0.010267 1.319679
39  0.000000 1.189005 -0.000001  -0.006898 0.016298 1.212361
40  0.277240 3.632248 1.274102  -0.295695 -0.170063 0.706217
41  0.000001 1.798493 0.000001  0.035176 0.008609 1.280163
42  -0.000001 1.235450 -0.000000  -0.008523 0.000599 1.061936
43  -0.315441 0.857302 0.755944  -0.678476 -2.468995 1.317854
44  0.000004 2.265939 0.000000  -0.026878 0.060881 0.878738
45  0.000000 1.457810 -0.000000  -0.051628 -0.019293 0.611810
46  1.259682 3.818374 1.286946  -0.295695 -0.170063 0.706217
47  1.226391 3.891693 0.090421  -0.174753 -0.151318 0.769501
48  1.231623 3.875535 -0.958679  -0.126560 -0.145246 0.899651
49  1.209920 3.994783 -2.003047  0.109629 -0.107225 0.495175
50  -0.328906 0.095429 1.403534  -0.678476 -2.468995 1.317854
51  -11.972156 -6.386936 20.259243  1.701383 0.035043 2.033980
52  -25.110054 -12.821565 12.035620  -1.570796 -0.000000 1.570796
53  -9.523657 -7.409284 -2.492052  -0.051945 0.000000 1.570796
54  -11.527173 -23.987822 -7.031466  1.231883 1.169499 -0.256215
55  -0.000000 -0.000001 -0.000002  0.000000 -0.000000 -0.000000
56  -0.000000 -0.000001 -0.000002  0.000000 -0.000000 -0.000000
time 2
0  0 0 0  0 0 0
1  0.000000 0.000000 0.000000  1.570796 -0.000000 0.000000
2  0.449198 -13.144855 -6.669335  0.227751 0.183403 -1.585604
3  0.000001 13.479277 0.000000  1.303743 0.000000 -0.000000
4  -0.000000 13.477239 -0.000000  0.369455 0.086185 0.713336
5  -0.267270 3.664726 -1.953293  -0.108791 -0.013788 -0.026065
6  -0.000002 1.180355 -0.000001  -0.034029 -0.015446 -0.403202
7  -0.000002 0.817136 0.000000  0.006682 -0.010324 -0.218454
8  -0.249424 3.688541 -0.940890  -0.061758 -0.006265 -0.011920
9  0.000002 1.800634 0.000001  0.004369 0.003102 -0.427837
10  -0.000002 1.243406 -0.000000  0.006376 0.001380 -0.283965
11  -0.244727 3.701095 0.087732  0.005331 0.001603 0.009044
12  0.000001 1.766584 0.000000  0.003116 -0.003018 -0.449710
13  0.000002 1.189004 -0.000001  -0.016905 -0.005239 -0.342445
14  -0.277240 3.632247 1.274101  0.087511 0.000230 0.111810
15  -0.000002 1.798494 0.000000  0.035324 0.013594 -0.367526
16  -0.000000 1.235452 -0.000000  -0.005691 0.006373 -0.149850
17  0.315440 0.857300 0.755943  1.818756 0.659267 1.317010
18  -0.000001 2.265939 0.000001  -0.099084 -0.037733 -0.688853
19  0.000001 1.457812 0.000000  -0.037760 0.040154 -0.153383
20  -1.259682 3.818375 1.286945  0.087511 0.000230 0.111810
21  -1.226391 3.891693 0.090419  0.005332 0.001603 0.009044
22  -1.231624 3.875533 -0.958681  -0.061758 -0.006265 -0.011920
23  -1.209921 3.994781 -2.003049  -0.108790 -0.013788 -0.026065
24  0.328905 0.095428 1.403532  1.818756 0.659268 1.317010
25  14.063665 -16.357822 9.563675  1.845487 -0.523343 -1.456367
26  24.489557 -12.765261 -10.634670  -1.570796 -0.000000 -1.570796
27  0.449198 -13.144855 -6.669335  -0.051945 -0.000000 -1.570796
28  -9.523657 -7.409284 -2.492052  0.719801 0.238854 1.929966
29  -0.000000 13.479275 0.000000  1.458438 -0.000000 0.000000
30  0.000000 13.477240 -0.000001  -1.236854 0.051978 0.312363
31  0.267270 3.664724 -1.953292  0.109629 -0.107225 0.495176
32  0.000000 1.180357 -0.000000  -0.029953 -0.007842 0.846531
33  0.000003 0.817136 0.000000  0.012285 -0.000556 1.260036
34  0.249423 3.688540 -0.940889  -0.126560 -0.145246 0.899651
35  -0.000001 1.800633 0.000001  -0.009643 -0.027168 1.400081
36  0.000003 1.243405 0.000001  0.002452 -0.006045 1.256196
37  0.244726 3.701093 0.087734  -0.174753 -0.151318 0.769501
38  -0.000002 1.766583 -0.000000  0.009385 0.010267 1.319679
39  -0.000001 1.189004 0.000001  -0.006898 0.016298 1.212361
40  0.277239 3.632246 1.274101  -0.295695 -0.170063 0.706218
41  0.000000 1.798494 0.000002  0.035176 0.008609 1.280163
42  0.000002 1.235451 -0.000001  -0.008523 0.000599 1.061936
43  -0.315441 0.857299 0.755944  -0.678476 -2.468995 1.317854
44  0.000001 2.265941 0.000001  -0.026878 0.060881 0.878738
45  -0.000001 1.457809 -0.000000  -0.051628 -0.019293 0.611810
46  1.259681 3.818373 1.286946  -0.295695 -0.170063 0.706217
47  1.226391 3.891691 0.090420  -0.174753 -0.151318 0.769501
48  1.231623 3.875533 -0.958680  -0.126560 -0.145246 0.899651
49  1.209919 3.994780 -2.003048  0.109629 -0.107225 0.495175
50  -0.328906 0.095427 1.403533  -0.678476 -2.468995 1.317854
51  -13.470221 -3.849278 16.891941  0.920425 -0.048834 1.796911
52  -29.000389 -11.570901 9.622633  -1.570796 -0.000000 1.570796
53  -9.523657 -7.409284 -2.492052  -0.051945 0.000000 1.570796
54  -15.699360 -19.549295 -5.425711  2.638792 1.431124 0.402816
55  0.000000 -0.000000 0.000001  -0.000000 -0.000000 0.000000
56  0.000000 -0.000000 0.000001  -0.000000 -0.000000 0.000000
time 3
0  0 0 0  0 0 0
1  0.000000 0.000000 0.000000  1.570796 -0.000000 0.000000
2  0.449198 -13.144855 -6.669335  0.061731 0.226209 -1.592974
3  0.000001 13.479277 0.000001  1.470520 0.000000 -0.000000
4  -0.000001 13.477239 0.000000  0.280821 0.277724 0.717109
5  -0.267269 3.664726 -1.953293  -0.108790 -0.013788 -0.026065
6  0.000001 1.180355 -0.000001  -0.034029 -0.015446 -0.403202
7  -0.000001 0.817136 -0.000000  0.006682 -0.010324 -0.218454
8  -0.249421 3.688542 -0.940888  -0.061758 -0.006265 -0.011920
9  0.000000 1.800632 0.000002  0.004369 0.003102 -0.427837
10  -0.000000 1.243405 0.000002  0.006376 0.001380 -0.283965
11  -0.244726 3.701095 0.087733  0.005332 0.001603 0.009044
12  0.000002 1.766583 0.000001  0.003116 -0.003017 -0.449710
13  0.000001 1.189004 -0.000000  -0.016905 -0.005239 -0.342445
14  -0.277238 3.632248 1.274102  0.087511 0.000230 0.111810
15  0.000002 1.798496 0.000002  0.035323 0.013594 -0.367526
16  -0.000002 1.235451 0.000001  -0.005691 0.006373 -0.149850
17  0.315442 0.857300 0.755943  1.818756 0.659268 1.317010
18  0.000000 2.265939 0.000000  -0.099084 -0.037732 -0.688853
19  0.000001 1.457811 -0.000002  -0.037760 0.040153 -0.153383
20  -1.259681 3.818375 1.286945  0.087511 0.000230 0.111810
21  -1.226390 3.891693 0.090419  0.005332 0.001603 0.009044
22  -1.231622 3.875535 -0.958681  -0.061758 -0.006265 -0.011920
23  -1.209918 3.994781 -2.003048  -0.108791 -0.013788 -0.026065
24  0.328906 0.095430 1.403532  1.818756 0.659268 1.317010
25  14.346586 -16.660513 7.263463  1.666295 -0.458498 -1.253831
26  24.489557 -12.765261 -10.634670  -1.570796 -0.000000 -1.570796
27  0.449198 -13.144855 -6.669335  -0.051945 -0.000000 -1.570796
28  -9.523657 -7.409284 -2.492052  0.591774 0.272051 1.779934
29  0.000000 13.479275 -0.000001  1.530094 -0.000000 0.000000
30  0.000000 13.477241 0.000001  -1.595361 0.072408 0.381491
31  0.267270 3.664728 -1.953292  0.109629 -0.107225 0.495175
32  -0.000001 1.180355 0.000002  -0.029953 -0.007842 0.846531
33  0.000000 0.817135 -0.000000  0.012285 -0.000556 1.260037
34  0.249423 3.688543 -0.940889  -0.126560 -0.145246 0.899651
35  -0.000002 1.800632 -0.000002  -0.009643 -0.027168 1.400081
36  0.000002 1.243405 -0.000003  0.002452 -0.006045 1.256196
37  0.244726 3.701097 0.087732  -0.174753 -0.151318 0.769501
38  0.000002 1.766586 -0.000001  0.009385 0.010267 1.319679
39  -0.000002 1.189004 0.000001  -0.006898 0.016298 1.212361
40  0.277239 3.632250 1.274102  -0.295695 -0.170063 0.706217
41  -0.000001 1.798495 0.000001  0.035176 0.008609 1.280163
42  -0.000002 1.235453 0.000000  -0.008523 0.000599 1.061936
43  -0.315441 0.857301 0.755943  -0.678476 -2.468995 1.317854
44  -0.000000 2.265938 -0.000000  -0.026878 0.060881 0.878738
45  0.000002 1.457811 -0.000001  -0.051628 -0.019293 0.611810
46  1.259681 3.818376 1.286946  -0.295695 -0.170063 0.706217
47  1.226390 3.891695 0.090419  -0.174753 -0.151318 0.769501
48  1.231623 3.875536 -0.958680  -0.126560 -0.145246 0.899651
49  1.209919 3.994784 -2.003048  0.109629 -0.107225 0.495175
50  -0.328906 0.095428 1.403532  -0.678476 -2.468995 1.317854
51  -14.624164 -3.272455 15.809831  0.500314 -0.092606 1.646171
52  -31.095184 -8.903296 8.323332  -1.570796 -0.000000 1.570796
53  -9.523657 -7.409284 -2.492052  -0.051945 0.000000 1.570796
54  -17.945921 -17.159319 -4.561074  1.170161 1.708696 -1.485285
55  0.000000 -0.000001 0.000001  0.000000 0.000000 0.000000
56  0.000000 -0.000001 0.000001  0.000000 0.000000 0.000000
time 4
0  0 0 0  0 0 0
1  0.000000 0.000000 0.000000  1.570796 -0.000000 0.000000
2  0.449198 -13.144855 -6.669335  -0.012051 0.249505 -1.597045
3  -0.000001 13.479277 0.000000  1.535408 0.000000 -0.000000
4  0.000002 13.477239 -0.000001  0.187039 0.368361 0.701461
5  -0.267271 3.664727 -1.953292  -0.108790 -0.013788 -0.026065
6  0.000000 1.180355 0.000001  -0.034029 -0.015446 -0.403203
7  -0.000001 0.817135 -0.000000  0.006682 -0.010324 -0.218454
8  -0.249425 3.688542 -0.940888  -0.061758 -0.006265 -0.011920
9  0.000001 1.800634 0.000000  0.004369 0.003102 -0.427837
10  -0.000001 1.243406 0.000001  0.006376 0.001380 -0.283965
11  -0.244729 3.701097 0.087734  0.005332 0.001603 0.009044
12  0.000001 1.766584 0.000000  0.003116 -0.003018 -0.449710
13  -0.000001 1.189006 0.000001  -0.016905 -0.005239 -0.342445
14  -0.277242 3.632250 1.274104  0.087511 0.000230 0.111810
15  -0.000001 1.798495 -0.000000  0.035323 0.013594 -0.367526
16  0.000001 1.235451 -0.000000  -0.005691 0.006373 -0.149850
17  0.315438 0.857302 0.755945  1.818756 0.659268 1.317010
18  -0.000000 2.265941 -0.000000  -0.099084 -0.037733 -0.688853
19  -0.000001 1.457811 -0.000001  -0.037760 0.040154 -0.153383
20  -1.259681 3.818375 1.286947  0.087511 0.000230 0.111810
21  -1.226392 3.891695 0.090420  0.005332 0.001603 0.009044
22  -1.231624 3.875535 -0.958679  -0.061758 -0.006265 -0.011920
23  -1.209921 3.994783 -2.003047  -0.108790 -0.013788 -0.026065
24  0.328904 0.095429 1.403534  1.818756 0.659268 1.317010
25  14.475187 -16.798100 6.217914  1.539006 -0.400878 -1.161769
26  24.489557 -12.765261 -10.634670  -1.570796 -0.000000 -1.570796
27  0.449198 -13.144855 -6.669335  -0.051945 -0.000000 -1.570796
28  -8.680380 -7.909284 1.713233  0.860540 0.188682 1.539562
29  -0.000001 13.479277 -0.000001  1.235444 -0.000000 0.000000
30  -0.000000 13.477239 -0.000002  -1.589104 0.204063 0.011305
31  0.267270 3.664728 -1.953293  0.109629 -0.107225 0.495175
32  0.000001 1.180358 0.000001  -0.029953 -0.007842 0.846531
33  -0.000003 0.817135 0.000001  0.012285 -0.000556 1.260036
34  0.249423 3.688543 -0.940889  -0.126560 -0.145246 0.899651
35  -0.000000 1.800634 0.000001  -0.009643 -0.027168 1.400081
36  0.000001 1.243405 -0.000002  0.002452 -0.006045 1.256196
37  0.244727 3.701097 0.087733  -0.174753 -0.151318 0.769501
38  -0.000001 1.766586 -0.000001  0.009385 0.010267 1.319679
39  0.000001 1.189006 -0.000001  -0.006898 0.016298 1.212362
40  0.277240 3.632250 1.274103  -0.295695 -0.170063 0.706217
41  -0.000001 1.798496 -0.000001  0.035176 0.008609 1.280163
42  0.000000 1.235452 0.000001  -0.008523 0.000599 1.061936
43  -0.315440 0.857300 0.755943  -0.678476 -2.468995 1.317854
44  0.000001 2.265940 -0.000000  -0.026878 0.060881 0.878738
45  0.000000 1.457810 -0.000001  -0.051628 -0.019293 0.611810
46  1.259682 3.818378 1.286946  -0.295695 -0.170063 0.706217
47  1.226391 3.891695 0.090419  -0.174753 -0.151318 0.769501
48  1.231623 3.875535 -0.958680  -0.126560 -0.145246 0.899651
49  1.209920 3.994784 -2.003047  0.109629 -0.107225 0.495175
50  -0.328906 0.095430 1.403533  -0.678476 -2.468995 1.317854
51  -10.583054 -3.744015 23.204426  0.528265 0.074522 1.710656
52  -21.590742 -6.230867 8.387184  -1.570796 -0.000000 1.570796
53  -8.680380 -7.909284 1.713233  -0.051945 0.000000 1.570796
54  -13.808002 -24.801708 -4.994660  2.098267 1.509835 -0.543905
55  -0.000000 -0.000002 0.000000  0.000000 -0.000000 -0.000000
56  -0.000000 -0.000002 0.000000  0.000000 -0.000000 -0.000000
time 5
0  0 0 0  0 0 0
1  0.000000 0.000000 0.000000  1.570796 -0.000000 0.000000
2  0.449198 -13.144855 -6.669335  -0.012706 0.247611 -1.596712
3  0.000000 13.479278 0.000000  1.541013 0.000000 -0.000000
4  0.000001 13.477238 -0.000001  0.099837 0.379451 0.654691
5  -0.267269 3.664728 -1.953293  -0.108790 -0.013788 -0.026065
6  -0.000000 1.180353 0.000000  -0.034029 -0.015446 -0.403203
7  -0.000001 0.817136 -0.000001  0.006682 -0.010324 -0.218454
8  -0.249422 3.688542 -0.940888  -0.061758 -0.006265 -0.011920
9  0.000001 1.800634 0.000001  0.004369 0.003102 -0.427837
10  -0.000000 1.243405 0.000002  0.006376 0.001380 -0.283965
11  -0.244725 3.701096 0.087733  0.005332 0.001603 0.009044
12  -0.000000 1.766584 0.000001  0.003116 -0.003017 -0.449710
13  -0.000000 1.189004 -0.000002  -0.016905 -0.005239 -0.342445
14  -0.277238 3.632249 1.274102  0.087511 0.000229 0.111810
15  0.000001 1.798492 -0.000000  0.035323 0.013594 -0.367525
16  -0.000000 1.235452 -0.000001  -0.005691 0.006373 -0.149850
17  0.315443 0.857300 0.755944  1.818756 0.659268 1.317010
18  -0.000000 2.265939 0.000000  -0.099084 -0.037733 -0.688853
19  0.000000 1.457812 0.000000  -0.037760 0.040153 -0.153383
20  -1.259681 3.818376 1.286946  0.087511 0.000229 0.111810
21  -1.226389 3.891694 0.090419  0.005331 0.001603 0.009044
22  -1.231623 3.875535 -0.958680  -0.061758 -0.006265 -0.011920
23  -1.209918 3.994782 -2.003047  -0.108791 -0.013788 -0.026065
24  0.328907 0.095429 1.403532  1.818756 0.659268 1.317010
25  14.410299 -16.765850 6.218399  1.471988 -0.359726 -1.162109
26  24.489557 -12.765261 -10.634670  -1.570796 -0.000000 -1.570796
27  0.449198 -13.144855 -6.669335  -0.051945 -0.000000 -1.570796
28  -7.837104 -8.409285 5.918519  1.356517 0.187316 1.457121
29  -0.000001 13.479277 0.000001  0.727210 -0.000000 0.000000
30  -0.000000 13.477241 -0.000002  -1.554655 0.272840 -0.229535
31  0.267269 3.664724 -1.953292  0.109629 -0.107225 0.495175
32  0.000001 1.180359 0.000001  -0.029953 -0.007842 0.846531
33  -0.000001 0.817134 0.000001  0.012285 -0.000556 1.260036
34  0.249422 3.688540 -0.940885  -0.126560 -0.145246 0.899651
35  -0.000000 1.800634 0.000001  -0.009643 -0.027168 1.400081
36  0.000000 1.243404 0.000003  0.002452 -0.006045 1.256196
37  0.244727 3.701095 0.087735  -0.174753 -0.151318 0.769501
38  0.000000 1.766585 0.000001  0.009385 0.010267 1.319679
39  0.000000 1.189005 -0.000000  -0.006898 0.016298 1.212362
40  0.277239 3.632248 1.274106  -0.295695 -0.170063 0.706218
41  0.000001 1.798496 0.000001  0.035176 0.008609 1.280163
42  -0.000002 1.235450 0.000003  -0.008523 0.000599 1.061936
43  -0.315442 0.857299 0.755944  -0.678476 -2.468995 1.317854
44  0.000000 2.265938 -0.000002  -0.026878 0.060881 0.878738
45  0.000003 1.457814 -0.000001  -0.051628 -0.019293 0.611810
46  1.259682 3.818371 1.286946  -0.295695 -0.170063 0.706217
47  1.226391 3.891692 0.090422  -0.174753 -0.151318 0.769501
48  1.231624 3.875533 -0.958678  -0.126560 -0.145246 0.899651
49  1.209919 3.994779 -2.003047  0.109629 -0.107225 0.495175
50  -0.328906 0.095427 1.403533  -0.678476 -2.468995 1.317854
51  -3.587837 -4.224952 30.395536  0.636800 0.234419 1.816763
52  -21.611507 -6.331473 8.566858  -1.570796 -0.000000 1.570796
53  -7.837104 -8.409285 5.918519  -0.051945 0.000000 1.570796
54  -6.566295 -32.444096 -5.428247  1.634376 1.319651 -0.929353
55  -0.000001 -0.000000 -0.000002  0.000000 -0.000000 0.000000
56  -0.000001 -0.000000 -0.000002  0.000000 -0.000000 0.000000
time 6
0  0 0 0  0 0 0
1  0.000000 0.000000 0.000000  1.570796 -0.000000 0.000000
2  0.449198 -13.144855 -6.669335  -0.014408 0.241608 -1.595660
3  0.000001 13.479277 0.000001  1.556737 0.000000 -0.000000
4  0.000000 13.477239 -0.000001  0.026617 0.390202 0.612255
5  -0.267268 3.664725 -1.953292  -0.108791 -0.013788 -0.026066
6  0.000001 1.180354 0.000000  -0.034029 -0.015446 -0.403202
7  0.000003 0.817136 -0.000000  0.006682 -0.010324 -0.218454
8  -0.249421 3.688542 -0.940890  -0.061758 -0.006265 -0.011920
9  -0.000000 1.800633 0.000000  0.004369 0.003102 -0.427837
10  0.000000 1.243406 0.000001  0.006376 0.001380 -0.283965
11  -0.244725 3.701095 0.087734  0.005331 0.001603 0.009044
12  -0.000001 1.766585 -0.000000  0.003116 -0.003017 -0.449710
13  0.000000 1.189004 -0.000001  -0.016905 -0.005239 -0.342445
14  -0.277237 3.632248 1.274103  0.087511 0.000230 0.111810
15  -0.000001 1.798494 0.000001  0.035323 0.013594 -0.367526
16  -0.000001 1.235451 -0.000000  -0.005691 0.006373 -0.149850
17  0.315443 0.857300 0.755943  1.818756 0.659268 1.317010
18  -0.000000 2.265939 0.000001  -0.099084 -0.037733 -0.688853
19  -0.000001 1.457811 0.000001  -0.037760 0.040154 -0.153383
20  -1.259680 3.818374 1.286946  0.087511 0.000230 0.111810
21  -1.226388 3.891693 0.090419  0.005332 0.001603 0.009044
22  -1.231622 3.875533 -0.958679  -0.061758 -0.006265 -0.011920
23  -1.209916 3.994781 -2.003048  -0.108790 -0.013788 -0.026065
24  0.328909 0.095428 1.403533  1.818756 0.659268 1.317010
25  14.226923 -16.665127 6.221796  1.423967 -0.330240 -1.164491
26  24.489557 -12.765261 -10.634670  -1.570796 -0.000000 -1.570796
27  0.449198 -13.144855 -6.669335  -0.051945 -0.000000 -1.570796
28  -7.858592 -8.396544 5.811362  1.499513 0.209483 1.488704
29  -0.000001 13.479275 0.000000  0.723658 -0.000000 0.000000
30  0.000001 13.477236 -0.000002  -1.364988 0.339191 -0.173588
31  0.267270 3.664727 -1.953292  0.109630 -0.107225 0.495175
32  0.000001 1.180356 -0.000000  -0.029953 -0.007842 0.846531
33  -0.000001 0.817135 -0.000000  0.012285 -0.000556 1.260036
34  0.249423 3.688542 -0.940889  -0.126560 -0.145246 0.899651
35  -0.000001 1.800634 -0.000002  -0.009643 -0.027168 1.400081
36  -0.000002 1.243410 -0.000001  0.002452 -0.006045 1.256196
37  0.244727 3.701097 0.087734  -0.174753 -0.151318 0.769501
38  0.000000 1.766585 0.000000  0.009385 0.010267 1.319679
39  -0.000000 1.189003 0.000000  -0.006898 0.016298 1.212361
40  0.277239 3.632248 1.274103  -0.295695 -0.170063 0.706217
41  0.000002 1.798496 0.000001  0.035176 0.008609 1.280163
42  0.000002 1.235450 0.000003  -0.008523 0.000599 1.061936
43  -0.315441 0.857299 0.755943  -0.678476 -2.468995 1.317854
44  0.000000 2.265942 0.000001  -0.026878 0.060881 0.878738
45  0.000001 1.457816 0.000002  -0.051628 -0.019293 0.611810
46  1.259681 3.818376 1.286945  -0.295695 -0.170063 0.706217
47  1.226391 3.891694 0.090420  -0.174753 -0.151318 0.769501
48  1.231623 3.875535 -0.958680  -0.126560 -0.145246 0.899651
49  1.209919 3.994783 -2.003048  0.109629 -0.107225 0.495175
50  -0.328906 0.095429 1.403532  -0.678476 -2.468995 1.317854
51  -0.249722 -3.982729 29.437080  0.950669 0.122491 1.863431
52  -21.669651 -6.613170 8.844538  -1.570796 -0.000000 1.570796
53  -7.858592 -8.396544 5.811362  -0.051945 0.000000 1.570796
54  -2.427444 -32.306824 -5.222813  1.684197 1.343291 -0.553530
55  0.000001 0.000002 0.000000  -0.000000 0.000000 -0.000000
56  0.000001 0.000002 0.000000  -0.000000 0.000000 -0.000000
time 7
0  0 0 0  0 0 0
1  0.000000 0.000000 0.000000  1.570796 -0.000000 0.000000
2  0.449198 -13.144855 -6.669335  -0.016587 0.230977 -1.593803
3  0.000002 13.479276 0.000000  1.580751 0.000000 -0.000000
4  -0.000000 13.477239 0.000000  -0.036338 0.397853 0.571647
5  -0.267269 3.664727 -1.953295  -0.108791 -0.013788 -0.026065
6  -0.000003 1.180355 0.000002  -0.034029 -0.015446 -0.403202
7  -0.000001 0.817136 0.000000  0.006682 -0.010324 -0.218454
8  -0.249422 3.688542 -0.940890  -0.061758 -0.006265 -0.011920
9  -0.000000 1.800632 0.000001  0.004369 0.003102 -0.427837
10  -0.000002 1.243405 -0.000000  0.006376 0.001380 -0.283965
11  -0.244726 3.701096 0.087731  0.005331 0.001603 0.009044
12  0.000000 1.766585 0.000000  0.003116 -0.003017 -0.449710
13  0.000001 1.189002 0.000000  -0.016905 -0.005239 -0.342445
14  -0.277239 3.632250 1.274101  0.087511 0.000230 0.111810
15  -0.000002 1.798496 -0.000001  0.035323 0.013594 -0.367526
16  -0.000002 1.235451 -0.000000  -0.005691 0.006373 -0.149850
17  0.315442 0.857300 0.755942  1.818756 0.659268 1.317010
18  0.000000 2.265940 -0.000002  -0.099084 -0.037733 -0.688853
19  0.000001 1.457811 0.000001  -0.037760 0.040154 -0.153383
20  -1.259681 3.818375 1.286944  0.087511 0.000230 0.111810
21  -1.226389 3.891695 0.090418  0.005332 0.001603 0.009044
22  -1.231622 3.875534 -0.958681  -0.061758 -0.006265 -0.011920
23  -1.209918 3.994782 -2.003048  -0.108791 -0.013788 -0.026065
24  0.328907 0.095429 1.403531  1.818756 0.659268 1.317010
25  13.941984 -16.489967 6.231017  1.391778 -0.310474 -1.170956
26  24.489557 -12.765261 -10.634670  -1.570796 -0.000000 -1.570796
27  0.449198 -13.144855 -6.669335  -0.051945 -0.000000 -1.570796
28  -7.919058 -8.360691 5.509828  1.438568 0.216587 1.534549
29  0.000000 13.479275 -0.000000  0.881493 -0.000000 0.000000
30  0.000001 13.477239 -0.000002  -1.079842 0.407780 -0.053444
31  0.267270 3.664727 -1.953293  0.109629 -0.107225 0.495175
32  0.000005 1.180354 -0.000000  -0.029953 -0.007842 0.846531
33  0.000002 0.817136 -0.000001  0.012285 -0.000556 1.260036
34  0.249422 3.688543 -0.940889  -0.126560 -0.145246 0.899651
35  -0.000002 1.800632 -0.000000  -0.009643 -0.027168 1.400081
36  -0.000003 1.243406 0.000000  0.002452 -0.006045 1.256196
37  0.244726 3.701096 0.087733  -0.174753 -0.151318 0.769501
38  0.000000 1.766586 0.000002  0.009385 0.010267 1.319679
39  0.000000 1.189005 -0.000000  -0.006898 0.016298 1.212362
40  0.277239 3.632251 1.274103  -0.295695 -0.170063 0.706217
41  -0.000001 1.798493 0.000000  0.035176 0.008609 1.280163
42  -0.000001 1.235453 -0.000001  -0.008523 0.000599 1.061936
43  -0.315441 0.857301 0.755944  -0.678476 -2.468995 1.317854
44  -0.000000 2.265940 -0.000000  -0.026878 0.060881 0.878738
45  0.000000 1.457813 0.000001  -0.051628 -0.019293 0.611810
46  1.259681 3.818375 1.286946  -0.295695 -0.170063 0.706217
47  1.226391 3.891694 0.090419  -0.174753 -0.151318 0.769501
48  1.231623 3.875536 -0.958679  -0.126560 -0.145246 0.899651
49  1.209920 3.994782 -2.003048  0.109629 -0.107225 0.495175
50  -0.328906 0.095427 1.403533  -0.678476 -2.468995 1.317854
51  -0.341037 -3.640361 28.196129  1.282232 -0.031739 1.864429
52  -21.758942 -7.045774 9.202402  -1.570796 -0.000000 1.570796
53  -7.919058 -8.360691 5.509828  -0.051945 0.000000 1.570796
54  -1.392383 -31.589390 -5.017379  1.894928 1.370304 0.014089
55  -0.000000 -0.000001 -0.000001  -0.000000 0.000000 0.000000
56  -0.000000 -0.000001 -0.000001  -0.000000 0.000000 0.000000
time 8
0  0 0 0  0 0 0
1  0.000000 0.000000 0.000000  1.570796 -0.000000 0.000000
2  0.449198 -13.144855 -6.669335  -0.018509 0.215149 -1.591057
3  0.000002 13.479277 0.000000  1.611053 0.000000 -0.000000
4  0.000000 13.477239 -0.000001  -0.092541 0.399582 0.530727
5  -0.267270 3.664726 -1.953291  -0.108791 -0.013788 -0.026065
6  -0.000001 1.180354 0.000000  -0.034029 -0.015446 -0.403202
7  0.000000 0.817134 -0.000000  0.006682 -0.010324 -0.218454
8  -0.249421 3.688542 -0.940887  -0.061758 -0.006265 -0.011920
9  0.000000 1.800633 0.000000  0.004369 0.003102 -0.427837
10  0.000000 1.243405 0.000001  0.006376 0.001380 -0.283965
11  -0.244726 3.701096 0.087734  0.005332 0.001603 0.009044
12  0.000000 1.766585 -0.000001  0.003116 -0.003017 -0.449710
13  -0.000002 1.189003 -0.000001  -0.016905 -0.005239 -0.342445
14  -0.277239 3.632248 1.274103  0.087511 0.000229 0.111810
15  0.000000 1.798495 -0.000001  0.035323 0.013594 -0.367526
16  -0.000001 1.235451 -0.000001  -0.005691 0.006373 -0.149850
17  0.315443 0.857299 0.755944  1.818756 0.659268 1.317010
18  -0.000001 2.265939 0.000000  -0.099084 -0.037733 -0.688853
19  -0.000000 1.457812 0.000000  -0.037760 0.040153 -0.153383
20  -1.259682 3.818375 1.286946  0.087511 0.000230 0.111810
21  -1.226390 3.891693 0.090420  0.005331 0.001603 0.009044
22  -1.231622 3.875534 -0.958680  -0.061758 -0.006265 -0.011920
23  -1.209917 3.994781 -2.003047  -0.108791 -0.013788 -0.026065
24  0.328907 0.095429 1.403534  1.818756 0.659268 1.317010
25  13.572409 -16.234413 6.248974  1.372252 -0.298486 -1.183545
26  24.489557 -12.765261 -10.634670  -1.570796 -0.000000 -1.570796
27  0.449198 -13.144855 -6.669335  -0.051945 -0.000000 -1.570796
28  -8.012506 -8.305285 5.043820  1.290562 0.200041 1.586834
29  -0.000001 13.479277 0.000000  1.116001 -0.000000 0.000000
30  0.000000 13.477240 -0.000002  -1.008952 0.375354 0.028700
31  0.267270 3.664729 -1.953293  0.109629 -0.107225 0.495175
32  0.000001 1.180356 -0.000001  -0.029953 -0.007842 0.846531
33  -0.000001 0.817136 0.000000  0.012285 -0.000556 1.260036
34  0.249423 3.688542 -0.940889  -0.126560 -0.145246 0.899651
35  -0.000002 1.800633 0.000000  -0.009643 -0.027168 1.400081
36  -0.000003 1.243408 -0.000000  0.002452 -0.006045 1.256196
37  0.244726 3.701096 0.087732  -0.174753 -0.151318 0.769501
38  0.000001 1.766585 0.000000  0.009385 0.010267 1.319680
39  0.000003 1.189003 -0.000000  -0.006898 0.016298 1.212361
40  0.277240 3.632249 1.274102  -0.295695 -0.170063 0.706217
41  0.000001 1.798495 -0.000000  0.035176 0.008609 1.280163
42  -0.000003 1.235451 0.000000  -0.008523 0.000599 1.061936
43  -0.315441 0.857301 0.755944  -0.678476 -2.468995 1.317854
44  -0.000000 2.265939 -0.000001  -0.026878 0.060881 0.878738
45  -0.000000 1.457810 0.000000  -0.051628 -0.019293 0.611810
46  1.259681 3.818376 1.286946  -0.295695 -0.170063 0.706217
47  1.226391 3.891695 0.090419  -0.174753 -0.151318 0.769501
48  1.231624 3.875535 -0.958680  -0.126560 -0.145246 0.899651
49  1.209920 3.994783 -2.003047  0.109629 -0.107225 0.495175
50  -0.328906 0.095430 1.403533  -0.678476 -2.468995 1.317854
51  -1.814566 -3.835666 26.595390  1.403863 -0.099438 1.815998
52  -21.873154 -7.599106 9.622633  -1.570796 -0.000000 1.570796
53  -8.012506 -8.305285 5.043820  -0.051945 0.000000 1.570796
54  -2.459639 -30.056744 -5.291215  2.113484 1.403960 0.364078
55  0.000000 -0.000000 -0.000001  -0.000000 -0.000000 0.000000
56  0.000000 -0.000000 -0.000001  -0.000000 -0.000000 0.000000
time 9
0  0 0 0  0 0 0
1  0.000000 0.000000 0.000000  1.570796 -0.000000 0.000000
2  0.449198 -13.144855 -6.669335  -0.019333 0.193523 -1.587335
3  0.000001 13.479276 0.000000  1.645526 0.000000 -0.000000
4  -0.000001 13.477238 -0.000000  -0.145371 0.392444 0.487865
5  -0.267268 3.664727 -1.953293  -0.108791 -0.013788 -0.026065
6  0.000001 1.180356 0.000001  -0.034029 -0.015446 -0.403202
7  -0.000001 0.817135 0.000000  0.006682 -0.010324 -0.218454
8  -0.249422 3.688543 -0.940890  -0.061758 -0.006265 -0.011920
9  0.000002 1.800633 0.000000  0.004369 0.003102 -0.427837
10  0.000000 1.243407 0.000001  0.006376 0.001380 -0.283965
11  -0.244726 3.701096 0.087733  0.005331 0.001603 0.009044
12  -0.000001 1.766585 0.000001  0.003116 -0.003018 -0.449710
13  0.000000 1.189004 -0.000001  -0.016905 -0.005239 -0.342445
14  -0.277239 3.632249 1.274101  0.087512 0.000230 0.111810
15  0.000002 1.798494 0.000001  0.035323 0.013594 -0.367526
16  -0.000000 1.235452 -0.000000  -0.005691 0.006373 -0.149850
17  0.315442 0.857300 0.755943  1.818756 0.659268 1.317010
18  0.000000 2.265938 -0.000001  -0.099084 -0.037733 -0.688853
19  0.000002 1.457813 -0.000001  -0.037760 0.040154 -0.153383
20  -1.259680 3.818375 1.286946  0.087511 0.000230 0.111810
21  -1.226391 3.891694 0.090418  0.005332 0.001603 0.009044
22  -1.231623 3.875535 -0.958681  -0.061758 -0.006265 -0.011920
23  -1.209918 3.994783 -2.003049  -0.108790 -0.013788 -0.026065
24  0.328907 0.095429 1.403532  1.818756 0.659268 1.317010
25  13.135126 -15.892500 6.278579  1.362226 -0.292329 -1.204301
26  24.489557 -12.765261 -10.634670  -1.570796 -0.000000 -1.570796
27  0.449198 -13.144855 -6.669335  -0.051945 -0.000000 -1.570796
28  -8.132937 -8.233877 4.443243  1.115822 0.169934 1.641319
29  -0.000001 13.479276 -0.000000  1.328489 -0.000000 0.000000
30  -0.000001 13.477239 0.000003  -0.991145 0.282676 0.121162
31  0.267269 3.664726 -1.953292  0.109629 -0.107225 0.495175
32  0.000001 1.180354 -0.000000  -0.029953 -0.007842 0.846531
33  0.000001 0.817134 -0.000000  0.012285 -0.000556 1.260036
34  0.249423 3.688541 -0.940888  -0.126560 -0.145246 0.899651
35  0.000005 1.800634 -0.000000  -0.009643 -0.027168 1.400081
36  -0.000002 1.243402 0.000000  0.002452 -0.006045 1.256196
37  0.244726 3.701097 0.087733  -0.174753 -0.151318 0.769501
38  -0.000001 1.766586 -0.000000  0.009385 0.010267 1.319679
39  0.000001 1.189005 -0.000001  -0.006898 0.016298 1.212361
40  0.277239 3.632247 1.274103  -0.295695 -0.170063 0.706217
41  -0.000001 1.798494 0.000000  0.035176 0.008609 1.280163
42  0.000001 1.235451 -0.000001  -0.008523 0.000599 1.061936
43  -0.315441 0.857299 0.755944  -0.678476 -2.468995 1.317854
44  -0.000001 2.265941 0.000000  -0.026878 0.060881 0.878738
45  -0.000001 1.457811 -0.000000  -0.051628 -0.019293 0.611810
46  1.259681 3.818375 1.286946  -0.295695 -0.170063 0.706217
47  1.226391 3.891694 0.090420  -0.174753 -0.151318 0.769501
48  1.231622 3.875534 -0.958680  -0.126560 -0.145246 0.899651
49  1.209918 3.994781 -2.003047  0.109629 -0.107225 0.495175
50  -0.328906 0.095427 1.403533  -0.678476 -2.468995 1.317854
51  -3.983380 -4.420853 24.905830  1.438050 -0.123298 1.732265
52  -22.006052 -8.242983 10.087412  -1.570796 -0.000000 1.570796
53  -8.132937 -8.233877 4.443243  -0.051945 0.000000 1.570796
54  -4.613124 -28.367390 -5.882611  -0.598720 1.679431 -2.313770
55  0.000000 -0.000000 0.000002  0.000000 -0.000000 0.000000
56  0.000000 -0.000000 0.000002  0.000000 -0.000000 0.000000
time 10
0  0 0 0  0 0 0
1  0.000000 0.000000 0.000000  1.570796 -0.000000 0.000000
2  0.449198 -13.144855 -6.669335  -0.018162 0.165484 -1.582555
3  0.000000 13.479278 0.000000  1.681977 0.000000 -0.000000
4  -0.000001 13.477240 0.000001  -0.198034 0.373325 0.442105
5  -0.267268 3.664725 -1.953292  -0.108791 -0.013788 -0.026065
6  0.000001 1.180354 0.000000  -0.034029 -0.015446 -0.403202
7  -0.000002 0.817136 -0.000000  0.006682 -0.010324 -0.218454
8  -0.249421 3.688540 -0.940889  -0.061758 -0.006265 -0.011920
9  0.000001 1.800633 0.000002  0.004369 0.003102 -0.427837
10  0.000002 1.243407 -0.000001  0.006376 0.001380 -0.283965
11  -0.244725 3.701096 0.087732  0.005331 0.001603 0.009044
12  0.000001 1.766584 0.000001  0.003116 -0.003018 -0.449710
13  0.000001 1.189003 0.000001  -0.016905 -0.005239 -0.342445
14  -0.277238 3.632248 1.274102  0.087511 0.000230 0.111810
15  0.000001 1.798495 -0.000000  0.035323 0.013594 -0.367525
16  -0.000001 1.235452 -0.000001  -0.005691 0.006373 -0.149850
17  0.315443 0.857299 0.755943  1.818756 0.659268 1.317010
18  -0.000000 2.265938 -0.000001  -0.099084 -0.037733 -0.688853
19  -0.000000 1.457811 -0.000000  -0.037760 0.040154 -0.153383
20  -1.259680 3.818375 1.286946  0.087511 0.000230 0.111810
21  -1.226388 3.891693 0.090419  0.005332 0.001603 0.009044
22  -1.231622 3.875533 -0.958681  -0.061758 -0.006265 -0.011920
23  -1.209917 3.994782 -2.003048  -0.108790 -0.013788 -0.026066
24  0.328907 0.095428 1.403532  1.818756 0.659268 1.317010
25  12.647062 -15.458266 6.322743  1.358532 -0.290061 -1.235264
26  24.489557 -12.765261 -10.634670  -1.570796 -0.000000 -1.570796
27  0.449198 -13.144855 -6.669335  -0.051945 -0.000000 -1.570796
28  -8.274358 -8.150024 3.738001  1.010852 0.137918 1.696544
29  -0.000001 13.479277 0.000000  1.404037 -0.000000 0.000000
30  0.000000 13.477240 -0.000002  -0.917112 0.191993 0.188130
31  0.267269 3.664729 -1.953293  0.109629 -0.107225 0.495176
32  -0.000000 1.180356 0.000001  -0.029953 -0.007842 0.846531
33  0.000002 0.817136 -0.000001  0.012285 -0.000556 1.260036
34  0.249423 3.688543 -0.940889  -0.126560 -0.145246 0.899651
35  0.000002 1.800633 -0.000000  -0.009643 -0.027168 1.400081
36  -0.000003 1.243404 -0.000001  0.002452 -0.006045 1.256196
37  0.244726 3.701098 0.087733  -0.174753 -0.151318 0.769502
38  -0.000001 1.766585 0.000000  0.009385 0.010267 1.319679
39  0.000002 1.189002 0.000000  -0.006898 0.016298 1.212361
40  0.277240 3.632250 1.274102  -0.295695 -0.170063 0.706217
41  0.000001 1.798494 -0.000000  0.035176 0.008609 1.280163
42  0.000000 1.235451 0.000001  -0.008523 0.000599 1.061936
43  -0.315441 0.857301 0.755944  -0.678476 -2.468995 1.317854
44  -0.000001 2.265941 -0.000001  -0.026878 0.060881 0.878738
45  0.000001 1.457814 0.000001  -0.051628 -0.019293 0.611810
46  1.259682 3.818379 1.286946  -0.295695 -0.170063 0.706217
47  1.226390 3.891695 0.090419  -0.174753 -0.151318 0.769501
48  1.231623 3.875536 -0.958680  -0.126560 -0.145246 0.899651
49  1.209920 3.994783 -2.003048  0.109629 -0.107225 0.495175
50  -0.328906 0.095430 1.403533  -0.678476 -2.468995 1.317854
51  -5.736048 -5.005843 23.918358  1.479566 -0.129864 1.686029
52  -22.151411 -8.947224 10.578918  -1.570796 -0.000000 1.570796
53  -8.274358 -8.150024 3.738001  -0.051945 0.000000 1.570796
54  -6.280418 -27.403212 -6.446390  -0.234260 1.658695 -1.909305
55  0.000000 0.000000 0.000001  0.000000 -0.000000 -0.000000
56  0.000000 0.000000 0.000001  0.000000 -0.000000 -0.000000
time 11
0  0 0 0  0 0 0
1  0.000000 0.000000 0.000000  1.570796 -0.000000 0.000000
2  0.449198 -13.144855 -6.669335  -0.014211 0.130448 -1.576646
3  0.000001 13.479278 0.000001  1.718333 0.000000 -0.000000
4  -0.000001 13.477240 0.000002  -0.253520 0.338978 0.393305
5  -0.267271 3.664727 -1.953292  -0.108790 -0.013788 -0.026065
6  0.000000 1.180356 -0.000001  -0.034029 -0.015446 -0.403202
7  0.000001 0.817135 0.000001  0.006682 -0.010324 -0.218454
8  -0.249424 3.688542 -0.940888  -0.061758 -0.006265 -0.011920
9  0.000001 1.800633 -0.000000  0.004369 0.003102 -0.427837
10  0.000000 1.243406 -0.000000  0.006376 0.001380 -0.283965
11  -0.244727 3.701096 0.087734  0.005332 0.001603 0.009044
12  -0.000001 1.766585 0.000000  0.003116 -0.003018 -0.449710
13  -0.000001 1.189004 0.000001  -0.016905 -0.005239 -0.342445
14  -0.277241 3.632248 1.274103  0.087511 0.000230 0.111810
15  -0.000002 1.798496 -0.000001  0.035323 0.013594 -0.367526
16  -0.000001 1.235453 0.000001  -0.005691 0.006373 -0.149850
17  0.315440 0.857300 0.755944  1.818756 0.659267 1.317010
18  0.000000 2.265940 -0.000000  -0.099084 -0.037733 -0.688853
19  0.000000 1.457812 0.000001  -0.037760 0.040153 -0.153383
20  -1.259683 3.818374 1.286947  0.087511 0.000230 0.111810
21  -1.226392 3.891692 0.090420  0.005332 0.001603 0.009044
22  -1.231625 3.875533 -0.958680  -0.061758 -0.006265 -0.011920
23  -1.209920 3.994781 -2.003047  -0.108790 -0.013788 -0.026065
24  0.328905 0.095428 1.403533  1.818756 0.659268 1.317010
25  12.125143 -14.925753 6.384378  1.358005 -0.289737 -1.278477
26  24.489557 -12.765261 -10.634670  -1.570796 -0.000000 -1.570796
27  0.449198 -13.144855 -6.669335  -0.051945 -0.000000 -1.570796
28  -8.430771 -8.057283 2.957998  0.972932 0.112276 1.752968
29  -0.000000 13.479275 0.000001  1.374056 -0.000000 0.000000
30  0.000000 13.477238 0.000001  -0.732259 0.140659 0.203926
31  0.267269 3.664729 -1.953293  0.109629 -0.107225 0.495175
32  -0.000000 1.180356 -0.000000  -0.029953 -0.007842 0.846531
33  -0.000000 0.817134 0.000001  0.012285 -0.000556 1.260036
34  0.249422 3.688542 -0.940889  -0.126560 -0.145246 0.899651
35  -0.000000 1.800632 -0.000001  -0.009643 -0.027168 1.400081
36  0.000001 1.243405 0.000001  0.002452 -0.006045 1.256196
37  0.244726 3.701098 0.087733  -0.174753 -0.151318 0.769501
38  0.000000 1.766584 -0.000001  0.009385 0.010267 1.319679
39  0.000000 1.189005 -0.000001  -0.006898 0.016298 1.212362
40  0.277239 3.632251 1.274102  -0.295695 -0.170063 0.706217
41  -0.000002 1.798495 0.000000  0.035176 0.008609 1.280163
42  -0.000001 1.235452 0.000000  -0.008523 0.000599 1.061936
43  -0.315441 0.857303 0.755944  -0.678476 -2.468995 1.317854
44  -0.000003 2.265941 -0.000000  -0.026878 0.060881 0.878739
45  0.000001 1.457814 0.000000  -0.051628 -0.019293 0.611810
46  1.259681 3.818377 1.286946  -0.295695 -0.170063 0.706217
47  1.226390 3.891695 0.090419  -0.174753 -0.151318 0.769501
48  1.231622 3.875536 -0.958681  -0.126560 -0.145246 0.899651
49  1.209919 3.994782 -2.003047  0.109629 -0.107225 0.495175
50  -0.328907 0.095431 1.403532  -0.678476 -2.468995 1.317854
51  -7.028591 -5.434208 23.584515  1.600710 -0.131526 1.712171
52  -22.302999 -9.681645 11.079334  -1.570796 -0.000000 1.570796
53  -8.430771 -8.057283 2.957998  -0.051945 0.000000 1.570796
54  -7.093471 -27.125324 -6.839263  -0.707104 1.667600 -2.260851
55  0.000000 0.000000 -0.000003  0.000000 0.000000 0.000000
56  0.000000 0.000000 -0.000003  0.000000 0.000000 0.000000
time 12
0  0 0 0  0 0 0
1  0.000000 0.000000 0.000000  1.570796 -0.000000 0.000000
2  0.449198 -13.144855 -6.669335  -0.006286 0.087932 -1.569548
3  0.000001 13.479277 0.000001  1.751830 0.000000 -0.000000
4  0.000001 13.477237 0.000000  -0.313290 0.213736 0.379447
5  -0.267270 3.664727 -1.953293  -0.108790 -0.013788 -0.026065
6  0.000000 1.180355 -0.000000  -0.034029 -0.015446 -0.403203
7  -0.000001 0.817135 0.000000  0.006682 -0.010324 -0.218454
8  -0.249424 3.688541 -0.940889  -0.061758 -0.006265 -0.011920
9  0.000000 1.800633 -0.000001  0.004369 0.003102 -0.427837
10  -0.000000 1.243407 0.000001  0.006376 0.001380 -0.283965
11  -0.244727 3.701096 0.087733  0.005332 0.001603 0.009044
12  0.000001 1.766584 0.000001  0.003116 -0.003017 -0.449710
13  0.000001 1.189004 0.000001  -0.016905 -0.005239 -0.342445
14  -0.277240 3.632248 1.274103  0.087511 0.000230 0.111810
15  -0.000000 1.798493 -0.000000  0.035323 0.013594 -0.367525
16  -0.000000 1.235452 0.000001  -0.005691 0.006373 -0.149850
17  0.315440 0.857300 0.755944  1.818756 0.659268 1.317010
18  -0.000000 2.265940 0.000000  -0.099084 -0.037733 -0.688853
19  -0.000000 1.457812 0.000000  -0.037760 0.040154 -0.153383
20  -1.259682 3.818375 1.286946  0.087511 0.000230 0.111810
21  -1.226391 3.891694 0.090418  0.005331 0.001603 0.009044
22  -1.231623 3.875535 -0.958681  -0.061758 -0.006265 -0.011920
23  -1.209919 3.994783 -2.003048  -0.108790 -0.013788 -0.026065
24  0.328905 0.095430 1.403533  1.818756 0.659268 1.317010
25  11.586298 -14.288996 6.466398  1.372997 -0.317410 -1.415315
26  24.489557 -12.765261 -10.634670  -1.570796 -0.000000 -1.570796
27  0.449198 -13.144855 -6.669335  -0.051945 -0.000000 -1.570796
28  -8.596177 -7.959210 2.133140  0.943596 0.091168 1.807597
29  0.000000 13.479277 0.000001  1.316146 -0.000000 0.000000
30  0.000000 13.477241 0.000002  -0.471142 0.115217 0.181990
31  0.267269 3.664729 -1.953293  0.109629 -0.107225 0.495175
32  -0.000002 1.180357 -0.000000  -0.029953 -0.007842 0.846531
33  0.000002 0.817135 -0.000000  0.012285 -0.000556 1.260036
34  0.249422 3.688542 -0.940889  -0.126560 -0.145246 0.899651
35  -0.000001 1.800632 -0.000001  -0.009643 -0.027168 1.400081
36  0.000002 1.243405 0.000001  0.002452 -0.006045 1.256196
37  0.244727 3.701097 0.087732  -0.174753 -0.151318 0.769501
38  -0.000000 1.766585 -0.000001  0.009385 0.010267 1.319679
39  0.000000 1.189005 0.000001  -0.006898 0.016298 1.212362
40  0.277239 3.632250 1.274101  -0.295695 -0.170063 0.706217
41  -0.000002 1.798493 0.000000  0.035176 0.008609 1.280163
42  -0.000002 1.235452 -0.000000  -0.008523 0.000599 1.061936
43  -0.315441 0.857300 0.755943  -0.678476 -2.468995 1.317854
44  -0.000001 2.265940 0.000001  -0.026878 0.060881 0.878738
45  -0.000000 1.457810 -0.000001  -0.051628 -0.019293 0.611810
46  1.259681 3.818376 1.286946  -0.295695 -0.170063 0.706217
47  1.226390 3.891694 0.090419  -0.174753 -0.151318 0.769501
48  1.231623 3.875535 -0.958681  -0.126560 -0.145246 0.899651
49  1.209919 3.994783 -2.003049  0.109629 -0.107225 0.495175
50  -0.328906 0.095429 1.403532  -0.678476 -2.468995 1.317854
51  -8.412823 -5.918553 23.361181  1.778480 -0.122346 1.781848
52  -22.454588 -10.416066 11.570841  -1.570796 -0.000000 1.570796
53  -8.596177 -7.959210 2.133140  -0.051945 0.000000 1.570796
54  -7.744512 -26.902809 -7.153851  1.729804 1.418740 0.353029
55  0.000000 0.000001 0.000001  0.000000 0.000000 -0.000000
56  0.000000 0.000001 0.000001  0.000000 0.000000 -0.000000
time 13
0  0 0 0  0 0 0
1  0.000000 0.000000 0.000000  1.570796 -0.000000 0.000000
2  0.449198 -13.144855 -6.669335  0.006396 0.037643 -1.561219
3  0.000003 13.479277 0.000001  1.780123 0.000000 -0.000000
4  -0.000001 13.477240 -0.000000  -0.378016 0.033783 0.408789
5  -0.267269 3.664726 -1.953293  -0.108790 -0.013788 -0.026066
6  0.000001 1.180356 0.000001  -0.034029 -0.015446 -0.403203
7  0.000000 0.817135 -0.000000  0.006682 -0.010324 -0.218454
8  -0.249421 3.688540 -0.940889  -0.061758 -0.006265 -0.011920
9  0.000000 1.800633 -0.000001  0.004369 0.003102 -0.427837
10  -0.000001 1.243405 0.000000  0.006376 0.001380 -0.283965
11  -0.244725 3.701095 0.087733  0.005331 0.001603 0.009044
12  0.000000 1.766585 -0.000000  0.003116 -0.003017 -0.449710
13  0.000000 1.189003 0.000001  -0.016905 -0.005239 -0.342445
14  -0.277239 3.632248 1.274102  0.087511 0.000230 0.111810
15  -0.000000 1.798493 0.000000  0.035323 0.013594 -0.367526
16  0.000001 1.235451 0.000001  -0.005691 0.006373 -0.149850
17  0.315442 0.857300 0.755944  1.818756 0.659268 1.317010
18  -0.000000 2.265940 -0.000001  -0.099084 -0.037733 -0.688853
19  0.000000 1.457811 -0.000001  -0.037760 0.040153 -0.153383
20  -1.259681 3.818375 1.286945  0.087511 0.000230 0.111810
21  -1.226390 3.891694 0.090419  0.005332 0.001603 0.009044
22  -1.231622 3.875534 -0.958681  -0.061758 -0.006265 -0.011920
23  -1.209919 3.994782 -2.003048  -0.108790 -0.013788 -0.026065
24  0.328907 0.095428 1.403534  1.818756 0.659268 1.317010
25  11.047451 -13.542037 6.571713  1.410896 -0.368804 -1.617043
26  24.489557 -12.765261 -10.634670  -1.570796 -0.000000 -1.570796
27  0.449198 -13.144855 -6.669335  -0.051945 -0.000000 -1.570796
28  -8.764583 -7.859358 1.293327  0.937513 0.069828 1.855150
29  0.000000 13.479275 0.000001  1.224067 -0.000000 0.000000
30  -0.000000 13.477240 -0.000001  -0.189109 0.109735 0.133016
31  0.267269 3.664726 -1.953291  0.109629 -0.107225 0.495175
32  -0.000000 1.180353 0.000003  -0.029953 -0.007842 0.846531
33  -0.000001 0.817134 -0.000000  0.012285 -0.000556 1.260036
34  0.249422 3.688543 -0.940886  -0.126560 -0.145246 0.899651
35  -0.000002 1.800634 0.000000  -0.009643 -0.027168 1.400080
36  -0.000002 1.243407 0.000000  0.002452 -0.006045 1.256196
37  0.244726 3.701097 0.087734  -0.174753 -0.151318 0.769501
38  0.000001 1.766586 -0.000000  0.009385 0.010267 1.319679
39  0.000000 1.189004 0.000001  -0.006898 0.016298 1.212361
40  0.277238 3.632248 1.274105  -0.295695 -0.170063 0.706217
41  -0.000000 1.798496 -0.000000  0.035176 0.008609 1.280163
42  0.000001 1.235451 -0.000001  -0.008523 0.000599 1.061936
43  -0.315442 0.857300 0.755946  -0.678476 -2.468995 1.317854
44  0.000001 2.265939 0.000000  -0.026878 0.060881 0.878738
45  -0.000001 1.457809 -0.000000  -0.051628 -0.019293 0.611810
46  1.259680 3.818373 1.286947  -0.295695 -0.170063 0.706217
47  1.226390 3.891694 0.090421  -0.174753 -0.151318 0.769501
48  1.231622 3.875533 -0.958678  -0.126560 -0.145246 0.899651
49  1.209918 3.994781 -2.003045  0.109629 -0.107225 0.495175
50  -0.328906 0.095429 1.403535  -0.678476 -2.468995 1.317854
51  -9.647607 -6.514093 23.296741  1.964874 -0.101503 1.872766
52  -22.599947 -11.120307 12.035620  -1.570796 -0.000000 1.570796
53  -8.764583 -7.859358 1.293327  -0.051945 0.000000 1.570796
54  -8.251545 -26.729515 -7.398852  1.276587 1.322072 0.082312
55  0.000000 -0.000000 -0.000000  0.000000 -0.000000 -0.000000
56  0.000000 -0.000000 -0.000000  0.000000 -0.000000 -0.000000
time 14
0  0 0 0  0 0 0
1  0.000000 0.000000 0.000000  1.570796 -0.000000 0.000000
2  0.449198 -13.144855 -6.669335  0.024683 -0.020402 -1.551642
3  -0.000000 13.479276 0.000001  1.800498 0.000000 -0.000000
4  0.000001 13.477239 -0.000001  -0.411624 -0.057603 0.406490
5  -0.267270 3.664727 -1.953292  -0.108791 -0.013788 -0.026066
6  0.000000 1.180354 -0.000001  -0.034029 -0.015446 -0.403203
7  -0.000000 0.817136 0.000000  0.006682 -0.010324 -0.218454
8  -0.249423 3.688542 -0.940887  -0.061758 -0.006265 -0.011920
9  0.000000 1.800634 0.000001  0.004369 0.003102 -0.427837
10  -0.000000 1.243405 0.000000  0.006376 0.001380 -0.283965
11  -0.244726 3.701097 0.087734  0.005331 0.001603 0.009044
12  0.000002 1.766584 0.000001  0.003116 -0.003017 -0.449710
13  -0.000000 1.189004 0.000001  -0.016905 -0.005239 -0.342445
14  -0.277240 3.632249 1.274104  0.087511 0.000230 0.111810
15  0.000001 1.798495 0.000000  0.035323 0.013594 -0.367526
16  0.000001 1.235450 -0.000000  -0.005691 0.006373 -0.149850
17  0.315441 0.857300 0.755946  1.818756 0.659267 1.317010
18  -0.000001 2.265939 -0.000001  -0.099084 -0.037733 -0.688853
19  0.000000 1.457812 -0.000001  -0.037760 0.040153 -0.153383
20  -1.259681 3.818375 1.286947  0.087511 0.000230 0.111810
21  -1.226391 3.891694 0.090420  0.005331 0.001603 0.009044
22  -1.231623 3.875535 -0.958680  -0.061758 -0.006265 -0.011920
23  -1.209920 3.994781 -2.003046  -0.108791 -0.013788 -0.026066
24  0.328906 0.095429 1.403534  1.818756 0.659268 1.317010
25  10.525534 -12.678911 6.703235  1.461089 -0.396477 -1.720536
26  24.489557 -12.765261 -10.634670  -1.570796 -0.000000 -1.570796
27  0.449198 -13.144855 -6.669335  -0.051945 -0.000000 -1.570796
28  -8.929990 -7.761284 0.468469  0.959096 0.047991 1.893130
29  -0.000000 13.479275 -0.000001  1.108601 -0.000000 0.000000
30  -0.000001 13.477240 0.000000  0.049172 0.119382 0.070165
31  0.267270 3.664726 -1.953293  0.109629 -0.107225 0.495175
32  -0.000000 1.180356 0.000001  -0.029953 -0.007842 0.846531
33  0.000001 0.817134 -0.000003  0.012286 -0.000556 1.260037
34  0.249423 3.688540 -0.940890  -0.126560 -0.145246 0.899651
35  0.000002 1.800634 -0.000001  -0.009643 -0.027168 1.400081
36  -0.000001 1.243407 0.000001  0.002452 -0.006045 1.256196
37  0.244727 3.701093 0.087733  -0.174753 -0.151318 0.769501
38  0.000000 1.766586 -0.000001  0.009385 0.010267 1.319679
39  -0.000001 1.189005 -0.000000  -0.006898 0.016298 1.212362
40  0.277239 3.632247 1.274102  -0.295695 -0.170063 0.706217
41  -0.000001 1.798494 -0.000000  0.035176 0.008609 1.280163
42  0.000000 1.235451 -0.000001  -0.008523 0.000599 1.061936
43  -0.315441 0.857299 0.755943  -0.678476 -2.468995 1.317854
44  -0.000003 2.265939 0.000001  -0.026878 0.060881 0.878738
45  0.000001 1.457810 0.000000  -0.051628 -0.019293 0.611810
46  1.259681 3.818374 1.286945  -0.295695 -0.170063 0.706217
47  1.226391 3.891691 0.090418  -0.174753 -0.151318 0.769501
48  1.231623 3.875531 -0.958680  -0.126560 -0.145246 0.899651
49  1.209920 3.994778 -2.003048  0.109629 -0.107225 0.495175
50  -0.328906 0.095427 1.403532  -0.678476 -2.468995 1.317854
51  -10.526045 -7.137053 23.323368  2.111868 -0.070373 1.964882
52  -22.732847 -11.764183 12.455851  -1.570796 -0.000000 1.570796
53  -8.929990 -7.761284 0.468469  -0.051945 0.000000 1.570796
54  -8.632568 -26.599285 -7.582966  1.003481 1.217862 -0.051702
55  -0.000001 -0.000001 0.000001  0.000000 -0.000000 0.000000
56  -0.000001 -0.000001 0.000001  0.000000 -0.000000 0.000000
time 15
0  0 0 0  0 0 0
1  0.000000 0.000000 0.000000  1.570796 -0.000000 0.000000
2  0.449198 -13.144855 -6.669335  0.094776 -0.081316 -1.541567
3  0.000001 13.479279 0.000000  1.761276 0.000000 -0.000000
4  0.000000 13.477240 -0.000000  -0.393275 -0.064113 0.344179
5  -0.267269 3.664726 -1.953293  -0.108790 -0.013788 -0.026065
6  -0.000001 1.180356 -0.000000  -0.034029 -0.015446 -0.403202
7  -0.000000 0.817134 0.000001  0.006682 -0.010324 -0.218454
8  -0.249421 3.688541 -0.940890  -0.061758 -0.006265 -0.011920
9  0.000001 1.800633 0.000001  0.004369 0.003102 -0.427837
10  0.000000 1.243406 0.000000  0.006376 0.001380 -0.283965
11  -0.244725 3.701095 0.087732  0.005331 0.001603 0.009044
12  -0.000001 1.766584 -0.000001  0.003116 -0.003017 -0.449710
13  0.000000 1.189004 0.000001  -0.016905 -0.005239 -0.342445
14  -0.277239 3.632247 1.274101  0.087511 0.000230 0.111810
15  0.000000 1.798495 -0.000000  0.035323 0.013594 -0.367526
16  -0.000000 1.235452 -0.000002  -0.005691 0.006373 -0.149850
17  0.315442 0.857300 0.755943  1.818756 0.659268 1.317010
18  -0.000000 2.265940 0.000000  -0.099084 -0.037733 -0.688853
19  0.000000 1.457811 -0.000001  -0.037760 0.040153 -0.153383
20  -1.259680 3.818375 1.286946  0.087511 0.000230 0.111810
21  -1.226390 3.891693 0.090418  0.005332 0.001603 0.009044
22  -1.231622 3.875534 -0.958681  -0.061758 -0.006265 -0.011920
23  -1.209919 3.994781 -2.003048  -0.108790 -0.013788 -0.026065
24  0.328907 0.095428 1.403533  1.818756 0.659268 1.317010
25  10.037470 -11.709985 7.491319  1.514145 -0.390220 -1.711318
26  24.489557 -12.765261 -10.634670  -1.570796 -0.000000 -1.570796
27  0.449198 -13.144855 -6.669335  -0.051945 -0.000000 -1.570796
28  -9.086402 -7.668543 -0.311534  0.999307 0.029349 1.923134
29  -0.000001 13.479276 0.000001  0.997023 -0.000000 0.000000
30  0.000000 13.477240 0.000001  0.176581 0.131149 0.008576
31  0.267270 3.664726 -1.953292  0.109629 -0.107225 0.495175
32  -0.000000 1.180355 0.000000  -0.029953 -0.007842 0.846531
33  0.000000 0.817137 0.000002  0.012285 -0.000556 1.260036
34  0.249423 3.688540 -0.940889  -0.126560 -0.145246 0.899651
35  0.000000 1.800634 -0.000001  -0.009643 -0.027168 1.400081
36  0.000000 1.243406 0.000000  0.002452 -0.006045 1.256196
37  0.244727 3.701094 0.087734  -0.174753 -0.151318 0.769501
38  -0.000001 1.766585 0.000000  0.009385 0.010267 1.319679
39  0.000003 1.189004 0.000000  -0.006897 0.016298 1.212362
40  0.277239 3.632246 1.274102  -0.295695 -0.170063 0.706217
41  0.000001 1.798497 -0.000000  0.035176 0.008609 1.280163
42  -0.000004 1.235452 -0.000002  -0.008523 0.000599 1.061936
43  -0.315441 0.857299 0.755945  -0.678476 -2.468995 1.317854
44  0.000002 2.265939 -0.000001  -0.026878 0.060881 0.878738
45  0.000000 1.457814 -0.000001  -0.051628 -0.019293 0.611810
46  1.259681 3.818373 1.286946  -0.295695 -0.170063 0.706217
47  1.226391 3.891690 0.090420  -0.174753 -0.151318 0.769501
48  1.231623 3.875533 -0.958678  -0.126560 -0.145246 0.899651
49  1.209919 3.994779 -2.003047  0.109629 -0.107225 0.495175
50  -0.328906 0.095427 1.403534  -0.678476 -2.468995 1.317854
51  -10.946682 -7.614286 23.290459  2.172158 -0.032616 2.039056
52  -22.847057 -12.317516 12.813717  -1.570796 -0.000000 1.570796
53  -9.086402 -7.668543 -0.311534  -0.051945 0.000000 1.570796
54  -8.905586 -26.505974 -7.714890  0.868329 1.135165 -0.137651
55  -0.000001 -0.000002 -0.000001  0.000000 -0.000000 0.000000
56  -0.000001 -0.000002 -0.000001  0.000000 -0.000000 0.000000
time 16
0  0 0 0  0 0 0
1  0.000000 0.000000 0.000000  1.570796 -0.000000 0.000000
2  0.449198 -13.144855 -6.669335  0.234814 -0.130617 -1.533341
3  0.000001 13.479278 0.000001  1.627484 0.000000 -0.000000
4  0.000003 13.477239 0.000002  -0.345486 -0.067770 0.278226
5  -0.267270 3.664726 -1.953294  -0.108791 -0.013788 -0.026065
6  -0.000001 1.180355 0.000000  -0.034029 -0.015446 -0.403202
7  0.000000 0.817135 -0.000001  0.006682 -0.010324 -0.218454
8  -0.249423 3.688541 -0.940890  -0.061758 -0.006265 -0.011920
9  0.000002 1.800634 -0.000000  0.004369 0.003102 -0.427837
10  -0.000000 1.243406 -0.000001  0.006376 0.001380 -0.283965
11  -0.244726 3.701096 0.087732  0.005332 0.001603 0.009044
12  0.000001 1.766584 0.000001  0.003116 -0.003017 -0.449710
13  0.000000 1.189004 0.000000  -0.016905 -0.005239 -0.342445
14  -0.277239 3.632247 1.274101  0.087511 0.000230 0.111810
15  0.000000 1.798495 0.000001  0.035323 0.013594 -0.367526
16  -0.000001 1.235451 -0.000001  -0.005691 0.006373 -0.149850
17  0.315441 0.857299 0.755944  1.818756 0.659268 1.317010
18  0.000002 2.265939 0.000001  -0.099084 -0.037733 -0.688853
19  -0.000000 1.457812 -0.000000  -0.037760 0.040153 -0.153383
20  -1.259681 3.818374 1.286945  0.087511 0.000230 0.111810
21  -1.226390 3.891693 0.090419  0.005332 0.001603 0.009044
22  -1.231622 3.875534 -0.958681  -0.061758 -0.006265 -0.011920
23  -1.209919 3.994781 -2.003048  -0.108791 -0.013788 -0.026066
24  0.328906 0.095427 1.403532  1.818756 0.659268 1.317010
25  9.600185 -10.710931 9.237067  1.565387 -0.374576 -1.688272
26  24.489557 -12.765261 -10.634670  -1.570796 -0.000000 -1.570796
27  0.449198 -13.144855 -6.669335  -0.051945 -0.000000 -1.570796
28  -9.227822 -7.584692 -1.016775  1.045720 0.015499 1.946076
29  0.000001 13.479276 0.000002  0.900267 -0.000000 0.000000
30  0.000000 13.477236 0.000000  0.216902 0.134931 -0.043245
31  0.267269 3.664726 -1.953295  0.109629 -0.107225 0.495175
32  0.000001 1.180357 -0.000000  -0.029953 -0.007842 0.846531
33  -0.000001 0.817135 -0.000001  0.012285 -0.000556 1.260036
34  0.249423 3.688540 -0.940890  -0.126560 -0.145246 0.899651
35  -0.000001 1.800632 0.000003  -0.009643 -0.027168 1.400081
36  0.000000 1.243407 0.000001  0.002452 -0.006045 1.256196
37  0.244727 3.701095 0.087733  -0.174753 -0.151318 0.769501
38  -0.000001 1.766583 0.000001  0.009385 0.010267 1.319679
39  -0.000000 1.189004 -0.000003  -0.006898 0.016298 1.212361
40  0.277239 3.632246 1.274102  -0.295695 -0.170063 0.706217
41  -0.000000 1.798496 0.000003  0.035176 0.008609 1.280163
42  0.000002 1.235451 0.000001  -0.008523 0.000599 1.061936
43  -0.315441 0.857298 0.755943  -0.678476 -2.468995 1.317854
44  0.000002 2.265939 -0.000000  -0.026878 0.060881 0.878738
45  -0.000001 1.457811 0.000000  -0.051628 -0.019293 0.611810
46  1.259682 3.818374 1.286944  -0.295695 -0.170063 0.706217
47  1.226390 3.891693 0.090418  -0.174753 -0.151318 0.769501
48  1.231623 3.875533 -0.958681  -0.126560 -0.145246 0.899651
49  1.209919 3.994781 -2.003049  0.109629 -0.107225 0.495175
50  -0.328906 0.095427 1.403531  -0.678476 -2.468995 1.317854
51  -11.056950 -7.902113 23.182816  2.167326 0.005907 2.087411
52  -22.936350 -12.750121 13.091393  -1.570796 -0.000000 1.570796
53  -9.227822 -7.584692 -1.016775  -0.051945 0.000000 1.570796
54  -9.088598 -26.443422 -7.803322  0.816885 1.082160 -0.206196
55  0.000000 0.000001 0.000000  0.000000 -0.000000 -0.000000
56  0.000000 0.000001 0.000000  0.000000 -0.000000 -0.000000
time 17
0  0 0 0  0 0 0
1  0.000000 0.000000 0.000000  1.570796 -0.000000 0.000000
2  0.449198 -13.144855 -6.669335  0.407294 -0.163569 -1.527785
3  0.000001 13.479276 0.000000  1.422985 0.000000 -0.000000
4  0.000001 13.477240 0.000000  -0.260134 -0.069084 0.217988
5  -0.267270 3.664726 -1.953294  -0.108790 -0.013788 -0.026066
6  0.000001 1.180355 0.000001  -0.034029 -0.015446 -0.403203
7  -0.000001 0.817138 0.000000  0.006682 -0.010324 -0.218454
8  -0.249423 3.688542 -0.940889  -0.061758 -0.006265 -0.011920
9  -0.000001 1.800634 0.000000  0.004369 0.003102 -0.427837
10  0.000001 1.243404 -0.000000  0.006376 0.001380 -0.283965
11  -0.244727 3.701096 0.087732  0.005331 0.001603 0.009044
12  0.000000 1.766585 0.000000  0.003116 -0.003018 -0.449710
13  -0.000000 1.189002 0.000001  -0.016905 -0.005239 -0.342445
14  -0.277240 3.632249 1.274101  0.087511 0.000230 0.111810
15  -0.000001 1.798494 -0.000000  0.035324 0.013594 -0.367526
16  -0.000000 1.235452 0.000000  -0.005691 0.006373 -0.149850
17  0.315441 0.857300 0.755943  1.818756 0.659267 1.317010
18  0.000001 2.265938 0.000002  -0.099084 -0.037733 -0.688853
19  0.000001 1.457810 0.000001  -0.037760 0.040153 -0.153383
20  -1.259682 3.818375 1.286945  0.087511 0.000230 0.111810
21  -1.226391 3.891693 0.090419  0.005332 0.001603 0.009044
22  -1.231623 3.875536 -0.958680  -0.061758 -0.006265 -0.011920
23  -1.209919 3.994781 -2.003048  -0.108791 -0.013788 -0.026065
24  0.328905 0.095428 1.403532  1.818756 0.659268 1.317010
25  9.230614 -9.773745 11.449514  1.611322 -0.354238 -1.658312
26  24.489557 -12.765261 -10.634670  -1.570796 -0.000000 -1.570796
27  0.449198 -13.144855 -6.669335  -0.051945 -0.000000 -1.570796
28  -9.348256 -7.513284 -1.617352  1.092882 0.004809 1.959954
29  0.000001 13.479277 -0.000000  0.809744 -0.000000 0.000000
30  0.000000 13.477240 0.000001  0.241692 0.137307 -0.085743
31  0.267270 3.664725 -1.953295  0.109629 -0.107225 0.495175
32  -0.000001 1.180354 -0.000001  -0.029953 -0.007842 0.846531
33  0.000000 0.817136 0.000001  0.012285 -0.000556 1.260036
34  0.249424 3.688541 -0.940891  -0.126560 -0.145246 0.899651
35  0.000000 1.800633 0.000000  -0.009643 -0.027168 1.400081
36  -0.000001 1.243405 -0.000001  0.002452 -0.006045 1.256196
37  0.244727 3.701094 0.087731  -0.174754 -0.151318 0.769501
38  0.000001 1.766584 -0.000001  0.009385 0.010267 1.319679
39  -0.000003 1.189005 -0.000000  -0.006898 0.016298 1.212362
40  0.277241 3.632247 1.274101  -0.295695 -0.170063 0.706217
41  0.000001 1.798495 -0.000001  0.035176 0.008609 1.280163
42  0.000003 1.235451 0.000002  -0.008523 0.000599 1.061936
43  -0.315440 0.857299 0.755942  -0.678476 -2.468995 1.317854
44  -0.000002 2.265940 -0.000000  -0.026878 0.060881 0.878738
45  0.000002 1.457812 0.000001  -0.051628 -0.019293 0.611810
46  1.259682 3.818373 1.286945  -0.295695 -0.170063 0.706217
47  1.226391 3.891693 0.090418  -0.174753 -0.151318 0.769501
48  1.231624 3.875533 -0.958683  -0.126560 -0.145246 0.899651
49  1.209920 3.994782 -2.003051  0.109629 -0.107225 0.495175
50  -0.328905 0.095428 1.403531  -0.678476 -2.468995 1.317854
51  -11.067072 -8.089691 23.092762  2.153790 0.040370 2.117781
52  -22.994493 -13.031816 13.271069  -1.570796 -0.000000 1.570796
53  -9.348256 -7.513284 -1.617352  -0.051945 0.000000 1.570796
54  -9.199604 -26.405483 -7.856961  0.785761 1.047012 -0.262566
55  -0.000000 0.000000 0.000001  -0.000000 -0.000000 -0.000000
56  -0.000000 0.000000 0.000001  -0.000000 -0.000000 -0.000000
time 18
0  0 0 0  0 0 0
1  0.000000 0.000000 0.000000  1.570796 -0.000000 0.000000
2  0.449198 -13.144855 -6.669335  0.583182 -0.182927 -1.524493
3  0.000000 13.479278 0.000000  1.179592 0.000000 -0.000000
4  -0.000002 13.477240 0.000002  -0.146641 -0.067325 0.168410
5  -0.267269 3.664727 -1.953293  -0.108790 -0.013788 -0.026065
6  -0.000000 1.180353 0.000000  -0.034029 -0.015446 -0.403202
7  -0.000001 0.817137 0.000001  0.006682 -0.010324 -0.218454
8  -0.249422 3.688540 -0.940888  -0.061758 -0.006265 -0.011920
9  0.000000 1.800635 -0.000000  0.004369 0.003102 -0.427837
10  -0.000000 1.243410 -0.000000  0.006376 0.001380 -0.283965
11  -0.244726 3.701095 0.087733  0.005332 0.001603 0.009044
12  0.000000 1.766583 0.000002  0.003116 -0.003017 -0.449710
13  0.000000 1.189001 -0.000000  -0.016905 -0.005239 -0.342445
14  -0.277239 3.632248 1.274102  0.087511 0.000230 0.111810
15  0.000001 1.798495 0.000002  0.035323 0.013594 -0.367526
16  -0.000000 1.235454 -0.000000  -0.005691 0.006373 -0.149850
17  0.315442 0.857300 0.755945  1.818756 0.659268 1.317010
18  0.000001 2.265940 0.000000  -0.099084 -0.037733 -0.688853
19  -0.000000 1.457810 -0.000000  -0.037760 0.040154 -0.153383
20  -1.259680 3.818376 1.286946  0.087511 0.000230 0.111810
21  -1.226390 3.891694 0.090420  0.005332 0.001603 0.009044
22  -1.231623 3.875533 -0.958680  -0.061758 -0.006265 -0.011920
23  -1.209918 3.994781 -2.003047  -0.108791 -0.013788 -0.026065
24  0.328906 0.095428 1.403533  1.818756 0.659268 1.317010
25  8.945675 -8.990423 13.637697  1.648457 -0.333901 -1.628352
26  24.489557 -12.765261 -10.634670  -1.570796 -0.000000 -1.570796
27  0.449198 -13.144855 -6.669335  -0.051945 -0.000000 -1.570796
28  -9.441703 -7.457877 -2.083360  1.135275 -0.003156 1.963465
29  0.000000 13.479277 0.000000  0.732342 -0.000000 0.000000
30  -0.000001 13.477239 0.000000  0.255555 0.141848 -0.119234
31  0.267268 3.664728 -1.953292  0.109629 -0.107225 0.495175
32  0.000001 1.180357 -0.000002  -0.029953 -0.007842 0.846531
33  0.000002 0.817136 0.000000  0.012285 -0.000556 1.260036
34  0.249422 3.688541 -0.940889  -0.126560 -0.145246 0.899651
35  0.000001 1.800633 -0.000003  -0.009643 -0.027168 1.400081
36  0.000000 1.243407 0.000002  0.002452 -0.006045 1.256196
37  0.244726 3.701096 0.087733  -0.174754 -0.151318 0.769501
38  0.000000 1.766585 -0.000000  0.009385 0.010267 1.319679
39  -0.000000 1.189005 0.000000  -0.006898 0.016298 1.212361
40  0.277239 3.632249 1.274102  -0.295695 -0.170063 0.706217
41  0.000000 1.798497 0.000001  0.035176 0.008609 1.280163
42  0.000002 1.235452 -0.000002  -0.008523 0.000599 1.061936
43  -0.315442 0.857302 0.755943  -0.678476 -2.468995 1.317854
44  0.000005 2.265939 0.000000  -0.026878 0.060881 0.878738
45  -0.000001 1.457813 -0.000001  -0.051628 -0.019293 0.611810
46  1.259680 3.818376 1.286945  -0.295695 -0.170063 0.706217
47  1.226390 3.891693 0.090420  -0.174753 -0.151318 0.769501
48  1.231622 3.875534 -0.958680  -0.126560 -0.145246 0.899651
49  1.209918 3.994782 -2.003047  0.109629 -0.107225 0.495175
50  -0.328908 0.095432 1.403532  -0.678476 -2.468995 1.317854
51  -11.023426 -8.198772 23.025150  2.137225 0.068208 2.134323
52  -23.015259 -13.132422 13.334921  -1.570796 -0.000000 1.570796
53  -9.441703 -7.457877 -2.083360  -0.051945 0.000000 1.570796
54  -9.256607 -26.386000 -7.884506  0.767239 1.026077 -0.307240
55  -0.000000 0.000001 0.000001  0.000000 -0.000000 0.000000
56  -0.000000 0.000001 0.000001  0.000000 -0.000000 0.000000
time 19
0  0 0 0  0 0 0
1  0.000000 0.000000 0.000000  1.570796 -0.000000 0.000000
2  0.449198 -13.144855 -6.669335  0.731316 -0.192662 -1.522829
3  0.000000 13.479277 0.000000  0.951298 0.000000 -0.000000
4  -0.000001 13.477239 0.000002  -0.034505 -0.063754 0.134506
5  -0.267269 3.664726 -1.953293  -0.108791 -0.013788 -0.026066
6  -0.000000 1.180352 -0.000000  -0.034029 -0.015446 -0.403202
7  0.000000 0.817135 0.000001  0.006682 -0.010324 -0.218454
8  -0.249423 3.688541 -0.940889  -0.061758 -0.006265 -0.011920
9  0.000000 1.800632 0.000000  0.004369 0.003102 -0.427837
10  -0.000000 1.243404 -0.000000  0.006376 0.001380 -0.283965
11  -0.244726 3.701094 0.087732  0.005331 0.001603 0.009044
12  -0.000000 1.766584 -0.000001  0.003116 -0.003017 -0.449710
13  0.000000 1.189003 -0.000001  -0.016905 -0.005239 -0.342445
14  -0.277240 3.632246 1.274101  0.087511 0.000230 0.111810
15  0.000001 1.798495 -0.000000  0.035323 0.013594 -0.367526
16  0.000000 1.235452 -0.000001  -0.005691 0.006373 -0.149850
17  0.315440 0.857299 0.755943  1.818756 0.659268 1.317010
18  -0.000002 2.265938 0.000000  -0.099084 -0.037733 -0.688853
19  0.000001 1.457812 0.000001  -0.037760 0.040154 -0.153383
20  -1.259681 3.818374 1.286945  0.087511 0.000230 0.111810
21  -1.226390 3.891694 0.090418  0.005332 0.001603 0.009044
22  -1.231622 3.875534 -0.958681  -0.061758 -0.006265 -0.011920
23  -1.209919 3.994782 -2.003049  -0.108790 -0.013788 -0.026065
24  0.328906 0.095429 1.403532  1.818756 0.659268 1.317010
25  8.762295 -8.452965 15.310646  1.673298 -0.318257 -1.605306
26  24.489557 -12.765261 -10.634670  -1.570796 -0.000000 -1.570796
27  0.449198 -13.144855 -6.669335  -0.051945 -0.000000 -1.570796
28  -9.502169 -7.422025 -2.384893  1.166252 -0.008160 1.961873
29  0.000000 13.479278 0.000001  0.677591 -0.000000 0.000000
30  -0.000000 13.477237 0.000002  0.261959 0.146084 -0.141091
31  0.267270 3.664725 -1.953294  0.109629 -0.107225 0.495175
32  0.000000 1.180355 -0.000004  -0.029953 -0.007842 0.846531
33  0.000002 0.817135 0.000001  0.012285 -0.000556 1.260036
34  0.249423 3.688539 -0.940889  -0.126560 -0.145246 0.899651
35  0.000001 1.800634 -0.000002  -0.009643 -0.027168 1.400081
36  -0.000001 1.243406 0.000000  0.002452 -0.006045 1.256196
37  0.244727 3.701097 0.087732  -0.174754 -0.151318 0.769501
38  0.000000 1.766583 -0.000000  0.009385 0.010267 1.319679
39  0.000000 1.189004 -0.000002  -0.006897 0.016298 1.212361
40  0.277239 3.632249 1.274102  -0.295695 -0.170063 0.706218
41  0.000001 1.798495 -0.000001  0.035176 0.008609 1.280163
42  0.000002 1.235451 -0.000001  -0.008523 0.000599 1.061936
43  -0.315440 0.857301 0.755942  -0.678476 -2.468995 1.317854
44  -0.000000 2.265940 -0.000001  -0.026878 0.060881 0.878738
45  0.000001 1.457813 0.000000  -0.051628 -0.019293 0.611810
46  1.259682 3.818374 1.286944  -0.295695 -0.170063 0.706217
47  1.226391 3.891691 0.090419  -0.174753 -0.151318 0.769501
48  1.231623 3.875534 -0.958680  -0.126560 -0.145246 0.899651
49  1.209921 3.994781 -2.003048  0.109629 -0.107225 0.495175
50  -0.328905 0.095428 1.403531  -0.678476 -2.468995 1.317854
51  -10.968185 -8.250408 22.983074  2.123222 0.086830 2.141194
52  -23.015259 -13.132422 13.334921  -1.570796 -0.000000 1.570796
53  -9.502169 -7.422025 -2.384893  -0.051945 0.000000 1.570796
54  -9.277609 -26.378822 -7.894654  0.757161 1.015931 -0.337611
55  -0.000000 0.000001 0.000001  -0.000000 -0.000000 0.000000
56  -0.000000 0.000001 0.000001  -0.000000 -0.000000 0.000000
time 20
0  0 0 0  0 0 0
1  0.000000 0.000000 0.000000  1.570796 -0.000000 0.000000
2  0.449198 -13.144855 -6.669335  0.797174 -0.195561 -1.522332
3  0.000000 13.479278 0.000000  0.843637 0.000000 -0.000000
4  -0.000000 13.477238 0.000001  0.019215 -0.061836 0.121832
5  -0.267270 3.664725 -1.953293  -0.108791 -0.013788 -0.026066
6  0.000001 1.180357 -0.000000  -0.034029 -0.015446 -0.403202
7  -0.000000 0.817138 -0.000000  0.006682 -0.010324 -0.218454
8  -0.249423 3.688541 -0.940888  -0.061758 -0.006265 -0.011920
9  -0.000001 1.800632 -0.000000  0.004369 0.003102 -0.427837
10  -0.000001 1.243406 -0.000000  0.006376 0.001380 -0.283965
11  -0.244727 3.701094 0.087732  0.005332 0.001603 0.009044
12  0.000001 1.766584 -0.000000  0.003116 -0.003017 -0.449710
13  -0.000000 1.189004 0.000001  -0.016905 -0.005239 -0.342445
14  -0.277240 3.632247 1.274102  0.087511 0.000230 0.111810
15  -0.000000 1.798493 0.000000  0.035323 0.013594 -0.367526
16  0.000001 1.235452 -0.000001  -0.005691 0.006373 -0.149850
17  0.315440 0.857299 0.755944  1.818756 0.659268 1.317010
18  0.000001 2.265939 -0.000000  -0.099084 -0.037733 -0.688853
19  -0.000001 1.457812 -0.000000  -0.037760 0.040154 -0.153383
20  -1.259682 3.818374 1.286946  0.087511 0.000230 0.111810
21  -1.226392 3.891692 0.090419  0.005332 0.001603 0.009044
22  -1.231623 3.875535 -0.958680  -0.061758 -0.006265 -0.011920
23  -1.209921 3.994780 -2.003048  -0.108791 -0.013788 -0.026065
24  0.328906 0.095428 1.403533  1.818756 0.659268 1.317010
25  8.697409 -8.253369 15.977400  1.682355 -0.311999 -1.596087
26  24.489557 -12.765261 -10.634670  -1.570796 -0.000000 -1.570796
27  0.449198 -13.144855 -6.669335  -0.051945 -0.000000 -1.570796
28  -9.523657 -7.409284 -2.492052  1.178104 -0.009833 1.961370
29  0.000001 13.479277 0.000001  0.657103 -0.000000 0.000000
30  0.000001 13.477240 0.000002  0.263555 0.146754 -0.148549
31  0.267269 3.664726 -1.953293  0.109629 -0.107225 0.495176
32  -0.000001 1.180354 0.000002  -0.029953 -0.007842 0.846531
33  0.000000 0.817135 -0.000001  0.012285 -0.000556 1.260036
34  0.249423 3.688543 -0.940889  -0.126560 -0.145246 0.899651
35  -0.000001 1.800630 -0.000002  -0.009643 -0.027168 1.400081
36  0.000000 1.243405 0.000001  0.002452 -0.006045 1.256197
37  0.244727 3.701096 0.087732  -0.174754 -0.151318 0.769502
38  0.000000 1.766585 0.000001  0.009385 0.010267 1.319679
39  0.000003 1.189004 -0.000001  -0.006898 0.016298 1.212361
40  0.277239 3.632248 1.274103  -0.295695 -0.170063 0.706218
41  -0.000001 1.798495 -0.000000  0.035176 0.008609 1.280163
42  -0.000001 1.235452 -0.000000  -0.008523 0.000599 1.061936
43  -0.315441 0.857302 0.755943  -0.678476 -2.468995 1.317854
44  0.000000 2.265940 -0.000001  -0.026878 0.060881 0.878738
45  0.000002 1.457815 -0.000001  -0.051628 -0.019293 0.611810
46  1.259682 3.818375 1.286945  -0.295695 -0.170063 0.706217
47  1.226390 3.891694 0.090419  -0.174753 -0.151318 0.769501
48  1.231622 3.875536 -0.958681  -0.126560 -0.145246 0.899651
49  1.209918 3.994783 -2.003049  0.109629 -0.107225 0.495175
50  -0.328906 0.095429 1.403532  -0.678476 -2.468995 1.317854
51  -10.941189 -8.263663 22.968529  2.117321 0.093620 2.142558
52  -23.015259 -13.132422 13.334921  -1.570796 -0.000000 1.570796
53  -9.523657 -7.409284 -2.492052  -0.051945 0.000000 1.570796
54  -9.280611 -26.377796 -7.896104  0.753846 1.013292 -0.349041
55  -0.000001 -0.000001 -0.000002  0.000000 -0.000000 -0.000000
56  -0.000001 -0.000001 -0.000002  0.000000 -0.000000 -0.000000
end
