version 1
nodes
0 "blender_implicit" -1
1 "root" -1
2 "upperarm_l" 1
3 "lowerarm_l" 2
4 "hand_l" 3
5 "pinky_0_l" 4
6 "pinky_1_l" 5
7 "pinky_2_l" 6
8 "ring_0_l" 4
9 "ring_1_l" 8
10 "ring_2_l" 9
11 "middle_0_l" 4
12 "middle_1_l" 11
13 "middle_2_l" 12
14 "index_0_l" 4
15 "index_1_l" 14
16 "index_2_l" 15
17 "thumb_0_l" 4
18 "thumb_1_l" 17
19 "thumb_2_l" 18
20 "rig_index_l" 4
21 "rig_middle_l" 4
22 "rig_ring_l" 4
23 "rig_pinky_l" 4
24 "rig_thumb_l" 4
25 "rig_hand_l" 1
26 "rig_l" 1
27 "rig_upperarm_l" 1
28 "upperarm_r" 1
29 "lowerarm_r" 28
30 "hand_r" 29
31 "pinky_0_r" 30
32 "pinky_1_r" 31
33 "pinky_2_r" 32
34 "ring_0_r" 30
35 "ring_1_r" 34
36 "ring_2_r" 35
37 "middle_0_r" 30
38 "middle_1_r" 37
39 "middle_2_r" 38
40 "index_0_r" 30
41 "index_1_r" 40
42 "index_2_r" 41
43 "thumb_0_r" 30
44 "thumb_1_r" 43
45 "thumb_2_r" 44
46 "rig_index_r" 30
47 "rig_middle_r" 30
48 "rig_ring_r" 30
49 "rig_pinky_r" 30
50 "rig_thumb_r" 30
51 "rig_hand_r" 1
52 "rig_r" 1
53 "rig_upperarm_r" 1
54 "weapon_bone_CONTROL" -1
55 "weapon_bone_parent" 54
56 "weapon_bone" 55
end
skeleton
time 0
0  0 0 0  0 0 0
1  0.000000 0.000000 0.000000  1.570796 -0.000000 0.000000
2  0.449198 -13.144855 -6.669335  0.490601 0.136172 -1.577608
3  0.000002 13.479276 0.000001  0.981177 0.000000 -0.000000
4  0.000001 13.477239 -0.000001  0.479910 -0.209447 0.728302
5  -0.267270 3.664726 -1.953294  -0.108790 -0.013788 -0.026065
6  -0.000001 1.180356 0.000001  -0.034029 -0.015446 -0.403202
7  0.000000 0.817134 0.000000  0.006682 -0.010324 -0.218454
8  -0.249423 3.688540 -0.940889  -0.061758 -0.006265 -0.011920
9  -0.000001 1.800633 -0.000001  0.004369 0.003102 -0.427837
10  0.000001 1.243406 0.000001  0.006376 0.001380 -0.283965
11  -0.244727 3.701096 0.087733  0.005332 0.001603 0.009044
12  -0.000001 1.766585 0.000000  0.003116 -0.003017 -0.449710
13  0.000000 1.189005 -0.000000  -0.016905 -0.005239 -0.342445
14  -0.277239 3.632247 1.274103  0.087512 0.000229 0.111810
15  -0.000002 1.798495 -0.000000  0.035324 0.013594 -0.367525
16  -0.000000 1.235451 0.000001  -0.005691 0.006373 -0.149850
17  0.315442 0.857299 0.755944  1.818756 0.659267 1.317010
18  -0.000000 2.265939 0.000000  -0.099084 -0.037733 -0.688853
19  0.000001 1.457811 0.000000  -0.037760 0.040153 -0.153383
20  -1.259681 3.818374 1.286946  0.087511 0.000230 0.111810
21  -1.226391 3.891693 0.090420  0.005332 0.001603 0.009044
22  -1.231623 3.875534 -0.958679  -0.061758 -0.006265 -0.011920
23  -1.209918 3.994781 -2.003048  -0.108790 -0.013788 -0.026066
24  0.328908 0.095428 1.403533  1.818756 0.659268 1.317010
25  13.652142 -15.917541 12.909437  2.074395 -0.598176 -1.750965
26  24.489557 -12.765261 -10.634670  -1.570796 -0.000000 -1.570796
27  0.449198 -13.144855 -6.669335  -0.051945 -0.000000 -1.570796
28  -9.523657 -7.409284 -2.492052  1.178104 -0.009833 1.961370
29  0.000001 13.479277 0.000001  0.657103 -0.000000 0.000000
30  0.000001 13.477240 0.000002  0.263555 0.146754 -0.148549
31  0.267269 3.664726 -1.953293  0.109629 -0.107225 0.495176
32  -0.000001 1.180354 0.000002  -0.029953 -0.007842 0.846531
33  0.000000 0.817135 -0.000001  0.012285 -0.000556 1.260036
34  0.249423 3.688543 -0.940889  -0.126560 -0.145246 0.899651
35  -0.000001 1.800630 -0.000002  -0.009643 -0.027168 1.400081
36  0.000000 1.243405 0.000001  0.002452 -0.006045 1.256197
37  0.244727 3.701096 0.087732  -0.174754 -0.151318 0.769502
38  0.000000 1.766585 0.000001  0.009385 0.010267 1.319679
39  0.000003 1.189004 -0.000001  -0.006898 0.016298 1.212361
40  0.277239 3.632248 1.274103  -0.295695 -0.170063 0.706218
41  -0.000001 1.798495 -0.000000  0.035176 0.008609 1.280163
42  -0.000001 1.235452 -0.000000  -0.008523 0.000599 1.061936
43  -0.315441 0.857302 0.755943  -0.678476 -2.468995 1.317854
44  0.000000 2.265940 -0.000001  -0.026878 0.060881 0.878738
45  0.000002 1.457815 -0.000001  -0.051628 -0.019293 0.611810
46  1.259682 3.818375 1.286945  -0.295695 -0.170063 0.706217
47  1.226390 3.891694 0.090419  -0.174753 -0.151318 0.769501
48  1.231622 3.875536 -0.958681  -0.126560 -0.145246 0.899651
49  1.209918 3.994783 -2.003049  0.109629 -0.107225 0.495175
50  -0.328906 0.095429 1.403532  -0.678476 -2.468995 1.317854
51  -10.941189 -8.263663 22.968529  2.117321 0.093620 2.142558
52  -23.015259 -13.132422 13.334921  -1.570796 -0.000000 1.570796
53  -9.523657 -7.409284 -2.492052  -0.051945 0.000000 1.570796
54  -9.280611 -26.377796 -7.896104  0.753846 1.013292 -0.349041
55  -0.000001 -0.000001 -0.000002  0.000000 -0.000000 -0.000000
56  -0.000001 -0.000001 -0.000002  0.000000 -0.000000 -0.000000
time 1
0  0 0 0  0 0 0
1  0.000000 0.000000 0.000000  1.570796 -0.000000 0.000000
2  0.449198 -13.144855 -6.669335  0.404134 0.149400 -1.579835
3  -0.000001 13.479279 0.000000  1.095043 0.000000 -0.000000
4  0.000000 13.477240 -0.000001  0.445175 -0.113766 0.722268
5  -0.267268 3.664726 -1.953292  -0.109249 -0.009475 0.013343
6  0.000001 1.180353 0.000000  -0.034614 -0.014086 -0.363581
7  0.000001 0.817136 -0.000000  0.006268 -0.010581 -0.178812
8  -0.249421 3.688542 -0.940888  -0.061958 -0.003814 0.027646
9  -0.000000 1.800632 -0.000000  0.004489 0.002926 -0.388196
10  0.000001 1.243407 0.000000  0.006426 0.001127 -0.244325
11  -0.244726 3.701097 0.087733  0.005391 0.001390 0.048685
12  0.000001 1.766584 0.000000  0.002994 -0.003139 -0.410069
13  -0.000001 1.189001 -0.000001  -0.017099 -0.004565 -0.302809
14  -0.277239 3.632248 1.274102  0.087448 -0.003243 0.151299
15  -0.000001 1.798494 0.000000  0.035834 0.012185 -0.327936
16  0.000000 1.235451 0.000001  -0.005434 0.006594 -0.110238
17  0.315442 0.857300 0.755943  1.806667 0.592802 1.297448
18  0.000001 2.265939 -0.000001  -0.102681 -0.035058 -0.621481
19  0.000000 1.457811 0.000002  -0.034971 0.042605 -0.085980
20  -1.259681 3.818376 1.286946  0.087448 -0.003243 0.151299
21  -1.226389 3.891693 0.090419  0.005391 0.001390 0.048685
22  -1.231621 3.875535 -0.958680  -0.061958 -0.003814 0.027646
23  -1.209919 3.994781 -2.003048  -0.109249 -0.009475 0.013343
24  0.328908 0.095428 1.403533  1.806667 0.592803 1.297448
25  13.780743 -16.055128 11.863887  2.005285 -0.576279 -1.658903
26  24.489557 -12.765261 -10.634670  -1.570796 -0.000000 -1.570796
27  0.449198 -13.144855 -6.669335  -0.051945 -0.000000 -1.570796
28  -9.523657 -7.617284 -1.556052  0.844695 -0.010419 1.843924
29  0.000001 13.479277 0.000000  1.194177 0.157333 0.377201
30  0.000001 13.477238 -0.000001  -0.108338 -0.000035 -0.087637
31  0.267269 3.664727 -1.953292  0.109629 -0.107225 0.495175
32  -0.000002 1.180356 -0.000001  -0.029954 -0.007842 0.846531
33  -0.000005 0.817134 0.000001  0.012285 -0.000556 1.260036
34  0.249423 3.688542 -0.940889  -0.126560 -0.145246 0.899651
35  0.000001 1.800632 0.000000  -0.009643 -0.027168 1.400081
36  -0.000000 1.243407 0.000000  0.002452 -0.006045 1.256196
37  0.244727 3.701097 0.087731  -0.174753 -0.151318 0.769501
38  -0.000000 1.766582 0.000002  0.009385 0.010267 1.319679
39  -0.000000 1.189004 -0.000001  -0.006898 0.016298 1.212361
40  0.277239 3.632248 1.274102  -0.295695 -0.170063 0.706217
41  0.000001 1.798495 -0.000000  0.035176 0.008609 1.280163
42  0.000003 1.235451 0.000000  -0.008523 0.000599 1.061936
43  -0.315441 0.857299 0.755943  -0.678476 -2.468995 1.317854
44  0.000003 2.265938 0.000000  -0.026878 0.060881 0.878738
45  0.000000 1.457813 -0.000000  -0.051628 -0.019293 0.611810
46  1.259681 3.818375 1.286945  -0.295695 -0.170063 0.706217
47  1.226391 3.891693 0.090419  -0.174753 -0.151318 0.769501
48  1.231623 3.875535 -0.958682  -0.126560 -0.145246 0.899651
49  1.209919 3.994781 -2.003048  0.109629 -0.107225 0.495175
50  -0.328905 0.095429 1.403532  -0.678476 -2.468995 1.317854
51  -12.574946 -8.713137 20.726532  1.859978 -0.097743 2.251407
52  -24.856995 -12.032474 9.523754  -1.570796 -0.000000 1.570796
53  -9.523657 -7.617284 -1.556052  -0.051945 0.000000 1.570796
54  -11.246017 -24.256111 -9.253263  1.332935 0.952086 0.038904
55  0.000000 0.000000 -0.000002  -0.000000 -0.000000 0.000000
56  0.000000 0.000000 -0.000002  -0.000000 -0.000000 0.000000
time 2
0  0 0 0  0 0 0
1  0.000000 0.000000 0.000000  1.570796 -0.000000 0.000000
2  0.449198 -13.144855 -6.669335  0.227751 0.183403 -1.585604
3  0.000001 13.479277 0.000000  1.303743 0.000000 -0.000000
4  -0.000000 13.477239 -0.000000  0.369455 0.086185 0.713336
5  -0.267270 3.664726 -1.953293  -0.109652 0.001101 0.109510
6  0.000000 1.180355 0.000000  -0.035812 -0.010677 -0.266890
7  0.000001 0.817134 -0.000000  0.005216 -0.011137 -0.082065
8  -0.249424 3.688541 -0.940890  -0.062036 0.002185 0.124205
9  0.000001 1.800632 0.000000  0.004751 0.002479 -0.291452
10  -0.000001 1.243405 -0.000001  0.006504 0.000501 -0.147581
11  -0.244727 3.701095 0.087732  0.005500 0.000863 0.145429
12  0.000000 1.766583 0.000001  0.002676 -0.003413 -0.313323
13  0.000000 1.189002 -0.000002  -0.017460 -0.002892 -0.206077
14  -0.277240 3.632247 1.274101  0.086734 -0.011656 0.247681
15  0.000002 1.798494 -0.000000  0.036842 0.008670 -0.231321
16  0.000001 1.235451 -0.000000  -0.004772 0.007087 -0.013564
17  0.315440 0.857300 0.755943  1.797130 0.526679 1.278400
18  0.000000 2.265938 0.000001  -0.106089 -0.032148 -0.554126
19  -0.000001 1.457810 0.000002  -0.032022 0.044862 -0.018563
20  -1.259682 3.818375 1.286945  0.086734 -0.011656 0.247680
21  -1.226391 3.891693 0.090419  0.005500 0.000863 0.145429
22  -1.231624 3.875533 -0.958681  -0.062037 0.002185 0.124205
23  -1.209921 3.994781 -2.003049  -0.109652 0.001101 0.109510
24  0.328905 0.095428 1.403532  1.797130 0.526679 1.278400
25  14.063665 -16.357822 9.563675  1.845487 -0.523343 -1.456367
26  24.489557 -12.765261 -10.634670  -1.570796 -0.000000 -1.570796
27  0.449198 -13.144855 -6.669335  -0.051945 -0.000000 -1.570796
28  -9.523657 -8.113285 0.675947  0.373617 -0.032713 1.667448
29  0.000001 13.479275 0.000001  1.608456 -0.087064 1.161912
30  -0.000000 13.477239 -0.000001  -0.590846 -0.236295 0.043670
31  0.267270 3.664726 -1.953292  0.109629 -0.107225 0.495175
32  0.000001 1.180356 -0.000000  -0.029953 -0.007842 0.846531
33  0.000001 0.817136 -0.000000  0.012285 -0.000556 1.260036
34  0.249424 3.688542 -0.940890  -0.126560 -0.145246 0.899651
35  -0.000003 1.800632 -0.000001  -0.009643 -0.027168 1.400081
36  0.000001 1.243408 0.000001  0.002452 -0.006045 1.256196
37  0.244727 3.701096 0.087732  -0.174753 -0.151318 0.769501
38  0.000000 1.766585 0.000002  0.009385 0.010267 1.319679
39  0.000000 1.189001 0.000000  -0.006898 0.016298 1.212361
40  0.277240 3.632248 1.274101  -0.295695 -0.170063 0.706217
41  -0.000002 1.798497 -0.000000  0.035176 0.008609 1.280163
42  -0.000000 1.235448 0.000000  -0.008523 0.000599 1.061936
43  -0.315441 0.857300 0.755943  -0.678476 -2.468995 1.317854
44  0.000000 2.265940 -0.000001  -0.026878 0.060881 0.878738
45  0.000000 1.457814 -0.000002  -0.051628 -0.019293 0.611810
46  1.259683 3.818375 1.286946  -0.295695 -0.170063 0.706217
47  1.226392 3.891694 0.090419  -0.174753 -0.151318 0.769501
48  1.231625 3.875534 -0.958682  -0.126560 -0.145246 0.899651
49  1.209920 3.994781 -2.003047  0.109629 -0.107225 0.495175
50  -0.328905 0.095429 1.403532  -0.678476 -2.468995 1.317854
51  -15.904148 -9.288649 17.609550  1.262912 -0.431337 2.536674
52  -28.277363 -9.989712 2.445873  -1.570796 -0.000000 1.570796
53  -9.523657 -8.113285 0.675947  -0.051945 0.000000 1.570796
54  -14.896055 -20.315836 -11.773701  2.183475 0.640417 0.510197
55  -0.000001 0.000000 -0.000000  -0.000000 -0.000000 0.000000
56  -0.000001 0.000000 -0.000000  -0.000000 -0.000000 0.000000
time 3
0  0 0 0  0 0 0
1  0.000000 0.000000 0.000000  1.570796 -0.000000 0.000000
2  0.449198 -13.144855 -6.669335  0.061731 0.226209 -1.592974
3  0.000001 13.479277 0.000001  1.470520 0.000000 -0.000000
4  -0.000001 13.477239 0.000000  0.280821 0.277724 0.717109
5  -0.267269 3.664726 -1.953293  -0.108839 0.013395 0.221477
6  -0.000000 1.180356 0.000001  -0.036785 -0.006585 -0.154326
7  0.000001 0.817134 0.000000  0.003932 -0.011653 0.030576
8  -0.249421 3.688542 -0.940888  -0.061399 0.009139 0.236629
9  0.000001 1.800633 0.000001  0.004999 0.001929 -0.178816
10  0.000001 1.243408 -0.000000  0.006519 -0.000234 -0.034947
11  -0.244726 3.701095 0.087733  0.005562 0.000239 0.258064
12  0.000000 1.766586 0.000001  0.002276 -0.003692 -0.200686
13  -0.000001 1.189003 0.000000  -0.017674 -0.000912 -0.093458
14  -0.277238 3.632248 1.274102  0.084749 -0.021293 0.359917
15  0.000000 1.798492 -0.000002  0.037582 0.004478 -0.118842
16  -0.000001 1.235452 -0.000000  -0.003946 0.007578 0.098993
17  0.315442 0.857300 0.755943  1.798103 0.534470 1.280689
18  0.000000 2.265939 -0.000003  -0.105697 -0.032504 -0.562079
19  0.000000 1.457812 0.000002  -0.032378 0.044606 -0.026525
20  -1.259681 3.818375 1.286945  0.084749 -0.021293 0.359918
21  -1.226390 3.891693 0.090419  0.005562 0.000239 0.258064
22  -1.231622 3.875535 -0.958681  -0.061399 0.009139 0.236629
23  -1.209918 3.994781 -2.003048  -0.108840 0.013395 0.221477
24  0.328906 0.095430 1.403532  1.798103 0.534469 1.280689
25  14.346586 -16.660513 7.263463  1.666295 -0.458498 -1.253831
26  24.489557 -12.765261 -10.634670  -1.570796 -0.000000 -1.570796
27  0.449198 -13.144855 -6.669335  -0.051945 -0.000000 -1.570796
28  -9.523657 -8.705284 3.339948  0.092519 -0.055327 1.592406
29  -0.000004 13.479275 0.000000  1.570796 -0.287167 1.570797
30  -0.000002 13.477240 0.000001  -1.011508 -0.233153 0.201350
31  0.267269 3.664727 -1.953293  0.109629 -0.107225 0.495175
32  -0.000001 1.180355 -0.000002  -0.029954 -0.007842 0.846531
33  0.000002 0.817134 -0.000002  0.012286 -0.000556 1.260036
34  0.249423 3.688542 -0.940887  -0.126560 -0.145246 0.899651
35  0.000002 1.800632 -0.000003  -0.009643 -0.027168 1.400081
36  0.000000 1.243406 0.000000  0.002452 -0.006045 1.256196
37  0.244726 3.701095 0.087732  -0.174753 -0.151318 0.769502
38  -0.000001 1.766585 0.000001  0.009385 0.010267 1.319679
39  -0.000001 1.189005 -0.000000  -0.006898 0.016298 1.212362
40  0.277240 3.632249 1.274102  -0.295695 -0.170063 0.706218
41  0.000001 1.798495 -0.000001  0.035176 0.008609 1.280163
42  0.000000 1.235453 -0.000001  -0.008523 0.000599 1.061936
43  -0.315439 0.857300 0.755944  -0.678476 -2.468995 1.317854
44  -0.000001 2.265940 -0.000000  -0.026878 0.060881 0.878738
45  0.000001 1.457811 0.000002  -0.051628 -0.019293 0.611810
46  1.259681 3.818377 1.286947  -0.295695 -0.170063 0.706217
47  1.226388 3.891694 0.090420  -0.174753 -0.151318 0.769501
48  1.231624 3.875534 -0.958679  -0.126560 -0.145246 0.899651
49  1.209920 3.994782 -2.003048  0.109629 -0.107225 0.495175
50  -0.328906 0.095430 1.403532  -0.678476 -2.468995 1.317854
51  -17.931541 -9.648153 17.079966  0.646321 -0.577580 2.920723
52  -30.119099 -8.889764 -1.365295  -1.570796 -0.000000 1.570796
53  -9.523657 -8.705284 3.339948  -0.051945 0.000000 1.570796
54  -16.861462 -18.194151 -13.130859  2.650750 0.271875 0.633575
55  -0.000000 -0.000000 -0.000002  0.000000 -0.000000 0.000000
56  -0.000000 -0.000000 -0.000002  0.000000 -0.000000 0.000000
time 4
0  0 0 0  0 0 0
1  0.000000 0.000000 0.000000  1.570796 -0.000000 0.000000
2  0.449198 -13.144855 -6.669335  -0.012051 0.249505 -1.597045
3  -0.000001 13.479277 0.000000  1.535408 0.000000 -0.000000
4  0.000002 13.477239 -0.000001  0.187039 0.368361 0.701461
5  -0.267271 3.664727 -1.953292  -0.107934 0.019403 0.276691
6  -0.000001 1.180355 0.000001  -0.037093 -0.004534 -0.098831
7  0.000000 0.817134 0.000001  0.003279 -0.011853 0.086111
8  -0.249425 3.688542 -0.940888  -0.060799 0.012531 0.292061
9  0.000000 1.800632 -0.000001  0.005098 0.001649 -0.123284
10  0.000000 1.243407 0.000001  0.006496 -0.000595 0.020584
11  -0.244729 3.701097 0.087734  0.005567 -0.000070 0.313595
12  -0.000001 1.766584 -0.000002  0.002067 -0.003813 -0.145154
13  0.000001 1.189003 0.000001  -0.017698 0.000071 -0.037934
14  -0.277242 3.632250 1.274104  0.082901 -0.025962 0.415267
15  0.000001 1.798496 -0.000000  0.037773 0.002388 -0.063388
16  -0.000001 1.235451 0.000000  -0.003519 0.007786 0.154487
17  0.315438 0.857302 0.755945  1.800835 0.555034 1.286745
18  -0.000000 2.265940 -0.000001  -0.104650 -0.033426 -0.583048
19  0.000001 1.457810 0.000001  -0.033307 0.043917 -0.047516
20  -1.259681 3.818375 1.286947  0.082901 -0.025962 0.415267
21  -1.226392 3.891695 0.090420  0.005567 -0.000070 0.313595
22  -1.231624 3.875535 -0.958679  -0.060799 0.012531 0.292061
23  -1.209921 3.994783 -2.003047  -0.107934 0.019403 0.276691
24  0.328904 0.095429 1.403534  1.800835 0.555034 1.286745
25  14.475187 -16.798100 6.217914  1.539006 -0.400878 -1.161769
26  24.489557 -12.765261 -10.634670  -1.570796 -0.000000 -1.570796
27  0.449198 -13.144855 -6.669335  -0.051945 -0.000000 -1.570796
28  -9.523657 -9.201284 5.571948  0.825737 0.098582 2.474128
29  0.000000 13.479273 0.000000  1.578113 -0.007317 0.785372
30  -0.000001 13.477237 0.000001  -1.919352 0.099799 -0.289446
31  0.267269 3.664727 -1.953293  0.109629 -0.107225 0.495175
32  0.000001 1.180355 -0.000000  -0.029953 -0.007842 0.846531
33  0.000001 0.817134 0.000001  0.012285 -0.000556 1.260036
34  0.249421 3.688542 -0.940888  -0.126560 -0.145246 0.899651
35  -0.000000 1.800633 -0.000000  -0.009643 -0.027168 1.400081
36  -0.000001 1.243405 0.000003  0.002452 -0.006045 1.256196
37  0.244727 3.701097 0.087734  -0.174753 -0.151318 0.769501
38  0.000000 1.766586 0.000001  0.009385 0.010267 1.319679
39  0.000000 1.189003 -0.000000  -0.006898 0.016298 1.212361
40  0.277238 3.632247 1.274100  -0.295695 -0.170063 0.706217
41  0.000003 1.798494 -0.000001  0.035176 0.008609 1.280163
42  -0.000001 1.235450 0.000001  -0.008523 0.000599 1.061936
43  -0.315441 0.857300 0.755944  -0.678476 -2.468995 1.317854
44  0.000000 2.265939 0.000001  -0.026878 0.060881 0.878738
45  0.000001 1.457812 0.000002  -0.051628 -0.019293 0.611810
46  1.259679 3.818375 1.286946  -0.295695 -0.170063 0.706217
47  1.226390 3.891694 0.090420  -0.174753 -0.151318 0.769501
48  1.231624 3.875534 -0.958680  -0.126560 -0.145246 0.899651
49  1.209920 3.994782 -2.003049  0.109629 -0.107225 0.495175
50  -0.328907 0.095429 1.403533  -0.678476 -2.468995 1.317854
51  -10.455119 -7.371588 24.420296  0.285005 -0.305804 -2.969191
52  -14.122227 -15.062080 5.408922  -1.570796 -0.000000 1.570796
53  -9.523657 -9.201284 5.571948  -0.051945 0.000000 1.570796
54  -8.779198 -24.793968 -10.772673  2.820233 -0.086134 0.368890
55  0.000000 -0.000002 0.000001  0.000000 0.000000 0.000000
56  0.000000 -0.000002 0.000001  0.000000 0.000000 0.000000
time 5
0  0 0 0  0 0 0
1  0.000000 0.000000 0.000000  1.570796 -0.000000 0.000000
2  0.449198 -13.144855 -6.669335  -0.012706 0.247611 -1.596712
3  0.000000 13.479278 0.000000  1.541013 0.000000 -0.000000
4  0.000001 13.477238 -0.000001  0.099837 0.379451 0.654691
5  -0.267269 3.664728 -1.953293  -0.108821 0.013545 0.222853
6  0.000000 1.180355 -0.000001  -0.036794 -0.006534 -0.152943
7  -0.000000 0.817135 0.000000  0.003915 -0.011658 0.031959
8  -0.249422 3.688542 -0.940888  -0.061387 0.009224 0.238010
9  0.000000 1.800631 -0.000001  0.005002 0.001922 -0.177432
10  -0.000002 1.243406 0.000001  0.006519 -0.000243 -0.033563
11  -0.244725 3.701096 0.087733  0.005562 0.000232 0.259447
12  0.000001 1.766584 -0.000001  0.002271 -0.003695 -0.199303
13  0.000000 1.189003 -0.000001  -0.017675 -0.000887 -0.092074
14  -0.277238 3.632249 1.274102  0.083032 -0.021460 0.361289
15  -0.000001 1.798495 0.000001  0.037588 0.004427 -0.117465
16  -0.000001 1.235451 -0.000001  -0.003935 0.007584 0.100371
17  0.315443 0.857300 0.755944  1.805113 0.584171 1.295369
18  -0.000000 2.265938 -0.000001  -0.103137 -0.034692 -0.612697
19  -0.000000 1.457811 -0.000002  -0.034595 0.042910 -0.077189
20  -1.259681 3.818376 1.286946  0.083032 -0.021460 0.361289
21  -1.226389 3.891694 0.090419  0.005562 0.000231 0.259447
22  -1.231623 3.875535 -0.958680  -0.061387 0.009224 0.238010
23  -1.209918 3.994782 -2.003047  -0.108821 0.013545 0.222853
24  0.328907 0.095429 1.403532  1.805113 0.584171 1.295369
25  14.410299 -16.765850 6.218399  1.471988 -0.359726 -1.162109
26  24.489557 -12.765261 -10.634670  -1.570796 -0.000000 -1.570796
27  0.449198 -13.144855 -6.669335  -0.051945 -0.000000 -1.570796
28  -9.523657 -9.409285 6.507948  1.504699 -0.341474 -2.506266
29  -0.000003 13.479279 0.000000  0.206417 -0.000000 0.000000
30  0.000001 13.477240 -0.000000  -1.559141 -0.300240 -0.242740
31  0.267270 3.664726 -1.953290  0.109629 -0.107225 0.495175
32  0.000001 1.180355 0.000000  -0.029953 -0.007842 0.846531
33  0.000001 0.817135 -0.000003  0.012285 -0.000556 1.260036
34  0.249423 3.688541 -0.940887  -0.126560 -0.145246 0.899651
35  0.000001 1.800634 0.000002  -0.009643 -0.027168 1.400081
36  -0.000000 1.243407 -0.000000  0.002452 -0.006045 1.256196
37  0.244726 3.701095 0.087734  -0.174753 -0.151318 0.769501
38  -0.000001 1.766585 -0.000003  0.009385 0.010267 1.319679
39  -0.000000 1.189003 0.000003  -0.006898 0.016298 1.212361
40  0.277239 3.632248 1.274108  -0.295695 -0.170063 0.706217
41  0.000001 1.798495 0.000001  0.035176 0.008609 1.280163
42  0.000000 1.235452 -0.000001  -0.008523 0.000599 1.061936
43  -0.315441 0.857299 0.755949  -0.678476 -2.468995 1.317854
44  -0.000002 2.265938 0.000000  -0.026878 0.060881 0.878738
45  0.000004 1.457811 0.000001  -0.051628 -0.019293 0.611810
46  1.259681 3.818374 1.286947  -0.295695 -0.170063 0.706217
47  1.226391 3.891692 0.090422  -0.174753 -0.151318 0.769501
48  1.231623 3.875534 -0.958679  -0.126560 -0.145246 0.899651
49  1.209919 3.994781 -2.003045  0.109629 -0.107225 0.495175
50  -0.328906 0.095428 1.403532  -0.678476 -2.468995 1.317854
51  -2.891821 -3.283862 31.755499  0.168251 -0.057347 -2.770488
52  1.874645 -21.234402 12.576481  -1.570796 -0.000000 1.570796
53  -9.523657 -9.409285 6.507948  -0.051945 0.000000 1.570796
54  -0.696931 -31.952520 -6.391814  2.950465 -0.301064 0.134130
55  0.000001 -0.000002 -0.000000  0.000000 0.000000 0.000000
56  0.000001 -0.000002 -0.000000  0.000000 0.000000 0.000000
time 6
0  0 0 0  0 0 0
1  0.000000 0.000000 0.000000  1.570796 -0.000000 0.000000
2  0.449198 -13.144855 -6.669335  -0.014408 0.241608 -1.595660
3  0.000001 13.479277 0.000001  1.556737 0.000000 -0.000000
4  0.000000 13.477239 -0.000001  0.026617 0.390202 0.612255
5  -0.267268 3.664725 -1.953292  -0.109651 -0.001236 0.088286
6  -0.000000 1.180355 -0.000002  -0.035576 -0.011439 -0.288230
7  0.000002 0.817134 -0.000002  0.005453 -0.011023 -0.103418
8  -0.249421 3.688542 -0.940890  -0.062069 0.000860 0.102894
9  0.000000 1.800634 0.000001  0.004697 0.002580 -0.312803
10  0.000002 1.243407 -0.000001  0.006492 0.000639 -0.168933
11  -0.244725 3.701095 0.087734  0.005480 0.000980 0.124077
12  0.000002 1.766583 0.000000  0.002749 -0.003355 -0.334676
13  0.000001 1.189005 0.000001  -0.017394 -0.003264 -0.227426
14  -0.277237 3.632248 1.274103  0.084049 -0.009998 0.226381
15  -0.000003 1.798495 -0.000000  0.036649 0.009455 -0.252660
16  -0.000001 1.235452 -0.000000  -0.004922 0.006984 -0.034917
17  0.315443 0.857300 0.755943  1.810639 0.617656 1.305380
18  0.000001 2.265939 -0.000002  -0.101356 -0.036087 -0.646688
19  -0.000001 1.457810 0.000002  -0.036034 0.041709 -0.111202
20  -1.259680 3.818374 1.286946  0.084049 -0.009998 0.226381
21  -1.226388 3.891693 0.090419  0.005480 0.000980 0.124077
22  -1.231622 3.875533 -0.958679  -0.062069 0.000860 0.102894
23  -1.209916 3.994781 -2.003048  -0.109650 -0.001236 0.088286
24  0.328909 0.095428 1.403533  1.810639 0.617656 1.305380
25  14.226923 -16.665127 6.221796  1.423967 -0.330240 -1.164491
26  24.489557 -12.765261 -10.634670  -1.570796 -0.000000 -1.570796
27  0.449198 -13.144855 -6.669335  -0.051945 -0.000000 -1.570796
28  -9.523657 -9.409285 6.507948  1.619840 -0.366825 -2.642054
29  0.000000 13.479276 -0.000001  0.263520 -0.000000 0.000000
30  -0.000001 13.477238 0.000001  -1.281464 -0.202867 -0.171050
31  0.267269 3.664723 -1.953292  0.109629 -0.107225 0.495175
32  -0.000000 1.180356 0.000002  -0.029953 -0.007842 0.846531
33  0.000002 0.817135 -0.000001  0.012285 -0.000556 1.260036
34  0.249423 3.688538 -0.940888  -0.126560 -0.145246 0.899651
35  0.000002 1.800633 -0.000001  -0.009643 -0.027168 1.400081
36  -0.000000 1.243406 -0.000001  0.002452 -0.006045 1.256196
37  0.244726 3.701093 0.087734  -0.174753 -0.151318 0.769501
38  -0.000001 1.766585 0.000001  0.009385 0.010267 1.319679
39  -0.000001 1.189003 -0.000000  -0.006898 0.016298 1.212361
40  0.277239 3.632243 1.274101  -0.295695 -0.170063 0.706217
41  0.000003 1.798494 0.000001  0.035176 0.008609 1.280163
42  0.000001 1.235451 0.000003  -0.008523 0.000599 1.061936
43  -0.315442 0.857297 0.755945  -0.678476 -2.468995 1.317854
44  0.000000 2.265938 0.000006  -0.026878 0.060881 0.878738
45  -0.000000 1.457813 0.000003  -0.051628 -0.019293 0.611810
46  1.259681 3.818370 1.286944  -0.295695 -0.170063 0.706217
47  1.226390 3.891690 0.090418  -0.174753 -0.151318 0.769501
48  1.231623 3.875532 -0.958680  -0.126560 -0.145246 0.899651
49  1.209919 3.994777 -2.003048  0.109629 -0.107225 0.495175
50  -0.328906 0.095424 1.403531  -0.678476 -2.468995 1.317854
51  -3.549410 -0.675178 31.046387  0.620463 -0.140709 -2.784384
52  -0.191605 -21.198746 13.130068  -1.570796 -0.000000 1.570796
53  -9.523657 -9.409285 6.507948  -0.051945 0.000000 1.570796
54  -1.344711 -32.738884 -3.281029  2.482923 -0.260473 0.180735
55  -0.000000 0.000005 0.000001  -0.000000 0.000000 -0.000000
56  -0.000000 0.000005 0.000001  -0.000000 0.000000 -0.000000
time 7
0  0 0 0  0 0 0
1  0.000000 0.000000 0.000000  1.570796 -0.000000 0.000000
2  0.449198 -13.144855 -6.669335  -0.016587 0.230977 -1.593803
3  0.000002 13.479276 0.000000  1.580751 0.000000 -0.000000
4  -0.000000 13.477239 0.000000  -0.036338 0.397853 0.571647
5  -0.267269 3.664727 -1.953295  -0.107755 -0.020377 -0.086667
6  -0.000000 1.180355 -0.000001  -0.033026 -0.017490 -0.464124
7  0.000000 0.817136 0.000001  0.007299 -0.009898 -0.279404
8  -0.249422 3.688542 -0.940890  -0.061263 -0.010013 -0.072756
9  -0.000003 1.800633 0.000000  0.004172 0.003362 -0.488786
10  0.000001 1.243406 -0.000000  0.006280 0.001766 -0.344913
11  -0.244726 3.701096 0.087731  0.005224 0.001924 -0.051905
12  -0.000001 1.766586 -0.000001  0.003294 -0.002822 -0.510660
13  -0.000001 1.189005 0.000001  -0.016554 -0.006259 -0.403387
14  -0.277239 3.632250 1.274101  0.084234 0.005162 0.051044
15  -0.000002 1.798495 -0.000001  0.034431 0.015720 -0.428429
16  0.000000 1.235450 -0.000000  -0.006068 0.006015 -0.210784
17  0.315442 0.857300 0.755942  1.816857 0.651222 1.315568
18  -0.000003 2.265939 0.000000  -0.099530 -0.037421 -0.680684
19  -0.000001 1.457813 -0.000000  -0.037431 0.040461 -0.145212
20  -1.259681 3.818375 1.286944  0.084234 0.005162 0.051044
21  -1.226389 3.891695 0.090418  0.005224 0.001924 -0.051904
22  -1.231622 3.875534 -0.958681  -0.061263 -0.010013 -0.072756
23  -1.209918 3.994782 -2.003048  -0.107755 -0.020377 -0.086667
24  0.328907 0.095429 1.403531  1.816857 0.651222 1.315568
25  13.941984 -16.489967 6.231017  1.391778 -0.310474 -1.170956
26  24.489557 -12.765261 -10.634670  -1.570796 -0.000000 -1.570796
27  0.449198 -13.144855 -6.669335  -0.051945 -0.000000 -1.570796
28  -9.523657 -9.409285 6.507948  1.457216 -0.263416 -2.898489
29  -0.000000 13.479278 0.000000  0.757241 -0.000000 0.000000
30  0.000001 13.477236 -0.000000  -0.738801 0.036453 0.028318
31  0.267271 3.664728 -1.953292  0.109629 -0.107225 0.495175
32  -0.000004 1.180356 -0.000001  -0.029953 -0.007842 0.846531
33  0.000002 0.817135 0.000000  0.012285 -0.000556 1.260037
34  0.249423 3.688542 -0.940889  -0.126560 -0.145246 0.899651
35  -0.000000 1.800634 -0.000000  -0.009643 -0.027168 1.400081
36  -0.000000 1.243404 0.000000  0.002452 -0.006045 1.256196
37  0.244728 3.701097 0.087733  -0.174753 -0.151318 0.769501
38  -0.000002 1.766584 -0.000000  0.009385 0.010267 1.319679
39  0.000002 1.189001 0.000000  -0.006898 0.016298 1.212361
40  0.277240 3.632249 1.274102  -0.295695 -0.170063 0.706218
41  0.000004 1.798495 0.000000  0.035176 0.008609 1.280163
42  0.000001 1.235449 -0.000000  -0.008523 0.000599 1.061936
43  -0.315441 0.857299 0.755944  -0.678476 -2.468995 1.317854
44  0.000002 2.265938 0.000002  -0.026878 0.060881 0.878738
45  -0.000000 1.457812 0.000003  -0.051628 -0.019293 0.611810
46  1.259682 3.818377 1.286946  -0.295695 -0.170063 0.706217
47  1.226392 3.891696 0.090419  -0.174753 -0.151318 0.769501
48  1.231624 3.875530 -0.958681  -0.126560 -0.145246 0.899651
49  1.209920 3.994780 -2.003048  0.109629 -0.107225 0.495175
50  -0.328905 0.095430 1.403533  -0.678476 -2.468995 1.317854
51  -4.993839 -1.526882 29.846710  1.471539 -0.307915 -2.885716
52  -4.765022 -20.949160 13.334021  -1.570796 -0.000000 1.570796
53  -9.523657 -9.409285 6.507948  -0.051945 0.000000 1.570796
54  -2.909343 -33.028595 -1.741838  1.624994 -0.161104 0.264459
55  0.000000 0.000000 0.000001  0.000000 0.000000 -0.000000
56  0.000000 0.000000 0.000001  0.000000 0.000000 -0.000000
time 8
0  0 0 0  0 0 0
1  0.000000 0.000000 0.000000  1.570796 -0.000000 0.000000
2  0.449198 -13.144855 -6.669335  -0.018509 0.215149 -1.591057
3  0.000002 13.479277 0.000000  1.611053 0.000000 -0.000000
4  0.000000 13.477239 -0.000001  -0.092541 0.399582 0.530727
5  -0.267270 3.664726 -1.953291  -0.102553 -0.038895 -0.261753
6  0.000001 1.180353 0.000001  -0.029455 -0.023001 -0.640054
7  0.000001 0.817134 -0.000002  0.008919 -0.008467 -0.455385
8  -0.249421 3.688542 -0.940887  -0.058569 -0.020578 -0.248444
9  0.000001 1.800633 -0.000000  0.003519 0.004041 -0.664770
10  0.000001 1.243406 0.000000  0.005874 0.002838 -0.520894
11  -0.244726 3.701096 0.087734  0.004806 0.002809 -0.227887
12  0.000000 1.766585 0.000000  0.003737 -0.002202 -0.686643
13  -0.000001 1.189002 -0.000002  -0.015203 -0.009061 -0.579353
14  -0.277239 3.632248 1.274103  0.082864 0.020342 -0.124299
15  0.000002 1.798494 -0.000000  0.031151 0.021500 -0.604230
16  0.000000 1.235453 -0.000001  -0.007027 0.004860 -0.386648
17  0.315443 0.857299 0.755944  1.822874 0.680562 1.324640
18  -0.000000 2.265939 -0.000000  -0.097900 -0.038534 -0.710343
19  -0.000001 1.457811 -0.000000  -0.038614 0.039333 -0.174877
20  -1.259682 3.818375 1.286946  0.082864 0.020342 -0.124299
21  -1.226390 3.891693 0.090420  0.004806 0.002809 -0.227887
22  -1.231622 3.875534 -0.958680  -0.058569 -0.020578 -0.248444
23  -1.209917 3.994781 -2.003047  -0.102553 -0.038895 -0.261753
24  0.328907 0.095429 1.403534  1.822874 0.680562 1.324640
25  13.572409 -16.234413 6.248974  1.372252 -0.298486 -1.183545
26  24.489557 -12.765261 -10.634670  -1.570796 -0.000000 -1.570796
27  0.449198 -13.144855 -6.669335  -0.051945 -0.000000 -1.570796
28  -9.523657 -9.409285 6.507948  1.446275 -0.096315 3.091269
29  0.000000 13.479277 0.000000  0.818772 -0.000000 0.000000
30  0.000001 13.477239 -0.000000  -0.248670 0.293307 0.142368
31  0.267268 3.664725 -1.953292  0.109629 -0.107225 0.495175
32  -0.000001 1.180359 0.000002  -0.029953 -0.007842 0.846531
33  -0.000003 0.817134 -0.000000  0.012285 -0.000556 1.260036
34  0.249422 3.688542 -0.940888  -0.126560 -0.145246 0.899651
35  -0.000003 1.800632 0.000002  -0.009643 -0.027168 1.400081
36  -0.000001 1.243407 0.000001  0.002452 -0.006045 1.256196
37  0.244725 3.701094 0.087734  -0.174753 -0.151318 0.769501
38  -0.000005 1.766583 0.000001  0.009385 0.010267 1.319679
39  0.000001 1.189006 0.000000  -0.006898 0.016298 1.212362
40  0.277238 3.632246 1.274103  -0.295695 -0.170063 0.706217
41  0.000002 1.798496 0.000002  0.035176 0.008609 1.280163
42  0.000003 1.235449 0.000000  -0.008523 0.000599 1.061936
43  -0.315441 0.857301 0.755943  -0.678476 -2.468995 1.317854
44  -0.000002 2.265939 -0.000001  -0.026878 0.060881 0.878738
45  -0.000001 1.457812 -0.000003  -0.051628 -0.019293 0.611810
46  1.259680 3.818373 1.286946  -0.295695 -0.170063 0.706217
47  1.226391 3.891693 0.090420  -0.174753 -0.151318 0.769501
48  1.231623 3.875535 -0.958681  -0.126560 -0.145246 0.899651
49  1.209919 3.994781 -2.003048  0.109629 -0.107225 0.495175
50  -0.328907 0.095430 1.403533  -0.678476 -2.468995 1.317854
51  -6.894795 -2.584386 30.129951  -1.181972 -2.752707 0.096413
52  -9.407612 -20.271708 13.363155  -1.570796 -0.000000 1.570796
53  -9.523657 -9.409285 6.507948  -0.051945 0.000000 1.570796
54  -4.822768 -33.069984 -1.327948  1.173934 -0.037420 0.307688
55  -0.000000 0.000002 -0.000003  0.000000 -0.000000 0.000000
56  -0.000000 0.000002 -0.000003  0.000000 -0.000000 0.000000
time 9
0  0 0 0  0 0 0
1  0.000000 0.000000 0.000000  1.570796 -0.000000 0.000000
2  0.449198 -13.144855 -6.669335  -0.019333 0.193523 -1.587335
3  0.000001 13.479276 0.000000  1.645526 0.000000 -0.000000
4  -0.000001 13.477238 -0.000000  -0.145371 0.392444 0.487865
5  -0.267268 3.664727 -1.953293  -0.096393 -0.052360 -0.396596
6  -0.000002 1.180355 -0.000001  -0.026082 -0.026765 -0.775413
7  0.000001 0.817136 -0.000000  0.009980 -0.007186 -0.590752
8  -0.249422 3.688543 -0.940890  -0.055261 -0.028290 -0.383637
9  -0.000000 1.800633 0.000002  0.002942 0.004479 -0.800143
10  0.000003 1.243409 -0.000002  0.005437 0.003605 -0.656265
11  -0.244726 3.701096 0.087733  0.004383 0.003432 -0.363258
12  0.000002 1.766586 -0.000000  0.004000 -0.001677 -0.822014
13  0.000002 1.189003 -0.000000  -0.013841 -0.011029 -0.714718
14  -0.277239 3.632249 1.274101  0.080727 0.031844 -0.259221
15  -0.000002 1.798494 -0.000001  0.027967 0.025505 -0.739490
16  0.000000 1.235452 0.000001  -0.007618 0.003868 -0.521928
17  0.315442 0.857300 0.755943  1.827480 0.701345 1.331183
18  0.000000 2.265940 0.000001  -0.096728 -0.039291 -0.731323
19  -0.000001 1.457810 0.000001  -0.039431 0.038514 -0.195858
20  -1.259680 3.818375 1.286946  0.080727 0.031844 -0.259221
21  -1.226391 3.891694 0.090418  0.004383 0.003432 -0.363258
22  -1.231623 3.875535 -0.958681  -0.055261 -0.028290 -0.383637
23  -1.209918 3.994783 -2.003049  -0.096394 -0.052360 -0.396596
24  0.328907 0.095429 1.403532  1.827480 0.701345 1.331183
25  13.135126 -15.892500 6.278579  1.362226 -0.292329 -1.204301
26  24.489557 -12.765261 -10.634670  -1.570796 -0.000000 -1.570796
27  0.449198 -13.144855 -6.669335  -0.051945 -0.000000 -1.570796
28  -9.523657 -9.409285 6.507948  1.410235 0.048003 2.864289
29  -0.000000 13.479277 0.000001  0.869793 -0.000000 0.000000
30  0.000000 13.477239 -0.000002  -0.203700 0.451279 0.192408
31  0.267267 3.664726 -1.953294  0.109629 -0.107225 0.495175
32  -0.000005 1.180354 0.000003  -0.029953 -0.007842 0.846531
33  -0.000001 0.817134 -0.000001  0.012285 -0.000556 1.260036
34  0.249421 3.688541 -0.940890  -0.126560 -0.145246 0.899651
35  -0.000002 1.800632 0.000001  -0.009643 -0.027168 1.400081
36  -0.000001 1.243407 0.000001  0.002452 -0.006045 1.256196
37  0.244724 3.701097 0.087731  -0.174753 -0.151318 0.769501
38  -0.000002 1.766585 -0.000000  0.009385 0.010267 1.319679
39  -0.000002 1.189003 -0.000000  -0.006898 0.016298 1.212361
40  0.277236 3.632247 1.274102  -0.295695 -0.170063 0.706217
41  0.000003 1.798496 -0.000001  0.035176 0.008609 1.280163
42  -0.000002 1.235451 0.000000  -0.008523 0.000599 1.061936
43  -0.315443 0.857300 0.755942  -0.678476 -2.468995 1.317854
44  -0.000000 2.265938 0.000001  -0.026878 0.060881 0.878738
45  -0.000001 1.457813 -0.000001  -0.051628 -0.019293 0.611810
46  1.259679 3.818374 1.286945  -0.295695 -0.170063 0.706217
47  1.226389 3.891694 0.090417  -0.174753 -0.151318 0.769501
48  1.231622 3.875535 -0.958681  -0.126560 -0.145246 0.899651
49  1.209917 3.994782 -2.003050  0.109629 -0.107225 0.495175
50  -0.328908 0.095428 1.403532  -0.678476 -2.468995 1.317854
51  -8.796898 -2.731182 30.013670  -1.150106 -2.760705 -0.039280
52  -12.244873 -17.766769 13.362366  -1.570796 -0.000000 1.570796
53  -9.523657 -9.409285 6.507948  -0.051945 0.000000 1.570796
54  -6.606206 -32.938309 -1.652721  1.182917 0.089406 0.299067
55  -0.000001 0.000002 -0.000001  0.000000 -0.000000 -0.000000
56  -0.000001 0.000002 -0.000001  0.000000 -0.000000 -0.000000
time 10
0  0 0 0  0 0 0
1  0.000000 0.000000 0.000000  1.570796 -0.000000 0.000000
2  0.449198 -13.144855 -6.669335  -0.018162 0.165484 -1.582555
3  0.000000 13.479278 0.000000  1.681977 0.000000 -0.000000
4  -0.000001 13.477240 0.000001  -0.198034 0.373325 0.442105
5  -0.267268 3.664725 -1.953292  -0.093429 -0.057492 -0.450582
6  0.000000 1.180357 0.000001  -0.024595 -0.028137 -0.829564
7  -0.000001 0.817137 -0.000000  0.010354 -0.006636 -0.644899
8  -0.249421 3.688540 -0.940889  -0.053651 -0.031238 -0.437730
9  -0.000000 1.800632 0.000001  0.002695 0.004631 -0.854292
10  -0.000002 1.243408 -0.000001  0.005234 0.003894 -0.710414
11  -0.244725 3.701096 0.087732  0.004191 0.003664 -0.417407
12  0.000000 1.766584 -0.000000  0.004085 -0.001458 -0.876163
13  0.000002 1.189004 -0.000001  -0.013224 -0.011762 -0.768866
14  -0.277238 3.632248 1.274102  0.079614 0.036369 -0.313206
15  -0.000001 1.798496 -0.000000  0.026547 0.026980 -0.793602
16  0.000001 1.235450 -0.000001  -0.007816 0.003451 -0.576040
17  0.315443 0.857299 0.755943  1.829306 0.709234 1.333695
18  -0.000000 2.265940 0.000001  -0.096279 -0.039572 -0.739281
19  0.000000 1.457812 0.000001  -0.039736 0.038199 -0.203815
20  -1.259680 3.818375 1.286946  0.079614 0.036369 -0.313206
21  -1.226388 3.891693 0.090419  0.004191 0.003664 -0.417407
22  -1.231622 3.875533 -0.958681  -0.053651 -0.031238 -0.437730
23  -1.209917 3.994782 -2.003048  -0.093429 -0.057492 -0.450582
24  0.328907 0.095428 1.403532  1.829306 0.709234 1.333695
25  12.647062 -15.458266 6.322743  1.358532 -0.290061 -1.235264
26  24.489557 -12.765261 -10.634670  -1.570796 -0.000000 -1.570796
27  0.449198 -13.144855 -6.669335  -0.051945 -0.000000 -1.570796
28  -9.523657 -9.409285 6.507948  1.290621 0.164214 2.603945
29  0.000000 13.479275 -0.000001  0.959853 -0.000000 0.000000
30  -0.000000 13.477236 0.000001  -0.130977 0.600987 0.206064
31  0.267271 3.664721 -1.953292  0.109629 -0.107225 0.495175
32  0.000004 1.180354 -0.000001  -0.029953 -0.007842 0.846531
33  -0.000002 0.817133 -0.000001  0.012285 -0.000556 1.260037
34  0.249425 3.688538 -0.940889  -0.126560 -0.145246 0.899651
35  0.000000 1.800632 0.000000  -0.009643 -0.027168 1.400081
36  0.000001 1.243404 -0.000000  0.002452 -0.006045 1.256196
37  0.244727 3.701093 0.087733  -0.174753 -0.151318 0.769501
38  0.000001 1.766585 0.000000  0.009385 0.010267 1.319679
39  0.000001 1.189007 0.000001  -0.006898 0.016298 1.212361
40  0.277240 3.632244 1.274102  -0.295695 -0.170063 0.706218
41  -0.000002 1.798493 0.000000  0.035176 0.008609 1.280163
42  0.000003 1.235452 -0.000001  -0.008523 0.000599 1.061936
43  -0.315440 0.857297 0.755943  -0.678476 -2.468995 1.317854
44  0.000002 2.265939 -0.000000  -0.026878 0.060881 0.878738
45  0.000000 1.457812 0.000000  -0.051628 -0.019293 0.611810
46  1.259683 3.818371 1.286946  -0.295695 -0.170063 0.706217
47  1.226393 3.891691 0.090419  -0.174753 -0.151318 0.769501
48  1.231623 3.875531 -0.958681  -0.126560 -0.145246 0.899651
49  1.209921 3.994778 -2.003048  0.109629 -0.107225 0.495175
50  -0.328905 0.095425 1.403532  -0.678476 -2.468995 1.317854
51  -10.385079 -3.373219 29.627586  -1.122537 -2.786005 -0.173665
52  -13.656279 -14.123275 13.360220  -1.570796 -0.000000 1.570796
53  -9.523657 -9.409285 6.507948  -0.051945 0.000000 1.570796
54  -8.137994 -32.574268 -2.488134  1.191300 0.216754 0.277882
55  0.000001 0.000002 -0.000001  0.000000 -0.000000 -0.000000
56  0.000001 0.000002 -0.000001  0.000000 -0.000000 -0.000000
time 11
0  0 0 0  0 0 0
1  0.000000 0.000000 0.000000  1.570796 -0.000000 0.000000
2  0.449198 -13.144855 -6.669335  -0.014211 0.130448 -1.576646
3  0.000001 13.479278 0.000001  1.718333 0.000000 -0.000000
4  -0.000001 13.477240 0.000002  -0.253520 0.338978 0.393305
5  -0.267271 3.664727 -1.953292  -0.094106 -0.056374 -0.438675
6  -0.000000 1.180356 0.000002  -0.024930 -0.027842 -0.817622
7  0.000001 0.817135 -0.000002  0.010274 -0.006759 -0.632959
8  -0.249424 3.688542 -0.940888  -0.054020 -0.030596 -0.425801
9  0.000001 1.800633 -0.000000  0.002750 0.004599 -0.842351
10  0.000001 1.243405 -0.000000  0.005280 0.003831 -0.698473
11  -0.244727 3.701096 0.087734  0.004235 0.003614 -0.405466
12  -0.000002 1.766585 -0.000000  0.004067 -0.001507 -0.864222
13  0.000001 1.189003 -0.000001  -0.013363 -0.011604 -0.756925
14  -0.277241 3.632248 1.274103  0.079968 0.035385 -0.301299
15  0.000001 1.798495 -0.000000  0.026867 0.026661 -0.781668
16  -0.000002 1.235451 0.000001  -0.007775 0.003544 -0.564106
17  0.315440 0.857300 0.755944  1.828985 0.707833 1.333218
18  0.000002 2.265939 -0.000003  -0.096359 -0.039523 -0.737869
19  0.000000 1.457812 -0.000001  -0.039682 0.038255 -0.202403
20  -1.259683 3.818374 1.286947  0.079968 0.035386 -0.301299
21  -1.226392 3.891692 0.090420  0.004235 0.003614 -0.405466
22  -1.231625 3.875533 -0.958680  -0.054020 -0.030596 -0.425801
23  -1.209920 3.994781 -2.003047  -0.094107 -0.056374 -0.438675
24  0.328905 0.095428 1.403533  1.828985 0.707834 1.333218
25  12.125143 -14.925753 6.384378  1.358005 -0.289737 -1.278477
26  24.489557 -12.765261 -10.634670  -1.570796 -0.000000 -1.570796
27  0.449198 -13.144855 -6.669335  -0.051945 -0.000000 -1.570796
28  -9.523657 -9.409285 6.507948  1.125730 0.222361 2.353634
29  -0.000002 13.479280 0.000000  1.070825 -0.000000 0.000000
30  -0.000000 13.477238 -0.000001  -0.063739 0.700293 0.181110
31  0.267268 3.664725 -1.953292  0.109629 -0.107225 0.495175
32  -0.000001 1.180356 -0.000000  -0.029953 -0.007842 0.846531
33  -0.000001 0.817135 0.000004  0.012285 -0.000556 1.260036
34  0.249419 3.688539 -0.940888  -0.126560 -0.145246 0.899651
35  0.000000 1.800633 0.000004  -0.009643 -0.027168 1.400081
36  0.000002 1.243403 0.000002  0.002452 -0.006045 1.256196
37  0.244723 3.701092 0.087735  -0.174753 -0.151318 0.769501
38  0.000003 1.766585 0.000000  0.009385 0.010267 1.319679
39  -0.000001 1.189004 0.000002  -0.006898 0.016298 1.212361
40  0.277238 3.632245 1.274103  -0.295695 -0.170063 0.706217
41  0.000004 1.798493 0.000001  0.035176 0.008609 1.280163
42  -0.000001 1.235450 0.000000  -0.008523 0.000599 1.061936
43  -0.315444 0.857298 0.755945  -0.678476 -2.468995 1.317854
44  -0.000001 2.265939 -0.000001  -0.026878 0.060881 0.878738
45  0.000002 1.457808 -0.000001  -0.051628 -0.019293 0.611810
46  1.259678 3.818371 1.286948  -0.295695 -0.170063 0.706217
47  1.226387 3.891688 0.090422  -0.174753 -0.151318 0.769501
48  1.231620 3.875531 -0.958678  -0.126560 -0.145246 0.899651
49  1.209916 3.994779 -2.003047  0.109629 -0.107225 0.495175
50  -0.328909 0.095427 1.403533  -0.678476 -2.468995 1.317854
51  -11.632915 -4.325218 29.028194  -1.099118 -2.825163 -0.304624
52  -14.584795 -12.260130 13.357056  -1.570796 -0.000000 1.570796
53  -9.523657 -9.409285 6.507948  -0.051945 0.000000 1.570796
54  -9.385752 -32.024330 -3.625829  1.193543 0.343730 0.245634
55  0.000001 0.000001 -0.000001  0.000000 0.000000 0.000000
56  0.000001 0.000001 -0.000001  0.000000 0.000000 0.000000
time 12
0  0 0 0  0 0 0
1  0.000000 0.000000 0.000000  1.570796 -0.000000 0.000000
2  0.449198 -13.144855 -6.669335  -0.006286 0.087932 -1.569548
3  0.000001 13.479277 0.000001  1.751830 0.000000 -0.000000
4  0.000001 13.477237 0.000000  -0.313290 0.213736 0.379447
5  -0.267270 3.664727 -1.953293  -0.095878 -0.053300 -0.406362
6  0.000000 1.180356 0.000001  -0.025819 -0.027019 -0.785211
7  0.000000 0.817134 0.000001  0.010050 -0.007088 -0.600549
8  -0.249424 3.688541 -0.940889  -0.054981 -0.028830 -0.393424
9  -0.000001 1.800632 0.000000  0.002898 0.004507 -0.809941
10  -0.000001 1.243406 0.000000  0.005401 0.003658 -0.666063
11  -0.244727 3.701096 0.087733  0.004350 0.003475 -0.373056
12  0.000001 1.766584 0.000001  0.004016 -0.001638 -0.831812
13  0.000001 1.189003 0.000001  -0.013732 -0.011164 -0.724516
14  -0.277240 3.632248 1.274103  0.080892 0.032702 -0.268984
15  0.000000 1.798494 0.000000  0.027716 0.025777 -0.749278
16  0.000001 1.235452 -0.000000  -0.007656 0.003794 -0.531716
17  0.315440 0.857300 0.755944  1.828123 0.704032 1.331925
18  -0.000001 2.265939 0.000001  -0.096575 -0.039387 -0.734036
19  -0.000001 1.457812 -0.000000  -0.039535 0.038407 -0.198571
20  -1.259682 3.818375 1.286946  0.080892 0.032702 -0.268984
21  -1.226391 3.891694 0.090418  0.004349 0.003475 -0.373056
22  -1.231623 3.875535 -0.958681  -0.054981 -0.028830 -0.393424
23  -1.209919 3.994783 -2.003048  -0.095878 -0.053300 -0.406362
24  0.328905 0.095430 1.403533  1.828122 0.704032 1.331925
25  11.586298 -14.288996 6.466398  1.372997 -0.317410 -1.415315
26  24.489557 -12.765261 -10.634670  -1.570796 -0.000000 -1.570796
27  0.449198 -13.144855 -6.669335  -0.051945 -0.000000 -1.570796
28  -9.523657 -9.340698 6.199306  1.001720 0.220616 2.246844
29  0.000001 13.479278 0.000000  1.149891 -0.000000 0.000000
30  0.000000 13.477238 -0.000003  -0.020374 0.651163 0.171424
31  0.267268 3.664726 -1.953294  0.109629 -0.107225 0.495175
32  -0.000000 1.180352 -0.000000  -0.029953 -0.007842 0.846531
33  -0.000001 0.817137 0.000001  0.012285 -0.000556 1.260036
34  0.249421 3.688541 -0.940890  -0.126560 -0.145246 0.899651
35  0.000002 1.800632 -0.000003  -0.009643 -0.027168 1.400081
36  0.000001 1.243403 0.000000  0.002452 -0.006045 1.256196
37  0.244725 3.701097 0.087732  -0.174753 -0.151318 0.769501
38  -0.000001 1.766582 -0.000001  0.009385 0.010267 1.319679
39  -0.000002 1.189006 -0.000003  -0.006898 0.016298 1.212361
40  0.277238 3.632248 1.274101  -0.295695 -0.170063 0.706217
41  0.000001 1.798492 0.000002  0.035176 0.008609 1.280163
42  -0.000002 1.235451 -0.000000  -0.008523 0.000599 1.061936
43  -0.315442 0.857303 0.755942  -0.678476 -2.468995 1.317854
44  0.000001 2.265940 0.000000  -0.026878 0.060881 0.878738
45  0.000001 1.457810 0.000001  -0.051628 -0.019293 0.611810
46  1.259681 3.818376 1.286944  -0.295695 -0.170063 0.706217
47  1.226390 3.891694 0.090417  -0.174753 -0.151318 0.769501
48  1.231624 3.875535 -0.958682  -0.126560 -0.145246 0.899651
49  1.209918 3.994781 -2.003049  0.109629 -0.107225 0.495175
50  -0.328906 0.095431 1.403531  -0.678476 -2.468995 1.317854
51  -12.518492 -5.396894 28.272522  -1.079626 -2.874742 -0.430074
52  -15.787506 -12.308450 13.353218  -1.570796 -0.000000 1.570796
53  -9.523657 -9.340698 6.199306  -0.051945 0.000000 1.570796
54  -10.317099 -31.334972 -4.857448  1.185127 0.468376 0.202664
55  0.000001 0.000000 0.000000  -0.000000 -0.000000 0.000000
56  0.000001 0.000000 0.000000  -0.000000 -0.000000 0.000000
time 13
0  0 0 0  0 0 0
1  0.000000 0.000000 0.000000  1.570796 -0.000000 0.000000
2  0.449198 -13.144855 -6.669335  0.006396 0.037643 -1.561219
3  0.000003 13.479277 0.000001  1.780123 0.000000 -0.000000
4  -0.000001 13.477240 -0.000000  -0.378016 0.033783 0.408789
5  -0.267269 3.664726 -1.953293  -0.098304 -0.048669 -0.358762
6  0.000000 1.180355 -0.000001  -0.027079 -0.025756 -0.737449
7  -0.000002 0.817137 -0.000000  0.009700 -0.007560 -0.552789
8  -0.249421 3.688540 -0.940889  -0.056294 -0.026174 -0.345717
9  0.000001 1.800633 -0.000001  0.003110 0.004364 -0.762178
10  0.000000 1.243409 -0.000001  0.005570 0.003396 -0.618300
11  -0.244725 3.701095 0.087733  0.004510 0.003263 -0.325293
12  -0.000001 1.766584 -0.000001  0.003933 -0.001828 -0.784050
13  -0.000001 1.189001 0.000001  -0.014250 -0.010496 -0.676755
14  -0.277239 3.632248 1.274102  0.082152 0.028715 -0.221367
15  -0.000001 1.798494 -0.000000  0.028914 0.024426 -0.701548
16  -0.000000 1.235451 -0.000002  -0.007466 0.004155 -0.483983
17  0.315442 0.857300 0.755944  1.826871 0.698430 1.330029
18  -0.000000 2.265939 0.000000  -0.096893 -0.039187 -0.728388
19  0.000001 1.457813 0.000001  -0.039318 0.038630 -0.192923
20  -1.259681 3.818375 1.286945  0.082152 0.028715 -0.221367
21  -1.226390 3.891694 0.090419  0.004510 0.003263 -0.325293
22  -1.231622 3.875534 -0.958681  -0.056294 -0.026174 -0.345717
23  -1.209919 3.994782 -2.003048  -0.098304 -0.048669 -0.358762
24  0.328907 0.095428 1.403534  1.826871 0.698430 1.330029
25  11.047451 -13.542037 6.571713  1.410896 -0.368804 -1.617043
26  24.489557 -12.765261 -10.634670  -1.570796 -0.000000 -1.570796
27  0.449198 -13.144855 -6.669335  -0.051945 -0.000000 -1.570796
28  -9.523657 -9.156883 5.372146  0.924797 0.189783 2.153595
29  -0.000000 13.479277 -0.000001  1.167541 -0.000000 0.000000
30  -0.000001 13.477241 -0.000000  0.031163 0.578156 0.137657
31  0.267272 3.664725 -1.953293  0.109629 -0.107225 0.495175
32  -0.000000 1.180351 0.000001  -0.029953 -0.007842 0.846531
33  0.000000 0.817134 -0.000002  0.012286 -0.000556 1.260036
34  0.249424 3.688541 -0.940889  -0.126560 -0.145246 0.899651
35  -0.000002 1.800634 0.000000  -0.009643 -0.027168 1.400081
36  -0.000003 1.243406 -0.000000  0.002452 -0.006045 1.256196
37  0.244729 3.701095 0.087732  -0.174753 -0.151318 0.769501
38  -0.000002 1.766585 0.000000  0.009385 0.010267 1.319679
39  -0.000001 1.189003 0.000001  -0.006898 0.016298 1.212362
40  0.277241 3.632249 1.274102  -0.295695 -0.170063 0.706217
41  0.000000 1.798493 -0.000001  0.035176 0.008609 1.280163
42  -0.000004 1.235452 0.000000  -0.008523 0.000599 1.061936
43  -0.315439 0.857299 0.755944  -0.678476 -2.468995 1.317854
44  0.000000 2.265938 -0.000000  -0.026878 0.060881 0.878738
45  -0.000002 1.457810 0.000000  -0.051628 -0.019293 0.611810
46  1.259684 3.818375 1.286946  -0.295695 -0.170063 0.706217
47  1.226393 3.891694 0.090420  -0.174753 -0.151318 0.769501
48  1.231627 3.875535 -0.958682  -0.126560 -0.145246 0.899651
49  1.209920 3.994781 -2.003047  0.109629 -0.107225 0.495175
50  -0.328904 0.095429 1.403532  -0.678476 -2.468995 1.317854
51  -13.023131 -6.391696 27.416969  -1.063769 -2.931307 -0.547981
52  -17.277971 -12.433063 13.349039  -1.570796 -0.000000 1.570796
53  -9.523657 -9.156883 5.372146  -0.051945 0.000000 1.570796
54  -10.899653 -30.552670 -5.974631  1.162394 0.587764 0.148419
55  0.000001 -0.000000 -0.000001  -0.000000 -0.000000 0.000000
56  0.000001 -0.000000 -0.000001  -0.000000 -0.000000 0.000000
time 14
0  0 0 0  0 0 0
1  0.000000 0.000000 0.000000  1.570796 -0.000000 0.000000
2  0.449198 -13.144855 -6.669335  0.024683 -0.020402 -1.551642
3  -0.000000 13.479276 0.000001  1.800498 0.000000 -0.000000
4  0.000001 13.477239 -0.000001  -0.411624 -0.057603 0.406490
5  -0.267270 3.664727 -1.953292  -0.100949 -0.042899 -0.300991
6  0.000000 1.180356 0.000000  -0.028526 -0.024143 -0.679457
7  0.000000 0.817135 0.000001  0.009245 -0.008110 -0.494793
8  -0.249423 3.688542 -0.940887  -0.057714 -0.022868 -0.287796
9  -0.000001 1.800634 -0.000000  0.003357 0.004176 -0.704180
10  0.000001 1.243404 0.000000  0.005757 0.003068 -0.560303
11  -0.244726 3.701097 0.087734  0.004692 0.002996 -0.267296
12  0.000000 1.766585 -0.000001  0.003821 -0.002053 -0.726052
13  -0.000001 1.189004 0.000000  -0.014834 -0.009652 -0.618760
14  -0.277240 3.632249 1.274104  0.083519 0.023831 -0.163557
15  0.000000 1.798494 -0.000001  0.030280 0.022710 -0.643594
16  -0.000000 1.235451 -0.000001  -0.007213 0.004580 -0.426021
17  0.315441 0.857300 0.755946  1.825383 0.691630 1.327739
18  -0.000000 2.265940 -0.000000  -0.097277 -0.038941 -0.721529
19  -0.000001 1.457813 -0.000002  -0.039052 0.038899 -0.186064
20  -1.259681 3.818375 1.286947  0.083519 0.023831 -0.163557
21  -1.226391 3.891694 0.090420  0.004692 0.002996 -0.267296
22  -1.231623 3.875535 -0.958680  -0.057714 -0.022868 -0.287796
23  -1.209920 3.994781 -2.003046  -0.100949 -0.042899 -0.300991
24  0.328906 0.095429 1.403534  1.825383 0.691630 1.327739
25  10.525534 -12.678911 6.703235  1.461089 -0.396477 -1.720536
26  24.489557 -12.765261 -10.634670  -1.570796 -0.000000 -1.570796
27  0.449198 -13.144855 -6.669335  -0.051945 -0.000000 -1.570796
28  -9.523657 -8.890766 4.174615  0.901443 0.147781 2.084396
29  -0.000002 13.479279 -0.000000  1.139041 -0.000000 0.000000
30  -0.000001 13.477239 -0.000000  0.072282 0.491179 0.087274
31  0.267269 3.664727 -1.953292  0.109629 -0.107225 0.495175
32  0.000000 1.180355 0.000000  -0.029953 -0.007842 0.846531
33  0.000000 0.817135 -0.000000  0.012285 -0.000556 1.260036
34  0.249423 3.688542 -0.940888  -0.126560 -0.145246 0.899651
35  -0.000002 1.800632 0.000000  -0.009643 -0.027168 1.400081
36  -0.000000 1.243406 0.000000  0.002452 -0.006045 1.256197
37  0.244727 3.701096 0.087733  -0.174753 -0.151318 0.769501
38  -0.000002 1.766582 -0.000001  0.009385 0.010267 1.319679
39  0.000001 1.189003 -0.000003  -0.006898 0.016298 1.212362
40  0.277240 3.632250 1.274102  -0.295695 -0.170063 0.706217
41  -0.000001 1.798494 0.000000  0.035176 0.008609 1.280163
42  0.000000 1.235452 0.000002  -0.008523 0.000599 1.061936
43  -0.315441 0.857301 0.755943  -0.678476 -2.468995 1.317854
44  -0.000001 2.265939 -0.000000  -0.026878 0.060881 0.878738
45  -0.000000 1.457808 0.000001  -0.051628 -0.019293 0.611810
46  1.259682 3.818377 1.286945  -0.295695 -0.170063 0.706217
47  1.226391 3.891695 0.090418  -0.174753 -0.151318 0.769501
48  1.231624 3.875534 -0.958680  -0.126560 -0.145246 0.899651
49  1.209920 3.994783 -2.003048  0.109629 -0.107225 0.495175
50  -0.328905 0.095428 1.403533  -0.678476 -2.468995 1.317854
51  -13.129402 -7.106138 26.516434  -1.051204 -2.991429 -0.656355
52  -18.883865 -12.603452 13.344860  -1.570796 -0.000000 1.570796
53  -9.523657 -8.890766 4.174615  -0.051945 0.000000 1.570796
54  -11.101032 -29.723892 -6.769022  1.122711 0.698246 0.081975
55  -0.000000 -0.000002 -0.000001  0.000000 -0.000000 0.000000
56  -0.000000 -0.000002 -0.000001  0.000000 -0.000000 0.000000
time 15
0  0 0 0  0 0 0
1  0.000000 0.000000 0.000000  1.570796 -0.000000 0.000000
2  0.449198 -13.144855 -6.669335  0.094776 -0.081316 -1.541567
3  0.000001 13.479279 0.000000  1.761276 0.000000 -0.000000
4  0.000000 13.477240 -0.000000  -0.393275 -0.064113 0.344179
5  -0.267269 3.664726 -1.953293  -0.103442 -0.036458 -0.238156
6  0.000001 1.180355 0.000000  -0.029992 -0.022296 -0.616353
7  -0.000000 0.817137 -0.000001  0.008716 -0.008676 -0.431680
8  -0.249421 3.688541 -0.940890  -0.059039 -0.019185 -0.224774
9  0.000000 1.800632 0.000001  0.003614 0.003956 -0.641064
10  -0.000001 1.243406 -0.000000  0.005939 0.002698 -0.497189
11  -0.244725 3.701095 0.087732  0.004872 0.002695 -0.204181
12  0.000000 1.766584 0.000001  0.003684 -0.002290 -0.662937
13  -0.000000 1.189004 0.000000  -0.015413 -0.008698 -0.555649
14  -0.277239 3.632247 1.274101  0.084799 0.018474 -0.100655
15  0.000000 1.798495 0.000002  0.031651 0.020756 -0.580533
16  -0.000000 1.235452 0.000002  -0.006910 0.005026 -0.362945
17  0.315442 0.857300 0.755943  1.823803 0.684234 1.325264
18  -0.000000 2.265939 -0.000000  -0.097693 -0.038670 -0.714066
19  0.000001 1.457811 0.000000  -0.038760 0.039189 -0.178600
20  -1.259680 3.818375 1.286946  0.084799 0.018474 -0.100655
21  -1.226390 3.891693 0.090418  0.004872 0.002695 -0.204181
22  -1.231622 3.875534 -0.958681  -0.059040 -0.019185 -0.224774
23  -1.209919 3.994781 -2.003048  -0.103442 -0.036458 -0.238156
24  0.328907 0.095428 1.403533  1.823802 0.684233 1.325264
25  10.037470 -11.709985 7.491319  1.514145 -0.390220 -1.711318
26  24.489557 -12.765261 -10.634670  -1.570796 -0.000000 -1.570796
27  0.449198 -13.144855 -6.669335  -0.051945 -0.000000 -1.570796
28  -9.523657 -8.575264 2.754862  0.921812 0.106152 2.036008
29  -0.000001 13.479280 0.000000  1.077180 -0.000000 0.000000
30  0.000001 13.477237 0.000001  0.104462 0.401573 0.031087
31  0.267268 3.664726 -1.953293  0.109630 -0.107225 0.495175
32  0.000000 1.180356 -0.000000  -0.029953 -0.007842 0.846531
33  -0.000000 0.817136 -0.000001  0.012285 -0.000556 1.260037
34  0.249421 3.688541 -0.940888  -0.126560 -0.145246 0.899651
35  -0.000000 1.800633 -0.000000  -0.009643 -0.027168 1.400081
36  0.000000 1.243406 0.000001  0.002452 -0.006045 1.256196
37  0.244724 3.701095 0.087733  -0.174753 -0.151318 0.769501
38  -0.000001 1.766588 -0.000001  0.009385 0.010267 1.319679
39  0.000003 1.189004 0.000003  -0.006898 0.016298 1.212361
40  0.277237 3.632247 1.274102  -0.295695 -0.170063 0.706218
41  0.000002 1.798495 -0.000000  0.035176 0.008609 1.280163
42  0.000000 1.235451 -0.000000  -0.008523 0.000599 1.061936
43  -0.315443 0.857298 0.755945  -0.678476 -2.468995 1.317854
44  -0.000000 2.265939 -0.000001  -0.026878 0.060881 0.878738
45  0.000000 1.457815 0.000000  -0.051628 -0.019293 0.611810
46  1.259680 3.818373 1.286947  -0.295695 -0.170063 0.706217
47  1.226389 3.891692 0.090419  -0.174753 -0.151318 0.769501
48  1.231621 3.875533 -0.958680  -0.126560 -0.145246 0.899651
49  1.209918 3.994780 -2.003048  0.109629 -0.107225 0.495175
50  -0.328907 0.095428 1.403533  -0.678476 -2.468995 1.317854
51  -12.896201 -7.541654 25.623711  2.100032 -0.089910 2.388345
52  -20.432863 -12.789100 13.341021  -1.570796 -0.000000 1.570796
53  -9.523657 -8.575264 2.754862  -0.051945 0.000000 1.570796
54  -10.966187 -28.895113 -7.243857  1.065165 0.795864 0.003076
55  -0.000001 -0.000000 -0.000000  0.000000 0.000000 -0.000000
56  -0.000001 -0.000000 -0.000000  0.000000 0.000000 -0.000000
time 16
0  0 0 0  0 0 0
1  0.000000 0.000000 0.000000  1.570796 -0.000000 0.000000
2  0.449198 -13.144855 -6.669335  0.234814 -0.130617 -1.533341
3  0.000001 13.479278 0.000001  1.627484 0.000000 -0.000000
4  0.000003 13.477239 0.000002  -0.345486 -0.067770 0.278226
5  -0.267270 3.664726 -1.953294  -0.105526 -0.029873 -0.175350
6  -0.000000 1.180355 -0.000000  -0.031338 -0.020360 -0.553255
7  -0.000000 0.817134 0.000000  0.008151 -0.009209 -0.368566
8  -0.249423 3.688541 -0.940890  -0.060130 -0.015425 -0.161761
9  -0.000000 1.800634 0.000001  0.003856 0.003720 -0.577949
10  0.000001 1.243407 -0.000000  0.006098 0.002318 -0.434074
11  -0.244726 3.701096 0.087732  0.005032 0.002382 -0.141066
12  0.000000 1.766585 0.000001  0.003532 -0.002518 -0.599822
13  -0.000000 1.189002 -0.000001  -0.015931 -0.007708 -0.492540
14  -0.277239 3.632247 1.274101  0.085863 0.013086 -0.037761
15  0.000000 1.798495 -0.000001  0.032896 0.018720 -0.517477
16  -0.000001 1.235450 0.000000  -0.006579 0.005451 -0.299869
17  0.315441 0.857299 0.755944  1.822262 0.676840 1.322803
18  0.000000 2.265940 -0.000000  -0.098107 -0.038396 -0.706603
19  -0.000000 1.457810 -0.000000  -0.038467 0.039477 -0.171136
20  -1.259681 3.818374 1.286945  0.085863 0.013086 -0.037761
21  -1.226390 3.891693 0.090419  0.005032 0.002382 -0.141066
22  -1.231622 3.875534 -0.958681  -0.060130 -0.015425 -0.161762
23  -1.209919 3.994781 -2.003048  -0.105526 -0.029873 -0.175350
24  0.328906 0.095427 1.403532  1.822262 0.676840 1.322803
25  9.600185 -10.710931 9.237067  1.565387 -0.374576 -1.688272
26  24.489557 -12.765261 -10.634670  -1.570796 -0.000000 -1.570796
27  0.449198 -13.144855 -6.669335  -0.051945 -0.000000 -1.570796
28  -9.523656 -8.243303 1.261034  0.969182 0.067126 2.000860
29  -0.000001 13.479277 -0.000000  0.990859 -0.000000 0.000000
30  -0.000000 13.477239 0.000000  0.137798 0.318916 -0.025215
31  0.267270 3.664727 -1.953297  0.109629 -0.107225 0.495175
32  0.000001 1.180354 -0.000002  -0.029953 -0.007842 0.846531
33  -0.000001 0.817135 -0.000001  0.012286 -0.000556 1.260036
34  0.249423 3.688542 -0.940893  -0.126560 -0.145246 0.899651
35  -0.000000 1.800632 0.000002  -0.009643 -0.027168 1.400081
36  0.000000 1.243407 -0.000001  0.002452 -0.006045 1.256196
37  0.244727 3.701096 0.087730  -0.174753 -0.151318 0.769501
38  0.000001 1.766584 0.000001  0.009385 0.010267 1.319679
39  -0.000002 1.189004 0.000000  -0.006898 0.016298 1.212361
40  0.277240 3.632250 1.274099  -0.295695 -0.170063 0.706217
41  -0.000001 1.798495 -0.000003  0.035176 0.008609 1.280163
42  0.000004 1.235451 -0.000002  -0.008523 0.000599 1.061936
43  -0.315441 0.857301 0.755939  -0.678476 -2.468995 1.317854
44  0.000003 2.265939 -0.000000  -0.026878 0.060881 0.878738
45  -0.000000 1.457811 0.000000  -0.051628 -0.019293 0.611810
46  1.259682 3.818376 1.286940  -0.295695 -0.170063 0.706217
47  1.226390 3.891695 0.090416  -0.174753 -0.151318 0.769501
48  1.231624 3.875535 -0.958685  -0.126560 -0.145246 0.899651
49  1.209919 3.994781 -2.003052  0.109629 -0.107225 0.495175
50  -0.328906 0.095429 1.403529  -0.678476 -2.468995 1.317854
51  -12.468611 -7.853951 24.789156  2.107136 -0.032948 2.304852
52  -21.752645 -12.959490 13.337856  -1.570796 -0.000000 1.570796
53  -9.523656 -8.243303 1.261034  -0.051945 0.000000 1.570796
54  -10.629072 -28.112808 -7.562154  0.991983 0.876972 -0.086162
55  -0.000000 0.000001 0.000003  -0.000000 -0.000000 0.000000
56  -0.000000 0.000001 0.000003  -0.000000 -0.000000 0.000000
time 17
0  0 0 0  0 0 0
1  0.000000 0.000000 0.000000  1.570796 -0.000000 0.000000
2  0.449198 -13.144855 -6.669335  0.407294 -0.163569 -1.527785
3  0.000001 13.479276 0.000000  1.422985 0.000000 -0.000000
4  0.000001 13.477240 0.000000  -0.260134 -0.069084 0.217988
5  -0.267270 3.664726 -1.953294  -0.107072 -0.023718 -0.117659
6  0.000000 1.180356 0.000001  -0.032465 -0.018510 -0.495277
7  -0.000000 0.817134 -0.000001  0.007604 -0.009666 -0.310568
8  -0.249423 3.688542 -0.940889  -0.060922 -0.011916 -0.103865
9  -0.000000 1.800631 0.000001  0.004066 0.003490 -0.519951
10  -0.000001 1.243408 -0.000000  0.006222 0.001961 -0.376078
11  -0.244727 3.701096 0.087732  0.005162 0.002086 -0.083069
12  0.000000 1.766587 0.000000  0.003380 -0.002718 -0.541824
13  0.000001 1.189004 -0.000001  -0.016351 -0.006772 -0.434548
14  -0.277240 3.632249 1.274101  0.086647 0.008120 0.020029
15  0.000001 1.798494 -0.000000  0.033925 0.016783 -0.459538
16  0.000001 1.235453 -0.000000  -0.006252 0.005823 -0.241907
17  0.315441 0.857300 0.755943  1.820882 0.670048 1.320555
18  -0.000002 2.265940 0.000001  -0.098486 -0.038142 -0.699745
19  -0.000001 1.457811 -0.000001  -0.038195 0.039740 -0.164277
20  -1.259682 3.818375 1.286945  0.086647 0.008120 0.020029
21  -1.226391 3.891693 0.090419  0.005161 0.002086 -0.083069
22  -1.231623 3.875536 -0.958680  -0.060922 -0.011916 -0.103865
23  -1.209919 3.994781 -2.003048  -0.107072 -0.023718 -0.117659
24  0.328905 0.095428 1.403532  1.820881 0.670048 1.320555
25  9.230614 -9.773745 11.449514  1.611322 -0.354238 -1.658312
26  24.489557 -12.765261 -10.634670  -1.570796 -0.000000 -1.570796
27  0.449198 -13.144855 -6.669335  -0.051945 -0.000000 -1.570796
28  -9.523657 -7.927803 -0.158719  1.032695 0.034569 1.977610
29  -0.000001 13.479275 -0.000000  0.888117 -0.000000 0.000000
30  -0.000000 13.477237 0.000001  0.175118 0.248671 -0.075069
31  0.267269 3.664725 -1.953294  0.109629 -0.107225 0.495175
32  -0.000001 1.180354 0.000000  -0.029953 -0.007842 0.846531
33  -0.000000 0.817136 -0.000001  0.012285 -0.000556 1.260036
34  0.249422 3.688542 -0.940891  -0.126560 -0.145246 0.899651
35  0.000000 1.800632 0.000000  -0.009643 -0.027168 1.400081
36  0.000002 1.243404 -0.000001  0.002452 -0.006045 1.256196
37  0.244726 3.701096 0.087732  -0.174753 -0.151318 0.769501
38  0.000000 1.766585 -0.000002  0.009385 0.010267 1.319679
39  -0.000003 1.189004 0.000003  -0.006898 0.016298 1.212361
40  0.277239 3.632246 1.274100  -0.295695 -0.170063 0.706217
41  -0.000001 1.798496 -0.000002  0.035176 0.008609 1.280163
42  0.000001 1.235452 0.000001  -0.008523 0.000599 1.061936
43  -0.315442 0.857298 0.755943  -0.678476 -2.468995 1.317854
44  0.000000 2.265939 -0.000001  -0.026878 0.060881 0.878738
45  -0.000000 1.457810 0.000001  -0.051628 -0.019293 0.611810
46  1.259681 3.818373 1.286944  -0.295695 -0.170063 0.706217
47  1.226390 3.891693 0.090419  -0.174753 -0.151318 0.769501
48  1.231622 3.875534 -0.958682  -0.126560 -0.145246 0.899651
49  1.209918 3.994781 -2.003051  0.109629 -0.107225 0.495175
50  -0.328907 0.095428 1.403532  -0.678476 -2.468995 1.317854
51  -11.955145 -8.063390 24.060724  2.112073 0.017302 2.236655
52  -22.670883 -13.084103 13.335712  -1.570796 -0.000000 1.570796
53  -9.523657 -7.927803 -0.158719  -0.051945 0.000000 1.570796
54  -10.190823 -27.423450 -7.755219  0.910281 0.939053 -0.179227
55  -0.000002 -0.000000 0.000002  0.000000 0.000000 0.000000
56  -0.000002 -0.000000 0.000002  0.000000 0.000000 0.000000
time 18
0  0 0 0  0 0 0
1  0.000000 0.000000 0.000000  1.570796 -0.000000 0.000000
2  0.449198 -13.144855 -6.669335  0.583182 -0.182927 -1.524493
3  0.000000 13.479278 0.000000  1.179592 0.000000 -0.000000
4  -0.000002 13.477240 0.000002  -0.146641 -0.067325 0.168410
5  -0.267269 3.664727 -1.953293  -0.108077 -0.018589 -0.070162
6  0.000001 1.180355 0.000001  -0.033311 -0.016939 -0.447533
7  0.000001 0.817134 0.000000  0.007133 -0.010018 -0.262806
8  -0.249422 3.688540 -0.940888  -0.061421 -0.008995 -0.056188
9  0.000001 1.800633 0.000001  0.004228 0.003292 -0.472188
10  0.000001 1.243403 -0.000001  0.006308 0.001662 -0.328315
11  -0.244726 3.701095 0.087733  0.005255 0.001837 -0.035307
12  0.000000 1.766585 -0.000001  0.003246 -0.002876 -0.494061
13  -0.000000 1.189003 0.000000  -0.016656 -0.005983 -0.386790
14  -0.277239 3.632248 1.274102  0.087153 0.004027 0.067619
15  -0.000000 1.798496 0.000001  0.034687 0.015146 -0.411827
16  0.000000 1.235449 0.000000  -0.005967 0.006115 -0.194174
17  0.315442 0.857300 0.755945  1.819769 0.664457 1.318713
18  0.000002 2.265940 -0.000000  -0.098797 -0.037930 -0.694097
19  -0.000000 1.457811 -0.000001  -0.037970 0.039955 -0.158628
20  -1.259680 3.818376 1.286946  0.087153 0.004027 0.067619
21  -1.226390 3.891694 0.090420  0.005255 0.001837 -0.035307
22  -1.231623 3.875533 -0.958680  -0.061421 -0.008995 -0.056188
23  -1.209918 3.994781 -2.003047  -0.108077 -0.018589 -0.070162
24  0.328906 0.095428 1.403533  1.819769 0.664457 1.318713
25  8.945675 -8.990423 13.637697  1.648457 -0.333901 -1.628352
26  24.489557 -12.765261 -10.634670  -1.570796 -0.000000 -1.570796
27  0.449198 -13.144855 -6.669335  -0.051945 -0.000000 -1.570796
28  -9.523656 -7.661685 -1.356250  1.099884 0.010493 1.966617
29  -0.000000 13.479275 0.000001  0.781975 -0.000000 0.000000
30  0.000000 13.477238 0.000000  0.214843 0.193262 -0.113646
31  0.267270 3.664727 -1.953294  0.109629 -0.107225 0.495175
32  0.000001 1.180355 0.000000  -0.029953 -0.007842 0.846531
33  0.000001 0.817136 -0.000002  0.012285 -0.000556 1.260037
34  0.249424 3.688541 -0.940889  -0.126560 -0.145246 0.899651
35  0.000000 1.800634 -0.000001  -0.009643 -0.027168 1.400081
36  -0.000001 1.243405 -0.000000  0.002452 -0.006045 1.256196
37  0.244727 3.701094 0.087732  -0.174753 -0.151318 0.769501
38  0.000002 1.766585 -0.000003  0.009385 0.010267 1.319679
39  -0.000000 1.189005 -0.000002  -0.006898 0.016298 1.212361
40  0.277240 3.632248 1.274101  -0.295695 -0.170063 0.706217
41  0.000001 1.798493 0.000001  0.035176 0.008609 1.280163
42  -0.000003 1.235452 0.000002  -0.008523 0.000599 1.061936
43  -0.315440 0.857299 0.755943  -0.678476 -2.468995 1.317854
44  0.000000 2.265939 0.000001  -0.026878 0.060881 0.878738
45  -0.000001 1.457810 -0.000001  -0.051628 -0.019293 0.611810
46  1.259682 3.818373 1.286945  -0.295695 -0.170063 0.706217
47  1.226391 3.891693 0.090418  -0.174753 -0.151318 0.769501
48  1.231624 3.875532 -0.958682  -0.126560 -0.145246 0.899651
49  1.209919 3.994783 -2.003050  0.109629 -0.107225 0.495175
50  -0.328905 0.095427 1.403532  -0.678476 -2.468995 1.317854
51  -11.460817 -8.188681 23.484438  2.115197 0.057425 2.185629
52  -23.015259 -13.132422 13.334921  -1.570796 -0.000000 1.570796
53  -9.523656 -7.661685 -1.356250  -0.051945 0.000000 1.570796
54  -9.752571 -26.873514 -7.854360  0.832732 0.981478 -0.264268
55  -0.000000 -0.000001 -0.000001  0.000000 -0.000000 0.000000
56  -0.000000 -0.000001 -0.000001  0.000000 -0.000000 0.000000
time 19
0  0 0 0  0 0 0
1  0.000000 0.000000 0.000000  1.570796 -0.000000 0.000000
2  0.449198 -13.144855 -6.669335  0.731316 -0.192662 -1.522829
3  0.000000 13.479277 0.000000  0.951298 0.000000 -0.000000
4  -0.000001 13.477239 0.000002  -0.034505 -0.063754 0.134506
5  -0.267269 3.664726 -1.953293  -0.108619 -0.015084 -0.037937
6  -0.000001 1.180352 0.000000  -0.033842 -0.015851 -0.415138
7  0.000001 0.817137 -0.000000  0.006805 -0.010244 -0.230395
8  -0.249423 3.688541 -0.940889  -0.061679 -0.007002 -0.023838
9  -0.000001 1.800632 0.000001  0.004332 0.003154 -0.439778
10  -0.000000 1.243404 -0.000000  0.006359 0.001456 -0.295906
11  -0.244726 3.701094 0.087732  0.005312 0.001666 -0.002896
12  -0.000000 1.766585 -0.000000  0.003152 -0.002980 -0.461651
13  -0.000000 1.189004 -0.000000  -0.016841 -0.005441 -0.354384
14  -0.277240 3.632246 1.274101  0.087426 0.001251 0.099912
15  -0.000000 1.798493 -0.000001  0.035159 0.014015 -0.379453
16  -0.000001 1.235449 0.000001  -0.005766 0.006305 -0.161783
17  0.315440 0.857299 0.755943  1.819027 0.660665 1.317468
18  0.000000 2.265939 0.000000  -0.099007 -0.037786 -0.690265
19  -0.000001 1.457809 0.000000  -0.037817 0.040100 -0.154795
20  -1.259681 3.818374 1.286945  0.087426 0.001251 0.099912
21  -1.226390 3.891694 0.090418  0.005312 0.001666 -0.002896
22  -1.231622 3.875534 -0.958681  -0.061679 -0.007002 -0.023838
23  -1.209919 3.994782 -2.003049  -0.108619 -0.015084 -0.037937
24  0.328906 0.095429 1.403532  1.819027 0.660665 1.317468
25  8.762295 -8.452965 15.310646  1.673298 -0.318257 -1.605306
26  24.489557 -12.765261 -10.634670  -1.570796 -0.000000 -1.570796
27  0.449198 -13.144855 -6.669335  -0.051945 -0.000000 -1.570796
28  -9.523657 -7.477871 -2.183411  1.155038 -0.004521 1.962877
29  -0.000000 13.479277 0.000001  0.694131 -0.000000 0.000000
30  0.000000 13.477238 0.000001  0.249036 0.158052 -0.139019
31  0.267269 3.664727 -1.953291  0.109629 -0.107225 0.495175
32  0.000000 1.180355 0.000001  -0.029953 -0.007842 0.846531
33  0.000001 0.817134 0.000000  0.012285 -0.000556 1.260036
34  0.249423 3.688541 -0.940887  -0.126560 -0.145246 0.899651
35  -0.000001 1.800633 -0.000001  -0.009643 -0.027168 1.400081
36  -0.000001 1.243407 0.000000  0.002452 -0.006045 1.256196
37  0.244726 3.701097 0.087735  -0.174754 -0.151318 0.769501
38  0.000000 1.766582 0.000001  0.009385 0.010267 1.319679
39  0.000000 1.189004 -0.000001  -0.006897 0.016298 1.212362
40  0.277239 3.632250 1.274104  -0.295695 -0.170063 0.706217
41  -0.000000 1.798494 0.000000  0.035176 0.008609 1.280163
42  0.000003 1.235452 -0.000001  -0.008523 0.000599 1.061936
43  -0.315441 0.857303 0.755945  -0.678476 -2.468995 1.317854
44  -0.000003 2.265939 -0.000001  -0.026878 0.060881 0.878738
45  0.000001 1.457811 -0.000001  -0.051628 -0.019293 0.611810
46  1.259681 3.818376 1.286947  -0.295695 -0.170063 0.706217
47  1.226390 3.891694 0.090420  -0.174753 -0.151318 0.769501
48  1.231624 3.875535 -0.958679  -0.126560 -0.145246 0.899651
49  1.209918 3.994784 -2.003047  0.109629 -0.107225 0.495175
50  -0.328906 0.095428 1.403534  -0.678476 -2.468995 1.317854
51  -11.088522 -8.248643 23.105270  2.116842 0.084002 2.153640
52  -23.015259 -13.132422 13.334921  -1.570796 -0.000000 1.570796
53  -9.523657 -7.477871 -2.183411  -0.051945 0.000000 1.570796
54  -9.415457 -26.509472 -7.890886  0.775513 1.005549 -0.325851
55  0.000001 0.000002 -0.000001  0.000000 0.000000 0.000000
56  0.000001 0.000002 -0.000001  0.000000 0.000000 0.000000
time 20
0  0 0 0  0 0 0
1  0.000000 0.000000 0.000000  1.570796 -0.000000 0.000000
2  0.449198 -13.144855 -6.669335  0.797174 -0.195561 -1.522332
3  0.000000 13.479278 0.000000  0.843637 0.000000 -0.000000
4  -0.000000 13.477238 0.000001  0.019215 -0.061836 0.121832
5  -0.267270 3.664725 -1.953293  -0.108791 -0.013788 -0.026066
6  0.000001 1.180357 -0.000000  -0.034029 -0.015446 -0.403202
7  -0.000000 0.817138 -0.000000  0.006682 -0.010324 -0.218454
8  -0.249423 3.688541 -0.940888  -0.061758 -0.006265 -0.011920
9  -0.000001 1.800632 -0.000000  0.004369 0.003102 -0.427837
10  -0.000001 1.243406 -0.000000  0.006376 0.001380 -0.283965
11  -0.244727 3.701094 0.087732  0.005332 0.001603 0.009044
12  0.000001 1.766584 -0.000000  0.003116 -0.003017 -0.449710
13  -0.000000 1.189004 0.000001  -0.016905 -0.005239 -0.342445
14  -0.277240 3.632247 1.274102  0.087511 0.000230 0.111810
15  -0.000000 1.798493 0.000000  0.035323 0.013594 -0.367526
16  0.000001 1.235452 -0.000001  -0.005691 0.006373 -0.149850
17  0.315440 0.857299 0.755944  1.818756 0.659268 1.317010
18  0.000001 2.265939 -0.000000  -0.099084 -0.037733 -0.688853
19  -0.000001 1.457812 -0.000000  -0.037760 0.040154 -0.153383
20  -1.259682 3.818374 1.286946  0.087511 0.000230 0.111810
21  -1.226392 3.891692 0.090419  0.005332 0.001603 0.009044
22  -1.231623 3.875535 -0.958680  -0.061758 -0.006265 -0.011920
23  -1.209921 3.994780 -2.003048  -0.108791 -0.013788 -0.026065
24  0.328906 0.095428 1.403533  1.818756 0.659268 1.317010
25  8.697409 -8.253369 15.977400  1.682355 -0.311999 -1.596087
26  24.489557 -12.765261 -10.634670  -1.570796 -0.000000 -1.570796
27  0.449198 -13.144855 -6.669335  -0.051945 -0.000000 -1.570796
28  -9.523657 -7.409284 -2.492052  1.178104 -0.009833 1.961370
29  0.000001 13.479277 0.000001  0.657103 -0.000000 0.000000
30  0.000001 13.477240 0.000002  0.263555 0.146754 -0.148549
31  0.267269 3.664726 -1.953293  0.109629 -0.107225 0.495176
32  -0.000001 1.180354 0.000002  -0.029953 -0.007842 0.846531
33  0.000000 0.817135 -0.000001  0.012285 -0.000556 1.260036
34  0.249423 3.688543 -0.940889  -0.126560 -0.145246 0.899651
35  -0.000001 1.800630 -0.000002  -0.009643 -0.027168 1.400081
36  0.000000 1.243405 0.000001  0.002452 -0.006045 1.256197
37  0.244727 3.701096 0.087732  -0.174754 -0.151318 0.769502
38  0.000000 1.766585 0.000001  0.009385 0.010267 1.319679
39  0.000003 1.189004 -0.000001  -0.006898 0.016298 1.212361
40  0.277239 3.632248 1.274103  -0.295695 -0.170063 0.706218
41  -0.000001 1.798495 -0.000000  0.035176 0.008609 1.280163
42  -0.000001 1.235452 -0.000000  -0.008523 0.000599 1.061936
43  -0.315441 0.857302 0.755943  -0.678476 -2.468995 1.317854
44  0.000000 2.265940 -0.000001  -0.026878 0.060881 0.878738
45  0.000002 1.457815 -0.000001  -0.051628 -0.019293 0.611810
46  1.259682 3.818375 1.286945  -0.295695 -0.170063 0.706217
47  1.226390 3.891694 0.090419  -0.174753 -0.151318 0.769501
48  1.231622 3.875536 -0.958681  -0.126560 -0.145246 0.899651
49  1.209918 3.994783 -2.003049  0.109629 -0.107225 0.495175
50  -0.328906 0.095429 1.403532  -0.678476 -2.468995 1.317854
51  -10.941189 -8.263663 22.968529  2.117321 0.093620 2.142558
52  -23.015259 -13.132422 13.334921  -1.570796 -0.000000 1.570796
53  -9.523657 -7.409284 -2.492052  -0.051945 0.000000 1.570796
54  -9.280611 -26.377796 -7.896104  0.753846 1.013292 -0.349041
55  -0.000001 -0.000001 -0.000002  0.000000 -0.000000 -0.000000
56  -0.000001 -0.000001 -0.000002  0.000000 -0.000000 -0.000000
end
