version 1
nodes
0 "blender_implicit" -1
1 "root" -1
2 "upperarm_l" 1
3 "lowerarm_l" 2
4 "hand_l" 3
5 "pinky_0_l" 4
6 "pinky_1_l" 5
7 "pinky_2_l" 6
8 "ring_0_l" 4
9 "ring_1_l" 8
10 "ring_2_l" 9
11 "middle_0_l" 4
12 "middle_1_l" 11
13 "middle_2_l" 12
14 "index_0_l" 4
15 "index_1_l" 14
16 "index_2_l" 15
17 "thumb_0_l" 4
18 "thumb_1_l" 17
19 "thumb_2_l" 18
20 "rig_index_l" 4
21 "rig_middle_l" 4
22 "rig_ring_l" 4
23 "rig_pinky_l" 4
24 "rig_thumb_l" 4
25 "rig_hand_l" 1
26 "rig_l" 1
27 "rig_upperarm_l" 1
28 "upperarm_r" 1
29 "lowerarm_r" 28
30 "hand_r" 29
31 "pinky_0_r" 30
32 "pinky_1_r" 31
33 "pinky_2_r" 32
34 "ring_0_r" 30
35 "ring_1_r" 34
36 "ring_2_r" 35
37 "middle_0_r" 30
38 "middle_1_r" 37
39 "middle_2_r" 38
40 "index_0_r" 30
41 "index_1_r" 40
42 "index_2_r" 41
43 "thumb_0_r" 30
44 "thumb_1_r" 43
45 "thumb_2_r" 44
46 "rig_index_r" 30
47 "rig_middle_r" 30
48 "rig_ring_r" 30
49 "rig_pinky_r" 30
50 "rig_thumb_r" 30
51 "rig_hand_r" 1
52 "rig_r" 1
53 "rig_upperarm_r" 1
54 "weapon_bone_CONTROL" -1
55 "weapon_bone_parent" 54
56 "weapon_bone" 55
end
skeleton
time 0
0  0 0 0  0 0 0
1  0.000000 0.000000 0.000000  1.570796 -0.000000 0.000000
2  0.449198 -13.144855 -6.669335  0.490601 0.136172 -1.577608
3  0.000002 13.479276 0.000001  0.981177 0.000000 -0.000000
4  0.000001 13.477239 -0.000001  0.479910 -0.209447 0.728302
5  -0.267270 3.664726 -1.953294  -0.108790 -0.013788 -0.026065
6  -0.000001 1.180356 0.000001  -0.034029 -0.015446 -0.403202
7  0.000000 0.817134 0.000000  0.006682 -0.010324 -0.218454
8  -0.249423 3.688540 -0.940889  -0.061758 -0.006265 -0.011920
9  -0.000001 1.800633 -0.000001  0.004369 0.003102 -0.427837
10  0.000001 1.243406 0.000001  0.006376 0.001380 -0.283965
11  -0.244727 3.701096 0.087733  0.005332 0.001603 0.009044
12  -0.000001 1.766585 0.000000  0.003116 -0.003017 -0.449710
13  0.000000 1.189005 -0.000000  -0.016905 -0.005239 -0.342445
14  -0.277239 3.632247 1.274103  0.087512 0.000229 0.111810
15  -0.000002 1.798495 -0.000000  0.035324 0.013594 -0.367525
16  -0.000000 1.235451 0.000001  -0.005691 0.006373 -0.149850
17  0.315442 0.857299 0.755944  1.818756 0.659267 1.317010
18  -0.000000 2.265939 0.000000  -0.099084 -0.037733 -0.688853
19  0.000001 1.457811 0.000000  -0.037760 0.040153 -0.153383
20  -1.259681 3.818374 1.286946  0.087511 0.000230 0.111810
21  -1.226391 3.891693 0.090420  0.005332 0.001603 0.009044
22  -1.231623 3.875534 -0.958679  -0.061758 -0.006265 -0.011920
23  -1.209918 3.994781 -2.003048  -0.108790 -0.013788 -0.026066
24  0.328908 0.095428 1.403533  1.818756 0.659268 1.317010
25  13.652142 -15.917541 12.909437  2.074395 -0.598176 -1.750965
26  24.489557 -12.765261 -10.634670  -1.570796 -0.000000 -1.570796
27  0.449198 -13.144855 -6.669335  -0.051945 -0.000000 -1.570796
28  -9.523657 -7.409284 -2.492052  1.178104 -0.009833 1.961370
29  0.000001 13.479277 0.000001  0.657103 -0.000000 0.000000
30  0.000001 13.477240 0.000002  0.263555 0.146754 -0.148549
31  0.267269 3.664726 -1.953293  0.109629 -0.107225 0.495176
32  -0.000001 1.180354 0.000002  -0.029953 -0.007842 0.846531
33  0.000000 0.817135 -0.000001  0.012285 -0.000556 1.260036
34  0.249423 3.688543 -0.940889  -0.126560 -0.145246 0.899651
35  -0.000001 1.800630 -0.000002  -0.009643 -0.027168 1.400081
36  0.000000 1.243405 0.000001  0.002452 -0.006045 1.256197
37  0.244727 3.701096 0.087732  -0.174754 -0.151318 0.769502
38  0.000000 1.766585 0.000001  0.009385 0.010267 1.319679
39  0.000003 1.189004 -0.000001  -0.006898 0.016298 1.212361
40  0.277239 3.632248 1.274103  -0.295695 -0.170063 0.706218
41  -0.000001 1.798495 -0.000000  0.035176 0.008609 1.280163
42  -0.000001 1.235452 -0.000000  -0.008523 0.000599 1.061936
43  -0.315441 0.857302 0.755943  -0.678476 -2.468995 1.317854
44  0.000000 2.265940 -0.000001  -0.026878 0.060881 0.878738
45  0.000002 1.457815 -0.000001  -0.051628 -0.019293 0.611810
46  1.259682 3.818375 1.286945  -0.295695 -0.170063 0.706217
47  1.226390 3.891694 0.090419  -0.174753 -0.151318 0.769501
48  1.231622 3.875536 -0.958681  -0.126560 -0.145246 0.899651
49  1.209918 3.994783 -2.003049  0.109629 -0.107225 0.495175
50  -0.328906 0.095429 1.403532  -0.678476 -2.468995 1.317854
51  -10.941189 -8.263663 22.968529  2.117321 0.093620 2.142558
52  -23.015259 -13.132422 13.334921  -1.570796 -0.000000 1.570796
53  -9.523657 -7.409284 -2.492052  -0.051945 0.000000 1.570796
54  -9.280611 -26.377796 -7.896104  0.753846 1.013292 -0.349041
55  -0.000001 -0.000001 -0.000002  0.000000 -0.000000 -0.000000
56  -0.000001 -0.000001 -0.000002  0.000000 -0.000000 -0.000000
time 1
0  0 0 0  0 0 0
1  0.000000 0.000000 0.000000  1.570796 -0.000000 0.000000
2  0.449198 -13.144855 -6.669335  0.404134 0.149400 -1.579835
3  -0.000001 13.479279 0.000000  1.095043 0.000000 -0.000000
4  0.000000 13.477240 -0.000001  0.445175 -0.113766 0.722268
5  -0.267268 3.664726 -1.953292  -0.109273 -0.009193 0.015910
6  -0.000001 1.180354 0.000000  -0.034650 -0.013996 -0.361000
7  0.000001 0.817136 0.000000  0.006240 -0.010597 -0.176230
8  -0.249421 3.688542 -0.940888  -0.061967 -0.003654 0.030223
9  -0.000003 1.800633 0.000000  0.004496 0.002915 -0.385614
10  -0.000000 1.243405 0.000001  0.006429 0.001110 -0.241742
11  -0.244726 3.701097 0.087733  0.005394 0.001376 0.051267
12  -0.000001 1.766585 -0.000001  0.002986 -0.003146 -0.407487
13  0.000001 1.189003 -0.000001  -0.017111 -0.004521 -0.300227
14  -0.277239 3.632248 1.274102  0.087337 -0.003469 0.153871
15  0.000000 1.798494 0.000001  0.035865 0.012093 -0.325357
16  -0.000001 1.235451 0.000001  -0.005417 0.006608 -0.107658
17  0.315442 0.857300 0.755943  1.809561 0.610593 1.302723
18  0.000001 2.265940 -0.000001  -0.101735 -0.035799 -0.639541
19  -0.000001 1.457812 0.000001  -0.035735 0.041966 -0.104051
20  -1.259681 3.818376 1.286946  0.087337 -0.003469 0.153871
21  -1.226389 3.891693 0.090419  0.005394 0.001376 0.051267
22  -1.231621 3.875535 -0.958680  -0.061967 -0.003654 0.030223
23  -1.209919 3.994781 -2.003048  -0.109273 -0.009193 0.015910
24  0.328908 0.095428 1.403533  1.809561 0.610593 1.302723
25  13.780743 -16.055128 11.863887  2.005285 -0.576279 -1.658903
26  24.489557 -12.765261 -10.634670  -1.570796 -0.000000 -1.570796
27  0.449198 -13.144855 -6.669335  -0.051945 -0.000000 -1.570796
28  -9.523657 -7.409284 -2.492052  0.856851 -0.010081 1.961102
29  -0.000001 13.479276 0.000000  1.032598 -0.000000 0.000000
30  -0.000000 13.477239 0.000000  0.179936 0.131412 -0.253656
31  0.267270 3.664726 -1.953293  0.109630 -0.107225 0.495175
32  -0.000001 1.180355 0.000003  -0.029953 -0.007842 0.846531
33  0.000000 0.817136 -0.000000  0.012285 -0.000556 1.260036
34  0.249424 3.688542 -0.940890  -0.126560 -0.145246 0.899651
35  -0.000000 1.800634 -0.000001  -0.009643 -0.027168 1.400081
36  0.000002 1.243406 0.000001  0.002452 -0.006045 1.256196
37  0.244727 3.701097 0.087731  -0.174753 -0.151318 0.769501
38  -0.000001 1.766583 0.000000  0.009385 0.010267 1.319679
39  -0.000001 1.189004 -0.000001  -0.006898 0.016298 1.212362
40  0.277240 3.632248 1.274101  -0.295695 -0.170063 0.706217
41  0.000000 1.798493 0.000002  0.035176 0.008609 1.280163
42  0.000003 1.235451 0.000001  -0.008523 0.000599 1.061936
43  -0.315440 0.857299 0.755943  -0.678476 -2.468995 1.317854
44  0.000000 2.265938 -0.000001  -0.026878 0.060881 0.878738
45  0.000001 1.457812 0.000001  -0.051628 -0.019293 0.611810
46  1.259681 3.818374 1.286944  -0.295695 -0.170063 0.706217
47  1.226391 3.891693 0.090417  -0.174753 -0.151318 0.769501
48  1.231624 3.875533 -0.958682  -0.126560 -0.145246 0.899651
49  1.209920 3.994783 -2.003049  0.109629 -0.107225 0.495175
50  -0.328904 0.095427 1.403532  -0.678476 -2.468995 1.317854
51  -13.693436 -9.375340 20.492184  2.104604 0.186602 2.168539
52  -23.015259 -13.132422 13.334921  -1.570796 -0.000000 1.570796
53  -9.523657 -7.409284 -2.492052  -0.051945 0.000000 1.570796
54  -12.259838 -23.961124 -8.721903  0.657574 0.959129 -0.491234
55  0.000000 -0.000001 0.000002  -0.000000 -0.000000 -0.000000
56  0.000000 -0.000001 0.000002  -0.000000 -0.000000 -0.000000
time 2
0  0 0 0  0 0 0
1  0.000000 0.000000 0.000000  1.570796 -0.000000 0.000000
2  0.449198 -13.144855 -6.669335  0.227751 0.183403 -1.585604
3  0.000001 13.479277 0.000000  1.303743 0.000000 -0.000000
4  -0.000000 13.477239 -0.000000  0.369455 0.086185 0.713336
5  -0.267270 3.664726 -1.953293  -0.109656 0.000591 0.104876
6  0.000001 1.180357 0.000000  -0.035762 -0.010844 -0.271549
7  -0.000000 0.817135 0.000000  0.005268 -0.011113 -0.086727
8  -0.249424 3.688541 -0.940890  -0.062046 0.001896 0.119553
9  0.000000 1.800632 0.000000  0.004739 0.002501 -0.296113
10  0.000001 1.243406 0.000000  0.006502 0.000531 -0.152243
11  -0.244727 3.701095 0.087732  0.005496 0.000888 0.140767
12  -0.000001 1.766586 -0.000002  0.002692 -0.003401 -0.317985
13  -0.000000 1.189005 -0.000000  -0.017446 -0.002974 -0.210738
14  -0.277240 3.632247 1.274101  0.086635 -0.011263 0.243034
15  0.000000 1.798496 0.000001  0.036801 0.008842 -0.235977
16  0.000001 1.235451 -0.000001  -0.004805 0.007065 -0.018223
17  0.315440 0.857300 0.755943  1.794744 0.510968 1.274860
18  -0.000000 2.265939 0.000001  -0.106874 -0.031420 -0.538042
19  0.000000 1.457812 0.000001  -0.031296 0.045372 -0.002461
20  -1.259682 3.818375 1.286945  0.086635 -0.011263 0.243035
21  -1.226391 3.891693 0.090419  0.005496 0.000888 0.140767
22  -1.231624 3.875533 -0.958681  -0.062046 0.001896 0.119553
23  -1.209921 3.994781 -2.003049  -0.109656 0.000591 0.104876
24  0.328905 0.095428 1.403532  1.794744 0.510968 1.274860
25  14.063665 -16.357822 9.563675  1.845487 -0.523343 -1.456367
26  24.489557 -12.765261 -10.634670  -1.570796 -0.000000 -1.570796
27  0.449198 -13.144855 -6.669335  -0.051945 -0.000000 -1.570796
28  -9.523657 -7.409284 -2.492052  0.392911 -0.009751 1.961458
29  -0.000001 13.479276 -0.000001  1.378166 -0.000000 0.000000
30  0.000000 13.477240 0.000001  0.143094 0.167788 -0.424012
31  0.267270 3.664727 -1.953291  0.109630 -0.107225 0.495175
32  -0.000000 1.180355 0.000003  -0.029953 -0.007842 0.846531
33  0.000001 0.817135 0.000003  0.012285 -0.000556 1.260037
34  0.249424 3.688541 -0.940889  -0.126560 -0.145246 0.899651
35  0.000000 1.800633 0.000001  -0.009643 -0.027168 1.400081
36  0.000001 1.243406 0.000000  0.002452 -0.006045 1.256196
37  0.244726 3.701096 0.087734  -0.174754 -0.151318 0.769501
38  0.000000 1.766585 0.000000  0.009385 0.010267 1.319679
39  0.000003 1.189003 0.000000  -0.006898 0.016298 1.212361
40  0.277240 3.632247 1.274100  -0.295695 -0.170063 0.706217
41  -0.000000 1.798492 0.000000  0.035176 0.008609 1.280163
42  0.000001 1.235452 -0.000000  -0.008523 0.000599 1.061936
43  -0.315440 0.857299 0.755945  -0.678476 -2.468995 1.317854
44  0.000000 2.265939 -0.000001  -0.026878 0.060881 0.878738
45  -0.000001 1.457811 -0.000001  -0.051628 -0.019293 0.611810
46  1.259683 3.818375 1.286945  -0.295695 -0.170063 0.706217
47  1.226391 3.891692 0.090418  -0.174753 -0.151318 0.769501
48  1.231623 3.875533 -0.958680  -0.126560 -0.145246 0.899651
49  1.209920 3.994780 -2.003048  0.109629 -0.107225 0.495175
50  -0.328904 0.095428 1.403532  -0.678476 -2.468995 1.317854
51  -18.489889 -11.295528 15.874684  1.997998 0.363481 2.225977
52  -23.015259 -13.132422 13.334921  -1.570796 -0.000000 1.570796
53  -9.523657 -7.409284 -2.492052  -0.051945 0.000000 1.570796
54  -17.792692 -19.473022 -10.255528  0.625337 0.841335 -0.703638
55  -0.000001 0.000001 0.000001  -0.000000 -0.000000 0.000000
56  -0.000001 0.000001 0.000001  -0.000000 -0.000000 0.000000
time 3
0  0 0 0  0 0 0
1  0.000000 0.000000 0.000000  1.570796 -0.000000 0.000000
2  0.449198 -13.144855 -6.669335  0.061731 0.226209 -1.592974
3  0.000001 13.479277 0.000001  1.470520 0.000000 -0.000000
4  -0.000001 13.477239 0.000000  0.280821 0.277724 0.717109
5  -0.267269 3.664726 -1.953293  -0.109251 0.009447 0.185418
6  0.000001 1.180356 -0.000000  -0.036522 -0.007914 -0.190574
7  -0.000000 0.817134 0.000000  0.004352 -0.011502 -0.005698
8  -0.249421 3.688542 -0.940888  -0.061690 0.006908 0.200424
9  0.000002 1.800633 0.000001  0.004926 0.002109 -0.215088
10  0.000001 1.243405 0.000001  0.006524 0.000003 -0.071218
11  -0.244726 3.701095 0.087733  0.005550 0.000441 0.221792
12  0.000000 1.766585 0.000001  0.002408 -0.003607 -0.236959
13  -0.000003 1.189004 0.000001  -0.017630 -0.001552 -0.129724
14  -0.277238 3.632248 1.274102  0.085596 -0.018231 0.323770
15  -0.000001 1.798496 0.000000  0.037396 0.005837 -0.155062
16  -0.000000 1.235451 0.000000  -0.004218 0.007430 0.062747
17  0.315442 0.857300 0.755943  1.785789 0.429143 1.253771
18  -0.000000 2.265939 -0.000003  -0.110777 -0.027412 -0.453967
19  0.000000 1.457811 -0.000002  -0.027371 0.047841 0.081741
20  -1.259681 3.818375 1.286945  0.085596 -0.018231 0.323770
21  -1.226390 3.891693 0.090419  0.005550 0.000441 0.221792
22  -1.231622 3.875535 -0.958681  -0.061690 0.006908 0.200424
23  -1.209918 3.994781 -2.003048  -0.109251 0.009447 0.185418
24  0.328906 0.095430 1.403532  1.785789 0.429143 1.253771
25  14.346586 -16.660513 7.263463  1.666295 -0.458498 -1.253831
26  24.489557 -12.765261 -10.634670  -1.570796 -0.000000 -1.570796
27  0.449198 -13.144855 -6.669335  -0.051945 -0.000000 -1.570796
28  -9.523657 -7.409284 -2.492052  0.185548 0.041570 2.016924
29  0.000001 13.479275 -0.000000  1.509086 -0.000000 0.000000
30  -0.000000 13.477239 -0.000001  -0.112016 0.177263 -0.471742
31  0.267270 3.664725 -1.953293  0.109630 -0.107225 0.495175
32  -0.000002 1.180355 0.000001  -0.029953 -0.007842 0.846531
33  -0.000002 0.817135 0.000000  0.012285 -0.000556 1.260037
34  0.249423 3.688541 -0.940890  -0.126560 -0.145246 0.899651
35  -0.000000 1.800631 0.000002  -0.009643 -0.027168 1.400081
36  -0.000001 1.243406 -0.000002  0.002452 -0.006045 1.256196
37  0.244729 3.701095 0.087732  -0.174753 -0.151318 0.769501
38  -0.000000 1.766585 -0.000003  0.009385 0.010267 1.319679
39  0.000001 1.189003 -0.000001  -0.006898 0.016298 1.212362
40  0.277241 3.632247 1.274101  -0.295695 -0.170063 0.706217
41  -0.000001 1.798492 0.000001  0.035176 0.008609 1.280163
42  0.000001 1.235450 -0.000002  -0.008523 0.000599 1.061936
43  -0.315440 0.857298 0.755943  -0.678476 -2.468995 1.317854
44  0.000001 2.265941 0.000001  -0.026878 0.060881 0.878738
45  -0.000001 1.457811 -0.000001  -0.051628 -0.019293 0.611810
46  1.259681 3.818373 1.286945  -0.295695 -0.170063 0.706217
47  1.226391 3.891692 0.090418  -0.174753 -0.151318 0.769501
48  1.231624 3.875533 -0.958681  -0.126560 -0.145246 0.899651
49  1.209921 3.994781 -2.003048  0.109629 -0.107225 0.495175
50  -0.328905 0.095428 1.403531  -0.678476 -2.468995 1.317854
51  -20.256769 -11.812244 13.352825  1.694353 0.475952 2.278940
52  -23.015259 -13.132422 13.334921  -1.570796 -0.000000 1.570796
53  -9.523657 -7.409284 -2.492052  -0.051945 0.000000 1.570796
54  -20.771921 -17.056351 -11.081327  0.891890 0.772224 -0.797381
55  0.000001 0.000001 0.000001  0.000000 -0.000000 0.000000
56  0.000001 0.000001 0.000001  0.000000 -0.000000 0.000000
time 4
0  0 0 0  0 0 0
1  0.000000 0.000000 0.000000  1.570796 -0.000000 0.000000
2  0.449198 -13.144855 -6.669335  -0.012051 0.249505 -1.597045
3  -0.000001 13.479277 0.000000  1.535408 0.000000 -0.000000
4  0.000002 13.477239 -0.000001  0.187039 0.368361 0.701461
5  -0.267271 3.664727 -1.953292  -0.108642 0.014915 0.235409
6  0.000000 1.180356 0.000000  -0.036874 -0.006069 -0.140322
7  0.000001 0.817134 0.000000  0.003768 -0.011707 0.044589
8  -0.249425 3.688542 -0.940888  -0.061265 0.009998 0.250616
9  0.000000 1.800634 0.000000  0.005026 0.001859 -0.164803
10  -0.000000 1.243406 -0.000001  0.006516 -0.000325 -0.020934
11  -0.244729 3.701097 0.087734  0.005565 0.000161 0.272077
12  0.000000 1.766584 -0.000002  0.002224 -0.003724 -0.186673
13  0.000001 1.189003 0.000001  -0.017685 -0.000664 -0.079447
14  -0.277242 3.632250 1.274104  0.084739 -0.022495 0.373885
15  0.000001 1.798496 0.000000  0.037641 0.003952 -0.104847
16  0.000000 1.235451 -0.000000  -0.003839 0.007633 0.112998
17  0.315438 0.857302 0.755945  1.781575 0.385561 1.244049
18  0.000000 2.265942 0.000001  -0.112728 -0.025131 -0.408888
19  0.000000 1.457811 0.000001  -0.025184 0.049027 0.126906
20  -1.259681 3.818375 1.286947  0.084739 -0.022495 0.373885
21  -1.226392 3.891695 0.090420  0.005565 0.000161 0.272077
22  -1.231624 3.875535 -0.958679  -0.061265 0.009998 0.250616
23  -1.209921 3.994783 -2.003047  -0.108642 0.014915 0.235409
24  0.328904 0.095429 1.403534  1.781575 0.385561 1.244049
25  14.475187 -16.798100 6.217914  1.539006 -0.400878 -1.161769
26  24.489557 -12.765261 -10.634670  -1.570796 -0.000000 -1.570796
27  0.449198 -13.144855 -6.669335  -0.051945 -0.000000 -1.570796
28  -9.523657 -7.409284 2.257948  0.711654 0.048034 2.008331
29  0.000001 13.479277 0.000000  1.341606 -0.000000 0.000000
30  0.000001 13.477238 0.000001  -0.940851 0.021020 -0.427050
31  0.267271 3.664727 -1.953293  0.109629 -0.107225 0.495175
32  0.000001 1.180358 0.000000  -0.029953 -0.007842 0.846531
33  0.000001 0.817136 -0.000000  0.012285 -0.000556 1.260036
34  0.249424 3.688543 -0.940888  -0.126560 -0.145246 0.899651
35  -0.000003 1.800633 -0.000000  -0.009643 -0.027168 1.400081
36  -0.000000 1.243407 -0.000001  0.002452 -0.006045 1.256196
37  0.244726 3.701097 0.087733  -0.174753 -0.151318 0.769501
38  0.000001 1.766583 0.000001  0.009385 0.010267 1.319679
39  0.000001 1.189003 -0.000001  -0.006898 0.016298 1.212362
40  0.277239 3.632250 1.274103  -0.295695 -0.170063 0.706217
41  0.000001 1.798492 -0.000002  0.035176 0.008609 1.280163
42  -0.000001 1.235452 -0.000000  -0.008523 0.000599 1.061936
43  -0.315441 0.857301 0.755943  -0.678476 -2.468995 1.317854
44  0.000001 2.265938 0.000000  -0.026878 0.060881 0.878738
45  0.000001 1.457814 0.000000  -0.051628 -0.019293 0.611810
46  1.259681 3.818375 1.286946  -0.295695 -0.170063 0.706217
47  1.226391 3.891695 0.090419  -0.174753 -0.151318 0.769501
48  1.231623 3.875534 -0.958681  -0.126560 -0.145246 0.899651
49  1.209919 3.994783 -2.003046  0.109629 -0.107225 0.495175
50  -0.328905 0.095429 1.403532  -0.678476 -2.468995 1.317854
51  -13.527781 -8.182824 22.975197  1.170982 0.411909 2.240390
52  -23.015259 -13.132422 13.334921  -1.570796 -0.000000 1.570796
53  -9.523657 -7.409284 2.257948  -0.051945 0.000000 1.570796
54  -15.212231 -26.312794 -8.916850  1.456355 0.876810 -0.706493
55  0.000000 0.000000 0.000000  -0.000000 0.000000 0.000000
56  0.000000 0.000000 0.000000  -0.000000 0.000000 0.000000
time 5
0  0 0 0  0 0 0
1  0.000000 0.000000 0.000000  1.570796 -0.000000 0.000000
2  0.449198 -13.144855 -6.669335  -0.012706 0.247611 -1.596712
3  0.000000 13.479278 0.000000  1.541013 0.000000 -0.000000
4  0.000001 13.477238 -0.000001  0.099837 0.379451 0.654691
5  -0.267269 3.664728 -1.953293  -0.108038 0.018812 0.271234
6  -0.000001 1.180356 -0.000000  -0.037068 -0.004737 -0.104316
7  -0.000001 0.817135 0.000001  0.003344 -0.011835 0.080623
8  -0.249422 3.688542 -0.940888  -0.060866 0.012197 0.286582
9  -0.000000 1.800635 0.000000  0.005089 0.001677 -0.128772
10  0.000000 1.243405 -0.000001  0.006500 -0.000559 0.015096
11  -0.244725 3.701096 0.087733  0.005567 -0.000039 0.308107
12  0.000000 1.766584 0.000000  0.002088 -0.003801 -0.150642
13  0.000001 1.189005 -0.000001  -0.017698 -0.000026 -0.043421
14  -0.277238 3.632249 1.274102  0.084018 -0.025523 0.409799
15  0.000000 1.798494 -0.000000  0.037759 0.002595 -0.068865
16  -0.000000 1.235451 0.000000  -0.003562 0.007766 0.149005
17  0.315443 0.857300 0.755944  1.778997 0.354451 1.236943
18  0.000000 2.265940 0.000003  -0.114061 -0.023444 -0.376592
19  0.000000 1.457811 0.000001  -0.023585 0.049816 0.159271
20  -1.259681 3.818376 1.286946  0.084018 -0.025523 0.409799
21  -1.226389 3.891694 0.090419  0.005567 -0.000039 0.308107
22  -1.231623 3.875535 -0.958680  -0.060866 0.012197 0.286583
23  -1.209918 3.994782 -2.003047  -0.108038 0.018812 0.271234
24  0.328907 0.095429 1.403532  1.778997 0.354451 1.236943
25  14.410299 -16.765850 6.218399  1.471988 -0.359726 -1.162109
26  24.489557 -12.765261 -10.634670  -1.570796 -0.000000 -1.570796
27  0.449198 -13.144855 -6.669335  -0.051945 -0.000000 -1.570796
28  -9.523657 -7.409284 7.007948  1.565346 0.017049 1.979351
29  0.000000 13.479278 -0.000001  0.402632 -0.000000 0.000000
30  -0.000001 13.477237 -0.000000  -1.144361 0.080588 -0.239900
31  0.267270 3.664725 -1.953295  0.109629 -0.107225 0.495175
32  -0.000000 1.180356 -0.000001  -0.029953 -0.007842 0.846531
33  -0.000002 0.817136 0.000001  0.012286 -0.000556 1.260036
34  0.249423 3.688540 -0.940893  -0.126560 -0.145246 0.899651
35  0.000002 1.800635 0.000001  -0.009643 -0.027168 1.400081
36  -0.000001 1.243409 0.000001  0.002452 -0.006045 1.256196
37  0.244726 3.701098 0.087734  -0.174753 -0.151318 0.769501
38  0.000000 1.766582 0.000001  0.009385 0.010267 1.319679
39  -0.000001 1.189003 -0.000002  -0.006898 0.016298 1.212362
40  0.277240 3.632247 1.274098  -0.295695 -0.170063 0.706217
41  0.000001 1.798496 -0.000004  0.035176 0.008609 1.280163
42  -0.000001 1.235451 0.000000  -0.008523 0.000599 1.061936
43  -0.315441 0.857301 0.755943  -0.678476 -2.468995 1.317854
44  -0.000000 2.265939 -0.000000  -0.026878 0.060881 0.878738
45  -0.000001 1.457811 -0.000002  -0.051628 -0.019293 0.611810
46  1.259681 3.818376 1.286945  -0.295695 -0.170063 0.706217
47  1.226391 3.891694 0.090417  -0.174753 -0.151318 0.769501
48  1.231623 3.875536 -0.958681  -0.126560 -0.145246 0.899651
49  1.209919 3.994781 -2.003050  0.109629 -0.107225 0.495175
50  -0.328905 0.095429 1.403531  -0.678476 -2.468995 1.317854
51  -4.982404 -4.962033 32.911057  0.852339 0.205175 2.149571
52  -23.015259 -13.132422 13.334921  -1.570796 -0.000000 1.570796
53  -9.523657 -7.409284 7.007948  -0.051945 0.000000 1.570796
54  -7.042614 -35.569237 -6.752372  1.981583 1.056516 -0.397524
55  0.000000 0.000003 -0.000001  -0.000000 -0.000000 0.000000
56  0.000000 0.000003 -0.000001  -0.000000 -0.000000 0.000000
time 6
0  0 0 0  0 0 0
1  0.000000 0.000000 0.000000  1.570796 -0.000000 0.000000
2  0.449198 -13.144855 -6.669335  -0.014408 0.241608 -1.595660
3  0.000001 13.479277 0.000001  1.556737 0.000000 -0.000000
4  0.000000 13.477239 -0.000001  0.026617 0.390202 0.612255
5  -0.267268 3.664725 -1.953292  -0.107555 0.021410 0.295251
6  0.000000 1.180356 -0.000000  -0.037172 -0.003841 -0.080180
7  0.000000 0.817137 -0.000001  0.003057 -0.011912 0.104776
8  -0.249421 3.688542 -0.940890  -0.060555 0.013663 0.310693
9  0.000001 1.800632 0.000000  0.005128 0.001553 -0.104620
10  -0.000001 1.243406 -0.000001  0.006484 -0.000716 0.039248
11  -0.244725 3.701095 0.087734  0.005564 -0.000174 0.332259
12  -0.000001 1.766585 -0.000001  0.001996 -0.003851 -0.126489
13  -0.000001 1.189003 0.000000  -0.017693 0.000401 -0.019273
14  -0.277237 3.632248 1.274103  0.083460 -0.027539 0.433876
15  0.000001 1.798494 0.000001  0.037811 0.001683 -0.044746
16  0.000000 1.235452 0.000001  -0.003374 0.007850 0.173143
17  0.315443 0.857300 0.755943  1.777477 0.333656 1.232106
18  -0.000001 2.265940 0.000001  -0.114924 -0.022290 -0.354945
19  -0.000000 1.457811 -0.000003  -0.022499 0.050315 0.180967
20  -1.259680 3.818374 1.286946  0.083460 -0.027539 0.433876
21  -1.226388 3.891693 0.090419  0.005564 -0.000174 0.332259
22  -1.231622 3.875533 -0.958679  -0.060555 0.013663 0.310693
23  -1.209916 3.994781 -2.003048  -0.107555 0.021410 0.295251
24  0.328909 0.095428 1.403533  1.777477 0.333656 1.232106
25  14.226923 -16.665127 6.221796  1.423967 -0.330240 -1.164491
26  24.489557 -12.765261 -10.634670  -1.570796 -0.000000 -1.570796
27  0.449198 -13.144855 -6.669335  -0.051945 -0.000000 -1.570796
28  -9.940471 -7.409284 6.594319  1.822107 -0.027886 1.970220
29  0.000001 13.479278 -0.000001  0.133629 -0.000000 0.000000
30  0.000000 13.477239 0.000001  -0.960779 0.138937 -0.034394
31  0.267269 3.664723 -1.953295  0.109629 -0.107225 0.495175
32  0.000001 1.180354 0.000000  -0.029953 -0.007842 0.846531
33  0.000003 0.817135 0.000000  0.012285 -0.000556 1.260036
34  0.249422 3.688539 -0.940890  -0.126560 -0.145246 0.899651
35  -0.000000 1.800634 -0.000001  -0.009643 -0.027168 1.400080
36  0.000001 1.243405 0.000001  0.002452 -0.006045 1.256196
37  0.244726 3.701093 0.087731  -0.174753 -0.151318 0.769501
38  0.000003 1.766582 -0.000000  0.009385 0.010267 1.319679
39  0.000001 1.189005 -0.000002  -0.006897 0.016298 1.212362
40  0.277239 3.632245 1.274100  -0.295695 -0.170063 0.706217
41  -0.000001 1.798494 -0.000000  0.035176 0.008609 1.280163
42  0.000001 1.235451 0.000004  -0.008523 0.000599 1.061936
43  -0.315441 0.857300 0.755945  -0.678476 -2.468995 1.317854
44  0.000000 2.265938 -0.000000  -0.026878 0.060881 0.878738
45  0.000001 1.457814 -0.000001  -0.051628 -0.019293 0.611810
46  1.259680 3.818371 1.286945  -0.295695 -0.170063 0.706217
47  1.226389 3.891691 0.090418  -0.174753 -0.151318 0.769501
48  1.231622 3.875531 -0.958682  -0.126560 -0.145246 0.899651
49  1.209918 3.994781 -2.003048  0.109629 -0.107225 0.495175
50  -0.328907 0.095429 1.403533  -0.678476 -2.468995 1.317854
51  -1.912983 -4.793931 32.131233  0.991959 -0.048048 2.112003
52  -23.015259 -13.132422 13.334921  -1.570796 -0.000000 1.570796
53  -9.940471 -7.409284 6.594319  -0.051945 0.000000 1.570796
54  -3.369390 -34.962811 -6.886007  2.266631 1.124922 0.108830
55  0.000000 0.000001 0.000001  0.000000 -0.000000 0.000000
56  0.000000 0.000001 0.000001  0.000000 -0.000000 0.000000
time 7
0  0 0 0  0 0 0
1  0.000000 0.000000 0.000000  1.570796 -0.000000 0.000000
2  0.449198 -13.144855 -6.669335  -0.016587 0.230977 -1.593803
3  0.000002 13.479276 0.000000  1.580751 0.000000 -0.000000
4  -0.000000 13.477239 0.000000  -0.036338 0.397853 0.571647
5  -0.267269 3.664727 -1.953295  -0.107232 0.022981 0.309821
6  0.000000 1.180355 0.000000  -0.037224 -0.003296 -0.065540
7  0.000001 0.817135 -0.000000  0.002882 -0.011955 0.119427
8  -0.249422 3.688542 -0.940890  -0.060348 0.014548 0.325318
9  0.000000 1.800634 -0.000001  0.005151 0.001478 -0.089970
10  0.000000 1.243407 -0.000001  0.006473 -0.000811 0.053898
11  -0.244726 3.701096 0.087731  0.005561 -0.000255 0.346909
12  -0.000003 1.766585 -0.000000  0.001939 -0.003880 -0.111839
13  0.000001 1.189003 0.000001  -0.017685 0.000660 -0.004625
14  -0.277239 3.632250 1.274101  0.083055 -0.028755 0.448480
15  -0.000002 1.798494 -0.000002  0.037831 0.001129 -0.030116
16  -0.000001 1.235452 -0.000000  -0.003258 0.007898 0.187783
17  0.315442 0.857300 0.755942  1.776637 0.321067 1.229140
18  0.000001 2.265940 -0.000002  -0.115435 -0.021581 -0.341816
19  -0.000000 1.457811 -0.000001  -0.021835 0.050606 0.194128
20  -1.259681 3.818375 1.286944  0.083055 -0.028755 0.448481
21  -1.226389 3.891695 0.090418  0.005561 -0.000255 0.346909
22  -1.231622 3.875534 -0.958681  -0.060348 0.014548 0.325318
23  -1.209918 3.994782 -2.003048  -0.107232 0.022981 0.309820
24  0.328907 0.095429 1.403531  1.776637 0.321066 1.229140
25  13.941984 -16.489967 6.231017  1.391778 -0.310474 -1.170956
26  24.489557 -12.765261 -10.634670  -1.570796 -0.000000 -1.570796
27  0.449198 -13.144855 -6.669335  -0.051945 -0.000000 -1.570796
28  -10.895586 -7.409284 5.648345  1.735995 -0.056955 1.979268
29  0.000000 13.479278 -0.000001  0.382044 -0.000000 0.000000
30  0.000000 13.477238 0.000001  -0.746404 0.201298 0.117240
31  0.267269 3.664724 -1.953294  0.109629 -0.107225 0.495175
32  0.000002 1.180355 0.000000  -0.029953 -0.007842 0.846531
33  0.000001 0.817135 0.000000  0.012285 -0.000556 1.260037
34  0.249423 3.688541 -0.940889  -0.126560 -0.145246 0.899651
35  0.000001 1.800632 -0.000000  -0.009643 -0.027168 1.400081
36  0.000001 1.243408 -0.000000  0.002452 -0.006045 1.256196
37  0.244726 3.701092 0.087732  -0.174753 -0.151318 0.769501
38  -0.000002 1.766584 0.000001  0.009385 0.010267 1.319679
39  -0.000002 1.189005 0.000001  -0.006898 0.016298 1.212362
40  0.277239 3.632245 1.274102  -0.295695 -0.170063 0.706217
41  0.000000 1.798494 -0.000001  0.035176 0.008609 1.280163
42  -0.000000 1.235449 0.000000  -0.008523 0.000599 1.061936
43  -0.315441 0.857298 0.755943  -0.678476 -2.468995 1.317854
44  0.000002 2.265941 -0.000002  -0.026878 0.060881 0.878738
45  0.000000 1.457811 -0.000001  -0.051628 -0.019293 0.611810
46  1.259680 3.818370 1.286945  -0.295695 -0.170063 0.706217
47  1.226391 3.891693 0.090420  -0.174753 -0.151318 0.769501
48  1.231623 3.875532 -0.958680  -0.126560 -0.145246 0.899651
49  1.209919 3.994781 -2.003047  0.109629 -0.107225 0.495175
50  -0.328906 0.095425 1.403532  -0.678476 -2.468995 1.317854
51  -1.864771 -5.039180 30.412823  1.341490 -0.259889 2.094491
52  -23.015259 -13.132422 13.334921  -1.570796 -0.000000 1.570796
53  -10.895586 -7.409284 5.648345  -0.051945 0.000000 1.570796
54  -2.016097 -33.563461 -7.176073  2.252903 1.088920 0.501145
55  0.000001 0.000000 0.000001  -0.000000 -0.000000 0.000000
56  0.000001 0.000000 0.000001  -0.000000 -0.000000 0.000000
time 8
0  0 0 0  0 0 0
1  0.000000 0.000000 0.000000  1.570796 -0.000000 0.000000
2  0.449198 -13.144855 -6.669335  -0.018509 0.215149 -1.591057
3  0.000002 13.479277 0.000000  1.611053 0.000000 -0.000000
4  0.000000 13.477239 -0.000001  -0.092541 0.399582 0.530727
5  -0.267270 3.664726 -1.953291  -0.107057 0.023785 0.317303
6  0.000000 1.180355 0.000000  -0.037248 -0.003016 -0.058022
7  0.000000 0.817134 0.000000  0.002792 -0.011977 0.126951
8  -0.249421 3.688542 -0.940887  -0.060237 0.015001 0.332828
9  -0.000001 1.800634 0.000000  0.005162 0.001439 -0.082447
10  0.000000 1.243407 -0.000001  0.006467 -0.000860 0.061421
11  -0.244726 3.701096 0.087734  0.005559 -0.000297 0.354432
12  -0.000000 1.766585 -0.000002  0.001910 -0.003894 -0.104316
13  -0.000001 1.189004 0.000001  -0.017680 0.000793 0.002897
14  -0.277239 3.632248 1.274103  0.082768 -0.029378 0.455981
15  -0.000002 1.798495 0.000001  0.037839 0.000845 -0.022603
16  -0.000000 1.235452 0.000001  -0.003199 0.007923 0.195302
17  0.315443 0.857299 0.755944  1.776230 0.314608 1.227608
18  0.000000 2.265940 0.000000  -0.115694 -0.021214 -0.335074
19  -0.000000 1.457812 0.000000  -0.021493 0.050753 0.200887
20  -1.259682 3.818375 1.286946  0.082768 -0.029378 0.455981
21  -1.226390 3.891693 0.090420  0.005559 -0.000297 0.354432
22  -1.231622 3.875534 -0.958680  -0.060237 0.015001 0.332828
23  -1.209917 3.994781 -2.003047  -0.107057 0.023785 0.317302
24  0.328907 0.095429 1.403534  1.776230 0.314609 1.227608
25  13.572409 -16.234413 6.248974  1.372252 -0.298486 -1.183545
26  24.489557 -12.765261 -10.634670  -1.570796 -0.000000 -1.570796
27  0.449198 -13.144855 -6.669335  -0.051945 -0.000000 -1.570796
28  -11.946009 -7.409284 4.612401  1.638177 -0.083479 1.989373
29  -0.000000 13.479275 -0.000002  0.562885 -0.000000 0.000000
30  -0.000000 13.477240 -0.000003  -0.436188 0.227479 0.180730
31  0.267268 3.664725 -1.953292  0.109629 -0.107225 0.495175
32  0.000003 1.180357 -0.000001  -0.029954 -0.007842 0.846531
33  0.000000 0.817136 0.000002  0.012285 -0.000556 1.260036
34  0.249422 3.688540 -0.940888  -0.126560 -0.145246 0.899651
35  0.000001 1.800633 -0.000001  -0.009643 -0.027168 1.400081
36  -0.000001 1.243408 -0.000001  0.002452 -0.006045 1.256196
37  0.244725 3.701092 0.087734  -0.174753 -0.151318 0.769501
38  0.000002 1.766583 -0.000000  0.009385 0.010267 1.319679
39  0.000000 1.189003 0.000000  -0.006898 0.016298 1.212362
40  0.277239 3.632248 1.274103  -0.295695 -0.170063 0.706217
41  0.000002 1.798494 0.000000  0.035176 0.008609 1.280163
42  -0.000001 1.235454 0.000001  -0.008523 0.000599 1.061936
43  -0.315443 0.857298 0.755945  -0.678476 -2.468995 1.317854
44  -0.000003 2.265940 0.000001  -0.026878 0.060881 0.878738
45  -0.000001 1.457811 0.000000  -0.051628 -0.019293 0.611810
46  1.259680 3.818372 1.286947  -0.295695 -0.170063 0.706217
47  1.226388 3.891689 0.090420  -0.174753 -0.151318 0.769501
48  1.231622 3.875534 -0.958680  -0.126560 -0.145246 0.899651
49  1.209919 3.994782 -2.003047  0.109629 -0.107225 0.495175
50  -0.328907 0.095427 1.403534  -0.678476 -2.468995 1.317854
51  -3.034892 -5.665969 28.864021  1.725343 -0.361140 2.073906
52  -23.015259 -13.132422 13.334921  -1.570796 -0.000000 1.570796
53  -11.946009 -7.409284 4.612401  -0.051945 0.000000 1.570796
54  -1.822768 -32.001083 -7.456307  1.981583 1.056516 0.630531
55  -0.000000 0.000001 -0.000000  0.000000 0.000000 0.000000
56  -0.000000 0.000001 -0.000000  0.000000 0.000000 0.000000
time 9
0  0 0 0  0 0 0
1  0.000000 0.000000 0.000000  1.570796 -0.000000 0.000000
2  0.449198 -13.144855 -6.669335  -0.019333 0.193523 -1.587335
3  0.000001 13.479276 0.000000  1.645526 0.000000 -0.000000
4  -0.000001 13.477238 -0.000000  -0.145371 0.392444 0.487865
5  -0.267268 3.664727 -1.953293  -0.106991 0.024081 0.320059
6  -0.000000 1.180356 0.000000  -0.037256 -0.002913 -0.055252
7  -0.000002 0.817136 0.000000  0.002759 -0.011985 0.129723
8  -0.249422 3.688543 -0.940890  -0.060196 0.015168 0.335595
9  -0.000001 1.800633 0.000001  0.005166 0.001425 -0.079675
10  0.000000 1.243405 0.000000  0.006464 -0.000878 0.064193
11  -0.244726 3.701096 0.087733  0.005558 -0.000313 0.357204
12  0.000002 1.766583 -0.000001  0.001899 -0.003899 -0.101545
13  0.000001 1.189003 -0.000000  -0.017678 0.000842 0.005668
14  -0.277239 3.632249 1.274101  0.082552 -0.029607 0.458744
15  -0.000002 1.798494 0.000001  0.037841 0.000740 -0.019836
16  -0.000002 1.235452 0.000000  -0.003177 0.007932 0.198071
17  0.315442 0.857300 0.755943  1.776084 0.312230 1.227041
18  0.000000 2.265940 0.000000  -0.115789 -0.021078 -0.332590
19  0.000001 1.457810 -0.000004  -0.021366 0.050806 0.203376
20  -1.259680 3.818375 1.286946  0.082552 -0.029607 0.458744
21  -1.226391 3.891694 0.090418  0.005558 -0.000312 0.357204
22  -1.231623 3.875535 -0.958681  -0.060196 0.015168 0.335595
23  -1.209918 3.994783 -2.003049  -0.106991 0.024081 0.320059
24  0.328907 0.095429 1.403532  1.776084 0.312231 1.227041
25  13.135126 -15.892500 6.278579  1.362226 -0.292329 -1.204301
26  24.489557 -12.765261 -10.634670  -1.570796 -0.000000 -1.570796
27  0.449198 -13.144855 -6.669335  -0.051945 -0.000000 -1.570796
28  -12.747406 -7.409284 3.837129  1.579352 -0.108173 1.991435
29  0.000000 13.479277 0.000001  0.648942 -0.000000 0.000000
30  -0.000001 13.477238 -0.000000  -0.183301 0.200449 0.166160
31  0.267270 3.664728 -1.953292  0.109629 -0.107225 0.495175
32  -0.000002 1.180353 -0.000003  -0.029953 -0.007842 0.846531
33  0.000002 0.817136 -0.000001  0.012285 -0.000556 1.260037
34  0.249423 3.688542 -0.940889  -0.126560 -0.145246 0.899651
35  0.000001 1.800635 -0.000002  -0.009643 -0.027168 1.400081
36  0.000000 1.243409 0.000000  0.002452 -0.006045 1.256196
37  0.244728 3.701098 0.087733  -0.174753 -0.151318 0.769501
38  0.000002 1.766585 -0.000000  0.009385 0.010267 1.319679
39  -0.000001 1.189005 0.000000  -0.006898 0.016298 1.212362
40  0.277240 3.632250 1.274102  -0.295695 -0.170063 0.706217
41  -0.000002 1.798495 0.000001  0.035176 0.008609 1.280163
42  -0.000000 1.235451 -0.000000  -0.008523 0.000599 1.061936
43  -0.315441 0.857301 0.755944  -0.678476 -2.468995 1.317854
44  -0.000004 2.265940 -0.000000  -0.026878 0.060881 0.878738
45  -0.000002 1.457811 -0.000000  -0.051628 -0.019293 0.611810
46  1.259682 3.818376 1.286946  -0.295695 -0.170063 0.706217
47  1.226391 3.891694 0.090419  -0.174753 -0.151318 0.769501
48  1.231624 3.875537 -0.958681  -0.126560 -0.145246 0.899651
49  1.209921 3.994785 -2.003048  0.109629 -0.107225 0.495175
50  -0.328905 0.095429 1.403533  -0.678476 -2.468995 1.317854
51  -4.059260 -6.378552 27.842081  2.013583 -0.360626 2.054044
52  -23.015259 -13.132422 13.334921  -1.570796 -0.000000 1.570796
53  -12.747406 -7.409284 3.837129  -0.051945 0.000000 1.570796
54  -1.995007 -30.784752 -7.641592  1.670561 1.063248 0.596421
55  0.000001 0.000001 -0.000001  -0.000000 0.000000 -0.000000
56  0.000001 0.000001 -0.000001  -0.000000 0.000000 -0.000000
time 10
0  0 0 0  0 0 0
1  0.000000 0.000000 0.000000  1.570796 -0.000000 0.000000
2  0.449198 -13.144855 -6.669335  -0.018162 0.165484 -1.582555
3  0.000000 13.479278 0.000000  1.681977 0.000000 -0.000000
4  -0.000001 13.477240 0.000001  -0.198034 0.373325 0.442105
5  -0.267268 3.664725 -1.953292  -0.106981 0.024124 0.320453
6  0.000000 1.180353 0.000001  -0.037257 -0.002898 -0.054857
7  0.000003 0.817135 0.000000  0.002754 -0.011986 0.130118
8  -0.249421 3.688540 -0.940889  -0.060190 0.015192 0.335990
9  0.000001 1.800633 -0.000001  0.005166 0.001423 -0.079280
10  0.000001 1.243406 0.000000  0.006464 -0.000880 0.064589
11  -0.244725 3.701096 0.087732  0.005558 -0.000315 0.357600
12  -0.000001 1.766586 0.000001  0.001898 -0.003900 -0.101148
13  -0.000001 1.189004 0.000000  -0.017677 0.000849 0.006064
14  -0.277238 3.632248 1.274102  0.082351 -0.029640 0.459139
15  -0.000000 1.798494 -0.000000  0.037841 0.000725 -0.019440
16  0.000001 1.235452 -0.000000  -0.003174 0.007933 0.198467
17  0.315443 0.857299 0.755943  1.776064 0.311891 1.226961
18  -0.000001 2.265940 0.000000  -0.115803 -0.021059 -0.332235
19  0.000001 1.457812 0.000001  -0.021348 0.050814 0.203732
20  -1.259680 3.818375 1.286946  0.082352 -0.029640 0.459139
21  -1.226388 3.891693 0.090419  0.005558 -0.000315 0.357600
22  -1.231622 3.875533 -0.958681  -0.060190 0.015192 0.335990
23  -1.209917 3.994782 -2.003048  -0.106981 0.024124 0.320453
24  0.328907 0.095428 1.403532  1.776064 0.311891 1.226961
25  12.647062 -15.458266 6.322743  1.358532 -0.290061 -1.235264
26  24.489557 -12.765261 -10.634670  -1.570796 -0.000000 -1.570796
27  0.449198 -13.144855 -6.669335  -0.051945 -0.000000 -1.570796
28  -13.284203 -7.409285 3.309680  1.529404 -0.124106 1.991436
29  0.000000 13.479276 0.000000  0.704877 0.000000 0.000000
30  0.000000 13.477242 -0.000002  -0.003755 0.161038 0.125950
31  0.267270 3.664729 -1.953290  0.109629 -0.107225 0.495175
32  -0.000003 1.180353 0.000002  -0.029954 -0.007842 0.846531
33  -0.000002 0.817135 0.000000  0.012285 -0.000556 1.260036
34  0.249424 3.688545 -0.940886  -0.126560 -0.145246 0.899651
35  0.000002 1.800633 0.000000  -0.009643 -0.027168 1.400081
36  0.000000 1.243405 -0.000001  0.002452 -0.006045 1.256196
37  0.244726 3.701099 0.087736  -0.174753 -0.151318 0.769501
38  0.000000 1.766585 0.000000  0.009385 0.010267 1.319679
39  0.000000 1.189005 0.000000  -0.006898 0.016298 1.212362
40  0.277239 3.632249 1.274106  -0.295695 -0.170063 0.706217
41  0.000001 1.798492 0.000000  0.035176 0.008609 1.280163
42  0.000001 1.235451 0.000001  -0.008523 0.000599 1.061936
43  -0.315441 0.857304 0.755946  -0.678476 -2.468995 1.317854
44  -0.000000 2.265940 -0.000000  -0.026878 0.060881 0.878738
45  -0.000000 1.457808 -0.000000  -0.051628 -0.019293 0.611810
46  1.259681 3.818377 1.286950  -0.295695 -0.170063 0.706217
47  1.226390 3.891695 0.090422  -0.174753 -0.151318 0.769501
48  1.231624 3.875537 -0.958677  -0.126560 -0.145246 0.899651
49  1.209919 3.994784 -2.003045  0.109629 -0.107225 0.495175
50  -0.328906 0.095431 1.403535  -0.678476 -2.468995 1.317854
51  -4.999430 -6.969375 27.209761  2.208643 -0.321663 2.044125
52  -23.015259 -13.132422 13.334921  -1.570796 -0.000000 1.570796
53  -13.284203 -7.409285 3.309680  -0.051945 0.000000 1.570796
54  -2.464447 -29.940199 -7.765794  1.398011 1.078324 0.502417
55  -0.000001 -0.000002 0.000000  0.000000 -0.000000 0.000000
56  -0.000001 -0.000002 0.000000  0.000000 -0.000000 0.000000
time 11
0  0 0 0  0 0 0
1  0.000000 0.000000 0.000000  1.570796 -0.000000 0.000000
2  0.449198 -13.144855 -6.669335  -0.014211 0.130448 -1.576646
3  0.000001 13.479278 0.000001  1.718333 0.000000 -0.000000
4  -0.000001 13.477240 0.000002  -0.253520 0.338978 0.393305
5  -0.267271 3.664727 -1.953292  -0.108059 0.018693 0.270141
6  -0.000000 1.180356 -0.000001  -0.037063 -0.004778 -0.105415
7  -0.000000 0.817134 -0.000000  0.003357 -0.011831 0.079523
8  -0.249424 3.688542 -0.940888  -0.060880 0.012130 0.285485
9  0.000000 1.800634 -0.000000  0.005087 0.001682 -0.129872
10  0.000000 1.243405 0.000000  0.006500 -0.000552 0.013997
11  -0.244727 3.701096 0.087734  0.005567 -0.000033 0.307008
12  -0.000002 1.766584 0.000000  0.002093 -0.003799 -0.151742
13  -0.000001 1.189003 0.000000  -0.017698 -0.000046 -0.044521
14  -0.277241 3.632248 1.274103  0.083202 -0.025442 0.408702
15  -0.000000 1.798494 0.000000  0.037756 0.002636 -0.069964
16  0.000000 1.235452 -0.000000  -0.003571 0.007762 0.147907
17  0.315440 0.857300 0.755944  1.776500 0.321446 1.229571
18  -0.000000 2.265939 -0.000002  -0.115420 -0.021602 -0.342215
19  0.000001 1.457811 -0.000002  -0.021855 0.050598 0.193729
20  -1.259683 3.818374 1.286947  0.083201 -0.025442 0.408702
21  -1.226392 3.891692 0.090420  0.005567 -0.000033 0.307007
22  -1.231625 3.875533 -0.958680  -0.060880 0.012130 0.285485
23  -1.209920 3.994781 -2.003047  -0.108059 0.018693 0.270140
24  0.328905 0.095428 1.403533  1.776500 0.321447 1.229571
25  12.125143 -14.925753 6.384378  1.358005 -0.289737 -1.278477
26  24.489557 -12.765261 -10.634670  -1.570796 -0.000000 -1.570796
27  0.449198 -13.144855 -6.669335  -0.051945 -0.000000 -1.570796
28  -13.606548 -7.409285 2.927186  1.476739 -0.131719 1.991744
29  -0.000000 13.479276 -0.000000  0.756159 -0.000000 0.000000
30  0.000000 13.477240 -0.000002  0.108652 0.118279 0.069081
31  0.267271 3.664728 -1.953293  0.109629 -0.107225 0.495175
32  0.000001 1.180355 0.000000  -0.029953 -0.007842 0.846531
33  0.000001 0.817135 0.000001  0.012285 -0.000556 1.260036
34  0.249424 3.688542 -0.940889  -0.126560 -0.145246 0.899651
35  0.000000 1.800633 0.000002  -0.009643 -0.027168 1.400081
36  -0.000001 1.243405 -0.000000  0.002452 -0.006045 1.256196
37  0.244727 3.701097 0.087732  -0.174753 -0.151318 0.769501
38  -0.000001 1.766583 0.000000  0.009385 0.010267 1.319679
39  0.000001 1.189002 -0.000001  -0.006898 0.016298 1.212362
40  0.277239 3.632248 1.274103  -0.295695 -0.170063 0.706218
41  -0.000001 1.798496 0.000000  0.035176 0.008609 1.280163
42  -0.000001 1.235451 -0.000000  -0.008523 0.000599 1.061936
43  -0.315440 0.857301 0.755943  -0.678476 -2.468995 1.317854
44  -0.000001 2.265939 -0.000000  -0.026878 0.060881 0.878738
45  0.000001 1.457811 -0.000000  -0.051628 -0.019293 0.611810
46  1.259682 3.818376 1.286946  -0.295695 -0.170063 0.706217
47  1.226392 3.891694 0.090419  -0.174753 -0.151318 0.769501
48  1.231624 3.875536 -0.958680  -0.126560 -0.145246 0.899651
49  1.209919 3.994781 -2.003048  0.109629 -0.107225 0.495175
50  -0.328905 0.095430 1.403532  -0.678476 -2.468995 1.317854
51  -5.909291 -7.423788 26.767731  2.327216 -0.258488 2.044450
52  -23.015259 -13.132422 13.334921  -1.570796 -0.000000 1.570796
53  -13.606548 -7.409285 2.927186  -0.051945 0.000000 1.570796
54  -3.160173 -29.372324 -7.841129  1.156692 1.092505 0.361181
55  -0.000000 -0.000002 0.000000  0.000000 -0.000000 -0.000000
56  -0.000000 -0.000002 0.000000  0.000000 -0.000000 -0.000000
time 12
0  0 0 0  0 0 0
1  0.000000 0.000000 0.000000  1.570796 -0.000000 0.000000
2  0.449198 -13.144855 -6.669335  -0.006286 0.087932 -1.569548
3  0.000001 13.479277 0.000001  1.751830 0.000000 -0.000000
4  0.000001 13.477237 0.000000  -0.313290 0.213736 0.379447
5  -0.267270 3.664727 -1.953293  -0.109516 0.005579 0.150201
6  0.000000 1.180355 -0.000001  -0.036219 -0.009203 -0.225979
7  -0.000000 0.817136 -0.000001  0.004756 -0.011341 -0.041127
8  -0.249424 3.688541 -0.940889  -0.061895 0.004720 0.165063
9  -0.000001 1.800635 0.000000  0.004848 0.002282 -0.250515
10  -0.000001 1.243406 0.000000  0.006519 0.000234 -0.106646
11  -0.244727 3.701096 0.087733  0.005531 0.000637 0.186365
12  -0.000000 1.766585 -0.000001  0.002535 -0.003520 -0.272387
13  0.000000 1.189003 -0.000000  -0.017564 -0.002175 -0.165147
14  -0.277240 3.632248 1.274103  0.084998 -0.015239 0.288464
15  -0.000000 1.798494 0.000000  0.037166 0.007157 -0.190442
16  -0.000000 1.235452 -0.000001  -0.004478 0.007277 0.027342
17  0.315440 0.857300 0.755944  1.777902 0.347443 1.236598
18  0.000000 2.265939 -0.000000  -0.114355 -0.023058 -0.369303
19  -0.000000 1.457811 -0.000002  -0.023220 0.049986 0.166577
20  -1.259682 3.818375 1.286946  0.084997 -0.015239 0.288464
21  -1.226391 3.891694 0.090418  0.005531 0.000637 0.186365
22  -1.231623 3.875535 -0.958681  -0.061896 0.004720 0.165064
23  -1.209919 3.994783 -2.003048  -0.109516 0.005579 0.150201
24  0.328905 0.095430 1.403533  1.777902 0.347443 1.236598
25  11.586298 -14.288996 6.466398  1.372997 -0.317410 -1.415315
26  24.489557 -12.765261 -10.634670  -1.570796 -0.000000 -1.570796
27  0.449198 -13.144855 -6.669335  -0.051945 -0.000000 -1.570796
28  -13.764590 -7.409285 2.586780  1.422043 -0.132412 1.992848
29  0.000001 13.479277 -0.000000  0.802163 -0.000000 0.000000
30  0.000000 13.477239 0.000001  0.173600 0.077729 0.005004
31  0.267270 3.664726 -1.953292  0.109629 -0.107225 0.495175
32  -0.000001 1.180355 0.000002  -0.029953 -0.007842 0.846531
33  0.000001 0.817136 -0.000003  0.012286 -0.000556 1.260036
34  0.249423 3.688543 -0.940890  -0.126560 -0.145246 0.899651
35  -0.000001 1.800633 0.000001  -0.009643 -0.027168 1.400081
36  0.000001 1.243404 -0.000001  0.002452 -0.006045 1.256196
37  0.244727 3.701097 0.087734  -0.174754 -0.151318 0.769501
38  0.000000 1.766584 0.000000  0.009385 0.010267 1.319679
39  -0.000001 1.189003 -0.000002  -0.006898 0.016298 1.212361
40  0.277240 3.632249 1.274102  -0.295695 -0.170063 0.706217
41  0.000000 1.798495 0.000002  0.035176 0.008609 1.280163
42  -0.000000 1.235451 -0.000002  -0.008523 0.000599 1.061936
43  -0.315440 0.857301 0.755943  -0.678476 -2.468995 1.317854
44  0.000001 2.265940 -0.000000  -0.026878 0.060881 0.878738
45  0.000000 1.457810 0.000000  -0.051628 -0.019293 0.611810
46  1.259681 3.818375 1.286945  -0.295695 -0.170063 0.706217
47  1.226391 3.891693 0.090418  -0.174753 -0.151318 0.769501
48  1.231623 3.875536 -0.958680  -0.126560 -0.145246 0.899651
49  1.209919 3.994782 -2.003049  0.109629 -0.107225 0.495175
50  -0.328905 0.095428 1.403532  -0.678476 -2.468995 1.317854
51  -6.813681 -7.765957 26.407413  2.388225 -0.183368 2.052506
52  -23.015259 -13.132422 13.334921  -1.570796 -0.000000 1.570796
53  -13.764590 -7.409285 2.586780  -0.051945 0.000000 1.570796
54  -4.011271 -28.986031 -7.879815  0.946039 1.097616 0.192140
55  0.000000 -0.000001 0.000003  -0.000000 0.000000 0.000000
56  0.000000 -0.000001 0.000003  -0.000000 0.000000 0.000000
time 13
0  0 0 0  0 0 0
1  0.000000 0.000000 0.000000  1.570796 -0.000000 0.000000
2  0.449198 -13.144855 -6.669335  0.006396 0.037643 -1.561219
3  0.000003 13.479277 0.000001  1.780123 0.000000 -0.000000
4  -0.000001 13.477240 -0.000000  -0.378016 0.033783 0.408789
5  -0.267269 3.664726 -1.953293  -0.109187 -0.010163 0.007067
6  0.000001 1.180354 -0.000000  -0.034525 -0.014304 -0.369891
7  0.000001 0.817134 -0.000001  0.006334 -0.010541 -0.185126
8  -0.249421 3.688540 -0.940889  -0.061933 -0.004205 0.021345
9  0.000000 1.800632 0.000002  0.004470 0.002954 -0.394509
10  -0.000000 1.243407 -0.000001  0.006418 0.001167 -0.250638
11  -0.244725 3.701095 0.087733  0.005382 0.001424 0.042372
12  0.000001 1.766586 0.000001  0.003013 -0.003120 -0.416382
13  0.000000 1.189004 -0.000000  -0.017070 -0.004673 -0.309121
14  -0.277239 3.632248 1.274102  0.086193 -0.002810 0.144998
15  -0.000000 1.798494 0.000000  0.035756 0.012411 -0.334246
16  0.000001 1.235453 0.000000  -0.005475 0.006559 -0.116552
17  0.315442 0.857300 0.755944  1.780542 0.385905 1.246814
18  -0.000000 2.265940 0.000000  -0.112714 -0.025149 -0.409227
19  -0.000000 1.457811 0.000000  -0.025200 0.049019 0.126567
20  -1.259681 3.818375 1.286945  0.086193 -0.002810 0.144998
21  -1.226390 3.891694 0.090419  0.005382 0.001424 0.042372
22  -1.231622 3.875534 -0.958681  -0.061933 -0.004205 0.021345
23  -1.209919 3.994782 -2.003048  -0.109187 -0.010163 0.007067
24  0.328907 0.095428 1.403534  1.780542 0.385905 1.246814
25  11.047451 -13.542037 6.571713  1.410896 -0.368804 -1.617043
26  24.489557 -12.765261 -10.634670  -1.570796 -0.000000 -1.570796
27  0.449198 -13.144855 -6.669335  -0.051945 -0.000000 -1.570796
28  -13.808478 -7.409284 2.185595  1.371556 -0.127872 1.994340
29  0.000001 13.479276 -0.000001  0.832509 -0.000000 0.000000
30  0.000000 13.477239 -0.000000  0.214070 0.044454 -0.058067
31  0.267269 3.664725 -1.953292  0.109629 -0.107225 0.495175
32  -0.000000 1.180353 -0.000002  -0.029953 -0.007842 0.846531
33  0.000001 0.817137 -0.000001  0.012285 -0.000556 1.260036
34  0.249423 3.688540 -0.940889  -0.126560 -0.145246 0.899651
35  -0.000001 1.800633 -0.000001  -0.009643 -0.027168 1.400081
36  -0.000001 1.243407 -0.000000  0.002452 -0.006045 1.256196
37  0.244727 3.701096 0.087733  -0.174753 -0.151318 0.769501
38  0.000000 1.766584 0.000001  0.009385 0.010267 1.319679
39  0.000000 1.189004 -0.000001  -0.006898 0.016298 1.212362
40  0.277240 3.632247 1.274102  -0.295695 -0.170063 0.706217
41  0.000001 1.798496 0.000000  0.035176 0.008609 1.280163
42  0.000001 1.235452 0.000000  -0.008523 0.000599 1.061936
43  -0.315441 0.857299 0.755944  -0.678476 -2.468995 1.317854
44  -0.000003 2.265939 0.000000  -0.026878 0.060881 0.878738
45  0.000003 1.457808 -0.000000  -0.051628 -0.019293 0.611810
46  1.259681 3.818373 1.286945  -0.295695 -0.170063 0.706217
47  1.226390 3.891692 0.090420  -0.174753 -0.151318 0.769501
48  1.231623 3.875533 -0.958679  -0.126560 -0.145246 0.899651
49  1.209919 3.994781 -2.003047  0.109629 -0.107225 0.495175
50  -0.328906 0.095427 1.403533  -0.678476 -2.468995 1.317854
51  -7.708228 -8.026905 26.064631  2.411146 -0.107118 2.064935
52  -23.015259 -13.132422 13.334921  -1.570796 -0.000000 1.570796
53  -13.808478 -7.409284 2.185595  -0.051945 0.000000 1.570796
54  -4.946826 -28.686222 -7.894068  0.773260 1.090307 0.022838
55  0.000000 -0.000001 0.000000  -0.000000 0.000000 0.000000
56  0.000000 -0.000001 0.000000  -0.000000 0.000000 0.000000
time 14
0  0 0 0  0 0 0
1  0.000000 0.000000 0.000000  1.570796 -0.000000 0.000000
2  0.449198 -13.144855 -6.669335  0.024683 -0.020402 -1.551642
3  -0.000000 13.479276 0.000001  1.800498 0.000000 -0.000000
4  0.000001 13.477239 -0.000001  -0.411624 -0.057603 0.406490
5  -0.267270 3.664727 -1.953292  -0.107184 -0.023205 -0.112888
6  0.000000 1.180355 -0.000001  -0.032553 -0.018354 -0.490481
7  0.000000 0.817136 0.000000  0.007557 -0.009702 -0.305771
8  -0.249423 3.688542 -0.940887  -0.060978 -0.011624 -0.099076
9  0.000001 1.800632 0.000000  0.004082 0.003471 -0.515154
10  -0.000000 1.243406 -0.000000  0.006231 0.001931 -0.371280
11  -0.244726 3.701097 0.087734  0.005171 0.002061 -0.078272
12  -0.000000 1.766584 -0.000000  0.003367 -0.002734 -0.537027
13  -0.000001 1.189003 0.000000  -0.016383 -0.006693 -0.429751
14  -0.277240 3.632249 1.274104  0.086348 0.007702 0.024812
15  -0.000001 1.798494 -0.000001  0.034005 0.016621 -0.454743
16  -0.000001 1.235452 0.000001  -0.006224 0.005853 -0.237110
17  0.315441 0.857300 0.755946  1.784667 0.432836 1.259046
18  0.000001 2.265940 0.000000  -0.110611 -0.027597 -0.457713
19  0.000001 1.457810 0.000001  -0.027550 0.047738 0.077988
20  -1.259681 3.818375 1.286947  0.086348 0.007702 0.024812
21  -1.226391 3.891694 0.090420  0.005171 0.002061 -0.078272
22  -1.231623 3.875535 -0.958680  -0.060978 -0.011624 -0.099076
23  -1.209920 3.994781 -2.003046  -0.107184 -0.023205 -0.112888
24  0.328906 0.095429 1.403534  1.784667 0.432836 1.259046
25  10.525534 -12.678911 6.703235  1.461089 -0.396477 -1.720536
26  24.489557 -12.765261 -10.634670  -1.570796 -0.000000 -1.570796
27  0.449198 -13.144855 -6.669335  -0.051945 -0.000000 -1.570796
28  -13.788362 -7.409284 1.620763  1.333450 -0.119678 1.995880
29  0.000000 13.479275 0.000000  0.834576 -0.000000 0.000000
30  -0.000000 13.477238 0.000001  0.252388 0.023395 -0.112148
31  0.267269 3.664725 -1.953293  0.109629 -0.107225 0.495175
32  0.000001 1.180355 0.000002  -0.029953 -0.007842 0.846531
33  0.000000 0.817135 0.000002  0.012285 -0.000556 1.260036
34  0.249423 3.688541 -0.940890  -0.126560 -0.145245 0.899651
35  0.000000 1.800633 -0.000001  -0.009643 -0.027168 1.400081
36  0.000001 1.243404 0.000003  0.002452 -0.006045 1.256196
37  0.244727 3.701093 0.087735  -0.174754 -0.151318 0.769501
38  -0.000001 1.766587 -0.000001  0.009385 0.010267 1.319679
39  0.000004 1.189003 -0.000003  -0.006898 0.016298 1.212361
40  0.277240 3.632246 1.274101  -0.295695 -0.170063 0.706217
41  -0.000000 1.798491 0.000001  0.035176 0.008609 1.280163
42  0.000002 1.235451 -0.000002  -0.008523 0.000599 1.061936
43  -0.315440 0.857297 0.755944  -0.678476 -2.468995 1.317854
44  -0.000000 2.265940 0.000001  -0.026878 0.060881 0.878738
45  0.000002 1.457813 -0.000000  -0.051628 -0.019293 0.611810
46  1.259682 3.818373 1.286946  -0.295695 -0.170063 0.706217
47  1.226392 3.891691 0.090419  -0.174753 -0.151318 0.769501
48  1.231624 3.875532 -0.958679  -0.126560 -0.145246 0.899651
49  1.209920 3.994782 -2.003049  0.109629 -0.107225 0.495175
50  -0.328905 0.095427 1.403532  -0.678476 -2.468995 1.317854
51  -8.577681 -8.227903 25.691944  2.415151 -0.039829 2.078299
52  -23.015259 -13.132422 13.334921  -1.570796 -0.000000 1.570796
53  -13.788362 -7.409284 1.620763  -0.051945 0.000000 1.570796
54  -5.895924 -28.377796 -7.896104  0.644960 1.073701 -0.119290
55  0.000001 0.000000 -0.000000  0.000000 -0.000000 -0.000000
56  0.000001 0.000000 -0.000000  0.000000 -0.000000 -0.000000
time 15
0  0 0 0  0 0 0
1  0.000000 0.000000 0.000000  1.570796 -0.000000 0.000000
2  0.449198 -13.144855 -6.669335  0.094776 -0.081316 -1.541567
3  0.000001 13.479279 0.000000  1.761276 0.000000 -0.000000
4  0.000000 13.477240 -0.000000  -0.393275 -0.064113 0.344179
5  -0.267269 3.664726 -1.953293  -0.105880 -0.028586 -0.163211
6  0.000000 1.180354 -0.000001  -0.031584 -0.019977 -0.541056
7  0.000000 0.817136 0.000000  0.008038 -0.009308 -0.356363
8  -0.249421 3.688541 -0.940890  -0.060314 -0.014691 -0.149580
9  -0.000001 1.800633 0.000000  0.003902 0.003673 -0.565746
10  -0.000000 1.243407 0.000000  0.006126 0.002244 -0.421872
11  -0.244725 3.701095 0.087732  0.005060 0.002320 -0.128864
12  -0.000001 1.766584 -0.000000  0.003501 -0.002561 -0.587620
13  -0.000001 1.189004 -0.000000  -0.016024 -0.007513 -0.480339
14  -0.277239 3.632247 1.274101  0.086180 0.012113 -0.025590
15  -0.000000 1.798495 0.000000  0.033122 0.018317 -0.505278
16  0.000001 1.235452 -0.000000  -0.006512 0.005531 -0.287665
17  0.315442 0.857300 0.755943  1.790314 0.484168 1.272217
18  0.000000 2.265939 -0.000000  -0.108190 -0.030143 -0.510487
19  -0.000001 1.457810 0.000001  -0.030033 0.046217 0.025131
20  -1.259680 3.818375 1.286946  0.086180 0.012113 -0.025590
21  -1.226390 3.891693 0.090418  0.005061 0.002320 -0.128864
22  -1.231622 3.875534 -0.958681  -0.060314 -0.014691 -0.149580
23  -1.209919 3.994781 -2.003048  -0.105880 -0.028586 -0.163211
24  0.328907 0.095428 1.403533  1.790313 0.484168 1.272217
25  10.037470 -11.709985 7.491319  1.514145 -0.390220 -1.711318
26  24.489557 -12.765261 -10.634670  -1.570796 -0.000000 -1.570796
27  0.449198 -13.144855 -6.669335  -0.051945 -0.000000 -1.570796
28  -13.447872 -7.409284 0.843232  1.296642 -0.103932 1.992743
29  0.000000 13.479275 -0.000001  0.820325 -0.000000 0.000000
30  -0.000001 13.477241 0.000002  0.279232 0.025283 -0.149692
31  0.267269 3.664726 -1.953293  0.109629 -0.107225 0.495175
32  0.000000 1.180355 0.000002  -0.029953 -0.007842 0.846531
33  0.000000 0.817135 0.000001  0.012285 -0.000556 1.260036
34  0.249422 3.688543 -0.940889  -0.126560 -0.145246 0.899651
35  -0.000001 1.800632 0.000004  -0.009643 -0.027168 1.400081
36  0.000000 1.243405 -0.000000  0.002452 -0.006045 1.256196
37  0.244726 3.701096 0.087734  -0.174753 -0.151318 0.769501
38  0.000000 1.766584 -0.000000  0.009385 0.010267 1.319679
39  -0.000001 1.189004 0.000001  -0.006898 0.016298 1.212361
40  0.277239 3.632248 1.274103  -0.295695 -0.170063 0.706217
41  0.000000 1.798492 -0.000000  0.035176 0.008609 1.280163
42  0.000001 1.235451 0.000002  -0.008523 0.000599 1.061936
43  -0.315440 0.857300 0.755947  -0.678476 -2.468995 1.317854
44  0.000004 2.265939 0.000001  -0.026878 0.060881 0.878738
45  0.000001 1.457812 -0.000000  -0.051628 -0.019293 0.611810
46  1.259681 3.818376 1.286944  -0.295695 -0.170063 0.706217
47  1.226390 3.891694 0.090420  -0.174753 -0.151318 0.769501
48  1.231623 3.875533 -0.958680  -0.126560 -0.145246 0.899651
49  1.209918 3.994782 -2.003047  0.109629 -0.107225 0.495175
50  -0.328906 0.095428 1.403534  -0.678476 -2.468995 1.317854
51  -9.350278 -8.355029 25.202869  2.393480 0.011097 2.091952
52  -23.015259 -13.132422 13.334921  -1.570796 -0.000000 1.570796
53  -13.447872 -7.409284 0.843232  -0.051945 0.000000 1.570796
54  -6.794023 -27.990459 -7.896104  0.581163 1.054877 -0.219008
55  0.000000 -0.000002 -0.000001  0.000000 -0.000000 0.000000
56  0.000000 -0.000002 -0.000001  0.000000 -0.000000 0.000000
time 16
0  0 0 0  0 0 0
1  0.000000 0.000000 0.000000  1.570796 -0.000000 0.000000
2  0.449198 -13.144855 -6.669335  0.234814 -0.130617 -1.533341
3  0.000001 13.479278 0.000001  1.627484 0.000000 -0.000000
4  0.000003 13.477239 0.000002  -0.345486 -0.067770 0.278226
5  -0.267270 3.664726 -1.953294  -0.106277 -0.027067 -0.148943
6  -0.000000 1.180354 0.000001  -0.031867 -0.019522 -0.526718
7  0.000000 0.817135 -0.000001  0.007904 -0.009422 -0.342021
8  -0.249423 3.688541 -0.940890  -0.060518 -0.013825 -0.135262
9  0.000000 1.800634 -0.000000  0.003954 0.003617 -0.551404
10  0.000002 1.243405 0.000001  0.006157 0.002156 -0.407530
11  -0.244726 3.701096 0.087732  0.005093 0.002248 -0.114521
12  0.000002 1.766585 0.000000  0.003464 -0.002610 -0.573277
13  0.000000 1.189003 0.000000  -0.016130 -0.007283 -0.465997
14  -0.277239 3.632247 1.274101  0.086367 0.010878 -0.011300
15  0.000001 1.798494 -0.000002  0.033381 0.017841 -0.490951
16  -0.000001 1.235452 0.000000  -0.006432 0.005624 -0.273333
17  0.315441 0.857299 0.755944  1.797188 0.535747 1.285338
18  -0.000001 2.265939 -0.000000  -0.105638 -0.032557 -0.563272
19  0.000000 1.457812 0.000000  -0.032432 0.044567 -0.027719
20  -1.259681 3.818374 1.286945  0.086367 0.010878 -0.011300
21  -1.226390 3.891693 0.090419  0.005093 0.002248 -0.114521
22  -1.231622 3.875534 -0.958681  -0.060518 -0.013825 -0.135262
23  -1.209919 3.994781 -2.003048  -0.106277 -0.027067 -0.148944
24  0.328906 0.095427 1.403532  1.797188 0.535747 1.285338
25  9.600185 -10.710931 9.237067  1.565387 -0.374576 -1.688272
26  24.489557 -12.765261 -10.634670  -1.570796 -0.000000 -1.570796
27  0.449198 -13.144855 -6.669335  -0.051945 -0.000000 -1.570796
28  -12.651227 -7.409285 -0.050806  1.253538 -0.080541 1.983950
29  0.000001 13.479278 0.000000  0.801038 -0.000000 0.000000
30  0.000001 13.477237 0.000001  0.281642 0.049270 -0.169743
31  0.267270 3.664727 -1.953293  0.109629 -0.107225 0.495175
32  0.000000 1.180355 0.000001  -0.029953 -0.007842 0.846531
33  0.000002 0.817136 -0.000001  0.012285 -0.000556 1.260036
34  0.249424 3.688541 -0.940890  -0.126560 -0.145246 0.899651
35  0.000000 1.800632 0.000003  -0.009643 -0.027168 1.400081
36  0.000001 1.243405 0.000004  0.002452 -0.006045 1.256196
37  0.244727 3.701095 0.087733  -0.174753 -0.151318 0.769501
38  -0.000000 1.766584 0.000003  0.009385 0.010267 1.319679
39  -0.000003 1.189003 -0.000000  -0.006898 0.016298 1.212361
40  0.277239 3.632247 1.274101  -0.295695 -0.170063 0.706217
41  0.000001 1.798493 -0.000000  0.035176 0.008609 1.280163
42  -0.000000 1.235451 0.000000  -0.008523 0.000599 1.061936
43  -0.315441 0.857300 0.755943  -0.678476 -2.468995 1.317854
44  -0.000001 2.265940 0.000000  -0.026878 0.060881 0.878738
45  0.000001 1.457813 -0.000000  -0.051628 -0.019293 0.611810
46  1.259681 3.818374 1.286945  -0.295695 -0.170063 0.706217
47  1.226391 3.891691 0.090420  -0.174753 -0.151318 0.769501
48  1.231623 3.875533 -0.958680  -0.126560 -0.145246 0.899651
49  1.209920 3.994780 -2.003047  0.109629 -0.107225 0.495175
50  -0.328906 0.095427 1.403532  -0.678476 -2.468995 1.317854
51  -9.962292 -8.403498 24.605629  2.338341 0.046860 2.106466
52  -23.015259 -13.132422 13.334921  -1.570796 -0.000000 1.570796
53  -12.651227 -7.409285 -0.050806  -0.051945 0.000000 1.570796
54  -7.602084 -27.553118 -7.896104  0.583177 1.038511 -0.282894
55  -0.000000 0.000001 -0.000003  0.000000 -0.000000 -0.000000
56  -0.000000 0.000001 -0.000003  0.000000 -0.000000 -0.000000
time 17
0  0 0 0  0 0 0
1  0.000000 0.000000 0.000000  1.570796 -0.000000 0.000000
2  0.449198 -13.144855 -6.669335  0.407294 -0.163569 -1.527785
3  0.000001 13.479276 0.000000  1.422985 0.000000 -0.000000
4  0.000001 13.477240 0.000000  -0.260134 -0.069084 0.217988
5  -0.267270 3.664726 -1.953294  -0.107136 -0.023424 -0.114926
6  -0.000001 1.180357 0.000000  -0.032516 -0.018421 -0.492529
7  0.000001 0.817136 0.000000  0.007577 -0.009687 -0.307820
8  -0.249423 3.688542 -0.940889  -0.060954 -0.011748 -0.101121
9  -0.000001 1.800633 0.000000  0.004075 0.003479 -0.517202
10  0.000000 1.243406 0.000001  0.006227 0.001944 -0.373329
11  -0.244727 3.701096 0.087732  0.005167 0.002072 -0.080320
12  0.000001 1.766584 0.000000  0.003373 -0.002727 -0.539076
13  0.000000 1.189004 0.000001  -0.016370 -0.006727 -0.431799
14  -0.277240 3.632249 1.274101  0.086768 0.007930 0.022776
15  0.000001 1.798493 0.000000  0.033971 0.016690 -0.456787
16  -0.000000 1.235450 0.000001  -0.006236 0.005840 -0.239154
17  0.315441 0.857300 0.755943  1.804623 0.583340 1.297444
18  0.000001 2.265939 0.000000  -0.103184 -0.034654 -0.611785
19  0.000001 1.457813 0.000001  -0.034556 0.042942 -0.076276
20  -1.259682 3.818375 1.286945  0.086768 0.007930 0.022776
21  -1.226391 3.891693 0.090419  0.005167 0.002072 -0.080320
22  -1.231623 3.875536 -0.958680  -0.060954 -0.011748 -0.101121
23  -1.209919 3.994781 -2.003048  -0.107136 -0.023424 -0.114926
24  0.328905 0.095428 1.403532  1.804623 0.583340 1.297444
25  9.230614 -9.773745 11.449514  1.611322 -0.354238 -1.658312
26  24.489557 -12.765261 -10.634670  -1.570796 -0.000000 -1.570796
27  0.449198 -13.144855 -6.669335  -0.051945 -0.000000 -1.570796
28  -11.629456 -7.409284 -0.946353  1.216121 -0.055327 1.974458
29  -0.000001 13.479273 -0.000001  0.767851 -0.000000 0.000000
30  0.000000 13.477238 -0.000001  0.274273 0.082683 -0.174043
31  0.267269 3.664726 -1.953294  0.109629 -0.107225 0.495175
32  0.000001 1.180357 0.000000  -0.029953 -0.007842 0.846531
33  -0.000000 0.817136 -0.000003  0.012285 -0.000556 1.260036
34  0.249422 3.688542 -0.940889  -0.126560 -0.145246 0.899651
35  0.000000 1.800633 -0.000002  -0.009643 -0.027168 1.400081
36  0.000001 1.243405 -0.000002  0.002452 -0.006045 1.256196
37  0.244725 3.701095 0.087732  -0.174753 -0.151318 0.769501
38  0.000001 1.766584 -0.000003  0.009385 0.010267 1.319679
39  -0.000003 1.189003 -0.000000  -0.006898 0.016298 1.212361
40  0.277239 3.632247 1.274101  -0.295695 -0.170063 0.706217
41  0.000000 1.798493 0.000002  0.035176 0.008609 1.280163
42  -0.000006 1.235451 0.000001  -0.008523 0.000599 1.061936
43  -0.315442 0.857299 0.755944  -0.678476 -2.468995 1.317854
44  -0.000001 2.265939 -0.000000  -0.026878 0.060881 0.878738
45  0.000001 1.457810 0.000002  -0.051628 -0.019293 0.611810
46  1.259680 3.818374 1.286945  -0.295695 -0.170063 0.706217
47  1.226390 3.891693 0.090420  -0.174753 -0.151318 0.769501
48  1.231622 3.875534 -0.958681  -0.126560 -0.145246 0.899651
49  1.209920 3.994781 -2.003049  0.109629 -0.107225 0.495175
50  -0.328907 0.095428 1.403532  -0.678476 -2.468995 1.317854
51  -10.415320 -8.392988 23.998426  2.266571 0.070480 2.120266
52  -23.015259 -13.132422 13.334921  -1.570796 -0.000000 1.570796
53  -11.629456 -7.409284 -0.946353  -0.051945 0.000000 1.570796
54  -8.287439 -27.119474 -7.896104  0.624842 1.026309 -0.320674
55  0.000000 -0.000001 0.000000  0.000000 -0.000000 0.000000
56  0.000000 -0.000001 0.000000  0.000000 -0.000000 0.000000
time 18
0  0 0 0  0 0 0
1  0.000000 0.000000 0.000000  1.570796 -0.000000 0.000000
2  0.449198 -13.144855 -6.669335  0.583182 -0.182927 -1.524493
3  0.000000 13.479278 0.000000  1.179592 0.000000 -0.000000
4  -0.000002 13.477240 0.000002  -0.146641 -0.067325 0.168410
5  -0.267269 3.664727 -1.953293  -0.107998 -0.019041 -0.074331
6  0.000000 1.180356 0.000000  -0.033240 -0.017079 -0.451724
7  -0.000000 0.817136 0.000001  0.007175 -0.009988 -0.266999
8  -0.249422 3.688540 -0.940888  -0.061382 -0.009253 -0.060374
9  0.000001 1.800633 -0.000000  0.004214 0.003310 -0.476381
10  -0.000000 1.243404 0.000000  0.006301 0.001688 -0.332508
11  -0.244726 3.701095 0.087733  0.005247 0.001859 -0.039499
12  0.000001 1.766585 0.000000  0.003258 -0.002863 -0.498254
13  -0.000000 1.189004 0.000001  -0.016630 -0.006053 -0.390983
14  -0.277239 3.632248 1.274102  0.087162 0.004411 0.063446
15  -0.000001 1.798494 0.000001  0.034623 0.015291 -0.416012
16  0.000000 1.235456 -0.000000  -0.005993 0.006090 -0.198361
17  0.315442 0.857300 0.755945  1.811584 0.622661 1.307517
18  -0.000001 2.265941 0.000001  -0.101088 -0.036290 -0.651743
19  0.000001 1.457811 -0.000001  -0.036244 0.041527 -0.116260
20  -1.259680 3.818376 1.286946  0.087162 0.004411 0.063446
21  -1.226390 3.891694 0.090420  0.005247 0.001859 -0.039499
22  -1.231623 3.875533 -0.958680  -0.061382 -0.009253 -0.060374
23  -1.209918 3.994781 -2.003047  -0.107998 -0.019041 -0.074331
24  0.328906 0.095428 1.403533  1.811583 0.622662 1.307517
25  8.945675 -8.990423 13.637697  1.648457 -0.333901 -1.628352
26  24.489557 -12.765261 -10.634670  -1.570796 -0.000000 -1.570796
27  0.449198 -13.144855 -6.669335  -0.051945 -0.000000 -1.570796
28  -10.613586 -7.409284 -1.728409  1.191675 -0.032641 1.967138
29  0.000001 13.479279 -0.000001  0.721950 -0.000000 0.000000
30  -0.000000 13.477238 0.000001  0.267234 0.114888 -0.166586
31  0.267269 3.664729 -1.953292  0.109629 -0.107225 0.495175
32  0.000000 1.180355 -0.000003  -0.029953 -0.007842 0.846531
33  -0.000001 0.817136 -0.000001  0.012285 -0.000556 1.260036
34  0.249422 3.688543 -0.940887  -0.126560 -0.145246 0.899651
35  0.000000 1.800633 0.000001  -0.009643 -0.027168 1.400081
36  -0.000001 1.243406 -0.000002  0.002452 -0.006045 1.256196
37  0.244726 3.701097 0.087734  -0.174754 -0.151318 0.769501
38  -0.000001 1.766586 0.000000  0.009385 0.010267 1.319679
39  0.000002 1.189005 0.000001  -0.006898 0.016298 1.212361
40  0.277239 3.632250 1.274103  -0.295695 -0.170063 0.706217
41  0.000001 1.798498 -0.000002  0.035176 0.008609 1.280163
42  0.000002 1.235450 -0.000002  -0.008523 0.000599 1.061936
43  -0.315442 0.857301 0.755945  -0.678476 -2.468995 1.317854
44  0.000000 2.265940 -0.000000  -0.026878 0.060881 0.878738
45  0.000001 1.457813 -0.000000  -0.051628 -0.019293 0.611810
46  1.259681 3.818376 1.286947  -0.295695 -0.170063 0.706217
47  1.226390 3.891693 0.090421  -0.174753 -0.151318 0.769501
48  1.231623 3.875534 -0.958678  -0.126560 -0.145246 0.899651
49  1.209919 3.994781 -2.003046  0.109629 -0.107225 0.495175
50  -0.328907 0.095428 1.403535  -0.678476 -2.468995 1.317854
51  -10.718771 -8.345317 23.472332  2.194761 0.084670 2.131806
52  -23.015259 -13.132422 13.334921  -1.570796 -0.000000 1.570796
53  -10.613586 -7.409284 -1.728409  -0.051945 0.000000 1.570796
54  -8.817424 -26.743235 -7.896104  0.682087 1.018467 -0.340143
55  0.000000 0.000000 0.000001  0.000000 -0.000000 0.000000
56  0.000000 0.000000 0.000001  0.000000 -0.000000 0.000000
time 19
0  0 0 0  0 0 0
1  0.000000 0.000000 0.000000  1.570796 -0.000000 0.000000
2  0.449198 -13.144855 -6.669335  0.731316 -0.192662 -1.522829
3  0.000000 13.479277 0.000000  0.951298 0.000000 -0.000000
4  -0.000001 13.477239 0.000002  -0.034505 -0.063754 0.134506
5  -0.267269 3.664726 -1.953293  -0.108583 -0.015344 -0.040325
6  -0.000000 1.180356 0.000001  -0.033804 -0.015932 -0.417538
7  -0.000001 0.817135 0.000001  0.006830 -0.010227 -0.232797
8  -0.249423 3.688541 -0.940889  -0.061662 -0.007150 -0.026236
9  -0.000002 1.800631 -0.000000  0.004324 0.003164 -0.442180
10  0.000000 1.243405 0.000001  0.006355 0.001472 -0.298307
11  -0.244726 3.701094 0.087732  0.005308 0.001679 -0.005298
12  -0.000000 1.766586 0.000000  0.003159 -0.002972 -0.464053
13  -0.000000 1.189005 0.000001  -0.016828 -0.005481 -0.356786
14  -0.277240 3.632246 1.274101  0.087422 0.001464 0.097520
15  -0.000001 1.798492 -0.000000  0.035125 0.014099 -0.381851
16  0.000000 1.235450 -0.000000  -0.005781 0.006291 -0.164183
17  0.315440 0.857299 0.755943  1.816756 0.649404 1.314438
18  0.000000 2.265941 -0.000000  -0.099629 -0.037351 -0.678861
19  -0.000001 1.457812 -0.000001  -0.037357 0.040529 -0.143389
20  -1.259681 3.818374 1.286945  0.087422 0.001464 0.097520
21  -1.226390 3.891694 0.090418  0.005308 0.001679 -0.005298
22  -1.231622 3.875534 -0.958681  -0.061662 -0.007150 -0.026236
23  -1.209919 3.994782 -2.003049  -0.108583 -0.015344 -0.040325
24  0.328906 0.095429 1.403532  1.816756 0.649404 1.314438
25  8.762295 -8.452965 15.310646  1.673298 -0.318257 -1.605306
26  24.489557 -12.765261 -10.634670  -1.570796 -0.000000 -1.570796
27  0.449198 -13.144855 -6.669335  -0.051945 -0.000000 -1.570796
28  -9.834643 -7.409284 -2.281975  1.180613 -0.016209 1.962822
29  -0.000000 13.479276 0.000000  0.677309 -0.000000 0.000000
30  -0.000000 13.477237 0.000001  0.264125 0.138013 -0.154758
31  0.267271 3.664723 -1.953294  0.109629 -0.107225 0.495175
32  0.000000 1.180356 0.000000  -0.029953 -0.007842 0.846531
33  0.000000 0.817132 -0.000001  0.012285 -0.000556 1.260036
34  0.249424 3.688540 -0.940890  -0.126560 -0.145246 0.899651
35  0.000000 1.800635 0.000000  -0.009643 -0.027168 1.400081
36  -0.000004 1.243408 0.000000  0.002452 -0.006045 1.256196
37  0.244728 3.701095 0.087734  -0.174753 -0.151318 0.769501
38  0.000000 1.766584 -0.000001  0.009385 0.010267 1.319679
39  0.000002 1.189003 -0.000001  -0.006898 0.016298 1.212362
40  0.277240 3.632247 1.274102  -0.295695 -0.170063 0.706217
41  -0.000001 1.798495 -0.000001  0.035176 0.008609 1.280163
42  0.000004 1.235452 -0.000002  -0.008523 0.000599 1.061936
43  -0.315440 0.857297 0.755944  -0.678476 -2.468995 1.317854
44  -0.000001 2.265941 0.000001  -0.026878 0.060881 0.878738
45  0.000001 1.457813 -0.000001  -0.051628 -0.019293 0.611810
46  1.259683 3.818372 1.286945  -0.295695 -0.170063 0.706217
47  1.226392 3.891693 0.090419  -0.174753 -0.151318 0.769501
48  1.231625 3.875533 -0.958681  -0.126560 -0.145246 0.899651
49  1.209921 3.994780 -2.003047  0.109629 -0.107225 0.495175
50  -0.328904 0.095426 1.403532  -0.678476 -2.468995 1.317854
51  -10.888254 -8.290215 23.105965  2.139466 0.091716 2.139663
52  -23.015259 -13.132422 13.334921  -1.570796 -0.000000 1.570796
53  -9.834643 -7.409284 -2.281975  -0.051945 0.000000 1.570796
54  -9.159369 -26.478107 -7.896104  0.732335 1.014423 -0.347713
55  -0.000001 -0.000001 -0.000001  0.000000 0.000000 0.000000
56  -0.000001 -0.000001 -0.000001  0.000000 0.000000 0.000000
time 20
0  0 0 0  0 0 0
1  0.000000 0.000000 0.000000  1.570796 -0.000000 0.000000
2  0.449198 -13.144855 -6.669335  0.797174 -0.195561 -1.522332
3  0.000000 13.479278 0.000000  0.843637 0.000000 -0.000000
4  -0.000000 13.477238 0.000001  0.019215 -0.061836 0.121832
5  -0.267270 3.664725 -1.953293  -0.108791 -0.013788 -0.026066
6  0.000001 1.180357 -0.000000  -0.034029 -0.015446 -0.403202
7  -0.000000 0.817138 -0.000000  0.006682 -0.010324 -0.218454
8  -0.249423 3.688541 -0.940888  -0.061758 -0.006265 -0.011920
9  -0.000001 1.800632 -0.000000  0.004369 0.003102 -0.427837
10  -0.000001 1.243406 -0.000000  0.006376 0.001380 -0.283965
11  -0.244727 3.701094 0.087732  0.005332 0.001603 0.009044
12  0.000001 1.766584 -0.000000  0.003116 -0.003017 -0.449710
13  -0.000000 1.189004 0.000001  -0.016905 -0.005239 -0.342445
14  -0.277240 3.632247 1.274102  0.087511 0.000230 0.111810
15  -0.000000 1.798493 0.000000  0.035323 0.013594 -0.367526
16  0.000001 1.235452 -0.000001  -0.005691 0.006373 -0.149850
17  0.315440 0.857299 0.755944  1.818756 0.659268 1.317010
18  0.000001 2.265939 -0.000000  -0.099084 -0.037733 -0.688853
19  -0.000001 1.457812 -0.000000  -0.037760 0.040154 -0.153383
20  -1.259682 3.818374 1.286946  0.087511 0.000230 0.111810
21  -1.226392 3.891692 0.090419  0.005332 0.001603 0.009044
22  -1.231623 3.875535 -0.958680  -0.061758 -0.006265 -0.011920
23  -1.209921 3.994780 -2.003048  -0.108791 -0.013788 -0.026065
24  0.328906 0.095428 1.403533  1.818756 0.659268 1.317010
25  8.697409 -8.253369 15.977400  1.682355 -0.311999 -1.596087
26  24.489557 -12.765261 -10.634670  -1.570796 -0.000000 -1.570796
27  0.449198 -13.144855 -6.669335  -0.051945 -0.000000 -1.570796
28  -9.523657 -7.409284 -2.492052  1.178104 -0.009833 1.961370
29  0.000001 13.479277 0.000001  0.657103 -0.000000 0.000000
30  0.000001 13.477240 0.000002  0.263555 0.146754 -0.148549
31  0.267269 3.664726 -1.953293  0.109629 -0.107225 0.495176
32  -0.000001 1.180354 0.000002  -0.029953 -0.007842 0.846531
33  0.000000 0.817135 -0.000001  0.012285 -0.000556 1.260036
34  0.249423 3.688543 -0.940889  -0.126560 -0.145246 0.899651
35  -0.000001 1.800630 -0.000002  -0.009643 -0.027168 1.400081
36  0.000000 1.243405 0.000001  0.002452 -0.006045 1.256197
37  0.244727 3.701096 0.087732  -0.174754 -0.151318 0.769502
38  0.000000 1.766585 0.000001  0.009385 0.010267 1.319679
39  0.000003 1.189004 -0.000001  -0.006898 0.016298 1.212361
40  0.277239 3.632248 1.274103  -0.295695 -0.170063 0.706218
41  -0.000001 1.798495 -0.000000  0.035176 0.008609 1.280163
42  -0.000001 1.235452 -0.000000  -0.008523 0.000599 1.061936
43  -0.315441 0.857302 0.755943  -0.678476 -2.468995 1.317854
44  0.000000 2.265940 -0.000001  -0.026878 0.060881 0.878738
45  0.000002 1.457815 -0.000001  -0.051628 -0.019293 0.611810
46  1.259682 3.818375 1.286945  -0.295695 -0.170063 0.706217
47  1.226390 3.891694 0.090419  -0.174753 -0.151318 0.769501
48  1.231622 3.875536 -0.958681  -0.126560 -0.145246 0.899651
49  1.209918 3.994783 -2.003049  0.109629 -0.107225 0.495175
50  -0.328906 0.095429 1.403532  -0.678476 -2.468995 1.317854
51  -10.941189 -8.263663 22.968529  2.117321 0.093620 2.142558
52  -23.015259 -13.132422 13.334921  -1.570796 -0.000000 1.570796
53  -9.523657 -7.409284 -2.492052  -0.051945 0.000000 1.570796
54  -9.280611 -26.377796 -7.896104  0.753846 1.013292 -0.349041
55  -0.000001 -0.000001 -0.000002  0.000000 -0.000000 -0.000000
56  -0.000001 -0.000001 -0.000002  0.000000 -0.000000 -0.000000
end
