version 1
nodes
0 "blender_implicit" -1
1 "root" -1
2 "upperarm_l" 1
3 "lowerarm_l" 2
4 "hand_l" 3
5 "pinky_0_l" 4
6 "pinky_1_l" 5
7 "pinky_2_l" 6
8 "ring_0_l" 4
9 "ring_1_l" 8
10 "ring_2_l" 9
11 "middle_0_l" 4
12 "middle_1_l" 11
13 "middle_2_l" 12
14 "index_0_l" 4
15 "index_1_l" 14
16 "index_2_l" 15
17 "thumb_0_l" 4
18 "thumb_1_l" 17
19 "thumb_2_l" 18
20 "rig_index_l" 4
21 "rig_middle_l" 4
22 "rig_ring_l" 4
23 "rig_pinky_l" 4
24 "rig_thumb_l" 4
25 "rig_hand_l" 1
26 "rig_l" 1
27 "rig_upperarm_l" 1
28 "upperarm_r" 1
29 "lowerarm_r" 28
30 "hand_r" 29
31 "pinky_0_r" 30
32 "pinky_1_r" 31
33 "pinky_2_r" 32
34 "ring_0_r" 30
35 "ring_1_r" 34
36 "ring_2_r" 35
37 "middle_0_r" 30
38 "middle_1_r" 37
39 "middle_2_r" 38
40 "index_0_r" 30
41 "index_1_r" 40
42 "index_2_r" 41
43 "thumb_0_r" 30
44 "thumb_1_r" 43
45 "thumb_2_r" 44
46 "rig_index_r" 30
47 "rig_middle_r" 30
48 "rig_ring_r" 30
49 "rig_pinky_r" 30
50 "rig_thumb_r" 30
51 "rig_hand_r" 1
52 "rig_r" 1
53 "rig_upperarm_r" 1
54 "bone_pistolGrip" -1
55 "bone_ejectionPort" 54
56 "bone_muzzle" 54
57 "bone_clip" 54
end
skeleton
time 0
0  0 0 0  0 0 0
1  0.000000 0.000000 0.000000  1.570796 -0.000000 0.000000
2  15.269911 -21.966835 13.863769  -0.643329 -0.793058 1.782452
3  0.000004 13.479279 0.000000  2.315156 0.000000 -0.000000
4  0.000003 13.477236 -0.000000  0.490960 -1.173201 -1.489703
5  -0.267269 3.664729 -1.953289  -0.096194 -0.052727 -0.400403
6  0.000002 1.180354 -0.000002  -0.033422 -0.016719 -0.440925
7  -0.000003 0.817134 0.000004  0.007067 -0.010065 -0.256194
8  -0.249421 3.688544 -0.940886  -0.054966 -0.028860 -0.393964
9  0.000000 1.800634 0.000001  0.004228 0.003292 -0.472103
10  0.000000 1.243405 -0.000001  0.006309 0.001661 -0.328230
11  -0.244724 3.701097 0.087735  0.004244 0.003603 -0.402932
12  0.000000 1.766583 -0.000001  0.003329 -0.002780 -0.523312
13  -0.000000 1.189005 -0.000004  -0.016473 -0.006468 -0.416037
14  -0.277238 3.632250 1.274105  0.052687 0.017453 -0.279974
15  0.000001 1.798496 0.000002  0.034542 0.015472 -0.421260
16  -0.000001 1.235452 -0.000000  -0.006025 0.006058 -0.203611
17  0.315442 0.857299 0.755947  2.109432 0.373269 1.533784
18  0.000001 2.265940 0.000000  -0.056797 -0.034690 -0.271734
19  0.000001 1.457808 0.000001  -0.031121 0.045492 0.001395
20  -1.259680 3.818377 1.286949  0.052687 0.017453 -0.279974
21  -1.226389 3.891694 0.090421  0.004244 0.003603 -0.402932
22  -1.231621 3.875535 -0.958678  -0.054966 -0.028860 -0.393964
23  -1.209918 3.994784 -2.003045  -0.096194 -0.052727 -0.400403
24  0.328906 0.095431 1.403536  2.109432 0.373269 1.533784
25  6.851620 -27.654253 17.598110  1.430151 0.317631 0.602416
26  -16.870777 -21.834059 7.086506  -1.570796 -0.000000 -1.570796
27  15.269911 -21.966835 13.863769  -0.051945 -0.000000 -1.570796
28  -6.604060 -1.401604 -6.612543  0.580186 -0.239728 2.969276
29  0.000000 13.479276 0.000001  0.787211 -0.000000 0.000000
30  -0.000000 13.477239 -0.000002  -0.526895 -0.762779 0.979666
31  0.267271 3.664726 -1.953291  -0.067893 0.086178 0.802666
32  0.000000 1.180354 -0.000001  -0.024201 0.028477 0.843506
33  -0.000001 0.817136 -0.000000  0.010446 0.006491 0.658839
34  0.249424 3.688542 -0.940888  -0.032371 0.052975 0.932871
35  0.000001 1.800632 -0.000000  0.000732 -0.005308 1.244336
36  0.000003 1.243407 -0.000000  0.004815 -0.004401 0.811274
37  0.244728 3.701095 0.087734  0.001305 -0.005412 1.033087
38  -0.000000 1.766584 0.000000  0.004298 0.000584 1.084130
39  -0.000001 1.189005 0.000002  -0.010510 0.014239 0.976837
40  0.277240 3.632249 1.274103  0.185107 -0.010184 0.144732
41  -0.000001 1.798495 -0.000000  0.027685 -0.025810 0.750471
42  -0.000001 1.235451 0.000001  -0.008036 -0.002903 0.645088
43  -0.315440 0.857301 0.755945  -0.248767 -2.664688 1.150362
44  -0.000001 2.265939 -0.000000  -0.039010 0.053923 0.668054
45  -0.000001 1.457812 -0.000002  -0.054852 0.005358 1.066393
46  1.259683 3.818377 1.286946  0.185107 -0.010184 0.144732
47  1.226392 3.891695 0.090419  0.001305 -0.005412 1.033087
48  1.231623 3.875536 -0.958680  -0.032371 0.052975 0.932871
49  1.209921 3.994783 -2.003048  -0.067893 0.086178 0.802666
50  -0.328906 0.095429 1.403533  -0.248767 -2.664688 1.150362
51  -4.187847 -16.028193 13.386695  -1.118812 -2.210456 -1.368110
52  -8.110383 -19.738087 0.179033  -1.570796 -0.000000 1.570796
53  -6.604060 -1.401604 -6.612543  -0.051945 0.000000 1.570796
54  -4.029106 -14.447400 -19.611664  2.438850 0.624514 1.422130
55  -1.855343 6.848201 8.911866  0.643722 -1.614433 -2.214061
56  0.461753 7.791410 26.458836  0.643347 -1.614420 -2.213684
57  0.599220 4.162451 9.540136  -0.024899 -0.027352 -0.026683
time 1
0  0 0 0  0 0 0
1  0.000000 0.000000 0.000000  1.570796 -0.000000 0.000000
2  15.269911 -21.966835 13.863769  -0.660917 -0.684630 1.739663
3  0.000002 13.479280 0.000000  2.359456 0.000000 -0.000000
4  -0.000001 13.477240 0.000000  0.341767 -1.137615 -1.272585
5  -0.267270 3.664724 -1.953295  -0.096194 -0.052727 -0.400403
6  -0.000001 1.180355 -0.000002  -0.033422 -0.016719 -0.440925
7  -0.000000 0.817135 -0.000000  0.007067 -0.010065 -0.256194
8  -0.249423 3.688543 -0.940892  -0.054966 -0.028860 -0.393964
9  0.000001 1.800633 0.000001  0.004228 0.003292 -0.472103
10  0.000001 1.243406 0.000000  0.006309 0.001661 -0.328230
11  -0.244727 3.701097 0.087731  0.004244 0.003603 -0.402932
12  0.000000 1.766585 0.000002  0.003329 -0.002780 -0.523312
13  -0.000000 1.189004 0.000004  -0.016474 -0.006468 -0.416038
14  -0.277238 3.632247 1.274098  0.052687 0.017453 -0.279974
15  0.000000 1.798495 0.000001  0.034542 0.015473 -0.421260
16  0.000001 1.235453 0.000001  -0.006025 0.006058 -0.203611
17  0.315442 0.857301 0.755940  2.109432 0.373269 1.533785
18  0.000001 2.265938 0.000002  -0.056797 -0.034690 -0.271734
19  0.000000 1.457810 -0.000000  -0.031121 0.045492 0.001394
20  -1.259680 3.818375 1.286943  0.052687 0.017453 -0.279974
21  -1.226390 3.891694 0.090416  0.004244 0.003603 -0.402932
22  -1.231623 3.875534 -0.958682  -0.054966 -0.028860 -0.393964
23  -1.209918 3.994779 -2.003051  -0.096194 -0.052727 -0.400403
24  0.328907 0.095429 1.403530  2.109432 0.373269 1.533784
25  7.014348 -26.641172 17.808628  1.409808 0.325586 0.628516
26  -16.870777 -21.834059 7.086506  -1.570796 -0.000000 -1.570796
27  15.269911 -21.966835 13.863769  -0.051945 -0.000000 -1.570796
28  -6.613949 -1.351645 -6.647028  0.560118 -0.223201 2.976294
29  0.000000 13.479276 0.000001  0.851454 -0.000000 0.000000
30  0.000000 13.477237 0.000001  -0.520615 -0.736232 0.987453
31  0.267269 3.664725 -1.953293  -0.067893 0.086178 0.802666
32  0.000001 1.180355 -0.000001  -0.024201 0.028477 0.843506
33  0.000001 0.817135 0.000001  0.010446 0.006491 0.658839
34  0.249423 3.688540 -0.940890  -0.032371 0.052975 0.932871
35  -0.000001 1.800633 0.000001  0.000732 -0.005308 1.244336
36  -0.000003 1.243406 -0.000002  0.004815 -0.004401 0.811274
37  0.244725 3.701094 0.087733  0.001305 -0.005412 1.033087
38  0.000002 1.766583 0.000001  0.004298 0.000584 1.084130
39  -0.000001 1.189003 -0.000002  -0.010510 0.014239 0.976837
40  0.277240 3.632246 1.274101  0.185107 -0.010184 0.144732
41  -0.000002 1.798495 -0.000001  0.027685 -0.025810 0.750471
42  0.000001 1.235450 -0.000000  -0.008036 -0.002903 0.645088
43  -0.315441 0.857298 0.755944  -0.248767 -2.664688 1.150363
44  -0.000002 2.265940 0.000001  -0.039010 0.053923 0.668054
45  -0.000001 1.457811 -0.000001  -0.054852 0.005358 1.066392
46  1.259681 3.818374 1.286946  0.185107 -0.010184 0.144732
47  1.226392 3.891693 0.090418  0.001305 -0.005412 1.033087
48  1.231623 3.875532 -0.958681  -0.032371 0.052975 0.932871
49  1.209920 3.994780 -2.003048  -0.067893 0.086178 0.802666
50  -0.328905 0.095427 1.403532  -0.248767 -2.664688 1.150362
51  -4.375745 -15.468586 13.313053  -1.119001 -2.231331 -1.335429
52  -8.110383 -19.738087 0.179033  -1.570796 -0.000000 1.570796
53  -6.613949 -1.351645 -6.647028  -0.051945 0.000000 1.570796
54  -4.105999 -14.447398 -19.022747  2.394959 0.639287 1.391553
55  -1.855343 6.848202 8.911864  0.643722 -1.614433 -2.214059
56  0.461753 7.791412 26.458832  0.643347 -1.614420 -2.213684
57  0.599220 4.162453 9.540136  -0.024899 -0.027352 -0.026683
time 2
0  0 0 0  0 0 0
1  0.000000 0.000000 0.000000  1.570796 -0.000000 0.000000
2  15.269911 -21.966835 13.863769  -0.680531 -0.325334 1.637853
3  0.000005 13.479277 0.000001  2.434175 0.000000 -0.000000
4  0.000002 13.477240 -0.000001  0.001758 -0.992491 -0.701225
5  -0.267270 3.664725 -1.953290  -0.096194 -0.052727 -0.400403
6  -0.000001 1.180356 0.000001  -0.033422 -0.016719 -0.440925
7  0.000002 0.817134 0.000001  0.007067 -0.010065 -0.256194
8  -0.249423 3.688541 -0.940886  -0.054966 -0.028860 -0.393964
9  0.000000 1.800632 0.000001  0.004228 0.003292 -0.472103
10  0.000001 1.243406 -0.000002  0.006309 0.001661 -0.328230
11  -0.244726 3.701094 0.087735  0.004244 0.003603 -0.402932
12  -0.000001 1.766585 0.000001  0.003329 -0.002780 -0.523312
13  -0.000000 1.189005 0.000001  -0.016474 -0.006468 -0.416037
14  -0.277240 3.632245 1.274106  0.052687 0.017453 -0.279974
15  -0.000001 1.798494 -0.000000  0.034542 0.015472 -0.421259
16  0.000001 1.235451 0.000001  -0.006025 0.006058 -0.203611
17  0.315441 0.857299 0.755947  2.109432 0.373269 1.533784
18  -0.000002 2.265939 -0.000001  -0.056797 -0.034690 -0.271734
19  -0.000000 1.457810 0.000000  -0.031121 0.045492 0.001395
20  -1.259681 3.818374 1.286947  0.052687 0.017453 -0.279974
21  -1.226391 3.891690 0.090422  0.004244 0.003603 -0.402931
22  -1.231624 3.875533 -0.958677  -0.054966 -0.028860 -0.393963
23  -1.209920 3.994780 -2.003044  -0.096194 -0.052727 -0.400403
24  0.328907 0.095426 1.403534  2.109432 0.373269 1.533784
25  7.364325 -24.025864 18.383738  1.353187 0.346242 0.698436
26  -16.870777 -21.834059 7.086506  -1.570796 -0.000000 -1.570796
27  15.269911 -21.966835 13.863769  -0.051945 -0.000000 -1.570796
28  -6.641064 -1.214662 -6.741587  0.523666 -0.181892 2.993881
29  0.000001 13.479275 -0.000000  0.981748 -0.000000 0.000000
30  0.000000 13.477240 -0.000000  -0.479222 -0.680577 0.983322
31  0.267267 3.664726 -1.953293  -0.067893 0.086178 0.802666
32  -0.000000 1.180355 -0.000001  -0.024201 0.028477 0.843506
33  -0.000001 0.817134 0.000000  0.010446 0.006491 0.658838
34  0.249422 3.688541 -0.940888  -0.032371 0.052975 0.932871
35  -0.000000 1.800634 0.000001  0.000732 -0.005308 1.244337
36  -0.000001 1.243407 -0.000000  0.004815 -0.004401 0.811274
37  0.244724 3.701096 0.087732  0.001305 -0.005412 1.033087
38  0.000000 1.766584 -0.000000  0.004298 0.000584 1.084130
39  0.000001 1.189004 0.000001  -0.010510 0.014239 0.976837
40  0.277239 3.632248 1.274102  0.185107 -0.010184 0.144732
41  0.000002 1.798494 -0.000001  0.027685 -0.025810 0.750471
42  0.000000 1.235451 0.000000  -0.008036 -0.002903 0.645088
43  -0.315442 0.857301 0.755944  -0.248767 -2.664688 1.150362
44  -0.000001 2.265940 0.000001  -0.039010 0.053923 0.668054
45  0.000001 1.457812 -0.000001  -0.054852 0.005358 1.066393
46  1.259679 3.818376 1.286945  0.185107 -0.010184 0.144732
47  1.226389 3.891694 0.090419  0.001305 -0.005412 1.033087
48  1.231622 3.875535 -0.958680  -0.032371 0.052975 0.932871
49  1.209918 3.994783 -2.003049  -0.067893 0.086178 0.802666
50  -0.328907 0.095429 1.403533  -0.248767 -2.664688 1.150363
51  -4.876467 -14.168755 13.113865  -1.120322 -2.288632 -1.245819
52  -8.110383 -19.738087 0.179033  -1.570796 -0.000000 1.570796
53  -6.641064 -1.214662 -6.741587  -0.051945 0.000000 1.570796
54  -4.316861 -14.447388 -17.618410  2.270510 0.672991 1.298886
55  -1.855343 6.848202 8.911867  0.643721 -1.614433 -2.214060
56  0.461753 7.791413 26.458836  0.643347 -1.614421 -2.213683
57  0.599218 4.162454 9.540139  -0.024899 -0.027352 -0.026683
time 3
0  0 0 0  0 0 0
1  0.000000 0.000000 0.000000  1.570796 -0.000000 0.000000
2  15.269911 -21.966835 13.863769  -0.593295 0.211437 1.521390
3  0.000002 13.479279 0.000002  2.423102 0.000000 -0.000000
4  -0.000002 13.477238 0.000000  -0.323364 -0.706006 -0.060330
5  -0.267269 3.664728 -1.953292  -0.096194 -0.052727 -0.400403
6  0.000000 1.180355 0.000000  -0.033422 -0.016719 -0.440925
7  0.000000 0.817135 -0.000000  0.007067 -0.010065 -0.256194
8  -0.249423 3.688544 -0.940887  -0.054966 -0.028860 -0.393964
9  0.000000 1.800634 0.000000  0.004228 0.003292 -0.472103
10  0.000003 1.243404 0.000001  0.006309 0.001661 -0.328230
11  -0.244726 3.701097 0.087734  0.004244 0.003603 -0.402932
12  0.000001 1.766588 -0.000002  0.003329 -0.002780 -0.523312
13  -0.000000 1.189005 0.000000  -0.016474 -0.006468 -0.416037
14  -0.277238 3.632248 1.274104  0.052687 0.017453 -0.279974
15  -0.000001 1.798496 -0.000000  0.034542 0.015473 -0.421260
16  -0.000003 1.235453 0.000000  -0.006025 0.006058 -0.203611
17  0.315442 0.857301 0.755945  2.109432 0.373269 1.533784
18  0.000000 2.265939 0.000002  -0.056797 -0.034690 -0.271734
19  -0.000001 1.457810 -0.000001  -0.031121 0.045492 0.001394
20  -1.259681 3.818375 1.286947  0.052687 0.017453 -0.279974
21  -1.226392 3.891694 0.090421  0.004244 0.003603 -0.402932
22  -1.231625 3.875535 -0.958678  -0.054966 -0.028860 -0.393964
23  -1.209919 3.994783 -2.003047  -0.096194 -0.052727 -0.400403
24  0.328905 0.095427 1.403534  2.109432 0.373269 1.533784
25  7.612550 -20.434559 19.231859  1.266421 0.373895 0.799132
26  -16.870777 -21.834059 7.086506  -1.570796 -0.000000 -1.570796
27  15.269911 -21.966835 13.863769  -0.051945 -0.000000 -1.570796
28  -6.681577 -1.009992 -6.882868  0.494890 -0.128686 3.016776
29  -0.000000 13.479276 0.000001  1.105009 -0.000000 0.000000
30  -0.000000 13.477239 -0.000000  -0.384976 -0.621014 0.935676
31  0.267270 3.664726 -1.953293  -0.067893 0.086178 0.802666
32  0.000001 1.180355 0.000002  -0.024201 0.028477 0.843506
33  -0.000000 0.817136 0.000000  0.010446 0.006491 0.658839
34  0.249422 3.688541 -0.940889  -0.032371 0.052975 0.932871
35  0.000001 1.800634 0.000000  0.000732 -0.005308 1.244337
36  0.000000 1.243406 -0.000001  0.004815 -0.004401 0.811274
37  0.244726 3.701097 0.087733  0.001305 -0.005412 1.033087
38  -0.000001 1.766584 0.000000  0.004298 0.000584 1.084130
39  -0.000001 1.189003 0.000000  -0.010510 0.014239 0.976837
40  0.277238 3.632247 1.274103  0.185107 -0.010184 0.144732
41  -0.000000 1.798494 -0.000000  0.027685 -0.025810 0.750471
42  -0.000000 1.235451 0.000002  -0.008036 -0.002903 0.645088
43  -0.315442 0.857300 0.755944  -0.248767 -2.664688 1.150362
44  0.000001 2.265940 -0.000001  -0.039010 0.053923 0.668054
45  0.000001 1.457810 0.000000  -0.054852 0.005358 1.066393
46  1.259679 3.818374 1.286945  0.185107 -0.010184 0.144732
47  1.226389 3.891693 0.090419  0.001305 -0.005412 1.033087
48  1.231622 3.875534 -0.958681  -0.032371 0.052975 0.932871
49  1.209918 3.994781 -2.003048  -0.067893 0.086178 0.802666
50  -0.328907 0.095428 1.403532  -0.248767 -2.664688 1.150362
51  -5.579058 -12.707692 12.824980  -1.123909 -2.374371 -1.111932
52  -8.110383 -19.738087 0.179033  -1.570796 -0.000000 1.570796
53  -6.681577 -1.009992 -6.882868  -0.051945 0.000000 1.570796
54  -4.631970 -14.447359 -15.942266  2.076154 0.701519 1.140210
55  -1.855343 6.848201 8.911864  0.643721 -1.614433 -2.214060
56  0.461753 7.791414 26.458832  0.643345 -1.614420 -2.213685
57  0.599220 4.162450 9.540136  -0.024899 -0.027352 -0.026683
time 4
0  0 0 0  0 0 0
1  0.000000 0.000000 0.000000  1.570796 -0.000000 0.000000
2  15.269911 -21.966835 13.863769  -0.399615 0.583441 1.427023
3  0.000001 13.479277 -0.000001  2.263088 0.000000 -0.000000
4  -0.000001 13.477240 -0.000000  -0.517006 -0.406927 0.265106
5  -0.267270 3.664726 -1.953290  -0.096194 -0.052727 -0.400403
6  -0.000001 1.180354 -0.000001  -0.033422 -0.016719 -0.440925
7  0.000001 0.817136 0.000000  0.007067 -0.010065 -0.256194
8  -0.249424 3.688542 -0.940887  -0.054966 -0.028860 -0.393964
9  0.000001 1.800634 0.000001  0.004228 0.003292 -0.472103
10  0.000001 1.243406 -0.000001  0.006309 0.001661 -0.328230
11  -0.244726 3.701096 0.087735  0.004244 0.003603 -0.402932
12  0.000001 1.766586 0.000001  0.003329 -0.002780 -0.523312
13  0.000002 1.189003 0.000001  -0.016474 -0.006468 -0.416038
14  -0.277240 3.632249 1.274105  0.052687 0.017453 -0.279974
15  0.000002 1.798493 -0.000000  0.034542 0.015473 -0.421259
16  -0.000002 1.235451 -0.000003  -0.006025 0.006058 -0.203611
17  0.315442 0.857302 0.755946  2.109432 0.373269 1.533784
18  0.000000 2.265940 0.000003  -0.056797 -0.034690 -0.271734
19  0.000000 1.457813 -0.000002  -0.031121 0.045492 0.001395
20  -1.259681 3.818376 1.286948  0.052687 0.017453 -0.279974
21  -1.226391 3.891696 0.090421  0.004244 0.003603 -0.402932
22  -1.231624 3.875536 -0.958677  -0.054966 -0.028860 -0.393964
23  -1.209919 3.994782 -2.003045  -0.096194 -0.052727 -0.400403
24  0.328905 0.095429 1.403534  2.109432 0.373269 1.533785
25  7.433724 -16.568932 20.255936  1.155640 0.402010 0.918116
26  -16.870777 -21.834059 7.086506  -1.570796 -0.000000 -1.570796
27  15.269911 -21.966835 13.863769  -0.051945 -0.000000 -1.570796
28  -6.731660 -0.756975 -7.057523  0.475821 -0.075262 3.040407
29  0.000000 13.479278 0.000001  1.183095 -0.000000 0.000000
30  0.000000 13.477238 -0.000001  -0.239152 -0.567871 0.830785
31  0.267269 3.664727 -1.953293  -0.067893 0.086178 0.802666
32  0.000000 1.180354 0.000001  -0.024201 0.028477 0.843506
33  0.000001 0.817136 -0.000002  0.010446 0.006491 0.658839
34  0.249422 3.688542 -0.940888  -0.032371 0.052975 0.932871
35  0.000000 1.800632 0.000001  0.000732 -0.005308 1.244337
36  -0.000001 1.243407 -0.000000  0.004815 -0.004401 0.811274
37  0.244726 3.701096 0.087734  0.001305 -0.005412 1.033087
38  -0.000001 1.766585 -0.000000  0.004298 0.000584 1.084130
39  0.000000 1.189004 0.000002  -0.010510 0.014239 0.976837
40  0.277239 3.632249 1.274102  0.185107 -0.010184 0.144732
41  -0.000000 1.798494 0.000000  0.027685 -0.025810 0.750471
42  0.000001 1.235451 -0.000000  -0.008036 -0.002903 0.645088
43  -0.315441 0.857300 0.755944  -0.248767 -2.664688 1.150363
44  0.000000 2.265940 -0.000000  -0.039010 0.053923 0.668054
45  0.000001 1.457811 -0.000000  -0.054852 0.005358 1.066393
46  1.259680 3.818374 1.286946  0.185107 -0.010184 0.144732
47  1.226389 3.891694 0.090419  0.001305 -0.005412 1.033087
48  1.231622 3.875534 -0.958680  -0.032371 0.052975 0.932871
49  1.209918 3.994782 -2.003048  -0.067893 0.086178 0.802666
50  -0.328905 0.095429 1.403533  -0.248767 -2.664688 1.150362
51  -6.356061 -11.646189 12.485513  -1.130893 -2.480561 -0.946418
52  -8.110383 -19.738087 0.179033  -1.570796 -0.000000 1.570796
53  -6.731660 -0.756975 -7.057523  -0.051945 0.000000 1.570796
54  -5.021601 -14.447303 -14.537929  1.836574 0.695056 0.926249
55  -1.855344 6.848202 8.911864  0.643721 -1.614433 -2.214061
56  0.461752 7.791416 26.458832  0.643345 -1.614421 -2.213684
57  0.599218 4.162452 9.540135  -0.024899 -0.027352 -0.026682
time 5
0  0 0 0  0 0 0
1  0.000000 0.000000 0.000000  1.570796 -0.000000 0.000000
2  15.269911 -21.966835 13.863769  -0.225977 0.738889 1.373358
3  0.000003 13.479279 -0.000000  2.013904 0.000000 -0.000000
4  -0.000001 13.477238 0.000000  -0.616918 -0.229610 0.349892
5  -0.267268 3.664724 -1.953293  -0.096194 -0.052727 -0.400403
6  -0.000000 1.180352 0.000002  -0.033423 -0.016719 -0.440925
7  0.000003 0.817135 -0.000001  0.007067 -0.010065 -0.256194
8  -0.249422 3.688539 -0.940890  -0.054966 -0.028860 -0.393963
9  0.000002 1.800633 0.000001  0.004228 0.003292 -0.472103
10  -0.000002 1.243407 -0.000000  0.006309 0.001661 -0.328230
11  -0.244725 3.701093 0.087732  0.004244 0.003603 -0.402932
12  -0.000001 1.766584 0.000002  0.003329 -0.002780 -0.523312
13  -0.000000 1.189004 -0.000001  -0.016474 -0.006468 -0.416037
14  -0.277238 3.632246 1.274101  0.052687 0.017453 -0.279974
15  0.000000 1.798494 0.000002  0.034542 0.015473 -0.421260
16  -0.000000 1.235450 0.000001  -0.006025 0.006058 -0.203611
17  0.315443 0.857299 0.755943  2.109432 0.373269 1.533785
18  -0.000001 2.265940 -0.000000  -0.056797 -0.034690 -0.271734
19  -0.000001 1.457811 0.000001  -0.031121 0.045492 0.001394
20  -1.259680 3.818372 1.286945  0.052687 0.017453 -0.279974
21  -1.226389 3.891691 0.090418  0.004244 0.003603 -0.402932
22  -1.231622 3.875530 -0.958682  -0.054966 -0.028860 -0.393963
23  -1.209918 3.994780 -2.003049  -0.096193 -0.052727 -0.400403
24  0.328906 0.095428 1.403532  2.109433 0.373269 1.533785
25  6.575265 -13.263322 21.359377  1.027886 0.423929 1.044743
26  -16.870777 -21.834059 7.086506  -1.570796 -0.000000 -1.570796
27  15.269911 -21.966835 13.863769  -0.051945 -0.000000 -1.570796
28  -6.787486 -0.474950 -7.252202  0.458257 -0.030320 3.061352
29  -0.000000 13.479276 -0.000000  1.192351 -0.000000 0.000000
30  -0.000000 13.477239 0.000000  -0.042660 -0.521787 0.668340
31  0.267271 3.664728 -1.953293  -0.067893 0.086178 0.802666
32  -0.000000 1.180354 -0.000001  -0.024201 0.028477 0.843506
33  -0.000000 0.817135 0.000000  0.010446 0.006491 0.658839
34  0.249423 3.688543 -0.940888  -0.032371 0.052975 0.932871
35  -0.000001 1.800633 0.000000  0.000732 -0.005308 1.244337
36  -0.000000 1.243405 -0.000002  0.004815 -0.004401 0.811274
37  0.244726 3.701097 0.087733  0.001305 -0.005412 1.033087
38  0.000000 1.766585 0.000000  0.004298 0.000584 1.084130
39  0.000000 1.189004 -0.000000  -0.010510 0.014239 0.976837
40  0.277240 3.632249 1.274102  0.185107 -0.010184 0.144732
41  0.000000 1.798494 0.000000  0.027685 -0.025810 0.750471
42  0.000001 1.235451 -0.000001  -0.008036 -0.002903 0.645088
43  -0.315441 0.857301 0.755944  -0.248767 -2.664688 1.150363
44  -0.000000 2.265939 0.000000  -0.039010 0.053923 0.668054
45  0.000000 1.457811 0.000002  -0.054852 0.005358 1.066393
46  1.259682 3.818376 1.286947  0.185107 -0.010184 0.144732
47  1.226391 3.891695 0.090420  0.001305 -0.005412 1.033087
48  1.231624 3.875537 -0.958679  -0.032371 0.052975 0.932871
49  1.209920 3.994784 -2.003048  -0.067893 0.086178 0.802666
50  -0.328906 0.095429 1.403533  -0.248767 -2.664688 1.150362
51  -7.084159 -11.500345 12.135328  -1.142409 -2.599215 -0.761928
52  -8.110383 -19.738087 0.179033  -1.570796 -0.000000 1.570796
53  -6.787486 -0.474950 -7.252202  -0.051945 0.000000 1.570796
54  -5.456032 -14.447209 -13.949013  1.600035 0.632603 0.694530
55  -1.855344 6.848200 8.911866  0.643721 -1.614433 -2.214061
56  0.461752 7.791414 26.458834  0.643347 -1.614421 -2.213684
57  0.599218 4.162451 9.540136  -0.024899 -0.027352 -0.026682
time 6
0  0 0 0  0 0 0
1  0.000000 0.000000 0.000000  1.570796 -0.000000 0.000000
2  15.269911 -21.966835 13.863769  -0.086845 0.772129 1.359857
3  0.000004 13.479277 0.000001  1.730878 0.000000 -0.000000
4  -0.000002 13.477238 -0.000000  -0.671511 -0.158448 0.365895
5  -0.267271 3.664726 -1.953291  -0.096194 -0.052727 -0.400403
6  -0.000001 1.180356 -0.000001  -0.033423 -0.016719 -0.440925
7  -0.000000 0.817134 -0.000002  0.007067 -0.010065 -0.256194
8  -0.249424 3.688540 -0.940887  -0.054966 -0.028860 -0.393964
9  0.000002 1.800631 0.000001  0.004228 0.003292 -0.472103
10  0.000001 1.243406 -0.000002  0.006309 0.001661 -0.328230
11  -0.244727 3.701095 0.087735  0.004244 0.003603 -0.402932
12  0.000001 1.766585 0.000001  0.003329 -0.002780 -0.523312
13  -0.000000 1.189003 0.000000  -0.016474 -0.006468 -0.416037
14  -0.277240 3.632246 1.274103  0.052687 0.017453 -0.279974
15  -0.000001 1.798493 -0.000000  0.034542 0.015473 -0.421260
16  0.000001 1.235452 -0.000001  -0.006025 0.006058 -0.203611
17  0.315441 0.857298 0.755945  2.109432 0.373269 1.533784
18  0.000000 2.265939 -0.000001  -0.056797 -0.034690 -0.271734
19  -0.000001 1.457811 0.000003  -0.031121 0.045492 0.001394
20  -1.259682 3.818372 1.286947  0.052687 0.017453 -0.279974
21  -1.226390 3.891691 0.090420  0.004244 0.003603 -0.402931
22  -1.231623 3.875532 -0.958679  -0.054966 -0.028860 -0.393964
23  -1.209919 3.994778 -2.003047  -0.096194 -0.052727 -0.400403
24  0.328905 0.095426 1.403534  2.109432 0.373269 1.533785
25  4.896160 -10.990166 22.655373  0.887622 0.410592 1.158679
26  -16.870777 -21.834059 7.086506  -1.570796 -0.000000 -1.570796
27  15.269911 -21.966835 13.863769  -0.051945 -0.000000 -1.570796
28  -6.845225 -0.183255 -7.453556  0.445741 0.001025 3.077384
29  0.000000 13.479277 0.000001  1.153736 -0.000000 0.000000
30  -0.000000 13.477239 -0.000002  0.134703 -0.446211 0.484845
31  0.267269 3.664725 -1.953293  -0.067893 0.086178 0.802666
32  -0.000002 1.180354 0.000001  -0.024201 0.028477 0.843506
33  -0.000002 0.817137 0.000002  0.010446 0.006491 0.658839
34  0.249422 3.688541 -0.940889  -0.032371 0.052975 0.932871
35  -0.000000 1.800633 -0.000000  0.000732 -0.005308 1.244337
36  0.000000 1.243406 0.000001  0.004815 -0.004401 0.811274
37  0.244726 3.701095 0.087733  0.001305 -0.005412 1.033087
38  0.000002 1.766584 -0.000000  0.004298 0.000584 1.084130
39  0.000001 1.189004 -0.000000  -0.010510 0.014239 0.976837
40  0.277239 3.632247 1.274101  0.185107 -0.010184 0.144732
41  0.000000 1.798494 0.000001  0.027685 -0.025810 0.750471
42  -0.000000 1.235452 -0.000000  -0.008036 -0.002903 0.645088
43  -0.315442 0.857298 0.755945  -0.248767 -2.664688 1.150363
44  -0.000000 2.265939 0.000000  -0.039010 0.053923 0.668054
45  -0.000001 1.457810 -0.000001  -0.054852 0.005358 1.066393
46  1.259681 3.818374 1.286947  0.185107 -0.010184 0.144732
47  1.226391 3.891692 0.090419  0.001305 -0.005412 1.033087
48  1.231622 3.875534 -0.958679  -0.032371 0.052975 0.932871
49  1.209918 3.994781 -2.003047  -0.067893 0.086178 0.802666
50  -0.328906 0.095428 1.403533  -0.248767 -2.664688 1.150362
51  -7.620516 -11.933213 11.828803  -1.185472 -2.722347 -0.571113
52  -8.110383 -19.738087 0.179033  -1.570796 -0.000000 1.570796
53  -6.845225 -0.183255 -7.453556  -0.051945 0.000000 1.570796
54  -5.905539 -14.447071 -13.981403  1.441300 0.516401 0.487153
55  -1.855343 6.848200 8.911863  0.643721 -1.614433 -2.214060
56  0.461754 7.791411 26.458832  0.643346 -1.614420 -2.213684
57  0.599218 4.162450 9.540137  -0.024899 -0.027352 -0.026683
time 7
0  0 0 0  0 0 0
1  0.000000 0.000000 0.000000  1.570796 -0.000000 0.000000
2  15.269911 -21.966835 13.863769  0.043911 0.746733 1.370250
3  0.000004 13.479279 0.000002  1.423529 0.000000 -0.000000
4  0.000000 13.477240 -0.000000  -0.688223 -0.141633 0.388401
5  -0.267270 3.664728 -1.953293  -0.096194 -0.052727 -0.400403
6  -0.000001 1.180356 0.000001  -0.033422 -0.016719 -0.440925
7  -0.000000 0.817134 0.000001  0.007067 -0.010065 -0.256194
8  -0.249424 3.688543 -0.940888  -0.054966 -0.028860 -0.393964
9  0.000001 1.800634 0.000003  0.004228 0.003292 -0.472103
10  0.000001 1.243405 0.000000  0.006309 0.001661 -0.328230
11  -0.244727 3.701097 0.087733  0.004244 0.003603 -0.402932
12  -0.000000 1.766586 0.000003  0.003329 -0.002780 -0.523312
13  0.000001 1.189004 -0.000000  -0.016474 -0.006468 -0.416037
14  -0.277240 3.632250 1.274103  0.052687 0.017453 -0.279974
15  -0.000002 1.798493 0.000001  0.034542 0.015473 -0.421260
16  0.000001 1.235452 -0.000001  -0.006025 0.006058 -0.203611
17  0.315440 0.857302 0.755943  2.109433 0.373269 1.533784
18  -0.000000 2.265937 -0.000001  -0.056797 -0.034690 -0.271734
19  -0.000000 1.457812 -0.000000  -0.031121 0.045492 0.001394
20  -1.259682 3.818376 1.286946  0.052687 0.017453 -0.279974
21  -1.226391 3.891696 0.090419  0.004244 0.003603 -0.402932
22  -1.231623 3.875535 -0.958681  -0.054966 -0.028860 -0.393964
23  -1.209919 3.994782 -2.003048  -0.096194 -0.052727 -0.400403
24  0.328906 0.095431 1.403533  2.109432 0.373269 1.533784
25  2.605534 -9.691532 24.135347  0.749709 0.344771 1.261953
26  -16.870777 -21.834059 7.086506  -1.570796 -0.000000 -1.570796
27  15.269911 -21.966835 13.863769  -0.051945 -0.000000 -1.570796
28  -6.901050 0.098770 -7.648235  0.444679 0.021582 3.089206
29  -0.000000 13.479275 0.000000  1.111480 -0.000000 0.000000
30  -0.000000 13.477239 -0.000000  0.211918 -0.323622 0.333040
31  0.267270 3.664726 -1.953291  -0.067893 0.086178 0.802666
32  -0.000000 1.180355 -0.000002  -0.024201 0.028477 0.843506
33  0.000000 0.817135 0.000000  0.010446 0.006491 0.658839
34  0.249423 3.688541 -0.940888  -0.032371 0.052975 0.932871
35  0.000000 1.800633 -0.000001  0.000732 -0.005308 1.244336
36  -0.000001 1.243407 0.000000  0.004815 -0.004401 0.811274
37  0.244726 3.701096 0.087734  0.001305 -0.005412 1.033087
38  0.000000 1.766585 -0.000002  0.004298 0.000584 1.084130
39  -0.000000 1.189005 -0.000000  -0.010510 0.014239 0.976837
40  0.277239 3.632247 1.274104  0.185107 -0.010184 0.144732
41  0.000001 1.798496 -0.000001  0.027685 -0.025810 0.750471
42  0.000000 1.235451 -0.000000  -0.008036 -0.002903 0.645088
43  -0.315441 0.857299 0.755944  -0.248767 -2.664688 1.150363
44  -0.000000 2.265939 -0.000000  -0.039010 0.053923 0.668054
45  0.000001 1.457810 -0.000001  -0.054852 0.005358 1.066393
46  1.259681 3.818374 1.286947  0.185107 -0.010184 0.144732
47  1.226390 3.891692 0.090419  0.001305 -0.005412 1.033087
48  1.231623 3.875534 -0.958679  -0.032371 0.052975 0.932871
49  1.209919 3.994781 -2.003047  -0.067893 0.086178 0.802666
50  -0.328906 0.095429 1.403533  -0.248767 -2.664688 1.150362
51  -7.963870 -12.227650 11.620279  -1.271304 -2.841970 -0.386623
52  -8.110383 -19.738087 0.179033  -1.570796 -0.000000 1.570796
53  -6.901050 0.098770 -7.648235  -0.051945 0.000000 1.570796
54  -6.340397 -14.446878 -14.062379  1.390894 0.368551 0.321939
55  -1.855343 6.848201 8.911864  0.643722 -1.614433 -2.214060
56  0.461754 7.791413 26.458830  0.643345 -1.614421 -2.213684
57  0.599219 4.162453 9.540135  -0.024899 -0.027352 -0.026683
time 8
0  0 0 0  0 0 0
1  0.000000 0.000000 0.000000  1.570796 -0.000000 0.000000
2  15.269911 -21.966835 13.863769  0.164974 0.693758 1.390386
3  0.000001 13.479279 0.000001  1.119219 0.000000 -0.000000
4  0.000002 13.477240 0.000000  -0.672724 -0.144170 0.424830
5  -0.267268 3.664727 -1.953294  -0.096193 -0.052727 -0.400403
6  -0.000002 1.180355 0.000002  -0.033422 -0.016719 -0.440925
7  0.000000 0.817135 -0.000004  0.007067 -0.010065 -0.256194
8  -0.249421 3.688542 -0.940890  -0.054966 -0.028860 -0.393964
9  0.000001 1.800634 -0.000001  0.004228 0.003292 -0.472103
10  -0.000001 1.243405 0.000001  0.006309 0.001661 -0.328230
11  -0.244725 3.701096 0.087732  0.004244 0.003603 -0.402932
12  -0.000001 1.766586 0.000001  0.003329 -0.002780 -0.523312
13  -0.000000 1.189005 0.000002  -0.016474 -0.006468 -0.416037
14  -0.277238 3.632248 1.274100  0.052687 0.017453 -0.279974
15  0.000002 1.798495 -0.000003  0.034542 0.015472 -0.421260
16  -0.000002 1.235453 -0.000000  -0.006025 0.006058 -0.203611
17  0.315442 0.857301 0.755943  2.109433 0.373269 1.533785
18  0.000000 2.265942 -0.000001  -0.056797 -0.034690 -0.271734
19  0.000000 1.457811 0.000002  -0.031121 0.045492 0.001394
20  -1.259680 3.818376 1.286945  0.052687 0.017453 -0.279974
21  -1.226389 3.891693 0.090417  0.004244 0.003603 -0.402931
22  -1.231621 3.875534 -0.958683  -0.054966 -0.028860 -0.393964
23  -1.209917 3.994782 -2.003050  -0.096194 -0.052727 -0.400403
24  0.328907 0.095429 1.403531  2.109432 0.373269 1.533784
25  0.179432 -9.373804 25.504063  0.631827 0.247011 1.367178
26  -16.870777 -21.834059 7.086506  -1.570796 -0.000000 -1.570796
27  15.269911 -21.966835 13.863769  -0.051945 -0.000000 -1.570796
28  -6.951133 0.351787 -7.822890  0.453586 0.037624 3.098922
29  -0.000000 13.479276 -0.000001  1.069736 -0.000000 0.000000
30  0.000001 13.477239 -0.000000  0.206153 -0.185871 0.223692
31  0.267268 3.664727 -1.953293  -0.067893 0.086178 0.802666
32  0.000001 1.180355 0.000001  -0.024201 0.028477 0.843506
33  0.000000 0.817135 0.000001  0.010446 0.006491 0.658838
34  0.249422 3.688542 -0.940889  -0.032371 0.052975 0.932871
35  0.000001 1.800633 -0.000000  0.000732 -0.005308 1.244337
36  -0.000001 1.243406 -0.000000  0.004815 -0.004401 0.811274
37  0.244725 3.701096 0.087733  0.001305 -0.005412 1.033087
38  -0.000000 1.766584 -0.000000  0.004298 0.000584 1.084130
39  -0.000001 1.189003 -0.000000  -0.010510 0.014239 0.976837
40  0.277239 3.632248 1.274103  0.185107 -0.010184 0.144732
41  -0.000000 1.798494 -0.000000  0.027685 -0.025810 0.750471
42  0.000001 1.235451 0.000001  -0.008036 -0.002903 0.645088
43  -0.315442 0.857300 0.755944  -0.248767 -2.664688 1.150362
44  -0.000000 2.265941 -0.000001  -0.039010 0.053923 0.668054
45  0.000000 1.457811 0.000001  -0.054852 0.005358 1.066393
46  1.259680 3.818376 1.286946  0.185107 -0.010184 0.144732
47  1.226390 3.891693 0.090419  0.001305 -0.005412 1.033087
48  1.231622 3.875535 -0.958680  -0.032371 0.052975 0.932871
49  1.209919 3.994781 -2.003047  -0.067893 0.086178 0.802666
50  -0.328907 0.095428 1.403532  -0.248767 -2.664688 1.150362
51  -8.223097 -12.360941 11.531029  -1.377340 -2.950096 -0.221109
52  -8.110383 -19.738087 0.179033  -1.570796 -0.000000 1.570796
53  -6.951133 0.351787 -7.822890  -0.051945 0.000000 1.570796
54  -6.730886 -14.446622 -14.167647  1.420097 0.217002 0.196155
55  -1.855343 6.848202 8.911864  0.643722 -1.614433 -2.214061
56  0.461752 7.791414 26.458828  0.643346 -1.614420 -2.213685
57  0.599219 4.162452 9.540136  -0.024899 -0.027352 -0.026683
time 9
0  0 0 0  0 0 0
1  0.000000 0.000000 0.000000  1.570796 -0.000000 0.000000
2  15.269911 -21.966835 13.863769  0.270287 0.633276 1.411238
3  0.000004 13.479279 -0.000001  0.848541 0.000000 -0.000000
4  0.000002 13.477239 0.000000  -0.636595 -0.154585 0.468543
5  -0.267270 3.664728 -1.953291  -0.096194 -0.052727 -0.400403
6  -0.000004 1.180355 -0.000001  -0.033422 -0.016719 -0.440925
7  -0.000003 0.817136 0.000005  0.007067 -0.010065 -0.256194
8  -0.249424 3.688542 -0.940890  -0.054966 -0.028860 -0.393964
9  0.000001 1.800632 -0.000000  0.004228 0.003292 -0.472103
10  0.000002 1.243405 -0.000001  0.006309 0.001661 -0.328230
11  -0.244728 3.701096 0.087734  0.004244 0.003603 -0.402932
12  -0.000001 1.766584 -0.000000  0.003329 -0.002780 -0.523312
13  -0.000000 1.189004 0.000003  -0.016474 -0.006468 -0.416037
14  -0.277240 3.632248 1.274102  0.052687 0.017453 -0.279974
15  -0.000001 1.798494 -0.000002  0.034542 0.015472 -0.421260
16  -0.000001 1.235450 0.000001  -0.006025 0.006058 -0.203611
17  0.315440 0.857300 0.755945  2.109433 0.373269 1.533784
18  0.000000 2.265941 -0.000001  -0.056797 -0.034690 -0.271734
19  -0.000000 1.457812 0.000001  -0.031121 0.045492 0.001395
20  -1.259683 3.818375 1.286946  0.052687 0.017453 -0.279974
21  -1.226392 3.891693 0.090419  0.004244 0.003603 -0.402932
22  -1.231624 3.875534 -0.958680  -0.054966 -0.028860 -0.393964
23  -1.209920 3.994781 -2.003047  -0.096194 -0.052727 -0.400403
24  0.328905 0.095430 1.403534  2.109432 0.373269 1.533784
25  -1.887666 -9.781422 26.537827  0.541467 0.144446 1.468225
26  -16.870777 -21.834059 7.086506  -1.570796 -0.000000 -1.570796
27  15.269911 -21.966835 13.863769  -0.051945 -0.000000 -1.570796
28  -6.991646 0.556457 -7.964171  0.468931 0.052505 3.107580
29  -0.000000 13.479277 -0.000001  1.030770 -0.000000 0.000000
30  -0.000000 13.477241 -0.000001  0.154692 -0.063800 0.151397
31  0.267271 3.664727 -1.953292  -0.067893 0.086178 0.802666
32  -0.000000 1.180355 0.000000  -0.024201 0.028477 0.843506
33  -0.000001 0.817135 0.000001  0.010446 0.006491 0.658839
34  0.249424 3.688543 -0.940889  -0.032371 0.052975 0.932871
35  -0.000000 1.800633 0.000001  0.000732 -0.005308 1.244336
36  0.000001 1.243407 -0.000001  0.004815 -0.004401 0.811274
37  0.244727 3.701096 0.087734  0.001305 -0.005412 1.033087
38  0.000002 1.766584 -0.000001  0.004298 0.000584 1.084130
39  -0.000000 1.189002 -0.000000  -0.010510 0.014239 0.976837
40  0.277240 3.632248 1.274102  0.185107 -0.010184 0.144732
41  -0.000001 1.798495 0.000000  0.027685 -0.025810 0.750471
42  -0.000001 1.235451 0.000001  -0.008036 -0.002903 0.645088
43  -0.315440 0.857302 0.755943  -0.248767 -2.664688 1.150363
44  0.000001 2.265939 0.000001  -0.039010 0.053923 0.668054
45  0.000000 1.457811 0.000000  -0.054852 0.005358 1.066393
46  1.259682 3.818375 1.286946  0.185107 -0.010184 0.144732
47  1.226393 3.891694 0.090419  0.001305 -0.005412 1.033087
48  1.231624 3.875535 -0.958681  -0.032371 0.052975 0.932871
49  1.209920 3.994782 -2.003047  -0.067893 0.086178 0.802666
50  -0.328905 0.095429 1.403532  -0.248767 -2.664688 1.150362
51  -8.457666 -12.382410 11.543129  -1.481016 -3.038738 -0.087222
52  -8.110383 -19.738087 0.179033  -1.570796 -0.000000 1.570796
53  -6.991646 0.556457 -7.964171  -0.051945 0.000000 1.570796
54  -7.047278 -14.446292 -14.272915  1.489994 0.086760 0.103245
55  -1.855343 6.848201 8.911868  0.643722 -1.614433 -2.214060
56  0.461753 7.791412 26.458834  0.643346 -1.614420 -2.213684
57  0.599219 4.162451 9.540138  -0.024899 -0.027352 -0.026683
time 10
0  0 0 0  0 0 0
1  0.000000 0.000000 0.000000  1.570796 -0.000000 0.000000
2  15.269911 -21.966835 13.863769  0.348951 0.583476 1.427012
3  0.000002 13.479279 -0.000001  0.647623 0.000000 -0.000000
4  -0.000001 13.477239 0.000000  -0.597743 -0.168690 0.505555
5  -0.267270 3.664727 -1.953293  -0.096194 -0.052727 -0.400403
6  -0.000002 1.180357 0.000001  -0.033422 -0.016719 -0.440925
7  0.000002 0.817135 0.000002  0.007067 -0.010065 -0.256194
8  -0.249422 3.688541 -0.940889  -0.054966 -0.028860 -0.393964
9  -0.000000 1.800633 -0.000002  0.004228 0.003292 -0.472103
10  0.000000 1.243406 -0.000001  0.006309 0.001661 -0.328230
11  -0.244726 3.701095 0.087732  0.004244 0.003603 -0.402932
12  -0.000003 1.766583 -0.000001  0.003329 -0.002780 -0.523312
13  0.000001 1.189004 -0.000000  -0.016474 -0.006468 -0.416037
14  -0.277238 3.632248 1.274102  0.052687 0.017453 -0.279974
15  0.000001 1.798492 -0.000002  0.034542 0.015473 -0.421259
16  0.000000 1.235450 0.000001  -0.006025 0.006058 -0.203611
17  0.315442 0.857300 0.755944  2.109432 0.373269 1.533784
18  0.000000 2.265938 0.000002  -0.056797 -0.034690 -0.271734
19  0.000001 1.457808 0.000002  -0.031121 0.045492 0.001395
20  -1.259681 3.818375 1.286946  0.052687 0.017453 -0.279974
21  -1.226391 3.891693 0.090418  0.004244 0.003603 -0.402932
22  -1.231623 3.875534 -0.958681  -0.054966 -0.028860 -0.393964
23  -1.209919 3.994781 -2.003049  -0.096194 -0.052727 -0.400403
24  0.328908 0.095428 1.403532  2.109432 0.373269 1.533784
25  -3.254052 -10.420286 27.153381  0.481705 0.064578 1.545901
26  -16.870777 -21.834059 7.086506  -1.570796 -0.000000 -1.570796
27  15.269911 -21.966835 13.863769  -0.051945 -0.000000 -1.570796
28  -7.018762 0.693441 -8.058730  0.484111 0.064592 3.114260
29  0.000001 13.479276 0.000000  1.000113 -0.000000 0.000000
30  -0.000000 13.477240 0.000001  0.098367 0.020411 0.108451
31  0.267269 3.664725 -1.953293  -0.067893 0.086178 0.802666
32  -0.000003 1.180354 -0.000000  -0.024201 0.028477 0.843506
33  -0.000003 0.817135 0.000001  0.010446 0.006491 0.658839
34  0.249423 3.688542 -0.940888  -0.032371 0.052975 0.932871
35  -0.000001 1.800634 0.000000  0.000732 -0.005308 1.244337
36  -0.000001 1.243408 0.000000  0.004815 -0.004401 0.811275
37  0.244727 3.701095 0.087733  0.001305 -0.005412 1.033087
38  0.000001 1.766585 -0.000002  0.004298 0.000584 1.084130
39  -0.000001 1.189003 0.000001  -0.010510 0.014239 0.976837
40  0.277238 3.632248 1.274101  0.185107 -0.010184 0.144732
41  -0.000000 1.798493 -0.000001  0.027685 -0.025810 0.750471
42  0.000000 1.235451 0.000000  -0.008036 -0.002903 0.645088
43  -0.315441 0.857299 0.755943  -0.248767 -2.664688 1.150363
44  0.000001 2.265940 -0.000001  -0.039010 0.053923 0.668054
45  0.000002 1.457811 -0.000001  -0.054852 0.005358 1.066393
46  1.259681 3.818373 1.286945  0.185107 -0.010184 0.144732
47  1.226391 3.891691 0.090419  0.001305 -0.005412 1.033087
48  1.231622 3.875534 -0.958681  -0.032371 0.052975 0.932871
49  1.209919 3.994781 -2.003048  -0.067893 0.086178 0.802666
50  -0.328906 0.095427 1.403532  -0.248767 -2.664688 1.150362
51  -8.647741 -12.362330 11.600003  -1.559769 -3.099910 0.002387
52  -8.110383 -19.738087 0.179033  -1.570796 -0.000000 1.570796
53  -7.018762 0.693441 -8.058730  -0.051945 0.000000 1.570796
54  -7.259854 -14.445880 -14.353890  1.559670 -0.002385 0.041683
55  -1.855343 6.848200 8.911865  0.643721 -1.614433 -2.214061
56  0.461753 7.791413 26.458832  0.643346 -1.614420 -2.213685
57  0.599219 4.162450 9.540135  -0.024899 -0.027352 -0.026683
time 11
0  0 0 0  0 0 0
1  0.000000 0.000000 0.000000  1.570796 -0.000000 0.000000
2  15.269911 -21.966835 13.863769  0.383962 0.562432 1.433356
3  0.000001 13.479279 0.000002  0.559910 0.000000 -0.000000
4  0.000002 13.477240 -0.000001  -0.578179 -0.178795 0.519455
5  -0.267271 3.664725 -1.953294  -0.096194 -0.052727 -0.400403
6  0.000002 1.180356 0.000002  -0.033423 -0.016719 -0.440925
7  -0.000000 0.817136 -0.000000  0.007067 -0.010065 -0.256194
8  -0.249423 3.688540 -0.940888  -0.054966 -0.028860 -0.393963
9  0.000000 1.800632 0.000001  0.004228 0.003292 -0.472103
10  -0.000002 1.243406 -0.000001  0.006309 0.001661 -0.328230
11  -0.244727 3.701095 0.087735  0.004244 0.003603 -0.402932
12  -0.000000 1.766584 -0.000000  0.003329 -0.002780 -0.523312
13  0.000000 1.189003 0.000002  -0.016474 -0.006468 -0.416037
14  -0.277241 3.632247 1.274103  0.052687 0.017453 -0.279974
15  0.000001 1.798492 -0.000002  0.034542 0.015473 -0.421259
16  0.000002 1.235451 -0.000000  -0.006025 0.006058 -0.203611
17  0.315440 0.857299 0.755944  2.109433 0.373269 1.533785
18  0.000001 2.265935 -0.000003  -0.056797 -0.034690 -0.271734
19  -0.000000 1.457813 0.000000  -0.031121 0.045492 0.001395
20  -1.259683 3.818374 1.286946  0.052687 0.017453 -0.279974
21  -1.226392 3.891692 0.090419  0.004244 0.003603 -0.402931
22  -1.231623 3.875533 -0.958679  -0.054966 -0.028860 -0.393964
23  -1.209920 3.994781 -2.003046  -0.096194 -0.052727 -0.400403
24  0.328905 0.095427 1.403532  2.109432 0.373269 1.533784
25  -3.775582 -10.739116 27.368280  0.456861 0.032607 1.576474
26  -16.870777 -21.834059 7.086506  -1.570796 -0.000000 -1.570796
27  15.269911 -21.966835 13.863769  -0.051945 -0.000000 -1.570796
28  -7.028650 0.743399 -8.093216  0.490482 0.069117 3.116751
29  0.000001 13.479276 0.000000  0.988157 -0.000000 0.000000
30  0.000001 13.477240 -0.000000  0.072667 0.051826 0.090252
31  0.267270 3.664726 -1.953292  -0.067893 0.086178 0.802666
32  -0.000002 1.180355 -0.000002  -0.024201 0.028477 0.843506
33  -0.000001 0.817135 0.000000  0.010446 0.006491 0.658839
34  0.249423 3.688541 -0.940887  -0.032371 0.052975 0.932871
35  0.000002 1.800633 0.000001  0.000732 -0.005308 1.244337
36  0.000002 1.243405 -0.000001  0.004815 -0.004401 0.811274
37  0.244727 3.701095 0.087734  0.001305 -0.005412 1.033087
38  -0.000001 1.766584 0.000001  0.004298 0.000584 1.084130
39  -0.000001 1.189003 -0.000000  -0.010510 0.014239 0.976837
40  0.277238 3.632248 1.274103  0.185107 -0.010184 0.144732
41  0.000000 1.798493 -0.000001  0.027685 -0.025810 0.750471
42  -0.000001 1.235451 -0.000000  -0.008036 -0.002903 0.645088
43  -0.315441 0.857301 0.755945  -0.248767 -2.664688 1.150362
44  0.000001 2.265939 0.000001  -0.039010 0.053923 0.668054
45  0.000000 1.457810 -0.000000  -0.054852 0.005358 1.066393
46  1.259681 3.818375 1.286947  0.185107 -0.010184 0.144732
47  1.226391 3.891693 0.090421  0.001305 -0.005412 1.033087
48  1.231624 3.875535 -0.958678  -0.032371 0.052975 0.932871
49  1.209919 3.994781 -2.003046  -0.067893 0.086178 0.802666
50  -0.328906 0.095430 1.403534  -0.248767 -2.664688 1.150362
51  -8.719653 -12.348857 11.628648  1.550558 -0.015969 -3.106524
52  -8.110383 -19.738087 0.179033  -1.570796 -0.000000 1.570796
53  -7.028650 0.743399 -8.093216  -0.051945 0.000000 1.570796
54  -7.338887 -14.445376 -14.386281  1.590474 -0.035064 0.015979
55  -1.855343 6.848201 8.911864  0.643721 -1.614433 -2.214061
56  0.461753 7.791414 26.458832  0.643346 -1.614420 -2.213684
57  0.599220 4.162451 9.540135  -0.024899 -0.027352 -0.026683
time 12
0  0 0 0  0 0 0
1  0.000000 0.000000 0.000000  1.570796 -0.000000 0.000000
2  15.269911 -21.966835 13.863769  0.390560 0.564381 1.432776
3  0.000002 13.479278 0.000001  0.543577 0.000000 -0.000000
4  0.000001 13.477242 -0.000000  -0.574324 -0.183236 0.515796
5  -0.267270 3.664727 -1.953293  -0.096194 -0.052727 -0.400403
6  0.000001 1.180354 0.000001  -0.033422 -0.016719 -0.440925
7  -0.000001 0.817138 -0.000002  0.007067 -0.010065 -0.256194
8  -0.249422 3.688542 -0.940891  -0.054966 -0.028860 -0.393964
9  -0.000002 1.800633 -0.000001  0.004228 0.003292 -0.472103
10  0.000000 1.243405 0.000003  0.006309 0.001661 -0.328230
11  -0.244726 3.701097 0.087733  0.004244 0.003603 -0.402932
12  0.000000 1.766586 0.000004  0.003329 -0.002780 -0.523312
13  -0.000000 1.189003 -0.000001  -0.016474 -0.006468 -0.416037
14  -0.277239 3.632248 1.274101  0.052687 0.017453 -0.279974
15  0.000000 1.798494 -0.000001  0.034542 0.015473 -0.421260
16  -0.000001 1.235451 -0.000001  -0.006025 0.006058 -0.203611
17  0.315441 0.857300 0.755943  2.109432 0.373269 1.533784
18  -0.000000 2.265939 -0.000000  -0.056797 -0.034690 -0.271734
19  -0.000000 1.457811 -0.000002  -0.031121 0.045492 0.001395
20  -1.259682 3.818375 1.286945  0.052687 0.017453 -0.279974
21  -1.226391 3.891694 0.090418  0.004244 0.003603 -0.402932
22  -1.231623 3.875535 -0.958681  -0.054966 -0.028860 -0.393964
23  -1.209919 3.994783 -2.003047  -0.096194 -0.052727 -0.400403
24  0.328906 0.095429 1.403532  2.109432 0.373269 1.533784
25  -3.836378 -10.689689 27.355520  0.451987 0.036511 1.575158
26  -16.870777 -21.834059 7.086506  -1.570796 -0.000000 -1.570796
27  15.269911 -21.966835 13.863769  -0.051945 -0.000000 -1.570796
28  -7.028650 0.743399 -8.093216  0.487739 0.068261 3.116404
29  -0.000000 13.479276 -0.000000  0.991735 -0.000000 0.000000
30  -0.000000 13.477240 -0.000000  0.075625 0.051564 0.084538
31  0.267268 3.664725 -1.953292  -0.067893 0.086178 0.802666
32  -0.000002 1.180354 -0.000001  -0.024201 0.028477 0.843506
33  0.000000 0.817136 0.000000  0.010446 0.006491 0.658839
34  0.249422 3.688541 -0.940888  -0.032371 0.052975 0.932871
35  -0.000001 1.800634 0.000000  0.000732 -0.005308 1.244337
36  0.000000 1.243407 -0.000001  0.004815 -0.004401 0.811274
37  0.244725 3.701094 0.087733  0.001305 -0.005412 1.033087
38  -0.000001 1.766584 0.000001  0.004298 0.000584 1.084130
39  -0.000000 1.189003 0.000002  -0.010510 0.014239 0.976837
40  0.277238 3.632246 1.274102  0.185107 -0.010184 0.144732
41  0.000001 1.798494 0.000001  0.027685 -0.025810 0.750471
42  0.000002 1.235453 -0.000001  -0.008036 -0.002903 0.645088
43  -0.315442 0.857299 0.755945  -0.248767 -2.664688 1.150362
44  0.000000 2.265939 0.000001  -0.039010 0.053923 0.668054
45  0.000001 1.457811 -0.000000  -0.054852 0.005358 1.066393
46  1.259680 3.818374 1.286946  0.185107 -0.010184 0.144732
47  1.226390 3.891692 0.090420  0.001305 -0.005412 1.033087
48  1.231623 3.875533 -0.958680  -0.032371 0.052975 0.932871
49  1.209918 3.994781 -2.003048  -0.067893 0.086178 0.802666
50  -0.328908 0.095428 1.403533  -0.248767 -2.664688 1.150362
51  -8.705317 -12.354893 11.598247  1.554604 -0.011215 -3.107727
52  -8.110383 -19.738087 0.179033  -1.570796 -0.000000 1.570796
53  -7.028650 0.743399 -8.093216  -0.051945 0.000000 1.570796
54  -7.340694 -14.429573 -14.382936  1.586609 -0.033863 0.011222
55  -1.855344 6.848202 8.911867  0.643721 -1.614433 -2.214061
56  0.461752 7.791413 26.458834  0.643346 -1.614420 -2.213684
57  0.599219 4.162452 9.540137  -0.024899 -0.027352 -0.026683
time 13
0  0 0 0  0 0 0
1  0.000000 0.000000 0.000000  1.570796 -0.000000 0.000000
2  15.269911 -21.966835 13.863769  0.395799 0.569907 1.431123
3  0.000004 13.479279 0.000002  0.529389 0.000000 -0.000000
4  -0.000000 13.477239 0.000001  -0.570376 -0.187334 0.510564
5  -0.267269 3.664726 -1.953294  -0.096193 -0.052727 -0.400403
6  0.000000 1.180357 0.000002  -0.033422 -0.016719 -0.440925
7  0.000004 0.817136 -0.000000  0.007067 -0.010065 -0.256194
8  -0.249423 3.688542 -0.940889  -0.054966 -0.028860 -0.393964
9  -0.000001 1.800633 0.000004  0.004228 0.003292 -0.472103
10  -0.000002 1.243406 0.000001  0.006309 0.001661 -0.328230
11  -0.244727 3.701096 0.087731  0.004244 0.003603 -0.402932
12  0.000001 1.766586 0.000002  0.003329 -0.002780 -0.523312
13  0.000001 1.189004 0.000001  -0.016474 -0.006468 -0.416037
14  -0.277239 3.632248 1.274103  0.052687 0.017453 -0.279974
15  0.000002 1.798494 0.000001  0.034542 0.015473 -0.421259
16  -0.000001 1.235452 -0.000001  -0.006025 0.006058 -0.203611
17  0.315441 0.857301 0.755943  2.109433 0.373269 1.533785
18  0.000000 2.265941 0.000001  -0.056797 -0.034690 -0.271734
19  0.000000 1.457815 -0.000001  -0.031121 0.045492 0.001395
20  -1.259681 3.818376 1.286946  0.052687 0.017453 -0.279974
21  -1.226390 3.891694 0.090418  0.004244 0.003603 -0.402931
22  -1.231624 3.875534 -0.958680  -0.054966 -0.028860 -0.393964
23  -1.209919 3.994782 -2.003048  -0.096194 -0.052727 -0.400403
24  0.328906 0.095429 1.403532  2.109432 0.373269 1.533784
25  -3.877040 -10.578269 27.302500  0.448021 0.045298 1.571856
26  -16.870777 -21.834059 7.086506  -1.570796 -0.000000 -1.570796
27  15.269911 -21.966835 13.863769  -0.051945 -0.000000 -1.570796
28  -7.028650 0.743399 -8.093216  0.482683 0.067348 3.116035
29  0.000001 13.479276 -0.000000  0.998282 -0.000000 0.000000
30  0.000000 13.477238 -0.000001  0.082820 0.049263 0.079604
31  0.267268 3.664725 -1.953293  -0.067893 0.086178 0.802666
32  0.000002 1.180354 -0.000001  -0.024201 0.028477 0.843506
33  0.000003 0.817135 -0.000001  0.010446 0.006491 0.658839
34  0.249422 3.688540 -0.940889  -0.032371 0.052975 0.932871
35  -0.000002 1.800633 0.000001  0.000732 -0.005308 1.244337
36  0.000002 1.243405 -0.000000  0.004815 -0.004401 0.811274
37  0.244726 3.701095 0.087733  0.001305 -0.005412 1.033087
38  0.000000 1.766585 0.000000  0.004298 0.000584 1.084130
39  0.000002 1.189004 -0.000001  -0.010510 0.014239 0.976838
40  0.277238 3.632247 1.274103  0.185107 -0.010184 0.144732
41  -0.000000 1.798495 -0.000001  0.027685 -0.025810 0.750471
42  0.000001 1.235452 -0.000002  -0.008036 -0.002903 0.645088
43  -0.315442 0.857300 0.755944  -0.248767 -2.664688 1.150362
44  -0.000000 2.265939 -0.000001  -0.039010 0.053923 0.668054
45  0.000000 1.457812 0.000000  -0.054852 0.005358 1.066393
46  1.259681 3.818374 1.286945  0.185107 -0.010184 0.144732
47  1.226389 3.891693 0.090420  0.001305 -0.005412 1.033087
48  1.231621 3.875533 -0.958681  -0.032371 0.052975 0.932871
49  1.209917 3.994781 -2.003048  -0.067893 0.086178 0.802666
50  -0.328908 0.095428 1.403533  -0.248767 -2.664688 1.150362
51  -8.688566 -12.366587 11.541085  1.563505 -0.007513 -3.110950
52  -8.110383 -19.738087 0.179033  -1.570796 -0.000000 1.570796
53  -7.028650 0.743399 -8.093216  -0.051945 0.000000 1.570796
54  -7.341612 -14.395524 -14.373936  1.577858 -0.030642 0.007517
55  -1.855342 6.848202 8.911868  0.643721 -1.614433 -2.214061
56  0.461753 7.791415 26.458836  0.643346 -1.614420 -2.213684
57  0.599220 4.162454 9.540137  -0.024899 -0.027352 -0.026683
time 14
0  0 0 0  0 0 0
1  0.000000 0.000000 0.000000  1.570796 -0.000000 0.000000
2  15.269911 -21.966835 13.863769  0.399320 0.575613 1.429404
3  0.000005 13.479280 0.000000  0.519326 -0.000000 -0.000000
4  0.000003 13.477240 0.000000  -0.567416 -0.191464 0.505079
5  -0.267269 3.664728 -1.953292  -0.096194 -0.052727 -0.400403
6  0.000001 1.180355 0.000001  -0.033422 -0.016719 -0.440925
7  -0.000001 0.817135 -0.000000  0.007067 -0.010065 -0.256194
8  -0.249422 3.688543 -0.940888  -0.054966 -0.028860 -0.393963
9  0.000000 1.800633 0.000001  0.004228 0.003292 -0.472103
10  0.000000 1.243406 -0.000002  0.006309 0.001661 -0.328230
11  -0.244726 3.701096 0.087732  0.004244 0.003603 -0.402932
12  0.000001 1.766585 -0.000002  0.003329 -0.002780 -0.523312
13  -0.000003 1.189004 -0.000003  -0.016474 -0.006468 -0.416037
14  -0.277239 3.632249 1.274102  0.052686 0.017453 -0.279974
15  -0.000001 1.798494 -0.000001  0.034542 0.015473 -0.421259
16  -0.000001 1.235451 0.000000  -0.006025 0.006058 -0.203611
17  0.315441 0.857301 0.755945  2.109432 0.373269 1.533784
18  -0.000000 2.265939 -0.000000  -0.056797 -0.034690 -0.271734
19  0.000001 1.457810 -0.000001  -0.031121 0.045492 0.001395
20  -1.259682 3.818376 1.286947  0.052687 0.017453 -0.279974
21  -1.226391 3.891695 0.090419  0.004244 0.003603 -0.402932
22  -1.231623 3.875535 -0.958680  -0.054966 -0.028860 -0.393964
23  -1.209919 3.994782 -2.003047  -0.096194 -0.052727 -0.400403
24  0.328907 0.095430 1.403533  2.109432 0.373269 1.533784
25  -3.898760 -10.467383 27.245161  0.444973 0.054112 1.567093
26  -16.870777 -21.834059 7.086506  -1.570796 -0.000000 -1.570796
27  15.269911 -21.966835 13.863769  -0.051945 -0.000000 -1.570796
28  -7.028650 0.743399 -8.093216  0.477735 0.066375 3.115640
29  0.000000 13.479276 0.000000  1.005072 -0.000000 0.000000
30  0.000000 13.477239 0.000001  0.089713 0.045485 0.075393
31  0.267270 3.664727 -1.953292  -0.067893 0.086178 0.802666
32  -0.000002 1.180355 -0.000001  -0.024201 0.028477 0.843506
33  -0.000000 0.817136 -0.000000  0.010446 0.006491 0.658839
34  0.249423 3.688541 -0.940889  -0.032371 0.052975 0.932871
35  0.000000 1.800634 0.000001  0.000732 -0.005308 1.244337
36  -0.000001 1.243407 0.000000  0.004815 -0.004401 0.811274
37  0.244726 3.701096 0.087734  0.001305 -0.005412 1.033087
38  0.000001 1.766584 0.000000  0.004298 0.000584 1.084130
39  0.000000 1.189003 0.000000  -0.010510 0.014239 0.976837
40  0.277240 3.632247 1.274103  0.185107 -0.010184 0.144732
41  0.000002 1.798495 -0.000001  0.027685 -0.025810 0.750471
42  -0.000001 1.235451 -0.000000  -0.008036 -0.002903 0.645088
43  -0.315442 0.857301 0.755944  -0.248767 -2.664688 1.150363
44  -0.000001 2.265939 0.000000  -0.039010 0.053923 0.668054
45  0.000000 1.457811 0.000000  -0.054852 0.005358 1.066393
46  1.259682 3.818374 1.286947  0.185107 -0.010184 0.144732
47  1.226390 3.891692 0.090419  0.001305 -0.005412 1.033087
48  1.231622 3.875533 -0.958678  -0.032371 0.052975 0.932871
49  1.209920 3.994781 -2.003047  -0.067893 0.086178 0.802666
50  -0.328906 0.095428 1.403533  -0.248767 -2.664688 1.150362
51  -8.671003 -12.372581 11.485498  1.572405 -0.004731 -3.115616
52  -8.110383 -19.738087 0.179033  -1.570796 -0.000000 1.570796
53  -7.028650 0.743399 -8.093216  -0.051945 0.000000 1.570796
54  -7.341953 -14.361612 -14.360834  1.569064 -0.025976 0.004733
55  -1.855343 6.848202 8.911865  0.643721 -1.614433 -2.214061
56  0.461752 7.791413 26.458830  0.643346 -1.614420 -2.213684
57  0.599218 4.162452 9.540133  -0.024899 -0.027352 -0.026683
time 15
0  0 0 0  0 0 0
1  0.000000 0.000000 0.000000  1.570796 -0.000000 0.000000
2  15.269911 -21.966835 13.863769  0.400684 0.578084 1.428655
3  0.000005 13.479278 0.000000  0.515551 0.000000 -0.000000
4  -0.000003 13.477240 0.000001  -0.566673 -0.195959 0.500687
5  -0.267269 3.664725 -1.953294  -0.096194 -0.052727 -0.400403
6  -0.000000 1.180356 -0.000001  -0.033422 -0.016719 -0.440925
7  0.000000 0.817137 -0.000003  0.007067 -0.010065 -0.256194
8  -0.249423 3.688540 -0.940889  -0.054966 -0.028860 -0.393964
9  0.000002 1.800635 0.000000  0.004228 0.003292 -0.472103
10  0.000001 1.243405 0.000001  0.006309 0.001661 -0.328230
11  -0.244726 3.701094 0.087733  0.004244 0.003603 -0.402932
12  0.000002 1.766586 0.000001  0.003329 -0.002780 -0.523312
13  0.000002 1.189003 -0.000001  -0.016474 -0.006468 -0.416037
14  -0.277240 3.632247 1.274102  0.052687 0.017453 -0.279974
15  -0.000001 1.798494 -0.000003  0.034542 0.015472 -0.421259
16  0.000001 1.235453 -0.000003  -0.006025 0.006058 -0.203611
17  0.315441 0.857298 0.755943  2.109432 0.373269 1.533784
18  0.000000 2.265940 -0.000005  -0.056797 -0.034690 -0.271734
19  0.000001 1.457809 0.000001  -0.031121 0.045492 0.001395
20  -1.259681 3.818373 1.286944  0.052687 0.017453 -0.279974
21  -1.226391 3.891692 0.090419  0.004244 0.003603 -0.402932
22  -1.231623 3.875532 -0.958680  -0.054966 -0.028860 -0.393964
23  -1.209919 3.994781 -2.003047  -0.096194 -0.052727 -0.400403
24  0.328906 0.095427 1.403532  2.109432 0.373269 1.533784
25  -3.904140 -10.419220 27.221321  0.442856 0.058097 1.561457
26  -16.870777 -21.834059 7.086506  -1.570796 -0.000000 -1.570796
27  15.269911 -21.966835 13.863769  -0.051945 -0.000000 -1.570796
28  -7.028650 0.743399 -8.093216  0.475248 0.065336 3.115219
29  0.000001 13.479276 0.000000  1.009544 -0.000000 0.000000
30  0.000000 13.477240 0.000002  0.091659 0.040802 0.071841
31  0.267269 3.664726 -1.953292  -0.067893 0.086178 0.802666
32  0.000002 1.180355 0.000000  -0.024201 0.028477 0.843506
33  0.000002 0.817136 0.000000  0.010446 0.006491 0.658839
34  0.249422 3.688541 -0.940888  -0.032371 0.052975 0.932871
35  0.000001 1.800632 -0.000000  0.000732 -0.005308 1.244336
36  -0.000001 1.243405 -0.000000  0.004815 -0.004401 0.811274
37  0.244726 3.701095 0.087733  0.001305 -0.005412 1.033087
38  0.000002 1.766585 0.000000  0.004298 0.000584 1.084130
39  0.000001 1.189003 0.000000  -0.010510 0.014239 0.976837
40  0.277238 3.632248 1.274103  0.185107 -0.010184 0.144732
41  0.000000 1.798494 0.000001  0.027685 -0.025810 0.750471
42  -0.000001 1.235452 -0.000001  -0.008036 -0.002903 0.645088
43  -0.315441 0.857300 0.755944  -0.248767 -2.664688 1.150362
44  -0.000001 2.265940 0.000000  -0.039010 0.053923 0.668054
45  0.000000 1.457811 0.000000  -0.054852 0.005358 1.066393
46  1.259681 3.818374 1.286945  0.185107 -0.010184 0.144732
47  1.226390 3.891692 0.090420  0.001305 -0.005412 1.033087
48  1.231622 3.875535 -0.958679  -0.032371 0.052975 0.932871
49  1.209918 3.994781 -2.003047  -0.067893 0.086178 0.802666
50  -0.328906 0.095429 1.403533  -0.248767 -2.664688 1.150362
51  -8.654107 -12.361167 11.459412  1.576451 -0.002738 -3.121148
52  -8.110383 -19.738087 0.179033  -1.570796 -0.000000 1.570796
53  -7.028650 0.743399 -8.093216  -0.051945 0.000000 1.570796
54  -7.342027 -14.346223 -14.345184  1.565086 -0.020444 0.002739
55  -1.855343 6.848202 8.911865  0.643721 -1.614433 -2.214061
56  0.461752 7.791414 26.458830  0.643346 -1.614420 -2.213684
57  0.599219 4.162452 9.540137  -0.024899 -0.027352 -0.026683
time 16
0  0 0 0  0 0 0
1  0.000000 0.000000 0.000000  1.570796 -0.000000 0.000000
2  15.269911 -21.966835 13.863769  0.401240 0.577223 1.428916
3  0.000003 13.479279 -0.000002  0.515605 -0.000000 -0.000000
4  0.000004 13.477238 0.000000  -0.567377 -0.200746 0.497264
5  -0.267270 3.664726 -1.953296  -0.096194 -0.052727 -0.400403
6  -0.000000 1.180355 -0.000002  -0.033422 -0.016719 -0.440925
7  -0.000001 0.817134 0.000001  0.007067 -0.010065 -0.256194
8  -0.249423 3.688542 -0.940890  -0.054966 -0.028860 -0.393963
9  0.000000 1.800632 0.000000  0.004228 0.003292 -0.472103
10  0.000000 1.243406 -0.000002  0.006309 0.001661 -0.328230
11  -0.244727 3.701095 0.087730  0.004244 0.003603 -0.402932
12  -0.000001 1.766585 -0.000000  0.003329 -0.002780 -0.523312
13  0.000000 1.189002 0.000004  -0.016474 -0.006468 -0.416037
14  -0.277239 3.632247 1.274099  0.052687 0.017453 -0.279974
15  0.000001 1.798495 0.000003  0.034542 0.015473 -0.421260
16  -0.000002 1.235451 -0.000000  -0.006025 0.006058 -0.203611
17  0.315441 0.857299 0.755940  2.109432 0.373269 1.533784
18  -0.000001 2.265938 -0.000001  -0.056797 -0.034690 -0.271734
19  0.000000 1.457813 -0.000001  -0.031121 0.045492 0.001395
20  -1.259682 3.818374 1.286942  0.052687 0.017453 -0.279974
21  -1.226390 3.891693 0.090417  0.004244 0.003603 -0.402932
22  -1.231624 3.875533 -0.958684  -0.054966 -0.028860 -0.393964
23  -1.209920 3.994781 -2.003051  -0.096194 -0.052727 -0.400403
24  0.328906 0.095428 1.403530  2.109432 0.373269 1.533784
25  -3.898501 -10.430507 27.238794  0.441536 0.057469 1.555559
26  -16.870777 -21.834059 7.086506  -1.570796 -0.000000 -1.570796
27  15.269911 -21.966835 13.863769  -0.051945 -0.000000 -1.570796
28  -7.028650 0.743399 -8.093216  0.475813 0.064268 3.114786
29  0.000000 13.479277 -0.000000  1.010642 -0.000000 0.000000
30  0.000000 13.477238 0.000001  0.089337 0.035755 0.068922
31  0.267270 3.664725 -1.953293  -0.067893 0.086178 0.802666
32  -0.000000 1.180356 -0.000000  -0.024201 0.028477 0.843506
33  0.000000 0.817136 0.000001  0.010446 0.006491 0.658839
34  0.249423 3.688541 -0.940889  -0.032371 0.052975 0.932871
35  0.000001 1.800632 0.000000  0.000732 -0.005308 1.244336
36  0.000003 1.243405 0.000001  0.004815 -0.004401 0.811274
37  0.244727 3.701096 0.087733  0.001305 -0.005412 1.033087
38  0.000001 1.766585 0.000000  0.004298 0.000584 1.084129
39  -0.000001 1.189002 0.000001  -0.010510 0.014239 0.976837
40  0.277239 3.632248 1.274101  0.185107 -0.010184 0.144732
41  0.000000 1.798494 0.000001  0.027685 -0.025810 0.750471
42  0.000000 1.235451 -0.000001  -0.008036 -0.002903 0.645088
43  -0.315441 0.857300 0.755943  -0.248767 -2.664688 1.150362
44  -0.000001 2.265939 0.000000  -0.039010 0.053923 0.668054
45  -0.000001 1.457812 0.000000  -0.054852 0.005358 1.066393
46  1.259681 3.818374 1.286947  0.185107 -0.010184 0.144732
47  1.226391 3.891693 0.090419  0.001305 -0.005412 1.033087
48  1.231623 3.875533 -0.958679  -0.032371 0.052975 0.932871
49  1.209918 3.994782 -2.003047  -0.067893 0.086178 0.802666
50  -0.328906 0.095428 1.403532  -0.248767 -2.664688 1.150362
51  -8.638764 -12.335191 11.469419  1.575863 -0.001402 -3.126969
52  -8.110383 -19.738087 0.179033  -1.570796 -0.000000 1.570796
53  -7.028650 0.743399 -8.093216  -0.051945 0.000000 1.570796
54  -7.342090 -14.356745 -14.328568  1.565709 -0.014624 0.001402
55  -1.855343 6.848202 8.911865  0.643721 -1.614433 -2.214061
56  0.461752 7.791413 26.458828  0.643346 -1.614420 -2.213684
57  0.599219 4.162452 9.540136  -0.024899 -0.027352 -0.026683
time 17
0  0 0 0  0 0 0
1  0.000000 0.000000 0.000000  1.570796 -0.000000 0.000000
2  15.269911 -21.966835 13.863769  0.402285 0.575592 1.429410
3  0.000006 13.479279 -0.000003  0.515761 -0.000000 -0.000000
4  -0.000003 13.477239 -0.000001  -0.567983 -0.205192 0.494023
5  -0.267268 3.664727 -1.953292  -0.096194 -0.052727 -0.400403
6  -0.000001 1.180357 0.000002  -0.033423 -0.016719 -0.440925
7  -0.000000 0.817135 0.000001  0.007067 -0.010065 -0.256194
8  -0.249421 3.688541 -0.940888  -0.054966 -0.028860 -0.393964
9  -0.000002 1.800633 0.000001  0.004228 0.003292 -0.472103
10  0.000000 1.243407 0.000003  0.006309 0.001661 -0.328230
11  -0.244725 3.701096 0.087734  0.004244 0.003603 -0.402932
12  -0.000001 1.766583 0.000001  0.003329 -0.002780 -0.523312
13  -0.000002 1.189003 0.000001  -0.016474 -0.006468 -0.416037
14  -0.277238 3.632249 1.274102  0.052687 0.017453 -0.279974
15  0.000000 1.798494 -0.000001  0.034542 0.015473 -0.421259
16  0.000000 1.235452 -0.000001  -0.006025 0.006058 -0.203611
17  0.315441 0.857300 0.755945  2.109432 0.373269 1.533785
18  0.000000 2.265939 0.000001  -0.056797 -0.034690 -0.271734
19  0.000000 1.457811 0.000001  -0.031121 0.045492 0.001395
20  -1.259679 3.818375 1.286947  0.052687 0.017453 -0.279974
21  -1.226390 3.891694 0.090420  0.004244 0.003603 -0.402932
22  -1.231622 3.875535 -0.958679  -0.054966 -0.028860 -0.393964
23  -1.209918 3.994782 -2.003046  -0.096194 -0.052727 -0.400403
24  0.328906 0.095429 1.403535  2.109432 0.373269 1.533784
25  -3.887350 -10.451886 27.272104  0.440767 0.056043 1.549982
26  -16.870777 -21.834059 7.086506  -1.570796 -0.000000 -1.570796
27  15.269911 -21.966835 13.863769  -0.051945 -0.000000 -1.570796
28  -7.028650 0.743399 -8.093216  0.477859 0.063275 3.114384
29  -0.000000 13.479277 0.000001  1.009662 -0.000000 0.000000
30  0.000001 13.477240 0.000002  0.086830 0.030866 0.066660
31  0.267271 3.664725 -1.953294  -0.067893 0.086178 0.802666
32  -0.000001 1.180354 -0.000000  -0.024201 0.028477 0.843506
33  -0.000000 0.817135 -0.000001  0.010446 0.006491 0.658839
34  0.249423 3.688541 -0.940890  -0.032371 0.052975 0.932871
35  0.000000 1.800634 0.000001  0.000732 -0.005308 1.244337
36  -0.000002 1.243407 -0.000001  0.004815 -0.004401 0.811274
37  0.244727 3.701096 0.087732  0.001305 -0.005412 1.033087
38  -0.000001 1.766584 -0.000002  0.004298 0.000584 1.084130
39  -0.000000 1.189004 0.000001  -0.010510 0.014239 0.976837
40  0.277239 3.632247 1.274102  0.185107 -0.010184 0.144732
41  -0.000001 1.798496 -0.000000  0.027685 -0.025810 0.750471
42  0.000001 1.235452 0.000000  -0.008036 -0.002903 0.645088
43  -0.315441 0.857299 0.755943  -0.248767 -2.664688 1.150363
44  0.000000 2.265939 0.000000  -0.039010 0.053923 0.668054
45  0.000000 1.457811 0.000000  -0.054852 0.005358 1.066393
46  1.259682 3.818374 1.286946  0.185107 -0.010184 0.144732
47  1.226391 3.891693 0.090418  0.001305 -0.005412 1.033087
48  1.231624 3.875534 -0.958681  -0.032371 0.052975 0.932871
49  1.209921 3.994782 -2.003048  -0.067893 0.086178 0.802666
50  -0.328904 0.095428 1.403532  -0.248767 -2.664688 1.150362
51  -8.625499 -12.308077 11.496310  1.574461 -0.000591 -3.132501
52  -8.110383 -19.738087 0.179033  -1.570796 -0.000000 1.570796
53  -7.028650 0.743399 -8.093216  -0.051945 0.000000 1.570796
54  -7.342176 -14.381837 -14.312668  1.567127 -0.009092 0.000591
55  -1.855343 6.848199 8.911864  0.643721 -1.614433 -2.214060
56  0.461752 7.791412 26.458832  0.643346 -1.614420 -2.213684
57  0.599218 4.162451 9.540137  -0.024899 -0.027352 -0.026683
time 18
0  0 0 0  0 0 0
1  0.000000 0.000000 0.000000  1.570796 -0.000000 0.000000
2  15.269911 -21.966835 13.863769  0.403480 0.573743 1.429969
3  0.000000 13.479278 0.000001  0.515916 0.000000 -0.000000
4  0.000001 13.477238 -0.000002  -0.568446 -0.208895 0.491297
5  -0.267270 3.664727 -1.953291  -0.096194 -0.052727 -0.400403
6  -0.000001 1.180354 0.000002  -0.033422 -0.016719 -0.440925
7  -0.000001 0.817134 -0.000000  0.007067 -0.010065 -0.256194
8  -0.249424 3.688542 -0.940888  -0.054966 -0.028860 -0.393963
9  0.000000 1.800633 -0.000000  0.004228 0.003292 -0.472103
10  0.000000 1.243406 -0.000002  0.006309 0.001661 -0.328230
11  -0.244726 3.701096 0.087735  0.004244 0.003603 -0.402932
12  -0.000002 1.766583 0.000002  0.003329 -0.002780 -0.523312
13  -0.000001 1.189004 0.000001  -0.016474 -0.006468 -0.416037
14  -0.277240 3.632249 1.274105  0.052686 0.017453 -0.279974
15  0.000001 1.798496 0.000004  0.034542 0.015473 -0.421260
16  -0.000002 1.235452 -0.000001  -0.006025 0.006058 -0.203611
17  0.315441 0.857299 0.755944  2.109432 0.373269 1.533784
18  -0.000000 2.265940 0.000000  -0.056797 -0.034690 -0.271734
19  -0.000001 1.457811 -0.000001  -0.031121 0.045492 0.001395
20  -1.259682 3.818375 1.286946  0.052687 0.017453 -0.279974
21  -1.226390 3.891694 0.090421  0.004244 0.003603 -0.402932
22  -1.231623 3.875534 -0.958681  -0.054966 -0.028860 -0.393964
23  -1.209919 3.994782 -2.003048  -0.096194 -0.052727 -0.400403
24  0.328905 0.095429 1.403533  2.109432 0.373269 1.533784
25  -3.874730 -10.476184 27.309891  0.440400 0.054357 1.545295
26  -16.870777 -21.834059 7.086506  -1.570796 -0.000000 -1.570796
27  15.269911 -21.966835 13.863769  -0.051945 -0.000000 -1.570796
28  -7.028650 0.743399 -8.093216  0.480465 0.062451 3.114050
29  0.000000 13.479276 0.000000  1.007649 -0.000000 0.000000
30  -0.000000 13.477239 0.000000  0.084546 0.026691 0.065048
31  0.267270 3.664726 -1.953292  -0.067893 0.086178 0.802666
32  -0.000002 1.180356 0.000001  -0.024201 0.028477 0.843506
33  -0.000004 0.817135 0.000001  0.010446 0.006491 0.658839
34  0.249423 3.688541 -0.940888  -0.032371 0.052975 0.932871
35  0.000001 1.800634 -0.000000  0.000732 -0.005308 1.244337
36  0.000001 1.243404 0.000000  0.004815 -0.004401 0.811275
37  0.244726 3.701095 0.087734  0.001305 -0.005412 1.033087
38  -0.000002 1.766584 0.000001  0.004298 0.000584 1.084130
39  0.000001 1.189004 -0.000000  -0.010510 0.014239 0.976837
40  0.277239 3.632249 1.274103  0.185107 -0.010184 0.144732
41  0.000000 1.798492 -0.000000  0.027685 -0.025810 0.750471
42  -0.000003 1.235452 -0.000000  -0.008036 -0.002903 0.645088
43  -0.315441 0.857299 0.755944  -0.248767 -2.664688 1.150362
44  -0.000000 2.265939 0.000001  -0.039010 0.053923 0.668054
45  0.000001 1.457812 0.000000  -0.054852 0.005358 1.066393
46  1.259681 3.818374 1.286946  0.185107 -0.010184 0.144732
47  1.226392 3.891692 0.090420  0.001305 -0.005412 1.033087
48  1.231624 3.875533 -0.958679  -0.032371 0.052975 0.932871
49  1.209918 3.994781 -2.003047  -0.067893 0.086178 0.802666
50  -0.328905 0.095427 1.403534  -0.248767 -2.664688 1.150362
51  -8.615039 -12.283803 11.529111  1.572787 -0.000175 -3.137167
52  -8.110383 -19.738087 0.179033  -1.570796 -0.000000 1.570796
53  -7.028650 0.743399 -8.093216  -0.051945 0.000000 1.570796
54  -7.342264 -14.411785 -14.299193  1.568805 -0.004426 0.000175
55  -1.855343 6.848202 8.911864  0.643721 -1.614433 -2.214061
56  0.461752 7.791414 26.458832  0.643346 -1.614420 -2.213684
57  0.599218 4.162453 9.540136  -0.024899 -0.027352 -0.026683
time 19
0  0 0 0  0 0 0
1  0.000000 0.000000 0.000000  1.570796 -0.000000 0.000000
2  15.269911 -21.966835 13.863769  0.404470 0.572227 1.430426
3  0.000005 13.479278 -0.000001  0.516017 0.000000 -0.000000
4  0.000001 13.477238 -0.000002  -0.568737 -0.211435 0.489416
5  -0.267269 3.664724 -1.953296  -0.096194 -0.052727 -0.400403
6  -0.000000 1.180357 -0.000001  -0.033422 -0.016719 -0.440925
7  0.000002 0.817135 -0.000001  0.007067 -0.010065 -0.256194
8  -0.249423 3.688539 -0.940892  -0.054966 -0.028860 -0.393964
9  0.000002 1.800634 0.000000  0.004228 0.003292 -0.472103
10  0.000000 1.243407 0.000001  0.006309 0.001661 -0.328230
11  -0.244728 3.701094 0.087728  0.004244 0.003603 -0.402932
12  0.000001 1.766586 -0.000001  0.003329 -0.002780 -0.523312
13  -0.000002 1.189004 -0.000001  -0.016474 -0.006468 -0.416037
14  -0.277240 3.632247 1.274099  0.052687 0.017453 -0.279974
15  -0.000000 1.798494 -0.000000  0.034542 0.015473 -0.421260
16  0.000000 1.235449 0.000002  -0.006025 0.006058 -0.203611
17  0.315440 0.857299 0.755942  2.109433 0.373269 1.533784
18  0.000001 2.265941 -0.000001  -0.056797 -0.034690 -0.271734
19  -0.000000 1.457811 0.000001  -0.031121 0.045492 0.001395
20  -1.259681 3.818373 1.286942  0.052687 0.017453 -0.279974
21  -1.226390 3.891691 0.090416  0.004244 0.003603 -0.402931
22  -1.231624 3.875532 -0.958683  -0.054966 -0.028860 -0.393964
23  -1.209919 3.994780 -2.003050  -0.096194 -0.052727 -0.400403
24  0.328906 0.095427 1.403529  2.109432 0.373269 1.533784
25  -3.864450 -10.496135 27.340847  0.440289 0.052951 1.542066
26  -16.870777 -21.834059 7.086506  -1.570796 -0.000000 -1.570796
27  15.269911 -21.966835 13.863769  -0.051945 -0.000000 -1.570796
28  -7.028650 0.743399 -8.093216  0.482709 0.061889 3.113822
29  0.000000 13.479276 0.000000  1.005656 -0.000000 0.000000
30  0.000001 13.477238 0.000001  0.082886 0.023781 0.064082
31  0.267268 3.664725 -1.953293  -0.067893 0.086178 0.802666
32  0.000000 1.180354 -0.000000  -0.024201 0.028477 0.843506
33  0.000001 0.817135 -0.000000  0.010446 0.006491 0.658839
34  0.249421 3.688540 -0.940889  -0.032371 0.052975 0.932871
35  0.000000 1.800634 0.000000  0.000732 -0.005308 1.244336
36  0.000000 1.243405 -0.000000  0.004815 -0.004401 0.811274
37  0.244725 3.701093 0.087733  0.001305 -0.005412 1.033087
38  0.000000 1.766583 0.000001  0.004298 0.000584 1.084130
39  -0.000002 1.189005 0.000000  -0.010510 0.014239 0.976837
40  0.277238 3.632246 1.274102  0.185107 -0.010184 0.144732
41  -0.000001 1.798495 -0.000001  0.027685 -0.025810 0.750471
42  0.000002 1.235452 0.000000  -0.008036 -0.002903 0.645088
43  -0.315443 0.857299 0.755944  -0.248767 -2.664688 1.150362
44  0.000002 2.265939 0.000001  -0.039010 0.053923 0.668054
45  0.000001 1.457811 0.000000  -0.054852 0.005358 1.066393
46  1.259679 3.818373 1.286945  0.185107 -0.010184 0.144732
47  1.226389 3.891691 0.090420  0.001305 -0.005412 1.033087
48  1.231622 3.875532 -0.958680  -0.032371 0.052975 0.932871
49  1.209917 3.994780 -2.003047  -0.067893 0.086178 0.802666
50  -0.328908 0.095427 1.403533  -0.248767 -2.664688 1.150362
51  -8.608168 -12.266332 11.556848  1.571384 -0.000022 -3.140390
52  -8.110383 -19.738087 0.179033  -1.570796 -0.000000 1.570796
53  -7.028650 0.743399 -8.093216  -0.051945 0.000000 1.570796
54  -7.342332 -14.436877 -14.289855  1.570208 -0.001203 0.000022
55  -1.855344 6.848201 8.911867  0.643721 -1.614433 -2.214061
56  0.461752 7.791413 26.458834  0.643346 -1.614420 -2.213684
57  0.599219 4.162451 9.540137  -0.024899 -0.027352 -0.026683
time 20
0  0 0 0  0 0 0
1  0.000000 0.000000 0.000000  1.570796 -0.000000 0.000000
2  15.269911 -21.966835 13.863769  0.404882 0.571599 1.430615
3  0.000003 13.479280 0.000000  0.516054 0.000000 -0.000000
4  0.000002 13.477238 -0.000000  -0.568839 -0.212379 0.488715
5  -0.267268 3.664726 -1.953293  -0.096193 -0.052727 -0.400403
6  0.000000 1.180357 0.000001  -0.033422 -0.016719 -0.440925
7  0.000000 0.817134 -0.000001  0.007067 -0.010065 -0.256194
8  -0.249422 3.688541 -0.940891  -0.054966 -0.028860 -0.393964
9  0.000000 1.800635 0.000001  0.004228 0.003292 -0.472103
10  0.000001 1.243407 0.000004  0.006309 0.001661 -0.328230
11  -0.244726 3.701095 0.087731  0.004244 0.003603 -0.402932
12  -0.000000 1.766586 -0.000002  0.003329 -0.002780 -0.523312
13  -0.000000 1.189005 0.000001  -0.016474 -0.006468 -0.416037
14  -0.277239 3.632249 1.274102  0.052687 0.017453 -0.279974
15  0.000002 1.798492 -0.000000  0.034542 0.015473 -0.421260
16  -0.000000 1.235450 -0.000001  -0.006025 0.006058 -0.203611
17  0.315442 0.857301 0.755942  2.109433 0.373269 1.533784
18  -0.000000 2.265936 -0.000001  -0.056797 -0.034690 -0.271734
19  -0.000000 1.457811 0.000003  -0.031121 0.045492 0.001395
20  -1.259680 3.818374 1.286944  0.052687 0.017453 -0.279974
21  -1.226390 3.891692 0.090417  0.004244 0.003603 -0.402932
22  -1.231623 3.875534 -0.958682  -0.054966 -0.028860 -0.393964
23  -1.209919 3.994782 -2.003049  -0.096193 -0.052727 -0.400403
24  0.328906 0.095429 1.403532  2.109432 0.373269 1.533784
25  -3.860201 -10.504416 27.353670  0.440284 0.052363 1.540863
26  -16.870777 -21.834059 7.086506  -1.570796 -0.000000 -1.570796
27  15.269911 -21.966835 13.863769  -0.051945 -0.000000 -1.570796
28  -7.028650 0.743399 -8.093216  0.483663 0.061681 3.113738
29  -0.000001 13.479277 0.000001  1.004753 -0.000000 0.000000
30  -0.000000 13.477238 0.000001  0.082244 0.022688 0.063760
31  0.267269 3.664726 -1.953294  -0.067893 0.086178 0.802666
32  -0.000002 1.180355 -0.000002  -0.024201 0.028477 0.843506
33  0.000001 0.817135 0.000000  0.010446 0.006491 0.658839
34  0.249423 3.688541 -0.940890  -0.032371 0.052975 0.932871
35  0.000000 1.800633 -0.000002  0.000732 -0.005308 1.244337
36  -0.000001 1.243406 -0.000002  0.004815 -0.004401 0.811275
37  0.244726 3.701095 0.087732  0.001305 -0.005412 1.033087
38  -0.000000 1.766584 0.000000  0.004298 0.000584 1.084129
39  0.000000 1.189004 0.000001  -0.010510 0.014239 0.976837
40  0.277239 3.632248 1.274102  0.185107 -0.010184 0.144732
41  -0.000000 1.798495 0.000000  0.027685 -0.025810 0.750471
42  0.000001 1.235451 0.000001  -0.008036 -0.002903 0.645088
43  -0.315442 0.857299 0.755943  -0.248767 -2.664688 1.150362
44  0.000000 2.265939 -0.000001  -0.039010 0.053923 0.668054
45  0.000000 1.457813 0.000000  -0.054852 0.005358 1.066393
46  1.259681 3.818374 1.286945  0.185107 -0.010184 0.144732
47  1.226391 3.891693 0.090418  0.001305 -0.005412 1.033087
48  1.231623 3.875534 -0.958681  -0.032371 0.052975 0.932871
49  1.209919 3.994781 -2.003049  -0.067893 0.086178 0.802666
50  -0.328907 0.095428 1.403532  -0.248767 -2.664688 1.150362
51  -8.605698 -12.259624 11.568533  1.570796 0.000000 -3.141593
52  -8.110383 -19.738087 0.179033  -1.570796 -0.000000 1.570796
53  -7.028650 0.743399 -8.093216  -0.051945 0.000000 1.570796
54  -7.342360 -14.447400 -14.286362  1.570796 -0.000000 0.000000
55  -1.855343 6.848201 8.911866  0.643721 -1.614433 -2.214061
56  0.461752 7.791413 26.458832  0.643346 -1.614420 -2.213684
57  0.599219 4.162452 9.540135  -0.024899 -0.027352 -0.026683
end
