version 1
nodes
0 "blender_implicit" -1
1 "root" -1
2 "upperarm_l" 1
3 "lowerarm_l" 2
4 "hand_l" 3
5 "pinky_0_l" 4
6 "pinky_1_l" 5
7 "pinky_2_l" 6
8 "ring_0_l" 4
9 "ring_1_l" 8
10 "ring_2_l" 9
11 "middle_0_l" 4
12 "middle_1_l" 11
13 "middle_2_l" 12
14 "index_0_l" 4
15 "index_1_l" 14
16 "index_2_l" 15
17 "thumb_0_l" 4
18 "thumb_1_l" 17
19 "thumb_2_l" 18
20 "rig_index_l" 4
21 "rig_middle_l" 4
22 "rig_ring_l" 4
23 "rig_pinky_l" 4
24 "rig_thumb_l" 4
25 "rig_hand_l" 1
26 "rig_l" 1
27 "rig_upperarm_l" 1
28 "upperarm_r" 1
29 "lowerarm_r" 28
30 "hand_r" 29
31 "pinky_0_r" 30
32 "pinky_1_r" 31
33 "pinky_2_r" 32
34 "ring_0_r" 30
35 "ring_1_r" 34
36 "ring_2_r" 35
37 "middle_0_r" 30
38 "middle_1_r" 37
39 "middle_2_r" 38
40 "index_0_r" 30
41 "index_1_r" 40
42 "index_2_r" 41
43 "thumb_0_r" 30
44 "thumb_1_r" 43
45 "thumb_2_r" 44
46 "rig_index_r" 30
47 "rig_middle_r" 30
48 "rig_ring_r" 30
49 "rig_pinky_r" 30
50 "rig_thumb_r" 30
51 "rig_hand_r" 1
52 "rig_r" 1
53 "rig_upperarm_r" 1
54 "bone_pistolGrip" -1
55 "bone_ejectionPort" 54
56 "bone_muzzle" 54
57 "bone_clip" 54
end
skeleton
time 0
0  0 0 0  0 0 0
1  0.000000 0.000000 0.000000  1.570796 -0.000000 0.000000
2  15.269911 -21.966835 13.863769  0.404882 0.571599 1.430615
3  0.000003 13.479280 0.000000  0.516054 0.000000 -0.000000
4  0.000002 13.477238 -0.000000  -0.568839 -0.212379 0.488715
5  -0.267268 3.664726 -1.953293  -0.096193 -0.052727 -0.400403
6  0.000000 1.180357 0.000001  -0.033422 -0.016719 -0.440925
7  0.000000 0.817134 -0.000001  0.007067 -0.010065 -0.256194
8  -0.249422 3.688541 -0.940891  -0.054966 -0.028860 -0.393964
9  0.000000 1.800635 0.000001  0.004228 0.003292 -0.472103
10  0.000001 1.243407 0.000004  0.006309 0.001661 -0.328230
11  -0.244726 3.701095 0.087731  0.004244 0.003603 -0.402932
12  -0.000000 1.766586 -0.000002  0.003329 -0.002780 -0.523312
13  -0.000000 1.189005 0.000001  -0.016474 -0.006468 -0.416037
14  -0.277239 3.632249 1.274102  0.052687 0.017453 -0.279974
15  0.000002 1.798492 -0.000000  0.034542 0.015473 -0.421260
16  -0.000000 1.235450 -0.000001  -0.006025 0.006058 -0.203611
17  0.315442 0.857301 0.755942  2.109433 0.373269 1.533784
18  -0.000000 2.265936 -0.000001  -0.056797 -0.034690 -0.271734
19  -0.000000 1.457811 0.000003  -0.031121 0.045492 0.001395
20  -1.259680 3.818374 1.286944  0.052687 0.017453 -0.279974
21  -1.226390 3.891692 0.090417  0.004244 0.003603 -0.402932
22  -1.231623 3.875534 -0.958682  -0.054966 -0.028860 -0.393964
23  -1.209919 3.994782 -2.003049  -0.096193 -0.052727 -0.400403
24  0.328906 0.095429 1.403532  2.109432 0.373269 1.533784
25  -3.860201 -10.504416 27.353670  0.440284 0.052363 1.540863
26  -16.870777 -21.834059 7.086506  -1.570796 -0.000000 -1.570796
27  15.269911 -21.966835 13.863769  -0.051945 -0.000000 -1.570796
28  -7.028650 0.743399 -8.093216  0.483663 0.061681 3.113738
29  -0.000001 13.479277 0.000001  1.004753 -0.000000 0.000000
30  -0.000000 13.477238 0.000001  0.082244 0.022688 0.063760
31  0.267269 3.664726 -1.953294  -0.067893 0.086178 0.802666
32  -0.000002 1.180355 -0.000002  -0.024201 0.028477 0.843506
33  0.000001 0.817135 0.000000  0.010446 0.006491 0.658839
34  0.249423 3.688541 -0.940890  -0.032371 0.052975 0.932871
35  0.000000 1.800633 -0.000002  0.000732 -0.005308 1.244337
36  -0.000001 1.243406 -0.000002  0.004815 -0.004401 0.811275
37  0.244726 3.701095 0.087732  0.001305 -0.005412 1.033087
38  -0.000000 1.766584 0.000000  0.004298 0.000584 1.084129
39  0.000000 1.189004 0.000001  -0.010510 0.014239 0.976837
40  0.277239 3.632248 1.274102  0.185107 -0.010184 0.144732
41  -0.000000 1.798495 0.000000  0.027685 -0.025810 0.750471
42  0.000001 1.235451 0.000001  -0.008036 -0.002903 0.645088
43  -0.315442 0.857299 0.755943  -0.248767 -2.664688 1.150362
44  0.000000 2.265939 -0.000001  -0.039010 0.053923 0.668054
45  0.000000 1.457813 0.000000  -0.054852 0.005358 1.066393
46  1.259681 3.818374 1.286945  0.185107 -0.010184 0.144732
47  1.226391 3.891693 0.090418  0.001305 -0.005412 1.033087
48  1.231623 3.875534 -0.958681  -0.032371 0.052975 0.932871
49  1.209919 3.994781 -2.003049  -0.067893 0.086178 0.802666
50  -0.328907 0.095428 1.403532  -0.248767 -2.664688 1.150362
51  -8.605698 -12.259624 11.568533  1.570796 0.000000 -3.141593
52  -8.110383 -19.738087 0.179033  -1.570796 -0.000000 1.570796
53  -7.028650 0.743399 -8.093216  -0.051945 0.000000 1.570796
54  -7.342360 -14.447400 -14.286362  1.570796 -0.000000 0.000000
55  -1.855343 6.848201 8.911866  0.643721 -1.614433 -2.214061
56  0.461752 7.791413 26.458832  0.643346 -1.614420 -2.213684
57  0.599219 4.162452 9.540135  -0.024899 -0.027352 -0.026683
time 1
0  0 0 0  0 0 0
1  0.000000 0.000000 0.000000  1.570796 -0.000000 0.000000
2  15.269911 -21.966835 13.863769  0.020774 0.760628 1.364629
3  -0.000001 13.479278 0.000002  0.952900 0.000000 -0.000000
4  -0.000002 13.477238 -0.000000  -0.673887 -0.232122 0.627049
5  -0.267269 3.664726 -1.953291  -0.096194 -0.052727 -0.400403
6  0.000001 1.180355 0.000003  -0.033422 -0.016719 -0.440925
7  -0.000000 0.817135 0.000001  0.007067 -0.010065 -0.256194
8  -0.249422 3.688540 -0.940891  -0.054966 -0.028860 -0.393964
9  -0.000001 1.800634 0.000003  0.004228 0.003292 -0.472103
10  0.000000 1.243406 0.000001  0.006309 0.001661 -0.328230
11  -0.244727 3.701095 0.087735  0.004244 0.003603 -0.402932
12  0.000000 1.766584 -0.000000  0.003329 -0.002780 -0.523312
13  0.000001 1.189003 -0.000001  -0.016474 -0.006468 -0.416037
14  -0.277239 3.632246 1.274102  0.052687 0.017453 -0.279974
15  0.000001 1.798494 0.000001  0.034542 0.015473 -0.421259
16  -0.000001 1.235451 -0.000002  -0.006025 0.006058 -0.203611
17  0.315441 0.857299 0.755946  2.109432 0.373269 1.533784
18  -0.000000 2.265938 0.000003  -0.056797 -0.034690 -0.271734
19  -0.000000 1.457811 0.000003  -0.031121 0.045492 0.001395
20  -1.259681 3.818374 1.286947  0.052687 0.017453 -0.279974
21  -1.226390 3.891693 0.090421  0.004244 0.003603 -0.402932
22  -1.231623 3.875534 -0.958680  -0.054966 -0.028860 -0.393964
23  -1.209919 3.994780 -2.003047  -0.096194 -0.052727 -0.400403
24  0.328906 0.095427 1.403533  2.109432 0.373269 1.533784
25  -3.725379 -9.947956 22.139763  0.434029 0.107699 1.496603
26  -16.870777 -21.834059 7.086506  -1.570796 -0.000000 -1.570796
27  15.269911 -21.966835 13.863769  -0.051945 -0.000000 -1.570796
28  -7.028650 0.743399 -8.093216  0.083837 0.084991 3.123195
29  -0.000000 13.479277 -0.000001  1.508684 -0.000000 0.000000
30  -0.000002 13.477240 -0.000000  0.033954 -0.023484 0.080955
31  0.267269 3.664726 -1.953292  -0.067893 0.086178 0.802666
32  0.000000 1.180355 -0.000000  -0.024201 0.028477 0.843506
33  -0.000001 0.817135 -0.000002  0.010446 0.006491 0.658839
34  0.249423 3.688541 -0.940889  -0.032371 0.052975 0.932871
35  0.000000 1.800634 0.000000  0.000732 -0.005308 1.244337
36  -0.000001 1.243407 -0.000000  0.004815 -0.004401 0.811274
37  0.244726 3.701096 0.087734  0.001305 -0.005412 1.033087
38  -0.000002 1.766584 0.000001  0.004298 0.000584 1.084130
39  -0.000000 1.189005 -0.000000  -0.010510 0.014239 0.976837
40  0.277240 3.632248 1.274103  0.185107 -0.010184 0.144732
41  0.000001 1.798495 0.000001  0.027685 -0.025810 0.750471
42  0.000000 1.235452 0.000001  -0.008036 -0.002903 0.645088
43  -0.315442 0.857300 0.755944  -0.248767 -2.664688 1.150362
44  -0.000001 2.265939 0.000000  -0.039010 0.053923 0.668054
45  0.000000 1.457811 0.000000  -0.054852 0.005358 1.066393
46  1.259681 3.818374 1.286946  0.185107 -0.010184 0.144732
47  1.226390 3.891693 0.090419  0.001305 -0.005412 1.033087
48  1.231623 3.875534 -0.958680  -0.032371 0.052975 0.932871
49  1.209919 3.994782 -2.003047  -0.067893 0.086178 0.802666
50  -0.328905 0.095428 1.403533  -0.248767 -2.664688 1.150362
51  -8.509567 -12.369703 6.454808  -1.515297 3.137031 -0.043633
52  -8.110383 -19.738087 0.179033  -1.570796 -0.000000 1.570796
53  -7.028650 0.743399 -8.093216  -0.051945 0.000000 1.570796
54  -7.342360 -9.447400 -14.286362  1.515098 0.043633 -0.004566
55  -1.855342 6.848200 8.911866  0.643721 -1.614433 -2.214061
56  0.461752 7.791412 26.458832  0.643346 -1.614420 -2.213684
57  0.599219 4.162451 9.540136  -0.024899 -0.027352 -0.026683
time 2
0  0 0 0  0 0 0
1  0.000000 0.000000 0.000000  1.570796 -0.000000 0.000000
2  15.269911 -21.966835 13.863769  0.145814 0.719994 1.380658
3  0.000002 13.479278 -0.000001  0.819709 0.000000 -0.000000
4  -0.000000 13.477241 -0.000000  -0.646065 -0.213949 0.556441
5  -0.267267 3.664728 -1.953291  -0.096194 -0.052727 -0.400403
6  -0.000001 1.180356 -0.000000  -0.033423 -0.016719 -0.440925
7  0.000001 0.817134 0.000001  0.007067 -0.010065 -0.256194
8  -0.249421 3.688542 -0.940890  -0.054966 -0.028860 -0.393964
9  0.000001 1.800633 -0.000003  0.004228 0.003292 -0.472103
10  0.000001 1.243405 0.000001  0.006309 0.001661 -0.328230
11  -0.244724 3.701097 0.087735  0.004244 0.003603 -0.402932
12  0.000001 1.766585 -0.000001  0.003329 -0.002780 -0.523312
13  0.000000 1.189004 -0.000003  -0.016474 -0.006468 -0.416037
14  -0.277238 3.632248 1.274103  0.052686 0.017453 -0.279974
15  0.000001 1.798494 -0.000001  0.034542 0.015473 -0.421260
16  0.000000 1.235453 -0.000001  -0.006025 0.006058 -0.203611
17  0.315443 0.857300 0.755944  2.109433 0.373269 1.533785
18  0.000000 2.265941 -0.000001  -0.056797 -0.034690 -0.271734
19  -0.000000 1.457811 0.000001  -0.031121 0.045492 0.001395
20  -1.259680 3.818375 1.286945  0.052687 0.017453 -0.279974
21  -1.226389 3.891695 0.090420  0.004244 0.003603 -0.402932
22  -1.231622 3.875535 -0.958681  -0.054966 -0.028860 -0.393964
23  -1.209918 3.994783 -2.003047  -0.096194 -0.052727 -0.400403
24  0.328908 0.095429 1.403533  2.109432 0.373269 1.533784
25  -3.730463 -9.553128 23.668159  0.433139 0.137657 1.501154
26  -16.870777 -21.834059 7.086506  -1.570796 -0.000000 -1.570796
27  15.269911 -21.966835 13.863769  -0.051945 -0.000000 -1.570796
28  -7.028650 0.743399 -8.093216  0.203923 0.073350 3.118468
29  -0.000001 13.479277 -0.000000  1.363867 -0.000000 0.000000
30  0.000000 13.477238 0.000002  0.088542 -0.015919 0.068776
31  0.267269 3.664726 -1.953291  -0.067893 0.086178 0.802666
32  0.000002 1.180354 0.000000  -0.024201 0.028477 0.843506
33  0.000002 0.817135 0.000000  0.010446 0.006491 0.658839
34  0.249423 3.688541 -0.940888  -0.032371 0.052975 0.932871
35  -0.000001 1.800634 0.000000  0.000732 -0.005308 1.244337
36  0.000001 1.243407 0.000000  0.004815 -0.004401 0.811274
37  0.244726 3.701095 0.087734  0.001305 -0.005412 1.033087
38  -0.000000 1.766585 -0.000001  0.004298 0.000584 1.084130
39  0.000000 1.189004 0.000000  -0.010510 0.014239 0.976837
40  0.277239 3.632248 1.274102  0.185107 -0.010184 0.144732
41  0.000001 1.798495 -0.000001  0.027685 -0.025810 0.750471
42  0.000001 1.235451 0.000002  -0.008036 -0.002903 0.645088
43  -0.315443 0.857299 0.755943  -0.248767 -2.664688 1.150362
44  0.000001 2.265940 0.000000  -0.039010 0.053923 0.668054
45  0.000000 1.457811 0.000001  -0.054852 0.005358 1.066393
46  1.259681 3.818374 1.286947  0.185107 -0.010184 0.144732
47  1.226391 3.891693 0.090420  0.001305 -0.005412 1.033087
48  1.231623 3.875534 -0.958680  -0.032371 0.052975 0.932871
49  1.209919 3.994782 -2.003048  -0.067893 0.086178 0.802666
50  -0.328906 0.095428 1.403534  -0.248767 -2.664688 1.150362
51  -8.522116 -12.465602 8.069162  -1.485325 3.137067 -0.038837
52  -8.110383 -19.738087 0.179033  -1.570796 -0.000000 1.570796
53  -7.028650 0.743399 -8.093216  -0.051945 0.000000 1.570796
54  -7.342360 -11.116222 -14.286362  1.485150 0.038837 -0.004529
55  -1.855342 6.848202 8.911867  0.643721 -1.614433 -2.214060
56  0.461753 7.791415 26.458832  0.643346 -1.614420 -2.213684
57  0.599220 4.162452 9.540137  -0.024899 -0.027352 -0.026683
time 3
0  0 0 0  0 0 0
1  0.000000 0.000000 0.000000  1.570796 -0.000000 0.000000
2  15.269911 -21.966835 13.863769  0.299461 0.650972 1.405346
3  0.000003 13.479277 -0.000000  0.640592 -0.000000 -0.000000
4  -0.000001 13.477240 0.000001  -0.601710 -0.208654 0.495127
5  -0.267270 3.664726 -1.953292  -0.096194 -0.052727 -0.400403
6  0.000000 1.180356 0.000001  -0.033422 -0.016719 -0.440925
7  0.000000 0.817136 0.000005  0.007067 -0.010065 -0.256194
8  -0.249423 3.688541 -0.940890  -0.054966 -0.028860 -0.393964
9  -0.000001 1.800636 0.000000  0.004228 0.003292 -0.472103
10  0.000001 1.243406 0.000001  0.006309 0.001661 -0.328230
11  -0.244728 3.701095 0.087733  0.004244 0.003603 -0.402932
12  -0.000000 1.766585 -0.000001  0.003329 -0.002780 -0.523312
13  -0.000003 1.189002 0.000002  -0.016474 -0.006468 -0.416038
14  -0.277240 3.632248 1.274103  0.052687 0.017453 -0.279974
15  0.000000 1.798493 0.000001  0.034542 0.015472 -0.421259
16  0.000000 1.235451 -0.000004  -0.006025 0.006058 -0.203611
17  0.315440 0.857300 0.755944  2.109433 0.373269 1.533785
18  -0.000000 2.265942 0.000000  -0.056797 -0.034690 -0.271734
19  0.000000 1.457813 0.000003  -0.031121 0.045492 0.001395
20  -1.259682 3.818375 1.286946  0.052687 0.017453 -0.279974
21  -1.226393 3.891693 0.090419  0.004244 0.003603 -0.402932
22  -1.231624 3.875535 -0.958680  -0.054966 -0.028860 -0.393964
23  -1.209921 3.994781 -2.003047  -0.096194 -0.052727 -0.400403
24  0.328905 0.095429 1.403533  2.109433 0.373269 1.533784
25  -3.789968 -9.654808 25.685131  0.433627 0.126153 1.513260
26  -16.870777 -21.834059 7.086506  -1.570796 -0.000000 -1.570796
27  15.269911 -21.966835 13.863769  -0.051945 -0.000000 -1.570796
28  -7.028650 0.743399 -8.093216  0.357671 0.063720 3.114564
29  0.000000 13.479276 0.000000  1.168693 -0.000000 0.000000
30  -0.000000 13.477240 0.000000  0.118310 -0.002452 0.059274
31  0.267269 3.664726 -1.953292  -0.067893 0.086178 0.802666
32  0.000002 1.180354 -0.000000  -0.024201 0.028477 0.843506
33  -0.000000 0.817135 0.000001  0.010446 0.006491 0.658838
34  0.249423 3.688540 -0.940888  -0.032371 0.052975 0.932871
35  -0.000001 1.800633 0.000001  0.000732 -0.005308 1.244336
36  -0.000001 1.243406 -0.000000  0.004815 -0.004401 0.811274
37  0.244725 3.701096 0.087733  0.001305 -0.005412 1.033087
38  0.000001 1.766585 0.000000  0.004298 0.000584 1.084130
39  -0.000001 1.189003 0.000002  -0.010510 0.014239 0.976837
40  0.277239 3.632248 1.274103  0.185107 -0.010184 0.144732
41  0.000001 1.798494 0.000000  0.027685 -0.025810 0.750471
42  0.000000 1.235451 -0.000000  -0.008036 -0.002903 0.645088
43  -0.315441 0.857300 0.755944  -0.248767 -2.664688 1.150362
44  -0.000002 2.265939 0.000001  -0.039010 0.053923 0.668054
45  -0.000000 1.457810 -0.000001  -0.054852 0.005358 1.066392
46  1.259682 3.818375 1.286947  0.185107 -0.010184 0.144732
47  1.226390 3.891692 0.090420  0.001305 -0.005412 1.033087
48  1.231622 3.875534 -0.958680  -0.032371 0.052975 0.932871
49  1.209919 3.994781 -2.003046  -0.067893 0.086178 0.802666
50  -0.328906 0.095428 1.403533  -0.248767 -2.664688 1.150362
51  -8.543413 -12.444977 10.052126  -1.496839 3.137197 -0.026847
52  -8.110383 -19.738087 0.179033  -1.570796 -0.000000 1.570796
53  -7.028650 0.743399 -8.093216  -0.051945 0.000000 1.570796
54  -7.342360 -13.078402 -14.286362  1.496721 0.026847 -0.004397
55  -1.855343 6.848200 8.911864  0.643721 -1.614433 -2.214061
56  0.461752 7.791412 26.458836  0.643346 -1.614420 -2.213684
57  0.599218 4.162452 9.540136  -0.024899 -0.027352 -0.026683
time 4
0  0 0 0  0 0 0
1  0.000000 0.000000 0.000000  1.570796 -0.000000 0.000000
2  15.269911 -21.966835 13.863769  0.341406 0.621042 1.415220
3  0.000001 13.479280 0.000001  0.587967 0.000000 -0.000000
4  -0.000000 13.477240 0.000000  -0.588645 -0.207146 0.494432
5  -0.267269 3.664726 -1.953296  -0.096194 -0.052727 -0.400403
6  0.000001 1.180356 -0.000004  -0.033422 -0.016719 -0.440925
7  -0.000001 0.817134 -0.000000  0.007067 -0.010065 -0.256194
8  -0.249422 3.688542 -0.940890  -0.054966 -0.028860 -0.393964
9  0.000000 1.800633 -0.000002  0.004228 0.003292 -0.472103
10  0.000001 1.243404 0.000000  0.006309 0.001661 -0.328230
11  -0.244726 3.701096 0.087732  0.004244 0.003603 -0.402932
12  0.000000 1.766583 0.000002  0.003329 -0.002780 -0.523312
13  0.000001 1.189005 -0.000003  -0.016474 -0.006468 -0.416037
14  -0.277239 3.632248 1.274100  0.052686 0.017453 -0.279974
15  0.000000 1.798497 0.000002  0.034542 0.015473 -0.421260
16  0.000001 1.235451 0.000000  -0.006025 0.006058 -0.203611
17  0.315441 0.857301 0.755943  2.109432 0.373269 1.533784
18  -0.000000 2.265940 -0.000001  -0.056797 -0.034690 -0.271734
19  0.000000 1.457810 -0.000001  -0.031121 0.045492 0.001395
20  -1.259681 3.818375 1.286942  0.052687 0.017453 -0.279974
21  -1.226390 3.891693 0.090417  0.004244 0.003603 -0.402932
22  -1.231623 3.875534 -0.958683  -0.054966 -0.028860 -0.393963
23  -1.209919 3.994782 -2.003050  -0.096194 -0.052727 -0.400403
24  0.328906 0.095429 1.403530  2.109432 0.373269 1.533784
25  -3.863787 -9.947466 26.316111  0.434729 0.098717 1.529088
26  -16.870777 -21.834059 7.086506  -1.570796 -0.000000 -1.570796
27  15.269911 -21.966835 13.863769  -0.051945 -0.000000 -1.570796
28  -7.028650 0.743399 -8.093216  0.403010 0.063327 3.114405
29  -0.000001 13.479277 0.000000  1.111117 -0.000000 0.000000
30  0.000001 13.477239 -0.000001  0.103009 0.012552 0.059993
31  0.267269 3.664725 -1.953294  -0.067893 0.086178 0.802666
32  -0.000001 1.180356 -0.000000  -0.024201 0.028477 0.843506
33  0.000000 0.817136 0.000001  0.010446 0.006491 0.658839
34  0.249422 3.688541 -0.940890  -0.032371 0.052975 0.932871
35  -0.000001 1.800633 0.000001  0.000732 -0.005308 1.244336
36  0.000000 1.243406 0.000001  0.004815 -0.004401 0.811274
37  0.244726 3.701096 0.087732  0.001305 -0.005412 1.033087
38  -0.000001 1.766585 0.000001  0.004298 0.000584 1.084130
39  0.000001 1.189003 -0.000000  -0.010510 0.014239 0.976837
40  0.277239 3.632248 1.274102  0.185107 -0.010184 0.144732
41  -0.000001 1.798495 -0.000000  0.027685 -0.025810 0.750471
42  0.000000 1.235452 -0.000001  -0.008036 -0.002903 0.645088
43  -0.315441 0.857300 0.755943  -0.248767 -2.664688 1.150363
44  -0.000003 2.265939 0.000000  -0.039010 0.053923 0.668054
45  0.000000 1.457812 0.000000  -0.054852 0.005358 1.066393
46  1.259681 3.818374 1.286944  0.185107 -0.010184 0.144732
47  1.226390 3.891694 0.090418  0.001305 -0.005412 1.033087
48  1.231623 3.875533 -0.958680  -0.032371 0.052975 0.932871
49  1.209919 3.994782 -2.003050  -0.067893 0.086178 0.802666
50  -0.328907 0.095429 1.403532  -0.248767 -2.664688 1.150362
51  -8.572027 -12.381669 10.610121  -1.524296 3.137454 -0.011259
52  -8.110383 -19.738087 0.179033  -1.570796 -0.000000 1.570796
53  -7.028650 0.743399 -8.093216  -0.051945 0.000000 1.570796
54  -7.342360 -13.585290 -14.286362  1.524249 0.011259 -0.004139
55  -1.855343 6.848201 8.911867  0.643722 -1.614433 -2.214061
56  0.461752 7.791414 26.458830  0.643346 -1.614420 -2.213684
57  0.599218 4.162451 9.540134  -0.024899 -0.027352 -0.026683
time 5
0  0 0 0  0 0 0
1  0.000000 0.000000 0.000000  1.570796 -0.000000 0.000000
2  15.269911 -21.966835 13.863769  0.368783 0.592808 1.424141
3  0.000004 13.479279 0.000000  0.555405 -0.000000 -0.000000
4  0.000002 13.477239 -0.000000  -0.581477 -0.205979 0.501397
5  -0.267272 3.664725 -1.953294  -0.096194 -0.052727 -0.400403
6  0.000001 1.180355 -0.000002  -0.033422 -0.016719 -0.440925
7  0.000000 0.817135 0.000000  0.007067 -0.010065 -0.256194
8  -0.249424 3.688540 -0.940889  -0.054966 -0.028860 -0.393964
9  0.000001 1.800633 -0.000004  0.004228 0.003292 -0.472103
10  -0.000000 1.243406 -0.000001  0.006309 0.001661 -0.328231
11  -0.244728 3.701095 0.087732  0.004244 0.003603 -0.402932
12  0.000000 1.766583 -0.000002  0.003329 -0.002780 -0.523312
13  0.000000 1.189004 -0.000001  -0.016474 -0.006468 -0.416037
14  -0.277241 3.632248 1.274102  0.052686 0.017453 -0.279974
15  -0.000001 1.798494 -0.000002  0.034542 0.015472 -0.421260
16  0.000001 1.235449 0.000000  -0.006025 0.006058 -0.203611
17  0.315441 0.857299 0.755943  2.109432 0.373269 1.533784
18  -0.000000 2.265937 -0.000000  -0.056797 -0.034690 -0.271734
19  0.000000 1.457811 -0.000002  -0.031121 0.045492 0.001395
20  -1.259682 3.818373 1.286945  0.052687 0.017453 -0.279974
21  -1.226392 3.891692 0.090419  0.004244 0.003603 -0.402931
22  -1.231624 3.875534 -0.958680  -0.054966 -0.028860 -0.393964
23  -1.209920 3.994780 -2.003048  -0.096194 -0.052727 -0.400403
24  0.328905 0.095427 1.403531  2.109432 0.373269 1.533784
25  -3.925250 -10.312751 26.814501  0.436142 0.065974 1.544920
26  -16.870777 -21.834059 7.086506  -1.570796 -0.000000 -1.570796
27  15.269911 -21.966835 13.863769  -0.051945 -0.000000 -1.570796
28  -7.028650 0.743399 -8.093216  0.438426 0.063788 3.114592
29  0.000001 13.479276 -0.000000  1.066882 -0.000000 0.000000
30  0.000001 13.477239 -0.000000  0.079008 0.027334 0.061981
31  0.267270 3.664726 -1.953293  -0.067893 0.086178 0.802666
32  0.000001 1.180354 0.000001  -0.024201 0.028477 0.843506
33  0.000000 0.817134 0.000002  0.010446 0.006491 0.658839
34  0.249423 3.688541 -0.940890  -0.032371 0.052975 0.932871
35  -0.000000 1.800634 -0.000000  0.000732 -0.005308 1.244337
36  -0.000000 1.243405 -0.000001  0.004815 -0.004401 0.811275
37  0.244726 3.701096 0.087731  0.001305 -0.005412 1.033087
38  -0.000001 1.766584 0.000001  0.004298 0.000584 1.084130
39  -0.000002 1.189003 -0.000001  -0.010510 0.014239 0.976837
40  0.277239 3.632247 1.274102  0.185107 -0.010184 0.144732
41  0.000001 1.798495 0.000001  0.027685 -0.025810 0.750471
42  0.000001 1.235450 -0.000000  -0.008036 -0.002903 0.645088
43  -0.315441 0.857299 0.755942  -0.248767 -2.664688 1.150363
44  -0.000000 2.265938 0.000000  -0.039010 0.053923 0.668054
45  -0.000001 1.457810 -0.000000  -0.054852 0.005358 1.066393
46  1.259682 3.818375 1.286945  0.185107 -0.010184 0.144732
47  1.226390 3.891692 0.090419  0.001305 -0.005412 1.033087
48  1.231623 3.875534 -0.958681  -0.032371 0.052975 0.932871
49  1.209920 3.994781 -2.003048  -0.067893 0.086178 0.802666
50  -0.328906 0.095428 1.403532  -0.248767 -2.664688 1.150362
51  -8.603455 -12.304778 11.037388  -1.557066 3.137869 0.004328
52  -8.110383 -19.738087 0.179033  -1.570796 -0.000000 1.570796
53  -7.028650 0.743399 -8.093216  -0.051945 0.000000 1.570796
54  -7.342360 -13.948494 -14.286362  1.557083 -0.004328 -0.003724
55  -1.855344 6.848200 8.911863  0.643721 -1.614433 -2.214060
56  0.461752 7.791413 26.458832  0.643346 -1.614420 -2.213684
57  0.599219 4.162451 9.540137  -0.024899 -0.027352 -0.026683
time 6
0  0 0 0  0 0 0
1  0.000000 0.000000 0.000000  1.570796 -0.000000 0.000000
2  15.269911 -21.966835 13.863769  0.384548 0.571207 1.430733
3  0.000001 13.479279 -0.000001  0.538669 -0.000000 -0.000000
4  -0.000002 13.477238 0.000000  -0.578492 -0.204754 0.509485
5  -0.267270 3.664726 -1.953293  -0.096194 -0.052727 -0.400403
6  -0.000002 1.180355 -0.000001  -0.033422 -0.016719 -0.440925
7  0.000001 0.817136 0.000001  0.007067 -0.010065 -0.256194
8  -0.249423 3.688540 -0.940889  -0.054966 -0.028860 -0.393964
9  0.000003 1.800632 0.000002  0.004228 0.003292 -0.472103
10  -0.000001 1.243407 -0.000001  0.006309 0.001661 -0.328230
11  -0.244726 3.701096 0.087734  0.004244 0.003603 -0.402932
12  -0.000001 1.766584 0.000002  0.003329 -0.002780 -0.523312
13  0.000001 1.189004 0.000000  -0.016474 -0.006468 -0.416037
14  -0.277239 3.632247 1.274103  0.052687 0.017453 -0.279974
15  -0.000000 1.798494 0.000001  0.034542 0.015472 -0.421260
16  0.000000 1.235451 0.000001  -0.006025 0.006058 -0.203611
17  0.315442 0.857300 0.755945  2.109432 0.373269 1.533784
18  0.000000 2.265938 0.000000  -0.056797 -0.034690 -0.271734
19  0.000000 1.457811 -0.000001  -0.031121 0.045492 0.001395
20  -1.259682 3.818374 1.286946  0.052687 0.017453 -0.279974
21  -1.226390 3.891692 0.090420  0.004244 0.003603 -0.402932
22  -1.231623 3.875534 -0.958679  -0.054966 -0.028860 -0.393964
23  -1.209919 3.994781 -2.003047  -0.096194 -0.052727 -0.400403
24  0.328907 0.095428 1.403533  2.109432 0.373269 1.533784
25  -3.959882 -10.626246 27.159718  0.437577 0.038549 1.557080
26  -16.870777 -21.834059 7.086506  -1.570796 -0.000000 -1.570796
27  15.269911 -21.966835 13.863769  -0.051945 -0.000000 -1.570796
28  -7.028650 0.743399 -8.093216  0.463733 0.064452 3.114861
29  -0.000000 13.479277 0.000000  1.035231 -0.000000 0.000000
30  0.000001 13.477240 0.000001  0.057889 0.038540 0.064259
31  0.267270 3.664726 -1.953292  -0.067893 0.086178 0.802666
32  0.000002 1.180355 0.000000  -0.024201 0.028477 0.843506
33  0.000000 0.817135 -0.000000  0.010446 0.006491 0.658839
34  0.249424 3.688541 -0.940887  -0.032371 0.052975 0.932871
35  -0.000002 1.800631 0.000001  0.000732 -0.005308 1.244337
36  -0.000001 1.243408 0.000000  0.004815 -0.004401 0.811274
37  0.244727 3.701096 0.087734  0.001305 -0.005412 1.033087
38  0.000000 1.766584 -0.000001  0.004298 0.000584 1.084130
39  0.000001 1.189003 0.000001  -0.010510 0.014239 0.976837
40  0.277240 3.632248 1.274103  0.185107 -0.010184 0.144732
41  0.000001 1.798495 -0.000000  0.027685 -0.025810 0.750471
42  -0.000002 1.235451 -0.000000  -0.008036 -0.002903 0.645088
43  -0.315441 0.857300 0.755945  -0.248767 -2.664688 1.150363
44  -0.000001 2.265939 0.000001  -0.039010 0.053923 0.668054
45  0.000000 1.457812 -0.000001  -0.054852 0.005358 1.066393
46  1.259681 3.818375 1.286947  0.185107 -0.010184 0.144732
47  1.226391 3.891692 0.090421  0.001305 -0.005412 1.033087
48  1.231623 3.875534 -0.958679  -0.032371 0.052975 0.932871
49  1.209919 3.994782 -2.003047  -0.067893 0.086178 0.802666
50  -0.328906 0.095429 1.403533  -0.248767 -2.664688 1.150362
51  -8.630350 -12.241043 11.337259  1.557070 0.003118 -3.125274
52  -8.110383 -19.738087 0.179033  -1.570796 -0.000000 1.570796
53  -7.028650 0.743399 -8.093216  -0.051945 0.000000 1.570796
54  -7.342360 -14.191960 -14.286362  1.584574 -0.016318 -0.003118
55  -1.855342 6.848201 8.911865  0.643721 -1.614433 -2.214060
56  0.461753 7.791413 26.458834  0.643346 -1.614420 -2.213684
57  0.599220 4.162451 9.540134  -0.024899 -0.027352 -0.026683
time 7
0  0 0 0  0 0 0
1  0.000000 0.000000 0.000000  1.570796 -0.000000 0.000000
2  15.269911 -21.966835 13.863769  0.394792 0.561183 1.433727
3  0.000001 13.479279 -0.000000  0.527295 -0.000000 -0.000000
4  -0.000001 13.477240 0.000001  -0.575580 -0.204495 0.511649
5  -0.267270 3.664727 -1.953291  -0.096194 -0.052727 -0.400403
6  -0.000002 1.180355 0.000002  -0.033422 -0.016719 -0.440925
7  0.000000 0.817134 0.000000  0.007067 -0.010065 -0.256194
8  -0.249423 3.688542 -0.940886  -0.054966 -0.028860 -0.393964
9  -0.000001 1.800632 -0.000000  0.004228 0.003292 -0.472103
10  -0.000001 1.243407 -0.000005  0.006309 0.001661 -0.328230
11  -0.244726 3.701096 0.087733  0.004244 0.003603 -0.402932
12  -0.000000 1.766584 -0.000001  0.003329 -0.002780 -0.523312
13  0.000000 1.189002 0.000001  -0.016474 -0.006468 -0.416037
14  -0.277240 3.632247 1.274103  0.052687 0.017453 -0.279974
15  0.000001 1.798493 -0.000003  0.034542 0.015473 -0.421259
16  0.000000 1.235452 -0.000001  -0.006025 0.006058 -0.203611
17  0.315441 0.857300 0.755944  2.109433 0.373269 1.533784
18  0.000001 2.265941 0.000000  -0.056797 -0.034690 -0.271734
19  0.000000 1.457809 -0.000002  -0.031121 0.045492 0.001395
20  -1.259682 3.818375 1.286948  0.052687 0.017453 -0.279974
21  -1.226391 3.891693 0.090421  0.004244 0.003603 -0.402932
22  -1.231622 3.875535 -0.958678  -0.054966 -0.028860 -0.393964
23  -1.209919 3.994781 -2.003048  -0.096194 -0.052727 -0.400403
24  0.328906 0.095429 1.403535  2.109432 0.373269 1.533784
25  -3.963661 -10.759228 27.345179  0.438752 0.027065 1.561945
26  -16.870777 -21.834059 7.086506  -1.570796 -0.000000 -1.570796
27  15.269911 -21.966835 13.863769  -0.051945 -0.000000 -1.570796
28  -7.028650 0.743399 -8.093216  0.478548 0.064623 3.114930
29  0.000001 13.479275 0.000000  1.015624 -0.000000 0.000000
30  0.000001 13.477239 0.000001  0.051196 0.042869 0.065802
31  0.267269 3.664727 -1.953293  -0.067893 0.086178 0.802666
32  0.000001 1.180356 -0.000001  -0.024201 0.028477 0.843506
33  0.000001 0.817135 0.000002  0.010446 0.006491 0.658839
34  0.249423 3.688541 -0.940889  -0.032371 0.052975 0.932871
35  -0.000001 1.800634 -0.000000  0.000732 -0.005308 1.244337
36  -0.000001 1.243406 0.000000  0.004815 -0.004401 0.811274
37  0.244726 3.701095 0.087733  0.001305 -0.005412 1.033087
38  -0.000001 1.766584 0.000000  0.004298 0.000584 1.084130
39  -0.000001 1.189004 0.000001  -0.010510 0.014239 0.976837
40  0.277239 3.632247 1.274102  0.185107 -0.010184 0.144732
41  0.000000 1.798493 0.000001  0.027685 -0.025810 0.750471
42  0.000001 1.235451 0.000001  -0.008036 -0.002903 0.645088
43  -0.315441 0.857300 0.755944  -0.248767 -2.664688 1.150362
44  -0.000001 2.265940 0.000000  -0.039010 0.053923 0.668054
45  -0.000000 1.457811 -0.000001  -0.054852 0.005358 1.066392
46  1.259681 3.818374 1.286946  0.185107 -0.010184 0.144732
47  1.226390 3.891694 0.090419  0.001305 -0.005412 1.033087
48  1.231623 3.875534 -0.958680  -0.032371 0.052975 0.932871
49  1.209919 3.994782 -2.003047  -0.067893 0.086178 0.802666
50  -0.328907 0.095429 1.403532  -0.248767 -2.664688 1.150362
51  -8.643257 -12.214619 11.509953  1.545556 0.002288 -3.120478
52  -8.110383 -19.738087 0.179033  -1.570796 -0.000000 1.570796
53  -7.028650 0.743399 -8.093216  -0.051945 0.000000 1.570796
54  -7.342360 -14.339636 -14.286362  1.596085 -0.021114 -0.002288
55  -1.855343 6.848202 8.911866  0.643721 -1.614433 -2.214061
56  0.461752 7.791414 26.458832  0.643346 -1.614420 -2.213685
57  0.599219 4.162453 9.540135  -0.024899 -0.027352 -0.026683
time 8
0  0 0 0  0 0 0
1  0.000000 0.000000 0.000000  1.570796 -0.000000 0.000000
2  15.269911 -21.966835 13.863769  0.401964 0.562751 1.433261
3  0.000002 13.479279 0.000000  0.518288 -0.000000 -0.000000
4  -0.000001 13.477239 -0.000001  -0.571727 -0.206972 0.504263
5  -0.267268 3.664726 -1.953295  -0.096194 -0.052727 -0.400403
6  0.000001 1.180353 0.000002  -0.033422 -0.016719 -0.440925
7  0.000000 0.817134 -0.000001  0.007067 -0.010065 -0.256194
8  -0.249421 3.688541 -0.940890  -0.054966 -0.028860 -0.393964
9  -0.000001 1.800634 -0.000001  0.004228 0.003292 -0.472103
10  -0.000001 1.243408 -0.000001  0.006309 0.001661 -0.328230
11  -0.244725 3.701096 0.087733  0.004244 0.003603 -0.402932
12  -0.000002 1.766586 -0.000001  0.003329 -0.002780 -0.523312
13  -0.000002 1.189003 0.000001  -0.016474 -0.006468 -0.416038
14  -0.277239 3.632248 1.274102  0.052687 0.017453 -0.279974
15  0.000001 1.798494 -0.000000  0.034542 0.015473 -0.421260
16  0.000000 1.235452 0.000001  -0.006025 0.006058 -0.203611
17  0.315442 0.857299 0.755942  2.109432 0.373269 1.533784
18  -0.000000 2.265943 -0.000002  -0.056797 -0.034690 -0.271734
19  0.000000 1.457811 0.000001  -0.031121 0.045492 0.001395
20  -1.259681 3.818375 1.286945  0.052687 0.017453 -0.279974
21  -1.226390 3.891693 0.090419  0.004244 0.003603 -0.402932
22  -1.231622 3.875534 -0.958681  -0.054966 -0.028860 -0.393964
23  -1.209919 3.994782 -2.003049  -0.096194 -0.052727 -0.400403
24  0.328906 0.095428 1.403530  2.109432 0.373269 1.533784
25  -3.932489 -10.692599 27.394608  0.439572 0.033636 1.556485
26  -16.870777 -21.834059 7.086506  -1.570796 -0.000000 -1.570796
27  15.269911 -21.966835 13.863769  -0.051945 -0.000000 -1.570796
28  -7.028650 0.743399 -8.093216  0.484070 0.063711 3.114561
29  -0.000000 13.479276 -0.000001  1.006666 -0.000000 0.000000
30  0.000001 13.477239 0.000000  0.061209 0.037546 0.065646
31  0.267269 3.664726 -1.953292  -0.067893 0.086178 0.802666
32  0.000001 1.180356 -0.000001  -0.024201 0.028477 0.843506
33  -0.000002 0.817136 0.000001  0.010446 0.006491 0.658839
34  0.249423 3.688541 -0.940888  -0.032371 0.052975 0.932871
35  0.000000 1.800635 0.000001  0.000732 -0.005308 1.244337
36  -0.000000 1.243406 0.000001  0.004815 -0.004401 0.811275
37  0.244727 3.701095 0.087733  0.001305 -0.005412 1.033087
38  -0.000001 1.766585 -0.000000  0.004298 0.000584 1.084130
39  -0.000002 1.189004 0.000002  -0.010510 0.014239 0.976837
40  0.277240 3.632247 1.274103  0.185107 -0.010184 0.144732
41  -0.000000 1.798494 -0.000000  0.027685 -0.025810 0.750471
42  -0.000001 1.235452 -0.000001  -0.008036 -0.002903 0.645088
43  -0.315440 0.857299 0.755945  -0.248767 -2.664688 1.150362
44  0.000002 2.265940 -0.000000  -0.039010 0.053923 0.668054
45  0.000001 1.457812 0.000001  -0.054852 0.005358 1.066392
46  1.259682 3.818375 1.286946  0.185107 -0.010184 0.144732
47  1.226390 3.891693 0.090420  0.001305 -0.005412 1.033087
48  1.231623 3.875534 -0.958680  -0.032371 0.052975 0.932871
49  1.209920 3.994782 -2.003047  -0.067893 0.086178 0.802666
50  -0.328907 0.095428 1.403533  -0.248767 -2.664688 1.150362
51  -8.634464 -12.226113 11.573393  1.552100 0.001272 -3.125952
52  -8.110383 -19.738087 0.179033  -1.570796 -0.000000 1.570796
53  -7.028650 0.743399 -8.093216  -0.051945 0.000000 1.570796
54  -7.342360 -14.415470 -14.286362  1.589513 -0.015640 -0.001272
55  -1.855343 6.848201 8.911867  0.643721 -1.614433 -2.214060
56  0.461752 7.791413 26.458838  0.643346 -1.614420 -2.213684
57  0.599219 4.162452 9.540134  -0.024899 -0.027352 -0.026683
time 9
0  0 0 0  0 0 0
1  0.000000 0.000000 0.000000  1.570796 -0.000000 0.000000
2  15.269911 -21.966835 13.863769  0.404632 0.568331 1.431596
3  0.000001 13.479280 0.000001  0.515741 0.000000 -0.000000
4  -0.000001 13.477238 0.000000  -0.569485 -0.210596 0.493919
5  -0.267271 3.664727 -1.953293  -0.096194 -0.052727 -0.400403
6  0.000001 1.180354 -0.000002  -0.033422 -0.016719 -0.440925
7  -0.000002 0.817135 0.000001  0.007067 -0.010065 -0.256194
8  -0.249424 3.688542 -0.940891  -0.054966 -0.028860 -0.393964
9  0.000001 1.800633 -0.000001  0.004228 0.003292 -0.472103
10  0.000000 1.243406 -0.000000  0.006309 0.001661 -0.328230
11  -0.244727 3.701098 0.087733  0.004244 0.003603 -0.402932
12  0.000001 1.766583 -0.000001  0.003329 -0.002780 -0.523312
13  -0.000002 1.189004 -0.000003  -0.016474 -0.006468 -0.416037
14  -0.277239 3.632249 1.274102  0.052687 0.017453 -0.279974
15  0.000000 1.798492 -0.000000  0.034542 0.015473 -0.421259
16  0.000000 1.235452 0.000001  -0.006025 0.006058 -0.203611
17  0.315440 0.857301 0.755944  2.109433 0.373269 1.533785
18  -0.000000 2.265935 -0.000000  -0.056797 -0.034690 -0.271734
19  -0.000001 1.457811 -0.000002  -0.031121 0.045492 0.001395
20  -1.259682 3.818375 1.286944  0.052687 0.017453 -0.279974
21  -1.226391 3.891694 0.090418  0.004244 0.003603 -0.402931
22  -1.231624 3.875535 -0.958681  -0.054966 -0.028860 -0.393964
23  -1.209920 3.994782 -2.003050  -0.096194 -0.052727 -0.400403
24  0.328905 0.095429 1.403532  2.109432 0.373269 1.533784
25  -3.885427 -10.569974 27.375481  0.440099 0.045810 1.546329
26  -16.870777 -21.834059 7.086506  -1.570796 -0.000000 -1.570796
27  15.269911 -21.966835 13.863769  -0.051945 -0.000000 -1.570796
28  -7.028650 0.743399 -8.093216  0.484427 0.062362 3.114014
29  -0.000000 13.479276 -0.000000  1.004519 -0.000000 0.000000
30  -0.000000 13.477240 0.000001  0.075168 0.027878 0.064471
31  0.267268 3.664726 -1.953292  -0.067893 0.086178 0.802666
32  0.000000 1.180353 0.000001  -0.024201 0.028477 0.843506
33  -0.000001 0.817135 0.000002  0.010446 0.006491 0.658839
34  0.249423 3.688542 -0.940888  -0.032371 0.052975 0.932871
35  -0.000001 1.800634 -0.000000  0.000732 -0.005308 1.244337
36  0.000001 1.243404 -0.000001  0.004815 -0.004401 0.811274
37  0.244727 3.701096 0.087733  0.001305 -0.005412 1.033087
38  -0.000001 1.766585 0.000001  0.004298 0.000584 1.084130
39  -0.000000 1.189004 -0.000001  -0.010510 0.014239 0.976837
40  0.277239 3.632248 1.274102  0.185107 -0.010184 0.144732
41  -0.000000 1.798497 0.000000  0.027685 -0.025810 0.750471
42  -0.000001 1.235450 -0.000001  -0.008036 -0.002903 0.645088
43  -0.315442 0.857300 0.755944  -0.248767 -2.664688 1.150362
44  0.000002 2.265940 -0.000001  -0.039010 0.053923 0.668054
45  -0.000000 1.457811 0.000000  -0.054852 0.005358 1.066393
46  1.259680 3.818375 1.286946  0.185107 -0.010184 0.144732
47  1.226390 3.891693 0.090419  0.001305 -0.005412 1.033087
48  1.231622 3.875534 -0.958679  -0.032371 0.052975 0.932871
49  1.209918 3.994782 -2.003047  -0.067893 0.086178 0.802666
50  -0.328907 0.095429 1.403533  -0.248767 -2.664688 1.150362
51  -8.615783 -12.247771 11.577384  1.564252 0.000382 -3.136119
52  -8.110383 -19.738087 0.179033  -1.570796 -0.000000 1.570796
53  -7.028650 0.743399 -8.093216  -0.051945 0.000000 1.570796
54  -7.342360 -14.443409 -14.286362  1.577342 -0.005474 -0.000382
55  -1.855343 6.848201 8.911867  0.643721 -1.614433 -2.214060
56  0.461752 7.791414 26.458834  0.643346 -1.614420 -2.213684
57  0.599219 4.162454 9.540136  -0.024899 -0.027352 -0.026683
time 10
0  0 0 0  0 0 0
1  0.000000 0.000000 0.000000  1.570796 -0.000000 0.000000
2  15.269911 -21.966835 13.863769  0.404882 0.571599 1.430615
3  0.000003 13.479280 0.000000  0.516054 0.000000 -0.000000
4  0.000002 13.477238 -0.000000  -0.568839 -0.212379 0.488715
5  -0.267268 3.664726 -1.953293  -0.096193 -0.052727 -0.400403
6  0.000000 1.180357 0.000001  -0.033422 -0.016719 -0.440925
7  0.000000 0.817134 -0.000001  0.007067 -0.010065 -0.256194
8  -0.249422 3.688541 -0.940891  -0.054966 -0.028860 -0.393964
9  0.000000 1.800635 0.000001  0.004228 0.003292 -0.472103
10  0.000001 1.243407 0.000004  0.006309 0.001661 -0.328230
11  -0.244726 3.701095 0.087731  0.004244 0.003603 -0.402932
12  -0.000000 1.766586 -0.000002  0.003329 -0.002780 -0.523312
13  -0.000000 1.189005 0.000001  -0.016474 -0.006468 -0.416037
14  -0.277239 3.632249 1.274102  0.052687 0.017453 -0.279974
15  0.000002 1.798492 -0.000000  0.034542 0.015473 -0.421260
16  -0.000000 1.235450 -0.000001  -0.006025 0.006058 -0.203611
17  0.315442 0.857301 0.755942  2.109433 0.373269 1.533784
18  -0.000000 2.265936 -0.000001  -0.056797 -0.034690 -0.271734
19  -0.000000 1.457811 0.000003  -0.031121 0.045492 0.001395
20  -1.259680 3.818374 1.286944  0.052687 0.017453 -0.279974
21  -1.226390 3.891692 0.090417  0.004244 0.003603 -0.402932
22  -1.231623 3.875534 -0.958682  -0.054966 -0.028860 -0.393964
23  -1.209919 3.994782 -2.003049  -0.096193 -0.052727 -0.400403
24  0.328906 0.095429 1.403532  2.109432 0.373269 1.533784
25  -3.860201 -10.504416 27.353670  0.440284 0.052363 1.540863
26  -16.870777 -21.834059 7.086506  -1.570796 -0.000000 -1.570796
27  15.269911 -21.966835 13.863769  -0.051945 -0.000000 -1.570796
28  -7.028650 0.743399 -8.093216  0.483663 0.061681 3.113738
29  -0.000001 13.479277 0.000001  1.004753 -0.000000 0.000000
30  -0.000000 13.477238 0.000001  0.082244 0.022688 0.063760
31  0.267269 3.664726 -1.953294  -0.067893 0.086178 0.802666
32  -0.000002 1.180355 -0.000002  -0.024201 0.028477 0.843506
33  0.000001 0.817135 0.000000  0.010446 0.006491 0.658839
34  0.249423 3.688541 -0.940890  -0.032371 0.052975 0.932871
35  0.000000 1.800633 -0.000002  0.000732 -0.005308 1.244337
36  -0.000001 1.243406 -0.000002  0.004815 -0.004401 0.811275
37  0.244726 3.701095 0.087732  0.001305 -0.005412 1.033087
38  -0.000000 1.766584 0.000000  0.004298 0.000584 1.084129
39  0.000000 1.189004 0.000001  -0.010510 0.014239 0.976837
40  0.277239 3.632248 1.274102  0.185107 -0.010184 0.144732
41  -0.000000 1.798495 0.000000  0.027685 -0.025810 0.750471
42  0.000001 1.235451 0.000001  -0.008036 -0.002903 0.645088
43  -0.315442 0.857299 0.755943  -0.248767 -2.664688 1.150362
44  0.000000 2.265939 -0.000001  -0.039010 0.053923 0.668054
45  0.000000 1.457813 0.000000  -0.054852 0.005358 1.066393
46  1.259681 3.818374 1.286945  0.185107 -0.010184 0.144732
47  1.226391 3.891693 0.090418  0.001305 -0.005412 1.033087
48  1.231623 3.875534 -0.958681  -0.032371 0.052975 0.932871
49  1.209919 3.994781 -2.003049  -0.067893 0.086178 0.802666
50  -0.328907 0.095428 1.403532  -0.248767 -2.664688 1.150362
51  -8.605698 -12.259624 11.568533  1.570796 0.000000 -3.141593
52  -8.110383 -19.738087 0.179033  -1.570796 -0.000000 1.570796
53  -7.028650 0.743399 -8.093216  -0.051945 0.000000 1.570796
54  -7.342360 -14.447400 -14.286362  1.570796 -0.000000 0.000000
55  -1.855343 6.848201 8.911866  0.643721 -1.614433 -2.214061
56  0.461752 7.791413 26.458832  0.643346 -1.614420 -2.213684
57  0.599219 4.162452 9.540135  -0.024899 -0.027352 -0.026683
end
