version 1
nodes
0 "blender_implicit" -1
1 "root" -1
2 "upperarm_l" 1
3 "lowerarm_l" 2
4 "hand_l" 3
5 "pinky_0_l" 4
6 "pinky_1_l" 5
7 "pinky_2_l" 6
8 "ring_0_l" 4
9 "ring_1_l" 8
10 "ring_2_l" 9
11 "middle_0_l" 4
12 "middle_1_l" 11
13 "middle_2_l" 12
14 "index_0_l" 4
15 "index_1_l" 14
16 "index_2_l" 15
17 "thumb_0_l" 4
18 "thumb_1_l" 17
19 "thumb_2_l" 18
20 "rig_index_l" 4
21 "rig_middle_l" 4
22 "rig_ring_l" 4
23 "rig_pinky_l" 4
24 "rig_thumb_l" 4
25 "rig_hand_l" 1
26 "rig_l" 1
27 "rig_upperarm_l" 1
28 "upperarm_r" 1
29 "lowerarm_r" 28
30 "hand_r" 29
31 "pinky_0_r" 30
32 "pinky_1_r" 31
33 "pinky_2_r" 32
34 "ring_0_r" 30
35 "ring_1_r" 34
36 "ring_2_r" 35
37 "middle_0_r" 30
38 "middle_1_r" 37
39 "middle_2_r" 38
40 "index_0_r" 30
41 "index_1_r" 40
42 "index_2_r" 41
43 "thumb_0_r" 30
44 "thumb_1_r" 43
45 "thumb_2_r" 44
46 "rig_index_r" 30
47 "rig_middle_r" 30
48 "rig_ring_r" 30
49 "rig_pinky_r" 30
50 "rig_thumb_r" 30
51 "rig_hand_r" 1
52 "rig_r" 1
53 "rig_upperarm_r" 1
54 "bone_pistolGrip" -1
55 "bone_ejectionPort" 54
56 "bone_muzzle" 54
57 "bone_clip" 54
end
skeleton
time 0
0  0 0 0  0 0 0
1  0.000000 0.000000 0.000000  1.570796 -0.000000 0.000000
2  15.269911 -21.966835 13.863769  0.404882 0.571599 1.430615
3  0.000003 13.479280 0.000000  0.516054 0.000000 -0.000000
4  0.000002 13.477238 -0.000000  -0.568839 -0.212379 0.488715
5  -0.267268 3.664726 -1.953293  -0.096193 -0.052727 -0.400403
6  0.000000 1.180357 0.000001  -0.033422 -0.016719 -0.440925
7  0.000000 0.817134 -0.000001  0.007067 -0.010065 -0.256194
8  -0.249422 3.688541 -0.940891  -0.054966 -0.028860 -0.393964
9  0.000000 1.800635 0.000001  0.004228 0.003292 -0.472103
10  0.000001 1.243407 0.000004  0.006309 0.001661 -0.328230
11  -0.244726 3.701095 0.087731  0.004244 0.003603 -0.402932
12  -0.000000 1.766586 -0.000002  0.003329 -0.002780 -0.523312
13  -0.000000 1.189005 0.000001  -0.016474 -0.006468 -0.416037
14  -0.277239 3.632249 1.274102  0.052687 0.017453 -0.279974
15  0.000002 1.798492 -0.000000  0.034542 0.015473 -0.421260
16  -0.000000 1.235450 -0.000001  -0.006025 0.006058 -0.203611
17  0.315442 0.857301 0.755942  2.109433 0.373269 1.533784
18  -0.000000 2.265936 -0.000001  -0.056797 -0.034690 -0.271734
19  -0.000000 1.457811 0.000003  -0.031121 0.045492 0.001395
20  -1.259680 3.818374 1.286944  0.052687 0.017453 -0.279974
21  -1.226390 3.891692 0.090417  0.004244 0.003603 -0.402932
22  -1.231623 3.875534 -0.958682  -0.054966 -0.028860 -0.393964
23  -1.209919 3.994782 -2.003049  -0.096193 -0.052727 -0.400403
24  0.328906 0.095429 1.403532  2.109432 0.373269 1.533784
25  -3.860201 -10.504416 27.353670  0.440284 0.052363 1.540863
26  -16.870777 -21.834059 7.086506  -1.570796 -0.000000 -1.570796
27  15.269911 -21.966835 13.863769  -0.051945 -0.000000 -1.570796
28  -7.028650 0.743399 -8.093216  0.483663 0.061681 3.113738
29  -0.000001 13.479277 0.000001  1.004753 -0.000000 0.000000
30  -0.000000 13.477238 0.000001  0.082244 0.022688 0.063760
31  0.267269 3.664726 -1.953294  -0.067893 0.086178 0.802666
32  -0.000002 1.180355 -0.000002  -0.024201 0.028477 0.843506
33  0.000001 0.817135 0.000000  0.010446 0.006491 0.658839
34  0.249423 3.688541 -0.940890  -0.032371 0.052975 0.932871
35  0.000000 1.800633 -0.000002  0.000732 -0.005308 1.244337
36  -0.000001 1.243406 -0.000002  0.004815 -0.004401 0.811275
37  0.244726 3.701095 0.087732  0.001305 -0.005412 1.033087
38  -0.000000 1.766584 0.000000  0.004298 0.000584 1.084129
39  0.000000 1.189004 0.000001  -0.010510 0.014239 0.976837
40  0.277239 3.632248 1.274102  0.185107 -0.010184 0.144732
41  -0.000000 1.798495 0.000000  0.027685 -0.025810 0.750471
42  0.000001 1.235451 0.000001  -0.008036 -0.002903 0.645088
43  -0.315442 0.857299 0.755943  -0.248767 -2.664688 1.150362
44  0.000000 2.265939 -0.000001  -0.039010 0.053923 0.668054
45  0.000000 1.457813 0.000000  -0.054852 0.005358 1.066393
46  1.259681 3.818374 1.286945  0.185107 -0.010184 0.144732
47  1.226391 3.891693 0.090418  0.001305 -0.005412 1.033087
48  1.231623 3.875534 -0.958681  -0.032371 0.052975 0.932871
49  1.209919 3.994781 -2.003049  -0.067893 0.086178 0.802666
50  -0.328907 0.095428 1.403532  -0.248767 -2.664688 1.150362
51  -8.605698 -12.259624 11.568533  1.570796 0.000000 -3.141593
52  -8.110383 -19.738087 0.179033  -1.570796 -0.000000 1.570796
53  -7.028650 0.743399 -8.093216  -0.051945 0.000000 1.570796
54  -7.342360 -14.447400 -14.286362  1.570796 -0.000000 0.000000
55  -1.855343 6.848201 8.911866  0.643721 -1.614433 -2.214061
56  0.461752 7.791413 26.458832  0.643346 -1.614420 -2.213684
57  0.599219 4.162452 9.540135  -0.024899 -0.027352 -0.026683
time 1
0  0 0 0  0 0 0
1  0.000000 0.000000 0.000000  1.570796 -0.000000 0.000000
2  15.269911 -21.966835 13.863769  0.046280 0.771397 1.360164
3  0.000005 13.479277 0.000003  0.892966 0.000000 -0.000000
4  0.000000 13.477238 -0.000001  -0.659070 -0.175527 0.673220
5  -0.267270 3.664727 -1.953291  -0.096194 -0.052727 -0.400403
6  0.000000 1.180355 0.000000  -0.033422 -0.016719 -0.440925
7  0.000000 0.817135 0.000000  0.007067 -0.010065 -0.256194
8  -0.249424 3.688541 -0.940887  -0.054966 -0.028860 -0.393963
9  0.000001 1.800631 0.000001  0.004228 0.003292 -0.472103
10  -0.000003 1.243406 0.000000  0.006309 0.001661 -0.328230
11  -0.244728 3.701095 0.087733  0.004244 0.003603 -0.402932
12  -0.000001 1.766586 -0.000002  0.003329 -0.002780 -0.523312
13  0.000001 1.189002 0.000002  -0.016474 -0.006468 -0.416037
14  -0.277241 3.632247 1.274102  0.052687 0.017453 -0.279974
15  0.000000 1.798494 0.000002  0.034542 0.015473 -0.421260
16  0.000000 1.235451 0.000001  -0.006025 0.006058 -0.203611
17  0.315441 0.857299 0.755945  2.109432 0.373269 1.533784
18  0.000000 2.265941 -0.000002  -0.056797 -0.034690 -0.271734
19  0.000000 1.457808 0.000001  -0.031121 0.045492 0.001395
20  -1.259682 3.818374 1.286945  0.052687 0.017453 -0.279974
21  -1.226391 3.891692 0.090418  0.004244 0.003603 -0.402932
22  -1.231624 3.875534 -0.958680  -0.054966 -0.028860 -0.393964
23  -1.209920 3.994782 -2.003047  -0.096194 -0.052727 -0.400403
24  0.328905 0.095428 1.403534  2.109432 0.373269 1.533784
25  -4.001569 -9.647597 22.109209  0.443208 0.107703 1.584856
26  -16.870777 -21.834059 7.086506  -1.570796 -0.000000 -1.570796
27  15.269911 -21.966835 13.863769  -0.051945 -0.000000 -1.570796
28  -7.028650 0.743399 -8.093216  0.086678 0.105080 3.131378
29  -0.000001 13.479278 -0.000001  1.498126 -0.000000 0.000000
30  0.000001 13.477238 0.000000  0.041531 0.055375 0.108887
31  0.267269 3.664726 -1.953292  -0.067893 0.086178 0.802666
32  0.000002 1.180356 0.000001  -0.024201 0.028477 0.843506
33  0.000002 0.817136 -0.000001  0.010446 0.006491 0.658839
34  0.249422 3.688540 -0.940889  -0.032371 0.052975 0.932871
35  0.000000 1.800634 -0.000000  0.000732 -0.005308 1.244337
36  0.000000 1.243405 -0.000000  0.004815 -0.004401 0.811274
37  0.244725 3.701096 0.087732  0.001305 -0.005412 1.033087
38  0.000000 1.766584 -0.000002  0.004298 0.000584 1.084130
39  -0.000002 1.189004 0.000000  -0.010510 0.014239 0.976837
40  0.277239 3.632248 1.274103  0.185107 -0.010184 0.144732
41  0.000000 1.798494 0.000000  0.027685 -0.025810 0.750471
42  -0.000001 1.235452 0.000001  -0.008036 -0.002903 0.645088
43  -0.315442 0.857299 0.755943  -0.248767 -2.664688 1.150363
44  0.000002 2.265939 0.000000  -0.039010 0.053923 0.668054
45  0.000001 1.457811 -0.000001  -0.054852 0.005358 1.066392
46  1.259680 3.818374 1.286946  0.185107 -0.010184 0.144732
47  1.226390 3.891693 0.090419  0.001305 -0.005412 1.033087
48  1.231622 3.875534 -0.958680  -0.032371 0.052975 0.932871
49  1.209918 3.994781 -2.003047  -0.067893 0.086178 0.802666
50  -0.328907 0.095428 1.403533  -0.248767 -2.664688 1.150362
51  -8.699430 -12.479107 6.466838  -1.515567 -3.137031 0.043633
52  -8.110383 -19.738087 0.179033  -1.570796 -0.000000 1.570796
53  -7.028650 0.743399 -8.093216  -0.051945 0.000000 1.570796
54  -7.342360 -9.447400 -14.286362  1.515368 -0.043633 0.004566
55  -1.855343 6.848202 8.911865  0.643721 -1.614433 -2.214061
56  0.461752 7.791414 26.458832  0.643346 -1.614420 -2.213684
57  0.599219 4.162453 9.540136  -0.024899 -0.027352 -0.026683
time 2
0  0 0 0  0 0 0
1  0.000000 0.000000 0.000000  1.570796 -0.000000 0.000000
2  15.269911 -21.966835 13.863769  0.173158 0.729594 1.376981
3  0.000002 13.479279 0.000003  0.754928 0.000000 -0.000000
4  0.000000 13.477241 -0.000001  -0.627234 -0.165892 0.598850
5  -0.267271 3.664726 -1.953296  -0.096194 -0.052727 -0.400403
6  -0.000000 1.180355 0.000000  -0.033422 -0.016719 -0.440925
7  0.000000 0.817136 0.000002  0.007067 -0.010065 -0.256194
8  -0.249423 3.688540 -0.940893  -0.054966 -0.028860 -0.393964
9  0.000000 1.800633 -0.000001  0.004228 0.003292 -0.472103
10  -0.000000 1.243406 -0.000003  0.006309 0.001661 -0.328230
11  -0.244728 3.701095 0.087731  0.004244 0.003603 -0.402932
12  -0.000002 1.766585 -0.000000  0.003329 -0.002780 -0.523312
13  -0.000002 1.189003 -0.000000  -0.016474 -0.006468 -0.416037
14  -0.277241 3.632247 1.274099  0.052687 0.017453 -0.279974
15  0.000000 1.798495 -0.000002  0.034542 0.015473 -0.421260
16  -0.000002 1.235453 -0.000000  -0.006025 0.006058 -0.203611
17  0.315441 0.857299 0.755939  2.109432 0.373269 1.533784
18  -0.000000 2.265940 -0.000001  -0.056797 -0.034690 -0.271734
19  0.000000 1.457811 0.000000  -0.031121 0.045492 0.001395
20  -1.259683 3.818374 1.286941  0.052687 0.017453 -0.279974
21  -1.226392 3.891692 0.090415  0.004244 0.003603 -0.402932
22  -1.231623 3.875534 -0.958685  -0.054966 -0.028860 -0.393964
23  -1.209920 3.994781 -2.003052  -0.096194 -0.052727 -0.400403
24  0.328905 0.095429 1.403530  2.109432 0.373269 1.533784
25  -4.002314 -9.278436 23.636812  0.442223 0.137929 1.581365
26  -16.870777 -21.834059 7.086506  -1.570796 -0.000000 -1.570796
27  15.269911 -21.966835 13.863769  -0.051945 -0.000000 -1.570796
28  -7.028650 0.743399 -8.093216  0.206339 0.088460 3.124606
29  0.000001 13.479276 0.000000  1.353903 -0.000000 0.000000
30  0.000001 13.477240 -0.000000  0.096252 0.056130 0.093540
31  0.267270 3.664726 -1.953291  -0.067893 0.086178 0.802666
32  -0.000001 1.180355 -0.000000  -0.024201 0.028477 0.843506
33  -0.000000 0.817135 0.000000  0.010446 0.006491 0.658839
34  0.249422 3.688541 -0.940888  -0.032371 0.052975 0.932871
35  0.000001 1.800632 -0.000002  0.000732 -0.005308 1.244337
36  0.000000 1.243405 0.000001  0.004815 -0.004401 0.811274
37  0.244726 3.701096 0.087734  0.001305 -0.005412 1.033087
38  -0.000000 1.766584 0.000000  0.004298 0.000584 1.084130
39  0.000001 1.189003 0.000000  -0.010510 0.014239 0.976837
40  0.277238 3.632248 1.274103  0.185107 -0.010184 0.144732
41  -0.000001 1.798494 -0.000000  0.027685 -0.025810 0.750471
42  0.000000 1.235451 -0.000000  -0.008036 -0.002903 0.645088
43  -0.315442 0.857299 0.755945  -0.248767 -2.664688 1.150362
44  -0.000001 2.265939 0.000000  -0.039010 0.053923 0.668054
45  0.000001 1.457811 -0.000002  -0.054852 0.005358 1.066393
46  1.259680 3.818374 1.286946  0.185107 -0.010184 0.144732
47  1.226390 3.891693 0.090421  0.001305 -0.005412 1.033087
48  1.231622 3.875534 -0.958679  -0.032371 0.052975 0.932871
49  1.209918 3.994782 -2.003047  -0.067893 0.086178 0.802666
50  -0.328907 0.095428 1.403534  -0.248767 -2.664688 1.150362
51  -8.689423 -12.565435 8.080536  -1.485325 -3.137115 0.040127
52  -8.110383 -19.738087 0.179033  -1.570796 -0.000000 1.570796
53  -7.028650 0.743399 -8.093216  -0.051945 0.000000 1.570796
54  -7.342360 -11.116222 -14.286362  1.485146 -0.040126 0.004481
55  -1.855343 6.848201 8.911862  0.643721 -1.614433 -2.214061
56  0.461752 7.791413 26.458830  0.643346 -1.614420 -2.213684
57  0.599219 4.162451 9.540134  -0.024899 -0.027352 -0.026683
time 3
0  0 0 0  0 0 0
1  0.000000 0.000000 0.000000  1.570796 -0.000000 0.000000
2  15.269911 -21.966835 13.863769  0.321527 0.658497 1.402790
3  0.000005 13.479280 -0.000002  0.589531 -0.000000 -0.000000
4  0.000000 13.477239 0.000002  -0.583383 -0.174042 0.528598
5  -0.267268 3.664726 -1.953295  -0.096194 -0.052727 -0.400403
6  0.000001 1.180355 0.000002  -0.033422 -0.016719 -0.440925
7  0.000001 0.817134 0.000002  0.007067 -0.010065 -0.256194
8  -0.249422 3.688543 -0.940890  -0.054966 -0.028860 -0.393964
9  0.000000 1.800633 0.000000  0.004228 0.003292 -0.472103
10  0.000001 1.243407 -0.000001  0.006309 0.001661 -0.328230
11  -0.244725 3.701096 0.087731  0.004244 0.003603 -0.402932
12  0.000002 1.766584 0.000000  0.003329 -0.002780 -0.523312
13  0.000001 1.189004 0.000001  -0.016474 -0.006468 -0.416037
14  -0.277238 3.632248 1.274100  0.052687 0.017453 -0.279974
15  0.000002 1.798494 -0.000000  0.034542 0.015473 -0.421260
16  0.000000 1.235452 -0.000001  -0.006025 0.006058 -0.203611
17  0.315442 0.857301 0.755941  2.109432 0.373269 1.533785
18  0.000000 2.265941 -0.000001  -0.056797 -0.034690 -0.271734
19  0.000001 1.457808 -0.000002  -0.031121 0.045492 0.001395
20  -1.259679 3.818375 1.286943  0.052687 0.017453 -0.279974
21  -1.226389 3.891694 0.090417  0.004244 0.003603 -0.402932
22  -1.231622 3.875534 -0.958683  -0.054966 -0.028860 -0.393964
23  -1.209918 3.994782 -2.003049  -0.096194 -0.052727 -0.400403
24  0.328907 0.095430 1.403532  2.109433 0.373269 1.533784
25  -3.956836 -9.452637 25.655113  0.442320 0.126409 1.572561
26  -16.870777 -21.834059 7.086506  -1.570796 -0.000000 -1.570796
27  15.269911 -21.966835 13.863769  -0.051945 -0.000000 -1.570796
28  -7.028650 0.743399 -8.093216  0.359832 0.073712 3.118615
29  0.000000 13.479277 0.000000  1.160427 -0.000000 0.000000
30  -0.000001 13.477240 -0.000001  0.124631 0.050334 0.080589
31  0.267268 3.664726 -1.953294  -0.067893 0.086178 0.802666
32  -0.000001 1.180356 -0.000000  -0.024201 0.028477 0.843506
33  -0.000000 0.817138 0.000001  0.010446 0.006491 0.658839
34  0.249421 3.688541 -0.940888  -0.032371 0.052975 0.932871
35  -0.000003 1.800634 0.000000  0.000732 -0.005308 1.244337
36  0.000000 1.243407 -0.000001  0.004815 -0.004401 0.811274
37  0.244724 3.701095 0.087732  0.001305 -0.005412 1.033087
38  0.000001 1.766584 -0.000000  0.004298 0.000584 1.084130
39  -0.000000 1.189004 -0.000000  -0.010510 0.014239 0.976837
40  0.277238 3.632248 1.274102  0.185107 -0.010184 0.144732
41  0.000001 1.798494 -0.000000  0.027685 -0.025810 0.750471
42  0.000001 1.235451 -0.000001  -0.008036 -0.002903 0.645088
43  -0.315442 0.857300 0.755944  -0.248767 -2.664688 1.150363
44  -0.000000 2.265940 0.000000  -0.039010 0.053923 0.668054
45  0.000000 1.457810 -0.000001  -0.054852 0.005358 1.066392
46  1.259680 3.818375 1.286946  0.185107 -0.010184 0.144732
47  1.226389 3.891694 0.090419  0.001305 -0.005412 1.033087
48  1.231622 3.875533 -0.958681  -0.032371 0.052975 0.932871
49  1.209918 3.994782 -2.003047  -0.067893 0.086178 0.802666
50  -0.328908 0.095429 1.403533  -0.248767 -2.664688 1.150362
51  -8.674548 -12.518773 10.063030  -1.496843 -3.137361 0.031360
52  -8.110383 -19.738087 0.179033  -1.570796 -0.000000 1.570796
53  -7.028650 0.743399 -8.093216  -0.051945 0.000000 1.570796
54  -7.342360 -13.078402 -14.286362  1.496710 -0.031359 0.004234
55  -1.855344 6.848200 8.911863  0.643721 -1.614433 -2.214061
56  0.461752 7.791412 26.458832  0.643346 -1.614420 -2.213684
57  0.599218 4.162450 9.540133  -0.024899 -0.027352 -0.026683
time 4
0  0 0 0  0 0 0
1  0.000000 0.000000 0.000000  1.570796 -0.000000 0.000000
2  15.269911 -21.966835 13.863769  0.348730 0.625783 1.413685
3  0.000000 13.479277 0.000000  0.571420 0.000000 -0.000000
4  0.000001 13.477240 -0.000000  -0.580536 -0.185480 0.514405
5  -0.267269 3.664725 -1.953292  -0.096194 -0.052727 -0.400403
6  0.000000 1.180356 -0.000001  -0.033422 -0.016719 -0.440925
7  -0.000000 0.817135 -0.000002  0.007067 -0.010065 -0.256194
8  -0.249422 3.688540 -0.940888  -0.054966 -0.028860 -0.393964
9  0.000000 1.800632 0.000002  0.004228 0.003292 -0.472103
10  0.000001 1.243405 0.000001  0.006309 0.001661 -0.328230
11  -0.244725 3.701094 0.087735  0.004244 0.003603 -0.402932
12  -0.000001 1.766586 0.000003  0.003329 -0.002780 -0.523312
13  -0.000001 1.189004 0.000000  -0.016474 -0.006468 -0.416037
14  -0.277239 3.632246 1.274104  0.052687 0.017453 -0.279974
15  -0.000001 1.798495 0.000000  0.034542 0.015473 -0.421260
16  -0.000001 1.235454 -0.000001  -0.006025 0.006058 -0.203611
17  0.315441 0.857298 0.755946  2.109432 0.373269 1.533784
18  0.000001 2.265940 -0.000000  -0.056797 -0.034690 -0.271734
19  -0.000001 1.457811 -0.000000  -0.031121 0.045492 0.001395
20  -1.259681 3.818373 1.286948  0.052687 0.017453 -0.279974
21  -1.226390 3.891691 0.090419  0.004244 0.003603 -0.402932
22  -1.231623 3.875532 -0.958681  -0.054966 -0.028860 -0.393964
23  -1.209919 3.994780 -2.003046  -0.096194 -0.052727 -0.400403
24  0.328906 0.095427 1.403534  2.109432 0.373269 1.533784
25  -3.899527 -9.839125 26.288416  0.442740 0.098944 1.561100
26  -16.870777 -21.834059 7.086506  -1.570796 -0.000000 -1.570796
27  15.269911 -21.966835 13.863769  -0.051945 -0.000000 -1.570796
28  -7.028650 0.743399 -8.093216  0.404653 0.069336 3.116840
29  0.000000 13.479276 -0.000000  1.105940 -0.000000 0.000000
30  0.000000 13.477240 0.000001  0.106750 0.040235 0.075728
31  0.267271 3.664725 -1.953294  -0.067893 0.086178 0.802666
32  -0.000002 1.180354 -0.000001  -0.024201 0.028477 0.843506
33  0.000001 0.817136 0.000001  0.010446 0.006491 0.658838
34  0.249423 3.688540 -0.940890  -0.032371 0.052975 0.932871
35  -0.000004 1.800634 -0.000000  0.000732 -0.005308 1.244337
36  0.000000 1.243406 0.000000  0.004815 -0.004401 0.811274
37  0.244728 3.701095 0.087732  0.001305 -0.005412 1.033087
38  -0.000001 1.766584 0.000001  0.004298 0.000584 1.084130
39  0.000000 1.189002 -0.000000  -0.010510 0.014239 0.976837
40  0.277239 3.632246 1.274101  0.185107 -0.010184 0.144732
41  0.000001 1.798494 -0.000000  0.027685 -0.025810 0.750471
42  0.000000 1.235451 0.000001  -0.008036 -0.002903 0.645088
43  -0.315441 0.857298 0.755943  -0.248767 -2.664688 1.150362
44  0.000001 2.265940 0.000000  -0.039010 0.053923 0.668054
45  0.000000 1.457811 -0.000000  -0.054852 0.005358 1.066393
46  1.259683 3.818374 1.286943  0.185107 -0.010184 0.144732
47  1.226390 3.891691 0.090418  0.001305 -0.005412 1.033087
48  1.231623 3.875534 -0.958681  -0.032371 0.052975 0.932871
49  1.209920 3.994781 -2.003049  -0.067893 0.086178 0.802666
50  -0.328905 0.095427 1.403531  -0.248767 -2.664688 1.150362
51  -8.654570 -12.421419 10.620216  -1.524309 -3.137757 0.019963
52  -8.110383 -19.738087 0.179033  -1.570796 -0.000000 1.570796
53  -7.028650 0.743399 -8.093216  -0.051945 0.000000 1.570796
54  -7.342360 -13.585290 -14.286362  1.524232 -0.019962 0.003837
55  -1.855343 6.848201 8.911865  0.643721 -1.614433 -2.214060
56  0.461752 7.791413 26.458834  0.643346 -1.614420 -2.213684
57  0.599219 4.162453 9.540137  -0.024899 -0.027352 -0.026683
time 5
0  0 0 0  0 0 0
1  0.000000 0.000000 0.000000  1.570796 -0.000000 0.000000
2  15.269911 -21.966835 13.863769  0.361888 0.594469 1.423626
3  0.000002 13.479280 0.000000  0.571533 0.000000 -0.000000
4  0.000001 13.477240 -0.000001  -0.584049 -0.197850 0.507088
5  -0.267268 3.664726 -1.953295  -0.096194 -0.052727 -0.400403
6  0.000001 1.180356 -0.000002  -0.033423 -0.016719 -0.440925
7  0.000000 0.817134 0.000003  0.007067 -0.010065 -0.256194
8  -0.249421 3.688541 -0.940890  -0.054966 -0.028860 -0.393964
9  -0.000000 1.800632 -0.000001  0.004228 0.003292 -0.472103
10  0.000001 1.243405 -0.000001  0.006309 0.001661 -0.328230
11  -0.244726 3.701096 0.087731  0.004244 0.003603 -0.402932
12  -0.000001 1.766584 0.000003  0.003329 -0.002780 -0.523312
13  0.000000 1.189004 -0.000001  -0.016474 -0.006468 -0.416038
14  -0.277239 3.632248 1.274100  0.052687 0.017453 -0.279974
15  0.000001 1.798495 -0.000001  0.034542 0.015473 -0.421259
16  0.000000 1.235452 -0.000002  -0.006025 0.006058 -0.203611
17  0.315443 0.857299 0.755942  2.109432 0.373269 1.533784
18  0.000001 2.265939 -0.000003  -0.056797 -0.034690 -0.271734
19  -0.000000 1.457808 -0.000000  -0.031121 0.045492 0.001395
20  -1.259680 3.818375 1.286944  0.052687 0.017453 -0.279974
21  -1.226389 3.891693 0.090417  0.004244 0.003603 -0.402932
22  -1.231622 3.875534 -0.958682  -0.054966 -0.028860 -0.393964
23  -1.209918 3.994782 -2.003049  -0.096194 -0.052727 -0.400403
24  0.328907 0.095429 1.403531  2.109432 0.373269 1.533784
25  -3.851838 -10.297835 26.790154  0.443179 0.066162 1.549623
26  -16.870777 -21.834059 7.086506  -1.570796 -0.000000 -1.570796
27  15.269911 -21.966835 13.863769  -0.051945 -0.000000 -1.570796
28  -7.028650 0.743399 -8.093216  0.439422 0.065805 3.115409
29  0.000001 13.479277 0.000000  1.065074 -0.000000 0.000000
30  -0.000001 13.477240 0.000000  0.079993 0.030098 0.071253
31  0.267270 3.664726 -1.953291  -0.067893 0.086178 0.802666
32  0.000002 1.180357 0.000000  -0.024201 0.028477 0.843506
33  -0.000002 0.817136 -0.000001  0.010446 0.006491 0.658839
34  0.249422 3.688540 -0.940888  -0.032371 0.052975 0.932871
35  -0.000001 1.800633 0.000000  0.000732 -0.005308 1.244337
36  0.000001 1.243406 0.000001  0.004815 -0.004401 0.811274
37  0.244726 3.701095 0.087734  0.001305 -0.005412 1.033087
38  -0.000001 1.766586 -0.000002  0.004298 0.000584 1.084130
39  0.000001 1.189004 0.000000  -0.010510 0.014239 0.976837
40  0.277239 3.632248 1.274103  0.185107 -0.010184 0.144732
41  0.000001 1.798496 -0.000001  0.027685 -0.025810 0.750471
42  -0.000001 1.235453 0.000000  -0.008036 -0.002903 0.645088
43  -0.315442 0.857300 0.755945  -0.248767 -2.664688 1.150362
44  0.000001 2.265939 -0.000000  -0.039010 0.053923 0.668054
45  0.000001 1.457812 -0.000000  -0.054852 0.005358 1.066393
46  1.259681 3.818375 1.286947  0.185107 -0.010184 0.144732
47  1.226390 3.891693 0.090420  0.001305 -0.005412 1.033087
48  1.231624 3.875534 -0.958679  -0.032371 0.052975 0.932871
49  1.209918 3.994782 -2.003047  -0.067893 0.086178 0.802666
50  -0.328905 0.095429 1.403533  -0.248767 -2.664688 1.150362
51  -8.632257 -12.310248 11.046304  -1.557090 -3.138293 0.008566
52  -8.110383 -19.738087 0.179033  -1.570796 -0.000000 1.570796
53  -7.028650 0.743399 -8.093216  -0.051945 0.000000 1.570796
54  -7.342360 -13.948494 -14.286362  1.557062 -0.008565 0.003300
55  -1.855343 6.848200 8.911864  0.643721 -1.614433 -2.214061
56  0.461753 7.791413 26.458836  0.643346 -1.614420 -2.213684
57  0.599219 4.162451 9.540134  -0.024899 -0.027352 -0.026683
time 6
0  0 0 0  0 0 0
1  0.000000 0.000000 0.000000  1.570796 -0.000000 0.000000
2  15.269911 -21.966835 13.863769  0.368711 0.570215 1.431031
3  0.000004 13.479280 0.000000  0.575038 0.000000 -0.000000
4  -0.000000 13.477240 0.000000  -0.588318 -0.208369 0.503457
5  -0.267269 3.664726 -1.953295  -0.096194 -0.052727 -0.400403
6  -0.000000 1.180354 0.000002  -0.033422 -0.016719 -0.440925
7  0.000001 0.817135 -0.000003  0.007067 -0.010065 -0.256194
8  -0.249422 3.688541 -0.940890  -0.054966 -0.028860 -0.393964
9  0.000000 1.800632 -0.000000  0.004228 0.003292 -0.472103
10  0.000000 1.243404 -0.000002  0.006309 0.001661 -0.328230
11  -0.244725 3.701096 0.087732  0.004244 0.003603 -0.402932
12  -0.000001 1.766584 -0.000000  0.003329 -0.002780 -0.523312
13  0.000002 1.189004 0.000000  -0.016474 -0.006468 -0.416037
14  -0.277238 3.632247 1.274101  0.052687 0.017453 -0.279974
15  0.000001 1.798494 -0.000003  0.034542 0.015472 -0.421260
16  -0.000002 1.235452 0.000004  -0.006025 0.006058 -0.203611
17  0.315442 0.857299 0.755942  2.109432 0.373269 1.533784
18  0.000000 2.265941 0.000001  -0.056797 -0.034690 -0.271734
19  -0.000000 1.457813 0.000001  -0.031121 0.045492 0.001395
20  -1.259680 3.818374 1.286943  0.052687 0.017453 -0.279974
21  -1.226389 3.891694 0.090420  0.004244 0.003603 -0.402932
22  -1.231623 3.875533 -0.958682  -0.054966 -0.028860 -0.393964
23  -1.209918 3.994781 -2.003050  -0.096194 -0.052727 -0.400403
24  0.328907 0.095428 1.403530  2.109432 0.373269 1.533784
25  -3.825359 -10.683051 27.139830  0.443331 0.038689 1.540782
26  -16.870777 -21.834059 7.086506  -1.570796 -0.000000 -1.570796
27  15.269911 -21.966835 13.863769  -0.051945 -0.000000 -1.570796
28  -7.028650 0.743399 -8.093216  0.464106 0.063226 3.114364
29  0.000000 13.479276 0.000000  1.036249 -0.000000 0.000000
30  0.000001 13.477239 0.000000  0.056618 0.022328 0.067596
31  0.267271 3.664726 -1.953291  -0.067893 0.086178 0.802666
32  -0.000000 1.180354 0.000000  -0.024201 0.028477 0.843506
33  -0.000001 0.817136 0.000000  0.010446 0.006491 0.658839
34  0.249424 3.688540 -0.940888  -0.032371 0.052975 0.932871
35  0.000001 1.800634 0.000000  0.000732 -0.005308 1.244337
36  -0.000001 1.243406 0.000001  0.004815 -0.004401 0.811274
37  0.244728 3.701095 0.087734  0.001305 -0.005412 1.033087
38  -0.000000 1.766585 0.000000  0.004298 0.000584 1.084130
39  -0.000001 1.189004 -0.000001  -0.010510 0.014239 0.976837
40  0.277241 3.632247 1.274103  0.185107 -0.010184 0.144732
41  -0.000000 1.798494 -0.000001  0.027685 -0.025810 0.750471
42  -0.000001 1.235451 0.000000  -0.008036 -0.002903 0.645088
43  -0.315440 0.857300 0.755945  -0.248767 -2.664688 1.150362
44  0.000000 2.265939 0.000001  -0.039010 0.053923 0.668054
45  0.000000 1.457812 -0.000001  -0.054852 0.005358 1.066393
46  1.259682 3.818374 1.286948  0.185107 -0.010184 0.144732
47  1.226391 3.891692 0.090420  0.001305 -0.005412 1.033087
48  1.231624 3.875533 -0.958679  -0.032371 0.052975 0.932871
49  1.209920 3.994781 -2.003047  -0.067893 0.086178 0.802666
50  -0.328905 0.095428 1.403533  -0.248767 -2.664688 1.150362
51  -8.612785 -12.219952 11.344587  1.557038 -0.002634 3.141391
52  -8.110383 -19.738087 0.179033  -1.570796 -0.000000 1.570796
53  -7.028650 0.743399 -8.093216  -0.051945 0.000000 1.570796
54  -7.342360 -14.191960 -14.286362  1.584556 0.000201 0.002634
55  -1.855345 6.848201 8.911868  0.643721 -1.614433 -2.214060
56  0.461752 7.791413 26.458838  0.643346 -1.614420 -2.213684
57  0.599219 4.162453 9.540137  -0.024899 -0.027352 -0.026683
time 7
0  0 0 0  0 0 0
1  0.000000 0.000000 0.000000  1.570796 -0.000000 0.000000
2  15.269911 -21.966835 13.863769  0.376992 0.558900 1.434404
3  0.000003 13.479276 0.000002  0.567869 0.000000 -0.000000
4  -0.000000 13.477240 0.000001  -0.587624 -0.213880 0.500301
5  -0.267270 3.664726 -1.953294  -0.096194 -0.052727 -0.400403
6  0.000002 1.180355 -0.000001  -0.033422 -0.016719 -0.440925
7  -0.000000 0.817135 -0.000002  0.007067 -0.010065 -0.256194
8  -0.249422 3.688540 -0.940892  -0.054966 -0.028860 -0.393964
9  0.000001 1.800632 -0.000002  0.004228 0.003292 -0.472103
10  -0.000000 1.243406 0.000004  0.006309 0.001661 -0.328230
11  -0.244727 3.701095 0.087731  0.004244 0.003603 -0.402932
12  0.000003 1.766584 -0.000001  0.003329 -0.002780 -0.523312
13  0.000001 1.189003 -0.000000  -0.016474 -0.006468 -0.416038
14  -0.277239 3.632247 1.274101  0.052687 0.017453 -0.279974
15  -0.000000 1.798494 -0.000003  0.034542 0.015472 -0.421260
16  -0.000000 1.235452 -0.000001  -0.006025 0.006058 -0.203611
17  0.315441 0.857299 0.755943  2.109432 0.373269 1.533784
18  -0.000001 2.265937 0.000000  -0.056797 -0.034690 -0.271734
19  0.000000 1.457810 -0.000002  -0.031121 0.045492 0.001395
20  -1.259682 3.818374 1.286944  0.052687 0.017453 -0.279974
21  -1.226390 3.891693 0.090417  0.004244 0.003603 -0.402932
22  -1.231622 3.875532 -0.958683  -0.054966 -0.028860 -0.393964
23  -1.209918 3.994780 -2.003051  -0.096194 -0.052727 -0.400403
24  0.328906 0.095428 1.403531  2.109432 0.373269 1.533784
25  -3.823400 -10.844843 27.330910  0.442889 0.027153 1.537235
26  -16.870777 -21.834059 7.086506  -1.570796 -0.000000 -1.570796
27  15.269911 -21.966835 13.863769  -0.051945 -0.000000 -1.570796
28  -7.028650 0.743399 -8.093216  0.478507 0.061879 3.113818
29  0.000000 13.479275 0.000000  1.018026 -0.000000 0.000000
30  0.000000 13.477237 0.000000  0.048894 0.019275 0.065334
31  0.267268 3.664727 -1.953292  -0.067893 0.086178 0.802666
32  0.000002 1.180354 0.000000  -0.024201 0.028477 0.843506
33  0.000000 0.817135 0.000001  0.010446 0.006491 0.658839
34  0.249421 3.688542 -0.940889  -0.032371 0.052975 0.932871
35  -0.000001 1.800631 -0.000000  0.000732 -0.005308 1.244337
36  -0.000002 1.243406 -0.000001  0.004815 -0.004401 0.811274
37  0.244725 3.701096 0.087733  0.001305 -0.005412 1.033087
38  0.000001 1.766583 0.000001  0.004298 0.000584 1.084130
39  -0.000002 1.189005 0.000001  -0.010510 0.014239 0.976837
40  0.277238 3.632248 1.274102  0.185107 -0.010184 0.144732
41  0.000001 1.798495 0.000000  0.027685 -0.025810 0.750471
42  -0.000001 1.235451 -0.000001  -0.008036 -0.002903 0.645088
43  -0.315443 0.857301 0.755944  -0.248767 -2.664688 1.150362
44  0.000000 2.265939 -0.000000  -0.039010 0.053923 0.668054
45  0.000000 1.457813 0.000000  -0.054852 0.005358 1.066393
46  1.259680 3.818376 1.286946  0.185107 -0.010184 0.144732
47  1.226390 3.891693 0.090419  0.001305 -0.005412 1.033087
48  1.231622 3.875536 -0.958680  -0.032371 0.052975 0.932871
49  1.209919 3.994782 -2.003047  -0.067893 0.086178 0.802666
50  -0.328906 0.095430 1.403533  -0.248767 -2.664688 1.150362
51  -8.603127 -12.182823 11.515251  1.545520 -0.001848 3.137884
52  -8.110383 -19.738087 0.179033  -1.570796 -0.000000 1.570796
53  -7.028650 0.743399 -8.093216  -0.051945 0.000000 1.570796
54  -7.342360 -14.339636 -14.286362  1.596080 0.003708 0.001848
55  -1.855344 6.848202 8.911866  0.643721 -1.614433 -2.214061
56  0.461753 7.791414 26.458836  0.643346 -1.614420 -2.213684
57  0.599219 4.162452 9.540135  -0.024899 -0.027352 -0.026683
time 8
0  0 0 0  0 0 0
1  0.000000 0.000000 0.000000  1.570796 -0.000000 0.000000
2  15.269911 -21.966835 13.863769  0.389426 0.560940 1.433799
3  0.000002 13.479280 -0.000002  0.546777 0.000000 -0.000000
4  -0.000001 13.477241 0.000001  -0.580483 -0.214373 0.495526
5  -0.267268 3.664726 -1.953294  -0.096194 -0.052727 -0.400403
6  0.000000 1.180355 -0.000003  -0.033422 -0.016719 -0.440925
7  0.000000 0.817135 0.000004  0.007067 -0.010065 -0.256194
8  -0.249421 3.688540 -0.940891  -0.054966 -0.028860 -0.393964
9  0.000001 1.800633 0.000002  0.004228 0.003292 -0.472103
10  0.000001 1.243405 0.000003  0.006309 0.001661 -0.328230
11  -0.244724 3.701095 0.087731  0.004244 0.003603 -0.402932
12  0.000000 1.766583 -0.000003  0.003329 -0.002780 -0.523312
13  0.000000 1.189004 0.000002  -0.016474 -0.006468 -0.416037
14  -0.277238 3.632247 1.274101  0.052687 0.017453 -0.279974
15  0.000001 1.798494 0.000001  0.034542 0.015473 -0.421260
16  -0.000001 1.235451 -0.000003  -0.006025 0.006058 -0.203611
17  0.315443 0.857300 0.755943  2.109433 0.373269 1.533785
18  -0.000001 2.265937 -0.000001  -0.056797 -0.034690 -0.271734
19  -0.000000 1.457812 -0.000002  -0.031121 0.045492 0.001395
20  -1.259681 3.818375 1.286946  0.052687 0.017453 -0.279974
21  -1.226390 3.891693 0.090419  0.004244 0.003603 -0.402931
22  -1.231622 3.875535 -0.958683  -0.054966 -0.028860 -0.393964
23  -1.209918 3.994781 -2.003048  -0.096194 -0.052727 -0.400403
24  0.328907 0.095427 1.403531  2.109432 0.373269 1.533784
25  -3.837588 -10.756328 27.386814  0.441840 0.033677 1.538174
26  -16.870777 -21.834059 7.086506  -1.570796 -0.000000 -1.570796
27  15.269911 -21.966835 13.863769  -0.051945 -0.000000 -1.570796
28  -7.028650 0.743399 -8.093216  0.483933 0.061557 3.113688
29  -0.000000 13.479277 -0.000001  1.008601 -0.000000 0.000000
30  -0.000000 13.477239 -0.000000  0.059427 0.020193 0.064324
31  0.267269 3.664725 -1.953292  -0.067893 0.086178 0.802666
32  0.000001 1.180354 -0.000001  -0.024201 0.028477 0.843506
33  0.000000 0.817135 -0.000000  0.010446 0.006491 0.658839
34  0.249423 3.688540 -0.940889  -0.032371 0.052975 0.932871
35  -0.000003 1.800633 0.000000  0.000732 -0.005308 1.244337
36  -0.000002 1.243408 -0.000000  0.004815 -0.004401 0.811275
37  0.244726 3.701094 0.087733  0.001305 -0.005412 1.033087
38  -0.000002 1.766585 0.000001  0.004298 0.000584 1.084130
39  0.000001 1.189003 0.000001  -0.010510 0.014239 0.976837
40  0.277239 3.632247 1.274102  0.185107 -0.010184 0.144732
41  0.000001 1.798493 -0.000001  0.027685 -0.025810 0.750471
42  0.000001 1.235451 -0.000000  -0.008036 -0.002903 0.645088
43  -0.315441 0.857298 0.755945  -0.248767 -2.664688 1.150362
44  -0.000001 2.265940 0.000001  -0.039010 0.053923 0.668054
45  -0.000001 1.457812 0.000000  -0.054852 0.005358 1.066393
46  1.259682 3.818373 1.286946  0.185107 -0.010184 0.144732
47  1.226390 3.891692 0.090419  0.001305 -0.005412 1.033087
48  1.231622 3.875533 -0.958680  -0.032371 0.052975 0.932871
49  1.209919 3.994781 -2.003047  -0.067893 0.086178 0.802666
50  -0.328906 0.095427 1.403533  -0.248767 -2.664688 1.150362
51  -8.602803 -12.202611 11.576311  1.552073 -0.000995 3.138846
52  -8.110383 -19.738087 0.179033  -1.570796 -0.000000 1.570796
53  -7.028650 0.743399 -8.093216  -0.051945 0.000000 1.570796
54  -7.342360 -14.415470 -14.286362  1.589522 0.002747 0.000995
55  -1.855344 6.848201 8.911864  0.643721 -1.614433 -2.214061
56  0.461752 7.791413 26.458832  0.643346 -1.614420 -2.213684
57  0.599218 4.162450 9.540133  -0.024899 -0.027352 -0.026683
time 9
0  0 0 0  0 0 0
1  0.000000 0.000000 0.000000  1.570796 -0.000000 0.000000
2  15.269911 -21.966835 13.863769  0.400194 0.567685 1.431789
3  0.000000 13.479277 -0.000001  0.525802 0.000000 -0.000000
4  0.000000 13.477240 0.000001  -0.572634 -0.213176 0.490844
5  -0.267270 3.664726 -1.953294  -0.096193 -0.052727 -0.400403
6  0.000000 1.180355 0.000000  -0.033423 -0.016719 -0.440925
7  0.000000 0.817136 0.000002  0.007067 -0.010065 -0.256194
8  -0.249423 3.688541 -0.940888  -0.054966 -0.028860 -0.393964
9  0.000001 1.800633 -0.000000  0.004228 0.003292 -0.472103
10  0.000001 1.243405 -0.000002  0.006309 0.001661 -0.328230
11  -0.244726 3.701095 0.087731  0.004244 0.003603 -0.402932
12  0.000003 1.766585 -0.000002  0.003329 -0.002780 -0.523312
13  -0.000002 1.189004 0.000001  -0.016474 -0.006468 -0.416037
14  -0.277241 3.632248 1.274102  0.052687 0.017453 -0.279974
15  -0.000001 1.798495 -0.000000  0.034542 0.015473 -0.421260
16  0.000001 1.235454 0.000002  -0.006025 0.006058 -0.203611
17  0.315441 0.857300 0.755942  2.109433 0.373269 1.533785
18  0.000000 2.265941 -0.000000  -0.056797 -0.034690 -0.271734
19  0.000000 1.457815 0.000001  -0.031121 0.045492 0.001395
20  -1.259682 3.818375 1.286945  0.052687 0.017453 -0.279974
21  -1.226392 3.891694 0.090421  0.004244 0.003603 -0.402931
22  -1.231624 3.875535 -0.958681  -0.054966 -0.028860 -0.393964
23  -1.209921 3.994781 -2.003048  -0.096194 -0.052727 -0.400403
24  0.328906 0.095428 1.403531  2.109432 0.373269 1.533784
25  -3.852872 -10.592426 27.373169  0.440773 0.045821 1.539925
26  -16.870777 -21.834059 7.086506  -1.570796 -0.000000 -1.570796
27  15.269911 -21.966835 13.863769  -0.051945 -0.000000 -1.570796
28  -7.028650 0.743399 -8.093216  0.484364 0.061600 3.113705
29  -0.000000 13.479277 0.000000  1.005215 -0.000000 0.000000
30  -0.000000 13.477238 -0.000001  0.074535 0.021819 0.063868
31  0.267271 3.664726 -1.953293  -0.067893 0.086178 0.802666
32  0.000000 1.180356 -0.000001  -0.024201 0.028477 0.843506
33  0.000000 0.817134 -0.000001  0.010446 0.006491 0.658839
34  0.249423 3.688542 -0.940890  -0.032371 0.052975 0.932871
35  -0.000002 1.800634 -0.000001  0.000732 -0.005308 1.244337
36  -0.000002 1.243407 -0.000001  0.004815 -0.004401 0.811274
37  0.244727 3.701095 0.087733  0.001305 -0.005412 1.033087
38  0.000000 1.766584 0.000001  0.004298 0.000584 1.084130
39  -0.000002 1.189004 -0.000002  -0.010510 0.014239 0.976837
40  0.277241 3.632249 1.274102  0.185107 -0.010184 0.144732
41  -0.000000 1.798493 0.000000  0.027685 -0.025810 0.750471
42  -0.000003 1.235452 0.000000  -0.008036 -0.002903 0.645088
43  -0.315441 0.857300 0.755944  -0.248767 -2.664688 1.150362
44  0.000001 2.265940 -0.000001  -0.039010 0.053923 0.668054
45  -0.000001 1.457812 0.000000  -0.054851 0.005358 1.066393
46  1.259682 3.818374 1.286946  0.185107 -0.010184 0.144732
47  1.226392 3.891693 0.090419  0.001305 -0.005412 1.033087
48  1.231623 3.875533 -0.958680  -0.032371 0.052975 0.932871
49  1.209920 3.994782 -2.003048  -0.067893 0.086178 0.802666
50  -0.328905 0.095428 1.403532  -0.248767 -2.664688 1.150362
51  -8.604567 -12.239588 11.578255  1.564243 -0.000292 3.140631
52  -8.110383 -19.738087 0.179033  -1.570796 -0.000000 1.570796
53  -7.028650 0.743399 -8.093216  -0.051945 0.000000 1.570796
54  -7.342360 -14.443409 -14.286362  1.577350 0.000961 0.000292
55  -1.855343 6.848203 8.911866  0.643721 -1.614433 -2.214061
56  0.461752 7.791415 26.458834  0.643346 -1.614420 -2.213684
57  0.599219 4.162454 9.540135  -0.024899 -0.027352 -0.026683
time 10
0  0 0 0  0 0 0
1  0.000000 0.000000 0.000000  1.570796 -0.000000 0.000000
2  15.269911 -21.966835 13.863769  0.404882 0.571599 1.430615
3  0.000003 13.479280 0.000000  0.516054 0.000000 -0.000000
4  0.000002 13.477238 -0.000000  -0.568839 -0.212379 0.488715
5  -0.267268 3.664726 -1.953293  -0.096193 -0.052727 -0.400403
6  0.000000 1.180357 0.000001  -0.033422 -0.016719 -0.440925
7  0.000000 0.817134 -0.000001  0.007067 -0.010065 -0.256194
8  -0.249422 3.688541 -0.940891  -0.054966 -0.028860 -0.393964
9  0.000000 1.800635 0.000001  0.004228 0.003292 -0.472103
10  0.000001 1.243407 0.000004  0.006309 0.001661 -0.328230
11  -0.244726 3.701095 0.087731  0.004244 0.003603 -0.402932
12  -0.000000 1.766586 -0.000002  0.003329 -0.002780 -0.523312
13  -0.000000 1.189005 0.000001  -0.016474 -0.006468 -0.416037
14  -0.277239 3.632249 1.274102  0.052687 0.017453 -0.279974
15  0.000002 1.798492 -0.000000  0.034542 0.015473 -0.421260
16  -0.000000 1.235450 -0.000001  -0.006025 0.006058 -0.203611
17  0.315442 0.857301 0.755942  2.109433 0.373269 1.533784
18  -0.000000 2.265936 -0.000001  -0.056797 -0.034690 -0.271734
19  -0.000000 1.457811 0.000003  -0.031121 0.045492 0.001395
20  -1.259680 3.818374 1.286944  0.052687 0.017453 -0.279974
21  -1.226390 3.891692 0.090417  0.004244 0.003603 -0.402932
22  -1.231623 3.875534 -0.958682  -0.054966 -0.028860 -0.393964
23  -1.209919 3.994782 -2.003049  -0.096193 -0.052727 -0.400403
24  0.328906 0.095429 1.403532  2.109432 0.373269 1.533784
25  -3.860201 -10.504416 27.353670  0.440284 0.052363 1.540863
26  -16.870777 -21.834059 7.086506  -1.570796 -0.000000 -1.570796
27  15.269911 -21.966835 13.863769  -0.051945 -0.000000 -1.570796
28  -7.028650 0.743399 -8.093216  0.483663 0.061681 3.113738
29  -0.000001 13.479277 0.000001  1.004753 -0.000000 0.000000
30  -0.000000 13.477238 0.000001  0.082244 0.022688 0.063760
31  0.267269 3.664726 -1.953294  -0.067893 0.086178 0.802666
32  -0.000002 1.180355 -0.000002  -0.024201 0.028477 0.843506
33  0.000001 0.817135 0.000000  0.010446 0.006491 0.658839
34  0.249423 3.688541 -0.940890  -0.032371 0.052975 0.932871
35  0.000000 1.800633 -0.000002  0.000732 -0.005308 1.244337
36  -0.000001 1.243406 -0.000002  0.004815 -0.004401 0.811275
37  0.244726 3.701095 0.087732  0.001305 -0.005412 1.033087
38  -0.000000 1.766584 0.000000  0.004298 0.000584 1.084129
39  0.000000 1.189004 0.000001  -0.010510 0.014239 0.976837
40  0.277239 3.632248 1.274102  0.185107 -0.010184 0.144732
41  -0.000000 1.798495 0.000000  0.027685 -0.025810 0.750471
42  0.000001 1.235451 0.000001  -0.008036 -0.002903 0.645088
43  -0.315442 0.857299 0.755943  -0.248767 -2.664688 1.150362
44  0.000000 2.265939 -0.000001  -0.039010 0.053923 0.668054
45  0.000000 1.457813 0.000000  -0.054852 0.005358 1.066393
46  1.259681 3.818374 1.286945  0.185107 -0.010184 0.144732
47  1.226391 3.891693 0.090418  0.001305 -0.005412 1.033087
48  1.231623 3.875534 -0.958681  -0.032371 0.052975 0.932871
49  1.209919 3.994781 -2.003049  -0.067893 0.086178 0.802666
50  -0.328907 0.095428 1.403532  -0.248767 -2.664688 1.150362
51  -8.605698 -12.259624 11.568533  1.570796 0.000000 -3.141593
52  -8.110383 -19.738087 0.179033  -1.570796 -0.000000 1.570796
53  -7.028650 0.743399 -8.093216  -0.051945 0.000000 1.570796
54  -7.342360 -14.447400 -14.286362  1.570796 -0.000000 0.000000
55  -1.855343 6.848201 8.911866  0.643721 -1.614433 -2.214061
56  0.461752 7.791413 26.458832  0.643346 -1.614420 -2.213684
57  0.599219 4.162452 9.540135  -0.024899 -0.027352 -0.026683
end
