version 1
nodes
0 "blender_implicit" -1
1 "root" -1
2 "upperarm_l" 1
3 "lowerarm_l" 2
4 "hand_l" 3
5 "pinky_0_l" 4
6 "pinky_1_l" 5
7 "pinky_2_l" 6
8 "ring_0_l" 4
9 "ring_1_l" 8
10 "ring_2_l" 9
11 "middle_0_l" 4
12 "middle_1_l" 11
13 "middle_2_l" 12
14 "index_0_l" 4
15 "index_1_l" 14
16 "index_2_l" 15
17 "thumb_0_l" 4
18 "thumb_1_l" 17
19 "thumb_2_l" 18
20 "rig_index_l" 4
21 "rig_middle_l" 4
22 "rig_ring_l" 4
23 "rig_pinky_l" 4
24 "rig_thumb_l" 4
25 "rig_hand_l" 1
26 "rig_l" 1
27 "rig_upperarm_l" 1
28 "upperarm_r" 1
29 "lowerarm_r" 28
30 "hand_r" 29
31 "pinky_0_r" 30
32 "pinky_1_r" 31
33 "pinky_2_r" 32
34 "ring_0_r" 30
35 "ring_1_r" 34
36 "ring_2_r" 35
37 "middle_0_r" 30
38 "middle_1_r" 37
39 "middle_2_r" 38
40 "index_0_r" 30
41 "index_1_r" 40
42 "index_2_r" 41
43 "thumb_0_r" 30
44 "thumb_1_r" 43
45 "thumb_2_r" 44
46 "rig_index_r" 30
47 "rig_middle_r" 30
48 "rig_ring_r" 30
49 "rig_pinky_r" 30
50 "rig_thumb_r" 30
51 "rig_hand_r" 1
52 "rig_r" 1
53 "rig_upperarm_r" 1
end
skeleton
time 0
0  0 0 0  0 0 0
1  0.000000 0.000000 0.000000  1.570796 -0.000000 0.000000
2  6.688313 0.001464 -6.000000  -0.180017 0.981463 -3.105344
3  -0.000000 13.479280 0.000000  0.356810 0.000000 -0.000000
4  -0.000000 13.477240 -0.000000  -0.260936 -0.968770 0.196263
5  -0.267269 3.664727 -1.953293  -0.106568 -0.025893 -0.137951
6  -0.000000 1.180355 -0.000001  -0.036623 -0.007435 -0.177465
7  -0.000001 0.817138 -0.000000  0.004200 -0.011559 0.007420
8  -0.249422 3.688542 -0.940889  -0.060580 -0.013550 -0.130737
9  0.000000 1.800634 -0.000000  0.004940 0.002077 -0.208495
10  0.000001 1.243406 -0.000000  0.006524 -0.000040 -0.064626
11  -0.244726 3.701097 0.087732  0.005036 0.002373 -0.139323
12  0.000000 1.766584 0.000000  0.002490 -0.003552 -0.259702
13  -0.000000 1.189003 0.000000  -0.017590 -0.001952 -0.152464
14  -0.277239 3.632249 1.274102  0.054558 0.010184 -0.144732
15  0.000001 1.798491 -0.000000  0.036314 0.010668 -0.285912
16  -0.000001 1.235453 -0.000000  -0.005152 0.006816 -0.068190
17  0.315441 0.857301 0.755944  1.684115 0.560091 1.563926
18  0.000001 2.265939 -0.000000  -0.057905 -0.032805 -0.238898
19  -0.000001 1.457808 0.000000  -0.029609 0.046490 0.034285
20  -1.259681 3.818376 1.286945  0.054558 0.010184 -0.144732
21  -1.226390 3.891694 0.090419  0.005036 0.002373 -0.139324
22  -1.231623 3.875535 -0.958681  -0.060580 -0.013550 -0.130737
23  -1.209919 3.994782 -2.003048  -0.106568 -0.025893 -0.137951
24  0.328906 0.095429 1.403532  1.684115 0.560091 1.563926
25  7.685551 -26.508362 -6.023971  0.000000 -0.000000 -3.141593
26  20.158314 0.001465 -15.000000  -1.570796 -0.000000 -1.570796
27  6.688313 0.001464 -6.000000  -0.051945 -0.000000 -1.570796
28  -6.584470 -2.598536 -6.097302  0.618839 0.086172 2.904038
29  0.000000 13.479278 -0.000000  1.501682 -0.000000 0.000000
30  -0.000000 13.477240 0.000001  -0.799792 0.114124 0.151202
31  0.267269 3.664725 -1.953293  -0.174603 0.396888 0.692349
32  0.000000 1.180356 -0.000002  -0.024711 0.025798 1.296300
33  0.000001 0.817136 -0.000000  0.012232 0.001270 1.111333
34  0.249423 3.688542 -0.940889  -0.050028 0.197908 0.917566
35  0.000002 1.800633 -0.000001  -0.007162 -0.012483 1.774974
36  -0.000001 1.243408 0.000000  0.004183 -0.005006 0.945407
37  0.244726 3.701094 0.087732  0.012445 0.020003 0.934973
38  -0.000001 1.766584 0.000000  0.006918 0.000685 1.464509
39  -0.000001 1.189003 0.000001  -0.004472 0.017123 1.357249
40  0.277239 3.632246 1.274101  0.065416 -0.152210 0.927372
41  0.000001 1.798494 0.000001  0.022849 -0.016745 1.078746
42  -0.000001 1.235452 0.000001  -0.007143 0.004688 1.572574
43  -0.315441 0.857300 0.755943  -0.623037 -2.717983 1.196723
44  0.000000 2.265940 0.000000  -0.034963 0.056629 0.741260
45  0.000000 1.457813 0.000000  -0.048332 -0.026494 0.468069
46  1.259681 3.818376 1.286945  0.065416 -0.152210 0.927371
47  1.226391 3.891693 0.090419  0.012445 0.020003 0.934972
48  1.231622 3.875533 -0.958680  -0.050028 0.197908 0.917566
49  1.209919 3.994781 -2.003048  -0.174603 0.396888 0.692349
50  -0.328906 0.095428 1.403532  -0.623037 -2.717983 1.196723
51  -9.126427 -6.035383 13.139594  1.311924 -0.102048 2.923054
52  -8.428300 -13.481788 -15.000002  -1.570796 -0.000000 1.570796
53  -6.584470 -2.598536 -6.097302  -0.051945 0.000000 1.570796
time 1
0  0 0 0  0 0 0
1  0.000000 0.000000 0.000000  1.570796 -0.000000 0.000000
2  6.688313 0.001464 -6.000000  -0.180017 0.981463 -3.105344
3  -0.000000 13.479280 0.000000  0.356810 0.000000 -0.000000
4  -0.000000 13.477240 -0.000000  -0.260936 -0.968770 0.196263
5  -0.267269 3.664727 -1.953293  -0.106568 -0.025893 -0.137951
6  -0.000000 1.180355 -0.000001  -0.036623 -0.007435 -0.177465
7  -0.000001 0.817138 -0.000000  0.004200 -0.011559 0.007420
8  -0.249422 3.688542 -0.940889  -0.060580 -0.013550 -0.130737
9  0.000000 1.800634 -0.000000  0.004940 0.002077 -0.208495
10  0.000001 1.243406 -0.000000  0.006524 -0.000040 -0.064626
11  -0.244726 3.701097 0.087732  0.005036 0.002373 -0.139323
12  0.000000 1.766584 0.000000  0.002490 -0.003552 -0.259702
13  -0.000000 1.189003 0.000000  -0.017590 -0.001952 -0.152464
14  -0.277239 3.632249 1.274102  0.054558 0.010184 -0.144732
15  0.000001 1.798491 -0.000000  0.036314 0.010668 -0.285912
16  -0.000001 1.235453 -0.000000  -0.005152 0.006816 -0.068190
17  0.315441 0.857301 0.755944  1.684115 0.560091 1.563926
18  0.000001 2.265939 -0.000000  -0.057905 -0.032805 -0.238898
19  -0.000001 1.457808 0.000000  -0.029609 0.046490 0.034285
20  -1.259681 3.818376 1.286945  0.054558 0.010184 -0.144732
21  -1.226390 3.891694 0.090419  0.005036 0.002373 -0.139324
22  -1.231623 3.875535 -0.958681  -0.060580 -0.013550 -0.130737
23  -1.209919 3.994782 -2.003048  -0.106568 -0.025893 -0.137951
24  0.328906 0.095429 1.403532  1.684115 0.560091 1.563926
25  7.685551 -26.508362 -6.023971  0.000000 -0.000000 -3.141593
26  20.158314 0.001465 -15.000000  -1.570796 -0.000000 -1.570796
27  6.688313 0.001464 -6.000000  -0.051945 -0.000000 -1.570796
28  -6.584470 -2.598536 -6.097302  0.387840 0.043154 2.938934
29  0.000001 13.479275 0.000001  2.016296 -0.000000 0.000000
30  0.000000 13.477238 0.000000  -0.126528 0.481076 -0.231123
31  0.267269 3.664726 -1.953294  -0.174603 0.396888 0.692349
32  0.000000 1.180356 0.000000  -0.024711 0.025798 1.296299
33  0.000000 0.817136 0.000000  0.012232 0.001270 1.111333
34  0.249422 3.688540 -0.940889  -0.050028 0.197908 0.917566
35  -0.000002 1.800634 -0.000000  -0.007162 -0.012483 1.774974
36  0.000000 1.243406 0.000000  0.004183 -0.005006 0.945407
37  0.244726 3.701095 0.087733  0.012445 0.020003 0.934972
38  -0.000001 1.766585 0.000000  0.006918 0.000685 1.464509
39  0.000000 1.189002 -0.000000  -0.004472 0.017123 1.357249
40  0.277237 3.632248 1.274102  0.065416 -0.152210 0.927372
41  -0.000000 1.798494 0.000000  0.022849 -0.016745 1.078747
42  -0.000000 1.235450 -0.000000  -0.007143 0.004688 1.572574
43  -0.315442 0.857300 0.755944  -0.623037 -2.717983 1.196723
44  0.000001 2.265939 -0.000000  -0.034963 0.056629 0.741260
45  0.000000 1.457812 0.000000  -0.048332 -0.026494 0.468069
46  1.259680 3.818375 1.286945  0.065416 -0.152210 0.927372
47  1.226390 3.891693 0.090418  0.012445 0.020003 0.934972
48  1.231622 3.875535 -0.958681  -0.050028 0.197908 0.917566
49  1.209918 3.994782 -2.003049  -0.174603 0.396888 0.692349
50  -0.328907 0.095428 1.403532  -0.623037 -2.717983 1.196723
51  -7.686556 -4.927155 8.048724  -0.838572 -2.972243 0.284538
52  -8.428300 -13.481788 -15.000002  -1.570796 -0.000000 1.570796
53  -6.584470 -2.598536 -6.097302  -0.051945 0.000000 1.570796
time 2
0  0 0 0  0 0 0
1  0.000000 0.000000 0.000000  1.570796 -0.000000 0.000000
2  6.688313 0.001464 -6.000000  -0.180017 0.981463 -3.105344
3  -0.000000 13.479280 0.000000  0.356810 0.000000 -0.000000
4  -0.000000 13.477240 -0.000000  -0.260936 -0.968770 0.196263
5  -0.267269 3.664727 -1.953293  -0.106568 -0.025893 -0.137951
6  -0.000000 1.180355 -0.000001  -0.036623 -0.007435 -0.177465
7  -0.000001 0.817138 -0.000000  0.004200 -0.011559 0.007420
8  -0.249422 3.688542 -0.940889  -0.060580 -0.013550 -0.130737
9  0.000000 1.800634 -0.000000  0.004940 0.002077 -0.208495
10  0.000001 1.243406 -0.000000  0.006524 -0.000040 -0.064626
11  -0.244726 3.701097 0.087732  0.005036 0.002373 -0.139323
12  0.000000 1.766584 0.000000  0.002490 -0.003552 -0.259702
13  -0.000000 1.189003 0.000000  -0.017590 -0.001952 -0.152464
14  -0.277239 3.632249 1.274102  0.054558 0.010184 -0.144732
15  0.000001 1.798491 -0.000000  0.036314 0.010668 -0.285912
16  -0.000001 1.235453 -0.000000  -0.005152 0.006816 -0.068190
17  0.315441 0.857301 0.755944  1.684115 0.560091 1.563926
18  0.000001 2.265939 -0.000000  -0.057905 -0.032805 -0.238898
19  -0.000001 1.457808 0.000000  -0.029609 0.046490 0.034285
20  -1.259681 3.818376 1.286945  0.054558 0.010184 -0.144732
21  -1.226390 3.891694 0.090419  0.005036 0.002373 -0.139324
22  -1.231623 3.875535 -0.958681  -0.060580 -0.013550 -0.130737
23  -1.209919 3.994782 -2.003048  -0.106568 -0.025893 -0.137951
24  0.328906 0.095429 1.403532  1.684115 0.560091 1.563926
25  7.685551 -26.508362 -6.023971  0.000000 -0.000000 -3.141593
26  20.158314 0.001465 -15.000000  -1.570796 -0.000000 -1.570796
27  6.688313 0.001464 -6.000000  -0.051945 -0.000000 -1.570796
28  -6.584470 -2.598536 -6.097302  0.600836 -0.075761 3.035026
29  0.000000 13.479277 0.000000  1.765801 -0.000000 0.000000
30  0.000000 13.477239 -0.000000  0.312157 0.321518 -0.084716
31  0.267270 3.664726 -1.953293  -0.174603 0.396888 0.692349
32  0.000001 1.180355 0.000000  -0.024711 0.025798 1.296299
33  0.000001 0.817135 0.000000  0.012232 0.001270 1.111333
34  0.249423 3.688542 -0.940889  -0.050028 0.197908 0.917566
35  -0.000000 1.800632 0.000001  -0.007162 -0.012483 1.774974
36  0.000000 1.243406 -0.000000  0.004183 -0.005006 0.945407
37  0.244726 3.701096 0.087733  0.012445 0.020003 0.934973
38  -0.000001 1.766584 -0.000001  0.006918 0.000685 1.464509
39  -0.000000 1.189002 -0.000001  -0.004472 0.017123 1.357249
40  0.277239 3.632248 1.274102  0.065416 -0.152210 0.927371
41  -0.000001 1.798495 0.000001  0.022849 -0.016745 1.078746
42  0.000000 1.235450 -0.000001  -0.007143 0.004688 1.572574
43  -0.315441 0.857300 0.755944  -0.623037 -2.717983 1.196723
44  0.000001 2.265939 0.000000  -0.034963 0.056629 0.741260
45  0.000000 1.457811 -0.000000  -0.048332 -0.026494 0.468068
46  1.259681 3.818375 1.286946  0.065416 -0.152210 0.927372
47  1.226391 3.891693 0.090419  0.012445 0.020003 0.934972
48  1.231623 3.875535 -0.958680  -0.050028 0.197908 0.917566
49  1.209919 3.994781 -2.003047  -0.174603 0.396888 0.692349
50  -0.328906 0.095429 1.403533  -0.623037 -2.717983 1.196723
51  -5.459818 -4.217255 10.903261  -0.495726 -2.898539 0.184415
52  -8.428300 -13.481788 -15.000002  -1.570796 -0.000000 1.570796
53  -6.584470 -2.598536 -6.097302  -0.051945 0.000000 1.570796
time 3
0  0 0 0  0 0 0
1  0.000000 0.000000 0.000000  1.570796 -0.000000 0.000000
2  6.688313 0.001464 -6.000000  -0.180017 0.981463 -3.105344
3  -0.000000 13.479280 0.000000  0.356810 0.000000 -0.000000
4  -0.000000 13.477240 -0.000000  -0.260936 -0.968770 0.196263
5  -0.267269 3.664727 -1.953293  -0.106568 -0.025893 -0.137951
6  -0.000000 1.180355 -0.000001  -0.036623 -0.007435 -0.177465
7  -0.000001 0.817138 -0.000000  0.004200 -0.011559 0.007420
8  -0.249422 3.688542 -0.940889  -0.060580 -0.013550 -0.130737
9  0.000000 1.800634 -0.000000  0.004940 0.002077 -0.208495
10  0.000001 1.243406 -0.000000  0.006524 -0.000040 -0.064626
11  -0.244726 3.701097 0.087732  0.005036 0.002373 -0.139323
12  0.000000 1.766584 0.000000  0.002490 -0.003552 -0.259702
13  -0.000000 1.189003 0.000000  -0.017590 -0.001952 -0.152464
14  -0.277239 3.632249 1.274102  0.054558 0.010184 -0.144732
15  0.000001 1.798491 -0.000000  0.036314 0.010668 -0.285912
16  -0.000001 1.235453 -0.000000  -0.005152 0.006816 -0.068190
17  0.315441 0.857301 0.755944  1.684115 0.560091 1.563926
18  0.000001 2.265939 -0.000000  -0.057905 -0.032805 -0.238898
19  -0.000001 1.457808 0.000000  -0.029609 0.046490 0.034285
20  -1.259681 3.818376 1.286945  0.054558 0.010184 -0.144732
21  -1.226390 3.891694 0.090419  0.005036 0.002373 -0.139324
22  -1.231623 3.875535 -0.958681  -0.060580 -0.013550 -0.130737
23  -1.209919 3.994782 -2.003048  -0.106568 -0.025893 -0.137951
24  0.328906 0.095429 1.403532  1.684115 0.560091 1.563926
25  7.685551 -26.508362 -6.023971  0.000000 -0.000000 -3.141593
26  20.158314 0.001465 -15.000000  -1.570796 -0.000000 -1.570796
27  6.688313 0.001464 -6.000000  -0.051945 -0.000000 -1.570796
28  -6.584470 -2.598536 -6.097302  1.305192 -0.091338 3.047707
29  0.000000 13.479276 -0.000000  0.386405 0.000000 0.000000
30  0.000001 13.477239 0.000000  -0.875965 -0.327319 0.061979
31  0.267270 3.664726 -1.953293  -0.174603 0.396888 0.692349
32  0.000000 1.180354 -0.000000  -0.024711 0.025798 1.296299
33  -0.000000 0.817135 0.000000  0.012232 0.001270 1.111333
34  0.249423 3.688540 -0.940890  -0.050028 0.197908 0.917566
35  0.000000 1.800633 -0.000002  -0.007162 -0.012483 1.774974
36  0.000001 1.243407 -0.000000  0.004183 -0.005006 0.945407
37  0.244726 3.701094 0.087732  0.012445 0.020003 0.934973
38  -0.000000 1.766586 0.000000  0.006918 0.000685 1.464509
39  0.000001 1.189002 0.000001  -0.004472 0.017123 1.357249
40  0.277239 3.632247 1.274102  0.065416 -0.152210 0.927371
41  0.000000 1.798495 0.000001  0.022849 -0.016745 1.078747
42  0.000000 1.235451 0.000001  -0.007143 0.004688 1.572574
43  -0.315441 0.857298 0.755942  -0.623037 -2.717983 1.196723
44  0.000001 2.265941 -0.000001  -0.034964 0.056629 0.741260
45  0.000000 1.457809 -0.000000  -0.048332 -0.026494 0.468069
46  1.259681 3.818372 1.286945  0.065416 -0.152210 0.927371
47  1.226390 3.891691 0.090417  0.012445 0.020003 0.934972
48  1.231622 3.875532 -0.958683  -0.050028 0.197908 0.917566
49  1.209918 3.994779 -2.003050  -0.174603 0.396888 0.692349
50  -0.328906 0.095427 1.403532  -0.623037 -2.717983 1.196723
51  -4.367853 -4.729809 20.178205  0.859072 -0.105798 2.713453
52  -8.428300 -13.481788 -15.000002  -1.570796 -0.000000 1.570796
53  -6.584470 -2.598536 -6.097302  -0.051945 0.000000 1.570796
time 4
0  0 0 0  0 0 0
1  0.000000 0.000000 0.000000  1.570796 -0.000000 0.000000
2  6.688313 0.001464 -6.000000  -0.180017 0.981463 -3.105344
3  -0.000000 13.479280 0.000000  0.356810 0.000000 -0.000000
4  -0.000000 13.477240 -0.000000  -0.260936 -0.968770 0.196263
5  -0.267269 3.664727 -1.953293  -0.106568 -0.025893 -0.137951
6  -0.000000 1.180355 -0.000001  -0.036623 -0.007435 -0.177465
7  -0.000001 0.817138 -0.000000  0.004200 -0.011559 0.007420
8  -0.249422 3.688542 -0.940889  -0.060580 -0.013550 -0.130737
9  0.000000 1.800634 -0.000000  0.004940 0.002077 -0.208495
10  0.000001 1.243406 -0.000000  0.006524 -0.000040 -0.064626
11  -0.244726 3.701097 0.087732  0.005036 0.002373 -0.139323
12  0.000000 1.766584 0.000000  0.002490 -0.003552 -0.259702
13  -0.000000 1.189003 0.000000  -0.017590 -0.001952 -0.152464
14  -0.277239 3.632249 1.274102  0.054558 0.010184 -0.144732
15  0.000001 1.798491 -0.000000  0.036314 0.010668 -0.285912
16  -0.000001 1.235453 -0.000000  -0.005152 0.006816 -0.068190
17  0.315441 0.857301 0.755944  1.684115 0.560091 1.563926
18  0.000001 2.265939 -0.000000  -0.057905 -0.032805 -0.238898
19  -0.000001 1.457808 0.000000  -0.029609 0.046490 0.034285
20  -1.259681 3.818376 1.286945  0.054558 0.010184 -0.144732
21  -1.226390 3.891694 0.090419  0.005036 0.002373 -0.139324
22  -1.231623 3.875535 -0.958681  -0.060580 -0.013550 -0.130737
23  -1.209919 3.994782 -2.003048  -0.106568 -0.025893 -0.137951
24  0.328906 0.095429 1.403532  1.684115 0.560091 1.563926
25  7.685551 -26.508362 -6.023971  0.000000 -0.000000 -3.141593
26  20.158314 0.001465 -15.000000  -1.570796 -0.000000 -1.570796
27  6.688313 0.001464 -6.000000  -0.051945 -0.000000 -1.570796
28  -6.584470 -2.598536 -6.097302  1.173684 -0.091099 3.047512
29  0.000000 13.479275 -0.000000  0.587548 -0.000000 0.000000
30  -0.000000 13.477237 -0.000000  -0.446601 -0.194340 -0.069054
31  0.267269 3.664731 -1.953292  -0.174603 0.396888 0.692349
32  0.000000 1.180354 0.000000  -0.024711 0.025798 1.296299
33  -0.000002 0.817136 -0.000001  0.012232 0.001270 1.111333
34  0.249422 3.688545 -0.940888  -0.050028 0.197908 0.917566
35  -0.000000 1.800635 0.000000  -0.007162 -0.012483 1.774974
36  -0.000001 1.243406 0.000001  0.004183 -0.005006 0.945407
37  0.244726 3.701098 0.087732  0.012445 0.020003 0.934973
38  -0.000001 1.766584 -0.000000  0.006918 0.000685 1.464509
39  -0.000000 1.189005 0.000000  -0.004472 0.017123 1.357249
40  0.277239 3.632249 1.274101  0.065416 -0.152210 0.927371
41  0.000000 1.798495 -0.000000  0.022849 -0.016745 1.078747
42  -0.000005 1.235453 -0.000001  -0.007143 0.004688 1.572574
43  -0.315441 0.857302 0.755944  -0.623037 -2.717983 1.196723
44  -0.000002 2.265939 -0.000001  -0.034963 0.056629 0.741260
45  -0.000000 1.457811 0.000000  -0.048332 -0.026494 0.468069
46  1.259681 3.818377 1.286945  0.065416 -0.152210 0.927371
47  1.226391 3.891696 0.090419  0.012445 0.020003 0.934972
48  1.231622 3.875537 -0.958680  -0.050028 0.197908 0.917566
49  1.209919 3.994782 -2.003049  -0.174603 0.396888 0.692349
50  -0.328906 0.095430 1.403532  -0.623037 -2.717983 1.196723
51  -4.510176 -5.468215 19.459913  1.314816 0.013556 2.869748
52  -8.428300 -13.481788 -15.000002  -1.570796 -0.000000 1.570796
53  -6.584470 -2.598536 -6.097302  -0.051945 0.000000 1.570796
time 5
0  0 0 0  0 0 0
1  0.000000 0.000000 0.000000  1.570796 -0.000000 0.000000
2  6.688313 0.001464 -6.000000  -0.180017 0.981463 -3.105344
3  -0.000000 13.479280 0.000000  0.356810 0.000000 -0.000000
4  -0.000000 13.477240 -0.000000  -0.260936 -0.968770 0.196263
5  -0.267269 3.664727 -1.953293  -0.106568 -0.025893 -0.137951
6  -0.000000 1.180355 -0.000001  -0.036623 -0.007435 -0.177465
7  -0.000001 0.817138 -0.000000  0.004200 -0.011559 0.007420
8  -0.249422 3.688542 -0.940889  -0.060580 -0.013550 -0.130737
9  0.000000 1.800634 -0.000000  0.004940 0.002077 -0.208495
10  0.000001 1.243406 -0.000000  0.006524 -0.000040 -0.064626
11  -0.244726 3.701097 0.087732  0.005036 0.002373 -0.139323
12  0.000000 1.766584 0.000000  0.002490 -0.003552 -0.259702
13  -0.000000 1.189003 0.000000  -0.017590 -0.001952 -0.152464
14  -0.277239 3.632249 1.274102  0.054558 0.010184 -0.144732
15  0.000001 1.798491 -0.000000  0.036314 0.010668 -0.285912
16  -0.000001 1.235453 -0.000000  -0.005152 0.006816 -0.068190
17  0.315441 0.857301 0.755944  1.684115 0.560091 1.563926
18  0.000001 2.265939 -0.000000  -0.057905 -0.032805 -0.238898
19  -0.000001 1.457808 0.000000  -0.029609 0.046490 0.034285
20  -1.259681 3.818376 1.286945  0.054558 0.010184 -0.144732
21  -1.226390 3.891694 0.090419  0.005036 0.002373 -0.139324
22  -1.231623 3.875535 -0.958681  -0.060580 -0.013550 -0.130737
23  -1.209919 3.994782 -2.003048  -0.106568 -0.025893 -0.137951
24  0.328906 0.095429 1.403532  1.684115 0.560091 1.563926
25  7.685551 -26.508362 -6.023971  0.000000 -0.000000 -3.141593
26  20.158314 0.001465 -15.000000  -1.570796 -0.000000 -1.570796
27  6.688313 0.001464 -6.000000  -0.051945 -0.000000 -1.570796
28  -6.584470 -2.598536 -6.097302  1.003349 -0.083789 3.041556
29  0.000000 13.479275 0.000000  0.867613 -0.000000 0.000000
30  -0.000000 13.477240 0.000001  -0.418001 0.125605 -0.040212
31  0.267269 3.664725 -1.953292  -0.174603 0.396888 0.692349
32  0.000000 1.180355 0.000001  -0.024711 0.025798 1.296299
33  -0.000001 0.817136 -0.000001  0.012232 0.001270 1.111333
34  0.249423 3.688541 -0.940888  -0.050028 0.197908 0.917566
35  -0.000000 1.800635 0.000001  -0.007162 -0.012483 1.774974
36  0.000000 1.243406 -0.000001  0.004183 -0.005006 0.945407
37  0.244726 3.701094 0.087733  0.012445 0.020003 0.934972
38  -0.000001 1.766585 0.000000  0.006918 0.000685 1.464509
39  0.000002 1.189005 -0.000000  -0.004472 0.017123 1.357249
40  0.277240 3.632248 1.274102  0.065416 -0.152210 0.927371
41  -0.000002 1.798495 0.000000  0.022849 -0.016745 1.078747
42  0.000001 1.235451 0.000000  -0.007143 0.004688 1.572574
43  -0.315441 0.857300 0.755944  -0.623037 -2.717983 1.196723
44  -0.000000 2.265939 -0.000000  -0.034963 0.056629 0.741260
45  -0.000000 1.457810 0.000001  -0.048332 -0.026494 0.468069
46  1.259681 3.818375 1.286946  0.065416 -0.152210 0.927371
47  1.226391 3.891693 0.090419  0.012445 0.020003 0.934972
48  1.231623 3.875533 -0.958679  -0.050028 0.197908 0.917566
49  1.209919 3.994780 -2.003047  -0.174603 0.396887 0.692349
50  -0.328906 0.095427 1.403533  -0.623037 -2.717983 1.196723
51  -4.891422 -6.044748 18.058582  1.444521 -0.082001 -3.109334
52  -8.428300 -13.481788 -15.000002  -1.570796 -0.000000 1.570796
53  -6.584470 -2.598536 -6.097302  -0.051945 0.000000 1.570796
time 6
0  0 0 0  0 0 0
1  0.000000 0.000000 0.000000  1.570796 -0.000000 0.000000
2  6.688313 0.001464 -6.000000  -0.180017 0.981463 -3.105344
3  -0.000000 13.479280 0.000000  0.356810 0.000000 -0.000000
4  -0.000000 13.477240 -0.000000  -0.260936 -0.968770 0.196263
5  -0.267269 3.664727 -1.953293  -0.106568 -0.025893 -0.137951
6  -0.000000 1.180355 -0.000001  -0.036623 -0.007435 -0.177465
7  -0.000001 0.817138 -0.000000  0.004200 -0.011559 0.007420
8  -0.249422 3.688542 -0.940889  -0.060580 -0.013550 -0.130737
9  0.000000 1.800634 -0.000000  0.004940 0.002077 -0.208495
10  0.000001 1.243406 -0.000000  0.006524 -0.000040 -0.064626
11  -0.244726 3.701097 0.087732  0.005036 0.002373 -0.139323
12  0.000000 1.766584 0.000000  0.002490 -0.003552 -0.259702
13  -0.000000 1.189003 0.000000  -0.017590 -0.001952 -0.152464
14  -0.277239 3.632249 1.274102  0.054558 0.010184 -0.144732
15  0.000001 1.798491 -0.000000  0.036314 0.010668 -0.285912
16  -0.000001 1.235453 -0.000000  -0.005152 0.006816 -0.068190
17  0.315441 0.857301 0.755944  1.684115 0.560091 1.563926
18  0.000001 2.265939 -0.000000  -0.057905 -0.032805 -0.238898
19  -0.000001 1.457808 0.000000  -0.029609 0.046490 0.034285
20  -1.259681 3.818376 1.286945  0.054558 0.010184 -0.144732
21  -1.226390 3.891694 0.090419  0.005036 0.002373 -0.139324
22  -1.231623 3.875535 -0.958681  -0.060580 -0.013550 -0.130737
23  -1.209919 3.994782 -2.003048  -0.106568 -0.025893 -0.137951
24  0.328906 0.095429 1.403532  1.684115 0.560091 1.563926
25  7.685551 -26.508362 -6.023971  0.000000 -0.000000 -3.141593
26  20.158314 0.001465 -15.000000  -1.570796 -0.000000 -1.570796
27  6.688313 0.001464 -6.000000  -0.051945 -0.000000 -1.570796
28  -6.584470 -2.598536 -6.097302  0.909141 -0.066905 3.027834
29  -0.000000 13.479278 -0.000000  1.020298 -0.000000 0.000000
30  0.000001 13.477237 -0.000002  -0.422223 0.329680 -0.000009
31  0.267270 3.664727 -1.953293  -0.174603 0.396887 0.692349
32  -0.000001 1.180355 0.000001  -0.024711 0.025798 1.296299
33  -0.000002 0.817136 0.000001  0.012232 0.001270 1.111333
34  0.249423 3.688543 -0.940889  -0.050028 0.197907 0.917566
35  -0.000000 1.800633 -0.000001  -0.007162 -0.012483 1.774974
36  0.000000 1.243406 0.000000  0.004183 -0.005006 0.945407
37  0.244727 3.701093 0.087732  0.012445 0.020003 0.934973
38  0.000002 1.766586 0.000000  0.006918 0.000685 1.464509
39  0.000002 1.189002 0.000000  -0.004472 0.017123 1.357249
40  0.277240 3.632248 1.274101  0.065416 -0.152210 0.927371
41  0.000003 1.798495 -0.000000  0.022849 -0.016745 1.078747
42  -0.000000 1.235454 -0.000000  -0.007143 0.004688 1.572574
43  -0.315440 0.857300 0.755943  -0.623037 -2.717983 1.196723
44  -0.000001 2.265940 -0.000000  -0.034963 0.056629 0.741260
45  0.000000 1.457809 -0.000000  -0.048332 -0.026494 0.468069
46  1.259681 3.818373 1.286944  0.065416 -0.152210 0.927372
47  1.226391 3.891693 0.090418  0.012445 0.020003 0.934972
48  1.231624 3.875535 -0.958680  -0.050028 0.197908 0.917566
49  1.209920 3.994782 -2.003048  -0.174603 0.396887 0.692349
50  -0.328905 0.095428 1.403532  -0.623037 -2.717983 1.196723
51  -5.443018 -6.303446 17.104532  1.468676 -0.177558 -2.942274
52  -8.428300 -13.481788 -15.000002  -1.570796 -0.000000 1.570796
53  -6.584470 -2.598536 -6.097302  -0.051945 0.000000 1.570796
time 7
0  0 0 0  0 0 0
1  0.000000 0.000000 0.000000  1.570796 -0.000000 0.000000
2  6.688313 0.001464 -6.000000  -0.180017 0.981463 -3.105344
3  -0.000000 13.479280 0.000000  0.356810 0.000000 -0.000000
4  -0.000000 13.477240 -0.000000  -0.260936 -0.968770 0.196263
5  -0.267269 3.664727 -1.953293  -0.106568 -0.025893 -0.137951
6  -0.000000 1.180355 -0.000001  -0.036623 -0.007435 -0.177465
7  -0.000001 0.817138 -0.000000  0.004200 -0.011559 0.007420
8  -0.249422 3.688542 -0.940889  -0.060580 -0.013550 -0.130737
9  0.000000 1.800634 -0.000000  0.004940 0.002077 -0.208495
10  0.000001 1.243406 -0.000000  0.006524 -0.000040 -0.064626
11  -0.244726 3.701097 0.087732  0.005036 0.002373 -0.139323
12  0.000000 1.766584 0.000000  0.002490 -0.003552 -0.259702
13  -0.000000 1.189003 0.000000  -0.017590 -0.001952 -0.152464
14  -0.277239 3.632249 1.274102  0.054558 0.010184 -0.144732
15  0.000001 1.798491 -0.000000  0.036314 0.010668 -0.285912
16  -0.000001 1.235453 -0.000000  -0.005152 0.006816 -0.068190
17  0.315441 0.857301 0.755944  1.684115 0.560091 1.563926
18  0.000001 2.265939 -0.000000  -0.057905 -0.032805 -0.238898
19  -0.000001 1.457808 0.000000  -0.029609 0.046490 0.034285
20  -1.259681 3.818376 1.286945  0.054558 0.010184 -0.144732
21  -1.226390 3.891694 0.090419  0.005036 0.002373 -0.139324
22  -1.231623 3.875535 -0.958681  -0.060580 -0.013550 -0.130737
23  -1.209919 3.994782 -2.003048  -0.106568 -0.025893 -0.137951
24  0.328906 0.095429 1.403532  1.684115 0.560091 1.563926
25  7.685551 -26.508362 -6.023971  0.000000 -0.000000 -3.141593
26  20.158314 0.001465 -15.000000  -1.570796 -0.000000 -1.570796
27  6.688313 0.001464 -6.000000  -0.051945 -0.000000 -1.570796
28  -6.584470 -2.598536 -6.097302  0.882010 -0.042753 3.008276
29  0.000001 13.479276 0.000000  1.062918 -0.000000 0.000000
30  -0.000000 13.477238 0.000001  -0.404509 0.319045 0.023249
31  0.267270 3.664727 -1.953292  -0.174603 0.396888 0.692349
32  -0.000001 1.180356 0.000000  -0.024711 0.025798 1.296299
33  -0.000001 0.817137 -0.000001  0.012232 0.001270 1.111333
34  0.249423 3.688542 -0.940889  -0.050028 0.197908 0.917566
35  0.000000 1.800633 0.000001  -0.007162 -0.012483 1.774974
36  0.000000 1.243403 -0.000000  0.004183 -0.005006 0.945407
37  0.244727 3.701095 0.087733  0.012445 0.020003 0.934973
38  0.000001 1.766584 -0.000001  0.006918 0.000685 1.464509
39  0.000001 1.189005 -0.000000  -0.004472 0.017123 1.357249
40  0.277240 3.632249 1.274103  0.065416 -0.152210 0.927372
41  0.000002 1.798495 -0.000000  0.022849 -0.016745 1.078746
42  -0.000002 1.235450 0.000001  -0.007143 0.004688 1.572573
43  -0.315441 0.857299 0.755944  -0.623037 -2.717983 1.196723
44  -0.000000 2.265940 -0.000001  -0.034964 0.056629 0.741260
45  -0.000001 1.457814 -0.000001  -0.048332 -0.026494 0.468069
46  1.259682 3.818377 1.286947  0.065416 -0.152210 0.927371
47  1.226391 3.891693 0.090420  0.012445 0.020003 0.934972
48  1.231624 3.875535 -0.958680  -0.050028 0.197907 0.917566
49  1.209919 3.994782 -2.003047  -0.174603 0.396888 0.692349
50  -0.328906 0.095428 1.403533  -0.623037 -2.717983 1.196723
51  -6.096386 -6.338562 16.831938  1.504368 -0.176542 -2.982378
52  -8.428300 -13.481788 -15.000002  -1.570796 -0.000000 1.570796
53  -6.584470 -2.598536 -6.097302  -0.051945 0.000000 1.570796
time 8
0  0 0 0  0 0 0
1  0.000000 0.000000 0.000000  1.570796 -0.000000 0.000000
2  6.688313 0.001464 -6.000000  -0.180017 0.981463 -3.105344
3  -0.000000 13.479280 0.000000  0.356810 0.000000 -0.000000
4  -0.000000 13.477240 -0.000000  -0.260936 -0.968770 0.196263
5  -0.267269 3.664727 -1.953293  -0.106568 -0.025893 -0.137951
6  -0.000000 1.180355 -0.000001  -0.036623 -0.007435 -0.177465
7  -0.000001 0.817138 -0.000000  0.004200 -0.011559 0.007420
8  -0.249422 3.688542 -0.940889  -0.060580 -0.013550 -0.130737
9  0.000000 1.800634 -0.000000  0.004940 0.002077 -0.208495
10  0.000001 1.243406 -0.000000  0.006524 -0.000040 -0.064626
11  -0.244726 3.701097 0.087732  0.005036 0.002373 -0.139323
12  0.000000 1.766584 0.000000  0.002490 -0.003552 -0.259702
13  -0.000000 1.189003 0.000000  -0.017590 -0.001952 -0.152464
14  -0.277239 3.632249 1.274102  0.054558 0.010184 -0.144732
15  0.000001 1.798491 -0.000000  0.036314 0.010668 -0.285912
16  -0.000001 1.235453 -0.000000  -0.005152 0.006816 -0.068190
17  0.315441 0.857301 0.755944  1.684115 0.560091 1.563926
18  0.000001 2.265939 -0.000000  -0.057905 -0.032805 -0.238898
19  -0.000001 1.457808 0.000000  -0.029609 0.046490 0.034285
20  -1.259681 3.818376 1.286945  0.054558 0.010184 -0.144732
21  -1.226390 3.891694 0.090419  0.005036 0.002373 -0.139324
22  -1.231623 3.875535 -0.958681  -0.060580 -0.013550 -0.130737
23  -1.209919 3.994782 -2.003048  -0.106568 -0.025893 -0.137951
24  0.328906 0.095429 1.403532  1.684115 0.560091 1.563926
25  7.685551 -26.508362 -6.023971  0.000000 -0.000000 -3.141593
26  20.158314 0.001465 -15.000000  -1.570796 -0.000000 -1.570796
27  6.688313 0.001464 -6.000000  -0.051945 -0.000000 -1.570796
28  -6.584470 -2.598536 -6.097302  0.866529 -0.016728 2.987261
29  0.000000 13.479275 -0.000000  1.083194 -0.000000 0.000000
30  -0.000000 13.477239 0.000000  -0.362087 0.265364 0.066108
31  0.267270 3.664728 -1.953293  -0.174603 0.396888 0.692349
32  0.000000 1.180356 0.000001  -0.024711 0.025798 1.296300
33  0.000000 0.817135 0.000001  0.012232 0.001270 1.111333
34  0.249422 3.688541 -0.940889  -0.050028 0.197908 0.917566
35  0.000001 1.800633 0.000001  -0.007162 -0.012483 1.774974
36  0.000000 1.243403 0.000001  0.004183 -0.005006 0.945407
37  0.244727 3.701095 0.087733  0.012445 0.020003 0.934973
38  -0.000000 1.766584 -0.000000  0.006918 0.000685 1.464509
39  0.000000 1.189006 0.000000  -0.004472 0.017123 1.357249
40  0.277240 3.632250 1.274102  0.065416 -0.152210 0.927372
41  0.000001 1.798494 -0.000001  0.022849 -0.016745 1.078747
42  0.000000 1.235455 -0.000000  -0.007143 0.004688 1.572574
43  -0.315440 0.857303 0.755943  -0.623037 -2.717983 1.196723
44  -0.000002 2.265940 -0.000000  -0.034964 0.056629 0.741260
45  0.000000 1.457810 0.000000  -0.048332 -0.026494 0.468068
46  1.259681 3.818375 1.286946  0.065416 -0.152210 0.927372
47  1.226392 3.891695 0.090419  0.012445 0.020003 0.934972
48  1.231624 3.875535 -0.958680  -0.050028 0.197908 0.917566
49  1.209919 3.994782 -2.003048  -0.174603 0.396888 0.692349
50  -0.328905 0.095430 1.403533  -0.623037 -2.717983 1.196723
51  -6.782948 -6.354607 16.691959  -1.584302 -2.968401 0.070987
52  -8.428300 -13.481788 -15.000002  -1.570796 -0.000000 1.570796
53  -6.584470 -2.598536 -6.097302  -0.051945 0.000000 1.570796
time 9
0  0 0 0  0 0 0
1  0.000000 0.000000 0.000000  1.570796 -0.000000 0.000000
2  6.688313 0.001464 -6.000000  -0.180017 0.981463 -3.105344
3  -0.000000 13.479280 0.000000  0.356810 0.000000 -0.000000
4  -0.000000 13.477240 -0.000000  -0.260936 -0.968770 0.196263
5  -0.267269 3.664727 -1.953293  -0.106568 -0.025893 -0.137951
6  -0.000000 1.180355 -0.000001  -0.036623 -0.007435 -0.177465
7  -0.000001 0.817138 -0.000000  0.004200 -0.011559 0.007420
8  -0.249422 3.688542 -0.940889  -0.060580 -0.013550 -0.130737
9  0.000000 1.800634 -0.000000  0.004940 0.002077 -0.208495
10  0.000001 1.243406 -0.000000  0.006524 -0.000040 -0.064626
11  -0.244726 3.701097 0.087732  0.005036 0.002373 -0.139323
12  0.000000 1.766584 0.000000  0.002490 -0.003552 -0.259702
13  -0.000000 1.189003 0.000000  -0.017590 -0.001952 -0.152464
14  -0.277239 3.632249 1.274102  0.054558 0.010184 -0.144732
15  0.000001 1.798491 -0.000000  0.036314 0.010668 -0.285912
16  -0.000001 1.235453 -0.000000  -0.005152 0.006816 -0.068190
17  0.315441 0.857301 0.755944  1.684115 0.560091 1.563926
18  0.000001 2.265939 -0.000000  -0.057905 -0.032805 -0.238898
19  -0.000001 1.457808 0.000000  -0.029609 0.046490 0.034285
20  -1.259681 3.818376 1.286945  0.054558 0.010184 -0.144732
21  -1.226390 3.891694 0.090419  0.005036 0.002373 -0.139324
22  -1.231623 3.875535 -0.958681  -0.060580 -0.013550 -0.130737
23  -1.209919 3.994782 -2.003048  -0.106568 -0.025893 -0.137951
24  0.328906 0.095429 1.403532  1.684115 0.560091 1.563926
25  7.685551 -26.508362 -6.023971  0.000000 -0.000000 -3.141593
26  20.158314 0.001465 -15.000000  -1.570796 -0.000000 -1.570796
27  6.688313 0.001464 -6.000000  -0.051945 -0.000000 -1.570796
28  -6.584470 -2.598536 -6.097302  0.858892 0.008096 2.967237
29  0.000001 13.479277 -0.000001  1.088223 -0.000000 0.000000
30  -0.000001 13.477239 0.000001  -0.317957 0.209013 0.107816
31  0.267269 3.664724 -1.953293  -0.174603 0.396888 0.692349
32  0.000000 1.180356 -0.000000  -0.024711 0.025798 1.296299
33  -0.000002 0.817138 0.000000  0.012232 0.001270 1.111333
34  0.249423 3.688539 -0.940889  -0.050028 0.197908 0.917566
35  0.000000 1.800634 0.000000  -0.007162 -0.012483 1.774974
36  -0.000000 1.243406 -0.000000  0.004183 -0.005006 0.945407
37  0.244727 3.701094 0.087733  0.012445 0.020003 0.934972
38  0.000000 1.766584 0.000000  0.006918 0.000685 1.464509
39  -0.000000 1.189004 -0.000000  -0.004472 0.017123 1.357249
40  0.277239 3.632246 1.274102  0.065416 -0.152210 0.927371
41  0.000001 1.798495 0.000000  0.022849 -0.016745 1.078747
42  -0.000001 1.235450 0.000000  -0.007143 0.004688 1.572574
43  -0.315441 0.857299 0.755944  -0.623037 -2.717983 1.196723
44  0.000000 2.265939 -0.000000  -0.034963 0.056629 0.741260
45  -0.000000 1.457812 0.000000  -0.048332 -0.026494 0.468068
46  1.259682 3.818374 1.286946  0.065416 -0.152210 0.927371
47  1.226391 3.891691 0.090419  0.012445 0.020003 0.934972
48  1.231623 3.875532 -0.958681  -0.050028 0.197908 0.917566
49  1.209919 3.994780 -2.003048  -0.174603 0.396888 0.692349
50  -0.328906 0.095428 1.403532  -0.623037 -2.717983 1.196723
51  -7.434128 -6.361001 16.640387  -1.536303 -2.974543 -0.017241
52  -8.428300 -13.481788 -15.000002  -1.570796 -0.000000 1.570796
53  -6.584470 -2.598536 -6.097302  -0.051945 0.000000 1.570796
time 10
0  0 0 0  0 0 0
1  0.000000 0.000000 0.000000  1.570796 -0.000000 0.000000
2  6.688313 0.001464 -6.000000  -0.180017 0.981463 -3.105344
3  -0.000000 13.479280 0.000000  0.356810 0.000000 -0.000000
4  -0.000000 13.477240 -0.000000  -0.260936 -0.968770 0.196263
5  -0.267269 3.664727 -1.953293  -0.106568 -0.025893 -0.137951
6  -0.000000 1.180355 -0.000001  -0.036623 -0.007435 -0.177465
7  -0.000001 0.817138 -0.000000  0.004200 -0.011559 0.007420
8  -0.249422 3.688542 -0.940889  -0.060580 -0.013550 -0.130737
9  0.000000 1.800634 -0.000000  0.004940 0.002077 -0.208495
10  0.000001 1.243406 -0.000000  0.006524 -0.000040 -0.064626
11  -0.244726 3.701097 0.087732  0.005036 0.002373 -0.139323
12  0.000000 1.766584 0.000000  0.002490 -0.003552 -0.259702
13  -0.000000 1.189003 0.000000  -0.017590 -0.001952 -0.152464
14  -0.277239 3.632249 1.274102  0.054558 0.010184 -0.144732
15  0.000001 1.798491 -0.000000  0.036314 0.010668 -0.285912
16  -0.000001 1.235453 -0.000000  -0.005152 0.006816 -0.068190
17  0.315441 0.857301 0.755944  1.684115 0.560091 1.563926
18  0.000001 2.265939 -0.000000  -0.057905 -0.032805 -0.238898
19  -0.000001 1.457808 0.000000  -0.029609 0.046490 0.034285
20  -1.259681 3.818376 1.286945  0.054558 0.010184 -0.144732
21  -1.226390 3.891694 0.090419  0.005036 0.002373 -0.139324
22  -1.231623 3.875535 -0.958681  -0.060580 -0.013550 -0.130737
23  -1.209919 3.994782 -2.003048  -0.106568 -0.025893 -0.137951
24  0.328906 0.095429 1.403532  1.684115 0.560091 1.563926
25  7.685551 -26.508362 -6.023971  0.000000 -0.000000 -3.141593
26  20.158314 0.001465 -15.000000  -1.570796 -0.000000 -1.570796
27  6.688313 0.001464 -6.000000  -0.051945 -0.000000 -1.570796
28  -6.584470 -2.598536 -6.097302  0.855556 0.028838 2.950500
29  -0.000000 13.479276 0.000000  1.085299 -0.000000 0.000000
30  -0.000000 13.477241 -0.000001  -0.293744 0.190907 0.127659
31  0.267269 3.664730 -1.953294  -0.174603 0.396888 0.692349
32  0.000002 1.180354 0.000000  -0.024711 0.025798 1.296300
33  -0.000000 0.817137 0.000000  0.012232 0.001270 1.111333
34  0.249422 3.688544 -0.940889  -0.050028 0.197908 0.917566
35  0.000001 1.800633 0.000000  -0.007162 -0.012483 1.774974
36  -0.000001 1.243407 -0.000000  0.004183 -0.005006 0.945407
37  0.244726 3.701097 0.087732  0.012445 0.020003 0.934973
38  0.000000 1.766584 0.000000  0.006918 0.000685 1.464509
39  -0.000000 1.189004 0.000000  -0.004472 0.017123 1.357249
40  0.277239 3.632249 1.274101  0.065416 -0.152210 0.927372
41  -0.000002 1.798495 -0.000000  0.022849 -0.016745 1.078747
42  -0.000000 1.235450 -0.000000  -0.007143 0.004688 1.572574
43  -0.315442 0.857301 0.755943  -0.623037 -2.717983 1.196723
44  -0.000002 2.265939 0.000000  -0.034963 0.056629 0.741260
45  -0.000000 1.457810 0.000000  -0.048332 -0.026494 0.468069
46  1.259680 3.818376 1.286944  0.065416 -0.152210 0.927371
47  1.226390 3.891695 0.090418  0.012445 0.020003 0.934972
48  1.231621 3.875535 -0.958681  -0.050028 0.197908 0.917566
49  1.209919 3.994785 -2.003048  -0.174603 0.396888 0.692349
50  -0.328906 0.095429 1.403532  -0.623037 -2.717983 1.196723
51  -7.981352 -6.367171 16.633018  -1.515380 -2.983932 -0.057345
52  -8.428300 -13.481788 -15.000002  -1.570796 -0.000000 1.570796
53  -6.584470 -2.598536 -6.097302  -0.051945 0.000000 1.570796
time 11
0  0 0 0  0 0 0
1  0.000000 0.000000 0.000000  1.570796 -0.000000 0.000000
2  6.688313 0.001464 -6.000000  -0.180017 0.981463 -3.105344
3  -0.000000 13.479280 0.000000  0.356810 0.000000 -0.000000
4  -0.000000 13.477240 -0.000000  -0.260936 -0.968770 0.196263
5  -0.267269 3.664727 -1.953293  -0.106568 -0.025893 -0.137951
6  -0.000000 1.180355 -0.000001  -0.036623 -0.007435 -0.177465
7  -0.000001 0.817138 -0.000000  0.004200 -0.011559 0.007420
8  -0.249422 3.688542 -0.940889  -0.060580 -0.013550 -0.130737
9  0.000000 1.800634 -0.000000  0.004940 0.002077 -0.208495
10  0.000001 1.243406 -0.000000  0.006524 -0.000040 -0.064626
11  -0.244726 3.701097 0.087732  0.005036 0.002373 -0.139323
12  0.000000 1.766584 0.000000  0.002490 -0.003552 -0.259702
13  -0.000000 1.189003 0.000000  -0.017590 -0.001952 -0.152464
14  -0.277239 3.632249 1.274102  0.054558 0.010184 -0.144732
15  0.000001 1.798491 -0.000000  0.036314 0.010668 -0.285912
16  -0.000001 1.235453 -0.000000  -0.005152 0.006816 -0.068190
17  0.315441 0.857301 0.755944  1.684115 0.560091 1.563926
18  0.000001 2.265939 -0.000000  -0.057905 -0.032805 -0.238898
19  -0.000001 1.457808 0.000000  -0.029609 0.046490 0.034285
20  -1.259681 3.818376 1.286945  0.054558 0.010184 -0.144732
21  -1.226390 3.891694 0.090419  0.005036 0.002373 -0.139324
22  -1.231623 3.875535 -0.958681  -0.060580 -0.013550 -0.130737
23  -1.209919 3.994782 -2.003048  -0.106568 -0.025893 -0.137951
24  0.328906 0.095429 1.403532  1.684115 0.560091 1.563926
25  7.685551 -26.508362 -6.023971  0.000000 -0.000000 -3.141593
26  20.158314 0.001465 -15.000000  -1.570796 -0.000000 -1.570796
27  6.688313 0.001464 -6.000000  -0.051945 -0.000000 -1.570796
28  -6.584470 -2.598536 -6.097302  0.866138 0.044548 2.937807
29  0.000002 13.479276 0.000001  1.057604 -0.000000 0.000000
30  -0.000001 13.477238 0.000000  -0.288916 0.213120 0.125282
31  0.267269 3.664724 -1.953293  -0.174603 0.396888 0.692349
32  0.000003 1.180354 -0.000000  -0.024711 0.025798 1.296299
33  0.000004 0.817136 -0.000001  0.012232 0.001270 1.111333
34  0.249422 3.688540 -0.940889  -0.050028 0.197908 0.917566
35  -0.000001 1.800632 0.000000  -0.007162 -0.012483 1.774974
36  0.000001 1.243405 -0.000000  0.004183 -0.005006 0.945407
37  0.244726 3.701095 0.087733  0.012445 0.020003 0.934972
38  0.000001 1.766584 0.000000  0.006918 0.000685 1.464509
39  0.000000 1.189002 -0.000000  -0.004472 0.017123 1.357249
40  0.277238 3.632248 1.274102  0.065416 -0.152210 0.927372
41  -0.000001 1.798494 -0.000000  0.022849 -0.016745 1.078747
42  -0.000001 1.235452 0.000000  -0.007143 0.004688 1.572574
43  -0.315443 0.857298 0.755944  -0.623037 -2.717983 1.196723
44  0.000002 2.265940 -0.000000  -0.034963 0.056629 0.741260
45  0.000001 1.457814 -0.000000  -0.048332 -0.026494 0.468069
46  1.259681 3.818373 1.286946  0.065416 -0.152210 0.927372
47  1.226390 3.891694 0.090419  0.012445 0.020003 0.934972
48  1.231622 3.875533 -0.958680  -0.050028 0.197908 0.917566
49  1.209918 3.994781 -2.003047  -0.174603 0.396888 0.692349
50  -0.328907 0.095429 1.403532  -0.623037 -2.717983 1.196723
51  -8.408073 -6.380633 16.794445  -1.528186 -2.996746 -0.045211
52  -8.428300 -13.481788 -15.000002  -1.570796 -0.000000 1.570796
53  -6.584470 -2.598536 -6.097302  -0.051945 0.000000 1.570796
time 12
0  0 0 0  0 0 0
1  0.000000 0.000000 0.000000  1.570796 -0.000000 0.000000
2  6.688313 0.001464 -6.000000  -0.180017 0.981463 -3.105344
3  -0.000000 13.479280 0.000000  0.356810 0.000000 -0.000000
4  -0.000000 13.477240 -0.000000  -0.260936 -0.968770 0.196263
5  -0.267269 3.664727 -1.953293  -0.106568 -0.025893 -0.137951
6  -0.000000 1.180355 -0.000001  -0.036623 -0.007435 -0.177465
7  -0.000001 0.817138 -0.000000  0.004200 -0.011559 0.007420
8  -0.249422 3.688542 -0.940889  -0.060580 -0.013550 -0.130737
9  0.000000 1.800634 -0.000000  0.004940 0.002077 -0.208495
10  0.000001 1.243406 -0.000000  0.006524 -0.000040 -0.064626
11  -0.244726 3.701097 0.087732  0.005036 0.002373 -0.139323
12  0.000000 1.766584 0.000000  0.002490 -0.003552 -0.259702
13  -0.000000 1.189003 0.000000  -0.017590 -0.001952 -0.152464
14  -0.277239 3.632249 1.274102  0.054558 0.010184 -0.144732
15  0.000001 1.798491 -0.000000  0.036314 0.010668 -0.285912
16  -0.000001 1.235453 -0.000000  -0.005152 0.006816 -0.068190
17  0.315441 0.857301 0.755944  1.684115 0.560091 1.563926
18  0.000001 2.265939 -0.000000  -0.057905 -0.032805 -0.238898
19  -0.000001 1.457808 0.000000  -0.029609 0.046490 0.034285
20  -1.259681 3.818376 1.286945  0.054558 0.010184 -0.144732
21  -1.226390 3.891694 0.090419  0.005036 0.002373 -0.139324
22  -1.231623 3.875535 -0.958681  -0.060580 -0.013550 -0.130737
23  -1.209919 3.994782 -2.003048  -0.106568 -0.025893 -0.137951
24  0.328906 0.095429 1.403532  1.684115 0.560091 1.563926
25  7.685551 -26.508362 -6.023971  0.000000 -0.000000 -3.141593
26  20.158314 0.001465 -15.000000  -1.570796 -0.000000 -1.570796
27  6.688313 0.001464 -6.000000  -0.051945 -0.000000 -1.570796
28  -6.584470 -2.598536 -6.097302  0.893591 0.056334 2.928269
29  0.000001 13.479277 0.000000  0.999698 -0.000000 0.000000
30  -0.000001 13.477239 -0.000001  -0.288341 0.239797 0.118063
31  0.267271 3.664727 -1.953292  -0.174603 0.396887 0.692349
32  0.000001 1.180353 0.000001  -0.024711 0.025798 1.296299
33  -0.000002 0.817136 -0.000002  0.012232 0.001270 1.111333
34  0.249423 3.688542 -0.940889  -0.050028 0.197908 0.917566
35  0.000002 1.800633 -0.000000  -0.007162 -0.012483 1.774975
36  0.000000 1.243407 0.000000  0.004183 -0.005006 0.945407
37  0.244726 3.701096 0.087734  0.012445 0.020003 0.934972
38  0.000001 1.766585 0.000001  0.006918 0.000685 1.464509
39  0.000000 1.189003 0.000000  -0.004472 0.017123 1.357249
40  0.277239 3.632249 1.274102  0.065416 -0.152210 0.927371
41  -0.000002 1.798494 -0.000000  0.022849 -0.016745 1.078746
42  0.000002 1.235451 0.000000  -0.007143 0.004688 1.572573
43  -0.315441 0.857300 0.755944  -0.623037 -2.717983 1.196723
44  -0.000002 2.265940 -0.000000  -0.034963 0.056629 0.741260
45  -0.000000 1.457812 0.000000  -0.048332 -0.026494 0.468069
46  1.259681 3.818375 1.286946  0.065416 -0.152210 0.927371
47  1.226391 3.891694 0.090420  0.012445 0.020003 0.934972
48  1.231623 3.875533 -0.958679  -0.050028 0.197908 0.917566
49  1.209920 3.994781 -2.003047  -0.174603 0.396887 0.692349
50  -0.328905 0.095430 1.403533  -0.623037 -2.717983 1.196723
51  -8.749763 -6.401271 17.152433  -1.557955 -3.012041 -0.021554
52  -8.428300 -13.481788 -15.000002  -1.570796 -0.000000 1.570796
53  -6.584470 -2.598536 -6.097302  -0.051945 0.000000 1.570796
time 13
0  0 0 0  0 0 0
1  0.000000 0.000000 0.000000  1.570796 -0.000000 0.000000
2  6.688313 0.001464 -6.000000  -0.180017 0.981463 -3.105344
3  -0.000000 13.479280 0.000000  0.356810 0.000000 -0.000000
4  -0.000000 13.477240 -0.000000  -0.260936 -0.968770 0.196263
5  -0.267269 3.664727 -1.953293  -0.106568 -0.025893 -0.137951
6  -0.000000 1.180355 -0.000001  -0.036623 -0.007435 -0.177465
7  -0.000001 0.817138 -0.000000  0.004200 -0.011559 0.007420
8  -0.249422 3.688542 -0.940889  -0.060580 -0.013550 -0.130737
9  0.000000 1.800634 -0.000000  0.004940 0.002077 -0.208495
10  0.000001 1.243406 -0.000000  0.006524 -0.000040 -0.064626
11  -0.244726 3.701097 0.087732  0.005036 0.002373 -0.139323
12  0.000000 1.766584 0.000000  0.002490 -0.003552 -0.259702
13  -0.000000 1.189003 0.000000  -0.017590 -0.001952 -0.152464
14  -0.277239 3.632249 1.274102  0.054558 0.010184 -0.144732
15  0.000001 1.798491 -0.000000  0.036314 0.010668 -0.285912
16  -0.000001 1.235453 -0.000000  -0.005152 0.006816 -0.068190
17  0.315441 0.857301 0.755944  1.684115 0.560091 1.563926
18  0.000001 2.265939 -0.000000  -0.057905 -0.032805 -0.238898
19  -0.000001 1.457808 0.000000  -0.029609 0.046490 0.034285
20  -1.259681 3.818376 1.286945  0.054558 0.010184 -0.144732
21  -1.226390 3.891694 0.090419  0.005036 0.002373 -0.139324
22  -1.231623 3.875535 -0.958681  -0.060580 -0.013550 -0.130737
23  -1.209919 3.994782 -2.003048  -0.106568 -0.025893 -0.137951
24  0.328906 0.095429 1.403532  1.684115 0.560091 1.563926
25  7.685551 -26.508362 -6.023971  0.000000 -0.000000 -3.141593
26  20.158314 0.001465 -15.000000  -1.570796 -0.000000 -1.570796
27  6.688313 0.001464 -6.000000  -0.051945 -0.000000 -1.570796
28  -6.584470 -2.598536 -6.097302  0.923555 0.064952 2.921284
29  -0.000000 13.479276 0.000000  0.937755 -0.000000 0.000000
30  -0.000001 13.477240 0.000000  -0.291881 0.256000 0.111355
31  0.267269 3.664726 -1.953292  -0.174603 0.396888 0.692349
32  -0.000001 1.180355 -0.000000  -0.024711 0.025798 1.296299
33  0.000002 0.817136 -0.000001  0.012232 0.001270 1.111333
34  0.249422 3.688541 -0.940888  -0.050028 0.197908 0.917566
35  0.000000 1.800633 0.000000  -0.007162 -0.012483 1.774974
36  -0.000001 1.243405 0.000001  0.004183 -0.005006 0.945407
37  0.244726 3.701096 0.087734  0.012445 0.020003 0.934973
38  -0.000003 1.766584 0.000000  0.006918 0.000685 1.464509
39  0.000001 1.189005 0.000000  -0.004472 0.017123 1.357249
40  0.277238 3.632249 1.274102  0.065416 -0.152210 0.927372
41  0.000001 1.798495 -0.000000  0.022849 -0.016745 1.078746
42  -0.000001 1.235452 0.000001  -0.007143 0.004688 1.572574
43  -0.315442 0.857300 0.755945  -0.623037 -2.717983 1.196723
44  0.000001 2.265939 0.000000  -0.034963 0.056629 0.741260
45  0.000001 1.457812 -0.000000  -0.048332 -0.026494 0.468069
46  1.259681 3.818374 1.286946  0.065416 -0.152210 0.927371
47  1.226390 3.891691 0.090420  0.012445 0.020003 0.934972
48  1.231622 3.875532 -0.958680  -0.050028 0.197908 0.917566
49  1.209917 3.994781 -2.003047  -0.174603 0.396888 0.692349
50  -0.328907 0.095428 1.403533  -0.623037 -2.717983 1.196723
51  -9.015875 -6.427060 17.517550  -1.591712 -3.028594 -0.005492
52  -8.428300 -13.481788 -15.000002  -1.570796 -0.000000 1.570796
53  -6.584470 -2.598536 -6.097302  -0.051945 0.000000 1.570796
time 14
0  0 0 0  0 0 0
1  0.000000 0.000000 0.000000  1.570796 -0.000000 0.000000
2  6.688313 0.001464 -6.000000  -0.180017 0.981463 -3.105344
3  -0.000000 13.479280 0.000000  0.356810 0.000000 -0.000000
4  -0.000000 13.477240 -0.000000  -0.260936 -0.968770 0.196263
5  -0.267269 3.664727 -1.953293  -0.106568 -0.025893 -0.137951
6  -0.000000 1.180355 -0.000001  -0.036623 -0.007435 -0.177465
7  -0.000001 0.817138 -0.000000  0.004200 -0.011559 0.007420
8  -0.249422 3.688542 -0.940889  -0.060580 -0.013550 -0.130737
9  0.000000 1.800634 -0.000000  0.004940 0.002077 -0.208495
10  0.000001 1.243406 -0.000000  0.006524 -0.000040 -0.064626
11  -0.244726 3.701097 0.087732  0.005036 0.002373 -0.139323
12  0.000000 1.766584 0.000000  0.002490 -0.003552 -0.259702
13  -0.000000 1.189003 0.000000  -0.017590 -0.001952 -0.152464
14  -0.277239 3.632249 1.274102  0.054558 0.010184 -0.144732
15  0.000001 1.798491 -0.000000  0.036314 0.010668 -0.285912
16  -0.000001 1.235453 -0.000000  -0.005152 0.006816 -0.068190
17  0.315441 0.857301 0.755944  1.684115 0.560091 1.563926
18  0.000001 2.265939 -0.000000  -0.057905 -0.032805 -0.238898
19  -0.000001 1.457808 0.000000  -0.029609 0.046490 0.034285
20  -1.259681 3.818376 1.286945  0.054558 0.010184 -0.144732
21  -1.226390 3.891694 0.090419  0.005036 0.002373 -0.139324
22  -1.231623 3.875535 -0.958681  -0.060580 -0.013550 -0.130737
23  -1.209919 3.994782 -2.003048  -0.106568 -0.025893 -0.137951
24  0.328906 0.095429 1.403532  1.684115 0.560091 1.563926
25  7.685551 -26.508362 -6.023971  0.000000 -0.000000 -3.141593
26  20.158314 0.001465 -15.000000  -1.570796 -0.000000 -1.570796
27  6.688313 0.001464 -6.000000  -0.051945 -0.000000 -1.570796
28  -6.584470 -2.598536 -6.097302  0.946210 0.071190 2.916221
29  0.000001 13.479274 0.000001  0.889923 -0.000000 0.000000
30  -0.000000 13.477239 -0.000000  -0.296539 0.259493 0.104665
31  0.267270 3.664726 -1.953294  -0.174603 0.396888 0.692349
32  0.000002 1.180354 0.000001  -0.024711 0.025798 1.296299
33  -0.000000 0.817137 0.000002  0.012232 0.001270 1.111333
34  0.249423 3.688540 -0.940889  -0.050028 0.197908 0.917566
35  0.000000 1.800634 -0.000000  -0.007162 -0.012483 1.774974
36  0.000000 1.243406 0.000000  0.004183 -0.005006 0.945407
37  0.244728 3.701095 0.087733  0.012445 0.020003 0.934972
38  -0.000000 1.766586 0.000000  0.006918 0.000685 1.464509
39  0.000001 1.189004 0.000000  -0.004472 0.017123 1.357249
40  0.277240 3.632246 1.274102  0.065416 -0.152210 0.927372
41  0.000001 1.798495 -0.000000  0.022849 -0.016745 1.078747
42  -0.000001 1.235453 -0.000001  -0.007143 0.004688 1.572574
43  -0.315440 0.857300 0.755944  -0.623037 -2.717983 1.196723
44  -0.000001 2.265939 -0.000000  -0.034963 0.056629 0.741260
45  0.000000 1.457811 0.000000  -0.048332 -0.026494 0.468068
46  1.259682 3.818374 1.286945  0.065416 -0.152210 0.927372
47  1.226391 3.891691 0.090419  0.012445 0.020003 0.934972
48  1.231623 3.875534 -0.958681  -0.050028 0.197908 0.917566
49  1.209919 3.994781 -2.003049  -0.174603 0.396888 0.692349
50  -0.328907 0.095427 1.403532  -0.623037 -2.717983 1.196723
51  -9.215851 -6.455977 17.781515  -1.618478 -3.045506 -0.001346
52  -8.428300 -13.481788 -15.000002  -1.570796 -0.000000 1.570796
53  -6.584470 -2.598536 -6.097302  -0.051945 0.000000 1.570796
time 15
0  0 0 0  0 0 0
1  0.000000 0.000000 0.000000  1.570796 -0.000000 0.000000
2  6.688313 0.001464 -6.000000  -0.180017 0.981463 -3.105344
3  -0.000000 13.479280 0.000000  0.356810 0.000000 -0.000000
4  -0.000000 13.477240 -0.000000  -0.260936 -0.968770 0.196263
5  -0.267269 3.664727 -1.953293  -0.106568 -0.025893 -0.137951
6  -0.000000 1.180355 -0.000001  -0.036623 -0.007435 -0.177465
7  -0.000001 0.817138 -0.000000  0.004200 -0.011559 0.007420
8  -0.249422 3.688542 -0.940889  -0.060580 -0.013550 -0.130737
9  0.000000 1.800634 -0.000000  0.004940 0.002077 -0.208495
10  0.000001 1.243406 -0.000000  0.006524 -0.000040 -0.064626
11  -0.244726 3.701097 0.087732  0.005036 0.002373 -0.139323
12  0.000000 1.766584 0.000000  0.002490 -0.003552 -0.259702
13  -0.000000 1.189003 0.000000  -0.017590 -0.001952 -0.152464
14  -0.277239 3.632249 1.274102  0.054558 0.010184 -0.144732
15  0.000001 1.798491 -0.000000  0.036314 0.010668 -0.285912
16  -0.000001 1.235453 -0.000000  -0.005152 0.006816 -0.068190
17  0.315441 0.857301 0.755944  1.684115 0.560091 1.563926
18  0.000001 2.265939 -0.000000  -0.057905 -0.032805 -0.238898
19  -0.000001 1.457808 0.000000  -0.029609 0.046490 0.034285
20  -1.259681 3.818376 1.286945  0.054558 0.010184 -0.144732
21  -1.226390 3.891694 0.090419  0.005036 0.002373 -0.139324
22  -1.231623 3.875535 -0.958681  -0.060580 -0.013550 -0.130737
23  -1.209919 3.994782 -2.003048  -0.106568 -0.025893 -0.137951
24  0.328906 0.095429 1.403532  1.684115 0.560091 1.563926
25  7.685551 -26.508362 -6.023971  0.000000 -0.000000 -3.141593
26  20.158314 0.001465 -15.000000  -1.570796 -0.000000 -1.570796
27  6.688313 0.001464 -6.000000  -0.051945 -0.000000 -1.570796
28  -6.584470 -2.598536 -6.097302  0.963025 0.075491 2.912728
29  0.000000 13.479278 -0.000000  0.853734 -0.000000 0.000000
30  -0.000000 13.477239 -0.000001  -0.297698 0.259286 0.094994
31  0.267269 3.664721 -1.953292  -0.174603 0.396888 0.692349
32  0.000001 1.180356 -0.000000  -0.024711 0.025798 1.296299
33  0.000000 0.817136 -0.000001  0.012232 0.001270 1.111333
34  0.249422 3.688539 -0.940888  -0.050028 0.197908 0.917566
35  0.000001 1.800633 -0.000000  -0.007162 -0.012483 1.774974
36  0.000000 1.243403 0.000000  0.004183 -0.005006 0.945407
37  0.244725 3.701092 0.087733  0.012445 0.020003 0.934973
38  0.000002 1.766586 -0.000000  0.006918 0.000685 1.464509
39  0.000001 1.189003 0.000000  -0.004472 0.017123 1.357249
40  0.277238 3.632244 1.274103  0.065416 -0.152210 0.927372
41  0.000000 1.798494 0.000001  0.022849 -0.016745 1.078747
42  -0.000001 1.235451 0.000000  -0.007143 0.004688 1.572574
43  -0.315441 0.857297 0.755944  -0.623037 -2.717983 1.196723
44  0.000001 2.265941 -0.000000  -0.034963 0.056629 0.741260
45  -0.000001 1.457811 0.000000  -0.048332 -0.026494 0.468069
46  1.259679 3.818371 1.286946  0.065416 -0.152210 0.927372
47  1.226390 3.891690 0.090420  0.012445 0.020003 0.934972
48  1.231622 3.875532 -0.958680  -0.050028 0.197908 0.917566
49  1.209919 3.994778 -2.003046  -0.174603 0.396888 0.692349
50  -0.328908 0.095425 1.403533  -0.623037 -2.717983 1.196723
51  -9.359140 -6.485999 17.970657  -1.635265 -3.063163 0.000182
52  -8.428300 -13.481788 -15.000002  -1.570796 -0.000000 1.570796
53  -6.584470 -2.598536 -6.097302  -0.051945 0.000000 1.570796
time 16
0  0 0 0  0 0 0
1  0.000000 0.000000 0.000000  1.570796 -0.000000 0.000000
2  6.688313 0.001464 -6.000000  -0.180017 0.981463 -3.105344
3  -0.000000 13.479280 0.000000  0.356810 0.000000 -0.000000
4  -0.000000 13.477240 -0.000000  -0.260936 -0.968770 0.196263
5  -0.267269 3.664727 -1.953293  -0.106568 -0.025893 -0.137951
6  -0.000000 1.180355 -0.000001  -0.036623 -0.007435 -0.177465
7  -0.000001 0.817138 -0.000000  0.004200 -0.011559 0.007420
8  -0.249422 3.688542 -0.940889  -0.060580 -0.013550 -0.130737
9  0.000000 1.800634 -0.000000  0.004940 0.002077 -0.208495
10  0.000001 1.243406 -0.000000  0.006524 -0.000040 -0.064626
11  -0.244726 3.701097 0.087732  0.005036 0.002373 -0.139323
12  0.000000 1.766584 0.000000  0.002490 -0.003552 -0.259702
13  -0.000000 1.189003 0.000000  -0.017590 -0.001952 -0.152464
14  -0.277239 3.632249 1.274102  0.054558 0.010184 -0.144732
15  0.000001 1.798491 -0.000000  0.036314 0.010668 -0.285912
16  -0.000001 1.235453 -0.000000  -0.005152 0.006816 -0.068190
17  0.315441 0.857301 0.755944  1.684115 0.560091 1.563926
18  0.000001 2.265939 -0.000000  -0.057905 -0.032805 -0.238898
19  -0.000001 1.457808 0.000000  -0.029609 0.046490 0.034285
20  -1.259681 3.818376 1.286945  0.054558 0.010184 -0.144732
21  -1.226390 3.891694 0.090419  0.005036 0.002373 -0.139324
22  -1.231623 3.875535 -0.958681  -0.060580 -0.013550 -0.130737
23  -1.209919 3.994782 -2.003048  -0.106568 -0.025893 -0.137951
24  0.328906 0.095429 1.403532  1.684115 0.560091 1.563926
25  7.685551 -26.508362 -6.023971  0.000000 -0.000000 -3.141593
26  20.158314 0.001465 -15.000000  -1.570796 -0.000000 -1.570796
27  6.688313 0.001464 -6.000000  -0.051945 -0.000000 -1.570796
28  -6.584470 -2.598536 -6.097302  0.974588 0.078256 2.910480
29  -0.000000 13.479276 -0.000000  0.828202 -0.000000 0.000000
30  0.000001 13.477237 -0.000001  -0.293953 0.256775 0.081538
31  0.267269 3.664726 -1.953293  -0.174603 0.396888 0.692349
32  -0.000001 1.180353 0.000000  -0.024711 0.025798 1.296300
33  -0.000002 0.817137 0.000000  0.012232 0.001270 1.111333
34  0.249423 3.688540 -0.940889  -0.050028 0.197908 0.917566
35  0.000001 1.800636 0.000000  -0.007162 -0.012483 1.774974
36  0.000001 1.243407 -0.000000  0.004183 -0.005006 0.945407
37  0.244727 3.701097 0.087733  0.012445 0.020003 0.934972
38  0.000003 1.766584 0.000000  0.006918 0.000685 1.464509
39  -0.000000 1.189003 -0.000000  -0.004472 0.017123 1.357249
40  0.277239 3.632249 1.274102  0.065416 -0.152210 0.927372
41  -0.000001 1.798495 0.000001  0.022849 -0.016745 1.078747
42  0.000001 1.235452 0.000000  -0.007143 0.004688 1.572574
43  -0.315441 0.857300 0.755943  -0.623037 -2.717983 1.196723
44  0.000002 2.265940 -0.000000  -0.034963 0.056629 0.741260
45  -0.000003 1.457810 0.000001  -0.048332 -0.026494 0.468069
46  1.259682 3.818376 1.286945  0.065416 -0.152210 0.927371
47  1.226391 3.891692 0.090419  0.012445 0.020003 0.934972
48  1.231624 3.875534 -0.958680  -0.050028 0.197908 0.917566
49  1.209920 3.994782 -2.003047  -0.174603 0.396888 0.692349
50  -0.328906 0.095430 1.403533  -0.623037 -2.717983 1.196723
51  -9.455193 -6.515100 18.097441  1.500512 -0.059317 -3.141193
52  -8.428300 -13.481788 -15.000002  -1.570796 -0.000000 1.570796
53  -6.584470 -2.598536 -6.097302  -0.051945 0.000000 1.570796
time 17
0  0 0 0  0 0 0
1  0.000000 0.000000 0.000000  1.570796 -0.000000 0.000000
2  6.688313 0.001464 -6.000000  -0.180017 0.981463 -3.105344
3  -0.000000 13.479280 0.000000  0.356810 0.000000 -0.000000
4  -0.000000 13.477240 -0.000000  -0.260936 -0.968770 0.196263
5  -0.267269 3.664727 -1.953293  -0.106568 -0.025893 -0.137951
6  -0.000000 1.180355 -0.000001  -0.036623 -0.007435 -0.177465
7  -0.000001 0.817138 -0.000000  0.004200 -0.011559 0.007420
8  -0.249422 3.688542 -0.940889  -0.060580 -0.013550 -0.130737
9  0.000000 1.800634 -0.000000  0.004940 0.002077 -0.208495
10  0.000001 1.243406 -0.000000  0.006524 -0.000040 -0.064626
11  -0.244726 3.701097 0.087732  0.005036 0.002373 -0.139323
12  0.000000 1.766584 0.000000  0.002490 -0.003552 -0.259702
13  -0.000000 1.189003 0.000000  -0.017590 -0.001952 -0.152464
14  -0.277239 3.632249 1.274102  0.054558 0.010184 -0.144732
15  0.000001 1.798491 -0.000000  0.036314 0.010668 -0.285912
16  -0.000001 1.235453 -0.000000  -0.005152 0.006816 -0.068190
17  0.315441 0.857301 0.755944  1.684115 0.560091 1.563926
18  0.000001 2.265939 -0.000000  -0.057905 -0.032805 -0.238898
19  -0.000001 1.457808 0.000000  -0.029609 0.046490 0.034285
20  -1.259681 3.818376 1.286945  0.054558 0.010184 -0.144732
21  -1.226390 3.891694 0.090419  0.005036 0.002373 -0.139324
22  -1.231623 3.875535 -0.958681  -0.060580 -0.013550 -0.130737
23  -1.209919 3.994782 -2.003048  -0.106568 -0.025893 -0.137951
24  0.328906 0.095429 1.403532  1.684115 0.560091 1.563926
25  7.685551 -26.508362 -6.023971  0.000000 -0.000000 -3.141593
26  20.158314 0.001465 -15.000000  -1.570796 -0.000000 -1.570796
27  6.688313 0.001464 -6.000000  -0.051945 -0.000000 -1.570796
28  -6.584470 -2.598536 -6.097302  0.981548 0.079847 2.909186
29  -0.000000 13.479275 -0.000000  0.812169 -0.000000 0.000000
30  -0.000000 13.477237 -0.000000  -0.278832 0.253151 0.064444
31  0.267269 3.664726 -1.953292  -0.174603 0.396888 0.692349
32  -0.000003 1.180355 -0.000000  -0.024711 0.025798 1.296300
33  0.000001 0.817133 -0.000000  0.012232 0.001270 1.111333
34  0.249422 3.688543 -0.940888  -0.050028 0.197908 0.917566
35  0.000001 1.800632 0.000000  -0.007162 -0.012483 1.774974
36  -0.000000 1.243407 0.000001  0.004183 -0.005006 0.945407
37  0.244727 3.701098 0.087734  0.012445 0.020003 0.934972
38  0.000001 1.766585 0.000000  0.006918 0.000685 1.464509
39  -0.000002 1.189002 0.000000  -0.004472 0.017123 1.357249
40  0.277239 3.632250 1.274103  0.065416 -0.152210 0.927371
41  0.000001 1.798495 0.000001  0.022849 -0.016745 1.078746
42  0.000001 1.235451 -0.000000  -0.007143 0.004688 1.572574
43  -0.315441 0.857300 0.755944  -0.623037 -2.717983 1.196723
44  -0.000001 2.265941 0.000000  -0.034963 0.056629 0.741260
45  0.000000 1.457814 0.000000  -0.048332 -0.026494 0.468069
46  1.259682 3.818377 1.286946  0.065416 -0.152210 0.927372
47  1.226390 3.891697 0.090420  0.012445 0.020003 0.934972
48  1.231623 3.875535 -0.958680  -0.050028 0.197908 0.917566
49  1.209919 3.994781 -2.003048  -0.174603 0.396888 0.692349
50  -0.328907 0.095431 1.403533  -0.623037 -2.717983 1.196723
51  -9.513451 -6.541258 18.174347  1.511494 -0.038755 -3.141255
52  -8.428300 -13.481788 -15.000002  -1.570796 -0.000000 1.570796
53  -6.584470 -2.598536 -6.097302  -0.051945 0.000000 1.570796
time 18
0  0 0 0  0 0 0
1  0.000000 0.000000 0.000000  1.570796 -0.000000 0.000000
2  6.688313 0.001464 -6.000000  -0.180017 0.981463 -3.105344
3  -0.000000 13.479280 0.000000  0.356810 0.000000 -0.000000
4  -0.000000 13.477240 -0.000000  -0.260936 -0.968770 0.196263
5  -0.267269 3.664727 -1.953293  -0.106568 -0.025893 -0.137951
6  -0.000000 1.180355 -0.000001  -0.036623 -0.007435 -0.177465
7  -0.000001 0.817138 -0.000000  0.004200 -0.011559 0.007420
8  -0.249422 3.688542 -0.940889  -0.060580 -0.013550 -0.130737
9  0.000000 1.800634 -0.000000  0.004940 0.002077 -0.208495
10  0.000001 1.243406 -0.000000  0.006524 -0.000040 -0.064626
11  -0.244726 3.701097 0.087732  0.005036 0.002373 -0.139323
12  0.000000 1.766584 0.000000  0.002490 -0.003552 -0.259702
13  -0.000000 1.189003 0.000000  -0.017590 -0.001952 -0.152464
14  -0.277239 3.632249 1.274102  0.054558 0.010184 -0.144732
15  0.000001 1.798491 -0.000000  0.036314 0.010668 -0.285912
16  -0.000001 1.235453 -0.000000  -0.005152 0.006816 -0.068190
17  0.315441 0.857301 0.755944  1.684115 0.560091 1.563926
18  0.000001 2.265939 -0.000000  -0.057905 -0.032805 -0.238898
19  -0.000001 1.457808 0.000000  -0.029609 0.046490 0.034285
20  -1.259681 3.818376 1.286945  0.054558 0.010184 -0.144732
21  -1.226390 3.891694 0.090419  0.005036 0.002373 -0.139324
22  -1.231623 3.875535 -0.958681  -0.060580 -0.013550 -0.130737
23  -1.209919 3.994782 -2.003048  -0.106568 -0.025893 -0.137951
24  0.328906 0.095429 1.403532  1.684115 0.560091 1.563926
25  7.685551 -26.508362 -6.023971  0.000000 -0.000000 -3.141593
26  20.158314 0.001465 -15.000000  -1.570796 -0.000000 -1.570796
27  6.688313 0.001464 -6.000000  -0.051945 -0.000000 -1.570796
28  -6.584470 -2.598536 -6.097302  0.985016 0.080595 2.908578
29  0.000001 13.479276 0.000000  0.803561 -0.000000 0.000000
30  0.000000 13.477239 0.000000  -0.254169 0.249325 0.047106
31  0.267268 3.664726 -1.953293  -0.174603 0.396888 0.692349
32  0.000003 1.180356 0.000001  -0.024711 0.025798 1.296299
33  0.000000 0.817136 -0.000000  0.012232 0.001270 1.111333
34  0.249422 3.688539 -0.940889  -0.050028 0.197908 0.917566
35  -0.000002 1.800632 -0.000000  -0.007162 -0.012483 1.774974
36  -0.000001 1.243405 0.000000  0.004183 -0.005006 0.945407
37  0.244725 3.701097 0.087733  0.012445 0.020003 0.934973
38  0.000002 1.766584 -0.000000  0.006918 0.000685 1.464509
39  -0.000001 1.189003 0.000000  -0.004472 0.017123 1.357249
40  0.277238 3.632247 1.274102  0.065416 -0.152210 0.927371
41  0.000001 1.798496 -0.000000  0.022849 -0.016745 1.078746
42  -0.000002 1.235453 0.000000  -0.007143 0.004688 1.572574
43  -0.315443 0.857299 0.755944  -0.623037 -2.717983 1.196723
44  -0.000001 2.265939 0.000000  -0.034963 0.056629 0.741260
45  -0.000000 1.457811 -0.000000  -0.048332 -0.026494 0.468069
46  1.259680 3.818375 1.286946  0.065416 -0.152210 0.927372
47  1.226389 3.891693 0.090419  0.012445 0.020003 0.934972
48  1.231622 3.875535 -0.958680  -0.050028 0.197908 0.917566
49  1.209918 3.994782 -2.003048  -0.174603 0.396888 0.692349
50  -0.328907 0.095427 1.403532  -0.623037 -2.717983 1.196723
51  -9.543371 -6.562448 18.213837  1.535654 -0.019620 -3.141393
52  -8.428300 -13.481788 -15.000002  -1.570796 -0.000000 1.570796
53  -6.584470 -2.598536 -6.097302  -0.051945 0.000000 1.570796
time 19
0  0 0 0  0 0 0
1  0.000000 0.000000 0.000000  1.570796 -0.000000 0.000000
2  6.688313 0.001464 -6.000000  -0.180017 0.981463 -3.105344
3  -0.000000 13.479280 0.000000  0.356810 0.000000 -0.000000
4  -0.000000 13.477240 -0.000000  -0.260936 -0.968770 0.196263
5  -0.267269 3.664727 -1.953293  -0.106568 -0.025893 -0.137951
6  -0.000000 1.180355 -0.000001  -0.036623 -0.007435 -0.177465
7  -0.000001 0.817138 -0.000000  0.004200 -0.011559 0.007420
8  -0.249422 3.688542 -0.940889  -0.060580 -0.013550 -0.130737
9  0.000000 1.800634 -0.000000  0.004940 0.002077 -0.208495
10  0.000001 1.243406 -0.000000  0.006524 -0.000040 -0.064626
11  -0.244726 3.701097 0.087732  0.005036 0.002373 -0.139323
12  0.000000 1.766584 0.000000  0.002490 -0.003552 -0.259702
13  -0.000000 1.189003 0.000000  -0.017590 -0.001952 -0.152464
14  -0.277239 3.632249 1.274102  0.054558 0.010184 -0.144732
15  0.000001 1.798491 -0.000000  0.036314 0.010668 -0.285912
16  -0.000001 1.235453 -0.000000  -0.005152 0.006816 -0.068190
17  0.315441 0.857301 0.755944  1.684115 0.560091 1.563926
18  0.000001 2.265939 -0.000000  -0.057905 -0.032805 -0.238898
19  -0.000001 1.457808 0.000000  -0.029609 0.046490 0.034285
20  -1.259681 3.818376 1.286945  0.054558 0.010184 -0.144732
21  -1.226390 3.891694 0.090419  0.005036 0.002373 -0.139324
22  -1.231623 3.875535 -0.958681  -0.060580 -0.013550 -0.130737
23  -1.209919 3.994782 -2.003048  -0.106568 -0.025893 -0.137951
24  0.328906 0.095429 1.403532  1.684115 0.560091 1.563926
25  7.685551 -26.508362 -6.023971  0.000000 -0.000000 -3.141593
26  20.158314 0.001465 -15.000000  -1.570796 -0.000000 -1.570796
27  6.688313 0.001464 -6.000000  -0.051945 -0.000000 -1.570796
28  -6.584470 -2.598536 -6.097302  0.986159 0.080818 2.908397
29  0.000000 13.479275 -0.000001  0.800171 -0.000000 0.000000
30  0.000000 13.477239 0.000000  -0.231179 0.246250 0.033671
31  0.267270 3.664726 -1.953292  -0.174603 0.396887 0.692349
32  0.000002 1.180357 0.000002  -0.024711 0.025798 1.296300
33  -0.000001 0.817134 0.000001  0.012232 0.001270 1.111333
34  0.249423 3.688541 -0.940889  -0.050028 0.197908 0.917566
35  0.000003 1.800633 -0.000000  -0.007162 -0.012483 1.774974
36  -0.000000 1.243405 0.000000  0.004183 -0.005006 0.945407
37  0.244726 3.701095 0.087733  0.012445 0.020003 0.934972
38  -0.000005 1.766584 0.000001  0.006918 0.000685 1.464509
39  0.000001 1.189001 -0.000000  -0.004472 0.017123 1.357249
40  0.277238 3.632249 1.274103  0.065416 -0.152210 0.927371
41  -0.000000 1.798492 -0.000001  0.022849 -0.016745 1.078746
42  -0.000001 1.235452 0.000000  -0.007143 0.004688 1.572574
43  -0.315441 0.857298 0.755944  -0.623037 -2.717983 1.196723
44  0.000001 2.265940 0.000000  -0.034963 0.056629 0.741260
45  0.000001 1.457813 -0.000001  -0.048332 -0.026494 0.468068
46  1.259681 3.818374 1.286946  0.065416 -0.152210 0.927371
47  1.226391 3.891693 0.090419  0.012445 0.020003 0.934972
48  1.231623 3.875533 -0.958679  -0.050028 0.197908 0.917566
49  1.209920 3.994781 -2.003047  -0.174603 0.396887 0.692349
50  -0.328906 0.095428 1.403533  -0.623037 -2.717983 1.196723
51  -9.554394 -6.576645 18.228388  1.559815 -0.005504 -3.141530
52  -8.428300 -13.481788 -15.000002  -1.570796 -0.000000 1.570796
53  -6.584470 -2.598536 -6.097302  -0.051945 0.000000 1.570796
time 20
0  0 0 0  0 0 0
1  0.000000 0.000000 0.000000  1.570796 -0.000000 0.000000
2  6.688313 0.001464 -6.000000  -0.180017 0.981463 -3.105344
3  -0.000000 13.479280 0.000000  0.356810 0.000000 -0.000000
4  -0.000000 13.477240 -0.000000  -0.260936 -0.968770 0.196263
5  -0.267269 3.664727 -1.953293  -0.106568 -0.025893 -0.137951
6  -0.000000 1.180355 -0.000001  -0.036623 -0.007435 -0.177465
7  -0.000001 0.817138 -0.000000  0.004200 -0.011559 0.007420
8  -0.249422 3.688542 -0.940889  -0.060580 -0.013550 -0.130737
9  0.000000 1.800634 -0.000000  0.004940 0.002077 -0.208495
10  0.000001 1.243406 -0.000000  0.006524 -0.000040 -0.064626
11  -0.244726 3.701097 0.087732  0.005036 0.002373 -0.139323
12  0.000000 1.766584 0.000000  0.002490 -0.003552 -0.259702
13  -0.000000 1.189003 0.000000  -0.017590 -0.001952 -0.152464
14  -0.277239 3.632249 1.274102  0.054558 0.010184 -0.144732
15  0.000001 1.798491 -0.000000  0.036314 0.010668 -0.285912
16  -0.000001 1.235453 -0.000000  -0.005152 0.006816 -0.068190
17  0.315441 0.857301 0.755944  1.684115 0.560091 1.563926
18  0.000001 2.265939 -0.000000  -0.057905 -0.032805 -0.238898
19  -0.000001 1.457808 0.000000  -0.029609 0.046490 0.034285
20  -1.259681 3.818376 1.286945  0.054558 0.010184 -0.144732
21  -1.226390 3.891694 0.090419  0.005036 0.002373 -0.139324
22  -1.231623 3.875535 -0.958681  -0.060580 -0.013550 -0.130737
23  -1.209919 3.994782 -2.003048  -0.106568 -0.025893 -0.137951
24  0.328906 0.095429 1.403532  1.684115 0.560091 1.563926
25  7.685551 -26.508362 -6.023971  0.000000 -0.000000 -3.141593
26  20.158314 0.001465 -15.000000  -1.570796 -0.000000 -1.570796
27  6.688313 0.001464 -6.000000  -0.051945 -0.000000 -1.570796
28  -6.584470 -2.598536 -6.097302  0.986251 0.080824 2.908392
29  0.000002 13.479277 0.000001  0.799590 -0.000000 0.000000
30  0.000001 13.477239 -0.000000  -0.221035 0.244975 0.028276
31  0.267270 3.664726 -1.953293  -0.174603 0.396888 0.692349
32  -0.000002 1.180353 -0.000000  -0.024711 0.025798 1.296299
33  -0.000003 0.817136 -0.000001  0.012232 0.001270 1.111333
34  0.249423 3.688542 -0.940889  -0.050028 0.197908 0.917566
35  0.000001 1.800633 0.000001  -0.007162 -0.012483 1.774974
36  0.000000 1.243406 -0.000000  0.004183 -0.005006 0.945407
37  0.244727 3.701096 0.087732  0.012445 0.020003 0.934973
38  0.000001 1.766584 0.000000  0.006918 0.000685 1.464509
39  0.000000 1.189004 -0.000000  -0.004472 0.017123 1.357249
40  0.277239 3.632249 1.274102  0.065416 -0.152210 0.927371
41  -0.000001 1.798495 0.000000  0.022849 -0.016745 1.078747
42  0.000001 1.235453 0.000000  -0.007143 0.004688 1.572574
43  -0.315441 0.857301 0.755943  -0.623037 -2.717983 1.196723
44  -0.000002 2.265940 -0.000000  -0.034963 0.056629 0.741260
45  0.000000 1.457811 -0.000000  -0.048332 -0.026494 0.468069
46  1.259681 3.818375 1.286945  0.065416 -0.152210 0.927371
47  1.226391 3.891694 0.090419  0.012445 0.020003 0.934972
48  1.231624 3.875534 -0.958681  -0.050028 0.197908 0.917566
49  1.209920 3.994781 -2.003048  -0.174603 0.396888 0.692349
50  -0.328906 0.095429 1.403532  -0.623037 -2.717983 1.196723
51  -9.555967 -6.581827 18.230465  1.570796 -0.000000 -3.141593
52  -8.428300 -13.481788 -15.000002  -1.570796 -0.000000 1.570796
53  -6.584470 -2.598536 -6.097302  -0.051945 0.000000 1.570796
end
