version 1
nodes
0 "blender_implicit" -1
1 "root" -1
2 "upperarm_l" 1
3 "lowerarm_l" 2
4 "hand_l" 3
5 "pinky_0_l" 4
6 "pinky_1_l" 5
7 "pinky_2_l" 6
8 "ring_0_l" 4
9 "ring_1_l" 8
10 "ring_2_l" 9
11 "middle_0_l" 4
12 "middle_1_l" 11
13 "middle_2_l" 12
14 "index_0_l" 4
15 "index_1_l" 14
16 "index_2_l" 15
17 "thumb_0_l" 4
18 "thumb_1_l" 17
19 "thumb_2_l" 18
20 "rig_index_l" 4
21 "rig_middle_l" 4
22 "rig_ring_l" 4
23 "rig_pinky_l" 4
24 "rig_thumb_l" 4
25 "rig_hand_l" 1
26 "rig_l" 1
27 "rig_upperarm_l" 1
28 "upperarm_r" 1
29 "lowerarm_r" 28
30 "hand_r" 29
31 "pinky_0_r" 30
32 "pinky_1_r" 31
33 "pinky_2_r" 32
34 "ring_0_r" 30
35 "ring_1_r" 34
36 "ring_2_r" 35
37 "middle_0_r" 30
38 "middle_1_r" 37
39 "middle_2_r" 38
40 "index_0_r" 30
41 "index_1_r" 40
42 "index_2_r" 41
43 "thumb_0_r" 30
44 "thumb_1_r" 43
45 "thumb_2_r" 44
46 "rig_index_r" 30
47 "rig_middle_r" 30
48 "rig_ring_r" 30
49 "rig_pinky_r" 30
50 "rig_thumb_r" 30
51 "rig_hand_r" 1
52 "rig_r" 1
53 "rig_upperarm_r" 1
end
skeleton
time 0
0  0 0 0  0 0 0
1  0.000000 0.000000 0.000000  1.570796 -0.000000 0.000000
2  6.688313 0.001464 -6.000000  -0.180017 0.981463 -3.105344
3  -0.000000 13.479280 0.000000  0.356810 0.000000 -0.000000
4  -0.000000 13.477240 -0.000000  -0.260936 -0.968770 0.196263
5  -0.267269 3.664727 -1.953293  -0.106568 -0.025893 -0.137951
6  -0.000000 1.180355 -0.000001  -0.036623 -0.007435 -0.177465
7  -0.000001 0.817138 -0.000000  0.004200 -0.011559 0.007420
8  -0.249422 3.688542 -0.940889  -0.060580 -0.013550 -0.130737
9  0.000000 1.800634 -0.000000  0.004940 0.002077 -0.208495
10  0.000001 1.243406 -0.000000  0.006524 -0.000040 -0.064626
11  -0.244726 3.701097 0.087732  0.005036 0.002373 -0.139323
12  0.000000 1.766584 0.000000  0.002490 -0.003552 -0.259702
13  -0.000000 1.189003 0.000000  -0.017590 -0.001952 -0.152464
14  -0.277239 3.632249 1.274102  0.054558 0.010184 -0.144732
15  0.000001 1.798491 -0.000000  0.036314 0.010668 -0.285912
16  -0.000001 1.235453 -0.000000  -0.005152 0.006816 -0.068190
17  0.315441 0.857301 0.755944  1.684115 0.560091 1.563926
18  0.000001 2.265939 -0.000000  -0.057905 -0.032805 -0.238898
19  -0.000001 1.457808 0.000000  -0.029609 0.046490 0.034285
20  -1.259681 3.818376 1.286945  0.054558 0.010184 -0.144732
21  -1.226390 3.891694 0.090419  0.005036 0.002373 -0.139324
22  -1.231623 3.875535 -0.958681  -0.060580 -0.013550 -0.130737
23  -1.209919 3.994782 -2.003048  -0.106568 -0.025893 -0.137951
24  0.328906 0.095429 1.403532  1.684115 0.560091 1.563926
25  7.685551 -26.508362 -6.023971  0.000000 -0.000000 -3.141593
26  20.158314 0.001465 -15.000000  -1.570796 -0.000000 -1.570796
27  6.688313 0.001464 -6.000000  -0.051945 -0.000000 -1.570796
28  -6.584470 -2.598536 -6.097302  0.549718 0.244477 2.771183
29  0.000000 13.479276 -0.000000  1.462546 -0.000000 0.000000
30  -0.000000 13.477240 0.000000  -0.145654 -0.074041 0.211716
31  0.267269 3.664726 -1.953292  -0.174603 0.396888 0.692349
32  0.000002 1.180355 0.000000  -0.024711 0.025798 1.296300
33  0.000002 0.817135 0.000001  0.012232 0.001270 1.111333
34  0.249423 3.688542 -0.940888  -0.050028 0.197908 0.917566
35  -0.000000 1.800633 -0.000000  -0.007162 -0.012483 1.774974
36  0.000001 1.243407 -0.000001  0.004183 -0.005006 0.945407
37  0.244726 3.701097 0.087732  0.012445 0.020003 0.934973
38  0.000001 1.766583 0.000001  0.006918 0.000685 1.464509
39  -0.000001 1.189003 0.000000  -0.004472 0.017123 1.357249
40  0.277239 3.632248 1.274102  0.065416 -0.152210 0.927372
41  -0.000001 1.798496 -0.000001  0.022849 -0.016745 1.078747
42  -0.000001 1.235452 -0.000001  -0.007143 0.004688 1.572574
43  -0.315441 0.857301 0.755944  -0.623037 -2.717983 1.196723
44  0.000001 2.265939 0.000000  -0.034963 0.056629 0.741260
45  -0.000000 1.457810 -0.000000  -0.048332 -0.026494 0.468068
46  1.259681 3.818375 1.286946  0.065416 -0.152210 0.927372
47  1.226389 3.891695 0.090419  0.012445 0.020003 0.934972
48  1.231622 3.875536 -0.958680  -0.050028 0.197908 0.917566
49  1.209918 3.994783 -2.003047  -0.174603 0.396888 0.692349
50  -0.328907 0.095428 1.403533  -0.623037 -2.717983 1.196723
51  -12.998377 -6.259978 12.556369  1.848658 0.082920 2.613572
52  -8.428300 -13.481788 -15.000002  -1.570796 -0.000000 1.570796
53  -6.584470 -2.598536 -6.097302  -0.051945 0.000000 1.570796
time 1
0  0 0 0  0 0 0
1  0.000000 0.000000 0.000000  1.570796 -0.000000 0.000000
2  6.688313 0.001464 -6.000000  -0.180017 0.981463 -3.105344
3  -0.000000 13.479280 0.000000  0.356810 0.000000 -0.000000
4  -0.000000 13.477240 -0.000000  -0.260936 -0.968770 0.196263
5  -0.267269 3.664727 -1.953293  -0.106568 -0.025893 -0.137951
6  -0.000000 1.180355 -0.000001  -0.036623 -0.007435 -0.177465
7  -0.000001 0.817138 -0.000000  0.004200 -0.011559 0.007420
8  -0.249422 3.688542 -0.940889  -0.060580 -0.013550 -0.130737
9  0.000000 1.800634 -0.000000  0.004940 0.002077 -0.208495
10  0.000001 1.243406 -0.000000  0.006524 -0.000040 -0.064626
11  -0.244726 3.701097 0.087732  0.005036 0.002373 -0.139323
12  0.000000 1.766584 0.000000  0.002490 -0.003552 -0.259702
13  -0.000000 1.189003 0.000000  -0.017590 -0.001952 -0.152464
14  -0.277239 3.632249 1.274102  0.054558 0.010184 -0.144732
15  0.000001 1.798491 -0.000000  0.036314 0.010668 -0.285912
16  -0.000001 1.235453 -0.000000  -0.005152 0.006816 -0.068190
17  0.315441 0.857301 0.755944  1.684115 0.560091 1.563926
18  0.000001 2.265939 -0.000000  -0.057905 -0.032805 -0.238898
19  -0.000001 1.457808 0.000000  -0.029609 0.046490 0.034285
20  -1.259681 3.818376 1.286945  0.054558 0.010184 -0.144732
21  -1.226390 3.891694 0.090419  0.005036 0.002373 -0.139324
22  -1.231623 3.875535 -0.958681  -0.060580 -0.013550 -0.130737
23  -1.209919 3.994782 -2.003048  -0.106568 -0.025893 -0.137951
24  0.328906 0.095429 1.403532  1.684115 0.560091 1.563926
25  7.685551 -26.508362 -6.023971  0.000000 -0.000000 -3.141593
26  20.158314 0.001465 -15.000000  -1.570796 -0.000000 -1.570796
27  6.688313 0.001464 -6.000000  -0.051945 -0.000000 -1.570796
28  -6.584470 -2.598536 -6.097302  0.145567 0.555153 2.449912
29  0.000000 13.479277 0.000000  1.937302 -0.000000 0.000000
30  -0.000002 13.477239 -0.000001  0.282893 0.557211 0.216843
31  0.267268 3.664726 -1.953292  -0.174603 0.396888 0.692349
32  0.000000 1.180355 0.000000  -0.024711 0.025798 1.296299
33  -0.000002 0.817135 -0.000000  0.012232 0.001270 1.111333
34  0.249422 3.688541 -0.940889  -0.050028 0.197908 0.917566
35  0.000000 1.800634 0.000000  -0.007162 -0.012483 1.774974
36  -0.000001 1.243406 -0.000001  0.004184 -0.005006 0.945407
37  0.244727 3.701095 0.087732  0.012445 0.020003 0.934973
38  -0.000001 1.766586 0.000001  0.006918 0.000685 1.464509
39  0.000001 1.189004 0.000000  -0.004472 0.017123 1.357249
40  0.277239 3.632248 1.274102  0.065416 -0.152210 0.927371
41  -0.000000 1.798493 0.000000  0.022848 -0.016745 1.078746
42  0.000000 1.235451 0.000001  -0.007143 0.004688 1.572574
43  -0.315441 0.857300 0.755944  -0.623037 -2.717983 1.196723
44  0.000001 2.265939 -0.000000  -0.034963 0.056629 0.741260
45  -0.000001 1.457811 -0.000000  -0.048332 -0.026494 0.468069
46  1.259681 3.818374 1.286946  0.065416 -0.152210 0.927371
47  1.226391 3.891693 0.090419  0.012445 0.020003 0.934972
48  1.231624 3.875534 -0.958680  -0.050028 0.197908 0.917566
49  1.209920 3.994781 -2.003047  -0.174603 0.396888 0.692349
50  -0.328905 0.095429 1.403532  -0.623037 -2.717983 1.196723
51  -16.440786 -3.178065 5.546096  -0.713746 3.060109 -0.309705
52  -8.428300 -13.481788 -15.000002  -1.570796 -0.000000 1.570796
53  -6.584470 -2.598536 -6.097302  -0.051945 0.000000 1.570796
time 2
0  0 0 0  0 0 0
1  0.000000 0.000000 0.000000  1.570796 -0.000000 0.000000
2  6.688313 0.001464 -6.000000  -0.180017 0.981463 -3.105344
3  -0.000000 13.479280 0.000000  0.356810 0.000000 -0.000000
4  -0.000000 13.477240 -0.000000  -0.260936 -0.968770 0.196263
5  -0.267269 3.664727 -1.953293  -0.106568 -0.025893 -0.137951
6  -0.000000 1.180355 -0.000001  -0.036623 -0.007435 -0.177465
7  -0.000001 0.817138 -0.000000  0.004200 -0.011559 0.007420
8  -0.249422 3.688542 -0.940889  -0.060580 -0.013550 -0.130737
9  0.000000 1.800634 -0.000000  0.004940 0.002077 -0.208495
10  0.000001 1.243406 -0.000000  0.006524 -0.000040 -0.064626
11  -0.244726 3.701097 0.087732  0.005036 0.002373 -0.139323
12  0.000000 1.766584 0.000000  0.002490 -0.003552 -0.259702
13  -0.000000 1.189003 0.000000  -0.017590 -0.001952 -0.152464
14  -0.277239 3.632249 1.274102  0.054558 0.010184 -0.144732
15  0.000001 1.798491 -0.000000  0.036314 0.010668 -0.285912
16  -0.000001 1.235453 -0.000000  -0.005152 0.006816 -0.068190
17  0.315441 0.857301 0.755944  1.684115 0.560091 1.563926
18  0.000001 2.265939 -0.000000  -0.057905 -0.032805 -0.238898
19  -0.000001 1.457808 0.000000  -0.029609 0.046490 0.034285
20  -1.259681 3.818376 1.286945  0.054558 0.010184 -0.144732
21  -1.226390 3.891694 0.090419  0.005036 0.002373 -0.139324
22  -1.231623 3.875535 -0.958681  -0.060580 -0.013550 -0.130737
23  -1.209919 3.994782 -2.003048  -0.106568 -0.025893 -0.137951
24  0.328906 0.095429 1.403532  1.684115 0.560091 1.563926
25  7.685551 -26.508362 -6.023971  0.000000 -0.000000 -3.141593
26  20.158314 0.001465 -15.000000  -1.570796 -0.000000 -1.570796
27  6.688313 0.001464 -6.000000  -0.051945 -0.000000 -1.570796
28  -6.584470 -2.598536 -6.097302  0.619592 0.090591 2.900437
29  0.000000 13.479277 0.000000  1.875495 -0.000000 0.000000
30  -0.000000 13.477239 -0.000000  0.382022 0.621505 -0.293514
31  0.267271 3.664727 -1.953293  -0.174603 0.396888 0.692349
32  -0.000001 1.180355 0.000001  -0.024711 0.025798 1.296300
33  -0.000001 0.817135 -0.000000  0.012232 0.001270 1.111333
34  0.249423 3.688542 -0.940889  -0.050028 0.197908 0.917566
35  0.000001 1.800633 -0.000001  -0.007162 -0.012483 1.774974
36  0.000000 1.243406 0.000001  0.004183 -0.005006 0.945407
37  0.244727 3.701096 0.087732  0.012445 0.020003 0.934972
38  -0.000001 1.766585 -0.000001  0.006918 0.000685 1.464509
39  0.000001 1.189004 0.000000  -0.004472 0.017123 1.357249
40  0.277240 3.632248 1.274102  0.065416 -0.152210 0.927371
41  -0.000002 1.798494 0.000001  0.022849 -0.016745 1.078746
42  -0.000000 1.235452 0.000000  -0.007143 0.004688 1.572574
43  -0.315440 0.857300 0.755943  -0.623037 -2.717983 1.196723
44  -0.000001 2.265939 0.000001  -0.034963 0.056629 0.741260
45  -0.000000 1.457811 0.000000  -0.048332 -0.026494 0.468069
46  1.259682 3.818375 1.286945  0.065416 -0.152210 0.927371
47  1.226391 3.891693 0.090419  0.012445 0.020003 0.934972
48  1.231624 3.875535 -0.958681  -0.050028 0.197908 0.917566
49  1.209920 3.994782 -2.003048  -0.174603 0.396887 0.692349
50  -0.328905 0.095428 1.403532  -0.623037 -2.717983 1.196723
51  -8.036976 -2.464701 9.781710  -0.219959 -2.887536 0.348844
52  -8.428300 -13.481788 -15.000002  -1.570796 -0.000000 1.570796
53  -6.584470 -2.598536 -6.097302  -0.051945 0.000000 1.570796
time 3
0  0 0 0  0 0 0
1  0.000000 0.000000 0.000000  1.570796 -0.000000 0.000000
2  6.688313 0.001464 -6.000000  -0.180017 0.981463 -3.105344
3  -0.000000 13.479280 0.000000  0.356810 0.000000 -0.000000
4  -0.000000 13.477240 -0.000000  -0.260936 -0.968770 0.196263
5  -0.267269 3.664727 -1.953293  -0.106568 -0.025893 -0.137951
6  -0.000000 1.180355 -0.000001  -0.036623 -0.007435 -0.177465
7  -0.000001 0.817138 -0.000000  0.004200 -0.011559 0.007420
8  -0.249422 3.688542 -0.940889  -0.060580 -0.013550 -0.130737
9  0.000000 1.800634 -0.000000  0.004940 0.002077 -0.208495
10  0.000001 1.243406 -0.000000  0.006524 -0.000040 -0.064626
11  -0.244726 3.701097 0.087732  0.005036 0.002373 -0.139323
12  0.000000 1.766584 0.000000  0.002490 -0.003552 -0.259702
13  -0.000000 1.189003 0.000000  -0.017590 -0.001952 -0.152464
14  -0.277239 3.632249 1.274102  0.054558 0.010184 -0.144732
15  0.000001 1.798491 -0.000000  0.036314 0.010668 -0.285912
16  -0.000001 1.235453 -0.000000  -0.005152 0.006816 -0.068190
17  0.315441 0.857301 0.755944  1.684115 0.560091 1.563926
18  0.000001 2.265939 -0.000000  -0.057905 -0.032805 -0.238898
19  -0.000001 1.457808 0.000000  -0.029609 0.046490 0.034285
20  -1.259681 3.818376 1.286945  0.054558 0.010184 -0.144732
21  -1.226390 3.891694 0.090419  0.005036 0.002373 -0.139324
22  -1.231623 3.875535 -0.958681  -0.060580 -0.013550 -0.130737
23  -1.209919 3.994782 -2.003048  -0.106568 -0.025893 -0.137951
24  0.328906 0.095429 1.403532  1.684115 0.560091 1.563926
25  7.685551 -26.508362 -6.023971  0.000000 -0.000000 -3.141593
26  20.158314 0.001465 -15.000000  -1.570796 -0.000000 -1.570796
27  6.688313 0.001464 -6.000000  -0.051945 -0.000000 -1.570796
28  -6.584470 -2.598536 -6.097302  1.186834 -0.261564 -3.091800
29  -0.000000 13.479275 0.000000  0.396353 -0.000000 0.000000
30  0.000000 13.477240 -0.000000  -0.683548 0.313048 -0.332937
31  0.267270 3.664723 -1.953295  -0.174603 0.396888 0.692349
32  0.000000 1.180356 0.000000  -0.024711 0.025798 1.296299
33  -0.000000 0.817136 -0.000000  0.012232 0.001270 1.111333
34  0.249423 3.688539 -0.940889  -0.050028 0.197908 0.917566
35  -0.000003 1.800632 0.000001  -0.007162 -0.012483 1.774974
36  -0.000001 1.243406 -0.000001  0.004183 -0.005006 0.945406
37  0.244727 3.701093 0.087731  0.012445 0.020003 0.934973
38  0.000001 1.766585 0.000001  0.006918 0.000685 1.464509
39  0.000001 1.189003 0.000001  -0.004472 0.017123 1.357249
40  0.277240 3.632246 1.274102  0.065416 -0.152210 0.927372
41  -0.000000 1.798494 -0.000000  0.022849 -0.016745 1.078747
42  -0.000001 1.235451 0.000000  -0.007143 0.004688 1.572574
43  -0.315441 0.857296 0.755942  -0.623038 -2.717983 1.196723
44  -0.000001 2.265940 -0.000001  -0.034963 0.056629 0.741260
45  0.000001 1.457814 -0.000000  -0.048332 -0.026494 0.468069
46  1.259682 3.818372 1.286944  0.065416 -0.152210 0.927372
47  1.226391 3.891691 0.090417  0.012445 0.020003 0.934972
48  1.231624 3.875531 -0.958682  -0.050028 0.197908 0.917566
49  1.209920 3.994781 -2.003049  -0.174603 0.396888 0.692349
50  -0.328905 0.095427 1.403532  -0.623037 -2.717983 1.196723
51  0.366833 -7.140463 18.993073  0.920665 0.064181 -2.774048
52  -8.428300 -13.481788 -15.000002  -1.570796 -0.000000 1.570796
53  -6.584470 -2.598536 -6.097302  -0.051945 0.000000 1.570796
time 4
0  0 0 0  0 0 0
1  0.000000 0.000000 0.000000  1.570796 -0.000000 0.000000
2  6.688313 0.001464 -6.000000  -0.180017 0.981463 -3.105344
3  -0.000000 13.479280 0.000000  0.356810 0.000000 -0.000000
4  -0.000000 13.477240 -0.000000  -0.260936 -0.968770 0.196263
5  -0.267269 3.664727 -1.953293  -0.106568 -0.025893 -0.137951
6  -0.000000 1.180355 -0.000001  -0.036623 -0.007435 -0.177465
7  -0.000001 0.817138 -0.000000  0.004200 -0.011559 0.007420
8  -0.249422 3.688542 -0.940889  -0.060580 -0.013550 -0.130737
9  0.000000 1.800634 -0.000000  0.004940 0.002077 -0.208495
10  0.000001 1.243406 -0.000000  0.006524 -0.000040 -0.064626
11  -0.244726 3.701097 0.087732  0.005036 0.002373 -0.139323
12  0.000000 1.766584 0.000000  0.002490 -0.003552 -0.259702
13  -0.000000 1.189003 0.000000  -0.017590 -0.001952 -0.152464
14  -0.277239 3.632249 1.274102  0.054558 0.010184 -0.144732
15  0.000001 1.798491 -0.000000  0.036314 0.010668 -0.285912
16  -0.000001 1.235453 -0.000000  -0.005152 0.006816 -0.068190
17  0.315441 0.857301 0.755944  1.684115 0.560091 1.563926
18  0.000001 2.265939 -0.000000  -0.057905 -0.032805 -0.238898
19  -0.000001 1.457808 0.000000  -0.029609 0.046490 0.034285
20  -1.259681 3.818376 1.286945  0.054558 0.010184 -0.144732
21  -1.226390 3.891694 0.090419  0.005036 0.002373 -0.139324
22  -1.231623 3.875535 -0.958681  -0.060580 -0.013550 -0.130737
23  -1.209919 3.994782 -2.003048  -0.106568 -0.025893 -0.137951
24  0.328906 0.095429 1.403532  1.684115 0.560091 1.563926
25  7.685551 -26.508362 -6.023971  0.000000 -0.000000 -3.141593
26  20.158314 0.001465 -15.000000  -1.570796 -0.000000 -1.570796
27  6.688313 0.001464 -6.000000  -0.051945 -0.000000 -1.570796
28  -6.584470 -2.598536 -6.097302  1.008206 -0.245628 -3.105827
29  0.000000 13.479275 -0.000001  0.729320 -0.000000 0.000000
30  -0.000001 13.477239 0.000000  -0.496392 0.089888 -0.485781
31  0.267269 3.664728 -1.953293  -0.174603 0.396888 0.692349
32  -0.000002 1.180355 -0.000001  -0.024711 0.025798 1.296299
33  -0.000000 0.817136 0.000001  0.012232 0.001270 1.111333
34  0.249423 3.688543 -0.940889  -0.050028 0.197907 0.917566
35  0.000002 1.800633 0.000000  -0.007162 -0.012483 1.774974
36  0.000000 1.243404 0.000001  0.004183 -0.005006 0.945407
37  0.244726 3.701096 0.087733  0.012445 0.020003 0.934973
38  0.000001 1.766585 -0.000001  0.006918 0.000685 1.464509
39  0.000003 1.189002 -0.000001  -0.004472 0.017123 1.357249
40  0.277239 3.632249 1.274103  0.065416 -0.152210 0.927372
41  -0.000003 1.798493 -0.000000  0.022849 -0.016745 1.078747
42  0.000001 1.235451 0.000000  -0.007143 0.004688 1.572574
43  -0.315441 0.857300 0.755944  -0.623037 -2.717983 1.196723
44  0.000001 2.265937 -0.000000  -0.034963 0.056629 0.741260
45  -0.000000 1.457812 -0.000000  -0.048332 -0.026494 0.468069
46  1.259681 3.818374 1.286946  0.065416 -0.152210 0.927371
47  1.226391 3.891693 0.090419  0.012445 0.020003 0.934972
48  1.231623 3.875535 -0.958679  -0.050028 0.197908 0.917566
49  1.209919 3.994783 -2.003047  -0.174603 0.396888 0.692349
50  -0.328906 0.095429 1.403532  -0.623037 -2.717983 1.196723
51  -0.407204 -7.333450 17.852600  1.260985 0.217906 -2.935293
52  -8.428300 -13.481788 -15.000002  -1.570796 -0.000000 1.570796
53  -6.584470 -2.598536 -6.097302  -0.051945 0.000000 1.570796
time 5
0  0 0 0  0 0 0
1  0.000000 0.000000 0.000000  1.570796 -0.000000 0.000000
2  6.688313 0.001464 -6.000000  -0.180017 0.981463 -3.105344
3  -0.000000 13.479280 0.000000  0.356810 0.000000 -0.000000
4  -0.000000 13.477240 -0.000000  -0.260936 -0.968770 0.196263
5  -0.267269 3.664727 -1.953293  -0.106568 -0.025893 -0.137951
6  -0.000000 1.180355 -0.000001  -0.036623 -0.007435 -0.177465
7  -0.000001 0.817138 -0.000000  0.004200 -0.011559 0.007420
8  -0.249422 3.688542 -0.940889  -0.060580 -0.013550 -0.130737
9  0.000000 1.800634 -0.000000  0.004940 0.002077 -0.208495
10  0.000001 1.243406 -0.000000  0.006524 -0.000040 -0.064626
11  -0.244726 3.701097 0.087732  0.005036 0.002373 -0.139323
12  0.000000 1.766584 0.000000  0.002490 -0.003552 -0.259702
13  -0.000000 1.189003 0.000000  -0.017590 -0.001952 -0.152464
14  -0.277239 3.632249 1.274102  0.054558 0.010184 -0.144732
15  0.000001 1.798491 -0.000000  0.036314 0.010668 -0.285912
16  -0.000001 1.235453 -0.000000  -0.005152 0.006816 -0.068190
17  0.315441 0.857301 0.755944  1.684115 0.560091 1.563926
18  0.000001 2.265939 -0.000000  -0.057905 -0.032805 -0.238898
19  -0.000001 1.457808 0.000000  -0.029609 0.046490 0.034285
20  -1.259681 3.818376 1.286945  0.054558 0.010184 -0.144732
21  -1.226390 3.891694 0.090419  0.005036 0.002373 -0.139324
22  -1.231623 3.875535 -0.958681  -0.060580 -0.013550 -0.130737
23  -1.209919 3.994782 -2.003048  -0.106568 -0.025893 -0.137951
24  0.328906 0.095429 1.403532  1.684115 0.560091 1.563926
25  7.685551 -26.508362 -6.023971  0.000000 -0.000000 -3.141593
26  20.158314 0.001465 -15.000000  -1.570796 -0.000000 -1.570796
27  6.688313 0.001464 -6.000000  -0.051945 -0.000000 -1.570796
28  -6.584470 -2.598536 -6.097302  0.909863 -0.185838 3.125987
29  -0.000000 13.479276 -0.000001  0.922866 -0.000000 0.000000
30  0.000000 13.477238 -0.000000  -0.347714 0.052064 -0.364556
31  0.267270 3.664724 -1.953292  -0.174603 0.396888 0.692349
32  0.000001 1.180355 0.000002  -0.024711 0.025798 1.296300
33  0.000000 0.817136 0.000002  0.012232 0.001270 1.111333
34  0.249423 3.688539 -0.940888  -0.050028 0.197908 0.917566
35  0.000001 1.800635 0.000001  -0.007162 -0.012483 1.774974
36  0.000000 1.243408 -0.000001  0.004183 -0.005006 0.945407
37  0.244727 3.701094 0.087733  0.012445 0.020003 0.934973
38  0.000001 1.766584 -0.000001  0.006918 0.000685 1.464509
39  0.000001 1.189005 -0.000000  -0.004472 0.017123 1.357249
40  0.277240 3.632243 1.274102  0.065416 -0.152210 0.927372
41  0.000001 1.798496 -0.000000  0.022849 -0.016745 1.078747
42  -0.000000 1.235451 0.000000  -0.007143 0.004688 1.572574
43  -0.315440 0.857297 0.755944  -0.623037 -2.717983 1.196723
44  -0.000001 2.265939 -0.000001  -0.034963 0.056629 0.741260
45  -0.000000 1.457812 -0.000001  -0.048332 -0.026494 0.468069
46  1.259682 3.818372 1.286947  0.065416 -0.152210 0.927372
47  1.226391 3.891691 0.090420  0.012445 0.020003 0.934972
48  1.231624 3.875533 -0.958680  -0.050028 0.197908 0.917566
49  1.209919 3.994780 -2.003047  -0.174603 0.396888 0.692349
50  -0.328905 0.095425 1.403533  -0.623037 -2.717983 1.196723
51  -2.288441 -7.450508 17.152935  1.492196 0.152944 -3.012547
52  -8.428300 -13.481788 -15.000002  -1.570796 -0.000000 1.570796
53  -6.584470 -2.598536 -6.097302  -0.051945 0.000000 1.570796
time 6
0  0 0 0  0 0 0
1  0.000000 0.000000 0.000000  1.570796 -0.000000 0.000000
2  6.688313 0.001464 -6.000000  -0.180017 0.981463 -3.105344
3  -0.000000 13.479280 0.000000  0.356810 0.000000 -0.000000
4  -0.000000 13.477240 -0.000000  -0.260936 -0.968770 0.196263
5  -0.267269 3.664727 -1.953293  -0.106568 -0.025893 -0.137951
6  -0.000000 1.180355 -0.000001  -0.036623 -0.007435 -0.177465
7  -0.000001 0.817138 -0.000000  0.004200 -0.011559 0.007420
8  -0.249422 3.688542 -0.940889  -0.060580 -0.013550 -0.130737
9  0.000000 1.800634 -0.000000  0.004940 0.002077 -0.208495
10  0.000001 1.243406 -0.000000  0.006524 -0.000040 -0.064626
11  -0.244726 3.701097 0.087732  0.005036 0.002373 -0.139323
12  0.000000 1.766584 0.000000  0.002490 -0.003552 -0.259702
13  -0.000000 1.189003 0.000000  -0.017590 -0.001952 -0.152464
14  -0.277239 3.632249 1.274102  0.054558 0.010184 -0.144732
15  0.000001 1.798491 -0.000000  0.036314 0.010668 -0.285912
16  -0.000001 1.235453 -0.000000  -0.005152 0.006816 -0.068190
17  0.315441 0.857301 0.755944  1.684115 0.560091 1.563926
18  0.000001 2.265939 -0.000000  -0.057905 -0.032805 -0.238898
19  -0.000001 1.457808 0.000000  -0.029609 0.046490 0.034285
20  -1.259681 3.818376 1.286945  0.054558 0.010184 -0.144732
21  -1.226390 3.891694 0.090419  0.005036 0.002373 -0.139324
22  -1.231623 3.875535 -0.958681  -0.060580 -0.013550 -0.130737
23  -1.209919 3.994782 -2.003048  -0.106568 -0.025893 -0.137951
24  0.328906 0.095429 1.403532  1.684115 0.560091 1.563926
25  7.685551 -26.508362 -6.023971  0.000000 -0.000000 -3.141593
26  20.158314 0.001465 -15.000000  -1.570796 -0.000000 -1.570796
27  6.688313 0.001464 -6.000000  -0.051945 -0.000000 -1.570796
28  -6.584470 -2.598536 -6.097302  0.855831 -0.103357 3.057523
29  0.000000 13.479276 -0.000000  1.024660 -0.000000 0.000000
30  -0.000000 13.477238 0.000001  -0.272023 0.131212 -0.161099
31  0.267269 3.664725 -1.953293  -0.174603 0.396888 0.692349
32  0.000001 1.180356 0.000000  -0.024711 0.025798 1.296299
33  -0.000001 0.817135 0.000001  0.012232 0.001270 1.111333
34  0.249422 3.688539 -0.940889  -0.050028 0.197908 0.917566
35  0.000001 1.800631 -0.000001  -0.007162 -0.012483 1.774975
36  -0.000001 1.243407 -0.000000  0.004183 -0.005006 0.945407
37  0.244726 3.701094 0.087733  0.012445 0.020003 0.934972
38  -0.000000 1.766585 -0.000000  0.006918 0.000685 1.464509
39  -0.000001 1.189003 -0.000000  -0.004472 0.017123 1.357249
40  0.277239 3.632247 1.274102  0.065416 -0.152210 0.927372
41  0.000001 1.798493 0.000000  0.022849 -0.016745 1.078747
42  -0.000003 1.235451 0.000000  -0.007143 0.004688 1.572574
43  -0.315441 0.857298 0.755943  -0.623037 -2.717983 1.196723
44  -0.000000 2.265939 -0.000000  -0.034963 0.056629 0.741260
45  -0.000000 1.457811 0.000001  -0.048332 -0.026494 0.468068
46  1.259681 3.818374 1.286945  0.065416 -0.152210 0.927371
47  1.226391 3.891690 0.090419  0.012445 0.020003 0.934972
48  1.231623 3.875533 -0.958680  -0.050028 0.197908 0.917566
49  1.209919 3.994778 -2.003048  -0.174603 0.396888 0.692349
50  -0.328906 0.095425 1.403532  -0.623037 -2.717983 1.196723
51  -4.615578 -7.510619 16.793646  1.610926 0.010027 -3.051700
52  -8.428300 -13.481788 -15.000002  -1.570796 -0.000000 1.570796
53  -6.584470 -2.598536 -6.097302  -0.051945 0.000000 1.570796
time 7
0  0 0 0  0 0 0
1  0.000000 0.000000 0.000000  1.570796 -0.000000 0.000000
2  6.688313 0.001464 -6.000000  -0.180017 0.981463 -3.105344
3  -0.000000 13.479280 0.000000  0.356810 0.000000 -0.000000
4  -0.000000 13.477240 -0.000000  -0.260936 -0.968770 0.196263
5  -0.267269 3.664727 -1.953293  -0.106568 -0.025893 -0.137951
6  -0.000000 1.180355 -0.000001  -0.036623 -0.007435 -0.177465
7  -0.000001 0.817138 -0.000000  0.004200 -0.011559 0.007420
8  -0.249422 3.688542 -0.940889  -0.060580 -0.013550 -0.130737
9  0.000000 1.800634 -0.000000  0.004940 0.002077 -0.208495
10  0.000001 1.243406 -0.000000  0.006524 -0.000040 -0.064626
11  -0.244726 3.701097 0.087732  0.005036 0.002373 -0.139323
12  0.000000 1.766584 0.000000  0.002490 -0.003552 -0.259702
13  -0.000000 1.189003 0.000000  -0.017590 -0.001952 -0.152464
14  -0.277239 3.632249 1.274102  0.054558 0.010184 -0.144732
15  0.000001 1.798491 -0.000000  0.036314 0.010668 -0.285912
16  -0.000001 1.235453 -0.000000  -0.005152 0.006816 -0.068190
17  0.315441 0.857301 0.755944  1.684115 0.560091 1.563926
18  0.000001 2.265939 -0.000000  -0.057905 -0.032805 -0.238898
19  -0.000001 1.457808 0.000000  -0.029609 0.046490 0.034285
20  -1.259681 3.818376 1.286945  0.054558 0.010184 -0.144732
21  -1.226390 3.891694 0.090419  0.005036 0.002373 -0.139324
22  -1.231623 3.875535 -0.958681  -0.060580 -0.013550 -0.130737
23  -1.209919 3.994782 -2.003048  -0.106568 -0.025893 -0.137951
24  0.328906 0.095429 1.403532  1.684115 0.560091 1.563926
25  7.685551 -26.508362 -6.023971  0.000000 -0.000000 -3.141593
26  20.158314 0.001465 -15.000000  -1.570796 -0.000000 -1.570796
27  6.688313 0.001464 -6.000000  -0.051945 -0.000000 -1.570796
28  -6.584470 -2.598536 -6.097302  0.831007 -0.025582 2.994406
29  0.000001 13.479276 0.000001  1.055526 -0.000000 0.000000
30  -0.000000 13.477238 -0.000001  -0.209799 0.243796 0.035534
31  0.267269 3.664726 -1.953293  -0.174603 0.396888 0.692349
32  0.000000 1.180356 0.000001  -0.024711 0.025798 1.296299
33  0.000001 0.817136 -0.000001  0.012232 0.001270 1.111333
34  0.249422 3.688540 -0.940890  -0.050028 0.197908 0.917566
35  0.000002 1.800634 0.000000  -0.007162 -0.012483 1.774974
36  -0.000000 1.243406 0.000001  0.004183 -0.005006 0.945407
37  0.244726 3.701096 0.087732  0.012445 0.020003 0.934972
38  -0.000000 1.766585 0.000000  0.006918 0.000685 1.464509
39  0.000000 1.189003 0.000000  -0.004472 0.017123 1.357249
40  0.277238 3.632248 1.274102  0.065416 -0.152210 0.927371
41  -0.000003 1.798494 -0.000001  0.022849 -0.016745 1.078746
42  -0.000002 1.235453 0.000000  -0.007143 0.004688 1.572574
43  -0.315441 0.857300 0.755943  -0.623038 -2.717983 1.196723
44  0.000000 2.265940 0.000000  -0.034963 0.056629 0.741260
45  -0.000001 1.457810 0.000000  -0.048332 -0.026494 0.468069
46  1.259681 3.818374 1.286945  0.065416 -0.152210 0.927371
47  1.226391 3.891695 0.090419  0.012445 0.020003 0.934972
48  1.231623 3.875533 -0.958681  -0.050028 0.197908 0.917566
49  1.209919 3.994781 -2.003048  -0.174603 0.396888 0.692349
50  -0.328906 0.095429 1.403532  -0.623037 -2.717983 1.196723
51  -6.727306 -7.532765 16.661276  -1.486924 -3.008703 0.075341
52  -8.428300 -13.481788 -15.000002  -1.570796 -0.000000 1.570796
53  -6.584470 -2.598536 -6.097302  -0.051945 0.000000 1.570796
time 8
0  0 0 0  0 0 0
1  0.000000 0.000000 0.000000  1.570796 -0.000000 0.000000
2  6.688313 0.001464 -6.000000  -0.180017 0.981463 -3.105344
3  -0.000000 13.479280 0.000000  0.356810 0.000000 -0.000000
4  -0.000000 13.477240 -0.000000  -0.260936 -0.968770 0.196263
5  -0.267269 3.664727 -1.953293  -0.106568 -0.025893 -0.137951
6  -0.000000 1.180355 -0.000001  -0.036623 -0.007435 -0.177465
7  -0.000001 0.817138 -0.000000  0.004200 -0.011559 0.007420
8  -0.249422 3.688542 -0.940889  -0.060580 -0.013550 -0.130737
9  0.000000 1.800634 -0.000000  0.004940 0.002077 -0.208495
10  0.000001 1.243406 -0.000000  0.006524 -0.000040 -0.064626
11  -0.244726 3.701097 0.087732  0.005036 0.002373 -0.139323
12  0.000000 1.766584 0.000000  0.002490 -0.003552 -0.259702
13  -0.000000 1.189003 0.000000  -0.017590 -0.001952 -0.152464
14  -0.277239 3.632249 1.274102  0.054558 0.010184 -0.144732
15  0.000001 1.798491 -0.000000  0.036314 0.010668 -0.285912
16  -0.000001 1.235453 -0.000000  -0.005152 0.006816 -0.068190
17  0.315441 0.857301 0.755944  1.684115 0.560091 1.563926
18  0.000001 2.265939 -0.000000  -0.057905 -0.032805 -0.238898
19  -0.000001 1.457808 0.000000  -0.029609 0.046490 0.034285
20  -1.259681 3.818376 1.286945  0.054558 0.010184 -0.144732
21  -1.226390 3.891694 0.090419  0.005036 0.002373 -0.139324
22  -1.231623 3.875535 -0.958681  -0.060580 -0.013550 -0.130737
23  -1.209919 3.994782 -2.003048  -0.106568 -0.025893 -0.137951
24  0.328906 0.095429 1.403532  1.684115 0.560091 1.563926
25  7.685551 -26.508362 -6.023971  0.000000 -0.000000 -3.141593
26  20.158314 0.001465 -15.000000  -1.570796 -0.000000 -1.570796
27  6.688313 0.001464 -6.000000  -0.051945 -0.000000 -1.570796
28  -6.584470 -2.598536 -6.097302  0.823903 0.019873 2.957736
29  0.000001 13.479275 -0.000001  1.052208 -0.000000 0.000000
30  -0.000001 13.477236 0.000000  -0.170937 0.306062 0.137668
31  0.267270 3.664728 -1.953293  -0.174603 0.396888 0.692349
32  -0.000003 1.180355 -0.000001  -0.024711 0.025798 1.296299
33  -0.000000 0.817135 -0.000000  0.012232 0.001270 1.111333
34  0.249423 3.688540 -0.940888  -0.050028 0.197908 0.917566
35  0.000000 1.800634 0.000000  -0.007162 -0.012483 1.774974
36  0.000000 1.243405 0.000000  0.004183 -0.005006 0.945407
37  0.244726 3.701094 0.087734  0.012445 0.020003 0.934972
38  0.000001 1.766585 -0.000001  0.006918 0.000685 1.464509
39  -0.000000 1.189005 0.000001  -0.004472 0.017123 1.357249
40  0.277240 3.632248 1.274103  0.065416 -0.152210 0.927371
41  0.000001 1.798495 0.000001  0.022849 -0.016745 1.078746
42  -0.000000 1.235453 -0.000001  -0.007143 0.004688 1.572574
43  -0.315442 0.857301 0.755944  -0.623037 -2.717983 1.196723
44  0.000002 2.265939 0.000000  -0.034963 0.056629 0.741260
45  0.000000 1.457810 0.000000  -0.048332 -0.026494 0.468069
46  1.259681 3.818375 1.286946  0.065416 -0.152210 0.927372
47  1.226391 3.891694 0.090419  0.012445 0.020003 0.934972
48  1.231622 3.875535 -0.958680  -0.050028 0.197908 0.917566
49  1.209919 3.994780 -2.003047  -0.174603 0.396888 0.692349
50  -0.328906 0.095428 1.403533  -0.623037 -2.717983 1.196723
51  -7.962320 -7.535929 16.642366  -1.480675 -2.943741 0.071894
52  -8.428300 -13.481788 -15.000002  -1.570796 -0.000000 1.570796
53  -6.584470 -2.598536 -6.097302  -0.051945 0.000000 1.570796
time 9
0  0 0 0  0 0 0
1  0.000000 0.000000 0.000000  1.570796 -0.000000 0.000000
2  6.688313 0.001464 -6.000000  -0.180017 0.981463 -3.105344
3  -0.000000 13.479280 0.000000  0.356810 0.000000 -0.000000
4  -0.000000 13.477240 -0.000000  -0.260936 -0.968770 0.196263
5  -0.267269 3.664727 -1.953293  -0.106568 -0.025893 -0.137951
6  -0.000000 1.180355 -0.000001  -0.036623 -0.007435 -0.177465
7  -0.000001 0.817138 -0.000000  0.004200 -0.011559 0.007420
8  -0.249422 3.688542 -0.940889  -0.060580 -0.013550 -0.130737
9  0.000000 1.800634 -0.000000  0.004940 0.002077 -0.208495
10  0.000001 1.243406 -0.000000  0.006524 -0.000040 -0.064626
11  -0.244726 3.701097 0.087732  0.005036 0.002373 -0.139323
12  0.000000 1.766584 0.000000  0.002490 -0.003552 -0.259702
13  -0.000000 1.189003 0.000000  -0.017590 -0.001952 -0.152464
14  -0.277239 3.632249 1.274102  0.054558 0.010184 -0.144732
15  0.000001 1.798491 -0.000000  0.036314 0.010668 -0.285912
16  -0.000001 1.235453 -0.000000  -0.005152 0.006816 -0.068190
17  0.315441 0.857301 0.755944  1.684115 0.560091 1.563926
18  0.000001 2.265939 -0.000000  -0.057905 -0.032805 -0.238898
19  -0.000001 1.457808 0.000000  -0.029609 0.046490 0.034285
20  -1.259681 3.818376 1.286945  0.054558 0.010184 -0.144732
21  -1.226390 3.891694 0.090419  0.005036 0.002373 -0.139324
22  -1.231623 3.875535 -0.958681  -0.060580 -0.013550 -0.130737
23  -1.209919 3.994782 -2.003048  -0.106568 -0.025893 -0.137951
24  0.328906 0.095429 1.403532  1.684115 0.560091 1.563926
25  7.685551 -26.508362 -6.023971  0.000000 -0.000000 -3.141593
26  20.158314 0.001465 -15.000000  -1.570796 -0.000000 -1.570796
27  6.688313 0.001464 -6.000000  -0.051945 -0.000000 -1.570796
28  -6.584470 -2.598536 -6.097302  0.826239 0.037662 2.943373
29  0.000000 13.479276 -0.000001  1.044520 -0.000000 0.000000
30  -0.000000 13.477239 -0.000002  -0.185708 0.318958 0.146242
31  0.267271 3.664728 -1.953292  -0.174603 0.396888 0.692349
32  -0.000001 1.180355 0.000001  -0.024711 0.025798 1.296299
33  -0.000001 0.817134 -0.000000  0.012232 0.001270 1.111333
34  0.249424 3.688540 -0.940888  -0.050028 0.197908 0.917566
35  0.000001 1.800632 -0.000000  -0.007162 -0.012483 1.774974
36  -0.000001 1.243405 -0.000000  0.004183 -0.005006 0.945407
37  0.244727 3.701096 0.087733  0.012445 0.020003 0.934972
38  0.000000 1.766583 0.000000  0.006918 0.000685 1.464509
39  0.000001 1.189002 0.000000  -0.004472 0.017123 1.357249
40  0.277240 3.632249 1.274102  0.065416 -0.152210 0.927372
41  0.000000 1.798495 0.000000  0.022849 -0.016745 1.078747
42  0.000001 1.235451 -0.000001  -0.007143 0.004688 1.572574
43  -0.315439 0.857299 0.755944  -0.623037 -2.717983 1.196723
44  0.000000 2.265940 0.000000  -0.034963 0.056629 0.741260
45  0.000000 1.457811 0.000001  -0.048332 -0.026494 0.468068
46  1.259683 3.818376 1.286946  0.065416 -0.152210 0.927371
47  1.226392 3.891694 0.090419  0.012445 0.020003 0.934972
48  1.231626 3.875535 -0.958681  -0.050028 0.197908 0.917566
49  1.209921 3.994781 -2.003048  -0.174603 0.396888 0.692349
50  -0.328904 0.095428 1.403533  -0.623037 -2.717983 1.196723
51  -8.440182 -7.480466 16.673613  -1.500708 -2.951124 0.068380
52  -8.428300 -13.481788 -15.000002  -1.570796 -0.000000 1.570796
53  -6.584470 -2.598536 -6.097302  -0.051945 0.000000 1.570796
time 10
0  0 0 0  0 0 0
1  0.000000 0.000000 0.000000  1.570796 -0.000000 0.000000
2  6.688313 0.001464 -6.000000  -0.180017 0.981463 -3.105344
3  -0.000000 13.479280 0.000000  0.356810 0.000000 -0.000000
4  -0.000000 13.477240 -0.000000  -0.260936 -0.968770 0.196263
5  -0.267269 3.664727 -1.953293  -0.106568 -0.025893 -0.137951
6  -0.000000 1.180355 -0.000001  -0.036623 -0.007435 -0.177465
7  -0.000001 0.817138 -0.000000  0.004200 -0.011559 0.007420
8  -0.249422 3.688542 -0.940889  -0.060580 -0.013550 -0.130737
9  0.000000 1.800634 -0.000000  0.004940 0.002077 -0.208495
10  0.000001 1.243406 -0.000000  0.006524 -0.000040 -0.064626
11  -0.244726 3.701097 0.087732  0.005036 0.002373 -0.139323
12  0.000000 1.766584 0.000000  0.002490 -0.003552 -0.259702
13  -0.000000 1.189003 0.000000  -0.017590 -0.001952 -0.152464
14  -0.277239 3.632249 1.274102  0.054558 0.010184 -0.144732
15  0.000001 1.798491 -0.000000  0.036314 0.010668 -0.285912
16  -0.000001 1.235453 -0.000000  -0.005152 0.006816 -0.068190
17  0.315441 0.857301 0.755944  1.684115 0.560091 1.563926
18  0.000001 2.265939 -0.000000  -0.057905 -0.032805 -0.238898
19  -0.000001 1.457808 0.000000  -0.029609 0.046490 0.034285
20  -1.259681 3.818376 1.286945  0.054558 0.010184 -0.144732
21  -1.226390 3.891694 0.090419  0.005036 0.002373 -0.139324
22  -1.231623 3.875535 -0.958681  -0.060580 -0.013550 -0.130737
23  -1.209919 3.994782 -2.003048  -0.106568 -0.025893 -0.137951
24  0.328906 0.095429 1.403532  1.684115 0.560091 1.563926
25  7.685551 -26.508362 -6.023971  0.000000 -0.000000 -3.141593
26  20.158314 0.001465 -15.000000  -1.570796 -0.000000 -1.570796
27  6.688313 0.001464 -6.000000  -0.051945 -0.000000 -1.570796
28  -6.584470 -2.598536 -6.097302  0.836016 0.049771 2.933582
29  0.000001 13.479276 0.000000  1.032307 -0.000000 0.000000
30  0.000001 13.477237 -0.000001  -0.238547 0.321320 0.137777
31  0.267270 3.664726 -1.953293  -0.174603 0.396887 0.692349
32  0.000001 1.180357 0.000000  -0.024711 0.025798 1.296299
33  -0.000001 0.817133 0.000001  0.012232 0.001270 1.111333
34  0.249425 3.688543 -0.940888  -0.050028 0.197908 0.917566
35  0.000000 1.800633 -0.000000  -0.007162 -0.012483 1.774974
36  -0.000001 1.243409 -0.000001  0.004183 -0.005006 0.945407
37  0.244727 3.701094 0.087733  0.012445 0.020003 0.934972
38  -0.000000 1.766584 -0.000001  0.006918 0.000685 1.464509
39  0.000000 1.189004 0.000000  -0.004472 0.017123 1.357249
40  0.277240 3.632248 1.274102  0.065416 -0.152210 0.927371
41  0.000004 1.798496 -0.000001  0.022849 -0.016745 1.078746
42  0.000001 1.235452 0.000000  -0.007143 0.004688 1.572574
43  -0.315440 0.857300 0.755944  -0.623037 -2.717983 1.196723
44  0.000000 2.265941 -0.000001  -0.034963 0.056629 0.741260
45  0.000000 1.457811 -0.000000  -0.048332 -0.026494 0.468068
46  1.259682 3.818374 1.286946  0.065416 -0.152210 0.927371
47  1.226391 3.891694 0.090419  0.012445 0.020003 0.934972
48  1.231624 3.875534 -0.958680  -0.050028 0.197908 0.917566
49  1.209921 3.994783 -2.003047  -0.174603 0.396887 0.692349
50  -0.328905 0.095427 1.403533  -0.623037 -2.717983 1.196723
51  -8.748789 -7.339602 16.760004  -1.550792 -2.970614 0.062936
52  -8.428300 -13.481788 -15.000002  -1.570796 -0.000000 1.570796
53  -6.584470 -2.598536 -6.097302  -0.051945 0.000000 1.570796
time 11
0  0 0 0  0 0 0
1  0.000000 0.000000 0.000000  1.570796 -0.000000 0.000000
2  6.688313 0.001464 -6.000000  -0.180017 0.981463 -3.105344
3  -0.000000 13.479280 0.000000  0.356810 0.000000 -0.000000
4  -0.000000 13.477240 -0.000000  -0.260936 -0.968770 0.196263
5  -0.267269 3.664727 -1.953293  -0.106568 -0.025893 -0.137951
6  -0.000000 1.180355 -0.000001  -0.036623 -0.007435 -0.177465
7  -0.000001 0.817138 -0.000000  0.004200 -0.011559 0.007420
8  -0.249422 3.688542 -0.940889  -0.060580 -0.013550 -0.130737
9  0.000000 1.800634 -0.000000  0.004940 0.002077 -0.208495
10  0.000001 1.243406 -0.000000  0.006524 -0.000040 -0.064626
11  -0.244726 3.701097 0.087732  0.005036 0.002373 -0.139323
12  0.000000 1.766584 0.000000  0.002490 -0.003552 -0.259702
13  -0.000000 1.189003 0.000000  -0.017590 -0.001952 -0.152464
14  -0.277239 3.632249 1.274102  0.054558 0.010184 -0.144732
15  0.000001 1.798491 -0.000000  0.036314 0.010668 -0.285912
16  -0.000001 1.235453 -0.000000  -0.005152 0.006816 -0.068190
17  0.315441 0.857301 0.755944  1.684115 0.560091 1.563926
18  0.000001 2.265939 -0.000000  -0.057905 -0.032805 -0.238898
19  -0.000001 1.457808 0.000000  -0.029609 0.046490 0.034285
20  -1.259681 3.818376 1.286945  0.054558 0.010184 -0.144732
21  -1.226390 3.891694 0.090419  0.005036 0.002373 -0.139324
22  -1.231623 3.875535 -0.958681  -0.060580 -0.013550 -0.130737
23  -1.209919 3.994782 -2.003048  -0.106568 -0.025893 -0.137951
24  0.328906 0.095429 1.403532  1.684115 0.560091 1.563926
25  7.685551 -26.508362 -6.023971  0.000000 -0.000000 -3.141593
26  20.158314 0.001465 -15.000000  -1.570796 -0.000000 -1.570796
27  6.688313 0.001464 -6.000000  -0.051945 -0.000000 -1.570796
28  -6.584470 -2.598536 -6.097302  0.851163 0.057495 2.927328
29  0.000000 13.479276 -0.000001  1.016054 -0.000000 0.000000
30  -0.000001 13.477241 0.000001  -0.311036 0.315640 0.117724
31  0.267270 3.664726 -1.953293  -0.174603 0.396888 0.692349
32  0.000001 1.180356 -0.000001  -0.024711 0.025798 1.296299
33  -0.000002 0.817136 -0.000001  0.012232 0.001270 1.111333
34  0.249424 3.688542 -0.940889  -0.050028 0.197908 0.917566
35  -0.000001 1.800634 -0.000000  -0.007162 -0.012483 1.774974
36  0.000000 1.243406 0.000000  0.004183 -0.005006 0.945407
37  0.244727 3.701097 0.087733  0.012445 0.020003 0.934973
38  0.000001 1.766584 0.000000  0.006918 0.000685 1.464509
39  -0.000000 1.189006 -0.000000  -0.004472 0.017123 1.357249
40  0.277239 3.632248 1.274102  0.065416 -0.152210 0.927372
41  0.000001 1.798494 -0.000000  0.022849 -0.016745 1.078746
42  0.000000 1.235452 0.000000  -0.007143 0.004688 1.572574
43  -0.315441 0.857299 0.755944  -0.623037 -2.717983 1.196723
44  0.000001 2.265941 -0.000001  -0.034963 0.056629 0.741260
45  0.000000 1.457811 -0.000000  -0.048332 -0.026494 0.468068
46  1.259681 3.818374 1.286946  0.065416 -0.152210 0.927372
47  1.226391 3.891694 0.090419  0.012445 0.020003 0.934972
48  1.231624 3.875535 -0.958680  -0.050028 0.197908 0.917566
49  1.209920 3.994780 -2.003047  -0.174603 0.396888 0.692349
50  -0.328907 0.095426 1.403533  -0.623037 -2.717983 1.196723
51  -8.929344 -7.151621 16.890507  -1.615900 -2.998219 0.056028
52  -8.428300 -13.481788 -15.000002  -1.570796 -0.000000 1.570796
53  -6.584470 -2.598536 -6.097302  -0.051945 0.000000 1.570796
time 12
0  0 0 0  0 0 0
1  0.000000 0.000000 0.000000  1.570796 -0.000000 0.000000
2  6.688313 0.001464 -6.000000  -0.180017 0.981463 -3.105344
3  -0.000000 13.479280 0.000000  0.356810 0.000000 -0.000000
4  -0.000000 13.477240 -0.000000  -0.260936 -0.968770 0.196263
5  -0.267269 3.664727 -1.953293  -0.106568 -0.025893 -0.137951
6  -0.000000 1.180355 -0.000001  -0.036623 -0.007435 -0.177465
7  -0.000001 0.817138 -0.000000  0.004200 -0.011559 0.007420
8  -0.249422 3.688542 -0.940889  -0.060580 -0.013550 -0.130737
9  0.000000 1.800634 -0.000000  0.004940 0.002077 -0.208495
10  0.000001 1.243406 -0.000000  0.006524 -0.000040 -0.064626
11  -0.244726 3.701097 0.087732  0.005036 0.002373 -0.139323
12  0.000000 1.766584 0.000000  0.002490 -0.003552 -0.259702
13  -0.000000 1.189003 0.000000  -0.017590 -0.001952 -0.152464
14  -0.277239 3.632249 1.274102  0.054558 0.010184 -0.144732
15  0.000001 1.798491 -0.000000  0.036314 0.010668 -0.285912
16  -0.000001 1.235453 -0.000000  -0.005152 0.006816 -0.068190
17  0.315441 0.857301 0.755944  1.684115 0.560091 1.563926
18  0.000001 2.265939 -0.000000  -0.057905 -0.032805 -0.238898
19  -0.000001 1.457808 0.000000  -0.029609 0.046490 0.034285
20  -1.259681 3.818376 1.286945  0.054558 0.010184 -0.144732
21  -1.226390 3.891694 0.090419  0.005036 0.002373 -0.139324
22  -1.231623 3.875535 -0.958681  -0.060580 -0.013550 -0.130737
23  -1.209919 3.994782 -2.003048  -0.106568 -0.025893 -0.137951
24  0.328906 0.095429 1.403532  1.684115 0.560091 1.563926
25  7.685551 -26.508362 -6.023971  0.000000 -0.000000 -3.141593
26  20.158314 0.001465 -15.000000  -1.570796 -0.000000 -1.570796
27  6.688313 0.001464 -6.000000  -0.051945 -0.000000 -1.570796
28  -6.584470 -2.598536 -6.097302  0.869726 0.062070 2.923621
29  0.000001 13.479277 -0.000001  0.995735 -0.000000 0.000000
30  0.000000 13.477240 0.000001  -0.384136 0.304306 0.091764
31  0.267269 3.664725 -1.953292  -0.174603 0.396888 0.692349
32  0.000000 1.180356 -0.000001  -0.024711 0.025798 1.296300
33  0.000000 0.817134 0.000000  0.012232 0.001270 1.111333
34  0.249423 3.688538 -0.940888  -0.050028 0.197908 0.917566
35  -0.000001 1.800632 -0.000000  -0.007162 -0.012483 1.774974
36  -0.000000 1.243409 -0.000000  0.004183 -0.005006 0.945407
37  0.244726 3.701093 0.087733  0.012445 0.020003 0.934973
38  -0.000001 1.766585 0.000000  0.006918 0.000685 1.464509
39  0.000000 1.189006 0.000001  -0.004472 0.017123 1.357249
40  0.277240 3.632246 1.274103  0.065416 -0.152210 0.927371
41  0.000001 1.798496 0.000000  0.022849 -0.016745 1.078746
42  -0.000000 1.235454 -0.000000  -0.007143 0.004688 1.572573
43  -0.315441 0.857298 0.755944  -0.623037 -2.717983 1.196723
44  -0.000001 2.265938 -0.000000  -0.034963 0.056629 0.741260
45  0.000000 1.457812 0.000000  -0.048332 -0.026494 0.468069
46  1.259682 3.818372 1.286946  0.065416 -0.152210 0.927371
47  1.226391 3.891691 0.090420  0.012445 0.020003 0.934972
48  1.231623 3.875533 -0.958680  -0.050028 0.197908 0.917566
49  1.209919 3.994780 -2.003047  -0.174603 0.396888 0.692349
50  -0.328907 0.095425 1.403533  -0.623037 -2.717983 1.196723
51  -9.023060 -6.954806 17.054094  1.460584 -0.111648 -3.093471
52  -8.428300 -13.481788 -15.000002  -1.570796 -0.000000 1.570796
53  -6.584470 -2.598536 -6.097302  -0.051945 0.000000 1.570796
time 13
0  0 0 0  0 0 0
1  0.000000 0.000000 0.000000  1.570796 -0.000000 0.000000
2  6.688313 0.001464 -6.000000  -0.180017 0.981463 -3.105344
3  -0.000000 13.479280 0.000000  0.356810 0.000000 -0.000000
4  -0.000000 13.477240 -0.000000  -0.260936 -0.968770 0.196263
5  -0.267269 3.664727 -1.953293  -0.106568 -0.025893 -0.137951
6  -0.000000 1.180355 -0.000001  -0.036623 -0.007435 -0.177465
7  -0.000001 0.817138 -0.000000  0.004200 -0.011559 0.007420
8  -0.249422 3.688542 -0.940889  -0.060580 -0.013550 -0.130737
9  0.000000 1.800634 -0.000000  0.004940 0.002077 -0.208495
10  0.000001 1.243406 -0.000000  0.006524 -0.000040 -0.064626
11  -0.244726 3.701097 0.087732  0.005036 0.002373 -0.139323
12  0.000000 1.766584 0.000000  0.002490 -0.003552 -0.259702
13  -0.000000 1.189003 0.000000  -0.017590 -0.001952 -0.152464
14  -0.277239 3.632249 1.274102  0.054558 0.010184 -0.144732
15  0.000001 1.798491 -0.000000  0.036314 0.010668 -0.285912
16  -0.000001 1.235453 -0.000000  -0.005152 0.006816 -0.068190
17  0.315441 0.857301 0.755944  1.684115 0.560091 1.563926
18  0.000001 2.265939 -0.000000  -0.057905 -0.032805 -0.238898
19  -0.000001 1.457808 0.000000  -0.029609 0.046490 0.034285
20  -1.259681 3.818376 1.286945  0.054558 0.010184 -0.144732
21  -1.226390 3.891694 0.090419  0.005036 0.002373 -0.139324
22  -1.231623 3.875535 -0.958681  -0.060580 -0.013550 -0.130737
23  -1.209919 3.994782 -2.003048  -0.106568 -0.025893 -0.137951
24  0.328906 0.095429 1.403532  1.684115 0.560091 1.563926
25  7.685551 -26.508362 -6.023971  0.000000 -0.000000 -3.141593
26  20.158314 0.001465 -15.000000  -1.570796 -0.000000 -1.570796
27  6.688313 0.001464 -6.000000  -0.051945 -0.000000 -1.570796
28  -6.584470 -2.598536 -6.097302  0.889764 0.064703 2.921486
29  0.000000 13.479275 0.000001  0.971175 -0.000000 0.000000
30  0.000000 13.477240 0.000000  -0.438907 0.289979 0.065422
31  0.267270 3.664724 -1.953292  -0.174603 0.396887 0.692349
32  0.000000 1.180356 -0.000000  -0.024711 0.025798 1.296300
33  0.000001 0.817136 -0.000002  0.012232 0.001270 1.111333
34  0.249423 3.688539 -0.940888  -0.050028 0.197908 0.917566
35  0.000000 1.800633 0.000001  -0.007162 -0.012483 1.774974
36  -0.000000 1.243406 0.000001  0.004183 -0.005006 0.945407
37  0.244727 3.701093 0.087733  0.012445 0.020003 0.934972
38  0.000004 1.766585 -0.000001  0.006918 0.000685 1.464509
39  -0.000001 1.189001 -0.000000  -0.004472 0.017123 1.357249
40  0.277241 3.632247 1.274102  0.065416 -0.152210 0.927371
41  -0.000000 1.798494 -0.000001  0.022849 -0.016745 1.078747
42  -0.000000 1.235450 -0.000000  -0.007143 0.004688 1.572574
43  -0.315440 0.857297 0.755944  -0.623037 -2.717983 1.196723
44  0.000000 2.265939 0.000000  -0.034963 0.056629 0.741260
45  -0.000001 1.457810 0.000000  -0.048332 -0.026494 0.468068
46  1.259682 3.818372 1.286946  0.065416 -0.152210 0.927372
47  1.226392 3.891691 0.090419  0.012445 0.020003 0.934972
48  1.231624 3.875532 -0.958680  -0.050028 0.197908 0.917566
49  1.209920 3.994782 -2.003047  -0.174603 0.396887 0.692349
50  -0.328906 0.095427 1.403533  -0.623037 -2.717983 1.196723
51  -9.071133 -6.787445 17.239742  1.410501 -0.079792 -3.101911
52  -8.428300 -13.481788 -15.000002  -1.570796 -0.000000 1.570796
53  -6.584470 -2.598536 -6.097302  -0.051945 0.000000 1.570796
time 14
0  0 0 0  0 0 0
1  0.000000 0.000000 0.000000  1.570796 -0.000000 0.000000
2  6.688313 0.001464 -6.000000  -0.180017 0.981463 -3.105344
3  -0.000000 13.479280 0.000000  0.356810 0.000000 -0.000000
4  -0.000000 13.477240 -0.000000  -0.260936 -0.968770 0.196263
5  -0.267269 3.664727 -1.953293  -0.106568 -0.025893 -0.137951
6  -0.000000 1.180355 -0.000001  -0.036623 -0.007435 -0.177465
7  -0.000001 0.817138 -0.000000  0.004200 -0.011559 0.007420
8  -0.249422 3.688542 -0.940889  -0.060580 -0.013550 -0.130737
9  0.000000 1.800634 -0.000000  0.004940 0.002077 -0.208495
10  0.000001 1.243406 -0.000000  0.006524 -0.000040 -0.064626
11  -0.244726 3.701097 0.087732  0.005036 0.002373 -0.139323
12  0.000000 1.766584 0.000000  0.002490 -0.003552 -0.259702
13  -0.000000 1.189003 0.000000  -0.017590 -0.001952 -0.152464
14  -0.277239 3.632249 1.274102  0.054558 0.010184 -0.144732
15  0.000001 1.798491 -0.000000  0.036314 0.010668 -0.285912
16  -0.000001 1.235453 -0.000000  -0.005152 0.006816 -0.068190
17  0.315441 0.857301 0.755944  1.684115 0.560091 1.563926
18  0.000001 2.265939 -0.000000  -0.057905 -0.032805 -0.238898
19  -0.000001 1.457808 0.000000  -0.029609 0.046490 0.034285
20  -1.259681 3.818376 1.286945  0.054558 0.010184 -0.144732
21  -1.226390 3.891694 0.090419  0.005036 0.002373 -0.139324
22  -1.231623 3.875535 -0.958681  -0.060580 -0.013550 -0.130737
23  -1.209919 3.994782 -2.003048  -0.106568 -0.025893 -0.137951
24  0.328906 0.095429 1.403532  1.684115 0.560091 1.563926
25  7.685551 -26.508362 -6.023971  0.000000 -0.000000 -3.141593
26  20.158314 0.001465 -15.000000  -1.570796 -0.000000 -1.570796
27  6.688313 0.001464 -6.000000  -0.051945 -0.000000 -1.570796
28  -6.584470 -2.598536 -6.097302  0.909414 0.066591 2.919954
29  0.000000 13.479276 0.000000  0.942080 -0.000000 0.000000
30  -0.000001 13.477240 0.000000  -0.456816 0.275627 0.043934
31  0.267270 3.664728 -1.953293  -0.174603 0.396888 0.692349
32  -0.000001 1.180356 0.000000  -0.024711 0.025798 1.296300
33  -0.000003 0.817136 0.000000  0.012232 0.001270 1.111333
34  0.249422 3.688544 -0.940888  -0.050028 0.197908 0.917566
35  0.000000 1.800632 0.000000  -0.007162 -0.012483 1.774974
36  0.000000 1.243407 -0.000000  0.004184 -0.005006 0.945407
37  0.244726 3.701098 0.087734  0.012445 0.020003 0.934973
38  -0.000002 1.766585 0.000000  0.006918 0.000685 1.464509
39  0.000001 1.189002 0.000000  -0.004472 0.017123 1.357249
40  0.277239 3.632249 1.274102  0.065416 -0.152210 0.927371
41  -0.000001 1.798493 -0.000000  0.022849 -0.016745 1.078746
42  -0.000000 1.235452 -0.000000  -0.007143 0.004688 1.572574
43  -0.315442 0.857302 0.755944  -0.623037 -2.717983 1.196723
44  0.000001 2.265938 0.000000  -0.034963 0.056629 0.741260
45  0.000001 1.457812 0.000000  -0.048332 -0.026494 0.468068
46  1.259680 3.818377 1.286946  0.065416 -0.152210 0.927371
47  1.226390 3.891695 0.090419  0.012445 0.020003 0.934972
48  1.231622 3.875536 -0.958679  -0.050028 0.197908 0.917566
49  1.209919 3.994783 -2.003047  -0.174603 0.396888 0.692349
50  -0.328906 0.095429 1.403533  -0.623037 -2.717983 1.196723
51  -9.114765 -6.687819 17.436417  1.390467 -0.051799 -3.110420
52  -8.428300 -13.481788 -15.000002  -1.570796 -0.000000 1.570796
53  -6.584470 -2.598536 -6.097302  -0.051945 0.000000 1.570796
time 15
0  0 0 0  0 0 0
1  0.000000 0.000000 0.000000  1.570796 -0.000000 0.000000
2  6.688313 0.001464 -6.000000  -0.180017 0.981463 -3.105344
3  -0.000000 13.479280 0.000000  0.356810 0.000000 -0.000000
4  -0.000000 13.477240 -0.000000  -0.260936 -0.968770 0.196263
5  -0.267269 3.664727 -1.953293  -0.106568 -0.025893 -0.137951
6  -0.000000 1.180355 -0.000001  -0.036623 -0.007435 -0.177465
7  -0.000001 0.817138 -0.000000  0.004200 -0.011559 0.007420
8  -0.249422 3.688542 -0.940889  -0.060580 -0.013550 -0.130737
9  0.000000 1.800634 -0.000000  0.004940 0.002077 -0.208495
10  0.000001 1.243406 -0.000000  0.006524 -0.000040 -0.064626
11  -0.244726 3.701097 0.087732  0.005036 0.002373 -0.139323
12  0.000000 1.766584 0.000000  0.002490 -0.003552 -0.259702
13  -0.000000 1.189003 0.000000  -0.017590 -0.001952 -0.152464
14  -0.277239 3.632249 1.274102  0.054558 0.010184 -0.144732
15  0.000001 1.798491 -0.000000  0.036314 0.010668 -0.285912
16  -0.000001 1.235453 -0.000000  -0.005152 0.006816 -0.068190
17  0.315441 0.857301 0.755944  1.684115 0.560091 1.563926
18  0.000001 2.265939 -0.000000  -0.057905 -0.032805 -0.238898
19  -0.000001 1.457808 0.000000  -0.029609 0.046490 0.034285
20  -1.259681 3.818376 1.286945  0.054558 0.010184 -0.144732
21  -1.226390 3.891694 0.090419  0.005036 0.002373 -0.139324
22  -1.231623 3.875535 -0.958681  -0.060580 -0.013550 -0.130737
23  -1.209919 3.994782 -2.003048  -0.106568 -0.025893 -0.137951
24  0.328906 0.095429 1.403532  1.684115 0.560091 1.563926
25  7.685551 -26.508362 -6.023971  0.000000 -0.000000 -3.141593
26  20.158314 0.001465 -15.000000  -1.570796 -0.000000 -1.570796
27  6.688313 0.001464 -6.000000  -0.051945 -0.000000 -1.570796
28  -6.584470 -2.598536 -6.097302  0.927981 0.068989 2.918009
29  -0.000001 13.479278 0.000001  0.910090 -0.000000 0.000000
30  -0.000000 13.477239 -0.000001  -0.434909 0.264169 0.030687
31  0.267270 3.664725 -1.953292  -0.174603 0.396887 0.692349
32  -0.000003 1.180353 -0.000001  -0.024711 0.025798 1.296299
33  0.000001 0.817134 -0.000000  0.012232 0.001270 1.111333
34  0.249423 3.688544 -0.940888  -0.050028 0.197907 0.917566
35  0.000002 1.800634 -0.000000  -0.007161 -0.012483 1.774975
36  0.000001 1.243405 0.000001  0.004183 -0.005006 0.945407
37  0.244727 3.701095 0.087733  0.012445 0.020003 0.934972
38  -0.000001 1.766585 0.000000  0.006918 0.000685 1.464509
39  -0.000001 1.189004 0.000000  -0.004472 0.017123 1.357249
40  0.277240 3.632247 1.274103  0.065416 -0.152210 0.927371
41  0.000003 1.798494 0.000000  0.022849 -0.016745 1.078747
42  -0.000002 1.235453 0.000000  -0.007143 0.004688 1.572574
43  -0.315441 0.857299 0.755944  -0.623037 -2.717983 1.196723
44  0.000001 2.265939 0.000001  -0.034963 0.056629 0.741260
45  -0.000000 1.457813 0.000001  -0.048332 -0.026494 0.468068
46  1.259682 3.818374 1.286946  0.065416 -0.152210 0.927371
47  1.226391 3.891694 0.090420  0.012445 0.020003 0.934972
48  1.231624 3.875534 -0.958680  -0.050028 0.197908 0.917566
49  1.209919 3.994781 -2.003047  -0.174603 0.396887 0.692349
50  -0.328905 0.095429 1.403533  -0.623037 -2.717983 1.196723
51  -9.185743 -6.643166 17.633089  1.403825 -0.030787 -3.118555
52  -8.428300 -13.481788 -15.000002  -1.570796 -0.000000 1.570796
53  -6.584470 -2.598536 -6.097302  -0.051945 0.000000 1.570796
time 16
0  0 0 0  0 0 0
1  0.000000 0.000000 0.000000  1.570796 -0.000000 0.000000
2  6.688313 0.001464 -6.000000  -0.180017 0.981463 -3.105344
3  -0.000000 13.479280 0.000000  0.356810 0.000000 -0.000000
4  -0.000000 13.477240 -0.000000  -0.260936 -0.968770 0.196263
5  -0.267269 3.664727 -1.953293  -0.106568 -0.025893 -0.137951
6  -0.000000 1.180355 -0.000001  -0.036623 -0.007435 -0.177465
7  -0.000001 0.817138 -0.000000  0.004200 -0.011559 0.007420
8  -0.249422 3.688542 -0.940889  -0.060580 -0.013550 -0.130737
9  0.000000 1.800634 -0.000000  0.004940 0.002077 -0.208495
10  0.000001 1.243406 -0.000000  0.006524 -0.000040 -0.064626
11  -0.244726 3.701097 0.087732  0.005036 0.002373 -0.139323
12  0.000000 1.766584 0.000000  0.002490 -0.003552 -0.259702
13  -0.000000 1.189003 0.000000  -0.017590 -0.001952 -0.152464
14  -0.277239 3.632249 1.274102  0.054558 0.010184 -0.144732
15  0.000001 1.798491 -0.000000  0.036314 0.010668 -0.285912
16  -0.000001 1.235453 -0.000000  -0.005152 0.006816 -0.068190
17  0.315441 0.857301 0.755944  1.684115 0.560091 1.563926
18  0.000001 2.265939 -0.000000  -0.057905 -0.032805 -0.238898
19  -0.000001 1.457808 0.000000  -0.029609 0.046490 0.034285
20  -1.259681 3.818376 1.286945  0.054558 0.010184 -0.144732
21  -1.226390 3.891694 0.090419  0.005036 0.002373 -0.139324
22  -1.231623 3.875535 -0.958681  -0.060580 -0.013550 -0.130737
23  -1.209919 3.994782 -2.003048  -0.106568 -0.025893 -0.137951
24  0.328906 0.095429 1.403532  1.684115 0.560091 1.563926
25  7.685551 -26.508362 -6.023971  0.000000 -0.000000 -3.141593
26  20.158314 0.001465 -15.000000  -1.570796 -0.000000 -1.570796
27  6.688313 0.001464 -6.000000  -0.051945 -0.000000 -1.570796
28  -6.584470 -2.598536 -6.097302  0.945657 0.072019 2.915549
29  -0.000000 13.479277 -0.000001  0.878016 -0.000000 0.000000
30  -0.000001 13.477240 0.000001  -0.390076 0.256045 0.024384
31  0.267270 3.664727 -1.953292  -0.174603 0.396888 0.692349
32  -0.000002 1.180354 0.000000  -0.024711 0.025798 1.296300
33  0.000002 0.817134 0.000000  0.012232 0.001270 1.111333
34  0.249423 3.688541 -0.940889  -0.050028 0.197908 0.917566
35  0.000001 1.800632 0.000001  -0.007162 -0.012483 1.774974
36  0.000001 1.243406 0.000000  0.004183 -0.005006 0.945407
37  0.244726 3.701095 0.087733  0.012445 0.020003 0.934972
38  -0.000000 1.766585 0.000001  0.006918 0.000685 1.464509
39  0.000000 1.189003 -0.000000  -0.004472 0.017123 1.357249
40  0.277240 3.632249 1.274102  0.065416 -0.152210 0.927372
41  -0.000005 1.798493 0.000000  0.022849 -0.016745 1.078747
42  -0.000001 1.235453 -0.000000  -0.007143 0.004688 1.572574
43  -0.315440 0.857301 0.755944  -0.623037 -2.717983 1.196723
44  0.000002 2.265939 0.000000  -0.034963 0.056629 0.741260
45  0.000000 1.457812 0.000000  -0.048332 -0.026494 0.468068
46  1.259681 3.818376 1.286946  0.065416 -0.152210 0.927372
47  1.226391 3.891695 0.090419  0.012445 0.020003 0.934972
48  1.231623 3.875534 -0.958680  -0.050028 0.197908 0.917566
49  1.209920 3.994783 -2.003047  -0.174603 0.396888 0.692349
50  -0.328906 0.095428 1.403533  -0.623037 -2.717983 1.196723
51  -9.278173 -6.613233 17.818735  1.437219 -0.016386 -3.125958
52  -8.428300 -13.481788 -15.000002  -1.570796 -0.000000 1.570796
53  -6.584470 -2.598536 -6.097302  -0.051945 0.000000 1.570796
time 17
0  0 0 0  0 0 0
1  0.000000 0.000000 0.000000  1.570796 -0.000000 0.000000
2  6.688313 0.001464 -6.000000  -0.180017 0.981463 -3.105344
3  -0.000000 13.479280 0.000000  0.356810 0.000000 -0.000000
4  -0.000000 13.477240 -0.000000  -0.260936 -0.968770 0.196263
5  -0.267269 3.664727 -1.953293  -0.106568 -0.025893 -0.137951
6  -0.000000 1.180355 -0.000001  -0.036623 -0.007435 -0.177465
7  -0.000001 0.817138 -0.000000  0.004200 -0.011559 0.007420
8  -0.249422 3.688542 -0.940889  -0.060580 -0.013550 -0.130737
9  0.000000 1.800634 -0.000000  0.004940 0.002077 -0.208495
10  0.000001 1.243406 -0.000000  0.006524 -0.000040 -0.064626
11  -0.244726 3.701097 0.087732  0.005036 0.002373 -0.139323
12  0.000000 1.766584 0.000000  0.002490 -0.003552 -0.259702
13  -0.000000 1.189003 0.000000  -0.017590 -0.001952 -0.152464
14  -0.277239 3.632249 1.274102  0.054558 0.010184 -0.144732
15  0.000001 1.798491 -0.000000  0.036314 0.010668 -0.285912
16  -0.000001 1.235453 -0.000000  -0.005152 0.006816 -0.068190
17  0.315441 0.857301 0.755944  1.684115 0.560091 1.563926
18  0.000001 2.265939 -0.000000  -0.057905 -0.032805 -0.238898
19  -0.000001 1.457808 0.000000  -0.029609 0.046490 0.034285
20  -1.259681 3.818376 1.286945  0.054558 0.010184 -0.144732
21  -1.226390 3.891694 0.090419  0.005036 0.002373 -0.139324
22  -1.231623 3.875535 -0.958681  -0.060580 -0.013550 -0.130737
23  -1.209919 3.994782 -2.003048  -0.106568 -0.025893 -0.137951
24  0.328906 0.095429 1.403532  1.684115 0.560091 1.563926
25  7.685551 -26.508362 -6.023971  0.000000 -0.000000 -3.141593
26  20.158314 0.001465 -15.000000  -1.570796 -0.000000 -1.570796
27  6.688313 0.001464 -6.000000  -0.051945 -0.000000 -1.570796
28  -6.584470 -2.598536 -6.097302  0.961489 0.075186 2.912976
29  -0.000000 13.479277 0.000000  0.848179 -0.000000 0.000000
30  0.000000 13.477240 0.000000  -0.334250 0.250596 0.023007
31  0.267269 3.664728 -1.953294  -0.174603 0.396888 0.692349
32  0.000000 1.180353 0.000000  -0.024711 0.025798 1.296299
33  0.000001 0.817133 -0.000000  0.012232 0.001270 1.111333
34  0.249423 3.688544 -0.940890  -0.050028 0.197908 0.917566
35  -0.000002 1.800635 -0.000000  -0.007162 -0.012483 1.774974
36  0.000000 1.243405 -0.000000  0.004183 -0.005006 0.945407
37  0.244727 3.701097 0.087732  0.012445 0.020003 0.934972
38  -0.000001 1.766585 0.000000  0.006918 0.000685 1.464509
39  -0.000001 1.189006 -0.000001  -0.004472 0.017123 1.357249
40  0.277239 3.632249 1.274101  0.065416 -0.152210 0.927371
41  0.000000 1.798494 0.000001  0.022849 -0.016745 1.078747
42  0.000001 1.235450 0.000001  -0.007143 0.004688 1.572574
43  -0.315442 0.857300 0.755943  -0.623037 -2.717983 1.196723
44  -0.000001 2.265939 0.000000  -0.034963 0.056629 0.741260
45  -0.000000 1.457812 -0.000001  -0.048332 -0.026494 0.468069
46  1.259681 3.818377 1.286945  0.065416 -0.152210 0.927371
47  1.226391 3.891693 0.090419  0.012445 0.020003 0.934972
48  1.231624 3.875534 -0.958681  -0.050028 0.197908 0.917566
49  1.209920 3.994782 -2.003048  -0.174603 0.396888 0.692349
50  -0.328905 0.095429 1.403532  -0.623037 -2.717983 1.196723
51  -9.376730 -6.595077 17.982325  1.480632 -0.007351 -3.132298
52  -8.428300 -13.481788 -15.000002  -1.570796 -0.000000 1.570796
53  -6.584470 -2.598536 -6.097302  -0.051945 0.000000 1.570796
time 18
0  0 0 0  0 0 0
1  0.000000 0.000000 0.000000  1.570796 -0.000000 0.000000
2  6.688313 0.001464 -6.000000  -0.180017 0.981463 -3.105344
3  -0.000000 13.479280 0.000000  0.356810 0.000000 -0.000000
4  -0.000000 13.477240 -0.000000  -0.260936 -0.968770 0.196263
5  -0.267269 3.664727 -1.953293  -0.106568 -0.025893 -0.137951
6  -0.000000 1.180355 -0.000001  -0.036623 -0.007435 -0.177465
7  -0.000001 0.817138 -0.000000  0.004200 -0.011559 0.007420
8  -0.249422 3.688542 -0.940889  -0.060580 -0.013550 -0.130737
9  0.000000 1.800634 -0.000000  0.004940 0.002077 -0.208495
10  0.000001 1.243406 -0.000000  0.006524 -0.000040 -0.064626
11  -0.244726 3.701097 0.087732  0.005036 0.002373 -0.139323
12  0.000000 1.766584 0.000000  0.002490 -0.003552 -0.259702
13  -0.000000 1.189003 0.000000  -0.017590 -0.001952 -0.152464
14  -0.277239 3.632249 1.274102  0.054558 0.010184 -0.144732
15  0.000001 1.798491 -0.000000  0.036314 0.010668 -0.285912
16  -0.000001 1.235453 -0.000000  -0.005152 0.006816 -0.068190
17  0.315441 0.857301 0.755944  1.684115 0.560091 1.563926
18  0.000001 2.265939 -0.000000  -0.057905 -0.032805 -0.238898
19  -0.000001 1.457808 0.000000  -0.029609 0.046490 0.034285
20  -1.259681 3.818376 1.286945  0.054558 0.010184 -0.144732
21  -1.226390 3.891694 0.090419  0.005036 0.002373 -0.139324
22  -1.231623 3.875535 -0.958681  -0.060580 -0.013550 -0.130737
23  -1.209919 3.994782 -2.003048  -0.106568 -0.025893 -0.137951
24  0.328906 0.095429 1.403532  1.684115 0.560091 1.563926
25  7.685551 -26.508362 -6.023971  0.000000 -0.000000 -3.141593
26  20.158314 0.001465 -15.000000  -1.570796 -0.000000 -1.570796
27  6.688313 0.001464 -6.000000  -0.051945 -0.000000 -1.570796
28  -6.584470 -2.598536 -6.097302  0.974414 0.078015 2.910677
29  0.000001 13.479276 -0.000001  0.823122 -0.000000 0.000000
30  -0.000001 13.477238 -0.000001  -0.279377 0.247233 0.024563
31  0.267270 3.664725 -1.953293  -0.174603 0.396888 0.692349
32  0.000001 1.180355 0.000000  -0.024711 0.025798 1.296300
33  0.000001 0.817136 0.000001  0.012232 0.001270 1.111333
34  0.249423 3.688540 -0.940889  -0.050028 0.197908 0.917566
35  0.000000 1.800635 0.000001  -0.007162 -0.012483 1.774975
36  -0.000000 1.243409 0.000000  0.004183 -0.005006 0.945407
37  0.244727 3.701095 0.087733  0.012445 0.020003 0.934973
38  0.000002 1.766585 -0.000000  0.006918 0.000685 1.464509
39  -0.000001 1.189001 -0.000000  -0.004472 0.017123 1.357249
40  0.277239 3.632247 1.274102  0.065416 -0.152210 0.927371
41  -0.000000 1.798494 0.000000  0.022849 -0.016745 1.078746
42  0.000002 1.235452 -0.000000  -0.007143 0.004688 1.572574
43  -0.315441 0.857299 0.755944  -0.623037 -2.717983 1.196723
44  0.000002 2.265940 0.000000  -0.034963 0.056629 0.741260
45  -0.000002 1.457811 0.000000  -0.048332 -0.026494 0.468068
46  1.259681 3.818373 1.286945  0.065416 -0.152210 0.927371
47  1.226391 3.891690 0.090419  0.012445 0.020003 0.934972
48  1.231623 3.875533 -0.958680  -0.050028 0.197908 0.917566
49  1.209919 3.994779 -2.003047  -0.174603 0.396887 0.692349
50  -0.328906 0.095428 1.403533  -0.623037 -2.717983 1.196723
51  -9.466093 -6.585753 18.112827  1.524044 -0.002438 -3.137239
52  -8.428300 -13.481788 -15.000002  -1.570796 -0.000000 1.570796
53  -6.584470 -2.598536 -6.097302  -0.051945 0.000000 1.570796
time 19
0  0 0 0  0 0 0
1  0.000000 0.000000 0.000000  1.570796 -0.000000 0.000000
2  6.688313 0.001464 -6.000000  -0.180017 0.981463 -3.105344
3  -0.000000 13.479280 0.000000  0.356810 0.000000 -0.000000
4  -0.000000 13.477240 -0.000000  -0.260936 -0.968770 0.196263
5  -0.267269 3.664727 -1.953293  -0.106568 -0.025893 -0.137951
6  -0.000000 1.180355 -0.000001  -0.036623 -0.007435 -0.177465
7  -0.000001 0.817138 -0.000000  0.004200 -0.011559 0.007420
8  -0.249422 3.688542 -0.940889  -0.060580 -0.013550 -0.130737
9  0.000000 1.800634 -0.000000  0.004940 0.002077 -0.208495
10  0.000001 1.243406 -0.000000  0.006524 -0.000040 -0.064626
11  -0.244726 3.701097 0.087732  0.005036 0.002373 -0.139323
12  0.000000 1.766584 0.000000  0.002490 -0.003552 -0.259702
13  -0.000000 1.189003 0.000000  -0.017590 -0.001952 -0.152464
14  -0.277239 3.632249 1.274102  0.054558 0.010184 -0.144732
15  0.000001 1.798491 -0.000000  0.036314 0.010668 -0.285912
16  -0.000001 1.235453 -0.000000  -0.005152 0.006816 -0.068190
17  0.315441 0.857301 0.755944  1.684115 0.560091 1.563926
18  0.000001 2.265939 -0.000000  -0.057905 -0.032805 -0.238898
19  -0.000001 1.457808 0.000000  -0.029609 0.046490 0.034285
20  -1.259681 3.818376 1.286945  0.054558 0.010184 -0.144732
21  -1.226390 3.891694 0.090419  0.005036 0.002373 -0.139324
22  -1.231623 3.875535 -0.958681  -0.060580 -0.013550 -0.130737
23  -1.209919 3.994782 -2.003048  -0.106568 -0.025893 -0.137951
24  0.328906 0.095429 1.403532  1.684115 0.560091 1.563926
25  7.685551 -26.508362 -6.023971  0.000000 -0.000000 -3.141593
26  20.158314 0.001465 -15.000000  -1.570796 -0.000000 -1.570796
27  6.688313 0.001464 -6.000000  -0.051945 -0.000000 -1.570796
28  -6.584470 -2.598536 -6.097302  0.983087 0.080045 2.909025
29  -0.000001 13.479276 -0.000001  0.805950 -0.000000 0.000000
30  0.000001 13.477237 -0.000001  -0.237622 0.245483 0.027003
31  0.267270 3.664727 -1.953293  -0.174603 0.396888 0.692349
32  0.000000 1.180354 0.000000  -0.024711 0.025798 1.296299
33  0.000000 0.817135 0.000001  0.012232 0.001270 1.111333
34  0.249422 3.688544 -0.940888  -0.050028 0.197908 0.917566
35  -0.000001 1.800635 0.000000  -0.007162 -0.012483 1.774974
36  0.000001 1.243406 0.000000  0.004183 -0.005006 0.945406
37  0.244726 3.701095 0.087733  0.012445 0.020003 0.934972
38  -0.000000 1.766585 0.000001  0.006918 0.000685 1.464509
39  -0.000001 1.189004 -0.000000  -0.004472 0.017123 1.357249
40  0.277239 3.632250 1.274102  0.065416 -0.152210 0.927372
41  -0.000000 1.798495 0.000000  0.022849 -0.016745 1.078747
42  0.000000 1.235453 -0.000000  -0.007143 0.004688 1.572574
43  -0.315440 0.857300 0.755943  -0.623037 -2.717983 1.196723
44  0.000000 2.265939 -0.000000  -0.034963 0.056629 0.741260
45  0.000000 1.457812 -0.000000  -0.048332 -0.026494 0.468069
46  1.259681 3.818375 1.286946  0.065416 -0.152210 0.927372
47  1.226391 3.891692 0.090419  0.012445 0.020003 0.934972
48  1.231622 3.875535 -0.958680  -0.050028 0.197908 0.917566
49  1.209919 3.994783 -2.003048  -0.174603 0.396888 0.692349
50  -0.328905 0.095429 1.403533  -0.623037 -2.717983 1.196723
51  -9.530945 -6.582318 18.199219  1.557439 -0.000402 -3.140449
52  -8.428300 -13.481788 -15.000002  -1.570796 -0.000000 1.570796
53  -6.584470 -2.598536 -6.097302  -0.051945 0.000000 1.570796
time 20
0  0 0 0  0 0 0
1  0.000000 0.000000 0.000000  1.570796 -0.000000 0.000000
2  6.688313 0.001464 -6.000000  -0.180017 0.981463 -3.105344
3  -0.000000 13.479280 0.000000  0.356810 0.000000 -0.000000
4  -0.000000 13.477240 -0.000000  -0.260936 -0.968770 0.196263
5  -0.267269 3.664727 -1.953293  -0.106568 -0.025893 -0.137951
6  -0.000000 1.180355 -0.000001  -0.036623 -0.007435 -0.177465
7  -0.000001 0.817138 -0.000000  0.004200 -0.011559 0.007420
8  -0.249422 3.688542 -0.940889  -0.060580 -0.013550 -0.130737
9  0.000000 1.800634 -0.000000  0.004940 0.002077 -0.208495
10  0.000001 1.243406 -0.000000  0.006524 -0.000040 -0.064626
11  -0.244726 3.701097 0.087732  0.005036 0.002373 -0.139323
12  0.000000 1.766584 0.000000  0.002490 -0.003552 -0.259702
13  -0.000000 1.189003 0.000000  -0.017590 -0.001952 -0.152464
14  -0.277239 3.632249 1.274102  0.054558 0.010184 -0.144732
15  0.000001 1.798491 -0.000000  0.036314 0.010668 -0.285912
16  -0.000001 1.235453 -0.000000  -0.005152 0.006816 -0.068190
17  0.315441 0.857301 0.755944  1.684115 0.560091 1.563926
18  0.000001 2.265939 -0.000000  -0.057905 -0.032805 -0.238898
19  -0.000001 1.457808 0.000000  -0.029609 0.046490 0.034285
20  -1.259681 3.818376 1.286945  0.054558 0.010184 -0.144732
21  -1.226390 3.891694 0.090419  0.005036 0.002373 -0.139324
22  -1.231623 3.875535 -0.958681  -0.060580 -0.013550 -0.130737
23  -1.209919 3.994782 -2.003048  -0.106568 -0.025893 -0.137951
24  0.328906 0.095429 1.403532  1.684115 0.560091 1.563926
25  7.685551 -26.508362 -6.023971  0.000000 -0.000000 -3.141593
26  20.158314 0.001465 -15.000000  -1.570796 -0.000000 -1.570796
27  6.688313 0.001464 -6.000000  -0.051945 -0.000000 -1.570796
28  -6.584470 -2.598536 -6.097302  0.986251 0.080824 2.908392
29  0.000002 13.479277 0.000001  0.799590 -0.000000 0.000000
30  0.000001 13.477239 -0.000000  -0.221035 0.244975 0.028276
31  0.267270 3.664726 -1.953293  -0.174603 0.396888 0.692349
32  -0.000002 1.180353 -0.000000  -0.024711 0.025798 1.296299
33  -0.000003 0.817136 -0.000001  0.012232 0.001270 1.111333
34  0.249423 3.688542 -0.940889  -0.050028 0.197908 0.917566
35  0.000001 1.800633 0.000001  -0.007162 -0.012483 1.774974
36  0.000000 1.243406 -0.000000  0.004183 -0.005006 0.945407
37  0.244727 3.701096 0.087732  0.012445 0.020003 0.934973
38  0.000001 1.766584 0.000000  0.006918 0.000685 1.464509
39  0.000000 1.189004 -0.000000  -0.004472 0.017123 1.357249
40  0.277239 3.632249 1.274102  0.065416 -0.152210 0.927371
41  -0.000001 1.798495 0.000000  0.022849 -0.016745 1.078747
42  0.000001 1.235453 0.000000  -0.007143 0.004688 1.572574
43  -0.315441 0.857301 0.755943  -0.623037 -2.717983 1.196723
44  -0.000002 2.265940 -0.000000  -0.034963 0.056629 0.741260
45  0.000000 1.457811 -0.000000  -0.048332 -0.026494 0.468069
46  1.259681 3.818375 1.286945  0.065416 -0.152210 0.927371
47  1.226391 3.891694 0.090419  0.012445 0.020003 0.934972
48  1.231624 3.875534 -0.958681  -0.050028 0.197908 0.917566
49  1.209920 3.994781 -2.003048  -0.174603 0.396888 0.692349
50  -0.328906 0.095429 1.403532  -0.623037 -2.717983 1.196723
51  -9.555967 -6.581827 18.230465  1.570796 -0.000000 -3.141593
52  -8.428300 -13.481788 -15.000002  -1.570796 -0.000000 1.570796
53  -6.584470 -2.598536 -6.097302  -0.051945 0.000000 1.570796
end
