version 1
nodes
0 "blender_implicit" -1
1 "root" -1
2 "upperarm_l" 1
3 "lowerarm_l" 2
4 "hand_l" 3
5 "pinky_0_l" 4
6 "pinky_1_l" 5
7 "pinky_2_l" 6
8 "ring_0_l" 4
9 "ring_1_l" 8
10 "ring_2_l" 9
11 "middle_0_l" 4
12 "middle_1_l" 11
13 "middle_2_l" 12
14 "index_0_l" 4
15 "index_1_l" 14
16 "index_2_l" 15
17 "thumb_0_l" 4
18 "thumb_1_l" 17
19 "thumb_2_l" 18
20 "rig_index_l" 4
21 "rig_middle_l" 4
22 "rig_ring_l" 4
23 "rig_pinky_l" 4
24 "rig_thumb_l" 4
25 "rig_hand_l" 1
26 "rig_l" 1
27 "rig_upperarm_l" 1
28 "upperarm_r" 1
29 "lowerarm_r" 28
30 "hand_r" 29
31 "pinky_0_r" 30
32 "pinky_1_r" 31
33 "pinky_2_r" 32
34 "ring_0_r" 30
35 "ring_1_r" 34
36 "ring_2_r" 35
37 "middle_0_r" 30
38 "middle_1_r" 37
39 "middle_2_r" 38
40 "index_0_r" 30
41 "index_1_r" 40
42 "index_2_r" 41
43 "thumb_0_r" 30
44 "thumb_1_r" 43
45 "thumb_2_r" 44
46 "rig_index_r" 30
47 "rig_middle_r" 30
48 "rig_ring_r" 30
49 "rig_pinky_r" 30
50 "rig_thumb_r" 30
51 "rig_hand_r" 1
52 "rig_r" 1
53 "rig_upperarm_r" 1
end
skeleton
time 0
0  0 0 0  0 0 0
1  0.000000 0.000000 0.000000  1.570796 -0.000000 0.000000
2  6.688313 0.001464 -6.000000  -0.180017 0.981463 -3.105344
3  -0.000000 13.479280 0.000000  0.356810 0.000000 -0.000000
4  -0.000000 13.477240 -0.000000  -0.260936 -0.968770 0.196263
5  -0.267269 3.664727 -1.953293  -0.106568 -0.025893 -0.137951
6  -0.000000 1.180355 -0.000001  -0.036623 -0.007435 -0.177465
7  -0.000001 0.817138 -0.000000  0.004200 -0.011559 0.007420
8  -0.249422 3.688542 -0.940889  -0.060580 -0.013550 -0.130737
9  0.000000 1.800634 -0.000000  0.004940 0.002077 -0.208495
10  0.000001 1.243406 -0.000000  0.006524 -0.000040 -0.064626
11  -0.244726 3.701097 0.087732  0.005036 0.002373 -0.139323
12  0.000000 1.766584 0.000000  0.002490 -0.003552 -0.259702
13  -0.000000 1.189003 0.000000  -0.017590 -0.001952 -0.152464
14  -0.277239 3.632249 1.274102  0.054558 0.010184 -0.144732
15  0.000001 1.798491 -0.000000  0.036314 0.010668 -0.285912
16  -0.000001 1.235453 -0.000000  -0.005152 0.006816 -0.068190
17  0.315441 0.857301 0.755944  1.684115 0.560091 1.563926
18  0.000001 2.265939 -0.000000  -0.057905 -0.032805 -0.238898
19  -0.000001 1.457808 0.000000  -0.029609 0.046490 0.034285
20  -1.259681 3.818376 1.286945  0.054558 0.010184 -0.144732
21  -1.226390 3.891694 0.090419  0.005036 0.002373 -0.139324
22  -1.231623 3.875535 -0.958681  -0.060580 -0.013550 -0.130737
23  -1.209919 3.994782 -2.003048  -0.106568 -0.025893 -0.137951
24  0.328906 0.095429 1.403532  1.684115 0.560091 1.563926
25  7.685551 -26.508362 -6.023971  0.000000 -0.000000 -3.141593
26  20.158314 0.001465 -15.000000  -1.570796 -0.000000 -1.570796
27  6.688313 0.001464 -6.000000  -0.051945 -0.000000 -1.570796
28  -6.584470 -2.598536 -6.097302  1.176944 -0.466256 2.183215
29  0.000000 13.479275 -0.000001  1.575321 -0.000000 0.000000
30  -0.000001 13.477238 -0.000001  -0.573737 -0.085706 -0.094218
31  0.267270 3.664727 -1.953295  -0.174603 0.396888 0.692349
32  -0.000000 1.180354 -0.000000  -0.024711 0.025798 1.296299
33  0.000000 0.817133 0.000000  0.012232 0.001270 1.111333
34  0.249422 3.688541 -0.940890  -0.050028 0.197908 0.917566
35  0.000000 1.800633 0.000000  -0.007162 -0.012483 1.774974
36  -0.000001 1.243406 0.000000  0.004183 -0.005006 0.945407
37  0.244726 3.701095 0.087732  0.012445 0.020003 0.934972
38  0.000001 1.766584 0.000001  0.006918 0.000685 1.464509
39  -0.000001 1.189003 -0.000001  -0.004472 0.017123 1.357249
40  0.277239 3.632247 1.274101  0.065416 -0.152210 0.927371
41  -0.000000 1.798494 0.000001  0.022849 -0.016745 1.078747
42  0.000000 1.235452 0.000000  -0.007143 0.004688 1.572574
43  -0.315441 0.857299 0.755943  -0.623037 -2.717983 1.196723
44  -0.000001 2.265939 0.000000  -0.034963 0.056629 0.741260
45  -0.000000 1.457813 0.000000  -0.048332 -0.026494 0.468069
46  1.259681 3.818374 1.286945  0.065416 -0.152210 0.927372
47  1.226390 3.891692 0.090418  0.012445 0.020003 0.934972
48  1.231623 3.875533 -0.958681  -0.050028 0.197908 0.917566
49  1.209919 3.994781 -2.003049  -0.174603 0.396888 0.692349
50  -0.328906 0.095428 1.403532  -0.623037 -2.717983 1.196723
51  3.923302 -4.864894 9.589947  -0.990095 -2.791072 -0.900608
52  -24.316507 -13.666527 -8.356014  -1.570796 -0.000000 1.570796
53  -6.584470 -2.598536 -6.097302  -0.051945 0.000000 1.570796
time 1
0  0 0 0  0 0 0
1  0.000000 0.000000 0.000000  1.570796 -0.000000 0.000000
2  6.688313 0.001464 -6.000000  -0.180017 0.981463 -3.105344
3  -0.000000 13.479280 0.000000  0.356810 0.000000 -0.000000
4  -0.000000 13.477240 -0.000000  -0.260936 -0.968770 0.196263
5  -0.267269 3.664727 -1.953293  -0.106568 -0.025893 -0.137951
6  -0.000000 1.180355 -0.000001  -0.036623 -0.007435 -0.177465
7  -0.000001 0.817138 -0.000000  0.004200 -0.011559 0.007420
8  -0.249422 3.688542 -0.940889  -0.060580 -0.013550 -0.130737
9  0.000000 1.800634 -0.000000  0.004940 0.002077 -0.208495
10  0.000001 1.243406 -0.000000  0.006524 -0.000040 -0.064626
11  -0.244726 3.701097 0.087732  0.005036 0.002373 -0.139323
12  0.000000 1.766584 0.000000  0.002490 -0.003552 -0.259702
13  -0.000000 1.189003 0.000000  -0.017590 -0.001952 -0.152464
14  -0.277239 3.632249 1.274102  0.054558 0.010184 -0.144732
15  0.000001 1.798491 -0.000000  0.036314 0.010668 -0.285912
16  -0.000001 1.235453 -0.000000  -0.005152 0.006816 -0.068190
17  0.315441 0.857301 0.755944  1.684115 0.560091 1.563926
18  0.000001 2.265939 -0.000000  -0.057905 -0.032805 -0.238898
19  -0.000001 1.457808 0.000000  -0.029609 0.046490 0.034285
20  -1.259681 3.818376 1.286945  0.054558 0.010184 -0.144732
21  -1.226390 3.891694 0.090419  0.005036 0.002373 -0.139324
22  -1.231623 3.875535 -0.958681  -0.060580 -0.013550 -0.130737
23  -1.209919 3.994782 -2.003048  -0.106568 -0.025893 -0.137951
24  0.328906 0.095429 1.403532  1.684115 0.560091 1.563926
25  7.685551 -26.508362 -6.023971  0.000000 -0.000000 -3.141593
26  20.158314 0.001465 -15.000000  -1.570796 -0.000000 -1.570796
27  6.688313 0.001464 -6.000000  -0.051945 -0.000000 -1.570796
28  -6.584470 -4.344335 -7.056288  1.215780 -0.363042 2.041850
29  0.000001 13.479277 0.000001  1.810696 -0.000000 0.000000
30  -0.000000 13.477240 0.000000  -0.268091 0.087602 -0.065401
31  0.267269 3.664726 -1.953293  -0.174603 0.396888 0.692349
32  -0.000000 1.180355 -0.000000  -0.024711 0.025798 1.296299
33  -0.000000 0.817135 0.000000  0.012232 0.001270 1.111333
34  0.249423 3.688541 -0.940888  -0.050028 0.197908 0.917566
35  0.000000 1.800633 -0.000001  -0.007162 -0.012483 1.774974
36  0.000000 1.243406 0.000001  0.004183 -0.005006 0.945407
37  0.244726 3.701095 0.087733  0.012445 0.020003 0.934973
38  -0.000001 1.766585 0.000000  0.006918 0.000685 1.464509
39  -0.000001 1.189004 0.000000  -0.004472 0.017123 1.357249
40  0.277239 3.632248 1.274102  0.065416 -0.152210 0.927371
41  0.000000 1.798494 -0.000000  0.022849 -0.016745 1.078746
42  0.000000 1.235451 0.000000  -0.007143 0.004688 1.572574
43  -0.315441 0.857299 0.755944  -0.623037 -2.717983 1.196723
44  -0.000000 2.265940 0.000000  -0.034963 0.056629 0.741260
45  -0.000000 1.457811 0.000000  -0.048332 -0.026494 0.468068
46  1.259681 3.818374 1.286946  0.065416 -0.152210 0.927371
47  1.226390 3.891692 0.090419  0.012445 0.020003 0.934972
48  1.231623 3.875534 -0.958680  -0.050028 0.197908 0.917566
49  1.209919 3.994781 -2.003048  -0.174603 0.396888 0.692349
50  -0.328906 0.095428 1.403533  -0.623037 -2.717983 1.196723
51  3.455864 -4.884375 6.205207  -0.412772 -2.700135 -1.017004
52  -26.618322 -17.632616 0.180739  -1.570796 -0.000000 1.570796
53  -6.584470 -4.344335 -7.056288  -0.051945 0.000000 1.570796
time 2
0  0 0 0  0 0 0
1  0.000000 0.000000 0.000000  1.570796 -0.000000 0.000000
2  6.688313 0.001464 -6.000000  -0.180017 0.981463 -3.105344
3  -0.000000 13.479280 0.000000  0.356810 0.000000 -0.000000
4  -0.000000 13.477240 -0.000000  -0.260936 -0.968770 0.196263
5  -0.267269 3.664727 -1.953293  -0.106568 -0.025893 -0.137951
6  -0.000000 1.180355 -0.000001  -0.036623 -0.007435 -0.177465
7  -0.000001 0.817138 -0.000000  0.004200 -0.011559 0.007420
8  -0.249422 3.688542 -0.940889  -0.060580 -0.013550 -0.130737
9  0.000000 1.800634 -0.000000  0.004940 0.002077 -0.208495
10  0.000001 1.243406 -0.000000  0.006524 -0.000040 -0.064626
11  -0.244726 3.701097 0.087732  0.005036 0.002373 -0.139323
12  0.000000 1.766584 0.000000  0.002490 -0.003552 -0.259702
13  -0.000000 1.189003 0.000000  -0.017590 -0.001952 -0.152464
14  -0.277239 3.632249 1.274102  0.054558 0.010184 -0.144732
15  0.000001 1.798491 -0.000000  0.036314 0.010668 -0.285912
16  -0.000001 1.235453 -0.000000  -0.005152 0.006816 -0.068190
17  0.315441 0.857301 0.755944  1.684115 0.560091 1.563926
18  0.000001 2.265939 -0.000000  -0.057905 -0.032805 -0.238898
19  -0.000001 1.457808 0.000000  -0.029609 0.046490 0.034285
20  -1.259681 3.818376 1.286945  0.054558 0.010184 -0.144732
21  -1.226390 3.891694 0.090419  0.005036 0.002373 -0.139324
22  -1.231623 3.875535 -0.958681  -0.060580 -0.013550 -0.130737
23  -1.209919 3.994782 -2.003048  -0.106568 -0.025893 -0.137951
24  0.328906 0.095429 1.403532  1.684115 0.560091 1.563926
25  7.685551 -26.508362 -6.023971  0.000000 -0.000000 -3.141593
26  20.158314 0.001465 -15.000000  -1.570796 -0.000000 -1.570796
27  6.688313 0.001464 -6.000000  -0.051945 -0.000000 -1.570796
28  -6.584470 -6.090133 -8.015273  1.091583 -0.121765 2.102341
29  0.000001 13.479277 -0.000002  1.493185 -0.000000 0.000000
30  -0.000000 13.477239 -0.000000  -0.373080 0.148612 -0.139633
31  0.267270 3.664727 -1.953293  -0.174603 0.396888 0.692349
32  -0.000000 1.180354 0.000000  -0.024711 0.025798 1.296299
33  0.000000 0.817135 0.000000  0.012232 0.001270 1.111333
34  0.249423 3.688542 -0.940890  -0.050028 0.197908 0.917566
35  -0.000000 1.800633 -0.000000  -0.007161 -0.012483 1.774974
36  0.000000 1.243406 0.000000  0.004183 -0.005006 0.945407
37  0.244727 3.701096 0.087732  0.012445 0.020002 0.934973
38  0.000001 1.766585 -0.000000  0.006918 0.000685 1.464509
39  -0.000000 1.189004 0.000000  -0.004472 0.017124 1.357249
40  0.277239 3.632247 1.274101  0.065416 -0.152210 0.927371
41  -0.000002 1.798494 0.000000  0.022849 -0.016745 1.078746
42  0.000001 1.235452 0.000001  -0.007143 0.004688 1.572574
43  -0.315441 0.857300 0.755943  -0.623037 -2.717983 1.196723
44  0.000001 2.265939 -0.000000  -0.034963 0.056629 0.741260
45  0.000001 1.457811 0.000000  -0.048332 -0.026494 0.468069
46  1.259681 3.818375 1.286945  0.065416 -0.152210 0.927372
47  1.226391 3.891693 0.090418  0.012445 0.020003 0.934972
48  1.231623 3.875535 -0.958681  -0.050028 0.197908 0.917566
49  1.209919 3.994781 -2.003048  -0.174603 0.396888 0.692349
50  -0.328906 0.095429 1.403532  -0.623037 -2.717983 1.196723
51  -0.905445 -5.439629 10.925102  2.192782 -0.172371 2.301698
52  -28.920135 -21.598707 8.717491  -1.570796 -0.000000 1.570796
53  -6.584470 -6.090133 -8.015273  -0.051945 0.000000 1.570796
time 3
0  0 0 0  0 0 0
1  0.000000 0.000000 0.000000  1.570796 -0.000000 0.000000
2  6.688313 0.001464 -6.000000  -0.180017 0.981463 -3.105344
3  -0.000000 13.479280 0.000000  0.356810 0.000000 -0.000000
4  -0.000000 13.477240 -0.000000  -0.260936 -0.968770 0.196263
5  -0.267269 3.664727 -1.953293  -0.106568 -0.025893 -0.137951
6  -0.000000 1.180355 -0.000001  -0.036623 -0.007435 -0.177465
7  -0.000001 0.817138 -0.000000  0.004200 -0.011559 0.007420
8  -0.249422 3.688542 -0.940889  -0.060580 -0.013550 -0.130737
9  0.000000 1.800634 -0.000000  0.004940 0.002077 -0.208495
10  0.000001 1.243406 -0.000000  0.006524 -0.000040 -0.064626
11  -0.244726 3.701097 0.087732  0.005036 0.002373 -0.139323
12  0.000000 1.766584 0.000000  0.002490 -0.003552 -0.259702
13  -0.000000 1.189003 0.000000  -0.017590 -0.001952 -0.152464
14  -0.277239 3.632249 1.274102  0.054558 0.010184 -0.144732
15  0.000001 1.798491 -0.000000  0.036314 0.010668 -0.285912
16  -0.000001 1.235453 -0.000000  -0.005152 0.006816 -0.068190
17  0.315441 0.857301 0.755944  1.684115 0.560091 1.563926
18  0.000001 2.265939 -0.000000  -0.057905 -0.032805 -0.238898
19  -0.000001 1.457808 0.000000  -0.029609 0.046490 0.034285
20  -1.259681 3.818376 1.286945  0.054558 0.010184 -0.144732
21  -1.226390 3.891694 0.090419  0.005036 0.002373 -0.139324
22  -1.231623 3.875535 -0.958681  -0.060580 -0.013550 -0.130737
23  -1.209919 3.994782 -2.003048  -0.106568 -0.025893 -0.137951
24  0.328906 0.095429 1.403532  1.684115 0.560091 1.563926
25  7.685551 -26.508362 -6.023971  0.000000 -0.000000 -3.141593
26  20.158314 0.001465 -15.000000  -1.570796 -0.000000 -1.570796
27  6.688313 0.001464 -6.000000  -0.051945 -0.000000 -1.570796
28  -6.584470 -5.544571 -7.715591  1.493533 -0.046923 2.163778
29  0.000000 13.479275 0.000000  0.237359 0.000000 0.000000
30  0.000000 13.477239 0.000000  -0.607594 0.587001 0.140340
31  0.267269 3.664728 -1.953292  -0.174603 0.396887 0.692349
32  0.000001 1.180354 0.000001  -0.024711 0.025798 1.296299
33  -0.000001 0.817136 -0.000003  0.012232 0.001270 1.111333
34  0.249422 3.688543 -0.940889  -0.050028 0.197907 0.917566
35  -0.000000 1.800634 0.000000  -0.007162 -0.012483 1.774974
36  -0.000001 1.243407 0.000001  0.004183 -0.005006 0.945407
37  0.244726 3.701097 0.087733  0.012445 0.020002 0.934973
38  -0.000000 1.766584 -0.000002  0.006918 0.000685 1.464509
39  0.000001 1.189004 -0.000000  -0.004472 0.017123 1.357249
40  0.277239 3.632249 1.274102  0.065416 -0.152210 0.927372
41  0.000000 1.798495 0.000002  0.022849 -0.016745 1.078747
42  -0.000002 1.235453 -0.000001  -0.007143 0.004688 1.572574
43  -0.315441 0.857302 0.755944  -0.623037 -2.717983 1.196723
44  -0.000002 2.265940 -0.000001  -0.034963 0.056629 0.741260
45  -0.000001 1.457809 0.000002  -0.048332 -0.026494 0.468068
46  1.259681 3.818377 1.286946  0.065416 -0.152210 0.927372
47  1.226390 3.891694 0.090419  0.012445 0.020003 0.934972
48  1.231622 3.875536 -0.958680  -0.050028 0.197908 0.917566
49  1.209919 3.994782 -2.003048  -0.174603 0.396887 0.692349
50  -0.328907 0.095431 1.403533  -0.623037 -2.717983 1.196723
51  -4.964590 -5.965662 18.998928  0.994595 -0.244133 2.739403
52  -26.863071 -19.930653 5.011633  -1.570796 -0.000000 1.570796
53  -6.584470 -5.544571 -7.715591  -0.051945 0.000000 1.570796
time 4
0  0 0 0  0 0 0
1  0.000000 0.000000 0.000000  1.570796 -0.000000 0.000000
2  6.688313 0.001464 -6.000000  -0.180017 0.981463 -3.105344
3  -0.000000 13.479280 0.000000  0.356810 0.000000 -0.000000
4  -0.000000 13.477240 -0.000000  -0.260936 -0.968770 0.196263
5  -0.267269 3.664727 -1.953293  -0.106568 -0.025893 -0.137951
6  -0.000000 1.180355 -0.000001  -0.036623 -0.007435 -0.177465
7  -0.000001 0.817138 -0.000000  0.004200 -0.011559 0.007420
8  -0.249422 3.688542 -0.940889  -0.060580 -0.013550 -0.130737
9  0.000000 1.800634 -0.000000  0.004940 0.002077 -0.208495
10  0.000001 1.243406 -0.000000  0.006524 -0.000040 -0.064626
11  -0.244726 3.701097 0.087732  0.005036 0.002373 -0.139323
12  0.000000 1.766584 0.000000  0.002490 -0.003552 -0.259702
13  -0.000000 1.189003 0.000000  -0.017590 -0.001952 -0.152464
14  -0.277239 3.632249 1.274102  0.054558 0.010184 -0.144732
15  0.000001 1.798491 -0.000000  0.036314 0.010668 -0.285912
16  -0.000001 1.235453 -0.000000  -0.005152 0.006816 -0.068190
17  0.315441 0.857301 0.755944  1.684115 0.560091 1.563926
18  0.000001 2.265939 -0.000000  -0.057905 -0.032805 -0.238898
19  -0.000001 1.457808 0.000000  -0.029609 0.046490 0.034285
20  -1.259681 3.818376 1.286945  0.054558 0.010184 -0.144732
21  -1.226390 3.891694 0.090419  0.005036 0.002373 -0.139324
22  -1.231623 3.875535 -0.958681  -0.060580 -0.013550 -0.130737
23  -1.209919 3.994782 -2.003048  -0.106568 -0.025893 -0.137951
24  0.328906 0.095429 1.403532  1.684115 0.560091 1.563926
25  7.685551 -26.508362 -6.023971  0.000000 -0.000000 -3.141593
26  20.158314 0.001465 -15.000000  -1.570796 -0.000000 -1.570796
27  6.688313 0.001464 -6.000000  -0.051945 -0.000000 -1.570796
28  -6.584470 -4.344335 -7.056287  1.341311 -0.072038 2.207878
29  0.000001 13.479276 -0.000001  0.626488 -0.000000 0.000000
30  0.000000 13.477240 -0.000001  -0.699064 0.338772 -0.578585
31  0.267270 3.664726 -1.953292  -0.174603 0.396887 0.692349
32  -0.000001 1.180356 -0.000000  -0.024711 0.025798 1.296300
33  -0.000001 0.817135 0.000000  0.012232 0.001270 1.111333
34  0.249423 3.688542 -0.940888  -0.050028 0.197908 0.917566
35  -0.000000 1.800631 0.000001  -0.007162 -0.012483 1.774974
36  -0.000002 1.243404 0.000000  0.004183 -0.005006 0.945407
37  0.244727 3.701095 0.087733  0.012445 0.020003 0.934973
38  -0.000001 1.766588 -0.000000  0.006918 0.000685 1.464509
39  -0.000003 1.189003 0.000000  -0.004472 0.017123 1.357249
40  0.277240 3.632247 1.274102  0.065416 -0.152210 0.927372
41  0.000001 1.798496 -0.000000  0.022849 -0.016745 1.078747
42  0.000002 1.235452 -0.000000  -0.007143 0.004688 1.572574
43  -0.315441 0.857300 0.755944  -0.623037 -2.717983 1.196723
44  0.000001 2.265938 0.000000  -0.034963 0.056629 0.741260
45  -0.000000 1.457812 0.000000  -0.048332 -0.026494 0.468069
46  1.259682 3.818373 1.286946  0.065416 -0.152210 0.927371
47  1.226392 3.891693 0.090419  0.012445 0.020003 0.934972
48  1.231624 3.875535 -0.958680  -0.050028 0.197908 0.917566
49  1.209920 3.994781 -2.003047  -0.174603 0.396888 0.692349
50  -0.328906 0.095428 1.403533  -0.623037 -2.717983 1.196723
51  -3.766373 -4.547026 18.431597  1.434713 0.293613 2.764735
52  -22.212645 -16.260931 -3.141255  -1.570796 -0.000000 1.570796
53  -6.584470 -4.344335 -7.056287  -0.051945 0.000000 1.570796
time 5
0  0 0 0  0 0 0
1  0.000000 0.000000 0.000000  1.570796 -0.000000 0.000000
2  6.688313 0.001464 -6.000000  -0.180017 0.981463 -3.105344
3  -0.000000 13.479280 0.000000  0.356810 0.000000 -0.000000
4  -0.000000 13.477240 -0.000000  -0.260936 -0.968770 0.196263
5  -0.267269 3.664727 -1.953293  -0.106568 -0.025893 -0.137951
6  -0.000000 1.180355 -0.000001  -0.036623 -0.007435 -0.177465
7  -0.000001 0.817138 -0.000000  0.004200 -0.011559 0.007420
8  -0.249422 3.688542 -0.940889  -0.060580 -0.013550 -0.130737
9  0.000000 1.800634 -0.000000  0.004940 0.002077 -0.208495
10  0.000001 1.243406 -0.000000  0.006524 -0.000040 -0.064626
11  -0.244726 3.701097 0.087732  0.005036 0.002373 -0.139323
12  0.000000 1.766584 0.000000  0.002490 -0.003552 -0.259702
13  -0.000000 1.189003 0.000000  -0.017590 -0.001952 -0.152464
14  -0.277239 3.632249 1.274102  0.054558 0.010184 -0.144732
15  0.000001 1.798491 -0.000000  0.036314 0.010668 -0.285912
16  -0.000001 1.235453 -0.000000  -0.005152 0.006816 -0.068190
17  0.315441 0.857301 0.755944  1.684115 0.560091 1.563926
18  0.000001 2.265939 -0.000000  -0.057905 -0.032805 -0.238898
19  -0.000001 1.457808 0.000000  -0.029609 0.046490 0.034285
20  -1.259681 3.818376 1.286945  0.054558 0.010184 -0.144732
21  -1.226390 3.891694 0.090419  0.005036 0.002373 -0.139324
22  -1.231623 3.875535 -0.958681  -0.060580 -0.013550 -0.130737
23  -1.209919 3.994782 -2.003048  -0.106568 -0.025893 -0.137951
24  0.328906 0.095429 1.403532  1.684115 0.560091 1.563926
25  7.685551 -26.508362 -6.023971  0.000000 -0.000000 -3.141593
26  20.158314 0.001465 -15.000000  -1.570796 -0.000000 -1.570796
27  6.688313 0.001464 -6.000000  -0.051945 -0.000000 -1.570796
28  -6.584470 -3.144098 -6.396985  0.957421 -0.127486 2.339760
29  -0.000000 13.479277 0.000000  1.247160 -0.000000 0.000000
30  0.000000 13.477242 0.000000  -0.143527 0.246008 -0.659269
31  0.267270 3.664725 -1.953291  -0.174603 0.396888 0.692349
32  -0.000000 1.180356 -0.000001  -0.024711 0.025798 1.296300
33  0.000000 0.817135 0.000001  0.012232 0.001270 1.111333
34  0.249423 3.688540 -0.940886  -0.050028 0.197908 0.917566
35  0.000001 1.800634 -0.000001  -0.007162 -0.012483 1.774974
36  0.000000 1.243404 0.000000  0.004183 -0.005006 0.945407
37  0.244727 3.701095 0.087734  0.012445 0.020003 0.934972
38  -0.000001 1.766584 0.000001  0.006918 0.000685 1.464509
39  -0.000000 1.189004 -0.000000  -0.004472 0.017123 1.357249
40  0.277240 3.632247 1.274104  0.065416 -0.152210 0.927372
41  -0.000001 1.798493 0.000000  0.022849 -0.016745 1.078747
42  -0.000001 1.235451 -0.000001  -0.007143 0.004688 1.572574
43  -0.315441 0.857300 0.755946  -0.623037 -2.717983 1.196723
44  0.000001 2.265940 -0.000001  -0.034963 0.056629 0.741260
45  -0.000001 1.457813 -0.000000  -0.048332 -0.026494 0.468069
46  1.259682 3.818373 1.286947  0.065416 -0.152210 0.927372
47  1.226391 3.891692 0.090422  0.012445 0.020003 0.934972
48  1.231624 3.875535 -0.958678  -0.050028 0.197908 0.917566
49  1.209919 3.994781 -2.003045  -0.174603 0.396888 0.692349
50  -0.328906 0.095428 1.403534  -0.623037 -2.717983 1.196723
51  -4.490522 -4.989006 15.306048  -0.961794 2.905082 -0.202907
52  -17.250004 -12.591208 -11.294142  -1.570796 -0.000000 1.570796
53  -6.584470 -3.144098 -6.396985  -0.051945 0.000000 1.570796
time 6
0  0 0 0  0 0 0
1  0.000000 0.000000 0.000000  1.570796 -0.000000 0.000000
2  6.688313 0.001464 -6.000000  -0.180017 0.981463 -3.105344
3  -0.000000 13.479280 0.000000  0.356810 0.000000 -0.000000
4  -0.000000 13.477240 -0.000000  -0.260936 -0.968770 0.196263
5  -0.267269 3.664727 -1.953293  -0.106568 -0.025893 -0.137951
6  -0.000000 1.180355 -0.000001  -0.036623 -0.007435 -0.177465
7  -0.000001 0.817138 -0.000000  0.004200 -0.011559 0.007420
8  -0.249422 3.688542 -0.940889  -0.060580 -0.013550 -0.130737
9  0.000000 1.800634 -0.000000  0.004940 0.002077 -0.208495
10  0.000001 1.243406 -0.000000  0.006524 -0.000040 -0.064626
11  -0.244726 3.701097 0.087732  0.005036 0.002373 -0.139323
12  0.000000 1.766584 0.000000  0.002490 -0.003552 -0.259702
13  -0.000000 1.189003 0.000000  -0.017590 -0.001952 -0.152464
14  -0.277239 3.632249 1.274102  0.054558 0.010184 -0.144732
15  0.000001 1.798491 -0.000000  0.036314 0.010668 -0.285912
16  -0.000001 1.235453 -0.000000  -0.005152 0.006816 -0.068190
17  0.315441 0.857301 0.755944  1.684115 0.560091 1.563926
18  0.000001 2.265939 -0.000000  -0.057905 -0.032805 -0.238898
19  -0.000001 1.457808 0.000000  -0.029609 0.046490 0.034285
20  -1.259681 3.818376 1.286945  0.054558 0.010184 -0.144732
21  -1.226390 3.891694 0.090419  0.005036 0.002373 -0.139324
22  -1.231623 3.875535 -0.958681  -0.060580 -0.013550 -0.130737
23  -1.209919 3.994782 -2.003048  -0.106568 -0.025893 -0.137951
24  0.328906 0.095429 1.403532  1.684115 0.560091 1.563926
25  7.685551 -26.508362 -6.023971  0.000000 -0.000000 -3.141593
26  20.158314 0.001465 -15.000000  -1.570796 -0.000000 -1.570796
27  6.688313 0.001464 -6.000000  -0.051945 -0.000000 -1.570796
28  -6.584470 -2.598536 -6.097302  0.772848 -0.116899 2.489464
29  0.000001 13.479276 0.000000  1.367526 -0.000000 0.000000
30  0.000000 13.477239 -0.000001  -0.150693 0.383200 -0.590895
31  0.267269 3.664729 -1.953293  -0.174603 0.396888 0.692349
32  -0.000001 1.180356 -0.000000  -0.024711 0.025798 1.296299
33  -0.000001 0.817137 0.000000  0.012232 0.001270 1.111333
34  0.249423 3.688544 -0.940888  -0.050028 0.197908 0.917566
35  -0.000000 1.800634 -0.000000  -0.007162 -0.012483 1.774974
36  0.000001 1.243407 0.000001  0.004183 -0.005006 0.945407
37  0.244727 3.701098 0.087733  0.012445 0.020003 0.934973
38  -0.000001 1.766584 0.000001  0.006918 0.000685 1.464509
39  -0.000000 1.189002 0.000000  -0.004472 0.017123 1.357249
40  0.277239 3.632251 1.274102  0.065416 -0.152210 0.927372
41  -0.000001 1.798495 0.000000  0.022849 -0.016745 1.078747
42  0.000001 1.235451 -0.000001  -0.007143 0.004688 1.572574
43  -0.315441 0.857303 0.755944  -0.623037 -2.717983 1.196723
44  -0.000000 2.265940 -0.000000  -0.034963 0.056629 0.741260
45  -0.000000 1.457814 0.000002  -0.048332 -0.026494 0.468069
46  1.259682 3.818377 1.286946  0.065416 -0.152210 0.927372
47  1.226391 3.891695 0.090419  0.012445 0.020003 0.934972
48  1.231623 3.875536 -0.958680  -0.050028 0.197908 0.917566
49  1.209919 3.994785 -2.003048  -0.174603 0.396887 0.692349
50  -0.328906 0.095430 1.403533  -0.623037 -2.717983 1.196723
51  -6.105864 -5.961361 14.520409  -1.025355 2.999038 -0.009141
52  -14.256298 -10.923154 -15.000002  -1.570796 -0.000000 1.570796
53  -6.584470 -2.598536 -6.097302  -0.051945 0.000000 1.570796
time 7
0  0 0 0  0 0 0
1  0.000000 0.000000 0.000000  1.570796 -0.000000 0.000000
2  6.688313 0.001464 -6.000000  -0.180017 0.981463 -3.105344
3  -0.000000 13.479280 0.000000  0.356810 0.000000 -0.000000
4  -0.000000 13.477240 -0.000000  -0.260936 -0.968770 0.196263
5  -0.267269 3.664727 -1.953293  -0.106568 -0.025893 -0.137951
6  -0.000000 1.180355 -0.000001  -0.036623 -0.007435 -0.177465
7  -0.000001 0.817138 -0.000000  0.004200 -0.011559 0.007420
8  -0.249422 3.688542 -0.940889  -0.060580 -0.013550 -0.130737
9  0.000000 1.800634 -0.000000  0.004940 0.002077 -0.208495
10  0.000001 1.243406 -0.000000  0.006524 -0.000040 -0.064626
11  -0.244726 3.701097 0.087732  0.005036 0.002373 -0.139323
12  0.000000 1.766584 0.000000  0.002490 -0.003552 -0.259702
13  -0.000000 1.189003 0.000000  -0.017590 -0.001952 -0.152464
14  -0.277239 3.632249 1.274102  0.054558 0.010184 -0.144732
15  0.000001 1.798491 -0.000000  0.036314 0.010668 -0.285912
16  -0.000001 1.235453 -0.000000  -0.005152 0.006816 -0.068190
17  0.315441 0.857301 0.755944  1.684115 0.560091 1.563926
18  0.000001 2.265939 -0.000000  -0.057905 -0.032805 -0.238898
19  -0.000001 1.457808 0.000000  -0.029609 0.046490 0.034285
20  -1.259681 3.818376 1.286945  0.054558 0.010184 -0.144732
21  -1.226390 3.891694 0.090419  0.005036 0.002373 -0.139324
22  -1.231623 3.875535 -0.958681  -0.060580 -0.013550 -0.130737
23  -1.209919 3.994782 -2.003048  -0.106568 -0.025893 -0.137951
24  0.328906 0.095429 1.403532  1.684115 0.560091 1.563926
25  7.685551 -26.508362 -6.023971  0.000000 -0.000000 -3.141593
26  20.158314 0.001465 -15.000000  -1.570796 -0.000000 -1.570796
27  6.688313 0.001464 -6.000000  -0.051945 -0.000000 -1.570796
28  -6.584470 -2.598536 -6.097302  0.677078 -0.072058 2.540756
29  -0.000000 13.479274 -0.000000  1.376428 -0.000000 0.000000
30  0.000000 13.477238 0.000001  -0.206559 0.562692 -0.506885
31  0.267269 3.664728 -1.953292  -0.174603 0.396887 0.692349
32  0.000001 1.180356 0.000000  -0.024711 0.025798 1.296299
33  0.000001 0.817135 0.000000  0.012232 0.001270 1.111333
34  0.249423 3.688544 -0.940889  -0.050028 0.197908 0.917566
35  -0.000001 1.800635 0.000001  -0.007162 -0.012483 1.774974
36  0.000000 1.243405 0.000000  0.004183 -0.005006 0.945407
37  0.244727 3.701097 0.087733  0.012445 0.020003 0.934973
38  0.000000 1.766584 0.000000  0.006918 0.000685 1.464509
39  -0.000001 1.189004 0.000001  -0.004472 0.017123 1.357249
40  0.277240 3.632250 1.274102  0.065416 -0.152210 0.927372
41  0.000001 1.798495 0.000000  0.022849 -0.016745 1.078746
42  -0.000000 1.235451 -0.000001  -0.007143 0.004688 1.572574
43  -0.315441 0.857300 0.755943  -0.623037 -2.717983 1.196723
44  -0.000001 2.265940 0.000000  -0.034963 0.056629 0.741260
45  -0.000000 1.457812 0.000000  -0.048332 -0.026494 0.468069
46  1.259681 3.818376 1.286945  0.065416 -0.152210 0.927371
47  1.226390 3.891694 0.090419  0.012445 0.020003 0.934972
48  1.231623 3.875535 -0.958680  -0.050028 0.197908 0.917566
49  1.209919 3.994783 -2.003048  -0.174603 0.396887 0.692349
50  -0.328906 0.095429 1.403533  -0.623037 -2.717983 1.196723
51  -7.776737 -6.933716 14.230963  -1.148826 3.079023 0.125865
52  -13.094522 -10.960453 -15.000002  -1.570796 -0.000000 1.570796
53  -6.584470 -2.598536 -6.097302  -0.051945 0.000000 1.570796
time 8
0  0 0 0  0 0 0
1  0.000000 0.000000 0.000000  1.570796 -0.000000 0.000000
2  6.688313 0.001464 -6.000000  -0.180017 0.981463 -3.105344
3  -0.000000 13.479280 0.000000  0.356810 0.000000 -0.000000
4  -0.000000 13.477240 -0.000000  -0.260936 -0.968770 0.196263
5  -0.267269 3.664727 -1.953293  -0.106568 -0.025893 -0.137951
6  -0.000000 1.180355 -0.000001  -0.036623 -0.007435 -0.177465
7  -0.000001 0.817138 -0.000000  0.004200 -0.011559 0.007420
8  -0.249422 3.688542 -0.940889  -0.060580 -0.013550 -0.130737
9  0.000000 1.800634 -0.000000  0.004940 0.002077 -0.208495
10  0.000001 1.243406 -0.000000  0.006524 -0.000040 -0.064626
11  -0.244726 3.701097 0.087732  0.005036 0.002373 -0.139323
12  0.000000 1.766584 0.000000  0.002490 -0.003552 -0.259702
13  -0.000000 1.189003 0.000000  -0.017590 -0.001952 -0.152464
14  -0.277239 3.632249 1.274102  0.054558 0.010184 -0.144732
15  0.000001 1.798491 -0.000000  0.036314 0.010668 -0.285912
16  -0.000001 1.235453 -0.000000  -0.005152 0.006816 -0.068190
17  0.315441 0.857301 0.755944  1.684115 0.560091 1.563926
18  0.000001 2.265939 -0.000000  -0.057905 -0.032805 -0.238898
19  -0.000001 1.457808 0.000000  -0.029609 0.046490 0.034285
20  -1.259681 3.818376 1.286945  0.054558 0.010184 -0.144732
21  -1.226390 3.891694 0.090419  0.005036 0.002373 -0.139324
22  -1.231623 3.875535 -0.958681  -0.060580 -0.013550 -0.130737
23  -1.209919 3.994782 -2.003048  -0.106568 -0.025893 -0.137951
24  0.328906 0.095429 1.403532  1.684115 0.560091 1.563926
25  7.685551 -26.508362 -6.023971  0.000000 -0.000000 -3.141593
26  20.158314 0.001465 -15.000000  -1.570796 -0.000000 -1.570796
27  6.688313 0.001464 -6.000000  -0.051945 -0.000000 -1.570796
28  -6.584470 -2.598536 -6.097302  0.640941 -0.034690 2.594905
29  -0.000000 13.479277 0.000000  1.361651 -0.000000 0.000000
30  -0.000000 13.477240 0.000000  -0.222829 0.616176 -0.411676
31  0.267269 3.664729 -1.953292  -0.174603 0.396888 0.692349
32  0.000002 1.180356 0.000000  -0.024711 0.025798 1.296300
33  -0.000000 0.817136 -0.000001  0.012232 0.001270 1.111333
34  0.249422 3.688542 -0.940889  -0.050028 0.197908 0.917566
35  -0.000001 1.800633 -0.000000  -0.007162 -0.012483 1.774974
36  -0.000002 1.243408 0.000000  0.004183 -0.005006 0.945407
37  0.244726 3.701098 0.087733  0.012445 0.020002 0.934972
38  -0.000001 1.766583 0.000000  0.006918 0.000685 1.464509
39  -0.000001 1.189006 0.000002  -0.004472 0.017123 1.357249
40  0.277238 3.632249 1.274103  0.065416 -0.152210 0.927372
41  0.000000 1.798494 -0.000000  0.022849 -0.016745 1.078747
42  -0.000000 1.235451 0.000001  -0.007143 0.004688 1.572574
43  -0.315443 0.857301 0.755944  -0.623037 -2.717983 1.196723
44  -0.000003 2.265939 0.000001  -0.034963 0.056629 0.741260
45  0.000000 1.457811 -0.000001  -0.048332 -0.026494 0.468068
46  1.259680 3.818375 1.286946  0.065416 -0.152210 0.927371
47  1.226389 3.891695 0.090419  0.012445 0.020002 0.934972
48  1.231622 3.875535 -0.958681  -0.050028 0.197908 0.917566
49  1.209918 3.994782 -2.003047  -0.174603 0.396888 0.692349
50  -0.328907 0.095429 1.403533  -0.623037 -2.717983 1.196723
51  -8.667479 -7.375695 14.189613  -1.231385 3.112839 0.176547
52  -12.098409 -11.064886 -15.000002  -1.570796 -0.000000 1.570796
53  -6.584470 -2.598536 -6.097302  -0.051945 0.000000 1.570796
time 9
0  0 0 0  0 0 0
1  0.000000 0.000000 0.000000  1.570796 -0.000000 0.000000
2  6.688313 0.001464 -6.000000  -0.180017 0.981463 -3.105344
3  -0.000000 13.479280 0.000000  0.356810 0.000000 -0.000000
4  -0.000000 13.477240 -0.000000  -0.260936 -0.968770 0.196263
5  -0.267269 3.664727 -1.953293  -0.106568 -0.025893 -0.137951
6  -0.000000 1.180355 -0.000001  -0.036623 -0.007435 -0.177465
7  -0.000001 0.817138 -0.000000  0.004200 -0.011559 0.007420
8  -0.249422 3.688542 -0.940889  -0.060580 -0.013550 -0.130737
9  0.000000 1.800634 -0.000000  0.004940 0.002077 -0.208495
10  0.000001 1.243406 -0.000000  0.006524 -0.000040 -0.064626
11  -0.244726 3.701097 0.087732  0.005036 0.002373 -0.139323
12  0.000000 1.766584 0.000000  0.002490 -0.003552 -0.259702
13  -0.000000 1.189003 0.000000  -0.017590 -0.001952 -0.152464
14  -0.277239 3.632249 1.274102  0.054558 0.010184 -0.144732
15  0.000001 1.798491 -0.000000  0.036314 0.010668 -0.285912
16  -0.000001 1.235453 -0.000000  -0.005152 0.006816 -0.068190
17  0.315441 0.857301 0.755944  1.684115 0.560091 1.563926
18  0.000001 2.265939 -0.000000  -0.057905 -0.032805 -0.238898
19  -0.000001 1.457808 0.000000  -0.029609 0.046490 0.034285
20  -1.259681 3.818376 1.286945  0.054558 0.010184 -0.144732
21  -1.226390 3.891694 0.090419  0.005036 0.002373 -0.139324
22  -1.231623 3.875535 -0.958681  -0.060580 -0.013550 -0.130737
23  -1.209919 3.994782 -2.003048  -0.106568 -0.025893 -0.137951
24  0.328906 0.095429 1.403532  1.684115 0.560091 1.563926
25  7.685551 -26.508362 -6.023971  0.000000 -0.000000 -3.141593
26  20.158314 0.001465 -15.000000  -1.570796 -0.000000 -1.570796
27  6.688313 0.001464 -6.000000  -0.051945 -0.000000 -1.570796
28  -6.584470 -2.598536 -6.097302  0.645477 -0.007852 2.652481
29  -0.000000 13.479276 0.000001  1.353749 -0.000000 0.000000
30  -0.000000 13.477239 -0.000001  -0.218267 0.558254 -0.345849
31  0.267268 3.664725 -1.953294  -0.174603 0.396888 0.692349
32  0.000001 1.180354 -0.000001  -0.024711 0.025798 1.296299
33  0.000000 0.817134 0.000000  0.012232 0.001270 1.111333
34  0.249423 3.688540 -0.940891  -0.050028 0.197908 0.917566
35  -0.000004 1.800633 -0.000001  -0.007162 -0.012483 1.774974
36  0.000000 1.243406 -0.000000  0.004183 -0.005006 0.945406
37  0.244726 3.701094 0.087731  0.012445 0.020003 0.934973
38  0.000002 1.766585 -0.000000  0.006918 0.000685 1.464509
39  0.000001 1.189005 -0.000000  -0.004472 0.017123 1.357249
40  0.277239 3.632246 1.274101  0.065416 -0.152210 0.927372
41  0.000003 1.798495 -0.000001  0.022849 -0.016745 1.078746
42  -0.000001 1.235452 -0.000000  -0.007143 0.004688 1.572574
43  -0.315441 0.857298 0.755943  -0.623037 -2.717983 1.196723
44  -0.000001 2.265940 -0.000000  -0.034963 0.056629 0.741260
45  0.000000 1.457812 -0.000001  -0.048332 -0.026494 0.468069
46  1.259681 3.818373 1.286944  0.065416 -0.152210 0.927372
47  1.226390 3.891691 0.090418  0.012445 0.020003 0.934972
48  1.231624 3.875534 -0.958681  -0.050028 0.197908 0.917566
49  1.209919 3.994781 -2.003049  -0.174603 0.396888 0.692349
50  -0.328906 0.095427 1.403531  -0.623037 -2.717983 1.196723
51  -8.871605 -7.236023 14.269121  -1.251438 3.106373 0.156461
52  -11.255219 -11.225267 -15.000002  -1.570796 -0.000000 1.570796
53  -6.584470 -2.598536 -6.097302  -0.051945 0.000000 1.570796
time 10
0  0 0 0  0 0 0
1  0.000000 0.000000 0.000000  1.570796 -0.000000 0.000000
2  6.688313 0.001464 -6.000000  -0.180017 0.981463 -3.105344
3  -0.000000 13.479280 0.000000  0.356810 0.000000 -0.000000
4  -0.000000 13.477240 -0.000000  -0.260936 -0.968770 0.196263
5  -0.267269 3.664727 -1.953293  -0.106568 -0.025893 -0.137951
6  -0.000000 1.180355 -0.000001  -0.036623 -0.007435 -0.177465
7  -0.000001 0.817138 -0.000000  0.004200 -0.011559 0.007420
8  -0.249422 3.688542 -0.940889  -0.060580 -0.013550 -0.130737
9  0.000000 1.800634 -0.000000  0.004940 0.002077 -0.208495
10  0.000001 1.243406 -0.000000  0.006524 -0.000040 -0.064626
11  -0.244726 3.701097 0.087732  0.005036 0.002373 -0.139323
12  0.000000 1.766584 0.000000  0.002490 -0.003552 -0.259702
13  -0.000000 1.189003 0.000000  -0.017590 -0.001952 -0.152464
14  -0.277239 3.632249 1.274102  0.054558 0.010184 -0.144732
15  0.000001 1.798491 -0.000000  0.036314 0.010668 -0.285912
16  -0.000001 1.235453 -0.000000  -0.005152 0.006816 -0.068190
17  0.315441 0.857301 0.755944  1.684115 0.560091 1.563926
18  0.000001 2.265939 -0.000000  -0.057905 -0.032805 -0.238898
19  -0.000001 1.457808 0.000000  -0.029609 0.046490 0.034285
20  -1.259681 3.818376 1.286945  0.054558 0.010184 -0.144732
21  -1.226390 3.891694 0.090419  0.005036 0.002373 -0.139324
22  -1.231623 3.875535 -0.958681  -0.060580 -0.013550 -0.130737
23  -1.209919 3.994782 -2.003048  -0.106568 -0.025893 -0.137951
24  0.328906 0.095429 1.403532  1.684115 0.560091 1.563926
25  7.685551 -26.508362 -6.023971  0.000000 -0.000000 -3.141593
26  20.158314 0.001465 -15.000000  -1.570796 -0.000000 -1.570796
27  6.688313 0.001464 -6.000000  -0.051945 -0.000000 -1.570796
28  -6.584470 -2.598536 -6.097302  0.668578 0.019278 2.701632
29  0.000000 13.479277 0.000000  1.334867 -0.000000 0.000000
30  -0.000001 13.477239 -0.000000  -0.209445 0.473866 -0.283848
31  0.267268 3.664725 -1.953292  -0.174603 0.396888 0.692349
32  0.000003 1.180353 -0.000001  -0.024711 0.025798 1.296299
33  -0.000002 0.817135 -0.000001  0.012232 0.001270 1.111333
34  0.249420 3.688541 -0.940889  -0.050028 0.197908 0.917566
35  0.000001 1.800633 -0.000000  -0.007162 -0.012483 1.774974
36  0.000000 1.243407 0.000000  0.004183 -0.005006 0.945407
37  0.244724 3.701096 0.087733  0.012445 0.020003 0.934973
38  0.000003 1.766585 0.000000  0.006918 0.000685 1.464509
39  0.000000 1.189002 -0.000000  -0.004472 0.017123 1.357249
40  0.277237 3.632248 1.274102  0.065416 -0.152210 0.927372
41  -0.000001 1.798494 0.000000  0.022849 -0.016745 1.078747
42  -0.000000 1.235451 0.000001  -0.007143 0.004688 1.572574
43  -0.315443 0.857300 0.755944  -0.623037 -2.717983 1.196723
44  0.000000 2.265940 0.000000  -0.034963 0.056629 0.741260
45  0.000000 1.457811 -0.000000  -0.048332 -0.026494 0.468068
46  1.259679 3.818375 1.286946  0.065416 -0.152210 0.927372
47  1.226388 3.891692 0.090419  0.012445 0.020003 0.934972
48  1.231621 3.875535 -0.958680  -0.050028 0.197908 0.917566
49  1.209917 3.994782 -2.003047  -0.174603 0.396887 0.692349
50  -0.328908 0.095429 1.403533  -0.623037 -2.717983 1.196723
51  -9.041796 -6.886845 14.488935  -1.258825 3.090207 0.106245
52  -10.552206 -11.430406 -15.000002  -1.570796 -0.000000 1.570796
53  -6.584470 -2.598536 -6.097302  -0.051945 0.000000 1.570796
time 11
0  0 0 0  0 0 0
1  0.000000 0.000000 0.000000  1.570796 -0.000000 0.000000
2  6.688313 0.001464 -6.000000  -0.180017 0.981463 -3.105344
3  -0.000000 13.479280 0.000000  0.356810 0.000000 -0.000000
4  -0.000000 13.477240 -0.000000  -0.260936 -0.968770 0.196263
5  -0.267269 3.664727 -1.953293  -0.106568 -0.025893 -0.137951
6  -0.000000 1.180355 -0.000001  -0.036623 -0.007435 -0.177465
7  -0.000001 0.817138 -0.000000  0.004200 -0.011559 0.007420
8  -0.249422 3.688542 -0.940889  -0.060580 -0.013550 -0.130737
9  0.000000 1.800634 -0.000000  0.004940 0.002077 -0.208495
10  0.000001 1.243406 -0.000000  0.006524 -0.000040 -0.064626
11  -0.244726 3.701097 0.087732  0.005036 0.002373 -0.139323
12  0.000000 1.766584 0.000000  0.002490 -0.003552 -0.259702
13  -0.000000 1.189003 0.000000  -0.017590 -0.001952 -0.152464
14  -0.277239 3.632249 1.274102  0.054558 0.010184 -0.144732
15  0.000001 1.798491 -0.000000  0.036314 0.010668 -0.285912
16  -0.000001 1.235453 -0.000000  -0.005152 0.006816 -0.068190
17  0.315441 0.857301 0.755944  1.684115 0.560091 1.563926
18  0.000001 2.265939 -0.000000  -0.057905 -0.032805 -0.238898
19  -0.000001 1.457808 0.000000  -0.029609 0.046490 0.034285
20  -1.259681 3.818376 1.286945  0.054558 0.010184 -0.144732
21  -1.226390 3.891694 0.090419  0.005036 0.002373 -0.139324
22  -1.231623 3.875535 -0.958681  -0.060580 -0.013550 -0.130737
23  -1.209919 3.994782 -2.003048  -0.106568 -0.025893 -0.137951
24  0.328906 0.095429 1.403532  1.684115 0.560091 1.563926
25  7.685551 -26.508362 -6.023971  0.000000 -0.000000 -3.141593
26  20.158314 0.001465 -15.000000  -1.570796 -0.000000 -1.570796
27  6.688313 0.001464 -6.000000  -0.051945 -0.000000 -1.570796
28  -6.584470 -2.598536 -6.097302  0.705182 0.043402 2.743786
29  -0.000000 13.479277 0.000001  1.304219 -0.000000 0.000000
30  -0.000000 13.477238 0.000000  -0.197328 0.378528 -0.227861
31  0.267268 3.664726 -1.953294  -0.174603 0.396887 0.692349
32  -0.000001 1.180353 0.000000  -0.024711 0.025798 1.296299
33  -0.000001 0.817138 -0.000001  0.012232 0.001270 1.111333
34  0.249422 3.688540 -0.940889  -0.050028 0.197908 0.917566
35  0.000001 1.800633 0.000001  -0.007162 -0.012483 1.774974
36  -0.000000 1.243404 -0.000000  0.004183 -0.005006 0.945407
37  0.244726 3.701095 0.087732  0.012445 0.020003 0.934973
38  -0.000000 1.766584 -0.000001  0.006918 0.000685 1.464509
39  0.000001 1.189003 0.000000  -0.004472 0.017123 1.357249
40  0.277238 3.632248 1.274101  0.065416 -0.152210 0.927372
41  0.000002 1.798493 0.000001  0.022849 -0.016745 1.078746
42  -0.000000 1.235452 0.000001  -0.007143 0.004688 1.572574
43  -0.315442 0.857300 0.755943  -0.623037 -2.717983 1.196723
44  -0.000002 2.265940 0.000001  -0.034963 0.056629 0.741260
45  0.000000 1.457810 0.000000  -0.048332 -0.026494 0.468069
46  1.259680 3.818376 1.286945  0.065416 -0.152210 0.927372
47  1.226390 3.891693 0.090419  0.012445 0.020003 0.934972
48  1.231622 3.875535 -0.958681  -0.050028 0.197908 0.917566
49  1.209919 3.994781 -2.003048  -0.174603 0.396887 0.692349
50  -0.328908 0.095428 1.403532  -0.623037 -2.717983 1.196723
51  -9.181137 -6.432912 14.820996  -1.259881 3.069192 0.040964
52  -9.976627 -11.669112 -15.000002  -1.570796 -0.000000 1.570796
53  -6.584470 -2.598536 -6.097302  -0.051945 0.000000 1.570796
time 12
0  0 0 0  0 0 0
1  0.000000 0.000000 0.000000  1.570796 -0.000000 0.000000
2  6.688313 0.001464 -6.000000  -0.180017 0.981463 -3.105344
3  -0.000000 13.479280 0.000000  0.356810 0.000000 -0.000000
4  -0.000000 13.477240 -0.000000  -0.260936 -0.968770 0.196263
5  -0.267269 3.664727 -1.953293  -0.106568 -0.025893 -0.137951
6  -0.000000 1.180355 -0.000001  -0.036623 -0.007435 -0.177465
7  -0.000001 0.817138 -0.000000  0.004200 -0.011559 0.007420
8  -0.249422 3.688542 -0.940889  -0.060580 -0.013550 -0.130737
9  0.000000 1.800634 -0.000000  0.004940 0.002077 -0.208495
10  0.000001 1.243406 -0.000000  0.006524 -0.000040 -0.064626
11  -0.244726 3.701097 0.087732  0.005036 0.002373 -0.139323
12  0.000000 1.766584 0.000000  0.002490 -0.003552 -0.259702
13  -0.000000 1.189003 0.000000  -0.017590 -0.001952 -0.152464
14  -0.277239 3.632249 1.274102  0.054558 0.010184 -0.144732
15  0.000001 1.798491 -0.000000  0.036314 0.010668 -0.285912
16  -0.000001 1.235453 -0.000000  -0.005152 0.006816 -0.068190
17  0.315441 0.857301 0.755944  1.684115 0.560091 1.563926
18  0.000001 2.265939 -0.000000  -0.057905 -0.032805 -0.238898
19  -0.000001 1.457808 0.000000  -0.029609 0.046490 0.034285
20  -1.259681 3.818376 1.286945  0.054558 0.010184 -0.144732
21  -1.226390 3.891694 0.090419  0.005036 0.002373 -0.139324
22  -1.231623 3.875535 -0.958681  -0.060580 -0.013550 -0.130737
23  -1.209919 3.994782 -2.003048  -0.106568 -0.025893 -0.137951
24  0.328906 0.095429 1.403532  1.684115 0.560091 1.563926
25  7.685551 -26.508362 -6.023971  0.000000 -0.000000 -3.141593
26  20.158314 0.001465 -15.000000  -1.570796 -0.000000 -1.570796
27  6.688313 0.001464 -6.000000  -0.051945 -0.000000 -1.570796
28  -6.584470 -2.598536 -6.097302  0.749825 0.062622 2.780128
29  0.000000 13.479277 0.000001  1.261298 -0.000000 0.000000
30  0.000001 13.477237 -0.000001  -0.183055 0.287253 -0.179697
31  0.267269 3.664727 -1.953293  -0.174603 0.396888 0.692349
32  0.000000 1.180357 -0.000001  -0.024711 0.025798 1.296300
33  -0.000002 0.817136 0.000000  0.012232 0.001270 1.111333
34  0.249423 3.688541 -0.940889  -0.050028 0.197908 0.917566
35  -0.000000 1.800633 0.000000  -0.007162 -0.012483 1.774974
36  0.000002 1.243405 0.000000  0.004183 -0.005006 0.945407
37  0.244726 3.701094 0.087733  0.012445 0.020003 0.934972
38  -0.000001 1.766586 0.000000  0.006918 0.000685 1.464509
39  -0.000004 1.189005 -0.000001  -0.004472 0.017123 1.357249
40  0.277240 3.632249 1.274103  0.065416 -0.152210 0.927371
41  -0.000001 1.798495 0.000001  0.022849 -0.016745 1.078746
42  -0.000001 1.235451 -0.000002  -0.007143 0.004688 1.572573
43  -0.315442 0.857299 0.755945  -0.623037 -2.717983 1.196723
44  0.000000 2.265939 -0.000000  -0.034963 0.056629 0.741260
45  -0.000002 1.457809 -0.000000  -0.048332 -0.026494 0.468069
46  1.259682 3.818376 1.286945  0.065416 -0.152210 0.927372
47  1.226391 3.891693 0.090419  0.012445 0.020003 0.934972
48  1.231622 3.875534 -0.958680  -0.050028 0.197908 0.917566
49  1.209918 3.994782 -2.003047  -0.174603 0.396887 0.692349
50  -0.328906 0.095429 1.403533  -0.623037 -2.717983 1.196723
51  -9.292711 -5.978979 15.237241  -1.260936 3.048177 -0.024316
52  -9.515740 -11.930197 -15.000002  -1.570796 -0.000000 1.570796
53  -6.584470 -2.598536 -6.097302  -0.051945 0.000000 1.570796
time 13
0  0 0 0  0 0 0
1  0.000000 0.000000 0.000000  1.570796 -0.000000 0.000000
2  6.688313 0.001464 -6.000000  -0.180017 0.981463 -3.105344
3  -0.000000 13.479280 0.000000  0.356810 0.000000 -0.000000
4  -0.000000 13.477240 -0.000000  -0.260936 -0.968770 0.196263
5  -0.267269 3.664727 -1.953293  -0.106568 -0.025893 -0.137951
6  -0.000000 1.180355 -0.000001  -0.036623 -0.007435 -0.177465
7  -0.000001 0.817138 -0.000000  0.004200 -0.011559 0.007420
8  -0.249422 3.688542 -0.940889  -0.060580 -0.013550 -0.130737
9  0.000000 1.800634 -0.000000  0.004940 0.002077 -0.208495
10  0.000001 1.243406 -0.000000  0.006524 -0.000040 -0.064626
11  -0.244726 3.701097 0.087732  0.005036 0.002373 -0.139323
12  0.000000 1.766584 0.000000  0.002490 -0.003552 -0.259702
13  -0.000000 1.189003 0.000000  -0.017590 -0.001952 -0.152464
14  -0.277239 3.632249 1.274102  0.054558 0.010184 -0.144732
15  0.000001 1.798491 -0.000000  0.036314 0.010668 -0.285912
16  -0.000001 1.235453 -0.000000  -0.005152 0.006816 -0.068190
17  0.315441 0.857301 0.755944  1.684115 0.560091 1.563926
18  0.000001 2.265939 -0.000000  -0.057905 -0.032805 -0.238898
19  -0.000001 1.457808 0.000000  -0.029609 0.046490 0.034285
20  -1.259681 3.818376 1.286945  0.054558 0.010184 -0.144732
21  -1.226390 3.891694 0.090419  0.005036 0.002373 -0.139324
22  -1.231623 3.875535 -0.958681  -0.060580 -0.013550 -0.130737
23  -1.209919 3.994782 -2.003048  -0.106568 -0.025893 -0.137951
24  0.328906 0.095429 1.403532  1.684115 0.560091 1.563926
25  7.685551 -26.508362 -6.023971  0.000000 -0.000000 -3.141593
26  20.158314 0.001465 -15.000000  -1.570796 -0.000000 -1.570796
27  6.688313 0.001464 -6.000000  -0.051945 -0.000000 -1.570796
28  -6.584470 -2.598536 -6.097302  0.796477 0.076070 2.811594
29  -0.000000 13.479275 -0.000001  1.207047 -0.000000 0.000000
30  -0.000001 13.477240 0.000000  -0.169353 0.214593 -0.141688
31  0.267270 3.664729 -1.953293  -0.174603 0.396888 0.692349
32  0.000000 1.180353 -0.000000  -0.024711 0.025798 1.296299
33  0.000001 0.817136 0.000000  0.012232 0.001270 1.111333
34  0.249423 3.688542 -0.940888  -0.050028 0.197908 0.917566
35  -0.000001 1.800632 0.000000  -0.007162 -0.012483 1.774974
36  -0.000001 1.243405 0.000000  0.004183 -0.005006 0.945407
37  0.244726 3.701097 0.087734  0.012445 0.020003 0.934973
38  -0.000001 1.766586 -0.000000  0.006918 0.000685 1.464509
39  0.000000 1.189005 -0.000001  -0.004472 0.017123 1.357250
40  0.277240 3.632250 1.274102  0.065416 -0.152210 0.927372
41  -0.000003 1.798494 -0.000000  0.022849 -0.016745 1.078747
42  0.000001 1.235452 -0.000001  -0.007143 0.004688 1.572574
43  -0.315441 0.857300 0.755944  -0.623037 -2.717983 1.196723
44  0.000000 2.265940 -0.000001  -0.034963 0.056629 0.741260
45  -0.000001 1.457814 0.000000  -0.048332 -0.026494 0.468068
46  1.259681 3.818375 1.286947  0.065416 -0.152210 0.927372
47  1.226391 3.891694 0.090420  0.012445 0.020003 0.934972
48  1.231623 3.875536 -0.958679  -0.050028 0.197908 0.917566
49  1.209919 3.994784 -2.003047  -0.174603 0.396888 0.692349
50  -0.328906 0.095431 1.403533  -0.623037 -2.717983 1.196723
51  -9.379606 -5.629800 15.709609  -1.268324 3.032011 -0.074532
52  -9.156801 -12.202472 -15.000002  -1.570796 -0.000000 1.570796
53  -6.584470 -2.598536 -6.097302  -0.051945 0.000000 1.570796
time 14
0  0 0 0  0 0 0
1  0.000000 0.000000 0.000000  1.570796 -0.000000 0.000000
2  6.688313 0.001464 -6.000000  -0.180017 0.981463 -3.105344
3  -0.000000 13.479280 0.000000  0.356810 0.000000 -0.000000
4  -0.000000 13.477240 -0.000000  -0.260936 -0.968770 0.196263
5  -0.267269 3.664727 -1.953293  -0.106568 -0.025893 -0.137951
6  -0.000000 1.180355 -0.000001  -0.036623 -0.007435 -0.177465
7  -0.000001 0.817138 -0.000000  0.004200 -0.011559 0.007420
8  -0.249422 3.688542 -0.940889  -0.060580 -0.013550 -0.130737
9  0.000000 1.800634 -0.000000  0.004940 0.002077 -0.208495
10  0.000001 1.243406 -0.000000  0.006524 -0.000040 -0.064626
11  -0.244726 3.701097 0.087732  0.005036 0.002373 -0.139323
12  0.000000 1.766584 0.000000  0.002490 -0.003552 -0.259702
13  -0.000000 1.189003 0.000000  -0.017590 -0.001952 -0.152464
14  -0.277239 3.632249 1.274102  0.054558 0.010184 -0.144732
15  0.000001 1.798491 -0.000000  0.036314 0.010668 -0.285912
16  -0.000001 1.235453 -0.000000  -0.005152 0.006816 -0.068190
17  0.315441 0.857301 0.755944  1.684115 0.560091 1.563926
18  0.000001 2.265939 -0.000000  -0.057905 -0.032805 -0.238898
19  -0.000001 1.457808 0.000000  -0.029609 0.046490 0.034285
20  -1.259681 3.818376 1.286945  0.054558 0.010184 -0.144732
21  -1.226390 3.891694 0.090419  0.005036 0.002373 -0.139324
22  -1.231623 3.875535 -0.958681  -0.060580 -0.013550 -0.130737
23  -1.209919 3.994782 -2.003048  -0.106568 -0.025893 -0.137951
24  0.328906 0.095429 1.403532  1.684115 0.560091 1.563926
25  7.685551 -26.508362 -6.023971  0.000000 -0.000000 -3.141593
26  20.158314 0.001465 -15.000000  -1.570796 -0.000000 -1.570796
27  6.688313 0.001464 -6.000000  -0.051945 -0.000000 -1.570796
28  -6.584470 -2.598536 -6.097302  0.839532 0.083570 2.838937
29  0.000001 13.479275 -0.000001  1.142617 -0.000000 0.000000
30  0.000001 13.477238 -0.000001  -0.159892 0.175234 -0.115452
31  0.267270 3.664727 -1.953293  -0.174603 0.396888 0.692349
32  -0.000005 1.180353 -0.000001  -0.024711 0.025798 1.296299
33  0.000001 0.817136 -0.000000  0.012232 0.001270 1.111333
34  0.249424 3.688541 -0.940888  -0.050028 0.197908 0.917566
35  -0.000001 1.800635 -0.000000  -0.007162 -0.012483 1.774974
36  -0.000001 1.243406 0.000000  0.004183 -0.005006 0.945407
37  0.244727 3.701097 0.087733  0.012445 0.020003 0.934973
38  -0.000001 1.766584 0.000001  0.006918 0.000685 1.464509
39  0.000001 1.189005 -0.000000  -0.004472 0.017123 1.357249
40  0.277240 3.632248 1.274102  0.065416 -0.152210 0.927372
41  0.000001 1.798496 0.000000  0.022849 -0.016745 1.078747
42  -0.000002 1.235452 0.000000  -0.007143 0.004688 1.572574
43  -0.315440 0.857300 0.755944  -0.623037 -2.717983 1.196723
44  0.000000 2.265940 -0.000000  -0.034963 0.056629 0.741260
45  0.000000 1.457810 -0.000000  -0.048332 -0.026494 0.468069
46  1.259681 3.818374 1.286947  0.065416 -0.152210 0.927371
47  1.226392 3.891694 0.090419  0.012445 0.020003 0.934972
48  1.231624 3.875532 -0.958679  -0.050028 0.197908 0.917566
49  1.209919 3.994780 -2.003047  -0.174603 0.396888 0.692349
50  -0.328904 0.095429 1.403533  -0.623037 -2.717983 1.196723
51  -9.444906 -5.490129 16.210041  -1.288377 3.025545 -0.094619
52  -8.887065 -12.474746 -15.000002  -1.570796 -0.000000 1.570796
53  -6.584470 -2.598536 -6.097302  -0.051945 0.000000 1.570796
time 15
0  0 0 0  0 0 0
1  0.000000 0.000000 0.000000  1.570796 -0.000000 0.000000
2  6.688313 0.001464 -6.000000  -0.180017 0.981463 -3.105344
3  -0.000000 13.479280 0.000000  0.356810 0.000000 -0.000000
4  -0.000000 13.477240 -0.000000  -0.260936 -0.968770 0.196263
5  -0.267269 3.664727 -1.953293  -0.106568 -0.025893 -0.137951
6  -0.000000 1.180355 -0.000001  -0.036623 -0.007435 -0.177465
7  -0.000001 0.817138 -0.000000  0.004200 -0.011559 0.007420
8  -0.249422 3.688542 -0.940889  -0.060580 -0.013550 -0.130737
9  0.000000 1.800634 -0.000000  0.004940 0.002077 -0.208495
10  0.000001 1.243406 -0.000000  0.006524 -0.000040 -0.064626
11  -0.244726 3.701097 0.087732  0.005036 0.002373 -0.139323
12  0.000000 1.766584 0.000000  0.002490 -0.003552 -0.259702
13  -0.000000 1.189003 0.000000  -0.017590 -0.001952 -0.152464
14  -0.277239 3.632249 1.274102  0.054558 0.010184 -0.144732
15  0.000001 1.798491 -0.000000  0.036314 0.010668 -0.285912
16  -0.000001 1.235453 -0.000000  -0.005152 0.006816 -0.068190
17  0.315441 0.857301 0.755944  1.684115 0.560091 1.563926
18  0.000001 2.265939 -0.000000  -0.057905 -0.032805 -0.238898
19  -0.000001 1.457808 0.000000  -0.029609 0.046490 0.034285
20  -1.259681 3.818376 1.286945  0.054558 0.010184 -0.144732
21  -1.226390 3.891694 0.090419  0.005036 0.002373 -0.139324
22  -1.231623 3.875535 -0.958681  -0.060580 -0.013550 -0.130737
23  -1.209919 3.994782 -2.003048  -0.106568 -0.025893 -0.137951
24  0.328906 0.095429 1.403532  1.684115 0.560091 1.563926
25  7.685551 -26.508362 -6.023971  0.000000 -0.000000 -3.141593
26  20.158314 0.001465 -15.000000  -1.570796 -0.000000 -1.570796
27  6.688313 0.001464 -6.000000  -0.051945 -0.000000 -1.570796
28  -6.584470 -2.598536 -6.097302  0.876966 0.086330 2.861964
29  -0.000000 13.479277 0.000000  1.070751 -0.000000 0.000000
30  0.000000 13.477239 0.000000  -0.161667 0.168869 -0.092381
31  0.267268 3.664725 -1.953293  -0.174603 0.396888 0.692349
32  -0.000001 1.180355 -0.000000  -0.024711 0.025798 1.296299
33  -0.000001 0.817136 0.000000  0.012232 0.001270 1.111333
34  0.249423 3.688543 -0.940889  -0.050028 0.197908 0.917566
35  -0.000001 1.800634 0.000000  -0.007162 -0.012483 1.774974
36  -0.000000 1.243407 -0.000001  0.004183 -0.005006 0.945407
37  0.244726 3.701095 0.087732  0.012445 0.020003 0.934973
38  0.000000 1.766583 -0.000001  0.006918 0.000685 1.464509
39  -0.000002 1.189004 -0.000001  -0.004472 0.017123 1.357249
40  0.277239 3.632247 1.274102  0.065416 -0.152210 0.927372
41  0.000001 1.798495 0.000000  0.022849 -0.016745 1.078747
42  0.000001 1.235451 -0.000001  -0.007143 0.004688 1.572574
43  -0.315441 0.857299 0.755944  -0.623037 -2.717983 1.196723
44  -0.000000 2.265940 0.000000  -0.034963 0.056629 0.741260
45  -0.000000 1.457809 -0.000002  -0.048332 -0.026494 0.468069
46  1.259681 3.818374 1.286946  0.065416 -0.152210 0.927371
47  1.226391 3.891693 0.090419  0.012445 0.020003 0.934972
48  1.231623 3.875533 -0.958681  -0.050028 0.197908 0.917566
49  1.209919 3.994781 -2.003048  -0.174603 0.396888 0.692349
50  -0.328906 0.095428 1.403532  -0.623037 -2.717983 1.196723
51  -9.491695 -5.570994 16.710468  -1.329086 3.034141 -0.087610
52  -8.693789 -12.735830 -15.000002  -1.570796 -0.000000 1.570796
53  -6.584470 -2.598536 -6.097302  -0.051945 0.000000 1.570796
time 16
0  0 0 0  0 0 0
1  0.000000 0.000000 0.000000  1.570796 -0.000000 0.000000
2  6.688313 0.001464 -6.000000  -0.180017 0.981463 -3.105344
3  -0.000000 13.479280 0.000000  0.356810 0.000000 -0.000000
4  -0.000000 13.477240 -0.000000  -0.260936 -0.968770 0.196263
5  -0.267269 3.664727 -1.953293  -0.106568 -0.025893 -0.137951
6  -0.000000 1.180355 -0.000001  -0.036623 -0.007435 -0.177465
7  -0.000001 0.817138 -0.000000  0.004200 -0.011559 0.007420
8  -0.249422 3.688542 -0.940889  -0.060580 -0.013550 -0.130737
9  0.000000 1.800634 -0.000000  0.004940 0.002077 -0.208495
10  0.000001 1.243406 -0.000000  0.006524 -0.000040 -0.064626
11  -0.244726 3.701097 0.087732  0.005036 0.002373 -0.139323
12  0.000000 1.766584 0.000000  0.002490 -0.003552 -0.259702
13  -0.000000 1.189003 0.000000  -0.017590 -0.001952 -0.152464
14  -0.277239 3.632249 1.274102  0.054558 0.010184 -0.144732
15  0.000001 1.798491 -0.000000  0.036314 0.010668 -0.285912
16  -0.000001 1.235453 -0.000000  -0.005152 0.006816 -0.068190
17  0.315441 0.857301 0.755944  1.684115 0.560091 1.563926
18  0.000001 2.265939 -0.000000  -0.057905 -0.032805 -0.238898
19  -0.000001 1.457808 0.000000  -0.029609 0.046490 0.034285
20  -1.259681 3.818376 1.286945  0.054558 0.010184 -0.144732
21  -1.226390 3.891694 0.090419  0.005036 0.002373 -0.139324
22  -1.231623 3.875535 -0.958681  -0.060580 -0.013550 -0.130737
23  -1.209919 3.994782 -2.003048  -0.106568 -0.025893 -0.137951
24  0.328906 0.095429 1.403532  1.684115 0.560091 1.563926
25  7.685551 -26.508362 -6.023971  0.000000 -0.000000 -3.141593
26  20.158314 0.001465 -15.000000  -1.570796 -0.000000 -1.570796
27  6.688313 0.001464 -6.000000  -0.051945 -0.000000 -1.570796
28  -6.584470 -2.598536 -6.097302  0.910271 0.086443 2.879955
29  0.000000 13.479277 0.000000  0.996496 -0.000000 0.000000
30  0.000000 13.477239 -0.000000  -0.174468 0.179678 -0.064650
31  0.267268 3.664726 -1.953293  -0.174603 0.396888 0.692349
32  0.000003 1.180356 0.000000  -0.024711 0.025798 1.296299
33  0.000000 0.817135 -0.000000  0.012232 0.001270 1.111333
34  0.249422 3.688540 -0.940888  -0.050028 0.197908 0.917566
35  -0.000004 1.800631 0.000000  -0.007162 -0.012483 1.774974
36  0.000000 1.243407 0.000001  0.004183 -0.005006 0.945407
37  0.244726 3.701095 0.087733  0.012445 0.020003 0.934973
38  -0.000001 1.766586 0.000000  0.006918 0.000685 1.464509
39  0.000000 1.189003 0.000001  -0.004472 0.017123 1.357249
40  0.277239 3.632248 1.274102  0.065416 -0.152210 0.927371
41  0.000001 1.798494 0.000000  0.022849 -0.016745 1.078747
42  0.000001 1.235452 0.000001  -0.007143 0.004688 1.572574
43  -0.315442 0.857300 0.755944  -0.623037 -2.717983 1.196723
44  0.000000 2.265941 0.000000  -0.034963 0.056629 0.741260
45  -0.000000 1.457811 -0.000000  -0.048332 -0.026494 0.468069
46  1.259681 3.818376 1.286946  0.065416 -0.152210 0.927372
47  1.226390 3.891693 0.090419  0.012445 0.020003 0.934972
48  1.231622 3.875533 -0.958680  -0.050028 0.197908 0.917566
49  1.209918 3.994781 -2.003047  -0.174603 0.396888 0.692349
50  -0.328908 0.095427 1.403533  -0.623037 -2.717983 1.196723
51  -9.523060 -5.773161 17.182837  -1.386926 3.055631 -0.070088
52  -8.564232 -12.974537 -15.000002  -1.570796 -0.000000 1.570796
53  -6.584470 -2.598536 -6.097302  -0.051945 0.000000 1.570796
time 17
0  0 0 0  0 0 0
1  0.000000 0.000000 0.000000  1.570796 -0.000000 0.000000
2  6.688313 0.001464 -6.000000  -0.180017 0.981463 -3.105344
3  -0.000000 13.479280 0.000000  0.356810 0.000000 -0.000000
4  -0.000000 13.477240 -0.000000  -0.260936 -0.968770 0.196263
5  -0.267269 3.664727 -1.953293  -0.106568 -0.025893 -0.137951
6  -0.000000 1.180355 -0.000001  -0.036623 -0.007435 -0.177465
7  -0.000001 0.817138 -0.000000  0.004200 -0.011559 0.007420
8  -0.249422 3.688542 -0.940889  -0.060580 -0.013550 -0.130737
9  0.000000 1.800634 -0.000000  0.004940 0.002077 -0.208495
10  0.000001 1.243406 -0.000000  0.006524 -0.000040 -0.064626
11  -0.244726 3.701097 0.087732  0.005036 0.002373 -0.139323
12  0.000000 1.766584 0.000000  0.002490 -0.003552 -0.259702
13  -0.000000 1.189003 0.000000  -0.017590 -0.001952 -0.152464
14  -0.277239 3.632249 1.274102  0.054558 0.010184 -0.144732
15  0.000001 1.798491 -0.000000  0.036314 0.010668 -0.285912
16  -0.000001 1.235453 -0.000000  -0.005152 0.006816 -0.068190
17  0.315441 0.857301 0.755944  1.684115 0.560091 1.563926
18  0.000001 2.265939 -0.000000  -0.057905 -0.032805 -0.238898
19  -0.000001 1.457808 0.000000  -0.029609 0.046490 0.034285
20  -1.259681 3.818376 1.286945  0.054558 0.010184 -0.144732
21  -1.226390 3.891694 0.090419  0.005036 0.002373 -0.139324
22  -1.231623 3.875535 -0.958681  -0.060580 -0.013550 -0.130737
23  -1.209919 3.994782 -2.003048  -0.106568 -0.025893 -0.137951
24  0.328906 0.095429 1.403532  1.684115 0.560091 1.563926
25  7.685551 -26.508362 -6.023971  0.000000 -0.000000 -3.141593
26  20.158314 0.001465 -15.000000  -1.570796 -0.000000 -1.570796
27  6.688313 0.001464 -6.000000  -0.051945 -0.000000 -1.570796
28  -6.584470 -2.598536 -6.097302  0.939509 0.085098 2.893113
29  -0.000001 13.479277 0.000000  0.924551 -0.000000 0.000000
30  0.000001 13.477239 0.000001  -0.191272 0.199617 -0.034071
31  0.267270 3.664728 -1.953293  -0.174603 0.396888 0.692349
32  0.000000 1.180353 0.000000  -0.024711 0.025798 1.296299
33  0.000001 0.817134 -0.000000  0.012232 0.001270 1.111333
34  0.249423 3.688545 -0.940889  -0.050028 0.197908 0.917566
35  -0.000001 1.800634 0.000000  -0.007162 -0.012483 1.774974
36  -0.000000 1.243405 -0.000001  0.004183 -0.005006 0.945407
37  0.244727 3.701097 0.087733  0.012445 0.020003 0.934973
38  -0.000001 1.766583 0.000000  0.006918 0.000685 1.464509
39  -0.000001 1.189007 -0.000000  -0.004472 0.017123 1.357249
40  0.277239 3.632252 1.274102  0.065416 -0.152210 0.927372
41  0.000001 1.798494 -0.000001  0.022849 -0.016745 1.078747
42  -0.000002 1.235453 -0.000001  -0.007143 0.004688 1.572574
43  -0.315441 0.857303 0.755944  -0.623037 -2.717983 1.196723
44  -0.000002 2.265939 0.000000  -0.034963 0.056629 0.741260
45  0.000001 1.457812 -0.000000  -0.048332 -0.026494 0.468068
46  1.259682 3.818379 1.286946  0.065416 -0.152210 0.927371
47  1.226392 3.891696 0.090419  0.012445 0.020003 0.934972
48  1.231624 3.875537 -0.958680  -0.050028 0.197908 0.917566
49  1.209920 3.994783 -2.003048  -0.174603 0.396888 0.692349
50  -0.328905 0.095431 1.403532  -0.623037 -2.717983 1.196723
51  -9.542084 -6.035977 17.599083  -1.450959 3.083569 -0.047309
52  -8.485649 -13.179675 -15.000002  -1.570796 -0.000000 1.570796
53  -6.584470 -2.598536 -6.097302  -0.051945 0.000000 1.570796
time 18
0  0 0 0  0 0 0
1  0.000000 0.000000 0.000000  1.570796 -0.000000 0.000000
2  6.688313 0.001464 -6.000000  -0.180017 0.981463 -3.105344
3  -0.000000 13.479280 0.000000  0.356810 0.000000 -0.000000
4  -0.000000 13.477240 -0.000000  -0.260936 -0.968770 0.196263
5  -0.267269 3.664727 -1.953293  -0.106568 -0.025893 -0.137951
6  -0.000000 1.180355 -0.000001  -0.036623 -0.007435 -0.177465
7  -0.000001 0.817138 -0.000000  0.004200 -0.011559 0.007420
8  -0.249422 3.688542 -0.940889  -0.060580 -0.013550 -0.130737
9  0.000000 1.800634 -0.000000  0.004940 0.002077 -0.208495
10  0.000001 1.243406 -0.000000  0.006524 -0.000040 -0.064626
11  -0.244726 3.701097 0.087732  0.005036 0.002373 -0.139323
12  0.000000 1.766584 0.000000  0.002490 -0.003552 -0.259702
13  -0.000000 1.189003 0.000000  -0.017590 -0.001952 -0.152464
14  -0.277239 3.632249 1.274102  0.054558 0.010184 -0.144732
15  0.000001 1.798491 -0.000000  0.036314 0.010668 -0.285912
16  -0.000001 1.235453 -0.000000  -0.005152 0.006816 -0.068190
17  0.315441 0.857301 0.755944  1.684115 0.560091 1.563926
18  0.000001 2.265939 -0.000000  -0.057905 -0.032805 -0.238898
19  -0.000001 1.457808 0.000000  -0.029609 0.046490 0.034285
20  -1.259681 3.818376 1.286945  0.054558 0.010184 -0.144732
21  -1.226390 3.891694 0.090419  0.005036 0.002373 -0.139324
22  -1.231623 3.875535 -0.958681  -0.060580 -0.013550 -0.130737
23  -1.209919 3.994782 -2.003048  -0.106568 -0.025893 -0.137951
24  0.328906 0.095429 1.403532  1.684115 0.560091 1.563926
25  7.685551 -26.508362 -6.023971  0.000000 -0.000000 -3.141593
26  20.158314 0.001465 -15.000000  -1.570796 -0.000000 -1.570796
27  6.688313 0.001464 -6.000000  -0.051945 -0.000000 -1.570796
28  -6.584470 -2.598536 -6.097302  0.963504 0.083211 2.901894
29  -0.000000 13.479277 0.000000  0.861782 -0.000000 0.000000
30  0.000000 13.477239 -0.000000  -0.206645 0.221227 -0.004297
31  0.267268 3.664726 -1.953292  -0.174603 0.396888 0.692349
32  0.000001 1.180355 -0.000000  -0.024711 0.025798 1.296299
33  0.000001 0.817136 0.000000  0.012232 0.001270 1.111333
34  0.249422 3.688541 -0.940889  -0.050028 0.197908 0.917566
35  0.000001 1.800634 -0.000000  -0.007162 -0.012483 1.774974
36  -0.000003 1.243409 0.000000  0.004183 -0.005006 0.945407
37  0.244724 3.701097 0.087733  0.012445 0.020003 0.934973
38  0.000001 1.766585 -0.000000  0.006918 0.000685 1.464509
39  -0.000002 1.189005 -0.000001  -0.004472 0.017123 1.357249
40  0.277238 3.632248 1.274103  0.065416 -0.152210 0.927372
41  0.000004 1.798495 -0.000000  0.022849 -0.016745 1.078747
42  -0.000001 1.235453 0.000000  -0.007143 0.004688 1.572574
43  -0.315442 0.857298 0.755944  -0.623037 -2.717983 1.196723
44  -0.000000 2.265939 -0.000001  -0.034963 0.056629 0.741260
45  -0.000001 1.457811 0.000001  -0.048332 -0.026494 0.468069
46  1.259681 3.818375 1.286946  0.065416 -0.152210 0.927371
47  1.226389 3.891693 0.090420  0.012445 0.020003 0.934972
48  1.231622 3.875533 -0.958680  -0.050028 0.197908 0.917566
49  1.209919 3.994782 -2.003047  -0.174603 0.396888 0.692349
50  -0.328907 0.095427 1.403533  -0.623037 -2.717983 1.196723
51  -9.551853 -6.298794 17.931145  -1.510241 3.111506 -0.024531
52  -8.445292 -13.340056 -15.000002  -1.570796 -0.000000 1.570796
53  -6.584470 -2.598536 -6.097302  -0.051945 0.000000 1.570796
time 19
0  0 0 0  0 0 0
1  0.000000 0.000000 0.000000  1.570796 -0.000000 0.000000
2  6.688313 0.001464 -6.000000  -0.180017 0.981463 -3.105344
3  -0.000000 13.479280 0.000000  0.356810 0.000000 -0.000000
4  -0.000000 13.477240 -0.000000  -0.260936 -0.968770 0.196263
5  -0.267269 3.664727 -1.953293  -0.106568 -0.025893 -0.137951
6  -0.000000 1.180355 -0.000001  -0.036623 -0.007435 -0.177465
7  -0.000001 0.817138 -0.000000  0.004200 -0.011559 0.007420
8  -0.249422 3.688542 -0.940889  -0.060580 -0.013550 -0.130737
9  0.000000 1.800634 -0.000000  0.004940 0.002077 -0.208495
10  0.000001 1.243406 -0.000000  0.006524 -0.000040 -0.064626
11  -0.244726 3.701097 0.087732  0.005036 0.002373 -0.139323
12  0.000000 1.766584 0.000000  0.002490 -0.003552 -0.259702
13  -0.000000 1.189003 0.000000  -0.017590 -0.001952 -0.152464
14  -0.277239 3.632249 1.274102  0.054558 0.010184 -0.144732
15  0.000001 1.798491 -0.000000  0.036314 0.010668 -0.285912
16  -0.000001 1.235453 -0.000000  -0.005152 0.006816 -0.068190
17  0.315441 0.857301 0.755944  1.684115 0.560091 1.563926
18  0.000001 2.265939 -0.000000  -0.057905 -0.032805 -0.238898
19  -0.000001 1.457808 0.000000  -0.029609 0.046490 0.034285
20  -1.259681 3.818376 1.286945  0.054558 0.010184 -0.144732
21  -1.226390 3.891694 0.090419  0.005036 0.002373 -0.139324
22  -1.231623 3.875535 -0.958681  -0.060580 -0.013550 -0.130737
23  -1.209919 3.994782 -2.003048  -0.106568 -0.025893 -0.137951
24  0.328906 0.095429 1.403532  1.684115 0.560091 1.563926
25  7.685551 -26.508362 -6.023971  0.000000 -0.000000 -3.141593
26  20.158314 0.001465 -15.000000  -1.570796 -0.000000 -1.570796
27  6.688313 0.001464 -6.000000  -0.051945 -0.000000 -1.570796
28  -6.584470 -2.598536 -6.097302  0.980113 0.081546 2.906829
29  0.000000 13.479277 -0.000000  0.816720 -0.000000 0.000000
30  -0.000000 13.477238 0.000000  -0.217124 0.238147 0.018914
31  0.267271 3.664726 -1.953292  -0.174603 0.396888 0.692349
32  0.000001 1.180356 0.000000  -0.024711 0.025798 1.296299
33  0.000001 0.817135 -0.000001  0.012232 0.001270 1.111333
34  0.249423 3.688542 -0.940888  -0.050028 0.197908 0.917566
35  0.000000 1.800633 0.000001  -0.007162 -0.012483 1.774974
36  -0.000001 1.243406 -0.000000  0.004183 -0.005006 0.945407
37  0.244726 3.701095 0.087733  0.012445 0.020003 0.934973
38  -0.000002 1.766586 0.000001  0.006918 0.000685 1.464509
39  0.000000 1.189003 0.000001  -0.004472 0.017123 1.357249
40  0.277239 3.632248 1.274102  0.065416 -0.152210 0.927372
41  -0.000002 1.798493 -0.000000  0.022849 -0.016745 1.078747
42  -0.000001 1.235452 -0.000000  -0.007143 0.004688 1.572574
43  -0.315441 0.857301 0.755944  -0.623037 -2.717983 1.196723
44  0.000002 2.265940 -0.000000  -0.034963 0.056629 0.741260
45  -0.000001 1.457813 -0.000001  -0.048332 -0.026494 0.468068
46  1.259681 3.818375 1.286946  0.065416 -0.152210 0.927371
47  1.226390 3.891693 0.090419  0.012445 0.020003 0.934972
48  1.231623 3.875535 -0.958680  -0.050028 0.197908 0.917566
49  1.209919 3.994783 -2.003047  -0.174603 0.396888 0.692349
50  -0.328906 0.095429 1.403532  -0.623037 -2.717983 1.196723
51  -9.555452 -6.500961 18.150957  -1.553834 3.132997 -0.007009
52  -8.430427 -13.444490 -15.000002  -1.570796 -0.000000 1.570796
53  -6.584470 -2.598536 -6.097302  -0.051945 0.000000 1.570796
time 20
0  0 0 0  0 0 0
1  0.000000 0.000000 0.000000  1.570796 -0.000000 0.000000
2  6.688313 0.001464 -6.000000  -0.180017 0.981463 -3.105344
3  -0.000000 13.479280 0.000000  0.356810 0.000000 -0.000000
4  -0.000000 13.477240 -0.000000  -0.260936 -0.968770 0.196263
5  -0.267269 3.664727 -1.953293  -0.106568 -0.025893 -0.137951
6  -0.000000 1.180355 -0.000001  -0.036623 -0.007435 -0.177465
7  -0.000001 0.817138 -0.000000  0.004200 -0.011559 0.007420
8  -0.249422 3.688542 -0.940889  -0.060580 -0.013550 -0.130737
9  0.000000 1.800634 -0.000000  0.004940 0.002077 -0.208495
10  0.000001 1.243406 -0.000000  0.006524 -0.000040 -0.064626
11  -0.244726 3.701097 0.087732  0.005036 0.002373 -0.139323
12  0.000000 1.766584 0.000000  0.002490 -0.003552 -0.259702
13  -0.000000 1.189003 0.000000  -0.017590 -0.001952 -0.152464
14  -0.277239 3.632249 1.274102  0.054558 0.010184 -0.144732
15  0.000001 1.798491 -0.000000  0.036314 0.010668 -0.285912
16  -0.000001 1.235453 -0.000000  -0.005152 0.006816 -0.068190
17  0.315441 0.857301 0.755944  1.684115 0.560091 1.563926
18  0.000001 2.265939 -0.000000  -0.057905 -0.032805 -0.238898
19  -0.000001 1.457808 0.000000  -0.029609 0.046490 0.034285
20  -1.259681 3.818376 1.286945  0.054558 0.010184 -0.144732
21  -1.226390 3.891694 0.090419  0.005036 0.002373 -0.139324
22  -1.231623 3.875535 -0.958681  -0.060580 -0.013550 -0.130737
23  -1.209919 3.994782 -2.003048  -0.106568 -0.025893 -0.137951
24  0.328906 0.095429 1.403532  1.684115 0.560091 1.563926
25  7.685551 -26.508362 -6.023971  0.000000 -0.000000 -3.141593
26  20.158314 0.001465 -15.000000  -1.570796 -0.000000 -1.570796
27  6.688313 0.001464 -6.000000  -0.051945 -0.000000 -1.570796
28  -6.584470 -2.598536 -6.097302  0.986251 0.080824 2.908392
29  0.000002 13.479277 0.000001  0.799590 -0.000000 0.000000
30  0.000001 13.477239 -0.000000  -0.221035 0.244975 0.028276
31  0.267270 3.664726 -1.953293  -0.174603 0.396888 0.692349
32  -0.000002 1.180353 -0.000000  -0.024711 0.025798 1.296299
33  -0.000003 0.817136 -0.000001  0.012232 0.001270 1.111333
34  0.249423 3.688542 -0.940889  -0.050028 0.197908 0.917566
35  0.000001 1.800633 0.000001  -0.007162 -0.012483 1.774974
36  0.000000 1.243406 -0.000000  0.004183 -0.005006 0.945407
37  0.244727 3.701096 0.087732  0.012445 0.020003 0.934973
38  0.000001 1.766584 0.000000  0.006918 0.000685 1.464509
39  0.000000 1.189004 -0.000000  -0.004472 0.017123 1.357249
40  0.277239 3.632249 1.274102  0.065416 -0.152210 0.927371
41  -0.000001 1.798495 0.000000  0.022849 -0.016745 1.078747
42  0.000001 1.235453 0.000000  -0.007143 0.004688 1.572574
43  -0.315441 0.857301 0.755943  -0.623037 -2.717983 1.196723
44  -0.000002 2.265940 -0.000000  -0.034963 0.056629 0.741260
45  0.000000 1.457811 -0.000000  -0.048332 -0.026494 0.468069
46  1.259681 3.818375 1.286945  0.065416 -0.152210 0.927371
47  1.226391 3.891694 0.090419  0.012445 0.020003 0.934972
48  1.231624 3.875534 -0.958681  -0.050028 0.197908 0.917566
49  1.209920 3.994781 -2.003048  -0.174603 0.396888 0.692349
50  -0.328906 0.095429 1.403532  -0.623037 -2.717983 1.196723
51  -9.555967 -6.581827 18.230465  1.570796 -0.000000 -3.141593
52  -8.428300 -13.481788 -15.000002  -1.570796 -0.000000 1.570796
53  -6.584470 -2.598536 -6.097302  -0.051945 0.000000 1.570796
end
