version 1
nodes
0 "blender_implicit" -1
1 "root" -1
2 "upperarm_l" 1
3 "lowerarm_l" 2
4 "hand_l" 3
5 "pinky_0_l" 4
6 "pinky_1_l" 5
7 "pinky_2_l" 6
8 "ring_0_l" 4
9 "ring_1_l" 8
10 "ring_2_l" 9
11 "middle_0_l" 4
12 "middle_1_l" 11
13 "middle_2_l" 12
14 "index_0_l" 4
15 "index_1_l" 14
16 "index_2_l" 15
17 "thumb_0_l" 4
18 "thumb_1_l" 17
19 "thumb_2_l" 18
20 "rig_index_l" 4
21 "rig_middle_l" 4
22 "rig_ring_l" 4
23 "rig_pinky_l" 4
24 "rig_thumb_l" 4
25 "rig_hand_l" 1
26 "rig_l" 1
27 "rig_upperarm_l" 1
28 "upperarm_r" 1
29 "lowerarm_r" 28
30 "hand_r" 29
31 "pinky_0_r" 30
32 "pinky_1_r" 31
33 "pinky_2_r" 32
34 "ring_0_r" 30
35 "ring_1_r" 34
36 "ring_2_r" 35
37 "middle_0_r" 30
38 "middle_1_r" 37
39 "middle_2_r" 38
40 "index_0_r" 30
41 "index_1_r" 40
42 "index_2_r" 41
43 "thumb_0_r" 30
44 "thumb_1_r" 43
45 "thumb_2_r" 44
46 "rig_index_r" 30
47 "rig_middle_r" 30
48 "rig_ring_r" 30
49 "rig_pinky_r" 30
50 "rig_thumb_r" 30
51 "rig_hand_r" 1
52 "rig_r" 1
53 "rig_upperarm_r" 1
end
skeleton
time 0
0  0 0 0  0 0 0
1  0.000000 0.000000 0.000000  1.570796 -0.000000 0.000000
2  6.688313 0.001464 -6.000000  -0.180017 0.981463 -3.105344
3  -0.000000 13.479280 0.000000  0.356810 0.000000 -0.000000
4  -0.000000 13.477240 -0.000000  -0.260936 -0.968770 0.196263
5  -0.267269 3.664727 -1.953293  -0.106568 -0.025893 -0.137951
6  -0.000000 1.180355 -0.000001  -0.036623 -0.007435 -0.177465
7  -0.000001 0.817138 -0.000000  0.004200 -0.011559 0.007420
8  -0.249422 3.688542 -0.940889  -0.060580 -0.013550 -0.130737
9  0.000000 1.800634 -0.000000  0.004940 0.002077 -0.208495
10  0.000001 1.243406 -0.000000  0.006524 -0.000040 -0.064626
11  -0.244726 3.701097 0.087732  0.005036 0.002373 -0.139323
12  0.000000 1.766584 0.000000  0.002490 -0.003552 -0.259702
13  -0.000000 1.189003 0.000000  -0.017590 -0.001952 -0.152464
14  -0.277239 3.632249 1.274102  0.054558 0.010184 -0.144732
15  0.000001 1.798491 -0.000000  0.036314 0.010668 -0.285912
16  -0.000001 1.235453 -0.000000  -0.005152 0.006816 -0.068190
17  0.315441 0.857301 0.755944  1.684115 0.560091 1.563926
18  0.000001 2.265939 -0.000000  -0.057905 -0.032805 -0.238898
19  -0.000001 1.457808 0.000000  -0.029609 0.046490 0.034285
20  -1.259681 3.818376 1.286945  0.054558 0.010184 -0.144732
21  -1.226390 3.891694 0.090419  0.005036 0.002373 -0.139324
22  -1.231623 3.875535 -0.958681  -0.060580 -0.013550 -0.130737
23  -1.209919 3.994782 -2.003048  -0.106568 -0.025893 -0.137951
24  0.328906 0.095429 1.403532  1.684115 0.560091 1.563926
25  7.685551 -26.508362 -6.023971  0.000000 -0.000000 -3.141593
26  20.158314 0.001465 -15.000000  -1.570796 -0.000000 -1.570796
27  6.688313 0.001464 -6.000000  -0.051945 -0.000000 -1.570796
28  -6.584470 -2.598536 -6.097302  0.986251 0.080824 2.908392
29  0.000002 13.479277 0.000001  0.799590 -0.000000 0.000000
30  0.000001 13.477239 -0.000000  -0.221035 0.244975 0.028276
31  0.267270 3.664726 -1.953293  -0.174603 0.396888 0.692349
32  -0.000002 1.180353 -0.000000  -0.024711 0.025798 1.296299
33  -0.000003 0.817136 -0.000001  0.012232 0.001270 1.111333
34  0.249423 3.688542 -0.940889  -0.050028 0.197908 0.917566
35  0.000001 1.800633 0.000001  -0.007162 -0.012483 1.774974
36  0.000000 1.243406 -0.000000  0.004183 -0.005006 0.945407
37  0.244727 3.701096 0.087732  0.012445 0.020003 0.934973
38  0.000001 1.766584 0.000000  0.006918 0.000685 1.464509
39  0.000000 1.189004 -0.000000  -0.004472 0.017123 1.357249
40  0.277239 3.632249 1.274102  0.065416 -0.152210 0.927371
41  -0.000001 1.798495 0.000000  0.022849 -0.016745 1.078747
42  0.000001 1.235453 0.000000  -0.007143 0.004688 1.572574
43  -0.315441 0.857301 0.755943  -0.623037 -2.717983 1.196723
44  -0.000002 2.265940 -0.000000  -0.034963 0.056629 0.741260
45  0.000000 1.457811 -0.000000  -0.048332 -0.026494 0.468069
46  1.259681 3.818375 1.286945  0.065416 -0.152210 0.927371
47  1.226391 3.891694 0.090419  0.012445 0.020003 0.934972
48  1.231624 3.875534 -0.958681  -0.050028 0.197908 0.917566
49  1.209920 3.994781 -2.003048  -0.174603 0.396888 0.692349
50  -0.328906 0.095429 1.403532  -0.623037 -2.717983 1.196723
51  -9.555967 -6.581827 18.230465  1.570796 -0.000000 -3.141593
52  -8.428300 -13.481788 -15.000002  -1.570796 -0.000000 1.570796
53  -6.584470 -2.598536 -6.097302  -0.051945 0.000000 1.570796
time 1
0  0 0 0  0 0 0
1  0.000000 0.000000 0.000000  1.570796 -0.000000 0.000000
2  6.688313 0.001464 -6.000000  -0.180017 0.981463 -3.105344
3  -0.000000 13.479280 0.000000  0.356810 0.000000 -0.000000
4  -0.000000 13.477240 -0.000000  -0.260936 -0.968770 0.196263
5  -0.267269 3.664727 -1.953293  -0.106568 -0.025893 -0.137951
6  -0.000000 1.180355 -0.000001  -0.036623 -0.007435 -0.177465
7  -0.000001 0.817138 -0.000000  0.004200 -0.011559 0.007420
8  -0.249422 3.688542 -0.940889  -0.060580 -0.013550 -0.130737
9  0.000000 1.800634 -0.000000  0.004940 0.002077 -0.208495
10  0.000001 1.243406 -0.000000  0.006524 -0.000040 -0.064626
11  -0.244726 3.701097 0.087732  0.005036 0.002373 -0.139323
12  0.000000 1.766584 0.000000  0.002490 -0.003552 -0.259702
13  -0.000000 1.189003 0.000000  -0.017590 -0.001952 -0.152464
14  -0.277239 3.632249 1.274102  0.054558 0.010184 -0.144732
15  0.000001 1.798491 -0.000000  0.036314 0.010668 -0.285912
16  -0.000001 1.235453 -0.000000  -0.005152 0.006816 -0.068190
17  0.315441 0.857301 0.755944  1.684115 0.560091 1.563926
18  0.000001 2.265939 -0.000000  -0.057905 -0.032805 -0.238898
19  -0.000001 1.457808 0.000000  -0.029609 0.046490 0.034285
20  -1.259681 3.818376 1.286945  0.054558 0.010184 -0.144732
21  -1.226390 3.891694 0.090419  0.005036 0.002373 -0.139324
22  -1.231623 3.875535 -0.958681  -0.060580 -0.013550 -0.130737
23  -1.209919 3.994782 -2.003048  -0.106568 -0.025893 -0.137951
24  0.328906 0.095429 1.403532  1.684115 0.560091 1.563926
25  7.685551 -26.508362 -6.023971  0.000000 -0.000000 -3.141593
26  20.158314 0.001465 -15.000000  -1.570796 -0.000000 -1.570796
27  6.688313 0.001464 -6.000000  -0.051945 -0.000000 -1.570796
28  -6.584470 -2.882328 -5.688027  0.527860 0.248432 2.747995
29  -0.000000 13.479275 -0.000000  1.509750 -0.000000 0.000000
30  0.000000 13.477240 -0.000000  -0.171465 -0.046133 0.206955
31  0.267269 3.664726 -1.953292  -0.174603 0.396888 0.692349
32  -0.000004 1.180355 0.000001  -0.024711 0.025798 1.296299
33  0.000001 0.817136 0.000000  0.012232 0.001270 1.111333
34  0.249424 3.688540 -0.940889  -0.050028 0.197908 0.917566
35  -0.000001 1.800634 0.000001  -0.007162 -0.012483 1.774974
36  -0.000001 1.243406 0.000001  0.004183 -0.005006 0.945407
37  0.244726 3.701094 0.087733  0.012445 0.020003 0.934973
38  0.000000 1.766585 0.000000  0.006918 0.000685 1.464509
39  0.000000 1.189004 0.000000  -0.004472 0.017123 1.357249
40  0.277239 3.632248 1.274102  0.065416 -0.152210 0.927372
41  -0.000000 1.798494 -0.000000  0.022849 -0.016745 1.078747
42  0.000000 1.235452 0.000000  -0.007143 0.004688 1.572574
43  -0.315441 0.857300 0.755944  -0.623037 -2.717983 1.196723
44  0.000002 2.265940 -0.000001  -0.034963 0.056629 0.741260
45  -0.000000 1.457811 0.000000  -0.048332 -0.026494 0.468069
46  1.259682 3.818374 1.286946  0.065416 -0.152210 0.927371
47  1.226391 3.891693 0.090419  0.012445 0.020003 0.934972
48  1.231623 3.875533 -0.958681  -0.050028 0.197908 0.917566
49  1.209919 3.994781 -2.003048  -0.174603 0.396887 0.692349
50  -0.328906 0.095427 1.403532  -0.623037 -2.717983 1.196723
51  -12.998377 -6.259978 12.556369  1.848658 0.082920 2.613572
52  -8.428300 -13.481788 -15.000002  -1.570796 -0.000000 1.570796
53  -6.584470 -2.882328 -5.688027  -0.051945 0.000000 1.570796
time 2
0  0 0 0  0 0 0
1  0.000000 0.000000 0.000000  1.570796 -0.000000 0.000000
2  6.688313 0.001464 -6.000000  -0.180017 0.981463 -3.105344
3  -0.000000 13.479280 0.000000  0.356810 0.000000 -0.000000
4  -0.000000 13.477240 -0.000000  -0.260936 -0.968770 0.196263
5  -0.267269 3.664727 -1.953293  -0.106568 -0.025893 -0.137951
6  -0.000000 1.180355 -0.000001  -0.036623 -0.007435 -0.177465
7  -0.000001 0.817138 -0.000000  0.004200 -0.011559 0.007420
8  -0.249422 3.688542 -0.940889  -0.060580 -0.013550 -0.130737
9  0.000000 1.800634 -0.000000  0.004940 0.002077 -0.208495
10  0.000001 1.243406 -0.000000  0.006524 -0.000040 -0.064626
11  -0.244726 3.701097 0.087732  0.005036 0.002373 -0.139323
12  0.000000 1.766584 0.000000  0.002490 -0.003552 -0.259702
13  -0.000000 1.189003 0.000000  -0.017590 -0.001952 -0.152464
14  -0.277239 3.632249 1.274102  0.054558 0.010184 -0.144732
15  0.000001 1.798491 -0.000000  0.036314 0.010668 -0.285912
16  -0.000001 1.235453 -0.000000  -0.005152 0.006816 -0.068190
17  0.315441 0.857301 0.755944  1.684115 0.560091 1.563926
18  0.000001 2.265939 -0.000000  -0.057905 -0.032805 -0.238898
19  -0.000001 1.457808 0.000000  -0.029609 0.046490 0.034285
20  -1.259681 3.818376 1.286945  0.054558 0.010184 -0.144732
21  -1.226390 3.891694 0.090419  0.005036 0.002373 -0.139324
22  -1.231623 3.875535 -0.958681  -0.060580 -0.013550 -0.130737
23  -1.209919 3.994782 -2.003048  -0.106568 -0.025893 -0.137951
24  0.328906 0.095429 1.403532  1.684115 0.560091 1.563926
25  7.685551 -26.508362 -6.023971  0.000000 -0.000000 -3.141593
26  20.158314 0.001465 -15.000000  -1.570796 -0.000000 -1.570796
27  6.688313 0.001464 -6.000000  -0.051945 -0.000000 -1.570796
28  -6.584470 -3.630507 -4.609030  0.107492 0.447811 2.435246
29  -0.000001 13.479279 0.000000  1.863314 -0.000000 0.000000
30  -0.000000 13.477240 -0.000000  0.189647 0.527438 0.260585
31  0.267270 3.664726 -1.953293  -0.174603 0.396887 0.692349
32  -0.000001 1.180357 0.000000  -0.024711 0.025798 1.296299
33  0.000000 0.817134 -0.000001  0.012232 0.001270 1.111333
34  0.249424 3.688541 -0.940889  -0.050028 0.197908 0.917566
35  0.000001 1.800633 0.000000  -0.007162 -0.012483 1.774974
36  -0.000001 1.243406 -0.000001  0.004183 -0.005006 0.945407
37  0.244727 3.701096 0.087732  0.012445 0.020003 0.934972
38  0.000001 1.766584 -0.000000  0.006918 0.000685 1.464509
39  -0.000001 1.189004 0.000001  -0.004472 0.017123 1.357249
40  0.277238 3.632248 1.274102  0.065416 -0.152210 0.927371
41  -0.000000 1.798494 0.000001  0.022849 -0.016745 1.078747
42  -0.000000 1.235451 -0.000000  -0.007143 0.004688 1.572574
43  -0.315442 0.857300 0.755944  -0.623037 -2.717983 1.196723
44  -0.000001 2.265939 -0.000000  -0.034963 0.056629 0.741260
45  0.000001 1.457811 -0.000000  -0.048332 -0.026494 0.468069
46  1.259681 3.818375 1.286945  0.065416 -0.152210 0.927371
47  1.226389 3.891694 0.090419  0.012445 0.020003 0.934972
48  1.231623 3.875535 -0.958681  -0.050028 0.197908 0.917566
49  1.209920 3.994782 -2.003049  -0.174603 0.396887 0.692349
50  -0.328905 0.095429 1.403533  -0.623037 -2.717983 1.196723
51  -16.440786 -5.938129 7.882275  -0.962819 -3.141593 -0.319911
52  -8.428300 -13.481788 -15.000002  -1.570796 -0.000000 1.570796
53  -6.584470 -3.630507 -4.609030  -0.051945 0.000000 1.570796
time 3
0  0 0 0  0 0 0
1  0.000000 0.000000 0.000000  1.570796 -0.000000 0.000000
2  6.688313 0.001464 -6.000000  -0.180017 0.981463 -3.105344
3  -0.000000 13.479280 0.000000  0.356810 0.000000 -0.000000
4  -0.000000 13.477240 -0.000000  -0.260936 -0.968770 0.196263
5  -0.267269 3.664727 -1.953293  -0.106568 -0.025893 -0.137951
6  -0.000000 1.180355 -0.000001  -0.036623 -0.007435 -0.177465
7  -0.000001 0.817138 -0.000000  0.004200 -0.011559 0.007420
8  -0.249422 3.688542 -0.940889  -0.060580 -0.013550 -0.130737
9  0.000000 1.800634 -0.000000  0.004940 0.002077 -0.208495
10  0.000001 1.243406 -0.000000  0.006524 -0.000040 -0.064626
11  -0.244726 3.701097 0.087732  0.005036 0.002373 -0.139323
12  0.000000 1.766584 0.000000  0.002490 -0.003552 -0.259702
13  -0.000000 1.189003 0.000000  -0.017590 -0.001952 -0.152464
14  -0.277239 3.632249 1.274102  0.054558 0.010184 -0.144732
15  0.000001 1.798491 -0.000000  0.036314 0.010668 -0.285912
16  -0.000001 1.235453 -0.000000  -0.005152 0.006816 -0.068190
17  0.315441 0.857301 0.755944  1.684115 0.560091 1.563926
18  0.000001 2.265939 -0.000000  -0.057905 -0.032805 -0.238898
19  -0.000001 1.457808 0.000000  -0.029609 0.046490 0.034285
20  -1.259681 3.818376 1.286945  0.054558 0.010184 -0.144732
21  -1.226390 3.891694 0.090419  0.005036 0.002373 -0.139324
22  -1.231623 3.875535 -0.958681  -0.060580 -0.013550 -0.130737
23  -1.209919 3.994782 -2.003048  -0.106568 -0.025893 -0.137951
24  0.328906 0.095429 1.403532  1.684115 0.560091 1.563926
25  7.685551 -26.508362 -6.023971  0.000000 -0.000000 -3.141593
26  20.158314 0.001465 -15.000000  -1.570796 -0.000000 -1.570796
27  6.688313 0.001464 -6.000000  -0.051945 -0.000000 -1.570796
28  -6.584470 -4.688277 -3.083550  0.164345 0.390940 2.356560
29  -0.000001 13.479277 0.000000  1.860668 -0.000000 0.000000
30  -0.000000 13.477241 -0.000001  0.741471 0.952999 0.315575
31  0.267269 3.664726 -1.953293  -0.174603 0.396888 0.692349
32  0.000002 1.180355 0.000000  -0.024711 0.025798 1.296299
33  0.000000 0.817136 -0.000001  0.012232 0.001270 1.111333
34  0.249422 3.688541 -0.940889  -0.050028 0.197908 0.917566
35  -0.000000 1.800635 -0.000001  -0.007162 -0.012483 1.774974
36  -0.000000 1.243407 0.000000  0.004183 -0.005006 0.945407
37  0.244726 3.701095 0.087732  0.012445 0.020003 0.934972
38  -0.000000 1.766585 0.000001  0.006918 0.000685 1.464509
39  0.000001 1.189004 0.000001  -0.004472 0.017123 1.357249
40  0.277238 3.632247 1.274102  0.065416 -0.152210 0.927371
41  -0.000000 1.798494 0.000001  0.022849 -0.016745 1.078746
42  -0.000000 1.235452 0.000001  -0.007143 0.004688 1.572574
43  -0.315442 0.857300 0.755944  -0.623037 -2.717983 1.196723
44  -0.000000 2.265941 0.000000  -0.034963 0.056629 0.741260
45  -0.000000 1.457811 0.000001  -0.048332 -0.026494 0.468068
46  1.259681 3.818375 1.286945  0.065416 -0.152210 0.927372
47  1.226389 3.891693 0.090418  0.012445 0.020003 0.934972
48  1.231623 3.875533 -0.958680  -0.050028 0.197908 0.917566
49  1.209918 3.994781 -2.003047  -0.174603 0.396888 0.692349
50  -0.328907 0.095429 1.403532  -0.623037 -2.717983 1.196723
51  -15.662394 -6.056068 10.150762  -0.490447 -2.867986 -0.038799
52  -8.428300 -13.481788 -15.000002  -1.570796 -0.000000 1.570796
53  -6.584470 -4.688277 -3.083550  -0.051945 0.000000 1.570796
time 4
0  0 0 0  0 0 0
1  0.000000 0.000000 0.000000  1.570796 -0.000000 0.000000
2  6.688313 0.001464 -6.000000  -0.180017 0.981463 -3.105344
3  -0.000000 13.479280 0.000000  0.356810 0.000000 -0.000000
4  -0.000000 13.477240 -0.000000  -0.260936 -0.968770 0.196263
5  -0.267269 3.664727 -1.953293  -0.106568 -0.025893 -0.137951
6  -0.000000 1.180355 -0.000001  -0.036623 -0.007435 -0.177465
7  -0.000001 0.817138 -0.000000  0.004200 -0.011559 0.007420
8  -0.249422 3.688542 -0.940889  -0.060580 -0.013550 -0.130737
9  0.000000 1.800634 -0.000000  0.004940 0.002077 -0.208495
10  0.000001 1.243406 -0.000000  0.006524 -0.000040 -0.064626
11  -0.244726 3.701097 0.087732  0.005036 0.002373 -0.139323
12  0.000000 1.766584 0.000000  0.002490 -0.003552 -0.259702
13  -0.000000 1.189003 0.000000  -0.017590 -0.001952 -0.152464
14  -0.277239 3.632249 1.274102  0.054558 0.010184 -0.144732
15  0.000001 1.798491 -0.000000  0.036314 0.010668 -0.285912
16  -0.000001 1.235453 -0.000000  -0.005152 0.006816 -0.068190
17  0.315441 0.857301 0.755944  1.684115 0.560091 1.563926
18  0.000001 2.265939 -0.000000  -0.057905 -0.032805 -0.238898
19  -0.000001 1.457808 0.000000  -0.029609 0.046490 0.034285
20  -1.259681 3.818376 1.286945  0.054558 0.010184 -0.144732
21  -1.226390 3.891694 0.090419  0.005036 0.002373 -0.139324
22  -1.231623 3.875535 -0.958681  -0.060580 -0.013550 -0.130737
23  -1.209919 3.994782 -2.003048  -0.106568 -0.025893 -0.137951
24  0.328906 0.095429 1.403532  1.684115 0.560091 1.563926
25  7.685551 -26.508362 -6.023971  0.000000 -0.000000 -3.141593
26  20.158314 0.001465 -15.000000  -1.570796 -0.000000 -1.570796
27  6.688313 0.001464 -6.000000  -0.051945 -0.000000 -1.570796
28  -6.584470 -5.900842 -1.334831  0.503417 0.125001 2.681103
29  0.000000 13.479277 -0.000000  1.874451 -0.000000 0.000000
30  0.000000 13.477240 -0.000002  -0.655719 1.004099 -1.008178
31  0.267269 3.664727 -1.953292  -0.174603 0.396888 0.692349
32  -0.000002 1.180354 0.000000  -0.024711 0.025798 1.296300
33  -0.000001 0.817137 -0.000001  0.012232 0.001270 1.111333
34  0.249422 3.688542 -0.940888  -0.050028 0.197908 0.917566
35  -0.000000 1.800634 0.000000  -0.007162 -0.012483 1.774974
36  0.000000 1.243408 0.000000  0.004183 -0.005006 0.945407
37  0.244726 3.701097 0.087732  0.012445 0.020003 0.934973
38  -0.000001 1.766585 -0.000001  0.006918 0.000685 1.464509
39  -0.000000 1.189005 0.000000  -0.004472 0.017123 1.357249
40  0.277239 3.632249 1.274103  0.065416 -0.152210 0.927372
41  -0.000003 1.798495 0.000001  0.022849 -0.016745 1.078747
42  -0.000000 1.235451 0.000000  -0.007143 0.004688 1.572574
43  -0.315442 0.857300 0.755944  -0.623037 -2.717983 1.196723
44  -0.000001 2.265940 -0.000001  -0.034963 0.056629 0.741260
45  -0.000001 1.457811 -0.000000  -0.048332 -0.026494 0.468069
46  1.259681 3.818376 1.286945  0.065416 -0.152210 0.927371
47  1.226390 3.891694 0.090420  0.012445 0.020002 0.934972
48  1.231623 3.875535 -0.958680  -0.050028 0.197908 0.917566
49  1.209918 3.994783 -2.003047  -0.174603 0.396888 0.692349
50  -0.328907 0.095429 1.403533  -0.623037 -2.717983 1.196723
51  -9.272982 -6.881646 14.363668  -0.928751 -2.881375 0.771756
52  -8.428300 -13.481788 -15.000002  -1.570796 -0.000000 1.570796
53  -6.584470 -5.900842 -1.334831  -0.051945 0.000000 1.570796
time 5
0  0 0 0  0 0 0
1  0.000000 0.000000 0.000000  1.570796 -0.000000 0.000000
2  6.688313 0.001464 -6.000000  -0.180017 0.981463 -3.105344
3  -0.000000 13.479280 0.000000  0.356810 0.000000 -0.000000
4  -0.000000 13.477240 -0.000000  -0.260936 -0.968770 0.196263
5  -0.267269 3.664727 -1.953293  -0.106568 -0.025893 -0.137951
6  -0.000000 1.180355 -0.000001  -0.036623 -0.007435 -0.177465
7  -0.000001 0.817138 -0.000000  0.004200 -0.011559 0.007420
8  -0.249422 3.688542 -0.940889  -0.060580 -0.013550 -0.130737
9  0.000000 1.800634 -0.000000  0.004940 0.002077 -0.208495
10  0.000001 1.243406 -0.000000  0.006524 -0.000040 -0.064626
11  -0.244726 3.701097 0.087732  0.005036 0.002373 -0.139323
12  0.000000 1.766584 0.000000  0.002490 -0.003552 -0.259702
13  -0.000000 1.189003 0.000000  -0.017590 -0.001952 -0.152464
14  -0.277239 3.632249 1.274102  0.054558 0.010184 -0.144732
15  0.000001 1.798491 -0.000000  0.036314 0.010668 -0.285912
16  -0.000001 1.235453 -0.000000  -0.005152 0.006816 -0.068190
17  0.315441 0.857301 0.755944  1.684115 0.560091 1.563926
18  0.000001 2.265939 -0.000000  -0.057905 -0.032805 -0.238898
19  -0.000001 1.457808 0.000000  -0.029609 0.046490 0.034285
20  -1.259681 3.818376 1.286945  0.054558 0.010184 -0.144732
21  -1.226390 3.891694 0.090419  0.005036 0.002373 -0.139324
22  -1.231623 3.875535 -0.958681  -0.060580 -0.013550 -0.130737
23  -1.209919 3.994782 -2.003048  -0.106568 -0.025893 -0.137951
24  0.328906 0.095429 1.403532  1.684115 0.560091 1.563926
25  7.685551 -26.508362 -6.023971  0.000000 -0.000000 -3.141593
26  20.158314 0.001465 -15.000000  -1.570796 -0.000000 -1.570796
27  6.688313 0.001464 -6.000000  -0.051945 -0.000000 -1.570796
28  -6.584470 -7.113409 0.413890  0.421854 -0.300358 -2.619490
29  -0.000001 13.479274 0.000001  1.702881 -0.000000 0.000000
30  0.000002 13.477239 -0.000001  -0.719341 0.624430 -0.483600
31  0.267270 3.664726 -1.953293  -0.174603 0.396888 0.692349
32  -0.000001 1.180357 -0.000000  -0.024711 0.025798 1.296299
33  0.000001 0.817135 0.000001  0.012232 0.001270 1.111333
34  0.249422 3.688541 -0.940889  -0.050028 0.197908 0.917566
35  0.000001 1.800634 -0.000001  -0.007162 -0.012483 1.774974
36  0.000000 1.243405 0.000001  0.004183 -0.005006 0.945407
37  0.244726 3.701095 0.087733  0.012445 0.020003 0.934973
38  -0.000002 1.766585 0.000001  0.006918 0.000685 1.464509
39  -0.000001 1.189005 -0.000000  -0.004472 0.017123 1.357249
40  0.277239 3.632247 1.274102  0.065416 -0.152210 0.927372
41  -0.000003 1.798494 0.000000  0.022849 -0.016745 1.078747
42  0.000001 1.235451 -0.000001  -0.007143 0.004688 1.572574
43  -0.315440 0.857301 0.755944  -0.623037 -2.717983 1.196723
44  -0.000001 2.265939 0.000000  -0.034963 0.056629 0.741260
45  -0.000001 1.457812 -0.000002  -0.048332 -0.026494 0.468068
46  1.259681 3.818374 1.286946  0.065416 -0.152210 0.927371
47  1.226391 3.891693 0.090419  0.012445 0.020003 0.934972
48  1.231623 3.875534 -0.958680  -0.050028 0.197908 0.917566
49  1.209920 3.994782 -2.003048  -0.174603 0.396888 0.692349
50  -0.328906 0.095429 1.403533  -0.623037 -2.717983 1.196723
51  0.366833 -9.122500 16.632154  1.357994 -0.201181 -1.830042
52  -8.428300 -13.481788 -15.000002  -1.570796 -0.000000 1.570796
53  -6.584470 -7.113409 0.413890  -0.051945 0.000000 1.570796
time 6
0  0 0 0  0 0 0
1  0.000000 0.000000 0.000000  1.570796 -0.000000 0.000000
2  6.688313 0.001464 -6.000000  -0.180017 0.981463 -3.105344
3  -0.000000 13.479280 0.000000  0.356810 0.000000 -0.000000
4  -0.000000 13.477240 -0.000000  -0.260936 -0.968770 0.196263
5  -0.267269 3.664727 -1.953293  -0.106568 -0.025893 -0.137951
6  -0.000000 1.180355 -0.000001  -0.036623 -0.007435 -0.177465
7  -0.000001 0.817138 -0.000000  0.004200 -0.011559 0.007420
8  -0.249422 3.688542 -0.940889  -0.060580 -0.013550 -0.130737
9  0.000000 1.800634 -0.000000  0.004940 0.002077 -0.208495
10  0.000001 1.243406 -0.000000  0.006524 -0.000040 -0.064626
11  -0.244726 3.701097 0.087732  0.005036 0.002373 -0.139323
12  0.000000 1.766584 0.000000  0.002490 -0.003552 -0.259702
13  -0.000000 1.189003 0.000000  -0.017590 -0.001952 -0.152464
14  -0.277239 3.632249 1.274102  0.054558 0.010184 -0.144732
15  0.000001 1.798491 -0.000000  0.036314 0.010668 -0.285912
16  -0.000001 1.235453 -0.000000  -0.005152 0.006816 -0.068190
17  0.315441 0.857301 0.755944  1.684115 0.560091 1.563926
18  0.000001 2.265939 -0.000000  -0.057905 -0.032805 -0.238898
19  -0.000001 1.457808 0.000000  -0.029609 0.046490 0.034285
20  -1.259681 3.818376 1.286945  0.054558 0.010184 -0.144732
21  -1.226390 3.891694 0.090419  0.005036 0.002373 -0.139324
22  -1.231623 3.875535 -0.958681  -0.060580 -0.013550 -0.130737
23  -1.209919 3.994782 -2.003048  -0.106568 -0.025893 -0.137951
24  0.328906 0.095429 1.403532  1.684115 0.560091 1.563926
25  7.685551 -26.508362 -6.023971  0.000000 -0.000000 -3.141593
26  20.158314 0.001465 -15.000000  -1.570796 -0.000000 -1.570796
27  6.688313 0.001464 -6.000000  -0.051945 -0.000000 -1.570796
28  -6.584470 -8.171179 1.939369  0.130248 -0.300374 -2.272133
29  -0.000000 13.479276 0.000000  1.364688 -0.000000 0.000000
30  0.000002 13.477239 0.000001  -0.816405 0.345563 -0.184851
31  0.267271 3.664727 -1.953294  -0.174603 0.396888 0.692349
32  0.000000 1.180353 0.000002  -0.024711 0.025798 1.296299
33  -0.000000 0.817134 0.000002  0.012232 0.001270 1.111333
34  0.249423 3.688543 -0.940887  -0.050028 0.197907 0.917566
35  0.000002 1.800634 0.000000  -0.007162 -0.012483 1.774974
36  -0.000000 1.243410 -0.000001  0.004183 -0.005006 0.945407
37  0.244727 3.701097 0.087733  0.012445 0.020003 0.934972
38  0.000000 1.766585 0.000000  0.006918 0.000685 1.464509
39  0.000001 1.189000 -0.000002  -0.004472 0.017123 1.357249
40  0.277238 3.632249 1.274102  0.065416 -0.152210 0.927372
41  -0.000002 1.798494 0.000000  0.022849 -0.016745 1.078747
42  -0.000000 1.235451 -0.000001  -0.007143 0.004688 1.572574
43  -0.315441 0.857300 0.755944  -0.623037 -2.717983 1.196723
44  -0.000000 2.265940 -0.000001  -0.034963 0.056629 0.741260
45  -0.000000 1.457811 0.000000  -0.048332 -0.026494 0.468068
46  1.259682 3.818377 1.286945  0.065416 -0.152210 0.927371
47  1.226390 3.891694 0.090419  0.012445 0.020003 0.934972
48  1.231624 3.875536 -0.958681  -0.050028 0.197908 0.917566
49  1.209920 3.994784 -2.003048  -0.174603 0.396888 0.692349
50  -0.328906 0.095429 1.403533  -0.623037 -2.717983 1.196723
51  7.305721 -14.020327 16.447578  0.646468 -0.084507 -1.940266
52  -8.428300 -13.481788 -15.000002  -1.570796 -0.000000 1.570796
53  -6.584470 -8.171179 1.939369  -0.051945 0.000000 1.570796
time 7
0  0 0 0  0 0 0
1  0.000000 0.000000 0.000000  1.570796 -0.000000 0.000000
2  6.688313 0.001464 -6.000000  -0.180017 0.981463 -3.105344
3  -0.000000 13.479280 0.000000  0.356810 0.000000 -0.000000
4  -0.000000 13.477240 -0.000000  -0.260936 -0.968770 0.196263
5  -0.267269 3.664727 -1.953293  -0.106568 -0.025893 -0.137951
6  -0.000000 1.180355 -0.000001  -0.036623 -0.007435 -0.177465
7  -0.000001 0.817138 -0.000000  0.004200 -0.011559 0.007420
8  -0.249422 3.688542 -0.940889  -0.060580 -0.013550 -0.130737
9  0.000000 1.800634 -0.000000  0.004940 0.002077 -0.208495
10  0.000001 1.243406 -0.000000  0.006524 -0.000040 -0.064626
11  -0.244726 3.701097 0.087732  0.005036 0.002373 -0.139323
12  0.000000 1.766584 0.000000  0.002490 -0.003552 -0.259702
13  -0.000000 1.189003 0.000000  -0.017590 -0.001952 -0.152464
14  -0.277239 3.632249 1.274102  0.054558 0.010184 -0.144732
15  0.000001 1.798491 -0.000000  0.036314 0.010668 -0.285912
16  -0.000001 1.235453 -0.000000  -0.005152 0.006816 -0.068190
17  0.315441 0.857301 0.755944  1.684115 0.560091 1.563926
18  0.000001 2.265939 -0.000000  -0.057905 -0.032805 -0.238898
19  -0.000001 1.457808 0.000000  -0.029609 0.046490 0.034285
20  -1.259681 3.818376 1.286945  0.054558 0.010184 -0.144732
21  -1.226390 3.891694 0.090419  0.005036 0.002373 -0.139324
22  -1.231623 3.875535 -0.958681  -0.060580 -0.013550 -0.130737
23  -1.209919 3.994782 -2.003048  -0.106568 -0.025893 -0.137951
24  0.328906 0.095429 1.403532  1.684115 0.560091 1.563926
25  7.685551 -26.508362 -6.023971  0.000000 -0.000000 -3.141593
26  20.158314 0.001465 -15.000000  -1.570796 -0.000000 -1.570796
27  6.688313 0.001464 -6.000000  -0.051945 -0.000000 -1.570796
28  -6.584470 -8.919357 3.018366  0.134105 -0.252577 -2.288021
29  0.000000 13.479277 -0.000000  0.891879 -0.000000 0.000000
30  0.000000 13.477238 0.000000  -0.917147 0.271601 -0.175083
31  0.267270 3.664727 -1.953292  -0.174603 0.396887 0.692349
32  -0.000000 1.180356 -0.000000  -0.024711 0.025798 1.296299
33  0.000001 0.817134 0.000000  0.012232 0.001270 1.111333
34  0.249424 3.688543 -0.940888  -0.050028 0.197908 0.917566
35  0.000001 1.800632 -0.000001  -0.007162 -0.012483 1.774974
36  0.000001 1.243407 -0.000001  0.004183 -0.005006 0.945407
37  0.244728 3.701096 0.087732  0.012445 0.020003 0.934972
38  -0.000001 1.766586 0.000001  0.006918 0.000685 1.464509
39  -0.000000 1.189004 -0.000001  -0.004472 0.017123 1.357249
40  0.277241 3.632249 1.274103  0.065416 -0.152210 0.927371
41  0.000000 1.798494 0.000000  0.022849 -0.016745 1.078747
42  -0.000001 1.235453 0.000001  -0.007143 0.004688 1.572574
43  -0.315441 0.857300 0.755944  -0.623037 -2.717983 1.196723
44  -0.000001 2.265937 -0.000001  -0.034963 0.056629 0.741260
45  0.000000 1.457814 -0.000000  -0.048332 -0.026494 0.468069
46  1.259682 3.818376 1.286947  0.065416 -0.152210 0.927372
47  1.226391 3.891694 0.090419  0.012445 0.020003 0.934972
48  1.231623 3.875534 -0.958681  -0.050028 0.197908 0.917566
49  1.209918 3.994783 -2.003047  -0.174603 0.396888 0.692349
50  -0.328905 0.095429 1.403534  -0.623037 -2.717983 1.196723
51  10.935490 -19.780279 15.923409  0.117210 0.036530 -2.144969
52  -8.428300 -13.481788 -15.000002  -1.570796 -0.000000 1.570796
53  -6.584470 -8.919357 3.018366  -0.051945 0.000000 1.570796
time 8
0  0 0 0  0 0 0
1  0.000000 0.000000 0.000000  1.570796 -0.000000 0.000000
2  6.688313 0.001464 -6.000000  -0.180017 0.981463 -3.105344
3  -0.000000 13.479280 0.000000  0.356810 0.000000 -0.000000
4  -0.000000 13.477240 -0.000000  -0.260936 -0.968770 0.196263
5  -0.267269 3.664727 -1.953293  -0.106568 -0.025893 -0.137951
6  -0.000000 1.180355 -0.000001  -0.036623 -0.007435 -0.177465
7  -0.000001 0.817138 -0.000000  0.004200 -0.011559 0.007420
8  -0.249422 3.688542 -0.940889  -0.060580 -0.013550 -0.130737
9  0.000000 1.800634 -0.000000  0.004940 0.002077 -0.208495
10  0.000001 1.243406 -0.000000  0.006524 -0.000040 -0.064626
11  -0.244726 3.701097 0.087732  0.005036 0.002373 -0.139323
12  0.000000 1.766584 0.000000  0.002490 -0.003552 -0.259702
13  -0.000000 1.189003 0.000000  -0.017590 -0.001952 -0.152464
14  -0.277239 3.632249 1.274102  0.054558 0.010184 -0.144732
15  0.000001 1.798491 -0.000000  0.036314 0.010668 -0.285912
16  -0.000001 1.235453 -0.000000  -0.005152 0.006816 -0.068190
17  0.315441 0.857301 0.755944  1.684115 0.560091 1.563926
18  0.000001 2.265939 -0.000000  -0.057905 -0.032805 -0.238898
19  -0.000001 1.457808 0.000000  -0.029609 0.046490 0.034285
20  -1.259681 3.818376 1.286945  0.054558 0.010184 -0.144732
21  -1.226390 3.891694 0.090419  0.005036 0.002373 -0.139324
22  -1.231623 3.875535 -0.958681  -0.060580 -0.013550 -0.130737
23  -1.209919 3.994782 -2.003048  -0.106568 -0.025893 -0.137951
24  0.328906 0.095429 1.403532  1.684115 0.560091 1.563926
25  7.685551 -26.508362 -6.023971  0.000000 -0.000000 -3.141593
26  20.158314 0.001465 -15.000000  -1.570796 -0.000000 -1.570796
27  6.688313 0.001464 -6.000000  -0.051945 -0.000000 -1.570796
28  -6.584470 -9.203150 3.427641  0.177367 -0.234101 -2.316268
29  0.000001 13.479279 -0.000000  0.618153 -0.000000 0.000000
30  0.000000 13.477240 0.000000  -1.138776 0.270851 -0.194457
31  0.267270 3.664730 -1.953295  -0.174603 0.396888 0.692349
32  -0.000000 1.180356 -0.000003  -0.024711 0.025798 1.296299
33  -0.000000 0.817136 -0.000001  0.012232 0.001270 1.111333
34  0.249422 3.688544 -0.940891  -0.050028 0.197908 0.917566
35  0.000001 1.800632 0.000000  -0.007161 -0.012483 1.774974
36  -0.000000 1.243406 -0.000000  0.004183 -0.005006 0.945407
37  0.244724 3.701098 0.087730  0.012445 0.020003 0.934972
38  0.000000 1.766584 0.000004  0.006918 0.000685 1.464509
39  0.000001 1.189006 0.000000  -0.004472 0.017123 1.357249
40  0.277238 3.632251 1.274100  0.065416 -0.152210 0.927371
41  0.000001 1.798495 0.000000  0.022849 -0.016745 1.078747
42  0.000000 1.235451 -0.000001  -0.007143 0.004688 1.572574
43  -0.315443 0.857302 0.755940  -0.623037 -2.717983 1.196723
44  -0.000001 2.265939 -0.000000  -0.034963 0.056629 0.741260
45  -0.000000 1.457814 0.000001  -0.048332 -0.026493 0.468069
46  1.259680 3.818376 1.286943  0.065416 -0.152210 0.927372
47  1.226391 3.891695 0.090416  0.012445 0.020003 0.934972
48  1.231622 3.875536 -0.958683  -0.050028 0.197908 0.917566
49  1.209919 3.994784 -2.003050  -0.174603 0.396887 0.692349
50  -0.328905 0.095430 1.403530  -0.623037 -2.717983 1.196723
51  11.983727 -22.555191 15.104006  -0.321062 0.092340 -2.255194
52  -8.428300 -13.481788 -15.000002  -1.570796 -0.000000 1.570796
53  -6.584470 -9.203150 3.427641  -0.051945 0.000000 1.570796
time 9
0  0 0 0  0 0 0
1  0.000000 0.000000 0.000000  1.570796 -0.000000 0.000000
2  6.688313 0.001464 -6.000000  -0.180017 0.981463 -3.105344
3  -0.000000 13.479280 0.000000  0.356810 0.000000 -0.000000
4  -0.000000 13.477240 -0.000000  -0.260936 -0.968770 0.196263
5  -0.267269 3.664727 -1.953293  -0.106568 -0.025893 -0.137951
6  -0.000000 1.180355 -0.000001  -0.036623 -0.007435 -0.177465
7  -0.000001 0.817138 -0.000000  0.004200 -0.011559 0.007420
8  -0.249422 3.688542 -0.940889  -0.060580 -0.013550 -0.130737
9  0.000000 1.800634 -0.000000  0.004940 0.002077 -0.208495
10  0.000001 1.243406 -0.000000  0.006524 -0.000040 -0.064626
11  -0.244726 3.701097 0.087732  0.005036 0.002373 -0.139323
12  0.000000 1.766584 0.000000  0.002490 -0.003552 -0.259702
13  -0.000000 1.189003 0.000000  -0.017590 -0.001952 -0.152464
14  -0.277239 3.632249 1.274102  0.054558 0.010184 -0.144732
15  0.000001 1.798491 -0.000000  0.036314 0.010668 -0.285912
16  -0.000001 1.235453 -0.000000  -0.005152 0.006816 -0.068190
17  0.315441 0.857301 0.755944  1.684115 0.560091 1.563926
18  0.000001 2.265939 -0.000000  -0.057905 -0.032805 -0.238898
19  -0.000001 1.457808 0.000000  -0.029609 0.046490 0.034285
20  -1.259681 3.818376 1.286945  0.054558 0.010184 -0.144732
21  -1.226390 3.891694 0.090419  0.005036 0.002373 -0.139324
22  -1.231623 3.875535 -0.958681  -0.060580 -0.013550 -0.130737
23  -1.209919 3.994782 -2.003048  -0.106568 -0.025893 -0.137951
24  0.328906 0.095429 1.403532  1.684115 0.560091 1.563926
25  7.685551 -26.508362 -6.023971  0.000000 -0.000000 -3.141593
26  20.158314 0.001465 -15.000000  -1.570796 -0.000000 -1.570796
27  6.688313 0.001464 -6.000000  -0.051945 -0.000000 -1.570796
28  -6.584470 -9.073198 3.240228  0.077420 -0.240674 -2.324296
29  -0.000002 13.479278 0.000001  0.766566 -0.000000 0.000000
30  -0.000001 13.477238 0.000001  -1.543601 0.315229 -0.070625
31  0.267268 3.664727 -1.953293  -0.174603 0.396888 0.692349
32  0.000000 1.180354 0.000000  -0.024711 0.025798 1.296299
33  0.000000 0.817136 0.000002  0.012232 0.001270 1.111333
34  0.249421 3.688542 -0.940890  -0.050028 0.197908 0.917566
35  -0.000002 1.800633 -0.000004  -0.007162 -0.012483 1.774974
36  0.000000 1.243405 -0.000001  0.004183 -0.005006 0.945407
37  0.244723 3.701095 0.087731  0.012445 0.020003 0.934972
38  0.000001 1.766586 0.000000  0.006918 0.000685 1.464509
39  0.000001 1.189005 -0.000001  -0.004472 0.017123 1.357249
40  0.277237 3.632248 1.274100  0.065416 -0.152210 0.927371
41  -0.000002 1.798495 0.000003  0.022849 -0.016745 1.078747
42  0.000002 1.235448 0.000004  -0.007143 0.004688 1.572574
43  -0.315444 0.857299 0.755942  -0.623037 -2.717983 1.196723
44  0.000001 2.265938 0.000001  -0.034963 0.056629 0.741260
45  0.000001 1.457812 0.000000  -0.048332 -0.026494 0.468069
46  1.259678 3.818374 1.286944  0.065416 -0.152210 0.927371
47  1.226390 3.891694 0.090418  0.012445 0.020003 0.934972
48  1.231621 3.875534 -0.958680  -0.050028 0.197908 0.917566
49  1.209918 3.994782 -2.003049  -0.174603 0.396887 0.692349
50  -0.328907 0.095428 1.403531  -0.623037 -2.717983 1.196723
51  11.559914 -22.463121 14.033716  -0.709101 0.022721 -2.136030
52  -8.428300 -13.481788 -15.000002  -1.570796 -0.000000 1.570796
53  -6.584470 -9.073198 3.240228  -0.051945 0.000000 1.570796
time 10
0  0 0 0  0 0 0
1  0.000000 0.000000 0.000000  1.570796 -0.000000 0.000000
2  6.688313 0.001464 -6.000000  -0.180017 0.981463 -3.105344
3  -0.000000 13.479280 0.000000  0.356810 0.000000 -0.000000
4  -0.000000 13.477240 -0.000000  -0.260936 -0.968770 0.196263
5  -0.267269 3.664727 -1.953293  -0.106568 -0.025893 -0.137951
6  -0.000000 1.180355 -0.000001  -0.036623 -0.007435 -0.177465
7  -0.000001 0.817138 -0.000000  0.004200 -0.011559 0.007420
8  -0.249422 3.688542 -0.940889  -0.060580 -0.013550 -0.130737
9  0.000000 1.800634 -0.000000  0.004940 0.002077 -0.208495
10  0.000001 1.243406 -0.000000  0.006524 -0.000040 -0.064626
11  -0.244726 3.701097 0.087732  0.005036 0.002373 -0.139323
12  0.000000 1.766584 0.000000  0.002490 -0.003552 -0.259702
13  -0.000000 1.189003 0.000000  -0.017590 -0.001952 -0.152464
14  -0.277239 3.632249 1.274102  0.054558 0.010184 -0.144732
15  0.000001 1.798491 -0.000000  0.036314 0.010668 -0.285912
16  -0.000001 1.235453 -0.000000  -0.005152 0.006816 -0.068190
17  0.315441 0.857301 0.755944  1.684115 0.560091 1.563926
18  0.000001 2.265939 -0.000000  -0.057905 -0.032805 -0.238898
19  -0.000001 1.457808 0.000000  -0.029609 0.046490 0.034285
20  -1.259681 3.818376 1.286945  0.054558 0.010184 -0.144732
21  -1.226390 3.891694 0.090419  0.005036 0.002373 -0.139324
22  -1.231623 3.875535 -0.958681  -0.060580 -0.013550 -0.130737
23  -1.209919 3.994782 -2.003048  -0.106568 -0.025893 -0.137951
24  0.328906 0.095429 1.403532  1.684115 0.560091 1.563926
25  7.685551 -26.508362 -6.023971  0.000000 -0.000000 -3.141593
26  20.158314 0.001465 -15.000000  -1.570796 -0.000000 -1.570796
27  6.688313 0.001464 -6.000000  -0.051945 -0.000000 -1.570796
28  -6.584470 -8.713919 2.722089  -0.033973 -0.257220 -2.362648
29  -0.000000 13.479277 -0.000000  0.967851 -0.000000 0.000000
30  0.000000 13.477240 0.000000  -1.724432 0.324548 0.139413
31  0.267268 3.664726 -1.953293  -0.174603 0.396888 0.692349
32  0.000002 1.180355 0.000002  -0.024711 0.025798 1.296300
33  -0.000000 0.817135 0.000001  0.012232 0.001270 1.111333
34  0.249420 3.688540 -0.940888  -0.050028 0.197908 0.917566
35  -0.000003 1.800634 -0.000000  -0.007162 -0.012483 1.774974
36  -0.000001 1.243404 0.000000  0.004183 -0.005006 0.945407
37  0.244725 3.701095 0.087732  0.012445 0.020003 0.934972
38  -0.000002 1.766585 -0.000001  0.006918 0.000685 1.464509
39  0.000001 1.189004 -0.000002  -0.004472 0.017123 1.357249
40  0.277239 3.632248 1.274104  0.065416 -0.152210 0.927371
41  -0.000003 1.798495 -0.000000  0.022849 -0.016745 1.078747
42  0.000001 1.235451 -0.000001  -0.007143 0.004688 1.572574
43  -0.315442 0.857299 0.755944  -0.623037 -2.717983 1.196723
44  0.000001 2.265939 0.000001  -0.034963 0.056629 0.741260
45  -0.000001 1.457813 0.000000  -0.048332 -0.026494 0.468069
46  1.259679 3.818375 1.286947  0.065416 -0.152210 0.927371
47  1.226390 3.891693 0.090419  0.012445 0.020003 0.934972
48  1.231621 3.875533 -0.958681  -0.050028 0.197908 0.917566
49  1.209917 3.994781 -2.003048  -0.174603 0.396888 0.692349
50  -0.328908 0.095427 1.403533  -0.623037 -2.717983 1.196723
51  10.388191 -22.149755 12.756892  -0.885536 -0.158429 -2.016867
52  -8.428300 -13.481788 -15.000002  -1.570796 -0.000000 1.570796
53  -6.584470 -8.713919 2.722089  -0.051945 0.000000 1.570796
time 11
0  0 0 0  0 0 0
1  0.000000 0.000000 0.000000  1.570796 -0.000000 0.000000
2  6.688313 0.001464 -6.000000  -0.180017 0.981463 -3.105344
3  -0.000000 13.479280 0.000000  0.356810 0.000000 -0.000000
4  -0.000000 13.477240 -0.000000  -0.260936 -0.968770 0.196263
5  -0.267269 3.664727 -1.953293  -0.106568 -0.025893 -0.137951
6  -0.000000 1.180355 -0.000001  -0.036623 -0.007435 -0.177465
7  -0.000001 0.817138 -0.000000  0.004200 -0.011559 0.007420
8  -0.249422 3.688542 -0.940889  -0.060580 -0.013550 -0.130737
9  0.000000 1.800634 -0.000000  0.004940 0.002077 -0.208495
10  0.000001 1.243406 -0.000000  0.006524 -0.000040 -0.064626
11  -0.244726 3.701097 0.087732  0.005036 0.002373 -0.139323
12  0.000000 1.766584 0.000000  0.002490 -0.003552 -0.259702
13  -0.000000 1.189003 0.000000  -0.017590 -0.001952 -0.152464
14  -0.277239 3.632249 1.274102  0.054558 0.010184 -0.144732
15  0.000001 1.798491 -0.000000  0.036314 0.010668 -0.285912
16  -0.000001 1.235453 -0.000000  -0.005152 0.006816 -0.068190
17  0.315441 0.857301 0.755944  1.684115 0.560091 1.563926
18  0.000001 2.265939 -0.000000  -0.057905 -0.032805 -0.238898
19  -0.000001 1.457808 0.000000  -0.029609 0.046490 0.034285
20  -1.259681 3.818376 1.286945  0.054558 0.010184 -0.144732
21  -1.226390 3.891694 0.090419  0.005036 0.002373 -0.139324
22  -1.231623 3.875535 -0.958681  -0.060580 -0.013550 -0.130737
23  -1.209919 3.994782 -2.003048  -0.106568 -0.025893 -0.137951
24  0.328906 0.095429 1.403532  1.684115 0.560091 1.563926
25  7.685551 -26.508362 -6.023971  0.000000 -0.000000 -3.141593
26  20.158314 0.001465 -15.000000  -1.570796 -0.000000 -1.570796
27  6.688313 0.001464 -6.000000  -0.051945 -0.000000 -1.570796
28  -6.584470 -8.171179 1.939368  -0.140058 -0.280117 -2.426896
29  -0.000000 13.479274 -0.000000  1.188071 -0.000000 0.000000
30  0.000001 13.477238 0.000000  -1.750266 0.184036 0.273420
31  0.267267 3.664725 -1.953294  -0.174603 0.396888 0.692349
32  0.000000 1.180355 -0.000000  -0.024711 0.025798 1.296300
33  0.000000 0.817137 -0.000000  0.012232 0.001270 1.111333
34  0.249421 3.688542 -0.940890  -0.050028 0.197907 0.917566
35  -0.000000 1.800633 -0.000000  -0.007162 -0.012483 1.774974
36  0.000001 1.243407 0.000000  0.004183 -0.005006 0.945407
37  0.244724 3.701094 0.087733  0.012445 0.020003 0.934972
38  0.000001 1.766585 0.000000  0.006918 0.000685 1.464509
39  -0.000000 1.189003 -0.000000  -0.004472 0.017123 1.357249
40  0.277237 3.632248 1.274101  0.065416 -0.152210 0.927372
41  -0.000001 1.798494 0.000001  0.022849 -0.016745 1.078747
42  0.000001 1.235448 -0.000001  -0.007143 0.004688 1.572574
43  -0.315444 0.857299 0.755943  -0.623037 -2.717983 1.196723
44  -0.000002 2.265939 0.000003  -0.034963 0.056629 0.741260
45  -0.000000 1.457812 0.000000  -0.048332 -0.026494 0.468069
46  1.259677 3.818376 1.286944  0.065416 -0.152210 0.927372
47  1.226390 3.891694 0.090419  0.012445 0.020003 0.934972
48  1.231620 3.875534 -0.958682  -0.050028 0.197908 0.917566
49  1.209918 3.994782 -2.003048  -0.174603 0.396887 0.692349
50  -0.328909 0.095428 1.403531  -0.623037 -2.717983 1.196723
51  8.618149 -21.559355 11.352453  -0.837149 -0.406001 -2.104479
52  -8.428300 -13.481788 -15.000002  -1.570796 -0.000000 1.570796
53  -6.584470 -8.171179 1.939368  -0.051945 0.000000 1.570796
time 12
0  0 0 0  0 0 0
1  0.000000 0.000000 0.000000  1.570796 -0.000000 0.000000
2  6.688313 0.001464 -6.000000  -0.180017 0.981463 -3.105344
3  -0.000000 13.479280 0.000000  0.356810 0.000000 -0.000000
4  -0.000000 13.477240 -0.000000  -0.260936 -0.968770 0.196263
5  -0.267269 3.664727 -1.953293  -0.106568 -0.025893 -0.137951
6  -0.000000 1.180355 -0.000001  -0.036623 -0.007435 -0.177465
7  -0.000001 0.817138 -0.000000  0.004200 -0.011559 0.007420
8  -0.249422 3.688542 -0.940889  -0.060580 -0.013550 -0.130737
9  0.000000 1.800634 -0.000000  0.004940 0.002077 -0.208495
10  0.000001 1.243406 -0.000000  0.006524 -0.000040 -0.064626
11  -0.244726 3.701097 0.087732  0.005036 0.002373 -0.139323
12  0.000000 1.766584 0.000000  0.002490 -0.003552 -0.259702
13  -0.000000 1.189003 0.000000  -0.017590 -0.001952 -0.152464
14  -0.277239 3.632249 1.274102  0.054558 0.010184 -0.144732
15  0.000001 1.798491 -0.000000  0.036314 0.010668 -0.285912
16  -0.000001 1.235453 -0.000000  -0.005152 0.006816 -0.068190
17  0.315441 0.857301 0.755944  1.684115 0.560091 1.563926
18  0.000001 2.265939 -0.000000  -0.057905 -0.032805 -0.238898
19  -0.000001 1.457808 0.000000  -0.029609 0.046490 0.034285
20  -1.259681 3.818376 1.286945  0.054558 0.010184 -0.144732
21  -1.226390 3.891694 0.090419  0.005036 0.002373 -0.139324
22  -1.231623 3.875535 -0.958681  -0.060580 -0.013550 -0.130737
23  -1.209919 3.994782 -2.003048  -0.106568 -0.025893 -0.137951
24  0.328906 0.095429 1.403532  1.684115 0.560091 1.563926
25  7.685551 -26.508362 -6.023971  0.000000 -0.000000 -3.141593
26  20.158314 0.001465 -15.000000  -1.570796 -0.000000 -1.570796
27  6.688313 0.001464 -6.000000  -0.051945 -0.000000 -1.570796
28  -6.584470 -7.490842 0.958211  -0.221172 -0.303589 -2.516933
29  0.000000 13.479276 -0.000000  1.403371 -0.000000 0.000000
30  -0.000000 13.477238 0.000001  -1.757987 0.004051 0.394087
31  0.267268 3.664725 -1.953292  -0.174603 0.396888 0.692349
32  0.000001 1.180354 0.000001  -0.024711 0.025798 1.296300
33  0.000001 0.817136 0.000002  0.012232 0.001270 1.111333
34  0.249423 3.688541 -0.940888  -0.050028 0.197908 0.917566
35  -0.000000 1.800633 0.000001  -0.007162 -0.012483 1.774974
36  0.000000 1.243405 0.000001  0.004183 -0.005006 0.945407
37  0.244726 3.701094 0.087734  0.012445 0.020003 0.934973
38  -0.000002 1.766585 -0.000000  0.006918 0.000685 1.464509
39  0.000000 1.189004 0.000000  -0.004472 0.017123 1.357249
40  0.277237 3.632246 1.274103  0.065416 -0.152210 0.927371
41  0.000002 1.798495 0.000000  0.022849 -0.016745 1.078747
42  0.000000 1.235453 -0.000000  -0.007143 0.004688 1.572574
43  -0.315443 0.857299 0.755945  -0.623037 -2.717983 1.196723
44  0.000001 2.265940 -0.000002  -0.034963 0.056629 0.741260
45  0.000001 1.457812 0.000002  -0.048332 -0.026494 0.468068
46  1.259680 3.818373 1.286947  0.065416 -0.152210 0.927371
47  1.226390 3.891693 0.090420  0.012445 0.020003 0.934972
48  1.231622 3.875534 -0.958679  -0.050028 0.197908 0.917566
49  1.209918 3.994781 -2.003047  -0.174603 0.396888 0.692349
50  -0.328906 0.095429 1.403534  -0.623037 -2.717983 1.196723
51  6.399361 -20.636173 10.037587  -0.666395 -0.660675 -2.326791
52  -8.428300 -13.481788 -15.000002  -1.570796 -0.000000 1.570796
53  -6.584470 -7.490842 0.958211  -0.051945 0.000000 1.570796
time 13
0  0 0 0  0 0 0
1  0.000000 0.000000 0.000000  1.570796 -0.000000 0.000000
2  6.688313 0.001464 -6.000000  -0.180017 0.981463 -3.105344
3  -0.000000 13.479280 0.000000  0.356810 0.000000 -0.000000
4  -0.000000 13.477240 -0.000000  -0.260936 -0.968770 0.196263
5  -0.267269 3.664727 -1.953293  -0.106568 -0.025893 -0.137951
6  -0.000000 1.180355 -0.000001  -0.036623 -0.007435 -0.177465
7  -0.000001 0.817138 -0.000000  0.004200 -0.011559 0.007420
8  -0.249422 3.688542 -0.940889  -0.060580 -0.013550 -0.130737
9  0.000000 1.800634 -0.000000  0.004940 0.002077 -0.208495
10  0.000001 1.243406 -0.000000  0.006524 -0.000040 -0.064626
11  -0.244726 3.701097 0.087732  0.005036 0.002373 -0.139323
12  0.000000 1.766584 0.000000  0.002490 -0.003552 -0.259702
13  -0.000000 1.189003 0.000000  -0.017590 -0.001952 -0.152464
14  -0.277239 3.632249 1.274102  0.054558 0.010184 -0.144732
15  0.000001 1.798491 -0.000000  0.036314 0.010668 -0.285912
16  -0.000001 1.235453 -0.000000  -0.005152 0.006816 -0.068190
17  0.315441 0.857301 0.755944  1.684115 0.560091 1.563926
18  0.000001 2.265939 -0.000000  -0.057905 -0.032805 -0.238898
19  -0.000001 1.457808 0.000000  -0.029609 0.046490 0.034285
20  -1.259681 3.818376 1.286945  0.054558 0.010184 -0.144732
21  -1.226390 3.891694 0.090419  0.005036 0.002373 -0.139324
22  -1.231623 3.875535 -0.958681  -0.060580 -0.013550 -0.130737
23  -1.209919 3.994782 -2.003048  -0.106568 -0.025893 -0.137951
24  0.328906 0.095429 1.403532  1.684115 0.560091 1.563926
25  7.685551 -26.508362 -6.023971  0.000000 -0.000000 -3.141593
26  20.158314 0.001465 -15.000000  -1.570796 -0.000000 -1.570796
27  6.688313 0.001464 -6.000000  -0.051945 -0.000000 -1.570796
28  -6.584470 -6.718775 -0.155237  -0.256272 -0.318373 -2.635213
29  0.000001 13.479278 -0.000000  1.597884 -0.000000 0.000000
30  0.000000 13.477238 0.000001  -1.699277 -0.109508 0.531192
31  0.267269 3.664725 -1.953293  -0.174603 0.396888 0.692349
32  0.000000 1.180356 -0.000000  -0.024711 0.025798 1.296300
33  0.000002 0.817133 -0.000000  0.012232 0.001270 1.111333
34  0.249423 3.688541 -0.940889  -0.050028 0.197908 0.917566
35  0.000001 1.800633 -0.000001  -0.007162 -0.012483 1.774974
36  -0.000000 1.243406 -0.000001  0.004183 -0.005006 0.945407
37  0.244727 3.701096 0.087732  0.012445 0.020003 0.934972
38  -0.000002 1.766584 0.000000  0.006918 0.000685 1.464509
39  0.000000 1.189002 0.000000  -0.004472 0.017123 1.357249
40  0.277239 3.632246 1.274102  0.065416 -0.152210 0.927371
41  0.000000 1.798494 -0.000000  0.022849 -0.016745 1.078747
42  -0.000000 1.235450 -0.000000  -0.007143 0.004688 1.572574
43  -0.315441 0.857299 0.755944  -0.623037 -2.717983 1.196723
44  -0.000001 2.265940 0.000001  -0.034963 0.056629 0.741260
45  0.000001 1.457813 0.000000  -0.048332 -0.026494 0.468069
46  1.259681 3.818374 1.286945  0.065416 -0.152210 0.927371
47  1.226391 3.891693 0.090419  0.012445 0.020003 0.934972
48  1.231622 3.875532 -0.958681  -0.050028 0.197908 0.917566
49  1.209919 3.994782 -2.003048  -0.174603 0.396888 0.692349
50  -0.328906 0.095428 1.403532  -0.623037 -2.717983 1.196723
51  3.881413 -19.324472 9.064049  -0.334880 -0.859584 -2.623015
52  -8.428300 -13.481788 -15.000002  -1.570796 -0.000000 1.570796
53  -6.584470 -6.718775 -0.155237  -0.051945 0.000000 1.570796
time 14
0  0 0 0  0 0 0
1  0.000000 0.000000 0.000000  1.570796 -0.000000 0.000000
2  6.688313 0.001464 -6.000000  -0.180017 0.981463 -3.105344
3  -0.000000 13.479280 0.000000  0.356810 0.000000 -0.000000
4  -0.000000 13.477240 -0.000000  -0.260936 -0.968770 0.196263
5  -0.267269 3.664727 -1.953293  -0.106568 -0.025893 -0.137951
6  -0.000000 1.180355 -0.000001  -0.036623 -0.007435 -0.177465
7  -0.000001 0.817138 -0.000000  0.004200 -0.011559 0.007420
8  -0.249422 3.688542 -0.940889  -0.060580 -0.013550 -0.130737
9  0.000000 1.800634 -0.000000  0.004940 0.002077 -0.208495
10  0.000001 1.243406 -0.000000  0.006524 -0.000040 -0.064626
11  -0.244726 3.701097 0.087732  0.005036 0.002373 -0.139323
12  0.000000 1.766584 0.000000  0.002490 -0.003552 -0.259702
13  -0.000000 1.189003 0.000000  -0.017590 -0.001952 -0.152464
14  -0.277239 3.632249 1.274102  0.054558 0.010184 -0.144732
15  0.000001 1.798491 -0.000000  0.036314 0.010668 -0.285912
16  -0.000001 1.235453 -0.000000  -0.005152 0.006816 -0.068190
17  0.315441 0.857301 0.755944  1.684115 0.560091 1.563926
18  0.000001 2.265939 -0.000000  -0.057905 -0.032805 -0.238898
19  -0.000001 1.457808 0.000000  -0.029609 0.046490 0.034285
20  -1.259681 3.818376 1.286945  0.054558 0.010184 -0.144732
21  -1.226390 3.891694 0.090419  0.005036 0.002373 -0.139324
22  -1.231623 3.875535 -0.958681  -0.060580 -0.013550 -0.130737
23  -1.209919 3.994782 -2.003048  -0.106568 -0.025893 -0.137951
24  0.328906 0.095429 1.403532  1.684115 0.560091 1.563926
25  7.685551 -26.508362 -6.023971  0.000000 -0.000000 -3.141593
26  20.158314 0.001465 -15.000000  -1.570796 -0.000000 -1.570796
27  6.688313 0.001464 -6.000000  -0.051945 -0.000000 -1.570796
28  -6.584470 -5.900842 -1.334831  -0.220320 -0.310443 -2.783484
29  -0.000000 13.479278 -0.000001  1.753436 -0.000000 0.000000
30  0.000002 13.477238 0.000002  -1.465014 -0.109911 0.631693
31  0.267269 3.664726 -1.953293  -0.174603 0.396887 0.692349
32  0.000001 1.180354 -0.000002  -0.024711 0.025798 1.296300
33  -0.000003 0.817137 -0.000000  0.012232 0.001270 1.111333
34  0.249423 3.688541 -0.940889  -0.050028 0.197908 0.917566
35  0.000002 1.800634 -0.000001  -0.007162 -0.012483 1.774974
36  -0.000000 1.243407 -0.000000  0.004183 -0.005006 0.945407
37  0.244726 3.701095 0.087732  0.012445 0.020003 0.934972
38  -0.000001 1.766585 -0.000001  0.006918 0.000685 1.464509
39  0.000000 1.189005 -0.000000  -0.004472 0.017123 1.357249
40  0.277239 3.632249 1.274101  0.065416 -0.152210 0.927371
41  -0.000000 1.798494 0.000000  0.022849 -0.016745 1.078746
42  0.000001 1.235453 0.000001  -0.007143 0.004688 1.572573
43  -0.315441 0.857300 0.755943  -0.623038 -2.717983 1.196723
44  -0.000000 2.265940 0.000001  -0.034963 0.056629 0.741260
45  -0.000001 1.457814 -0.000000  -0.048332 -0.026494 0.468069
46  1.259681 3.818374 1.286946  0.065416 -0.152210 0.927371
47  1.226391 3.891693 0.090419  0.012445 0.020002 0.934972
48  1.231624 3.875534 -0.958680  -0.050028 0.197908 0.917566
49  1.209919 3.994782 -2.003048  -0.174603 0.396887 0.692349
50  -0.328906 0.095429 1.403532  -0.623037 -2.717983 1.196723
51  1.213879 -17.568512 8.683589  0.195785 -0.939857 -2.932364
52  -8.428300 -13.481788 -15.000002  -1.570796 -0.000000 1.570796
53  -6.584470 -5.900842 -1.334831  -0.051945 0.000000 1.570796
time 15
0  0 0 0  0 0 0
1  0.000000 0.000000 0.000000  1.570796 -0.000000 0.000000
2  6.688313 0.001464 -6.000000  -0.180017 0.981463 -3.105344
3  -0.000000 13.479280 0.000000  0.356810 0.000000 -0.000000
4  -0.000000 13.477240 -0.000000  -0.260936 -0.968770 0.196263
5  -0.267269 3.664727 -1.953293  -0.106568 -0.025893 -0.137951
6  -0.000000 1.180355 -0.000001  -0.036623 -0.007435 -0.177465
7  -0.000001 0.817138 -0.000000  0.004200 -0.011559 0.007420
8  -0.249422 3.688542 -0.940889  -0.060580 -0.013550 -0.130737
9  0.000000 1.800634 -0.000000  0.004940 0.002077 -0.208495
10  0.000001 1.243406 -0.000000  0.006524 -0.000040 -0.064626
11  -0.244726 3.701097 0.087732  0.005036 0.002373 -0.139323
12  0.000000 1.766584 0.000000  0.002490 -0.003552 -0.259702
13  -0.000000 1.189003 0.000000  -0.017590 -0.001952 -0.152464
14  -0.277239 3.632249 1.274102  0.054558 0.010184 -0.144732
15  0.000001 1.798491 -0.000000  0.036314 0.010668 -0.285912
16  -0.000001 1.235453 -0.000000  -0.005152 0.006816 -0.068190
17  0.315441 0.857301 0.755944  1.684115 0.560091 1.563926
18  0.000001 2.265939 -0.000000  -0.057905 -0.032805 -0.238898
19  -0.000001 1.457808 0.000000  -0.029609 0.046490 0.034285
20  -1.259681 3.818376 1.286945  0.054558 0.010184 -0.144732
21  -1.226390 3.891694 0.090419  0.005036 0.002373 -0.139324
22  -1.231623 3.875535 -0.958681  -0.060580 -0.013550 -0.130737
23  -1.209919 3.994782 -2.003048  -0.106568 -0.025893 -0.137951
24  0.328906 0.095429 1.403532  1.684115 0.560091 1.563926
25  7.685551 -26.508362 -6.023971  0.000000 -0.000000 -3.141593
26  20.158314 0.001465 -15.000000  -1.570796 -0.000000 -1.570796
27  6.688313 0.001464 -6.000000  -0.051945 -0.000000 -1.570796
28  -6.584470 -5.082910 -2.514424  -0.069623 -0.261094 -2.959276
29  0.000000 13.479274 0.000000  1.819545 -0.000000 0.000000
30  -0.000000 13.477240 0.000001  -0.988049 -0.075421 0.555738
31  0.267269 3.664725 -1.953295  -0.174603 0.396888 0.692349
32  -0.000000 1.180355 -0.000000  -0.024711 0.025798 1.296299
33  0.000000 0.817135 0.000000  0.012232 0.001270 1.111333
34  0.249423 3.688540 -0.940890  -0.050028 0.197908 0.917566
35  0.000002 1.800633 0.000000  -0.007162 -0.012483 1.774974
36  0.000000 1.243405 0.000000  0.004184 -0.005006 0.945407
37  0.244726 3.701093 0.087732  0.012445 0.020003 0.934972
38  -0.000000 1.766585 -0.000002  0.006918 0.000685 1.464509
39  -0.000000 1.189004 -0.000000  -0.004472 0.017123 1.357249
40  0.277240 3.632246 1.274101  0.065416 -0.152210 0.927372
41  0.000000 1.798494 -0.000002  0.022849 -0.016745 1.078747
42  -0.000000 1.235450 0.000001  -0.007143 0.004688 1.572574
43  -0.315441 0.857298 0.755942  -0.623037 -2.717983 1.196723
44  -0.000002 2.265939 -0.000001  -0.034963 0.056629 0.741260
45  0.000000 1.457812 -0.000001  -0.048332 -0.026494 0.468069
46  1.259681 3.818374 1.286944  0.065416 -0.152210 0.927372
47  1.226391 3.891692 0.090419  0.012445 0.020003 0.934972
48  1.231623 3.875533 -0.958682  -0.050028 0.197908 0.917566
49  1.209919 3.994779 -2.003048  -0.174603 0.396888 0.692349
50  -0.328906 0.095428 1.403532  -0.623037 -2.717983 1.196723
51  -1.453651 -15.368106 9.390765  -2.234209 -2.358031 -0.056934
52  -8.428300 -13.481788 -15.000002  -1.570796 -0.000000 1.570796
53  -6.584470 -5.082910 -2.514424  -0.051945 0.000000 1.570796
time 16
0  0 0 0  0 0 0
1  0.000000 0.000000 0.000000  1.570796 -0.000000 0.000000
2  6.688313 0.001464 -6.000000  -0.180017 0.981463 -3.105344
3  -0.000000 13.479280 0.000000  0.356810 0.000000 -0.000000
4  -0.000000 13.477240 -0.000000  -0.260936 -0.968770 0.196263
5  -0.267269 3.664727 -1.953293  -0.106568 -0.025893 -0.137951
6  -0.000000 1.180355 -0.000001  -0.036623 -0.007435 -0.177465
7  -0.000001 0.817138 -0.000000  0.004200 -0.011559 0.007420
8  -0.249422 3.688542 -0.940889  -0.060580 -0.013550 -0.130737
9  0.000000 1.800634 -0.000000  0.004940 0.002077 -0.208495
10  0.000001 1.243406 -0.000000  0.006524 -0.000040 -0.064626
11  -0.244726 3.701097 0.087732  0.005036 0.002373 -0.139323
12  0.000000 1.766584 0.000000  0.002490 -0.003552 -0.259702
13  -0.000000 1.189003 0.000000  -0.017590 -0.001952 -0.152464
14  -0.277239 3.632249 1.274102  0.054558 0.010184 -0.144732
15  0.000001 1.798491 -0.000000  0.036314 0.010668 -0.285912
16  -0.000001 1.235453 -0.000000  -0.005152 0.006816 -0.068190
17  0.315441 0.857301 0.755944  1.684115 0.560091 1.563926
18  0.000001 2.265939 -0.000000  -0.057905 -0.032805 -0.238898
19  -0.000001 1.457808 0.000000  -0.029609 0.046490 0.034285
20  -1.259681 3.818376 1.286945  0.054558 0.010184 -0.144732
21  -1.226390 3.891694 0.090419  0.005036 0.002373 -0.139324
22  -1.231623 3.875535 -0.958681  -0.060580 -0.013550 -0.130737
23  -1.209919 3.994782 -2.003048  -0.106568 -0.025893 -0.137951
24  0.328906 0.095429 1.403532  1.684115 0.560091 1.563926
25  7.685551 -26.508362 -6.023971  0.000000 -0.000000 -3.141593
26  20.158314 0.001465 -15.000000  -1.570796 -0.000000 -1.570796
27  6.688313 0.001464 -6.000000  -0.051945 -0.000000 -1.570796
28  -6.584470 -4.310842 -3.627873  0.174316 -0.168951 -3.131114
29  -0.000000 13.479278 -0.000000  1.745868 -0.000000 0.000000
30  -0.000000 13.477238 -0.000001  -0.464058 -0.110826 0.359319
31  0.267269 3.664726 -1.953291  -0.174603 0.396887 0.692349
32  0.000000 1.180356 0.000000  -0.024711 0.025798 1.296300
33  0.000000 0.817135 0.000000  0.012232 0.001270 1.111333
34  0.249423 3.688540 -0.940887  -0.050028 0.197908 0.917566
35  0.000002 1.800633 0.000001  -0.007162 -0.012483 1.774974
36  -0.000000 1.243407 0.000001  0.004183 -0.005006 0.945407
37  0.244726 3.701095 0.087735  0.012445 0.020003 0.934972
38  -0.000000 1.766585 -0.000001  0.006918 0.000685 1.464509
39  0.000001 1.189002 0.000002  -0.004472 0.017123 1.357249
40  0.277239 3.632247 1.274103  0.065416 -0.152210 0.927371
41  -0.000001 1.798494 -0.000002  0.022849 -0.016745 1.078747
42  0.000001 1.235452 -0.000000  -0.007143 0.004688 1.572574
43  -0.315441 0.857299 0.755946  -0.623037 -2.717983 1.196723
44  0.000000 2.265939 -0.000001  -0.034963 0.056629 0.741260
45  0.000001 1.457812 -0.000000  -0.048332 -0.026494 0.468069
46  1.259681 3.818374 1.286947  0.065416 -0.152210 0.927371
47  1.226390 3.891693 0.090421  0.012445 0.020003 0.934972
48  1.231623 3.875533 -0.958679  -0.050028 0.197908 0.917566
49  1.209919 3.994781 -2.003046  -0.174603 0.396888 0.692349
50  -0.328906 0.095428 1.403533  -0.623037 -2.717983 1.196723
51  -3.971603 -12.945293 11.158705  -1.586326 -2.682860 -0.241508
52  -8.428300 -13.481788 -15.000002  -1.570796 -0.000000 1.570796
53  -6.584470 -4.310842 -3.627873  -0.051945 0.000000 1.570796
time 17
0  0 0 0  0 0 0
1  0.000000 0.000000 0.000000  1.570796 -0.000000 0.000000
2  6.688313 0.001464 -6.000000  -0.180017 0.981463 -3.105344
3  -0.000000 13.479280 0.000000  0.356810 0.000000 -0.000000
4  -0.000000 13.477240 -0.000000  -0.260936 -0.968770 0.196263
5  -0.267269 3.664727 -1.953293  -0.106568 -0.025893 -0.137951
6  -0.000000 1.180355 -0.000001  -0.036623 -0.007435 -0.177465
7  -0.000001 0.817138 -0.000000  0.004200 -0.011559 0.007420
8  -0.249422 3.688542 -0.940889  -0.060580 -0.013550 -0.130737
9  0.000000 1.800634 -0.000000  0.004940 0.002077 -0.208495
10  0.000001 1.243406 -0.000000  0.006524 -0.000040 -0.064626
11  -0.244726 3.701097 0.087732  0.005036 0.002373 -0.139323
12  0.000000 1.766584 0.000000  0.002490 -0.003552 -0.259702
13  -0.000000 1.189003 0.000000  -0.017590 -0.001952 -0.152464
14  -0.277239 3.632249 1.274102  0.054558 0.010184 -0.144732
15  0.000001 1.798491 -0.000000  0.036314 0.010668 -0.285912
16  -0.000001 1.235453 -0.000000  -0.005152 0.006816 -0.068190
17  0.315441 0.857301 0.755944  1.684115 0.560091 1.563926
18  0.000001 2.265939 -0.000000  -0.057905 -0.032805 -0.238898
19  -0.000001 1.457808 0.000000  -0.029609 0.046490 0.034285
20  -1.259681 3.818376 1.286945  0.054558 0.010184 -0.144732
21  -1.226390 3.891694 0.090419  0.005036 0.002373 -0.139324
22  -1.231623 3.875535 -0.958681  -0.060580 -0.013550 -0.130737
23  -1.209919 3.994782 -2.003048  -0.106568 -0.025893 -0.137951
24  0.328906 0.095429 1.403532  1.684115 0.560091 1.563926
25  7.685551 -26.508362 -6.023971  0.000000 -0.000000 -3.141593
26  20.158314 0.001465 -15.000000  -1.570796 -0.000000 -1.570796
27  6.688313 0.001464 -6.000000  -0.051945 -0.000000 -1.570796
28  -6.584470 -3.630506 -4.609029  0.439402 -0.066176 3.025331
29  -0.000001 13.479278 -0.000000  1.539135 -0.000000 0.000000
30  0.000000 13.477240 -0.000001  -0.176395 -0.128605 0.184597
31  0.267269 3.664726 -1.953292  -0.174603 0.396888 0.692349
32  0.000001 1.180356 0.000000  -0.024711 0.025798 1.296299
33  -0.000000 0.817134 0.000000  0.012232 0.001270 1.111333
34  0.249422 3.688540 -0.940889  -0.050028 0.197908 0.917566
35  0.000000 1.800633 -0.000000  -0.007162 -0.012483 1.774974
36  0.000000 1.243406 -0.000000  0.004183 -0.005006 0.945407
37  0.244726 3.701096 0.087734  0.012445 0.020003 0.934973
38  0.000000 1.766585 -0.000001  0.006918 0.000685 1.464509
39  0.000000 1.189004 0.000000  -0.004472 0.017123 1.357249
40  0.277240 3.632247 1.274102  0.065416 -0.152210 0.927371
41  0.000000 1.798494 0.000000  0.022849 -0.016745 1.078747
42  -0.000002 1.235451 0.000000  -0.007143 0.004688 1.572574
43  -0.315442 0.857300 0.755943  -0.623037 -2.717983 1.196723
44  0.000001 2.265938 0.000000  -0.034963 0.056629 0.741260
45  -0.000000 1.457810 -0.000000  -0.048332 -0.026494 0.468068
46  1.259681 3.818375 1.286946  0.065416 -0.152210 0.927371
47  1.226390 3.891693 0.090419  0.012445 0.020003 0.934972
48  1.231623 3.875535 -0.958681  -0.050028 0.197908 0.917566
49  1.209919 3.994781 -2.003047  -0.174603 0.396888 0.692349
50  -0.328907 0.095428 1.403532  -0.623037 -2.717983 1.196723
51  -6.190392 -10.577666 13.457027  -1.303418 -2.960130 -0.310572
52  -8.428300 -13.481788 -15.000002  -1.570796 -0.000000 1.570796
53  -6.584470 -3.630506 -4.609029  -0.051945 0.000000 1.570796
time 18
0  0 0 0  0 0 0
1  0.000000 0.000000 0.000000  1.570796 -0.000000 0.000000
2  6.688313 0.001464 -6.000000  -0.180017 0.981463 -3.105344
3  -0.000000 13.479280 0.000000  0.356810 0.000000 -0.000000
4  -0.000000 13.477240 -0.000000  -0.260936 -0.968770 0.196263
5  -0.267269 3.664727 -1.953293  -0.106568 -0.025893 -0.137951
6  -0.000000 1.180355 -0.000001  -0.036623 -0.007435 -0.177465
7  -0.000001 0.817138 -0.000000  0.004200 -0.011559 0.007420
8  -0.249422 3.688542 -0.940889  -0.060580 -0.013550 -0.130737
9  0.000000 1.800634 -0.000000  0.004940 0.002077 -0.208495
10  0.000001 1.243406 -0.000000  0.006524 -0.000040 -0.064626
11  -0.244726 3.701097 0.087732  0.005036 0.002373 -0.139323
12  0.000000 1.766584 0.000000  0.002490 -0.003552 -0.259702
13  -0.000000 1.189003 0.000000  -0.017590 -0.001952 -0.152464
14  -0.277239 3.632249 1.274102  0.054558 0.010184 -0.144732
15  0.000001 1.798491 -0.000000  0.036314 0.010668 -0.285912
16  -0.000001 1.235453 -0.000000  -0.005152 0.006816 -0.068190
17  0.315441 0.857301 0.755944  1.684115 0.560091 1.563926
18  0.000001 2.265939 -0.000000  -0.057905 -0.032805 -0.238898
19  -0.000001 1.457808 0.000000  -0.029609 0.046490 0.034285
20  -1.259681 3.818376 1.286945  0.054558 0.010184 -0.144732
21  -1.226390 3.891694 0.090419  0.005036 0.002373 -0.139324
22  -1.231623 3.875535 -0.958681  -0.060580 -0.013550 -0.130737
23  -1.209919 3.994782 -2.003048  -0.106568 -0.025893 -0.137951
24  0.328906 0.095429 1.403532  1.684115 0.560091 1.563926
25  7.685551 -26.508362 -6.023971  0.000000 -0.000000 -3.141593
26  20.158314 0.001465 -15.000000  -1.570796 -0.000000 -1.570796
27  6.688313 0.001464 -6.000000  -0.051945 -0.000000 -1.570796
28  -6.584470 -3.087766 -5.391750  0.687768 0.015309 2.952090
29  0.000000 13.479277 0.000001  1.247042 -0.000000 0.000000
30  -0.000000 13.477239 -0.000001  -0.167260 -0.013261 0.078988
31  0.267270 3.664725 -1.953292  -0.174603 0.396888 0.692349
32  0.000001 1.180353 -0.000000  -0.024711 0.025798 1.296299
33  0.000001 0.817134 -0.000002  0.012232 0.001270 1.111333
34  0.249424 3.688541 -0.940888  -0.050028 0.197908 0.917566
35  -0.000001 1.800635 -0.000001  -0.007162 -0.012483 1.774974
36  0.000001 1.243405 0.000001  0.004183 -0.005006 0.945407
37  0.244726 3.701096 0.087733  0.012445 0.020003 0.934973
38  0.000001 1.766585 -0.000001  0.006918 0.000685 1.464509
39  -0.000001 1.189004 -0.000001  -0.004472 0.017123 1.357249
40  0.277239 3.632247 1.274102  0.065416 -0.152210 0.927371
41  -0.000001 1.798495 0.000001  0.022849 -0.016745 1.078747
42  -0.000002 1.235452 0.000000  -0.007143 0.004688 1.572573
43  -0.315441 0.857299 0.755944  -0.623037 -2.717983 1.196723
44  -0.000001 2.265939 -0.000000  -0.034963 0.056629 0.741260
45  0.000000 1.457810 0.000000  -0.048332 -0.026494 0.468069
46  1.259681 3.818373 1.286946  0.065416 -0.152210 0.927371
47  1.226390 3.891693 0.090418  0.012445 0.020003 0.934972
48  1.231623 3.875535 -0.958680  -0.050028 0.197908 0.917566
49  1.209920 3.994783 -2.003048  -0.174603 0.396888 0.692349
50  -0.328906 0.095428 1.403533  -0.623037 -2.717983 1.196723
51  -7.960436 -8.542818 15.755348  -1.372738 -3.087826 -0.230053
52  -8.428300 -13.481788 -15.000002  -1.570796 -0.000000 1.570796
53  -6.584470 -3.087766 -5.391750  -0.051945 0.000000 1.570796
time 19
0  0 0 0  0 0 0
1  0.000000 0.000000 0.000000  1.570796 -0.000000 0.000000
2  6.688313 0.001464 -6.000000  -0.180017 0.981463 -3.105344
3  -0.000000 13.479280 0.000000  0.356810 0.000000 -0.000000
4  -0.000000 13.477240 -0.000000  -0.260936 -0.968770 0.196263
5  -0.267269 3.664727 -1.953293  -0.106568 -0.025893 -0.137951
6  -0.000000 1.180355 -0.000001  -0.036623 -0.007435 -0.177465
7  -0.000001 0.817138 -0.000000  0.004200 -0.011559 0.007420
8  -0.249422 3.688542 -0.940889  -0.060580 -0.013550 -0.130737
9  0.000000 1.800634 -0.000000  0.004940 0.002077 -0.208495
10  0.000001 1.243406 -0.000000  0.006524 -0.000040 -0.064626
11  -0.244726 3.701097 0.087732  0.005036 0.002373 -0.139323
12  0.000000 1.766584 0.000000  0.002490 -0.003552 -0.259702
13  -0.000000 1.189003 0.000000  -0.017590 -0.001952 -0.152464
14  -0.277239 3.632249 1.274102  0.054558 0.010184 -0.144732
15  0.000001 1.798491 -0.000000  0.036314 0.010668 -0.285912
16  -0.000001 1.235453 -0.000000  -0.005152 0.006816 -0.068190
17  0.315441 0.857301 0.755944  1.684115 0.560091 1.563926
18  0.000001 2.265939 -0.000000  -0.057905 -0.032805 -0.238898
19  -0.000001 1.457808 0.000000  -0.029609 0.046490 0.034285
20  -1.259681 3.818376 1.286945  0.054558 0.010184 -0.144732
21  -1.226390 3.891694 0.090419  0.005036 0.002373 -0.139324
22  -1.231623 3.875535 -0.958681  -0.060580 -0.013550 -0.130737
23  -1.209919 3.994782 -2.003048  -0.106568 -0.025893 -0.137951
24  0.328906 0.095429 1.403532  1.684115 0.560091 1.563926
25  7.685551 -26.508362 -6.023971  0.000000 -0.000000 -3.141593
26  20.158314 0.001465 -15.000000  -1.570796 -0.000000 -1.570796
27  6.688313 0.001464 -6.000000  -0.051945 -0.000000 -1.570796
28  -6.584470 -2.728488 -5.909889  0.892771 0.064393 2.918027
29  0.000000 13.479277 -0.000000  0.949154 -0.000000 0.000000
30  0.000000 13.477241 -0.000000  -0.203582 0.156844 0.030018
31  0.267271 3.664727 -1.953294  -0.174603 0.396888 0.692349
32  -0.000001 1.180354 -0.000000  -0.024711 0.025798 1.296300
33  0.000002 0.817135 0.000001  0.012232 0.001270 1.111333
34  0.249423 3.688542 -0.940889  -0.050028 0.197908 0.917566
35  0.000000 1.800634 -0.000000  -0.007162 -0.012483 1.774974
36  0.000000 1.243405 0.000000  0.004183 -0.005006 0.945407
37  0.244726 3.701096 0.087733  0.012445 0.020003 0.934972
38  0.000002 1.766585 -0.000000  0.006918 0.000685 1.464509
39  -0.000001 1.189005 0.000000  -0.004472 0.017123 1.357249
40  0.277240 3.632247 1.274102  0.065416 -0.152210 0.927371
41  0.000001 1.798495 -0.000001  0.022849 -0.016745 1.078746
42  0.000001 1.235452 -0.000001  -0.007143 0.004688 1.572574
43  -0.315441 0.857301 0.755943  -0.623037 -2.717983 1.196723
44  -0.000001 2.265942 0.000001  -0.034963 0.056629 0.741260
45  0.000002 1.457811 0.000000  -0.048332 -0.026494 0.468068
46  1.259683 3.818376 1.286945  0.065416 -0.152210 0.927371
47  1.226391 3.891695 0.090419  0.012445 0.020003 0.934972
48  1.231624 3.875534 -0.958680  -0.050028 0.197908 0.917566
49  1.209920 3.994783 -2.003048  -0.174603 0.396888 0.692349
50  -0.328906 0.095429 1.403532  -0.623037 -2.717983 1.196723
51  -9.132153 -7.118340 17.523289  1.640117 -0.006721 3.061074
52  -8.428300 -13.481788 -15.000002  -1.570796 -0.000000 1.570796
53  -6.584470 -2.728488 -5.909889  -0.051945 0.000000 1.570796
time 20
0  0 0 0  0 0 0
1  0.000000 0.000000 0.000000  1.570796 -0.000000 0.000000
2  6.688313 0.001464 -6.000000  -0.180017 0.981463 -3.105344
3  -0.000000 13.479280 0.000000  0.356810 0.000000 -0.000000
4  -0.000000 13.477240 -0.000000  -0.260936 -0.968770 0.196263
5  -0.267269 3.664727 -1.953293  -0.106568 -0.025893 -0.137951
6  -0.000000 1.180355 -0.000001  -0.036623 -0.007435 -0.177465
7  -0.000001 0.817138 -0.000000  0.004200 -0.011559 0.007420
8  -0.249422 3.688542 -0.940889  -0.060580 -0.013550 -0.130737
9  0.000000 1.800634 -0.000000  0.004940 0.002077 -0.208495
10  0.000001 1.243406 -0.000000  0.006524 -0.000040 -0.064626
11  -0.244726 3.701097 0.087732  0.005036 0.002373 -0.139323
12  0.000000 1.766584 0.000000  0.002490 -0.003552 -0.259702
13  -0.000000 1.189003 0.000000  -0.017590 -0.001952 -0.152464
14  -0.277239 3.632249 1.274102  0.054558 0.010184 -0.144732
15  0.000001 1.798491 -0.000000  0.036314 0.010668 -0.285912
16  -0.000001 1.235453 -0.000000  -0.005152 0.006816 -0.068190
17  0.315441 0.857301 0.755944  1.684115 0.560091 1.563926
18  0.000001 2.265939 -0.000000  -0.057905 -0.032805 -0.238898
19  -0.000001 1.457808 0.000000  -0.029609 0.046490 0.034285
20  -1.259681 3.818376 1.286945  0.054558 0.010184 -0.144732
21  -1.226390 3.891694 0.090419  0.005036 0.002373 -0.139324
22  -1.231623 3.875535 -0.958681  -0.060580 -0.013550 -0.130737
23  -1.209919 3.994782 -2.003048  -0.106568 -0.025893 -0.137951
24  0.328906 0.095429 1.403532  1.684115 0.560091 1.563926
25  7.685551 -26.508362 -6.023971  0.000000 -0.000000 -3.141593
26  20.158314 0.001465 -15.000000  -1.570796 -0.000000 -1.570796
27  6.688313 0.001464 -6.000000  -0.051945 -0.000000 -1.570796
28  -6.584470 -2.598536 -6.097302  0.986251 0.080824 2.908392
29  0.000002 13.479277 0.000001  0.799590 -0.000000 0.000000
30  0.000001 13.477239 -0.000000  -0.221035 0.244975 0.028276
31  0.267270 3.664726 -1.953293  -0.174603 0.396888 0.692349
32  -0.000002 1.180353 -0.000000  -0.024711 0.025798 1.296299
33  -0.000003 0.817136 -0.000001  0.012232 0.001270 1.111333
34  0.249423 3.688542 -0.940889  -0.050028 0.197908 0.917566
35  0.000001 1.800633 0.000001  -0.007162 -0.012483 1.774974
36  0.000000 1.243406 -0.000000  0.004183 -0.005006 0.945407
37  0.244727 3.701096 0.087732  0.012445 0.020003 0.934973
38  0.000001 1.766584 0.000000  0.006918 0.000685 1.464509
39  0.000000 1.189004 -0.000000  -0.004472 0.017123 1.357249
40  0.277239 3.632249 1.274102  0.065416 -0.152210 0.927371
41  -0.000001 1.798495 0.000000  0.022849 -0.016745 1.078747
42  0.000001 1.235453 0.000000  -0.007143 0.004688 1.572574
43  -0.315441 0.857301 0.755943  -0.623037 -2.717983 1.196723
44  -0.000002 2.265940 -0.000000  -0.034963 0.056629 0.741260
45  0.000000 1.457811 -0.000000  -0.048332 -0.026494 0.468069
46  1.259681 3.818375 1.286945  0.065416 -0.152210 0.927371
47  1.226391 3.891694 0.090419  0.012445 0.020003 0.934972
48  1.231624 3.875534 -0.958681  -0.050028 0.197908 0.917566
49  1.209920 3.994781 -2.003048  -0.174603 0.396888 0.692349
50  -0.328906 0.095429 1.403532  -0.623037 -2.717983 1.196723
51  -9.555967 -6.581827 18.230465  1.570796 -0.000000 -3.141593
52  -8.428300 -13.481788 -15.000002  -1.570796 -0.000000 1.570796
53  -6.584470 -2.598536 -6.097302  -0.051945 0.000000 1.570796
end
