version 1
nodes
0 "blender_implicit" -1
1 "root" -1
2 "upperarm_l" 1
3 "lowerarm_l" 2
4 "hand_l" 3
5 "pinky_0_l" 4
6 "pinky_1_l" 5
7 "pinky_2_l" 6
8 "ring_0_l" 4
9 "ring_1_l" 8
10 "ring_2_l" 9
11 "middle_0_l" 4
12 "middle_1_l" 11
13 "middle_2_l" 12
14 "index_0_l" 4
15 "index_1_l" 14
16 "index_2_l" 15
17 "thumb_0_l" 4
18 "thumb_1_l" 17
19 "thumb_2_l" 18
20 "rig_index_l" 4
21 "rig_middle_l" 4
22 "rig_ring_l" 4
23 "rig_pinky_l" 4
24 "rig_thumb_l" 4
25 "rig_hand_l" 1
26 "rig_l" 1
27 "rig_upperarm_l" 1
28 "upperarm_r" 1
29 "lowerarm_r" 28
30 "hand_r" 29
31 "pinky_0_r" 30
32 "pinky_1_r" 31
33 "pinky_2_r" 32
34 "ring_0_r" 30
35 "ring_1_r" 34
36 "ring_2_r" 35
37 "middle_0_r" 30
38 "middle_1_r" 37
39 "middle_2_r" 38
40 "index_0_r" 30
41 "index_1_r" 40
42 "index_2_r" 41
43 "thumb_0_r" 30
44 "thumb_1_r" 43
45 "thumb_2_r" 44
46 "rig_index_r" 30
47 "rig_middle_r" 30
48 "rig_ring_r" 30
49 "rig_pinky_r" 30
50 "rig_thumb_r" 30
51 "rig_hand_r" 1
52 "rig_r" 1
53 "rig_upperarm_r" 1
end
skeleton
time 0
0  0 0 0  0 0 0
1  0.000000 0.000000 0.000000  1.570796 -0.000000 0.000000
2  6.688313 0.001464 -6.000000  -0.180017 0.981463 -3.105344
3  -0.000000 13.479280 0.000000  0.356810 0.000000 -0.000000
4  -0.000000 13.477240 -0.000000  -0.260936 -0.968770 0.196263
5  -0.267269 3.664727 -1.953293  -0.106568 -0.025893 -0.137951
6  -0.000000 1.180355 -0.000001  -0.036623 -0.007435 -0.177465
7  -0.000001 0.817138 -0.000000  0.004200 -0.011559 0.007420
8  -0.249422 3.688542 -0.940889  -0.060580 -0.013550 -0.130737
9  0.000000 1.800634 -0.000000  0.004940 0.002077 -0.208495
10  0.000001 1.243406 -0.000000  0.006524 -0.000040 -0.064626
11  -0.244726 3.701097 0.087732  0.005036 0.002373 -0.139323
12  0.000000 1.766584 0.000000  0.002490 -0.003552 -0.259702
13  -0.000000 1.189003 0.000000  -0.017590 -0.001952 -0.152464
14  -0.277239 3.632249 1.274102  0.054558 0.010184 -0.144732
15  0.000001 1.798491 -0.000000  0.036314 0.010668 -0.285912
16  -0.000001 1.235453 -0.000000  -0.005152 0.006816 -0.068190
17  0.315441 0.857301 0.755944  1.684115 0.560091 1.563926
18  0.000001 2.265939 -0.000000  -0.057905 -0.032805 -0.238898
19  -0.000001 1.457808 0.000000  -0.029609 0.046490 0.034285
20  -1.259681 3.818376 1.286945  0.054558 0.010184 -0.144732
21  -1.226390 3.891694 0.090419  0.005036 0.002373 -0.139324
22  -1.231623 3.875535 -0.958681  -0.060580 -0.013550 -0.130737
23  -1.209919 3.994782 -2.003048  -0.106568 -0.025893 -0.137951
24  0.328906 0.095429 1.403532  1.684115 0.560091 1.563926
25  7.685551 -26.508362 -6.023971  0.000000 -0.000000 -3.141593
26  20.158314 0.001465 -15.000000  -1.570796 -0.000000 -1.570796
27  6.688313 0.001464 -6.000000  -0.051945 -0.000000 -1.570796
28  -6.584470 -2.598536 -6.097302  0.986251 0.080824 2.908392
29  0.000002 13.479277 0.000001  0.799590 -0.000000 0.000000
30  0.000001 13.477239 -0.000000  -0.221035 0.244975 0.028276
31  0.267269 3.664726 -1.953293  -0.174603 0.396888 0.692349
32  0.000002 1.180355 0.000001  -0.024711 0.025798 1.296299
33  0.000002 0.817134 0.000000  0.012232 0.001270 1.111333
34  0.249423 3.688542 -0.940889  -0.050028 0.197908 0.917566
35  0.000000 1.800633 0.000000  -0.007162 -0.012483 1.774974
36  -0.000001 1.243407 -0.000000  0.004183 -0.005006 0.945407
37  0.244727 3.701096 0.087733  0.012445 0.020003 0.934973
38  0.000002 1.766585 -0.000000  0.006918 0.000685 1.464509
39  -0.000001 1.189003 -0.000000  -0.004472 0.017123 1.357249
40  0.277240 3.632249 1.274102  0.065416 -0.152210 0.927372
41  -0.000001 1.798495 -0.000000  0.022849 -0.016745 1.078747
42  0.000001 1.235453 0.000001  -0.007143 0.004688 1.572574
43  -0.315441 0.857301 0.755943  -0.623037 -2.717983 1.196723
44  -0.000001 2.265940 0.000000  -0.034963 0.056629 0.741260
45  0.000000 1.457809 -0.000000  -0.048332 -0.026494 0.468069
46  1.259682 3.818375 1.286946  0.065416 -0.152210 0.927372
47  1.226391 3.891694 0.090419  0.012445 0.020003 0.934972
48  1.231623 3.875534 -0.958680  -0.050028 0.197908 0.917566
49  1.209919 3.994781 -2.003048  -0.174603 0.396888 0.692349
50  -0.328906 0.095429 1.403532  -0.623037 -2.717983 1.196723
51  -9.555967 -6.581827 18.230465  1.570796 -0.000000 3.141593
52  -8.428300 -13.481788 -15.000002  -1.570796 -0.000000 1.570796
53  -6.584470 -2.598536 -6.097302  -0.051945 0.000000 1.570796
time 1
0  0 0 0  0 0 0
1  0.000000 0.000000 0.000000  1.570796 -0.000000 0.000000
2  6.688313 0.001464 -6.000000  -0.180017 0.981463 -3.105344
3  -0.000000 13.479280 0.000000  0.356810 0.000000 -0.000000
4  -0.000000 13.477240 -0.000000  -0.260936 -0.968770 0.196263
5  -0.267269 3.664727 -1.953293  -0.106568 -0.025893 -0.137951
6  -0.000000 1.180355 -0.000001  -0.036623 -0.007435 -0.177465
7  -0.000001 0.817138 -0.000000  0.004200 -0.011559 0.007420
8  -0.249422 3.688542 -0.940889  -0.060580 -0.013550 -0.130737
9  0.000000 1.800634 -0.000000  0.004940 0.002077 -0.208495
10  0.000001 1.243406 -0.000000  0.006524 -0.000040 -0.064626
11  -0.244726 3.701097 0.087732  0.005036 0.002373 -0.139323
12  0.000000 1.766584 0.000000  0.002490 -0.003552 -0.259702
13  -0.000000 1.189003 0.000000  -0.017590 -0.001952 -0.152464
14  -0.277239 3.632249 1.274102  0.054558 0.010184 -0.144732
15  0.000001 1.798491 -0.000000  0.036314 0.010668 -0.285912
16  -0.000001 1.235453 -0.000000  -0.005152 0.006816 -0.068190
17  0.315441 0.857301 0.755944  1.684115 0.560091 1.563926
18  0.000001 2.265939 -0.000000  -0.057905 -0.032805 -0.238898
19  -0.000001 1.457808 0.000000  -0.029609 0.046490 0.034285
20  -1.259681 3.818376 1.286945  0.054558 0.010184 -0.144732
21  -1.226390 3.891694 0.090419  0.005036 0.002373 -0.139324
22  -1.231623 3.875535 -0.958681  -0.060580 -0.013550 -0.130737
23  -1.209919 3.994782 -2.003048  -0.106568 -0.025893 -0.137951
24  0.328906 0.095429 1.403532  1.684115 0.560091 1.563926
25  7.685551 -26.508362 -6.023971  0.000000 -0.000000 -3.141593
26  20.158314 0.001465 -15.000000  -1.570796 -0.000000 -1.570796
27  6.688313 0.001464 -6.000000  -0.051945 -0.000000 -1.570796
28  -6.584470 -2.598536 -6.097302  1.104041 -0.278684 2.317866
29  0.000000 13.479275 -0.000001  0.776829 -0.000000 0.000000
30  -0.000000 13.477239 -0.000002  0.557144 0.162360 -0.250531
31  0.267270 3.664726 -1.953290  -0.174603 0.396888 0.692349
32  0.000001 1.180356 0.000000  -0.024711 0.025798 1.296299
33  -0.000000 0.817136 0.000001  0.012232 0.001270 1.111333
34  0.249423 3.688541 -0.940887  -0.050028 0.197908 0.917566
35  0.000002 1.800633 -0.000000  -0.007162 -0.012483 1.774974
36  -0.000001 1.243409 -0.000001  0.004183 -0.005006 0.945407
37  0.244726 3.701094 0.087736  0.012445 0.020002 0.934972
38  -0.000000 1.766584 0.000000  0.006918 0.000685 1.464509
39  -0.000000 1.189004 0.000002  -0.004472 0.017123 1.357249
40  0.277239 3.632249 1.274104  0.065416 -0.152210 0.927371
41  -0.000000 1.798494 0.000001  0.022849 -0.016745 1.078746
42  0.000000 1.235452 0.000000  -0.007143 0.004688 1.572573
43  -0.315441 0.857298 0.755947  -0.623037 -2.717983 1.196723
44  -0.000002 2.265939 -0.000000  -0.034963 0.056629 0.741260
45  -0.000000 1.457811 0.000001  -0.048332 -0.026494 0.468069
46  1.259681 3.818375 1.286948  0.065416 -0.152210 0.927371
47  1.226391 3.891692 0.090423  0.012445 0.020003 0.934972
48  1.231623 3.875533 -0.958676  -0.050028 0.197908 0.917566
49  1.209919 3.994781 -2.003046  -0.174603 0.396887 0.692349
50  -0.328906 0.095428 1.403536  -0.623037 -2.717983 1.196723
51  -3.368525 -8.945569 17.814579  -0.725508 -3.055068 -0.592214
52  -18.587030 -13.643627 -6.279183  -1.570796 -0.000000 1.570796
53  -6.584470 -2.598536 -6.097302  -0.051945 0.000000 1.570796
time 2
0  0 0 0  0 0 0
1  0.000000 0.000000 0.000000  1.570796 -0.000000 0.000000
2  6.688313 0.001464 -6.000000  -0.180017 0.981463 -3.105344
3  -0.000000 13.479280 0.000000  0.356810 0.000000 -0.000000
4  -0.000000 13.477240 -0.000000  -0.260936 -0.968770 0.196263
5  -0.267269 3.664727 -1.953293  -0.106568 -0.025893 -0.137951
6  -0.000000 1.180355 -0.000001  -0.036623 -0.007435 -0.177465
7  -0.000001 0.817138 -0.000000  0.004200 -0.011559 0.007420
8  -0.249422 3.688542 -0.940889  -0.060580 -0.013550 -0.130737
9  0.000000 1.800634 -0.000000  0.004940 0.002077 -0.208495
10  0.000001 1.243406 -0.000000  0.006524 -0.000040 -0.064626
11  -0.244726 3.701097 0.087732  0.005036 0.002373 -0.139323
12  0.000000 1.766584 0.000000  0.002490 -0.003552 -0.259702
13  -0.000000 1.189003 0.000000  -0.017590 -0.001952 -0.152464
14  -0.277239 3.632249 1.274102  0.054558 0.010184 -0.144732
15  0.000001 1.798491 -0.000000  0.036314 0.010668 -0.285912
16  -0.000001 1.235453 -0.000000  -0.005152 0.006816 -0.068190
17  0.315441 0.857301 0.755944  1.684115 0.560091 1.563926
18  0.000001 2.265939 -0.000000  -0.057905 -0.032805 -0.238898
19  -0.000001 1.457808 0.000000  -0.029609 0.046490 0.034285
20  -1.259681 3.818376 1.286945  0.054558 0.010184 -0.144732
21  -1.226390 3.891694 0.090419  0.005036 0.002373 -0.139324
22  -1.231623 3.875535 -0.958681  -0.060580 -0.013550 -0.130737
23  -1.209919 3.994782 -2.003048  -0.106568 -0.025893 -0.137951
24  0.328906 0.095429 1.403532  1.684115 0.560091 1.563926
25  7.685551 -26.508362 -6.023971  0.000000 -0.000000 -3.141593
26  20.158314 0.001465 -15.000000  -1.570796 -0.000000 -1.570796
27  6.688313 0.001464 -6.000000  -0.051945 -0.000000 -1.570796
28  -6.584470 -2.598536 -6.097302  1.359032 -0.278995 1.783070
29  0.000000 13.479275 -0.000000  1.083925 -0.000000 0.000000
30  0.000000 13.477240 -0.000001  0.421191 0.368759 0.104734
31  0.267270 3.664725 -1.953292  -0.174603 0.396888 0.692349
32  -0.000001 1.180355 0.000000  -0.024711 0.025798 1.296299
33  0.000000 0.817138 0.000000  0.012232 0.001270 1.111333
34  0.249422 3.688540 -0.940887  -0.050028 0.197908 0.917566
35  0.000000 1.800632 -0.000001  -0.007162 -0.012483 1.774974
36  0.000000 1.243405 -0.000001  0.004184 -0.005006 0.945407
37  0.244727 3.701094 0.087734  0.012445 0.020003 0.934973
38  0.000001 1.766584 -0.000000  0.006918 0.000685 1.464509
39  0.000000 1.189003 0.000002  -0.004472 0.017123 1.357249
40  0.277239 3.632247 1.274103  0.065416 -0.152210 0.927371
41  -0.000000 1.798494 -0.000001  0.022849 -0.016745 1.078747
42  0.000001 1.235452 -0.000001  -0.007143 0.004688 1.572574
43  -0.315440 0.857299 0.755944  -0.623037 -2.717984 1.196723
44  0.000000 2.265939 0.000001  -0.034963 0.056629 0.741260
45  0.000000 1.457811 0.000001  -0.048332 -0.026494 0.468068
46  1.259681 3.818374 1.286946  0.065416 -0.152210 0.927371
47  1.226391 3.891693 0.090421  0.012445 0.020003 0.934972
48  1.231623 3.875533 -0.958679  -0.050028 0.197908 0.917566
49  1.209919 3.994781 -2.003046  -0.174603 0.396887 0.692349
50  -0.328905 0.095428 1.403532  -0.623037 -2.717983 1.196723
51  2.001118 -6.902289 14.903381  -0.382907 -2.521512 -1.164180
52  -37.453247 -13.944189 9.916624  -1.570796 -0.000000 1.570796
53  -6.584470 -2.598536 -6.097302  -0.051945 0.000000 1.570796
time 3
0  0 0 0  0 0 0
1  0.000000 0.000000 0.000000  1.570796 -0.000000 0.000000
2  6.688313 0.001464 -6.000000  -0.180017 0.981463 -3.105344
3  -0.000000 13.479280 0.000000  0.356810 0.000000 -0.000000
4  -0.000000 13.477240 -0.000000  -0.260936 -0.968770 0.196263
5  -0.267269 3.664727 -1.953293  -0.106568 -0.025893 -0.137951
6  -0.000000 1.180355 -0.000001  -0.036623 -0.007435 -0.177465
7  -0.000001 0.817138 -0.000000  0.004200 -0.011559 0.007420
8  -0.249422 3.688542 -0.940889  -0.060580 -0.013550 -0.130737
9  0.000000 1.800634 -0.000000  0.004940 0.002077 -0.208495
10  0.000001 1.243406 -0.000000  0.006524 -0.000040 -0.064626
11  -0.244726 3.701097 0.087732  0.005036 0.002373 -0.139323
12  0.000000 1.766584 0.000000  0.002490 -0.003552 -0.259702
13  -0.000000 1.189003 0.000000  -0.017590 -0.001952 -0.152464
14  -0.277239 3.632249 1.274102  0.054558 0.010184 -0.144732
15  0.000001 1.798491 -0.000000  0.036314 0.010668 -0.285912
16  -0.000001 1.235453 -0.000000  -0.005152 0.006816 -0.068190
17  0.315441 0.857301 0.755944  1.684115 0.560091 1.563926
18  0.000001 2.265939 -0.000000  -0.057905 -0.032805 -0.238898
19  -0.000001 1.457808 0.000000  -0.029609 0.046490 0.034285
20  -1.259681 3.818376 1.286945  0.054558 0.010184 -0.144732
21  -1.226390 3.891694 0.090419  0.005036 0.002373 -0.139324
22  -1.231623 3.875535 -0.958681  -0.060580 -0.013550 -0.130737
23  -1.209919 3.994782 -2.003048  -0.106568 -0.025893 -0.137951
24  0.328906 0.095429 1.403532  1.684115 0.560091 1.563926
25  7.685551 -26.508362 -6.023971  0.000000 -0.000000 -3.141593
26  20.158314 0.001465 -15.000000  -1.570796 -0.000000 -1.570796
27  6.688313 0.001464 -6.000000  -0.051945 -0.000000 -1.570796
28  -6.584470 -2.598536 -6.097302  1.464022 -0.195237 1.729205
29  0.000000 13.479276 0.000001  1.396097 -0.000000 0.000000
30  0.000000 13.477240 -0.000002  0.339532 0.532488 0.037264
31  0.267270 3.664725 -1.953292  -0.174603 0.396888 0.692349
32  0.000000 1.180355 -0.000001  -0.024711 0.025798 1.296299
33  -0.000002 0.817135 -0.000000  0.012232 0.001270 1.111333
34  0.249423 3.688541 -0.940889  -0.050028 0.197908 0.917566
35  -0.000001 1.800633 0.000001  -0.007162 -0.012483 1.774974
36  -0.000000 1.243405 0.000001  0.004183 -0.005006 0.945407
37  0.244727 3.701095 0.087733  0.012445 0.020002 0.934973
38  0.000000 1.766585 0.000000  0.006918 0.000685 1.464509
39  0.000000 1.189004 -0.000001  -0.004472 0.017123 1.357249
40  0.277240 3.632247 1.274103  0.065416 -0.152210 0.927371
41  0.000000 1.798494 -0.000001  0.022849 -0.016745 1.078746
42  0.000001 1.235451 -0.000000  -0.007143 0.004688 1.572574
43  -0.315441 0.857300 0.755945  -0.623037 -2.717983 1.196723
44  -0.000001 2.265939 0.000000  -0.034963 0.056629 0.741260
45  0.000001 1.457812 0.000000  -0.048332 -0.026494 0.468068
46  1.259682 3.818374 1.286946  0.065416 -0.152210 0.927372
47  1.226392 3.891693 0.090420  0.012445 0.020002 0.934972
48  1.231623 3.875533 -0.958679  -0.050028 0.197907 0.917566
49  1.209919 3.994781 -2.003047  -0.174603 0.396888 0.692349
50  -0.328905 0.095428 1.403533  -0.623037 -2.717983 1.196723
51  5.305485 -4.067455 10.722109  -0.018556 -2.428463 -1.266182
52  -47.611977 -14.106030 18.637440  -1.570796 -0.000000 1.570796
53  -6.584470 -2.598536 -6.097302  -0.051945 0.000000 1.570796
time 4
0  0 0 0  0 0 0
1  0.000000 0.000000 0.000000  1.570796 -0.000000 0.000000
2  6.688313 0.001464 -6.000000  -0.180017 0.981463 -3.105344
3  -0.000000 13.479280 0.000000  0.356810 0.000000 -0.000000
4  -0.000000 13.477240 -0.000000  -0.260936 -0.968770 0.196263
5  -0.267269 3.664727 -1.953293  -0.106568 -0.025893 -0.137951
6  -0.000000 1.180355 -0.000001  -0.036623 -0.007435 -0.177465
7  -0.000001 0.817138 -0.000000  0.004200 -0.011559 0.007420
8  -0.249422 3.688542 -0.940889  -0.060580 -0.013550 -0.130737
9  0.000000 1.800634 -0.000000  0.004940 0.002077 -0.208495
10  0.000001 1.243406 -0.000000  0.006524 -0.000040 -0.064626
11  -0.244726 3.701097 0.087732  0.005036 0.002373 -0.139323
12  0.000000 1.766584 0.000000  0.002490 -0.003552 -0.259702
13  -0.000000 1.189003 0.000000  -0.017590 -0.001952 -0.152464
14  -0.277239 3.632249 1.274102  0.054558 0.010184 -0.144732
15  0.000001 1.798491 -0.000000  0.036314 0.010668 -0.285912
16  -0.000001 1.235453 -0.000000  -0.005152 0.006816 -0.068190
17  0.315441 0.857301 0.755944  1.684115 0.560091 1.563926
18  0.000001 2.265939 -0.000000  -0.057905 -0.032805 -0.238898
19  -0.000001 1.457808 0.000000  -0.029609 0.046490 0.034285
20  -1.259681 3.818376 1.286945  0.054558 0.010184 -0.144732
21  -1.226390 3.891694 0.090419  0.005036 0.002373 -0.139324
22  -1.231623 3.875535 -0.958681  -0.060580 -0.013550 -0.130737
23  -1.209919 3.994782 -2.003048  -0.106568 -0.025893 -0.137951
24  0.328906 0.095429 1.403532  1.684115 0.560091 1.563926
25  7.685551 -26.508362 -6.023971  0.000000 -0.000000 -3.141593
26  20.158314 0.001465 -15.000000  -1.570796 -0.000000 -1.570796
27  6.688313 0.001464 -6.000000  -0.051945 -0.000000 -1.570796
28  -6.584470 -2.598536 -4.597302  1.439660 -0.184745 1.745108
29  0.000000 13.479274 -0.000001  1.036046 -0.000000 0.000000
30  0.000001 13.477240 0.000000  -0.549477 0.020421 -0.458684
31  0.267270 3.664726 -1.953293  -0.174603 0.396887 0.692349
32  0.000001 1.180356 -0.000001  -0.024711 0.025798 1.296299
33  -0.000000 0.817135 0.000001  0.012232 0.001270 1.111333
34  0.249423 3.688541 -0.940889  -0.050028 0.197908 0.917566
35  -0.000001 1.800634 0.000000  -0.007162 -0.012483 1.774974
36  -0.000000 1.243407 -0.000000  0.004184 -0.005006 0.945407
37  0.244727 3.701095 0.087733  0.012445 0.020003 0.934972
38  0.000001 1.766583 0.000000  0.006918 0.000685 1.464509
39  -0.000001 1.189003 0.000000  -0.004472 0.017123 1.357249
40  0.277239 3.632249 1.274101  0.065416 -0.152210 0.927371
41  -0.000001 1.798493 0.000001  0.022849 -0.016745 1.078746
42  -0.000003 1.235452 0.000000  -0.007143 0.004688 1.572574
43  -0.315441 0.857300 0.755944  -0.623037 -2.717983 1.196723
44  -0.000001 2.265940 0.000000  -0.034963 0.056629 0.741260
45  0.000000 1.457810 0.000000  -0.048332 -0.026494 0.468069
46  1.259681 3.818375 1.286946  0.065416 -0.152210 0.927371
47  1.226391 3.891695 0.090418  0.012445 0.020003 0.934972
48  1.231624 3.875535 -0.958681  -0.050028 0.197908 0.917566
49  1.209919 3.994782 -2.003048  -0.174603 0.396887 0.692349
50  -0.328906 0.095428 1.403532  -0.623037 -2.717983 1.196723
51  2.807724 -4.989975 16.722111  1.912789 0.088469 2.115668
52  -47.221176 -14.099803 18.301956  -1.570796 -0.000000 1.570796
53  -6.584470 -2.598536 -4.597302  -0.051945 0.000000 1.570796
time 5
0  0 0 0  0 0 0
1  0.000000 0.000000 0.000000  1.570796 -0.000000 0.000000
2  6.688313 0.001464 -6.000000  -0.180017 0.981463 -3.105344
3  -0.000000 13.479280 0.000000  0.356810 0.000000 -0.000000
4  -0.000000 13.477240 -0.000000  -0.260936 -0.968770 0.196263
5  -0.267269 3.664727 -1.953293  -0.106568 -0.025893 -0.137951
6  -0.000000 1.180355 -0.000001  -0.036623 -0.007435 -0.177465
7  -0.000001 0.817138 -0.000000  0.004200 -0.011559 0.007420
8  -0.249422 3.688542 -0.940889  -0.060580 -0.013550 -0.130737
9  0.000000 1.800634 -0.000000  0.004940 0.002077 -0.208495
10  0.000001 1.243406 -0.000000  0.006524 -0.000040 -0.064626
11  -0.244726 3.701097 0.087732  0.005036 0.002373 -0.139323
12  0.000000 1.766584 0.000000  0.002490 -0.003552 -0.259702
13  -0.000000 1.189003 0.000000  -0.017590 -0.001952 -0.152464
14  -0.277239 3.632249 1.274102  0.054558 0.010184 -0.144732
15  0.000001 1.798491 -0.000000  0.036314 0.010668 -0.285912
16  -0.000001 1.235453 -0.000000  -0.005152 0.006816 -0.068190
17  0.315441 0.857301 0.755944  1.684115 0.560091 1.563926
18  0.000001 2.265939 -0.000000  -0.057905 -0.032805 -0.238898
19  -0.000001 1.457808 0.000000  -0.029609 0.046490 0.034285
20  -1.259681 3.818376 1.286945  0.054558 0.010184 -0.144732
21  -1.226390 3.891694 0.090419  0.005036 0.002373 -0.139324
22  -1.231623 3.875535 -0.958681  -0.060580 -0.013550 -0.130737
23  -1.209919 3.994782 -2.003048  -0.106568 -0.025893 -0.137951
24  0.328906 0.095429 1.403532  1.684115 0.560091 1.563926
25  7.685551 -26.508362 -6.023971  0.000000 -0.000000 -3.141593
26  20.158314 0.001465 -15.000000  -1.570796 -0.000000 -1.570796
27  6.688313 0.001464 -6.000000  -0.051945 -0.000000 -1.570796
28  -6.584470 -2.598536 -3.097302  1.439926 -0.192985 1.756304
29  -0.000000 13.479277 0.000000  0.413039 -0.000000 0.000000
30  0.000000 13.477240 0.000000  -1.191780 -0.078095 -0.558439
31  0.267272 3.664725 -1.953295  -0.174603 0.396887 0.692349
32  0.000000 1.180355 0.000000  -0.024711 0.025798 1.296299
33  0.000000 0.817135 0.000001  0.012232 0.001270 1.111333
34  0.249424 3.688541 -0.940890  -0.050028 0.197908 0.917566
35  -0.000001 1.800632 0.000000  -0.007162 -0.012483 1.774975
36  -0.000001 1.243406 0.000001  0.004183 -0.005006 0.945407
37  0.244727 3.701096 0.087731  0.012445 0.020003 0.934972
38  0.000000 1.766585 0.000001  0.006918 0.000685 1.464509
39  -0.000000 1.189004 0.000000  -0.004472 0.017123 1.357249
40  0.277240 3.632248 1.274103  0.065416 -0.152210 0.927372
41  0.000000 1.798496 -0.000000  0.022849 -0.016745 1.078747
42  0.000001 1.235452 0.000001  -0.007143 0.004688 1.572574
43  -0.315439 0.857299 0.755942  -0.623037 -2.717983 1.196723
44  0.000000 2.265941 0.000001  -0.034963 0.056629 0.741260
45  -0.000002 1.457810 0.000000  -0.048332 -0.026494 0.468068
46  1.259682 3.818375 1.286944  0.065416 -0.152210 0.927371
47  1.226393 3.891693 0.090417  0.012445 0.020003 0.934972
48  1.231625 3.875534 -0.958682  -0.050028 0.197908 0.917566
49  1.209920 3.994781 -2.003050  -0.174603 0.396887 0.692349
50  -0.328904 0.095427 1.403530  -0.623037 -2.717983 1.196723
51  -3.694515 -7.189830 22.722111  0.645703 0.365162 1.833628
52  -46.112579 -14.082143 17.350277  -1.570796 -0.000000 1.570796
53  -6.584470 -2.598536 -3.097302  -0.051945 0.000000 1.570796
time 6
0  0 0 0  0 0 0
1  0.000000 0.000000 0.000000  1.570796 -0.000000 0.000000
2  6.688313 0.001464 -6.000000  -0.180017 0.981463 -3.105344
3  -0.000000 13.479280 0.000000  0.356810 0.000000 -0.000000
4  -0.000000 13.477240 -0.000000  -0.260936 -0.968770 0.196263
5  -0.267269 3.664727 -1.953293  -0.106568 -0.025893 -0.137951
6  -0.000000 1.180355 -0.000001  -0.036623 -0.007435 -0.177465
7  -0.000001 0.817138 -0.000000  0.004200 -0.011559 0.007420
8  -0.249422 3.688542 -0.940889  -0.060580 -0.013550 -0.130737
9  0.000000 1.800634 -0.000000  0.004940 0.002077 -0.208495
10  0.000001 1.243406 -0.000000  0.006524 -0.000040 -0.064626
11  -0.244726 3.701097 0.087732  0.005036 0.002373 -0.139323
12  0.000000 1.766584 0.000000  0.002490 -0.003552 -0.259702
13  -0.000000 1.189003 0.000000  -0.017590 -0.001952 -0.152464
14  -0.277239 3.632249 1.274102  0.054558 0.010184 -0.144732
15  0.000001 1.798491 -0.000000  0.036314 0.010668 -0.285912
16  -0.000001 1.235453 -0.000000  -0.005152 0.006816 -0.068190
17  0.315441 0.857301 0.755944  1.684115 0.560091 1.563926
18  0.000001 2.265939 -0.000000  -0.057905 -0.032805 -0.238898
19  -0.000001 1.457808 0.000000  -0.029609 0.046490 0.034285
20  -1.259681 3.818376 1.286945  0.054558 0.010184 -0.144732
21  -1.226390 3.891694 0.090419  0.005036 0.002373 -0.139324
22  -1.231623 3.875535 -0.958681  -0.060580 -0.013550 -0.130737
23  -1.209919 3.994782 -2.003048  -0.106568 -0.025893 -0.137951
24  0.328906 0.095429 1.403532  1.684115 0.560091 1.563926
25  7.685551 -26.508362 -6.023971  0.000000 -0.000000 -3.141593
26  20.158314 0.001465 -15.000000  -1.570796 -0.000000 -1.570796
27  6.688313 0.001464 -6.000000  -0.051945 -0.000000 -1.570796
28  -6.584470 -2.598536 -3.135524  0.974997 -0.251605 1.741108
29  0.000001 13.479277 0.000001  0.642066 -0.000000 0.000000
30  -0.000001 13.477240 0.000000  -1.694732 0.075414 -0.617453
31  0.267270 3.664727 -1.953294  -0.174603 0.396888 0.692349
32  -0.000000 1.180357 0.000000  -0.024711 0.025798 1.296300
33  0.000000 0.817136 0.000001  0.012232 0.001270 1.111333
34  0.249423 3.688541 -0.940886  -0.050028 0.197908 0.917566
35  0.000000 1.800633 0.000002  -0.007161 -0.012483 1.774974
36  -0.000002 1.243405 0.000000  0.004183 -0.005006 0.945407
37  0.244726 3.701095 0.087734  0.012445 0.020002 0.934973
38  0.000000 1.766584 0.000003  0.006918 0.000685 1.464509
39  0.000000 1.189003 0.000001  -0.004472 0.017123 1.357249
40  0.277238 3.632248 1.274104  0.065416 -0.152210 0.927371
41  0.000000 1.798492 -0.000001  0.022849 -0.016745 1.078747
42  0.000002 1.235452 -0.000001  -0.007143 0.004688 1.572574
43  -0.315442 0.857300 0.755946  -0.623037 -2.717983 1.196723
44  0.000000 2.265940 -0.000002  -0.034963 0.056629 0.741260
45  0.000000 1.457812 0.000000  -0.048332 -0.026494 0.468069
46  1.259680 3.818376 1.286946  0.065416 -0.152210 0.927371
47  1.226390 3.891694 0.090422  0.012445 0.020003 0.934972
48  1.231625 3.875535 -0.958679  -0.050028 0.197908 0.917566
49  1.209918 3.994781 -2.003047  -0.174603 0.396888 0.692349
50  -0.328907 0.095428 1.403533  -0.623037 -2.717983 1.196723
51  -12.386013 -9.815463 20.708694  -0.047369 0.360510 1.850293
52  -44.381893 -14.054571 15.864557  -1.570796 -0.000000 1.570796
53  -6.584470 -2.598536 -3.135524  -0.051945 0.000000 1.570796
time 7
0  0 0 0  0 0 0
1  0.000000 0.000000 0.000000  1.570796 -0.000000 0.000000
2  6.688313 0.001464 -6.000000  -0.180017 0.981463 -3.105344
3  -0.000000 13.479280 0.000000  0.356810 0.000000 -0.000000
4  -0.000000 13.477240 -0.000000  -0.260936 -0.968770 0.196263
5  -0.267269 3.664727 -1.953293  -0.106568 -0.025893 -0.137951
6  -0.000000 1.180355 -0.000001  -0.036623 -0.007435 -0.177465
7  -0.000001 0.817138 -0.000000  0.004200 -0.011559 0.007420
8  -0.249422 3.688542 -0.940889  -0.060580 -0.013550 -0.130737
9  0.000000 1.800634 -0.000000  0.004940 0.002077 -0.208495
10  0.000001 1.243406 -0.000000  0.006524 -0.000040 -0.064626
11  -0.244726 3.701097 0.087732  0.005036 0.002373 -0.139323
12  0.000000 1.766584 0.000000  0.002490 -0.003552 -0.259702
13  -0.000000 1.189003 0.000000  -0.017590 -0.001952 -0.152464
14  -0.277239 3.632249 1.274102  0.054558 0.010184 -0.144732
15  0.000001 1.798491 -0.000000  0.036314 0.010668 -0.285912
16  -0.000001 1.235453 -0.000000  -0.005152 0.006816 -0.068190
17  0.315441 0.857301 0.755944  1.684115 0.560091 1.563926
18  0.000001 2.265939 -0.000000  -0.057905 -0.032805 -0.238898
19  -0.000001 1.457808 0.000000  -0.029609 0.046490 0.034285
20  -1.259681 3.818376 1.286945  0.054558 0.010184 -0.144732
21  -1.226390 3.891694 0.090419  0.005036 0.002373 -0.139324
22  -1.231623 3.875535 -0.958681  -0.060580 -0.013550 -0.130737
23  -1.209919 3.994782 -2.003048  -0.106568 -0.025893 -0.137951
24  0.328906 0.095429 1.403532  1.684115 0.560091 1.563926
25  7.685551 -26.508362 -6.023971  0.000000 -0.000000 -3.141593
26  20.158314 0.001465 -15.000000  -1.570796 -0.000000 -1.570796
27  6.688313 0.001464 -6.000000  -0.051945 -0.000000 -1.570796
28  -6.584470 -2.598536 -3.243080  0.683951 -0.358009 1.708759
29  0.000000 13.479275 0.000001  0.564349 -0.000000 0.000000
30  0.000000 13.477239 0.000002  -1.714922 0.379743 -0.638568
31  0.267269 3.664726 -1.953294  -0.174603 0.396888 0.692349
32  -0.000000 1.180356 -0.000002  -0.024711 0.025798 1.296300
33  0.000000 0.817135 0.000003  0.012232 0.001270 1.111333
34  0.249423 3.688542 -0.940890  -0.050028 0.197908 0.917566
35  -0.000000 1.800633 -0.000000  -0.007161 -0.012483 1.774974
36  0.000002 1.243406 -0.000001  0.004183 -0.005006 0.945407
37  0.244725 3.701097 0.087734  0.012445 0.020002 0.934972
38  -0.000001 1.766583 0.000002  0.006918 0.000685 1.464509
39  -0.000001 1.189003 -0.000001  -0.004472 0.017123 1.357249
40  0.277238 3.632248 1.274102  0.065416 -0.152210 0.927371
41  0.000000 1.798494 0.000001  0.022849 -0.016745 1.078747
42  0.000000 1.235452 0.000002  -0.007143 0.004688 1.572574
43  -0.315442 0.857299 0.755943  -0.623037 -2.717983 1.196723
44  -0.000000 2.265941 0.000002  -0.034963 0.056629 0.741260
45  0.000002 1.457810 -0.000001  -0.048332 -0.026494 0.468069
46  1.259682 3.818375 1.286946  0.065416 -0.152210 0.927371
47  1.226390 3.891694 0.090419  0.012445 0.020003 0.934972
48  1.231622 3.875534 -0.958680  -0.050028 0.197908 0.917566
49  1.209918 3.994783 -2.003047  -0.174603 0.396888 0.692349
50  -0.328907 0.095429 1.403532  -0.623037 -2.717983 1.196723
51  -20.137041 -12.015322 16.705748  -0.340787 0.347418 1.897186
52  -42.124825 -14.018613 13.926966  -1.570796 -0.000000 1.570796
53  -6.584470 -2.598536 -3.243080  -0.051945 0.000000 1.570796
time 8
0  0 0 0  0 0 0
1  0.000000 0.000000 0.000000  1.570796 -0.000000 0.000000
2  6.688313 0.001464 -6.000000  -0.180017 0.981463 -3.105344
3  -0.000000 13.479280 0.000000  0.356810 0.000000 -0.000000
4  -0.000000 13.477240 -0.000000  -0.260936 -0.968770 0.196263
5  -0.267269 3.664727 -1.953293  -0.106568 -0.025893 -0.137951
6  -0.000000 1.180355 -0.000001  -0.036623 -0.007435 -0.177465
7  -0.000001 0.817138 -0.000000  0.004200 -0.011559 0.007420
8  -0.249422 3.688542 -0.940889  -0.060580 -0.013550 -0.130737
9  0.000000 1.800634 -0.000000  0.004940 0.002077 -0.208495
10  0.000001 1.243406 -0.000000  0.006524 -0.000040 -0.064626
11  -0.244726 3.701097 0.087732  0.005036 0.002373 -0.139323
12  0.000000 1.766584 0.000000  0.002490 -0.003552 -0.259702
13  -0.000000 1.189003 0.000000  -0.017590 -0.001952 -0.152464
14  -0.277239 3.632249 1.274102  0.054558 0.010184 -0.144732
15  0.000001 1.798491 -0.000000  0.036314 0.010668 -0.285912
16  -0.000001 1.235453 -0.000000  -0.005152 0.006816 -0.068190
17  0.315441 0.857301 0.755944  1.684115 0.560091 1.563926
18  0.000001 2.265939 -0.000000  -0.057905 -0.032805 -0.238898
19  -0.000001 1.457808 0.000000  -0.029609 0.046490 0.034285
20  -1.259681 3.818376 1.286945  0.054558 0.010184 -0.144732
21  -1.226390 3.891694 0.090419  0.005036 0.002373 -0.139324
22  -1.231623 3.875535 -0.958681  -0.060580 -0.013550 -0.130737
23  -1.209919 3.994782 -2.003048  -0.106568 -0.025893 -0.137951
24  0.328906 0.095429 1.403532  1.684115 0.560091 1.563926
25  7.685551 -26.508362 -6.023971  0.000000 -0.000000 -3.141593
26  20.158314 0.001465 -15.000000  -1.570796 -0.000000 -1.570796
27  6.688313 0.001464 -6.000000  -0.051945 -0.000000 -1.570796
28  -6.584470 -2.598536 -3.409302  0.576295 -0.440128 1.699173
29  0.000001 13.479277 0.000001  0.466715 0.000000 0.000000
30  0.000000 13.477239 0.000000  -1.613381 0.595377 -0.588558
31  0.267271 3.664726 -1.953292  -0.174603 0.396888 0.692349
32  -0.000002 1.180357 -0.000002  -0.024711 0.025798 1.296299
33  0.000001 0.817135 0.000001  0.012232 0.001270 1.111333
34  0.249424 3.688541 -0.940887  -0.050028 0.197908 0.917566
35  0.000001 1.800632 0.000001  -0.007161 -0.012483 1.774974
36  0.000001 1.243406 -0.000002  0.004183 -0.005006 0.945407
37  0.244728 3.701093 0.087733  0.012445 0.020003 0.934972
38  0.000000 1.766585 0.000000  0.006918 0.000685 1.464509
39  0.000000 1.189002 0.000000  -0.004472 0.017123 1.357249
40  0.277239 3.632245 1.274102  0.065416 -0.152210 0.927371
41  -0.000002 1.798490 0.000000  0.022849 -0.016745 1.078746
42  0.000002 1.235453 0.000001  -0.007143 0.004688 1.572574
43  -0.315439 0.857299 0.755945  -0.623037 -2.717983 1.196723
44  0.000001 2.265939 0.000001  -0.034963 0.056629 0.741260
45  0.000001 1.457810 0.000001  -0.048332 -0.026494 0.468069
46  1.259681 3.818373 1.286945  0.065416 -0.152210 0.927371
47  1.226390 3.891691 0.090419  0.012445 0.020003 0.934972
48  1.231622 3.875533 -0.958679  -0.050028 0.197908 0.917566
49  1.209919 3.994779 -2.003047  -0.174603 0.396888 0.692349
50  -0.328906 0.095426 1.403533  -0.623037 -2.717983 1.196723
51  -23.489243 -12.937840 13.769208  -0.401495 0.327185 1.969656
52  -39.437080 -13.975793 11.619654  -1.570796 -0.000000 1.570796
53  -6.584470 -2.598536 -3.409302  -0.051945 0.000000 1.570796
time 9
0  0 0 0  0 0 0
1  0.000000 0.000000 0.000000  1.570796 -0.000000 0.000000
2  6.688313 0.001464 -6.000000  -0.180017 0.981463 -3.105344
3  -0.000000 13.479280 0.000000  0.356810 0.000000 -0.000000
4  -0.000000 13.477240 -0.000000  -0.260936 -0.968770 0.196263
5  -0.267269 3.664727 -1.953293  -0.106568 -0.025893 -0.137951
6  -0.000000 1.180355 -0.000001  -0.036623 -0.007435 -0.177465
7  -0.000001 0.817138 -0.000000  0.004200 -0.011559 0.007420
8  -0.249422 3.688542 -0.940889  -0.060580 -0.013550 -0.130737
9  0.000000 1.800634 -0.000000  0.004940 0.002077 -0.208495
10  0.000001 1.243406 -0.000000  0.006524 -0.000040 -0.064626
11  -0.244726 3.701097 0.087732  0.005036 0.002373 -0.139323
12  0.000000 1.766584 0.000000  0.002490 -0.003552 -0.259702
13  -0.000000 1.189003 0.000000  -0.017590 -0.001952 -0.152464
14  -0.277239 3.632249 1.274102  0.054558 0.010184 -0.144732
15  0.000001 1.798491 -0.000000  0.036314 0.010668 -0.285912
16  -0.000001 1.235453 -0.000000  -0.005152 0.006816 -0.068190
17  0.315441 0.857301 0.755944  1.684115 0.560091 1.563926
18  0.000001 2.265939 -0.000000  -0.057905 -0.032805 -0.238898
19  -0.000001 1.457808 0.000000  -0.029609 0.046490 0.034285
20  -1.259681 3.818376 1.286945  0.054558 0.010184 -0.144732
21  -1.226390 3.891694 0.090419  0.005036 0.002373 -0.139324
22  -1.231623 3.875535 -0.958681  -0.060580 -0.013550 -0.130737
23  -1.209919 3.994782 -2.003048  -0.106568 -0.025893 -0.137951
24  0.328906 0.095429 1.403532  1.684115 0.560091 1.563926
25  7.685551 -26.508362 -6.023971  0.000000 -0.000000 -3.141593
26  20.158314 0.001465 -15.000000  -1.570796 -0.000000 -1.570796
27  6.688313 0.001464 -6.000000  -0.051945 -0.000000 -1.570796
28  -6.584470 -2.598536 -3.623524  0.421536 -0.394792 1.767837
29  -0.000001 13.479276 0.000000  0.687087 -0.000000 0.000000
30  0.000001 13.477242 0.000001  -1.613572 0.555624 -0.538501
31  0.267268 3.664729 -1.953291  -0.174603 0.396888 0.692349
32  0.000001 1.180355 0.000001  -0.024711 0.025798 1.296299
33  0.000000 0.817136 0.000004  0.012232 0.001270 1.111333
34  0.249422 3.688545 -0.940887  -0.050028 0.197908 0.917566
35  0.000001 1.800632 -0.000001  -0.007162 -0.012483 1.774974
36  0.000001 1.243406 0.000002  0.004183 -0.005006 0.945407
37  0.244725 3.701098 0.087734  0.012445 0.020003 0.934973
38  -0.000001 1.766583 -0.000003  0.006918 0.000685 1.464509
39  -0.000001 1.189004 -0.000002  -0.004472 0.017123 1.357249
40  0.277239 3.632252 1.274104  0.065416 -0.152210 0.927372
41  -0.000001 1.798494 -0.000001  0.022849 -0.016745 1.078746
42  -0.000002 1.235449 -0.000001  -0.007143 0.004688 1.572574
43  -0.315443 0.857300 0.755946  -0.623037 -2.717983 1.196723
44  -0.000001 2.265936 0.000001  -0.034963 0.056629 0.741260
45  -0.000000 1.457810 0.000001  -0.048332 -0.026494 0.468069
46  1.259681 3.818377 1.286948  0.065416 -0.152210 0.927371
47  1.226391 3.891695 0.090422  0.012445 0.020003 0.934972
48  1.231622 3.875536 -0.958678  -0.050028 0.197908 0.917566
49  1.209918 3.994783 -2.003046  -0.174603 0.396888 0.692349
50  -0.328906 0.095430 1.403535  -0.623037 -2.717983 1.196723
51  -23.215092 -12.812780 12.602481  -0.362688 0.301110 2.063055
52  -36.414360 -13.927638 9.024788  -1.570796 -0.000000 1.570796
53  -6.584470 -2.598536 -3.623524  -0.051945 0.000000 1.570796
time 10
0  0 0 0  0 0 0
1  0.000000 0.000000 0.000000  1.570796 -0.000000 0.000000
2  6.688313 0.001464 -6.000000  -0.180017 0.981463 -3.105344
3  -0.000000 13.479280 0.000000  0.356810 0.000000 -0.000000
4  -0.000000 13.477240 -0.000000  -0.260936 -0.968770 0.196263
5  -0.267269 3.664727 -1.953293  -0.106568 -0.025893 -0.137951
6  -0.000000 1.180355 -0.000001  -0.036623 -0.007435 -0.177465
7  -0.000001 0.817138 -0.000000  0.004200 -0.011559 0.007420
8  -0.249422 3.688542 -0.940889  -0.060580 -0.013550 -0.130737
9  0.000000 1.800634 -0.000000  0.004940 0.002077 -0.208495
10  0.000001 1.243406 -0.000000  0.006524 -0.000040 -0.064626
11  -0.244726 3.701097 0.087732  0.005036 0.002373 -0.139323
12  0.000000 1.766584 0.000000  0.002490 -0.003552 -0.259702
13  -0.000000 1.189003 0.000000  -0.017590 -0.001952 -0.152464
14  -0.277239 3.632249 1.274102  0.054558 0.010184 -0.144732
15  0.000001 1.798491 -0.000000  0.036314 0.010668 -0.285912
16  -0.000001 1.235453 -0.000000  -0.005152 0.006816 -0.068190
17  0.315441 0.857301 0.755944  1.684115 0.560091 1.563926
18  0.000001 2.265939 -0.000000  -0.057905 -0.032805 -0.238898
19  -0.000001 1.457808 0.000000  -0.029609 0.046490 0.034285
20  -1.259681 3.818376 1.286945  0.054558 0.010184 -0.144732
21  -1.226390 3.891694 0.090419  0.005036 0.002373 -0.139324
22  -1.231623 3.875535 -0.958681  -0.060580 -0.013550 -0.130737
23  -1.209919 3.994782 -2.003048  -0.106568 -0.025893 -0.137951
24  0.328906 0.095429 1.403532  1.684115 0.560091 1.563926
25  7.685551 -26.508362 -6.023971  0.000000 -0.000000 -3.141593
26  20.158314 0.001465 -15.000000  -1.570796 -0.000000 -1.570796
27  6.688313 0.001464 -6.000000  -0.051945 -0.000000 -1.570796
28  -6.584470 -2.598536 -3.875080  0.300323 -0.300880 1.863417
29  -0.000000 13.479277 0.000001  0.876850 -0.000000 0.000000
30  0.000000 13.477238 0.000003  -1.539728 0.492825 -0.438940
31  0.267270 3.664726 -1.953294  -0.174603 0.396888 0.692349
32  -0.000000 1.180356 0.000003  -0.024711 0.025798 1.296300
33  -0.000002 0.817135 0.000000  0.012232 0.001270 1.111333
34  0.249426 3.688543 -0.940890  -0.050028 0.197908 0.917566
35  -0.000000 1.800633 -0.000001  -0.007162 -0.012483 1.774975
36  -0.000000 1.243407 0.000000  0.004183 -0.005006 0.945407
37  0.244729 3.701097 0.087732  0.012445 0.020003 0.934973
38  0.000000 1.766586 0.000000  0.006918 0.000685 1.464509
39  -0.000002 1.189004 -0.000002  -0.004472 0.017123 1.357249
40  0.277242 3.632248 1.274101  0.065416 -0.152210 0.927371
41  -0.000002 1.798493 -0.000002  0.022849 -0.016745 1.078746
42  -0.000003 1.235450 0.000001  -0.007143 0.004688 1.572574
43  -0.315440 0.857298 0.755942  -0.623037 -2.717983 1.196723
44  -0.000001 2.265940 -0.000001  -0.034963 0.056629 0.741260
45  -0.000001 1.457813 -0.000000  -0.048332 -0.026494 0.468069
46  1.259684 3.818375 1.286945  0.065416 -0.152210 0.927371
47  1.226392 3.891693 0.090417  0.012445 0.020003 0.934972
48  1.231625 3.875535 -0.958682  -0.050028 0.197908 0.917566
49  1.209921 3.994781 -2.003049  -0.174603 0.396888 0.692349
50  -0.328904 0.095428 1.403531  -0.623037 -2.717983 1.196723
51  -22.457150 -12.467025 11.820391  -0.255399 0.270491 2.172730
52  -33.152374 -13.875671 6.224518  -1.570796 -0.000000 1.570796
53  -6.584470 -2.598536 -3.875080  -0.051945 0.000000 1.570796
time 11
0  0 0 0  0 0 0
1  0.000000 0.000000 0.000000  1.570796 -0.000000 0.000000
2  6.688313 0.001464 -6.000000  -0.180017 0.981463 -3.105344
3  -0.000000 13.479280 0.000000  0.356810 0.000000 -0.000000
4  -0.000000 13.477240 -0.000000  -0.260936 -0.968770 0.196263
5  -0.267269 3.664727 -1.953293  -0.106568 -0.025893 -0.137951
6  -0.000000 1.180355 -0.000001  -0.036623 -0.007435 -0.177465
7  -0.000001 0.817138 -0.000000  0.004200 -0.011559 0.007420
8  -0.249422 3.688542 -0.940889  -0.060580 -0.013550 -0.130737
9  0.000000 1.800634 -0.000000  0.004940 0.002077 -0.208495
10  0.000001 1.243406 -0.000000  0.006524 -0.000040 -0.064626
11  -0.244726 3.701097 0.087732  0.005036 0.002373 -0.139323
12  0.000000 1.766584 0.000000  0.002490 -0.003552 -0.259702
13  -0.000000 1.189003 0.000000  -0.017590 -0.001952 -0.152464
14  -0.277239 3.632249 1.274102  0.054558 0.010184 -0.144732
15  0.000001 1.798491 -0.000000  0.036314 0.010668 -0.285912
16  -0.000001 1.235453 -0.000000  -0.005152 0.006816 -0.068190
17  0.315441 0.857301 0.755944  1.684115 0.560091 1.563926
18  0.000001 2.265939 -0.000000  -0.057905 -0.032805 -0.238898
19  -0.000001 1.457808 0.000000  -0.029609 0.046490 0.034285
20  -1.259681 3.818376 1.286945  0.054558 0.010184 -0.144732
21  -1.226390 3.891694 0.090419  0.005036 0.002373 -0.139324
22  -1.231623 3.875535 -0.958681  -0.060580 -0.013550 -0.130737
23  -1.209919 3.994782 -2.003048  -0.106568 -0.025893 -0.137951
24  0.328906 0.095429 1.403532  1.684115 0.560091 1.563926
25  7.685551 -26.508362 -6.023971  0.000000 -0.000000 -3.141593
26  20.158314 0.001465 -15.000000  -1.570796 -0.000000 -1.570796
27  6.688313 0.001464 -6.000000  -0.051945 -0.000000 -1.570796
28  -6.584470 -2.598536 -4.153302  0.218105 -0.187274 1.967083
29  0.000000 13.479277 -0.000000  1.048671 -0.000000 0.000000
30  0.000001 13.477238 0.000002  -1.440186 0.431407 -0.324759
31  0.267268 3.664724 -1.953293  -0.174603 0.396888 0.692349
32  -0.000000 1.180355 0.000000  -0.024711 0.025798 1.296299
33  0.000000 0.817135 0.000002  0.012232 0.001270 1.111333
34  0.249424 3.688540 -0.940889  -0.050028 0.197908 0.917566
35  0.000000 1.800632 0.000001  -0.007162 -0.012483 1.774974
36  -0.000001 1.243406 -0.000001  0.004183 -0.005006 0.945407
37  0.244726 3.701095 0.087733  0.012445 0.020003 0.934973
38  0.000002 1.766584 -0.000001  0.006918 0.000685 1.464509
39  -0.000001 1.189004 -0.000001  -0.004472 0.017123 1.357250
40  0.277240 3.632248 1.274102  0.065416 -0.152210 0.927372
41  0.000003 1.798495 0.000001  0.022849 -0.016745 1.078747
42  -0.000000 1.235452 -0.000001  -0.007143 0.004688 1.572574
43  -0.315442 0.857298 0.755943  -0.623037 -2.717983 1.196723
44  0.000001 2.265939 0.000001  -0.034964 0.056629 0.741260
45  -0.000001 1.457812 0.000000  -0.048332 -0.026494 0.468069
46  1.259681 3.818374 1.286946  0.065416 -0.152210 0.927372
47  1.226391 3.891694 0.090419  0.012445 0.020003 0.934972
48  1.231623 3.875534 -0.958680  -0.050028 0.197908 0.917566
49  1.209919 3.994779 -2.003048  -0.174603 0.396888 0.692349
50  -0.328907 0.095428 1.403532  -0.623037 -2.717983 1.196723
51  -21.312168 -11.944714 11.346008  -0.093324 0.236625 2.294032
52  -29.746834 -13.821416 3.301012  -1.570796 -0.000000 1.570796
53  -6.584470 -2.598536 -4.153302  -0.051945 0.000000 1.570796
time 12
0  0 0 0  0 0 0
1  0.000000 0.000000 0.000000  1.570796 -0.000000 0.000000
2  6.688313 0.001464 -6.000000  -0.180017 0.981463 -3.105344
3  -0.000000 13.479280 0.000000  0.356810 0.000000 -0.000000
4  -0.000000 13.477240 -0.000000  -0.260936 -0.968770 0.196263
5  -0.267269 3.664727 -1.953293  -0.106568 -0.025893 -0.137951
6  -0.000000 1.180355 -0.000001  -0.036623 -0.007435 -0.177465
7  -0.000001 0.817138 -0.000000  0.004200 -0.011559 0.007420
8  -0.249422 3.688542 -0.940889  -0.060580 -0.013550 -0.130737
9  0.000000 1.800634 -0.000000  0.004940 0.002077 -0.208495
10  0.000001 1.243406 -0.000000  0.006524 -0.000040 -0.064626
11  -0.244726 3.701097 0.087732  0.005036 0.002373 -0.139323
12  0.000000 1.766584 0.000000  0.002490 -0.003552 -0.259702
13  -0.000000 1.189003 0.000000  -0.017590 -0.001952 -0.152464
14  -0.277239 3.632249 1.274102  0.054558 0.010184 -0.144732
15  0.000001 1.798491 -0.000000  0.036314 0.010668 -0.285912
16  -0.000001 1.235453 -0.000000  -0.005152 0.006816 -0.068190
17  0.315441 0.857301 0.755944  1.684115 0.560091 1.563926
18  0.000001 2.265939 -0.000000  -0.057905 -0.032805 -0.238898
19  -0.000001 1.457808 0.000000  -0.029609 0.046490 0.034285
20  -1.259681 3.818376 1.286945  0.054558 0.010184 -0.144732
21  -1.226390 3.891694 0.090419  0.005036 0.002373 -0.139324
22  -1.231623 3.875535 -0.958681  -0.060580 -0.013550 -0.130737
23  -1.209919 3.994782 -2.003048  -0.106568 -0.025893 -0.137951
24  0.328906 0.095429 1.403532  1.684115 0.560091 1.563926
25  7.685551 -26.508362 -6.023971  0.000000 -0.000000 -3.141593
26  20.158314 0.001465 -15.000000  -1.570796 -0.000000 -1.570796
27  6.688313 0.001464 -6.000000  -0.051945 -0.000000 -1.570796
28  -6.584470 -2.598536 -4.447524  0.176912 -0.082466 2.068868
29  -0.000000 13.479277 0.000001  1.202666 -0.000000 0.000000
30  0.000000 13.477239 0.000001  -1.336136 0.395384 -0.224063
31  0.267268 3.664727 -1.953294  -0.174603 0.396888 0.692349
32  0.000001 1.180354 -0.000001  -0.024711 0.025798 1.296299
33  0.000001 0.817135 0.000003  0.012232 0.001270 1.111333
34  0.249421 3.688543 -0.940890  -0.050028 0.197908 0.917566
35  0.000003 1.800632 -0.000000  -0.007162 -0.012483 1.774974
36  0.000001 1.243407 -0.000000  0.004183 -0.005006 0.945407
37  0.244726 3.701097 0.087732  0.012445 0.020003 0.934973
38  0.000002 1.766583 -0.000000  0.006918 0.000685 1.464509
39  -0.000000 1.189005 0.000000  -0.004472 0.017123 1.357249
40  0.277238 3.632250 1.274101  0.065416 -0.152210 0.927372
41  0.000001 1.798493 0.000000  0.022849 -0.016745 1.078747
42  0.000000 1.235451 -0.000000  -0.007143 0.004688 1.572574
43  -0.315442 0.857301 0.755942  -0.623037 -2.717983 1.196723
44  -0.000001 2.265940 0.000000  -0.034963 0.056629 0.741260
45  0.000001 1.457810 0.000001  -0.048332 -0.026494 0.468069
46  1.259679 3.818377 1.286945  0.065416 -0.152210 0.927371
47  1.226390 3.891695 0.090418  0.012445 0.020003 0.934972
48  1.231623 3.875537 -0.958681  -0.050028 0.197908 0.917566
49  1.209916 3.994782 -2.003049  -0.174603 0.396888 0.692349
50  -0.328907 0.095430 1.403533  -0.623037 -2.717983 1.196723
51  -19.876911 -11.289985 11.102406  0.109840 0.200812 2.422309
52  -26.293438 -13.766400 0.336427  -1.570796 -0.000000 1.570796
53  -6.584470 -2.598536 -4.447524  -0.051945 0.000000 1.570796
time 13
0  0 0 0  0 0 0
1  0.000000 0.000000 0.000000  1.570796 -0.000000 0.000000
2  6.688313 0.001464 -6.000000  -0.180017 0.981463 -3.105344
3  -0.000000 13.479280 0.000000  0.356810 0.000000 -0.000000
4  -0.000000 13.477240 -0.000000  -0.260936 -0.968770 0.196263
5  -0.267269 3.664727 -1.953293  -0.106568 -0.025893 -0.137951
6  -0.000000 1.180355 -0.000001  -0.036623 -0.007435 -0.177465
7  -0.000001 0.817138 -0.000000  0.004200 -0.011559 0.007420
8  -0.249422 3.688542 -0.940889  -0.060580 -0.013550 -0.130737
9  0.000000 1.800634 -0.000000  0.004940 0.002077 -0.208495
10  0.000001 1.243406 -0.000000  0.006524 -0.000040 -0.064626
11  -0.244726 3.701097 0.087732  0.005036 0.002373 -0.139323
12  0.000000 1.766584 0.000000  0.002490 -0.003552 -0.259702
13  -0.000000 1.189003 0.000000  -0.017590 -0.001952 -0.152464
14  -0.277239 3.632249 1.274102  0.054558 0.010184 -0.144732
15  0.000001 1.798491 -0.000000  0.036314 0.010668 -0.285912
16  -0.000001 1.235453 -0.000000  -0.005152 0.006816 -0.068190
17  0.315441 0.857301 0.755944  1.684115 0.560091 1.563926
18  0.000001 2.265939 -0.000000  -0.057905 -0.032805 -0.238898
19  -0.000001 1.457808 0.000000  -0.029609 0.046490 0.034285
20  -1.259681 3.818376 1.286945  0.054558 0.010184 -0.144732
21  -1.226390 3.891694 0.090419  0.005036 0.002373 -0.139324
22  -1.231623 3.875535 -0.958681  -0.060580 -0.013550 -0.130737
23  -1.209919 3.994782 -2.003048  -0.106568 -0.025893 -0.137951
24  0.328906 0.095429 1.403532  1.684115 0.560091 1.563926
25  7.685551 -26.508362 -6.023971  0.000000 -0.000000 -3.141593
26  20.158314 0.001465 -15.000000  -1.570796 -0.000000 -1.570796
27  6.688313 0.001464 -6.000000  -0.051945 -0.000000 -1.570796
28  -6.584470 -2.598536 -4.747080  0.172153 0.000138 2.169131
29  -0.000001 13.479276 0.000000  1.336657 -0.000000 0.000000
30  -0.000000 13.477240 0.000001  -1.230431 0.388500 -0.152172
31  0.267269 3.664725 -1.953294  -0.174603 0.396888 0.692349
32  -0.000001 1.180355 0.000001  -0.024711 0.025798 1.296299
33  0.000002 0.817133 -0.000001  0.012232 0.001270 1.111333
34  0.249422 3.688540 -0.940889  -0.050028 0.197908 0.917566
35  0.000001 1.800632 0.000000  -0.007162 -0.012483 1.774974
36  -0.000000 1.243407 -0.000002  0.004183 -0.005006 0.945407
37  0.244726 3.701094 0.087733  0.012445 0.020002 0.934972
38  -0.000003 1.766584 -0.000001  0.006918 0.000685 1.464509
39  0.000002 1.189005 -0.000000  -0.004472 0.017123 1.357249
40  0.277238 3.632244 1.274102  0.065416 -0.152210 0.927371
41  -0.000002 1.798493 0.000001  0.022849 -0.016745 1.078747
42  0.000001 1.235450 0.000000  -0.007143 0.004688 1.572574
43  -0.315442 0.857297 0.755944  -0.623037 -2.717983 1.196723
44  -0.000002 2.265940 -0.000001  -0.034963 0.056629 0.741260
45  0.000001 1.457811 -0.000000  -0.048332 -0.026494 0.468069
46  1.259681 3.818374 1.286945  0.065416 -0.152210 0.927372
47  1.226390 3.891691 0.090418  0.012445 0.020003 0.934972
48  1.231622 3.875533 -0.958681  -0.050028 0.197908 0.917566
49  1.209919 3.994780 -2.003049  -0.174603 0.396888 0.692349
50  -0.328905 0.095426 1.403532  -0.623037 -2.717983 1.196723
51  -18.248138 -10.546980 11.012657  0.340397 0.164350 2.552912
52  -22.887897 -13.712147 -2.587081  -1.570796 -0.000000 1.570796
53  -6.584470 -2.598536 -4.747080  -0.051945 0.000000 1.570796
time 14
0  0 0 0  0 0 0
1  0.000000 0.000000 0.000000  1.570796 -0.000000 0.000000
2  6.688313 0.001464 -6.000000  -0.180017 0.981463 -3.105344
3  -0.000000 13.479280 0.000000  0.356810 0.000000 -0.000000
4  -0.000000 13.477240 -0.000000  -0.260936 -0.968770 0.196263
5  -0.267269 3.664727 -1.953293  -0.106568 -0.025893 -0.137951
6  -0.000000 1.180355 -0.000001  -0.036623 -0.007435 -0.177465
7  -0.000001 0.817138 -0.000000  0.004200 -0.011559 0.007420
8  -0.249422 3.688542 -0.940889  -0.060580 -0.013550 -0.130737
9  0.000000 1.800634 -0.000000  0.004940 0.002077 -0.208495
10  0.000001 1.243406 -0.000000  0.006524 -0.000040 -0.064626
11  -0.244726 3.701097 0.087732  0.005036 0.002373 -0.139323
12  0.000000 1.766584 0.000000  0.002490 -0.003552 -0.259702
13  -0.000000 1.189003 0.000000  -0.017590 -0.001952 -0.152464
14  -0.277239 3.632249 1.274102  0.054558 0.010184 -0.144732
15  0.000001 1.798491 -0.000000  0.036314 0.010668 -0.285912
16  -0.000001 1.235453 -0.000000  -0.005152 0.006816 -0.068190
17  0.315441 0.857301 0.755944  1.684115 0.560091 1.563926
18  0.000001 2.265939 -0.000000  -0.057905 -0.032805 -0.238898
19  -0.000001 1.457808 0.000000  -0.029609 0.046490 0.034285
20  -1.259681 3.818376 1.286945  0.054558 0.010184 -0.144732
21  -1.226390 3.891694 0.090419  0.005036 0.002373 -0.139324
22  -1.231623 3.875535 -0.958681  -0.060580 -0.013550 -0.130737
23  -1.209919 3.994782 -2.003048  -0.106568 -0.025893 -0.137951
24  0.328906 0.095429 1.403532  1.684115 0.560091 1.563926
25  7.685551 -26.508362 -6.023971  0.000000 -0.000000 -3.141593
26  20.158314 0.001465 -15.000000  -1.570796 -0.000000 -1.570796
27  6.688313 0.001464 -6.000000  -0.051945 -0.000000 -1.570796
28  -6.584470 -2.598536 -5.041302  0.196487 0.059305 2.273038
29  0.000001 13.479277 -0.000000  1.449077 -0.000000 0.000000
30  0.000000 13.477239 -0.000001  -1.122356 0.397387 -0.112160
31  0.267268 3.664728 -1.953293  -0.174603 0.396888 0.692349
32  0.000003 1.180357 -0.000000  -0.024711 0.025798 1.296299
33  -0.000002 0.817136 -0.000001  0.012232 0.001270 1.111333
34  0.249421 3.688542 -0.940889  -0.050028 0.197907 0.917566
35  0.000000 1.800633 -0.000001  -0.007162 -0.012483 1.774974
36  0.000001 1.243407 0.000000  0.004183 -0.005006 0.945407
37  0.244724 3.701097 0.087734  0.012445 0.020002 0.934973
38  0.000000 1.766586 0.000000  0.006918 0.000685 1.464509
39  -0.000001 1.189003 -0.000000  -0.004472 0.017123 1.357249
40  0.277238 3.632250 1.274103  0.065416 -0.152210 0.927372
41  -0.000001 1.798493 -0.000000  0.022849 -0.016745 1.078747
42  -0.000000 1.235453 0.000000  -0.007143 0.004688 1.572574
43  -0.315442 0.857302 0.755944  -0.623037 -2.717983 1.196723
44  -0.000001 2.265940 0.000001  -0.034963 0.056629 0.741260
45  0.000001 1.457811 -0.000001  -0.048332 -0.026494 0.468069
46  1.259678 3.818377 1.286945  0.065416 -0.152210 0.927371
47  1.226389 3.891694 0.090418  0.012445 0.020003 0.934972
48  1.231620 3.875535 -0.958681  -0.050028 0.197908 0.917566
49  1.209918 3.994782 -2.003047  -0.174603 0.396888 0.692349
50  -0.328908 0.095429 1.403533  -0.623037 -2.717983 1.196723
51  -16.522604 -9.759834 10.999836  0.584651 0.128537 2.681189
52  -19.625917 -13.660178 -5.387344  -1.570796 -0.000000 1.570796
53  -6.584470 -2.598536 -5.041302  -0.051945 0.000000 1.570796
time 15
0  0 0 0  0 0 0
1  0.000000 0.000000 0.000000  1.570796 -0.000000 0.000000
2  6.688313 0.001464 -6.000000  -0.180017 0.981463 -3.105344
3  -0.000000 13.479280 0.000000  0.356810 0.000000 -0.000000
4  -0.000000 13.477240 -0.000000  -0.260936 -0.968770 0.196263
5  -0.267269 3.664727 -1.953293  -0.106568 -0.025893 -0.137951
6  -0.000000 1.180355 -0.000001  -0.036623 -0.007435 -0.177465
7  -0.000001 0.817138 -0.000000  0.004200 -0.011559 0.007420
8  -0.249422 3.688542 -0.940889  -0.060580 -0.013550 -0.130737
9  0.000000 1.800634 -0.000000  0.004940 0.002077 -0.208495
10  0.000001 1.243406 -0.000000  0.006524 -0.000040 -0.064626
11  -0.244726 3.701097 0.087732  0.005036 0.002373 -0.139323
12  0.000000 1.766584 0.000000  0.002490 -0.003552 -0.259702
13  -0.000000 1.189003 0.000000  -0.017590 -0.001952 -0.152464
14  -0.277239 3.632249 1.274102  0.054558 0.010184 -0.144732
15  0.000001 1.798491 -0.000000  0.036314 0.010668 -0.285912
16  -0.000001 1.235453 -0.000000  -0.005152 0.006816 -0.068190
17  0.315441 0.857301 0.755944  1.684115 0.560091 1.563926
18  0.000001 2.265939 -0.000000  -0.057905 -0.032805 -0.238898
19  -0.000001 1.457808 0.000000  -0.029609 0.046490 0.034285
20  -1.259681 3.818376 1.286945  0.054558 0.010184 -0.144732
21  -1.226390 3.891694 0.090419  0.005036 0.002373 -0.139324
22  -1.231623 3.875535 -0.958681  -0.060580 -0.013550 -0.130737
23  -1.209919 3.994782 -2.003048  -0.106568 -0.025893 -0.137951
24  0.328906 0.095429 1.403532  1.684115 0.560091 1.563926
25  7.685551 -26.508362 -6.023971  0.000000 -0.000000 -3.141593
26  20.158314 0.001465 -15.000000  -1.570796 -0.000000 -1.570796
27  6.688313 0.001464 -6.000000  -0.051945 -0.000000 -1.570796
28  -6.584470 -2.598536 -5.319524  0.280097 0.095264 2.386367
29  0.000001 13.479277 0.000000  1.491105 -0.000000 0.000000
30  0.000000 13.477239 0.000000  -1.001835 0.403743 -0.095234
31  0.267270 3.664727 -1.953293  -0.174603 0.396888 0.692349
32  -0.000002 1.180356 -0.000000  -0.024711 0.025798 1.296299
33  -0.000002 0.817134 0.000001  0.012232 0.001270 1.111333
34  0.249422 3.688543 -0.940889  -0.050028 0.197907 0.917566
35  0.000000 1.800632 -0.000000  -0.007162 -0.012483 1.774974
36  0.000002 1.243410 0.000002  0.004183 -0.005006 0.945407
37  0.244726 3.701097 0.087733  0.012445 0.020002 0.934972
38  0.000002 1.766584 0.000000  0.006918 0.000685 1.464509
39  -0.000003 1.189007 0.000000  -0.004472 0.017123 1.357249
40  0.277239 3.632249 1.274102  0.065416 -0.152210 0.927372
41  0.000001 1.798495 -0.000001  0.022849 -0.016745 1.078747
42  -0.000002 1.235450 0.000001  -0.007143 0.004688 1.572574
43  -0.315441 0.857301 0.755944  -0.623037 -2.717983 1.196723
44  -0.000002 2.265939 0.000001  -0.034963 0.056629 0.741260
45  0.000001 1.457811 -0.000001  -0.048332 -0.026494 0.468069
46  1.259682 3.818375 1.286946  0.065416 -0.152210 0.927372
47  1.226390 3.891695 0.090419  0.012445 0.020003 0.934972
48  1.231621 3.875534 -0.958681  -0.050028 0.197908 0.917566
49  1.209919 3.994783 -2.003048  -0.174603 0.396888 0.692349
50  -0.328906 0.095429 1.403533  -0.623037 -2.717983 1.196723
51  -14.797071 -8.972690 11.535439  0.828904 0.094672 2.802491
52  -16.603195 -13.612022 -7.982214  -1.570796 -0.000000 1.570796
53  -6.584470 -2.598536 -5.319524  -0.051945 0.000000 1.570796
time 16
0  0 0 0  0 0 0
1  0.000000 0.000000 0.000000  1.570796 -0.000000 0.000000
2  6.688313 0.001464 -6.000000  -0.180017 0.981463 -3.105344
3  -0.000000 13.479280 0.000000  0.356810 0.000000 -0.000000
4  -0.000000 13.477240 -0.000000  -0.260936 -0.968770 0.196263
5  -0.267269 3.664727 -1.953293  -0.106568 -0.025893 -0.137951
6  -0.000000 1.180355 -0.000001  -0.036623 -0.007435 -0.177465
7  -0.000001 0.817138 -0.000000  0.004200 -0.011559 0.007420
8  -0.249422 3.688542 -0.940889  -0.060580 -0.013550 -0.130737
9  0.000000 1.800634 -0.000000  0.004940 0.002077 -0.208495
10  0.000001 1.243406 -0.000000  0.006524 -0.000040 -0.064626
11  -0.244726 3.701097 0.087732  0.005036 0.002373 -0.139323
12  0.000000 1.766584 0.000000  0.002490 -0.003552 -0.259702
13  -0.000000 1.189003 0.000000  -0.017590 -0.001952 -0.152464
14  -0.277239 3.632249 1.274102  0.054558 0.010184 -0.144732
15  0.000001 1.798491 -0.000000  0.036314 0.010668 -0.285912
16  -0.000001 1.235453 -0.000000  -0.005152 0.006816 -0.068190
17  0.315441 0.857301 0.755944  1.684115 0.560091 1.563926
18  0.000001 2.265939 -0.000000  -0.057905 -0.032805 -0.238898
19  -0.000001 1.457808 0.000000  -0.029609 0.046490 0.034285
20  -1.259681 3.818376 1.286945  0.054558 0.010184 -0.144732
21  -1.226390 3.891694 0.090419  0.005036 0.002373 -0.139324
22  -1.231623 3.875535 -0.958681  -0.060580 -0.013550 -0.130737
23  -1.209919 3.994782 -2.003048  -0.106568 -0.025893 -0.137951
24  0.328906 0.095429 1.403532  1.684115 0.560091 1.563926
25  7.685551 -26.508362 -6.023971  0.000000 -0.000000 -3.141593
26  20.158314 0.001465 -15.000000  -1.570796 -0.000000 -1.570796
27  6.688313 0.001464 -6.000000  -0.051945 -0.000000 -1.570796
28  -6.584470 -2.598536 -5.571080  0.431109 0.108940 2.513383
29  0.000001 13.479277 0.000000  1.427089 -0.000000 0.000000
30  0.000001 13.477239 -0.000000  -0.849783 0.391865 -0.081212
31  0.267270 3.664725 -1.953293  -0.174603 0.396887 0.692349
32  -0.000000 1.180355 0.000000  -0.024711 0.025798 1.296299
33  -0.000003 0.817135 0.000000  0.012232 0.001270 1.111333
34  0.249423 3.688540 -0.940889  -0.050028 0.197907 0.917566
35  0.000002 1.800632 0.000000  -0.007162 -0.012483 1.774974
36  0.000001 1.243404 -0.000000  0.004183 -0.005006 0.945407
37  0.244727 3.701095 0.087733  0.012445 0.020003 0.934972
38  0.000000 1.766585 0.000000  0.006918 0.000685 1.464509
39  -0.000000 1.188999 0.000000  -0.004472 0.017123 1.357249
40  0.277239 3.632246 1.274101  0.065416 -0.152210 0.927371
41  -0.000001 1.798493 0.000001  0.022849 -0.016745 1.078746
42  0.000000 1.235452 0.000000  -0.007143 0.004688 1.572574
43  -0.315441 0.857298 0.755944  -0.623037 -2.717983 1.196723
44  -0.000001 2.265939 0.000000  -0.034963 0.056629 0.741260
45  -0.000001 1.457808 0.000000  -0.048332 -0.026494 0.468069
46  1.259682 3.818374 1.286946  0.065416 -0.152210 0.927372
47  1.226392 3.891693 0.090418  0.012445 0.020003 0.934972
48  1.231624 3.875534 -0.958680  -0.050028 0.197908 0.917566
49  1.209919 3.994780 -2.003047  -0.174603 0.396887 0.692349
50  -0.328905 0.095427 1.403532  -0.623037 -2.717983 1.196723
51  -13.168297 -8.229682 12.874443  1.059462 0.064052 2.912166
52  -13.915448 -13.569204 -10.289524  -1.570796 -0.000000 1.570796
53  -6.584470 -2.598536 -5.571080  -0.051945 0.000000 1.570796
time 17
0  0 0 0  0 0 0
1  0.000000 0.000000 0.000000  1.570796 -0.000000 0.000000
2  6.688313 0.001464 -6.000000  -0.180017 0.981463 -3.105344
3  -0.000000 13.479280 0.000000  0.356810 0.000000 -0.000000
4  -0.000000 13.477240 -0.000000  -0.260936 -0.968770 0.196263
5  -0.267269 3.664727 -1.953293  -0.106568 -0.025893 -0.137951
6  -0.000000 1.180355 -0.000001  -0.036623 -0.007435 -0.177465
7  -0.000001 0.817138 -0.000000  0.004200 -0.011559 0.007420
8  -0.249422 3.688542 -0.940889  -0.060580 -0.013550 -0.130737
9  0.000000 1.800634 -0.000000  0.004940 0.002077 -0.208495
10  0.000001 1.243406 -0.000000  0.006524 -0.000040 -0.064626
11  -0.244726 3.701097 0.087732  0.005036 0.002373 -0.139323
12  0.000000 1.766584 0.000000  0.002490 -0.003552 -0.259702
13  -0.000000 1.189003 0.000000  -0.017590 -0.001952 -0.152464
14  -0.277239 3.632249 1.274102  0.054558 0.010184 -0.144732
15  0.000001 1.798491 -0.000000  0.036314 0.010668 -0.285912
16  -0.000001 1.235453 -0.000000  -0.005152 0.006816 -0.068190
17  0.315441 0.857301 0.755944  1.684115 0.560091 1.563926
18  0.000001 2.265939 -0.000000  -0.057905 -0.032805 -0.238898
19  -0.000001 1.457808 0.000000  -0.029609 0.046490 0.034285
20  -1.259681 3.818376 1.286945  0.054558 0.010184 -0.144732
21  -1.226390 3.891694 0.090419  0.005036 0.002373 -0.139324
22  -1.231623 3.875535 -0.958681  -0.060580 -0.013550 -0.130737
23  -1.209919 3.994782 -2.003048  -0.106568 -0.025893 -0.137951
24  0.328906 0.095429 1.403532  1.684115 0.560091 1.563926
25  7.685551 -26.508362 -6.023971  0.000000 -0.000000 -3.141593
26  20.158314 0.001465 -15.000000  -1.570796 -0.000000 -1.570796
27  6.688313 0.001464 -6.000000  -0.051945 -0.000000 -1.570796
28  -6.584470 -2.598536 -5.785302  0.610082 0.106864 2.649786
29  0.000002 13.479276 -0.000000  1.279938 -0.000000 0.000000
30  0.000000 13.477240 -0.000000  -0.663120 0.357562 -0.053633
31  0.267271 3.664729 -1.953292  -0.174603 0.396888 0.692349
32  0.000000 1.180356 0.000000  -0.024711 0.025798 1.296299
33  0.000000 0.817137 -0.000002  0.012232 0.001270 1.111333
34  0.249423 3.688542 -0.940888  -0.050028 0.197908 0.917566
35  0.000000 1.800633 -0.000001  -0.007162 -0.012483 1.774974
36  -0.000000 1.243405 -0.000001  0.004183 -0.005006 0.945407
37  0.244727 3.701096 0.087733  0.012445 0.020003 0.934972
38  -0.000000 1.766585 0.000000  0.006918 0.000685 1.464509
39  0.000000 1.189003 0.000000  -0.004472 0.017123 1.357249
40  0.277240 3.632249 1.274103  0.065416 -0.152210 0.927372
41  0.000001 1.798494 -0.000001  0.022849 -0.016745 1.078747
42  -0.000001 1.235450 -0.000001  -0.007143 0.004688 1.572574
43  -0.315440 0.857302 0.755944  -0.623037 -2.717983 1.196723
44  0.000002 2.265940 0.000000  -0.034963 0.056629 0.741260
45  -0.000001 1.457811 0.000000  -0.048332 -0.026494 0.468069
46  1.259681 3.818377 1.286946  0.065416 -0.152210 0.927371
47  1.226391 3.891695 0.090419  0.012445 0.020003 0.934972
48  1.231624 3.875535 -0.958680  -0.050028 0.197908 0.917566
49  1.209919 3.994783 -2.003047  -0.174603 0.396887 0.692349
50  -0.328906 0.095431 1.403533  -0.623037 -2.717983 1.196723
51  -11.733044 -7.574955 14.615150  1.262626 0.037977 3.005564
52  -11.658380 -13.533246 -12.227123  -1.570796 -0.000000 1.570796
53  -6.584470 -2.598536 -5.785302  -0.051945 0.000000 1.570796
time 18
0  0 0 0  0 0 0
1  0.000000 0.000000 0.000000  1.570796 -0.000000 0.000000
2  6.688313 0.001464 -6.000000  -0.180017 0.981463 -3.105344
3  -0.000000 13.479280 0.000000  0.356810 0.000000 -0.000000
4  -0.000000 13.477240 -0.000000  -0.260936 -0.968770 0.196263
5  -0.267269 3.664727 -1.953293  -0.106568 -0.025893 -0.137951
6  -0.000000 1.180355 -0.000001  -0.036623 -0.007435 -0.177465
7  -0.000001 0.817138 -0.000000  0.004200 -0.011559 0.007420
8  -0.249422 3.688542 -0.940889  -0.060580 -0.013550 -0.130737
9  0.000000 1.800634 -0.000000  0.004940 0.002077 -0.208495
10  0.000001 1.243406 -0.000000  0.006524 -0.000040 -0.064626
11  -0.244726 3.701097 0.087732  0.005036 0.002373 -0.139323
12  0.000000 1.766584 0.000000  0.002490 -0.003552 -0.259702
13  -0.000000 1.189003 0.000000  -0.017590 -0.001952 -0.152464
14  -0.277239 3.632249 1.274102  0.054558 0.010184 -0.144732
15  0.000001 1.798491 -0.000000  0.036314 0.010668 -0.285912
16  -0.000001 1.235453 -0.000000  -0.005152 0.006816 -0.068190
17  0.315441 0.857301 0.755944  1.684115 0.560091 1.563926
18  0.000001 2.265939 -0.000000  -0.057905 -0.032805 -0.238898
19  -0.000001 1.457808 0.000000  -0.029609 0.046490 0.034285
20  -1.259681 3.818376 1.286945  0.054558 0.010184 -0.144732
21  -1.226390 3.891694 0.090419  0.005036 0.002373 -0.139324
22  -1.231623 3.875535 -0.958681  -0.060580 -0.013550 -0.130737
23  -1.209919 3.994782 -2.003048  -0.106568 -0.025893 -0.137951
24  0.328906 0.095429 1.403532  1.684115 0.560091 1.563926
25  7.685551 -26.508362 -6.023971  0.000000 -0.000000 -3.141593
26  20.158314 0.001465 -15.000000  -1.570796 -0.000000 -1.570796
27  6.688313 0.001464 -6.000000  -0.051945 -0.000000 -1.570796
28  -6.584470 -2.598536 -5.951524  0.784959 0.096497 2.778265
29  -0.000000 13.479277 0.000001  1.083228 -0.000000 0.000000
30  0.000001 13.477238 0.000001  -0.463261 0.308981 -0.016174
31  0.267270 3.664728 -1.953292  -0.174603 0.396887 0.692349
32  -0.000003 1.180354 0.000002  -0.024711 0.025798 1.296300
33  0.000002 0.817136 -0.000001  0.012232 0.001270 1.111333
34  0.249423 3.688541 -0.940889  -0.050028 0.197908 0.917566
35  -0.000001 1.800633 -0.000000  -0.007162 -0.012483 1.774974
36  -0.000001 1.243409 0.000001  0.004183 -0.005006 0.945407
37  0.244727 3.701097 0.087733  0.012445 0.020003 0.934973
38  -0.000001 1.766585 -0.000000  0.006918 0.000685 1.464509
39  0.000001 1.189004 -0.000000  -0.004472 0.017123 1.357249
40  0.277240 3.632249 1.274102  0.065416 -0.152210 0.927372
41  -0.000001 1.798494 0.000000  0.022849 -0.016745 1.078747
42  -0.000000 1.235449 0.000001  -0.007143 0.004688 1.572574
43  -0.315440 0.857300 0.755944  -0.623037 -2.717983 1.196723
44  -0.000002 2.265940 0.000000  -0.034963 0.056629 0.741260
45  0.000001 1.457812 -0.000001  -0.048332 -0.026494 0.468069
46  1.259683 3.818375 1.286946  0.065416 -0.152210 0.927371
47  1.226392 3.891695 0.090419  0.012445 0.020003 0.934972
48  1.231624 3.875536 -0.958680  -0.050028 0.197908 0.917566
49  1.209921 3.994783 -2.003047  -0.174603 0.396887 0.692349
50  -0.328905 0.095430 1.403533  -0.623037 -2.717983 1.196723
51  -10.588060 -7.052643 16.355858  1.424701 0.017744 3.078035
52  -9.927697 -13.505675 -13.712837  -1.570796 -0.000000 1.570796
53  -6.584470 -2.598536 -5.951524  -0.051945 0.000000 1.570796
time 19
0  0 0 0  0 0 0
1  0.000000 0.000000 0.000000  1.570796 -0.000000 0.000000
2  6.688313 0.001464 -6.000000  -0.180017 0.981463 -3.105344
3  -0.000000 13.479280 0.000000  0.356810 0.000000 -0.000000
4  -0.000000 13.477240 -0.000000  -0.260936 -0.968770 0.196263
5  -0.267269 3.664727 -1.953293  -0.106568 -0.025893 -0.137951
6  -0.000000 1.180355 -0.000001  -0.036623 -0.007435 -0.177465
7  -0.000001 0.817138 -0.000000  0.004200 -0.011559 0.007420
8  -0.249422 3.688542 -0.940889  -0.060580 -0.013550 -0.130737
9  0.000000 1.800634 -0.000000  0.004940 0.002077 -0.208495
10  0.000001 1.243406 -0.000000  0.006524 -0.000040 -0.064626
11  -0.244726 3.701097 0.087732  0.005036 0.002373 -0.139323
12  0.000000 1.766584 0.000000  0.002490 -0.003552 -0.259702
13  -0.000000 1.189003 0.000000  -0.017590 -0.001952 -0.152464
14  -0.277239 3.632249 1.274102  0.054558 0.010184 -0.144732
15  0.000001 1.798491 -0.000000  0.036314 0.010668 -0.285912
16  -0.000001 1.235453 -0.000000  -0.005152 0.006816 -0.068190
17  0.315441 0.857301 0.755944  1.684115 0.560091 1.563926
18  0.000001 2.265939 -0.000000  -0.057905 -0.032805 -0.238898
19  -0.000001 1.457808 0.000000  -0.029609 0.046490 0.034285
20  -1.259681 3.818376 1.286945  0.054558 0.010184 -0.144732
21  -1.226390 3.891694 0.090419  0.005036 0.002373 -0.139324
22  -1.231623 3.875535 -0.958681  -0.060580 -0.013550 -0.130737
23  -1.209919 3.994782 -2.003048  -0.106568 -0.025893 -0.137951
24  0.328906 0.095429 1.403532  1.684115 0.560091 1.563926
25  7.685551 -26.508362 -6.023971  0.000000 -0.000000 -3.141593
26  20.158314 0.001465 -15.000000  -1.570796 -0.000000 -1.570796
27  6.688313 0.001464 -6.000000  -0.051945 -0.000000 -1.570796
28  -6.584470 -2.598536 -6.059080  0.925674 0.085576 2.872736
29  -0.000001 13.479277 -0.000001  0.891123 -0.000000 0.000000
30  -0.000000 13.477241 -0.000001  -0.294185 0.264100 0.015553
31  0.267270 3.664729 -1.953294  -0.174603 0.396888 0.692349
32  -0.000001 1.180353 0.000000  -0.024711 0.025798 1.296299
33  -0.000001 0.817136 0.000001  0.012232 0.001270 1.111333
34  0.249424 3.688543 -0.940889  -0.050028 0.197908 0.917566
35  0.000001 1.800632 0.000000  -0.007162 -0.012483 1.774974
36  -0.000000 1.243407 0.000000  0.004183 -0.005006 0.945407
37  0.244727 3.701097 0.087733  0.012445 0.020003 0.934972
38  -0.000001 1.766585 0.000000  0.006918 0.000685 1.464509
39  -0.000001 1.189004 -0.000000  -0.004472 0.017123 1.357249
40  0.277240 3.632248 1.274102  0.065416 -0.152210 0.927371
41  -0.000000 1.798492 0.000000  0.022849 -0.016745 1.078746
42  0.000001 1.235452 -0.000000  -0.007143 0.004688 1.572574
43  -0.315441 0.857300 0.755943  -0.623037 -2.717983 1.196723
44  -0.000000 2.265940 0.000001  -0.034963 0.056629 0.741260
45  -0.000001 1.457813 -0.000000  -0.048332 -0.026494 0.468069
46  1.259682 3.818376 1.286945  0.065416 -0.152210 0.927372
47  1.226391 3.891694 0.090419  0.012445 0.020003 0.934972
48  1.231623 3.875536 -0.958680  -0.050028 0.197908 0.917566
49  1.209919 3.994782 -2.003048  -0.174603 0.396888 0.692349
50  -0.328905 0.095429 1.403532  -0.623037 -2.717983 1.196723
51  -9.830118 -6.706889 17.694862  1.531990 0.004652 3.124928
52  -8.819097 -13.488013 -14.664516  -1.570796 -0.000000 1.570796
53  -6.584470 -2.598536 -6.059080  -0.051945 0.000000 1.570796
time 20
0  0 0 0  0 0 0
1  0.000000 0.000000 0.000000  1.570796 -0.000000 0.000000
2  6.688313 0.001464 -6.000000  -0.180017 0.981463 -3.105344
3  -0.000000 13.479280 0.000000  0.356810 0.000000 -0.000000
4  -0.000000 13.477240 -0.000000  -0.260936 -0.968770 0.196263
5  -0.267269 3.664727 -1.953293  -0.106568 -0.025893 -0.137951
6  -0.000000 1.180355 -0.000001  -0.036623 -0.007435 -0.177465
7  -0.000001 0.817138 -0.000000  0.004200 -0.011559 0.007420
8  -0.249422 3.688542 -0.940889  -0.060580 -0.013550 -0.130737
9  0.000000 1.800634 -0.000000  0.004940 0.002077 -0.208495
10  0.000001 1.243406 -0.000000  0.006524 -0.000040 -0.064626
11  -0.244726 3.701097 0.087732  0.005036 0.002373 -0.139323
12  0.000000 1.766584 0.000000  0.002490 -0.003552 -0.259702
13  -0.000000 1.189003 0.000000  -0.017590 -0.001952 -0.152464
14  -0.277239 3.632249 1.274102  0.054558 0.010184 -0.144732
15  0.000001 1.798491 -0.000000  0.036314 0.010668 -0.285912
16  -0.000001 1.235453 -0.000000  -0.005152 0.006816 -0.068190
17  0.315441 0.857301 0.755944  1.684115 0.560091 1.563926
18  0.000001 2.265939 -0.000000  -0.057905 -0.032805 -0.238898
19  -0.000001 1.457808 0.000000  -0.029609 0.046490 0.034285
20  -1.259681 3.818376 1.286945  0.054558 0.010184 -0.144732
21  -1.226390 3.891694 0.090419  0.005036 0.002373 -0.139324
22  -1.231623 3.875535 -0.958681  -0.060580 -0.013550 -0.130737
23  -1.209919 3.994782 -2.003048  -0.106568 -0.025893 -0.137951
24  0.328906 0.095429 1.403532  1.684115 0.560091 1.563926
25  7.685551 -26.508362 -6.023971  0.000000 -0.000000 -3.141593
26  20.158314 0.001465 -15.000000  -1.570796 -0.000000 -1.570796
27  6.688313 0.001464 -6.000000  -0.051945 -0.000000 -1.570796
28  -6.584470 -2.598536 -6.097302  0.986251 0.080824 2.908392
29  0.000002 13.479277 0.000001  0.799590 -0.000000 0.000000
30  0.000001 13.477239 -0.000000  -0.221035 0.244975 0.028276
31  0.267269 3.664726 -1.953293  -0.174603 0.396888 0.692349
32  0.000002 1.180355 0.000001  -0.024711 0.025798 1.296299
33  0.000002 0.817134 0.000000  0.012232 0.001270 1.111333
34  0.249423 3.688542 -0.940889  -0.050028 0.197908 0.917566
35  0.000000 1.800633 0.000000  -0.007162 -0.012483 1.774974
36  -0.000001 1.243407 -0.000000  0.004183 -0.005006 0.945407
37  0.244727 3.701096 0.087733  0.012445 0.020003 0.934973
38  0.000002 1.766585 -0.000000  0.006918 0.000685 1.464509
39  -0.000001 1.189003 -0.000000  -0.004472 0.017123 1.357249
40  0.277240 3.632249 1.274102  0.065416 -0.152210 0.927372
41  -0.000001 1.798495 -0.000000  0.022849 -0.016745 1.078747
42  0.000001 1.235453 0.000001  -0.007143 0.004688 1.572574
43  -0.315441 0.857301 0.755943  -0.623037 -2.717983 1.196723
44  -0.000001 2.265940 0.000000  -0.034963 0.056629 0.741260
45  0.000000 1.457809 -0.000000  -0.048332 -0.026494 0.468069
46  1.259682 3.818375 1.286946  0.065416 -0.152210 0.927372
47  1.226391 3.891694 0.090419  0.012445 0.020003 0.934972
48  1.231623 3.875534 -0.958680  -0.050028 0.197908 0.917566
49  1.209919 3.994781 -2.003048  -0.174603 0.396888 0.692349
50  -0.328906 0.095429 1.403532  -0.623037 -2.717983 1.196723
51  -9.555967 -6.581827 18.230465  1.570796 -0.000000 3.141593
52  -8.428300 -13.481788 -15.000002  -1.570796 -0.000000 1.570796
53  -6.584470 -2.598536 -6.097302  -0.051945 0.000000 1.570796
end
