version 1
nodes
0 "blender_implicit" -1
1 "root" -1
2 "upperarm_l" 1
3 "lowerarm_l" 2
4 "hand_l" 3
5 "pinky_0_l" 4
6 "pinky_1_l" 5
7 "pinky_2_l" 6
8 "ring_0_l" 4
9 "ring_1_l" 8
10 "ring_2_l" 9
11 "middle_0_l" 4
12 "middle_1_l" 11
13 "middle_2_l" 12
14 "index_0_l" 4
15 "index_1_l" 14
16 "index_2_l" 15
17 "thumb_0_l" 4
18 "thumb_1_l" 17
19 "thumb_2_l" 18
20 "rig_index_l" 4
21 "rig_middle_l" 4
22 "rig_ring_l" 4
23 "rig_pinky_l" 4
24 "rig_thumb_l" 4
25 "rig_hand_l" 1
26 "rig_l" 1
27 "rig_upperarm_l" 1
28 "upperarm_r" 1
29 "lowerarm_r" 28
30 "hand_r" 29
31 "pinky_0_r" 30
32 "pinky_1_r" 31
33 "pinky_2_r" 32
34 "ring_0_r" 30
35 "ring_1_r" 34
36 "ring_2_r" 35
37 "middle_0_r" 30
38 "middle_1_r" 37
39 "middle_2_r" 38
40 "index_0_r" 30
41 "index_1_r" 40
42 "index_2_r" 41
43 "thumb_0_r" 30
44 "thumb_1_r" 43
45 "thumb_2_r" 44
46 "rig_index_r" 30
47 "rig_middle_r" 30
48 "rig_ring_r" 30
49 "rig_pinky_r" 30
50 "rig_thumb_r" 30
51 "rig_hand_r" 1
52 "rig_r" 1
53 "rig_upperarm_r" 1
end
skeleton
time 0
0  0 0 0  0 0 0
1  0.000000 0.000000 0.000000  1.570796 -0.000000 0.000000
2  6.688313 0.001464 -6.000000  -0.180017 0.981463 -3.105344
3  -0.000000 13.479280 0.000000  0.356810 0.000000 -0.000000
4  -0.000000 13.477240 -0.000000  -0.260936 -0.968770 0.196263
5  -0.267269 3.664727 -1.953293  -0.106568 -0.025893 -0.137951
6  -0.000000 1.180355 -0.000001  -0.036623 -0.007435 -0.177465
7  -0.000001 0.817138 -0.000000  0.004200 -0.011559 0.007420
8  -0.249422 3.688542 -0.940889  -0.060580 -0.013550 -0.130737
9  0.000000 1.800634 -0.000000  0.004940 0.002077 -0.208495
10  0.000001 1.243406 -0.000000  0.006524 -0.000040 -0.064626
11  -0.244726 3.701097 0.087732  0.005036 0.002373 -0.139323
12  0.000000 1.766584 0.000000  0.002490 -0.003552 -0.259702
13  -0.000000 1.189003 0.000000  -0.017590 -0.001952 -0.152464
14  -0.277239 3.632249 1.274102  0.054558 0.010184 -0.144732
15  0.000001 1.798491 -0.000000  0.036314 0.010668 -0.285912
16  -0.000001 1.235453 -0.000000  -0.005152 0.006816 -0.068190
17  0.315441 0.857301 0.755944  1.684115 0.560091 1.563926
18  0.000001 2.265939 -0.000000  -0.057905 -0.032805 -0.238898
19  -0.000001 1.457808 0.000000  -0.029609 0.046490 0.034285
20  -1.259681 3.818376 1.286945  0.054558 0.010184 -0.144732
21  -1.226390 3.891694 0.090419  0.005036 0.002373 -0.139324
22  -1.231623 3.875535 -0.958681  -0.060580 -0.013550 -0.130737
23  -1.209919 3.994782 -2.003048  -0.106568 -0.025893 -0.137951
24  0.328906 0.095429 1.403532  1.684115 0.560091 1.563926
25  7.685551 -26.508362 -6.023971  0.000000 -0.000000 -3.141593
26  20.158314 0.001465 -15.000000  -1.570796 -0.000000 -1.570796
27  6.688313 0.001464 -6.000000  -0.051945 -0.000000 -1.570796
28  -6.584470 -2.598536 -6.097302  0.986251 0.080824 2.908392
29  0.000002 13.479277 0.000001  0.799590 -0.000000 0.000000
30  0.000001 13.477239 -0.000000  -0.221035 0.244975 0.028276
31  0.267270 3.664726 -1.953293  -0.174603 0.396888 0.692349
32  -0.000002 1.180353 -0.000000  -0.024711 0.025798 1.296299
33  -0.000003 0.817136 -0.000001  0.012232 0.001270 1.111333
34  0.249423 3.688542 -0.940889  -0.050028 0.197908 0.917566
35  0.000001 1.800633 0.000001  -0.007162 -0.012483 1.774974
36  0.000000 1.243406 -0.000000  0.004183 -0.005006 0.945407
37  0.244727 3.701096 0.087732  0.012445 0.020003 0.934973
38  0.000001 1.766584 0.000000  0.006918 0.000685 1.464509
39  0.000000 1.189004 -0.000000  -0.004472 0.017123 1.357249
40  0.277239 3.632249 1.274102  0.065416 -0.152210 0.927371
41  -0.000001 1.798495 0.000000  0.022849 -0.016745 1.078747
42  0.000001 1.235453 0.000000  -0.007143 0.004688 1.572574
43  -0.315441 0.857301 0.755943  -0.623037 -2.717983 1.196723
44  -0.000002 2.265940 -0.000000  -0.034963 0.056629 0.741260
45  0.000000 1.457811 -0.000000  -0.048332 -0.026494 0.468069
46  1.259681 3.818375 1.286945  0.065416 -0.152210 0.927371
47  1.226391 3.891694 0.090419  0.012445 0.020003 0.934972
48  1.231624 3.875534 -0.958681  -0.050028 0.197908 0.917566
49  1.209920 3.994781 -2.003048  -0.174603 0.396888 0.692349
50  -0.328906 0.095429 1.403532  -0.623037 -2.717983 1.196723
51  -9.555967 -6.581827 18.230465  1.570796 -0.000000 -3.141593
52  -8.428300 -13.481788 -15.000002  -1.570796 -0.000000 1.570796
53  -6.584470 -2.598536 -6.097302  -0.051945 0.000000 1.570796
time 1
0  0 0 0  0 0 0
1  0.000000 0.000000 0.000000  1.570796 -0.000000 0.000000
2  6.688313 0.001464 -6.000000  -0.180017 0.981463 -3.105344
3  -0.000000 13.479280 0.000000  0.356810 0.000000 -0.000000
4  -0.000000 13.477240 -0.000000  -0.260936 -0.968770 0.196263
5  -0.267269 3.664727 -1.953293  -0.106568 -0.025893 -0.137951
6  -0.000000 1.180355 -0.000001  -0.036623 -0.007435 -0.177465
7  -0.000001 0.817138 -0.000000  0.004200 -0.011559 0.007420
8  -0.249422 3.688542 -0.940889  -0.060580 -0.013550 -0.130737
9  0.000000 1.800634 -0.000000  0.004940 0.002077 -0.208495
10  0.000001 1.243406 -0.000000  0.006524 -0.000040 -0.064626
11  -0.244726 3.701097 0.087732  0.005036 0.002373 -0.139323
12  0.000000 1.766584 0.000000  0.002490 -0.003552 -0.259702
13  -0.000000 1.189003 0.000000  -0.017590 -0.001952 -0.152464
14  -0.277239 3.632249 1.274102  0.054558 0.010184 -0.144732
15  0.000001 1.798491 -0.000000  0.036314 0.010668 -0.285912
16  -0.000001 1.235453 -0.000000  -0.005152 0.006816 -0.068190
17  0.315441 0.857301 0.755944  1.684115 0.560091 1.563926
18  0.000001 2.265939 -0.000000  -0.057905 -0.032805 -0.238898
19  -0.000001 1.457808 0.000000  -0.029609 0.046490 0.034285
20  -1.259681 3.818376 1.286945  0.054558 0.010184 -0.144732
21  -1.226390 3.891694 0.090419  0.005036 0.002373 -0.139324
22  -1.231623 3.875535 -0.958681  -0.060580 -0.013550 -0.130737
23  -1.209919 3.994782 -2.003048  -0.106568 -0.025893 -0.137951
24  0.328906 0.095429 1.403532  1.684115 0.560091 1.563926
25  7.685551 -26.508362 -6.023971  0.000000 -0.000000 -3.141593
26  20.158314 0.001465 -15.000000  -1.570796 -0.000000 -1.570796
27  6.688313 0.001464 -6.000000  -0.051945 -0.000000 -1.570796
28  -6.584470 -2.598536 -6.097302  0.682672 0.137462 2.861964
29  -0.000002 13.479278 -0.000000  1.325994 -0.000000 0.000000
30  -0.000001 13.477238 0.000000  -0.682739 0.156116 0.192373
31  0.267270 3.664724 -1.953293  -0.174603 0.396888 0.692349
32  -0.000000 1.180354 -0.000001  -0.024711 0.025798 1.296300
33  -0.000003 0.817135 -0.000001  0.012232 0.001270 1.111333
34  0.249425 3.688543 -0.940889  -0.050028 0.197908 0.917566
35  0.000001 1.800634 -0.000001  -0.007162 -0.012483 1.774974
36  0.000000 1.243404 0.000000  0.004183 -0.005006 0.945407
37  0.244727 3.701095 0.087732  0.012445 0.020003 0.934973
38  0.000000 1.766583 -0.000001  0.006918 0.000685 1.464509
39  0.000000 1.189003 0.000000  -0.004472 0.017123 1.357249
40  0.277240 3.632248 1.274101  0.065416 -0.152210 0.927372
41  0.000000 1.798495 0.000000  0.022849 -0.016745 1.078747
42  -0.000000 1.235454 -0.000000  -0.007143 0.004688 1.572574
43  -0.315440 0.857299 0.755943  -0.623037 -2.717983 1.196723
44  0.000001 2.265939 0.000001  -0.034963 0.056629 0.741260
45  0.000000 1.457810 0.000000  -0.048332 -0.026494 0.468069
46  1.259683 3.818375 1.286945  0.065416 -0.152210 0.927371
47  1.226391 3.891692 0.090419  0.012445 0.020003 0.934972
48  1.231623 3.875533 -0.958680  -0.050028 0.197908 0.917566
49  1.209921 3.994782 -2.003048  -0.174603 0.396888 0.692349
50  -0.328905 0.095428 1.403533  -0.623037 -2.717983 1.196723
51  -10.621262 -6.374993 14.416088  1.311924 -0.102048 2.923054
52  -8.428300 -13.481788 -15.000002  -1.570796 -0.000000 1.570796
53  -6.584470 -2.598536 -6.097302  -0.051945 0.000000 1.570796
time 2
0  0 0 0  0 0 0
1  0.000000 0.000000 0.000000  1.570796 -0.000000 0.000000
2  6.688313 0.001464 -6.000000  -0.180017 0.981463 -3.105344
3  -0.000000 13.479280 0.000000  0.356810 0.000000 -0.000000
4  -0.000000 13.477240 -0.000000  -0.260936 -0.968770 0.196263
5  -0.267269 3.664727 -1.953293  -0.106568 -0.025893 -0.137951
6  -0.000000 1.180355 -0.000001  -0.036623 -0.007435 -0.177465
7  -0.000001 0.817138 -0.000000  0.004200 -0.011559 0.007420
8  -0.249422 3.688542 -0.940889  -0.060580 -0.013550 -0.130737
9  0.000000 1.800634 -0.000000  0.004940 0.002077 -0.208495
10  0.000001 1.243406 -0.000000  0.006524 -0.000040 -0.064626
11  -0.244726 3.701097 0.087732  0.005036 0.002373 -0.139323
12  0.000000 1.766584 0.000000  0.002490 -0.003552 -0.259702
13  -0.000000 1.189003 0.000000  -0.017590 -0.001952 -0.152464
14  -0.277239 3.632249 1.274102  0.054558 0.010184 -0.144732
15  0.000001 1.798491 -0.000000  0.036314 0.010668 -0.285912
16  -0.000001 1.235453 -0.000000  -0.005152 0.006816 -0.068190
17  0.315441 0.857301 0.755944  1.684115 0.560091 1.563926
18  0.000001 2.265939 -0.000000  -0.057905 -0.032805 -0.238898
19  -0.000001 1.457808 0.000000  -0.029609 0.046490 0.034285
20  -1.259681 3.818376 1.286945  0.054558 0.010184 -0.144732
21  -1.226390 3.891694 0.090419  0.005036 0.002373 -0.139324
22  -1.231623 3.875535 -0.958681  -0.060580 -0.013550 -0.130737
23  -1.209919 3.994782 -2.003048  -0.106568 -0.025893 -0.137951
24  0.328906 0.095429 1.403532  1.684115 0.560091 1.563926
25  7.685551 -26.508362 -6.023971  0.000000 -0.000000 -3.141593
26  20.158314 0.001465 -15.000000  -1.570796 -0.000000 -1.570796
27  6.688313 0.001464 -6.000000  -0.051945 -0.000000 -1.570796
28  -6.584470 -2.598536 -6.097302  0.359979 0.159864 2.843353
29  -0.000001 13.479276 0.000001  1.990806 -0.000000 0.000000
30  0.000001 13.477239 0.000000  -0.115415 0.637026 -0.213185
31  0.267270 3.664726 -1.953293  -0.174603 0.396888 0.692349
32  -0.000001 1.180355 0.000001  -0.024711 0.025798 1.296300
33  0.000000 0.817135 0.000000  0.012232 0.001270 1.111333
34  0.249423 3.688541 -0.940889  -0.050028 0.197908 0.917566
35  -0.000000 1.800634 0.000000  -0.007162 -0.012483 1.774974
36  0.000000 1.243407 -0.000000  0.004183 -0.005006 0.945407
37  0.244726 3.701095 0.087733  0.012445 0.020003 0.934972
38  0.000000 1.766584 0.000000  0.006918 0.000685 1.464509
39  0.000000 1.189003 -0.000000  -0.004472 0.017123 1.357249
40  0.277239 3.632248 1.274102  0.065416 -0.152210 0.927372
41  -0.000000 1.798494 0.000000  0.022849 -0.016745 1.078747
42  -0.000000 1.235452 0.000000  -0.007143 0.004688 1.572574
43  -0.315441 0.857300 0.755944  -0.623037 -2.717983 1.196723
44  0.000000 2.265940 0.000001  -0.034963 0.056629 0.741260
45  0.000001 1.457812 0.000000  -0.048332 -0.026494 0.468069
46  1.259681 3.818374 1.286946  0.065416 -0.152210 0.927372
47  1.226390 3.891693 0.090419  0.012445 0.020003 0.934972
48  1.231624 3.875535 -0.958680  -0.050028 0.197908 0.917566
49  1.209919 3.994782 -2.003048  -0.174603 0.396887 0.692349
50  -0.328906 0.095429 1.403532  -0.623037 -2.717983 1.196723
51  -9.686556 -4.927155 8.048724  -0.838572 -2.972243 0.284538
52  -8.428300 -13.481788 -15.000002  -1.570796 -0.000000 1.570796
53  -6.584470 -2.598536 -6.097302  -0.051945 0.000000 1.570796
time 3
0  0 0 0  0 0 0
1  0.000000 0.000000 0.000000  1.570796 -0.000000 0.000000
2  6.688313 0.001464 -6.000000  -0.180017 0.981463 -3.105344
3  -0.000000 13.479280 0.000000  0.356810 0.000000 -0.000000
4  -0.000000 13.477240 -0.000000  -0.260936 -0.968770 0.196263
5  -0.267269 3.664727 -1.953293  -0.106568 -0.025893 -0.137951
6  -0.000000 1.180355 -0.000001  -0.036623 -0.007435 -0.177465
7  -0.000001 0.817138 -0.000000  0.004200 -0.011559 0.007420
8  -0.249422 3.688542 -0.940889  -0.060580 -0.013550 -0.130737
9  0.000000 1.800634 -0.000000  0.004940 0.002077 -0.208495
10  0.000001 1.243406 -0.000000  0.006524 -0.000040 -0.064626
11  -0.244726 3.701097 0.087732  0.005036 0.002373 -0.139323
12  0.000000 1.766584 0.000000  0.002490 -0.003552 -0.259702
13  -0.000000 1.189003 0.000000  -0.017590 -0.001952 -0.152464
14  -0.277239 3.632249 1.274102  0.054558 0.010184 -0.144732
15  0.000001 1.798491 -0.000000  0.036314 0.010668 -0.285912
16  -0.000001 1.235453 -0.000000  -0.005152 0.006816 -0.068190
17  0.315441 0.857301 0.755944  1.684115 0.560091 1.563926
18  0.000001 2.265939 -0.000000  -0.057905 -0.032805 -0.238898
19  -0.000001 1.457808 0.000000  -0.029609 0.046490 0.034285
20  -1.259681 3.818376 1.286945  0.054558 0.010184 -0.144732
21  -1.226390 3.891694 0.090419  0.005036 0.002373 -0.139324
22  -1.231623 3.875535 -0.958681  -0.060580 -0.013550 -0.130737
23  -1.209919 3.994782 -2.003048  -0.106568 -0.025893 -0.137951
24  0.328906 0.095429 1.403532  1.684115 0.560091 1.563926
25  7.685551 -26.508362 -6.023971  0.000000 -0.000000 -3.141593
26  20.158314 0.001465 -15.000000  -1.570796 -0.000000 -1.570796
27  6.688313 0.001464 -6.000000  -0.051945 -0.000000 -1.570796
28  -6.584470 -2.598536 -6.097302  0.300460 0.381516 2.644283
29  0.000000 13.479275 0.000000  2.159163 -0.000000 0.000000
30  -0.000002 13.477239 -0.000000  0.013999 0.889513 -0.252189
31  0.267271 3.664726 -1.953293  -0.174603 0.396888 0.692349
32  -0.000001 1.180356 0.000000  -0.024711 0.025798 1.296299
33  -0.000001 0.817134 -0.000000  0.012232 0.001270 1.111333
34  0.249424 3.688541 -0.940889  -0.050028 0.197908 0.917566
35  0.000001 1.800633 0.000001  -0.007162 -0.012483 1.774974
36  0.000001 1.243406 -0.000001  0.004183 -0.005006 0.945407
37  0.244728 3.701096 0.087733  0.012445 0.020003 0.934973
38  0.000001 1.766585 -0.000000  0.006918 0.000685 1.464509
39  0.000001 1.189004 -0.000000  -0.004472 0.017123 1.357249
40  0.277242 3.632248 1.274102  0.065416 -0.152210 0.927371
41  0.000000 1.798495 0.000000  0.022849 -0.016745 1.078747
42  -0.000000 1.235451 -0.000000  -0.007143 0.004688 1.572574
43  -0.315440 0.857300 0.755943  -0.623037 -2.717983 1.196723
44  -0.000000 2.265940 -0.000000  -0.034963 0.056629 0.741260
45  0.000001 1.457811 -0.000000  -0.048332 -0.026494 0.468069
46  1.259683 3.818375 1.286946  0.065416 -0.152210 0.927372
47  1.226392 3.891693 0.090418  0.012445 0.020003 0.934972
48  1.231625 3.875535 -0.958681  -0.050028 0.197908 0.917566
49  1.209921 3.994781 -2.003047  -0.174603 0.396888 0.692349
50  -0.328905 0.095428 1.403533  -0.623037 -2.717983 1.196723
51  -11.820484 -2.502113 5.488184  -0.495726 -2.898539 0.184415
52  -8.428300 -13.481788 -15.000002  -1.570796 -0.000000 1.570796
53  -6.584470 -2.598536 -6.097302  -0.051945 0.000000 1.570796
time 4
0  0 0 0  0 0 0
1  0.000000 0.000000 0.000000  1.570796 -0.000000 0.000000
2  6.688313 0.001464 -6.000000  -0.180017 0.981463 -3.105344
3  -0.000000 13.479280 0.000000  0.356810 0.000000 -0.000000
4  -0.000000 13.477240 -0.000000  -0.260936 -0.968770 0.196263
5  -0.267269 3.664727 -1.953293  -0.106568 -0.025893 -0.137951
6  -0.000000 1.180355 -0.000001  -0.036623 -0.007435 -0.177465
7  -0.000001 0.817138 -0.000000  0.004200 -0.011559 0.007420
8  -0.249422 3.688542 -0.940889  -0.060580 -0.013550 -0.130737
9  0.000000 1.800634 -0.000000  0.004940 0.002077 -0.208495
10  0.000001 1.243406 -0.000000  0.006524 -0.000040 -0.064626
11  -0.244726 3.701097 0.087732  0.005036 0.002373 -0.139323
12  0.000000 1.766584 0.000000  0.002490 -0.003552 -0.259702
13  -0.000000 1.189003 0.000000  -0.017590 -0.001952 -0.152464
14  -0.277239 3.632249 1.274102  0.054558 0.010184 -0.144732
15  0.000001 1.798491 -0.000000  0.036314 0.010668 -0.285912
16  -0.000001 1.235453 -0.000000  -0.005152 0.006816 -0.068190
17  0.315441 0.857301 0.755944  1.684115 0.560091 1.563926
18  0.000001 2.265939 -0.000000  -0.057905 -0.032805 -0.238898
19  -0.000001 1.457808 0.000000  -0.029609 0.046490 0.034285
20  -1.259681 3.818376 1.286945  0.054558 0.010184 -0.144732
21  -1.226390 3.891694 0.090419  0.005036 0.002373 -0.139324
22  -1.231623 3.875535 -0.958681  -0.060580 -0.013550 -0.130737
23  -1.209919 3.994782 -2.003048  -0.106568 -0.025893 -0.137951
24  0.328906 0.095429 1.403532  1.684115 0.560091 1.563926
25  7.685551 -26.508362 -6.023971  0.000000 -0.000000 -3.141593
26  20.158314 0.001465 -15.000000  -1.570796 -0.000000 -1.570796
27  6.688313 0.001464 -6.000000  -0.051945 -0.000000 -1.570796
28  -6.584470 -2.598536 -6.097302  0.961980 0.006260 2.968719
29  0.000000 13.479277 -0.000000  1.175146 -0.000000 0.000000
30  -0.000000 13.477240 0.000000  0.659742 0.205314 0.029664
31  0.267269 3.664726 -1.953292  -0.174603 0.396888 0.692349
32  0.000001 1.180354 0.000000  -0.024711 0.025798 1.296299
33  0.000000 0.817135 -0.000001  0.012232 0.001270 1.111333
34  0.249422 3.688542 -0.940890  -0.050028 0.197907 0.917566
35  0.000001 1.800633 -0.000000  -0.007162 -0.012483 1.774974
36  0.000000 1.243407 -0.000000  0.004183 -0.005006 0.945407
37  0.244725 3.701096 0.087735  0.012445 0.020003 0.934973
38  -0.000000 1.766585 -0.000001  0.006918 0.000685 1.464509
39  -0.000001 1.189004 0.000001  -0.004472 0.017123 1.357249
40  0.277239 3.632248 1.274103  0.065416 -0.152210 0.927371
41  0.000001 1.798494 -0.000000  0.022849 -0.016745 1.078747
42  -0.000000 1.235452 0.000001  -0.007143 0.004688 1.572574
43  -0.315441 0.857300 0.755944  -0.623037 -2.717983 1.196723
44  -0.000000 2.265939 0.000000  -0.034963 0.056629 0.741260
45  -0.000000 1.457812 0.000001  -0.048332 -0.026494 0.468069
46  1.259681 3.818375 1.286947  0.065416 -0.152210 0.927371
47  1.226390 3.891694 0.090420  0.012445 0.020003 0.934972
48  1.231623 3.875535 -0.958681  -0.050028 0.197908 0.917566
49  1.209919 3.994781 -2.003046  -0.174603 0.396888 0.692349
50  -0.328906 0.095429 1.403532  -0.623037 -2.717983 1.196723
51  -6.804964 -3.045070 16.331930  -0.357469 -3.013480 -0.014454
52  -8.428300 -13.481788 -15.000002  -1.570796 -0.000000 1.570796
53  -6.584470 -2.598536 -6.097302  -0.051945 0.000000 1.570796
time 5
0  0 0 0  0 0 0
1  0.000000 0.000000 0.000000  1.570796 -0.000000 0.000000
2  6.688313 0.001464 -6.000000  -0.180017 0.981463 -3.105344
3  -0.000000 13.479280 0.000000  0.356810 0.000000 -0.000000
4  -0.000000 13.477240 -0.000000  -0.260936 -0.968770 0.196263
5  -0.267269 3.664727 -1.953293  -0.106568 -0.025893 -0.137951
6  -0.000000 1.180355 -0.000001  -0.036623 -0.007435 -0.177465
7  -0.000001 0.817138 -0.000000  0.004200 -0.011559 0.007420
8  -0.249422 3.688542 -0.940889  -0.060580 -0.013550 -0.130737
9  0.000000 1.800634 -0.000000  0.004940 0.002077 -0.208495
10  0.000001 1.243406 -0.000000  0.006524 -0.000040 -0.064626
11  -0.244726 3.701097 0.087732  0.005036 0.002373 -0.139323
12  0.000000 1.766584 0.000000  0.002490 -0.003552 -0.259702
13  -0.000000 1.189003 0.000000  -0.017590 -0.001952 -0.152464
14  -0.277239 3.632249 1.274102  0.054558 0.010184 -0.144732
15  0.000001 1.798491 -0.000000  0.036314 0.010668 -0.285912
16  -0.000001 1.235453 -0.000000  -0.005152 0.006816 -0.068190
17  0.315441 0.857301 0.755944  1.684115 0.560091 1.563926
18  0.000001 2.265939 -0.000000  -0.057905 -0.032805 -0.238898
19  -0.000001 1.457808 0.000000  -0.029609 0.046490 0.034285
20  -1.259681 3.818376 1.286945  0.054558 0.010184 -0.144732
21  -1.226390 3.891694 0.090419  0.005036 0.002373 -0.139324
22  -1.231623 3.875535 -0.958681  -0.060580 -0.013550 -0.130737
23  -1.209919 3.994782 -2.003048  -0.106568 -0.025893 -0.137951
24  0.328906 0.095429 1.403532  1.684115 0.560091 1.563926
25  7.685551 -26.508362 -6.023971  0.000000 -0.000000 -3.141593
26  20.158314 0.001465 -15.000000  -1.570796 -0.000000 -1.570796
27  6.688313 0.001464 -6.000000  -0.051945 -0.000000 -1.570796
28  -6.584470 -5.227485 -1.967404  1.357531 -0.174678 -3.085961
29  0.000001 13.479276 0.000000  0.197050 0.000000 0.000000
30  -0.000000 13.477240 -0.000001  -1.334336 0.150635 -0.192580
31  0.267269 3.664727 -1.953294  -0.174603 0.396888 0.692349
32  0.000000 1.180355 0.000001  -0.024711 0.025798 1.296299
33  0.000000 0.817135 -0.000003  0.012232 0.001270 1.111333
34  0.249423 3.688542 -0.940890  -0.050028 0.197908 0.917566
35  -0.000000 1.800633 -0.000000  -0.007162 -0.012483 1.774974
36  -0.000000 1.243406 -0.000002  0.004183 -0.005006 0.945407
37  0.244726 3.701097 0.087733  0.012445 0.020002 0.934972
38  0.000001 1.766584 0.000000  0.006918 0.000685 1.464509
39  0.000001 1.189003 0.000001  -0.004472 0.017123 1.357249
40  0.277239 3.632248 1.274100  0.065416 -0.152210 0.927372
41  0.000001 1.798495 0.000001  0.022849 -0.016745 1.078747
42  0.000001 1.235451 0.000001  -0.007143 0.004688 1.572574
43  -0.315441 0.857300 0.755944  -0.623037 -2.717983 1.196723
44  -0.000001 2.265939 0.000002  -0.034963 0.056629 0.741260
45  0.000002 1.457813 0.000000  -0.048332 -0.026494 0.468069
46  1.259681 3.818376 1.286946  0.065416 -0.152210 0.927371
47  1.226391 3.891694 0.090419  0.012445 0.020003 0.934972
48  1.231623 3.875534 -0.958681  -0.050028 0.197908 0.917566
49  1.209919 3.994782 -2.003051  -0.174603 0.396887 0.692349
50  -0.328906 0.095429 1.403532  -0.623037 -2.717983 1.196723
51  -1.789444 -8.036656 24.276434  0.223353 0.020072 -2.938419
52  -8.428300 -13.481788 -15.000002  -1.570796 -0.000000 1.570796
53  -6.584470 -5.227485 -1.967404  -0.051945 0.000000 1.570796
time 6
0  0 0 0  0 0 0
1  0.000000 0.000000 0.000000  1.570796 -0.000000 0.000000
2  6.688313 0.001464 -6.000000  -0.180017 0.981463 -3.105344
3  -0.000000 13.479280 0.000000  0.356810 0.000000 -0.000000
4  -0.000000 13.477240 -0.000000  -0.260936 -0.968770 0.196263
5  -0.267269 3.664727 -1.953293  -0.106568 -0.025893 -0.137951
6  -0.000000 1.180355 -0.000001  -0.036623 -0.007435 -0.177465
7  -0.000001 0.817138 -0.000000  0.004200 -0.011559 0.007420
8  -0.249422 3.688542 -0.940889  -0.060580 -0.013550 -0.130737
9  0.000000 1.800634 -0.000000  0.004940 0.002077 -0.208495
10  0.000001 1.243406 -0.000000  0.006524 -0.000040 -0.064626
11  -0.244726 3.701097 0.087732  0.005036 0.002373 -0.139323
12  0.000000 1.766584 0.000000  0.002490 -0.003552 -0.259702
13  -0.000000 1.189003 0.000000  -0.017590 -0.001952 -0.152464
14  -0.277239 3.632249 1.274102  0.054558 0.010184 -0.144732
15  0.000001 1.798491 -0.000000  0.036314 0.010668 -0.285912
16  -0.000001 1.235453 -0.000000  -0.005152 0.006816 -0.068190
17  0.315441 0.857301 0.755944  1.684115 0.560091 1.563926
18  0.000001 2.265939 -0.000000  -0.057905 -0.032805 -0.238898
19  -0.000001 1.457808 0.000000  -0.029609 0.046490 0.034285
20  -1.259681 3.818376 1.286945  0.054558 0.010184 -0.144732
21  -1.226390 3.891694 0.090419  0.005036 0.002373 -0.139324
22  -1.231623 3.875535 -0.958681  -0.060580 -0.013550 -0.130737
23  -1.209919 3.994782 -2.003048  -0.106568 -0.025893 -0.137951
24  0.328906 0.095429 1.403532  1.684115 0.560091 1.563926
25  7.685551 -26.508362 -6.023971  0.000000 -0.000000 -3.141593
26  20.158314 0.001465 -15.000000  -1.570796 -0.000000 -1.570796
27  6.688313 0.001464 -6.000000  -0.051945 -0.000000 -1.570796
28  -6.485561 -5.173302 -2.007149  1.298407 -0.151863 -3.136088
29  0.000000 13.479274 0.000002  0.004796 0.000000 0.000000
30  -0.000000 13.477239 0.000001  -1.694696 0.218550 -0.099470
31  0.267269 3.664727 -1.953291  -0.174603 0.396888 0.692349
32  0.000001 1.180355 0.000001  -0.024711 0.025798 1.296300
33  0.000000 0.817135 0.000000  0.012232 0.001270 1.111333
34  0.249423 3.688542 -0.940888  -0.050028 0.197908 0.917566
35  0.000001 1.800633 -0.000001  -0.007162 -0.012483 1.774974
36  0.000000 1.243407 -0.000001  0.004183 -0.005006 0.945407
37  0.244726 3.701096 0.087733  0.012445 0.020003 0.934972
38  -0.000002 1.766583 -0.000001  0.006918 0.000685 1.464509
39  0.000000 1.189004 -0.000003  -0.004472 0.017123 1.357249
40  0.277239 3.632248 1.274102  0.065416 -0.152210 0.927372
41  -0.000001 1.798495 -0.000004  0.022849 -0.016745 1.078747
42  -0.000001 1.235451 0.000002  -0.007143 0.004688 1.572574
43  -0.315441 0.857299 0.755945  -0.623037 -2.717983 1.196723
44  0.000000 2.265939 0.000002  -0.034963 0.056629 0.741260
45  0.000001 1.457811 0.000000  -0.048332 -0.026494 0.468069
46  1.259681 3.818375 1.286948  0.065416 -0.152210 0.927372
47  1.226390 3.891695 0.090419  0.012445 0.020003 0.934972
48  1.231623 3.875534 -0.958681  -0.050028 0.197908 0.917566
49  1.209919 3.994782 -2.003046  -0.174603 0.396888 0.692349
50  -0.328906 0.095429 1.403534  -0.623037 -2.717983 1.196723
51  -2.490738 -12.386600 23.835861  -0.394451 0.002134 -2.951577
52  -8.428300 -13.481788 -15.000002  -1.570796 -0.000000 1.570796
53  -6.485561 -5.173302 -2.007149  -0.051945 0.000000 1.570796
time 7
0  0 0 0  0 0 0
1  0.000000 0.000000 0.000000  1.570796 -0.000000 0.000000
2  6.688313 0.001464 -6.000000  -0.180017 0.981463 -3.105344
3  -0.000000 13.479280 0.000000  0.356810 0.000000 -0.000000
4  -0.000000 13.477240 -0.000000  -0.260936 -0.968770 0.196263
5  -0.267269 3.664727 -1.953293  -0.106568 -0.025893 -0.137951
6  -0.000000 1.180355 -0.000001  -0.036623 -0.007435 -0.177465
7  -0.000001 0.817138 -0.000000  0.004200 -0.011559 0.007420
8  -0.249422 3.688542 -0.940889  -0.060580 -0.013550 -0.130737
9  0.000000 1.800634 -0.000000  0.004940 0.002077 -0.208495
10  0.000001 1.243406 -0.000000  0.006524 -0.000040 -0.064626
11  -0.244726 3.701097 0.087732  0.005036 0.002373 -0.139323
12  0.000000 1.766584 0.000000  0.002490 -0.003552 -0.259702
13  -0.000000 1.189003 0.000000  -0.017590 -0.001952 -0.152464
14  -0.277239 3.632249 1.274102  0.054558 0.010184 -0.144732
15  0.000001 1.798491 -0.000000  0.036314 0.010668 -0.285912
16  -0.000001 1.235453 -0.000000  -0.005152 0.006816 -0.068190
17  0.315441 0.857301 0.755944  1.684115 0.560091 1.563926
18  0.000001 2.265939 -0.000000  -0.057905 -0.032805 -0.238898
19  -0.000001 1.457808 0.000000  -0.029609 0.046490 0.034285
20  -1.259681 3.818376 1.286945  0.054558 0.010184 -0.144732
21  -1.226390 3.891694 0.090419  0.005036 0.002373 -0.139324
22  -1.231623 3.875535 -0.958681  -0.060580 -0.013550 -0.130737
23  -1.209919 3.994782 -2.003048  -0.106568 -0.025893 -0.137951
24  0.328906 0.095429 1.403532  1.684115 0.560091 1.563926
25  7.685551 -26.508362 -6.023971  0.000000 -0.000000 -3.141593
26  20.158314 0.001465 -15.000000  -1.570796 -0.000000 -1.570796
27  6.688313 0.001464 -6.000000  -0.051945 -0.000000 -1.570796
28  -6.444888 -5.025376 -2.134659  1.049384 -0.118388 3.088314
29  -0.000000 13.479279 0.000000  0.338267 -0.000000 0.000000
30  0.000000 13.477238 -0.000001  -1.998642 0.208467 -0.042053
31  0.267270 3.664727 -1.953294  -0.174603 0.396888 0.692349
32  -0.000000 1.180355 0.000001  -0.024711 0.025798 1.296299
33  -0.000000 0.817134 -0.000002  0.012232 0.001270 1.111333
34  0.249422 3.688544 -0.940890  -0.050028 0.197908 0.917566
35  0.000001 1.800633 -0.000001  -0.007162 -0.012483 1.774974
36  0.000001 1.243406 -0.000003  0.004183 -0.005006 0.945407
37  0.244726 3.701097 0.087731  0.012445 0.020003 0.934972
38  -0.000001 1.766585 -0.000001  0.006918 0.000685 1.464509
39  -0.000002 1.189003 0.000000  -0.004472 0.017123 1.357249
40  0.277239 3.632250 1.274103  0.065416 -0.152210 0.927372
41  0.000001 1.798494 0.000000  0.022849 -0.016745 1.078747
42  0.000001 1.235451 0.000000  -0.007143 0.004688 1.572574
43  -0.315441 0.857301 0.755944  -0.623037 -2.717983 1.196723
44  0.000000 2.265940 0.000000  -0.034963 0.056629 0.741260
45  -0.000002 1.457812 0.000000  -0.048332 -0.026494 0.468069
46  1.259681 3.818377 1.286946  0.065416 -0.152210 0.927371
47  1.226391 3.891695 0.090419  0.012445 0.020003 0.934972
48  1.231623 3.875536 -0.958680  -0.050028 0.197908 0.917566
49  1.209918 3.994782 -2.003047  -0.174603 0.396888 0.692349
50  -0.328906 0.095429 1.403533  -0.623037 -2.717983 1.196723
51  -3.991629 -14.337847 22.630692  -0.622063 -0.037874 -2.997442
52  -8.428300 -13.481788 -15.000002  -1.570796 -0.000000 1.570796
53  -6.444888 -5.025376 -2.134659  -0.051945 0.000000 1.570796
time 8
0  0 0 0  0 0 0
1  0.000000 0.000000 0.000000  1.570796 -0.000000 0.000000
2  6.688313 0.001464 -6.000000  -0.180017 0.981463 -3.105344
3  -0.000000 13.479280 0.000000  0.356810 0.000000 -0.000000
4  -0.000000 13.477240 -0.000000  -0.260936 -0.968770 0.196263
5  -0.267269 3.664727 -1.953293  -0.106568 -0.025893 -0.137951
6  -0.000000 1.180355 -0.000001  -0.036623 -0.007435 -0.177465
7  -0.000001 0.817138 -0.000000  0.004200 -0.011559 0.007420
8  -0.249422 3.688542 -0.940889  -0.060580 -0.013550 -0.130737
9  0.000000 1.800634 -0.000000  0.004940 0.002077 -0.208495
10  0.000001 1.243406 -0.000000  0.006524 -0.000040 -0.064626
11  -0.244726 3.701097 0.087732  0.005036 0.002373 -0.139323
12  0.000000 1.766584 0.000000  0.002490 -0.003552 -0.259702
13  -0.000000 1.189003 0.000000  -0.017590 -0.001952 -0.152464
14  -0.277239 3.632249 1.274102  0.054558 0.010184 -0.144732
15  0.000001 1.798491 -0.000000  0.036314 0.010668 -0.285912
16  -0.000001 1.235453 -0.000000  -0.005152 0.006816 -0.068190
17  0.315441 0.857301 0.755944  1.684115 0.560091 1.563926
18  0.000001 2.265939 -0.000000  -0.057905 -0.032805 -0.238898
19  -0.000001 1.457808 0.000000  -0.029609 0.046490 0.034285
20  -1.259681 3.818376 1.286945  0.054558 0.010184 -0.144732
21  -1.226390 3.891694 0.090419  0.005036 0.002373 -0.139324
22  -1.231623 3.875535 -0.958681  -0.060580 -0.013550 -0.130737
23  -1.209919 3.994782 -2.003048  -0.106568 -0.025893 -0.137951
24  0.328906 0.095429 1.403532  1.684115 0.560091 1.563926
25  7.685551 -26.508362 -6.023971  0.000000 -0.000000 -3.141593
26  20.158314 0.001465 -15.000000  -1.570796 -0.000000 -1.570796
27  6.688313 0.001464 -6.000000  -0.051945 -0.000000 -1.570796
28  -6.423782 -4.805641 -2.340365  0.814164 -0.087880 3.040129
29  -0.000001 13.479277 -0.000000  0.714051 -0.000000 0.000000
30  -0.000000 13.477238 -0.000001  -2.169696 0.157143 -0.000906
31  0.267269 3.664726 -1.953290  -0.174603 0.396888 0.692349
32  0.000000 1.180354 0.000000  -0.024711 0.025798 1.296299
33  -0.000000 0.817135 0.000000  0.012232 0.001270 1.111333
34  0.249423 3.688541 -0.940886  -0.050028 0.197908 0.917566
35  -0.000000 1.800632 0.000001  -0.007162 -0.012483 1.774974
36  -0.000000 1.243407 0.000004  0.004183 -0.005006 0.945407
37  0.244727 3.701096 0.087736  0.012445 0.020003 0.934972
38  -0.000001 1.766583 -0.000000  0.006918 0.000685 1.464509
39  -0.000000 1.189005 0.000003  -0.004472 0.017123 1.357249
40  0.277239 3.632248 1.274104  0.065416 -0.152210 0.927371
41  -0.000001 1.798494 0.000002  0.022849 -0.016745 1.078746
42  0.000000 1.235451 -0.000001  -0.007143 0.004688 1.572574
43  -0.315441 0.857299 0.755944  -0.623037 -2.717983 1.196723
44  -0.000002 2.265939 0.000000  -0.034963 0.056629 0.741260
45  -0.000000 1.457811 -0.000002  -0.048332 -0.026494 0.468068
46  1.259682 3.818373 1.286949  0.065416 -0.152210 0.927372
47  1.226391 3.891692 0.090422  0.012445 0.020003 0.934972
48  1.231623 3.875535 -0.958677  -0.050028 0.197908 0.917566
49  1.209920 3.994782 -2.003046  -0.174603 0.396888 0.692349
50  -0.328906 0.095427 1.403535  -0.623037 -2.717983 1.196723
51  -5.387642 -14.788651 20.835739  -0.654579 -0.079242 -3.085597
52  -8.428300 -13.481788 -15.000002  -1.570796 -0.000000 1.570796
53  -6.423782 -4.805641 -2.340365  -0.051945 0.000000 1.570796
time 9
0  0 0 0  0 0 0
1  0.000000 0.000000 0.000000  1.570796 -0.000000 0.000000
2  6.688313 0.001464 -6.000000  -0.180017 0.981463 -3.105344
3  -0.000000 13.479280 0.000000  0.356810 0.000000 -0.000000
4  -0.000000 13.477240 -0.000000  -0.260936 -0.968770 0.196263
5  -0.267269 3.664727 -1.953293  -0.106568 -0.025893 -0.137951
6  -0.000000 1.180355 -0.000001  -0.036623 -0.007435 -0.177465
7  -0.000001 0.817138 -0.000000  0.004200 -0.011559 0.007420
8  -0.249422 3.688542 -0.940889  -0.060580 -0.013550 -0.130737
9  0.000000 1.800634 -0.000000  0.004940 0.002077 -0.208495
10  0.000001 1.243406 -0.000000  0.006524 -0.000040 -0.064626
11  -0.244726 3.701097 0.087732  0.005036 0.002373 -0.139323
12  0.000000 1.766584 0.000000  0.002490 -0.003552 -0.259702
13  -0.000000 1.189003 0.000000  -0.017590 -0.001952 -0.152464
14  -0.277239 3.632249 1.274102  0.054558 0.010184 -0.144732
15  0.000001 1.798491 -0.000000  0.036314 0.010668 -0.285912
16  -0.000001 1.235453 -0.000000  -0.005152 0.006816 -0.068190
17  0.315441 0.857301 0.755944  1.684115 0.560091 1.563926
18  0.000001 2.265939 -0.000000  -0.057905 -0.032805 -0.238898
19  -0.000001 1.457808 0.000000  -0.029609 0.046490 0.034285
20  -1.259681 3.818376 1.286945  0.054558 0.010184 -0.144732
21  -1.226390 3.891694 0.090419  0.005036 0.002373 -0.139324
22  -1.231623 3.875535 -0.958681  -0.060580 -0.013550 -0.130737
23  -1.209919 3.994782 -2.003048  -0.106568 -0.025893 -0.137951
24  0.328906 0.095429 1.403532  1.684115 0.560091 1.563926
25  7.685551 -26.508362 -6.023971  0.000000 -0.000000 -3.141593
26  20.158314 0.001465 -15.000000  -1.570796 -0.000000 -1.570796
27  6.688313 0.001464 -6.000000  -0.051945 -0.000000 -1.570796
28  -6.391673 -4.536030 -2.614119  0.623281 -0.065817 3.006844
29  0.000001 13.479274 -0.000001  1.018143 -0.000000 0.000000
30  0.000000 13.477241 0.000001  -2.225835 0.064560 0.035475
31  0.267269 3.664728 -1.953291  -0.174603 0.396888 0.692349
32  -0.000000 1.180356 0.000001  -0.024711 0.025798 1.296300
33  0.000001 0.817136 0.000000  0.012232 0.001270 1.111333
34  0.249422 3.688543 -0.940887  -0.050028 0.197907 0.917566
35  -0.000001 1.800635 -0.000000  -0.007162 -0.012483 1.774974
36  0.000002 1.243406 -0.000001  0.004184 -0.005006 0.945407
37  0.244727 3.701095 0.087735  0.012445 0.020003 0.934972
38  -0.000000 1.766585 -0.000003  0.006918 0.000685 1.464509
39  -0.000000 1.189003 -0.000001  -0.004472 0.017123 1.357249
40  0.277239 3.632248 1.274103  0.065416 -0.152210 0.927371
41  -0.000002 1.798493 -0.000001  0.022849 -0.016745 1.078746
42  -0.000000 1.235451 0.000002  -0.007143 0.004688 1.572574
43  -0.315441 0.857301 0.755944  -0.623037 -2.717983 1.196723
44  0.000000 2.265937 0.000003  -0.034963 0.056629 0.741260
45  -0.000001 1.457811 -0.000002  -0.048332 -0.026494 0.468069
46  1.259681 3.818375 1.286947  0.065416 -0.152210 0.927371
47  1.226390 3.891693 0.090420  0.012445 0.020003 0.934972
48  1.231623 3.875534 -0.958679  -0.050028 0.197908 0.917566
49  1.209919 3.994782 -2.003047  -0.174603 0.396888 0.692349
50  -0.328906 0.095428 1.403533  -0.623037 -2.717983 1.196723
51  -6.345297 -14.627174 18.650610  -0.590885 -0.105560 3.069087
52  -8.428300 -13.481788 -15.000002  -1.570796 -0.000000 1.570796
53  -6.391673 -4.536030 -2.614119  -0.051945 0.000000 1.570796
time 10
0  0 0 0  0 0 0
1  0.000000 0.000000 0.000000  1.570796 -0.000000 0.000000
2  6.688313 0.001464 -6.000000  -0.180017 0.981463 -3.105344
3  -0.000000 13.479280 0.000000  0.356810 0.000000 -0.000000
4  -0.000000 13.477240 -0.000000  -0.260936 -0.968770 0.196263
5  -0.267269 3.664727 -1.953293  -0.106568 -0.025893 -0.137951
6  -0.000000 1.180355 -0.000001  -0.036623 -0.007435 -0.177465
7  -0.000001 0.817138 -0.000000  0.004200 -0.011559 0.007420
8  -0.249422 3.688542 -0.940889  -0.060580 -0.013550 -0.130737
9  0.000000 1.800634 -0.000000  0.004940 0.002077 -0.208495
10  0.000001 1.243406 -0.000000  0.006524 -0.000040 -0.064626
11  -0.244726 3.701097 0.087732  0.005036 0.002373 -0.139323
12  0.000000 1.766584 0.000000  0.002490 -0.003552 -0.259702
13  -0.000000 1.189003 0.000000  -0.017590 -0.001952 -0.152464
14  -0.277239 3.632249 1.274102  0.054558 0.010184 -0.144732
15  0.000001 1.798491 -0.000000  0.036314 0.010668 -0.285912
16  -0.000001 1.235453 -0.000000  -0.005152 0.006816 -0.068190
17  0.315441 0.857301 0.755944  1.684115 0.560091 1.563926
18  0.000001 2.265939 -0.000000  -0.057905 -0.032805 -0.238898
19  -0.000001 1.457808 0.000000  -0.029609 0.046490 0.034285
20  -1.259681 3.818376 1.286945  0.054558 0.010184 -0.144732
21  -1.226390 3.891694 0.090419  0.005036 0.002373 -0.139324
22  -1.231623 3.875535 -0.958681  -0.060580 -0.013550 -0.130737
23  -1.209919 3.994782 -2.003048  -0.106568 -0.025893 -0.137951
24  0.328906 0.095429 1.403532  1.684115 0.560091 1.563926
25  7.685551 -26.508362 -6.023971  0.000000 -0.000000 -3.141593
26  20.158314 0.001465 -15.000000  -1.570796 -0.000000 -1.570796
27  6.688313 0.001464 -6.000000  -0.051945 -0.000000 -1.570796
28  -6.350364 -4.238478 -2.943441  0.463636 -0.044019 2.976548
29  -0.000000 13.479277 0.000000  1.264996 -0.000000 0.000000
30  -0.000000 13.477237 -0.000001  -2.149869 -0.016147 0.077132
31  0.267269 3.664726 -1.953288  -0.174603 0.396887 0.692349
32  -0.000001 1.180354 -0.000000  -0.024711 0.025798 1.296300
33  -0.000000 0.817135 0.000002  0.012232 0.001270 1.111333
34  0.249422 3.688542 -0.940884  -0.050028 0.197907 0.917566
35  0.000000 1.800633 0.000002  -0.007162 -0.012483 1.774974
36  -0.000000 1.243407 0.000001  0.004183 -0.005006 0.945407
37  0.244727 3.701095 0.087738  0.012445 0.020002 0.934973
38  0.000002 1.766584 -0.000001  0.006918 0.000685 1.464509
39  0.000001 1.189003 -0.000000  -0.004472 0.017123 1.357249
40  0.277240 3.632246 1.274108  0.065416 -0.152210 0.927372
41  -0.000001 1.798496 -0.000001  0.022849 -0.016745 1.078747
42  -0.000002 1.235452 0.000000  -0.007143 0.004688 1.572574
43  -0.315441 0.857299 0.755948  -0.623037 -2.717983 1.196723
44  0.000000 2.265938 -0.000000  -0.034963 0.056629 0.741260
45  -0.000000 1.457813 -0.000001  -0.048332 -0.026494 0.468069
46  1.259681 3.818375 1.286950  0.065416 -0.152210 0.927372
47  1.226391 3.891692 0.090424  0.012445 0.020003 0.934972
48  1.231622 3.875534 -0.958675  -0.050028 0.197908 0.917566
49  1.209919 3.994781 -2.003043  -0.174603 0.396887 0.692349
50  -0.328906 0.095428 1.403537  -0.623037 -2.717983 1.196723
51  -7.143744 -14.180738 16.374046  -0.418331 -0.117618 2.948293
52  -8.428300 -13.481788 -15.000002  -1.570796 -0.000000 1.570796
53  -6.350364 -4.238478 -2.943441  -0.051945 0.000000 1.570796
time 11
0  0 0 0  0 0 0
1  0.000000 0.000000 0.000000  1.570796 -0.000000 0.000000
2  6.688313 0.001464 -6.000000  -0.180017 0.981463 -3.105344
3  -0.000000 13.479280 0.000000  0.356810 0.000000 -0.000000
4  -0.000000 13.477240 -0.000000  -0.260936 -0.968770 0.196263
5  -0.267269 3.664727 -1.953293  -0.106568 -0.025893 -0.137951
6  -0.000000 1.180355 -0.000001  -0.036623 -0.007435 -0.177465
7  -0.000001 0.817138 -0.000000  0.004200 -0.011559 0.007420
8  -0.249422 3.688542 -0.940889  -0.060580 -0.013550 -0.130737
9  0.000000 1.800634 -0.000000  0.004940 0.002077 -0.208495
10  0.000001 1.243406 -0.000000  0.006524 -0.000040 -0.064626
11  -0.244726 3.701097 0.087732  0.005036 0.002373 -0.139323
12  0.000000 1.766584 0.000000  0.002490 -0.003552 -0.259702
13  -0.000000 1.189003 0.000000  -0.017590 -0.001952 -0.152464
14  -0.277239 3.632249 1.274102  0.054558 0.010184 -0.144732
15  0.000001 1.798491 -0.000000  0.036314 0.010668 -0.285912
16  -0.000001 1.235453 -0.000000  -0.005152 0.006816 -0.068190
17  0.315441 0.857301 0.755944  1.684115 0.560091 1.563926
18  0.000001 2.265939 -0.000000  -0.057905 -0.032805 -0.238898
19  -0.000001 1.457808 0.000000  -0.029609 0.046490 0.034285
20  -1.259681 3.818376 1.286945  0.054558 0.010184 -0.144732
21  -1.226390 3.891694 0.090419  0.005036 0.002373 -0.139324
22  -1.231623 3.875535 -0.958681  -0.060580 -0.013550 -0.130737
23  -1.209919 3.994782 -2.003048  -0.106568 -0.025893 -0.137951
24  0.328906 0.095429 1.403532  1.684115 0.560091 1.563926
25  7.685551 -26.508362 -6.023971  0.000000 -0.000000 -3.141593
26  20.158314 0.001465 -15.000000  -1.570796 -0.000000 -1.570796
27  6.688313 0.001464 -6.000000  -0.051945 -0.000000 -1.570796
28  -6.309758 -3.934918 -3.315274  0.341663 -0.021267 2.948639
29  -0.000001 13.479277 0.000000  1.455179 -0.000000 0.000000
30  0.000000 13.477240 -0.000001  -1.966996 -0.029868 0.108825
31  0.267269 3.664727 -1.953293  -0.174603 0.396888 0.692349
32  0.000001 1.180355 0.000001  -0.024711 0.025798 1.296299
33  -0.000000 0.817135 0.000001  0.012232 0.001270 1.111333
34  0.249423 3.688541 -0.940889  -0.050028 0.197907 0.917566
35  -0.000000 1.800632 -0.000002  -0.007162 -0.012483 1.774974
36  0.000000 1.243406 -0.000000  0.004183 -0.005006 0.945407
37  0.244726 3.701094 0.087733  0.012445 0.020003 0.934972
38  -0.000001 1.766585 -0.000001  0.006918 0.000685 1.464509
39  -0.000001 1.189003 0.000001  -0.004472 0.017123 1.357249
40  0.277239 3.632246 1.274102  0.065416 -0.152210 0.927372
41  0.000000 1.798494 -0.000000  0.022849 -0.016745 1.078747
42  -0.000002 1.235452 0.000001  -0.007143 0.004688 1.572574
43  -0.315442 0.857300 0.755943  -0.623037 -2.717983 1.196723
44  -0.000000 2.265938 -0.000000  -0.034963 0.056629 0.741260
45  0.000000 1.457811 0.000000  -0.048332 -0.026494 0.468069
46  1.259681 3.818376 1.286944  0.065416 -0.152210 0.927371
47  1.226390 3.891693 0.090419  0.012445 0.020003 0.934972
48  1.231622 3.875535 -0.958681  -0.050028 0.197908 0.917566
49  1.209918 3.994782 -2.003048  -0.174603 0.396888 0.692349
50  -0.328907 0.095429 1.403532  -0.623037 -2.717983 1.196723
51  -7.797455 -13.506335 14.329565  -0.164707 -0.120506 2.894788
52  -8.428300 -13.481788 -15.000002  -1.570796 -0.000000 1.570796
53  -6.309758 -3.934918 -3.315274  -0.051945 0.000000 1.570796
time 12
0  0 0 0  0 0 0
1  0.000000 0.000000 0.000000  1.570796 -0.000000 0.000000
2  6.688313 0.001464 -6.000000  -0.180017 0.981463 -3.105344
3  -0.000000 13.479280 0.000000  0.356810 0.000000 -0.000000
4  -0.000000 13.477240 -0.000000  -0.260936 -0.968770 0.196263
5  -0.267269 3.664727 -1.953293  -0.106568 -0.025893 -0.137951
6  -0.000000 1.180355 -0.000001  -0.036623 -0.007435 -0.177465
7  -0.000001 0.817138 -0.000000  0.004200 -0.011559 0.007420
8  -0.249422 3.688542 -0.940889  -0.060580 -0.013550 -0.130737
9  0.000000 1.800634 -0.000000  0.004940 0.002077 -0.208495
10  0.000001 1.243406 -0.000000  0.006524 -0.000040 -0.064626
11  -0.244726 3.701097 0.087732  0.005036 0.002373 -0.139323
12  0.000000 1.766584 0.000000  0.002490 -0.003552 -0.259702
13  -0.000000 1.189003 0.000000  -0.017590 -0.001952 -0.152464
14  -0.277239 3.632249 1.274102  0.054558 0.010184 -0.144732
15  0.000001 1.798491 -0.000000  0.036314 0.010668 -0.285912
16  -0.000001 1.235453 -0.000000  -0.005152 0.006816 -0.068190
17  0.315441 0.857301 0.755944  1.684115 0.560091 1.563926
18  0.000001 2.265939 -0.000000  -0.057905 -0.032805 -0.238898
19  -0.000001 1.457808 0.000000  -0.029609 0.046490 0.034285
20  -1.259681 3.818376 1.286945  0.054558 0.010184 -0.144732
21  -1.226390 3.891694 0.090419  0.005036 0.002373 -0.139324
22  -1.231623 3.875535 -0.958681  -0.060580 -0.013550 -0.130737
23  -1.209919 3.994782 -2.003048  -0.106568 -0.025893 -0.137951
24  0.328906 0.095429 1.403532  1.684115 0.560091 1.563926
25  7.685551 -26.508362 -6.023971  0.000000 -0.000000 -3.141593
26  20.158314 0.001465 -15.000000  -1.570796 -0.000000 -1.570796
27  6.688313 0.001464 -6.000000  -0.051945 -0.000000 -1.570796
28  -6.279754 -3.647284 -3.716558  0.266836 0.002617 2.923568
29  -0.000001 13.479277 0.000000  1.586712 -0.000000 0.000000
30  -0.000001 13.477238 0.000000  -1.708417 0.084603 0.038599
31  0.267271 3.664726 -1.953293  -0.174603 0.396888 0.692349
32  -0.000001 1.180355 -0.000001  -0.024711 0.025798 1.296299
33  -0.000001 0.817136 -0.000000  0.012232 0.001270 1.111333
34  0.249424 3.688542 -0.940889  -0.050028 0.197908 0.917566
35  -0.000002 1.800631 0.000000  -0.007162 -0.012483 1.774974
36  0.000000 1.243404 0.000002  0.004183 -0.005006 0.945407
37  0.244727 3.701096 0.087733  0.012445 0.020003 0.934972
38  -0.000001 1.766584 -0.000001  0.006918 0.000685 1.464509
39  -0.000001 1.189003 -0.000001  -0.004472 0.017123 1.357249
40  0.277240 3.632249 1.274102  0.065416 -0.152210 0.927372
41  -0.000001 1.798493 0.000001  0.022849 -0.016745 1.078747
42  0.000002 1.235452 -0.000001  -0.007143 0.004688 1.572573
43  -0.315441 0.857301 0.755944  -0.623037 -2.717983 1.196723
44  -0.000001 2.265940 0.000001  -0.034963 0.056629 0.741260
45  -0.000001 1.457811 0.000001  -0.048332 -0.026494 0.468068
46  1.259682 3.818376 1.286945  0.065416 -0.152210 0.927371
47  1.226391 3.891694 0.090419  0.012445 0.020003 0.934972
48  1.231624 3.875534 -0.958680  -0.050028 0.197908 0.917566
49  1.209919 3.994781 -2.003048  -0.174603 0.396887 0.692349
50  -0.328905 0.095429 1.403532  -0.623037 -2.717983 1.196723
51  -8.320908 -12.660956 12.778404  0.141542 -0.057927 2.994164
52  -8.428300 -13.481788 -15.000002  -1.570796 -0.000000 1.570796
53  -6.279754 -3.647284 -3.716558  -0.051945 0.000000 1.570796
time 13
0  0 0 0  0 0 0
1  0.000000 0.000000 0.000000  1.570796 -0.000000 0.000000
2  6.688313 0.001464 -6.000000  -0.180017 0.981463 -3.105344
3  -0.000000 13.479280 0.000000  0.356810 0.000000 -0.000000
4  -0.000000 13.477240 -0.000000  -0.260936 -0.968770 0.196263
5  -0.267269 3.664727 -1.953293  -0.106568 -0.025893 -0.137951
6  -0.000000 1.180355 -0.000001  -0.036623 -0.007435 -0.177465
7  -0.000001 0.817138 -0.000000  0.004200 -0.011559 0.007420
8  -0.249422 3.688542 -0.940889  -0.060580 -0.013550 -0.130737
9  0.000000 1.800634 -0.000000  0.004940 0.002077 -0.208495
10  0.000001 1.243406 -0.000000  0.006524 -0.000040 -0.064626
11  -0.244726 3.701097 0.087732  0.005036 0.002373 -0.139323
12  0.000000 1.766584 0.000000  0.002490 -0.003552 -0.259702
13  -0.000000 1.189003 0.000000  -0.017590 -0.001952 -0.152464
14  -0.277239 3.632249 1.274102  0.054558 0.010184 -0.144732
15  0.000001 1.798491 -0.000000  0.036314 0.010668 -0.285912
16  -0.000001 1.235453 -0.000000  -0.005152 0.006816 -0.068190
17  0.315441 0.857301 0.755944  1.684115 0.560091 1.563926
18  0.000001 2.265939 -0.000000  -0.057905 -0.032805 -0.238898
19  -0.000001 1.457808 0.000000  -0.029609 0.046490 0.034285
20  -1.259681 3.818376 1.286945  0.054558 0.010184 -0.144732
21  -1.226390 3.891694 0.090419  0.005036 0.002373 -0.139324
22  -1.231623 3.875535 -0.958681  -0.060580 -0.013550 -0.130737
23  -1.209919 3.994782 -2.003048  -0.106568 -0.025893 -0.137951
24  0.328906 0.095429 1.403532  1.684115 0.560091 1.563926
25  7.685551 -26.508362 -6.023971  0.000000 -0.000000 -3.141593
26  20.158314 0.001465 -15.000000  -1.570796 -0.000000 -1.570796
27  6.688313 0.001464 -6.000000  -0.051945 -0.000000 -1.570796
28  -6.276461 -3.393695 -4.134029  0.236184 0.026623 2.903383
29  -0.000000 13.479278 -0.000000  1.671327 -0.000000 0.000000
30  -0.000000 13.477241 0.000000  -1.476395 0.271861 -0.158025
31  0.267270 3.664726 -1.953294  -0.174603 0.396887 0.692349
32  0.000000 1.180355 -0.000000  -0.024711 0.025798 1.296300
33  0.000001 0.817136 -0.000001  0.012232 0.001270 1.111334
34  0.249423 3.688541 -0.940890  -0.050028 0.197907 0.917566
35  0.000000 1.800633 -0.000001  -0.007162 -0.012483 1.774974
36  0.000000 1.243406 -0.000000  0.004183 -0.005006 0.945407
37  0.244726 3.701095 0.087732  0.012445 0.020002 0.934973
38  0.000000 1.766585 0.000001  0.006918 0.000685 1.464509
39  0.000000 1.189001 -0.000001  -0.004472 0.017123 1.357249
40  0.277239 3.632247 1.274101  0.065416 -0.152210 0.927372
41  0.000001 1.798494 -0.000002  0.022849 -0.016745 1.078747
42  0.000000 1.235450 0.000000  -0.007143 0.004688 1.572574
43  -0.315441 0.857300 0.755942  -0.623037 -2.717983 1.196723
44  0.000000 2.265939 -0.000001  -0.034963 0.056629 0.741260
45  0.000000 1.457809 -0.000000  -0.048332 -0.026494 0.468069
46  1.259681 3.818374 1.286944  0.065416 -0.152210 0.927371
47  1.226391 3.891693 0.090418  0.012445 0.020003 0.934972
48  1.231622 3.875534 -0.958681  -0.050028 0.197908 0.917566
49  1.209918 3.994781 -2.003048  -0.174603 0.396888 0.692349
50  -0.328906 0.095428 1.403532  -0.623037 -2.717983 1.196723
51  -8.728575 -11.701593 11.732624  0.469361 0.079745 -3.070393
52  -8.428300 -13.481788 -15.000002  -1.570796 -0.000000 1.570796
53  -6.276461 -3.393695 -4.134029  -0.051945 0.000000 1.570796
time 14
0  0 0 0  0 0 0
1  0.000000 0.000000 0.000000  1.570796 -0.000000 0.000000
2  6.688313 0.001464 -6.000000  -0.180017 0.981463 -3.105344
3  -0.000000 13.479280 0.000000  0.356810 0.000000 -0.000000
4  -0.000000 13.477240 -0.000000  -0.260936 -0.968770 0.196263
5  -0.267269 3.664727 -1.953293  -0.106568 -0.025893 -0.137951
6  -0.000000 1.180355 -0.000001  -0.036623 -0.007435 -0.177465
7  -0.000001 0.817138 -0.000000  0.004200 -0.011559 0.007420
8  -0.249422 3.688542 -0.940889  -0.060580 -0.013550 -0.130737
9  0.000000 1.800634 -0.000000  0.004940 0.002077 -0.208495
10  0.000001 1.243406 -0.000000  0.006524 -0.000040 -0.064626
11  -0.244726 3.701097 0.087732  0.005036 0.002373 -0.139323
12  0.000000 1.766584 0.000000  0.002490 -0.003552 -0.259702
13  -0.000000 1.189003 0.000000  -0.017590 -0.001952 -0.152464
14  -0.277239 3.632249 1.274102  0.054558 0.010184 -0.144732
15  0.000001 1.798491 -0.000000  0.036314 0.010668 -0.285912
16  -0.000001 1.235453 -0.000000  -0.005152 0.006816 -0.068190
17  0.315441 0.857301 0.755944  1.684115 0.560091 1.563926
18  0.000001 2.265939 -0.000000  -0.057905 -0.032805 -0.238898
19  -0.000001 1.457808 0.000000  -0.029609 0.046490 0.034285
20  -1.259681 3.818376 1.286945  0.054558 0.010184 -0.144732
21  -1.226390 3.891694 0.090419  0.005036 0.002373 -0.139324
22  -1.231623 3.875535 -0.958681  -0.060580 -0.013550 -0.130737
23  -1.209919 3.994782 -2.003048  -0.106568 -0.025893 -0.137951
24  0.328906 0.095429 1.403532  1.684115 0.560091 1.563926
25  7.685551 -26.508362 -6.023971  0.000000 -0.000000 -3.141593
26  20.158314 0.001465 -15.000000  -1.570796 -0.000000 -1.570796
27  6.688313 0.001464 -6.000000  -0.051945 -0.000000 -1.570796
28  -6.303288 -3.177012 -4.551661  0.243518 0.049126 2.889384
29  0.000001 13.479275 -0.000001  1.717701 -0.000000 0.000000
30  -0.000000 13.477239 0.000000  -1.331660 0.410935 -0.395224
31  0.267270 3.664726 -1.953292  -0.174603 0.396888 0.692349
32  0.000000 1.180354 0.000000  -0.024711 0.025798 1.296299
33  0.000001 0.817136 -0.000002  0.012232 0.001270 1.111333
34  0.249423 3.688541 -0.940889  -0.050028 0.197907 0.917566
35  0.000001 1.800632 0.000000  -0.007162 -0.012483 1.774974
36  0.000000 1.243407 0.000000  0.004183 -0.005006 0.945407
37  0.244728 3.701094 0.087734  0.012445 0.020003 0.934973
38  0.000000 1.766585 -0.000000  0.006918 0.000685 1.464509
39  0.000000 1.189005 -0.000000  -0.004472 0.017123 1.357249
40  0.277239 3.632249 1.274101  0.065416 -0.152210 0.927372
41  0.000001 1.798495 -0.000001  0.022849 -0.016745 1.078747
42  -0.000000 1.235450 0.000001  -0.007143 0.004688 1.572574
43  -0.315441 0.857300 0.755943  -0.623037 -2.717983 1.196723
44  -0.000002 2.265939 0.000001  -0.034963 0.056629 0.741260
45  -0.000001 1.457811 -0.000001  -0.048332 -0.026494 0.468069
46  1.259681 3.818374 1.286946  0.065416 -0.152210 0.927372
47  1.226392 3.891693 0.090420  0.012445 0.020003 0.934972
48  1.231623 3.875533 -0.958679  -0.050028 0.197908 0.917566
49  1.209920 3.994781 -2.003048  -0.174603 0.396887 0.692349
50  -0.328906 0.095428 1.403533  -0.623037 -2.717983 1.196723
51  -9.034925 -10.685241 11.141991  0.787038 0.217418 -2.851765
52  -8.428300 -13.481788 -15.000002  -1.570796 -0.000000 1.570796
53  -6.303288 -3.177012 -4.551661  -0.051945 0.000000 1.570796
time 15
0  0 0 0  0 0 0
1  0.000000 0.000000 0.000000  1.570796 -0.000000 0.000000
2  6.688313 0.001464 -6.000000  -0.180017 0.981463 -3.105344
3  -0.000000 13.479280 0.000000  0.356810 0.000000 -0.000000
4  -0.000000 13.477240 -0.000000  -0.260936 -0.968770 0.196263
5  -0.267269 3.664727 -1.953293  -0.106568 -0.025893 -0.137951
6  -0.000000 1.180355 -0.000001  -0.036623 -0.007435 -0.177465
7  -0.000001 0.817138 -0.000000  0.004200 -0.011559 0.007420
8  -0.249422 3.688542 -0.940889  -0.060580 -0.013550 -0.130737
9  0.000000 1.800634 -0.000000  0.004940 0.002077 -0.208495
10  0.000001 1.243406 -0.000000  0.006524 -0.000040 -0.064626
11  -0.244726 3.701097 0.087732  0.005036 0.002373 -0.139323
12  0.000000 1.766584 0.000000  0.002490 -0.003552 -0.259702
13  -0.000000 1.189003 0.000000  -0.017590 -0.001952 -0.152464
14  -0.277239 3.632249 1.274102  0.054558 0.010184 -0.144732
15  0.000001 1.798491 -0.000000  0.036314 0.010668 -0.285912
16  -0.000001 1.235453 -0.000000  -0.005152 0.006816 -0.068190
17  0.315441 0.857301 0.755944  1.684115 0.560091 1.563926
18  0.000001 2.265939 -0.000000  -0.057905 -0.032805 -0.238898
19  -0.000001 1.457808 0.000000  -0.029609 0.046490 0.034285
20  -1.259681 3.818376 1.286945  0.054558 0.010184 -0.144732
21  -1.226390 3.891694 0.090419  0.005036 0.002373 -0.139324
22  -1.231623 3.875535 -0.958681  -0.060580 -0.013550 -0.130737
23  -1.209919 3.994782 -2.003048  -0.106568 -0.025893 -0.137951
24  0.328906 0.095429 1.403532  1.684115 0.560091 1.563926
25  7.685551 -26.508362 -6.023971  0.000000 -0.000000 -3.141593
26  20.158314 0.001465 -15.000000  -1.570796 -0.000000 -1.570796
27  6.688313 0.001464 -6.000000  -0.051945 -0.000000 -1.570796
28  -6.351087 -2.996282 -4.952250  0.282498 0.068420 2.881563
29  -0.000000 13.479277 -0.000001  1.729094 -0.000000 0.000000
30  -0.000001 13.477240 -0.000001  -1.186472 0.444703 -0.521747
31  0.267269 3.664726 -1.953291  -0.174603 0.396888 0.692349
32  0.000003 1.180357 0.000001  -0.024711 0.025798 1.296300
33  0.000000 0.817136 0.000000  0.012232 0.001270 1.111333
34  0.249424 3.688540 -0.940888  -0.050028 0.197908 0.917566
35  -0.000001 1.800634 -0.000000  -0.007162 -0.012483 1.774974
36  0.000001 1.243404 -0.000002  0.004183 -0.005006 0.945407
37  0.244726 3.701094 0.087734  0.012445 0.020003 0.934972
38  0.000000 1.766585 0.000000  0.006918 0.000685 1.464509
39  0.000000 1.189003 0.000000  -0.004472 0.017123 1.357249
40  0.277239 3.632247 1.274104  0.065416 -0.152210 0.927372
41  -0.000001 1.798494 0.000000  0.022849 -0.016745 1.078747
42  -0.000000 1.235452 -0.000001  -0.007143 0.004688 1.572574
43  -0.315442 0.857299 0.755944  -0.623037 -2.717983 1.196723
44  0.000000 2.265940 -0.000001  -0.034963 0.056629 0.741260
45  0.000000 1.457812 0.000000  -0.048332 -0.026494 0.468069
46  1.259681 3.818375 1.286947  0.065416 -0.152210 0.927371
47  1.226392 3.891692 0.090420  0.012445 0.020002 0.934972
48  1.231623 3.875533 -0.958679  -0.050028 0.197908 0.917566
49  1.209919 3.994781 -2.003046  -0.174603 0.396887 0.692349
50  -0.328906 0.095429 1.403533  -0.623037 -2.717983 1.196723
51  -9.254438 -9.668886 10.956277  1.062864 0.279997 -2.752389
52  -8.428300 -13.481788 -15.000002  -1.570796 -0.000000 1.570796
53  -6.351087 -2.996282 -4.952250  -0.051945 0.000000 1.570796
time 16
0  0 0 0  0 0 0
1  0.000000 0.000000 0.000000  1.570796 -0.000000 0.000000
2  6.688313 0.001464 -6.000000  -0.180017 0.981463 -3.105344
3  -0.000000 13.479280 0.000000  0.356810 0.000000 -0.000000
4  -0.000000 13.477240 -0.000000  -0.260936 -0.968770 0.196263
5  -0.267269 3.664727 -1.953293  -0.106568 -0.025893 -0.137951
6  -0.000000 1.180355 -0.000001  -0.036623 -0.007435 -0.177465
7  -0.000001 0.817138 -0.000000  0.004200 -0.011559 0.007420
8  -0.249422 3.688542 -0.940889  -0.060580 -0.013550 -0.130737
9  0.000000 1.800634 -0.000000  0.004940 0.002077 -0.208495
10  0.000001 1.243406 -0.000000  0.006524 -0.000040 -0.064626
11  -0.244726 3.701097 0.087732  0.005036 0.002373 -0.139323
12  0.000000 1.766584 0.000000  0.002490 -0.003552 -0.259702
13  -0.000000 1.189003 0.000000  -0.017590 -0.001952 -0.152464
14  -0.277239 3.632249 1.274102  0.054558 0.010184 -0.144732
15  0.000001 1.798491 -0.000000  0.036314 0.010668 -0.285912
16  -0.000001 1.235453 -0.000000  -0.005152 0.006816 -0.068190
17  0.315441 0.857301 0.755944  1.684115 0.560091 1.563926
18  0.000001 2.265939 -0.000000  -0.057905 -0.032805 -0.238898
19  -0.000001 1.457808 0.000000  -0.029609 0.046490 0.034285
20  -1.259681 3.818376 1.286945  0.054558 0.010184 -0.144732
21  -1.226390 3.891694 0.090419  0.005036 0.002373 -0.139324
22  -1.231623 3.875535 -0.958681  -0.060580 -0.013550 -0.130737
23  -1.209919 3.994782 -2.003048  -0.106568 -0.025893 -0.137951
24  0.328906 0.095429 1.403532  1.684115 0.560091 1.563926
25  7.685551 -26.508362 -6.023971  0.000000 -0.000000 -3.141593
26  20.158314 0.001465 -15.000000  -1.570796 -0.000000 -1.570796
27  6.688313 0.001464 -6.000000  -0.051945 -0.000000 -1.570796
28  -6.410709 -2.850550 -5.318585  0.384324 0.081000 2.881351
29  -0.000000 13.479277 0.000000  1.653222 -0.000000 0.000000
30  0.000000 13.477239 0.000001  -0.972929 0.425118 -0.470406
31  0.267269 3.664725 -1.953293  -0.174603 0.396888 0.692349
32  0.000001 1.180356 -0.000000  -0.024711 0.025798 1.296300
33  0.000000 0.817135 0.000000  0.012232 0.001270 1.111333
34  0.249423 3.688541 -0.940888  -0.050028 0.197908 0.917566
35  0.000003 1.800634 0.000001  -0.007162 -0.012483 1.774975
36  -0.000001 1.243405 0.000000  0.004183 -0.005006 0.945407
37  0.244726 3.701094 0.087733  0.012445 0.020003 0.934973
38  -0.000001 1.766586 -0.000001  0.006918 0.000685 1.464509
39  0.000000 1.189003 0.000000  -0.004472 0.017123 1.357249
40  0.277239 3.632247 1.274103  0.065416 -0.152210 0.927372
41  -0.000000 1.798495 0.000000  0.022849 -0.016745 1.078747
42  0.000002 1.235451 -0.000000  -0.007143 0.004688 1.572574
43  -0.315440 0.857298 0.755945  -0.623037 -2.717983 1.196723
44  0.000000 2.265940 0.000000  -0.034963 0.056629 0.741260
45  0.000001 1.457810 0.000001  -0.048332 -0.026494 0.468069
46  1.259681 3.818374 1.286946  0.065416 -0.152210 0.927372
47  1.226392 3.891693 0.090420  0.012445 0.020003 0.934972
48  1.231624 3.875534 -0.958679  -0.050028 0.197908 0.917566
49  1.209920 3.994781 -2.003047  -0.174603 0.396888 0.692349
50  -0.328906 0.095428 1.403533  -0.623037 -2.717983 1.196723
51  -9.401585 -8.709522 11.712792  1.272061 0.250877 -2.792866
52  -8.428300 -13.481788 -15.000002  -1.570796 -0.000000 1.570796
53  -6.410709 -2.850550 -5.318585  -0.051945 0.000000 1.570796
time 17
0  0 0 0  0 0 0
1  0.000000 0.000000 0.000000  1.570796 -0.000000 0.000000
2  6.688313 0.001464 -6.000000  -0.180017 0.981463 -3.105344
3  -0.000000 13.479280 0.000000  0.356810 0.000000 -0.000000
4  -0.000000 13.477240 -0.000000  -0.260936 -0.968770 0.196263
5  -0.267269 3.664727 -1.953293  -0.106568 -0.025893 -0.137951
6  -0.000000 1.180355 -0.000001  -0.036623 -0.007435 -0.177465
7  -0.000001 0.817138 -0.000000  0.004200 -0.011559 0.007420
8  -0.249422 3.688542 -0.940889  -0.060580 -0.013550 -0.130737
9  0.000000 1.800634 -0.000000  0.004940 0.002077 -0.208495
10  0.000001 1.243406 -0.000000  0.006524 -0.000040 -0.064626
11  -0.244726 3.701097 0.087732  0.005036 0.002373 -0.139323
12  0.000000 1.766584 0.000000  0.002490 -0.003552 -0.259702
13  -0.000000 1.189003 0.000000  -0.017590 -0.001952 -0.152464
14  -0.277239 3.632249 1.274102  0.054558 0.010184 -0.144732
15  0.000001 1.798491 -0.000000  0.036314 0.010668 -0.285912
16  -0.000001 1.235453 -0.000000  -0.005152 0.006816 -0.068190
17  0.315441 0.857301 0.755944  1.684115 0.560091 1.563926
18  0.000001 2.265939 -0.000000  -0.057905 -0.032805 -0.238898
19  -0.000001 1.457808 0.000000  -0.029609 0.046490 0.034285
20  -1.259681 3.818376 1.286945  0.054558 0.010184 -0.144732
21  -1.226390 3.891694 0.090419  0.005036 0.002373 -0.139324
22  -1.231623 3.875535 -0.958681  -0.060580 -0.013550 -0.130737
23  -1.209919 3.994782 -2.003048  -0.106568 -0.025893 -0.137951
24  0.328906 0.095429 1.403532  1.684115 0.560091 1.563926
25  7.685551 -26.508362 -6.023971  0.000000 -0.000000 -3.141593
26  20.158314 0.001465 -15.000000  -1.570796 -0.000000 -1.570796
27  6.688313 0.001464 -6.000000  -0.051945 -0.000000 -1.570796
28  -6.473007 -2.738863 -5.633464  0.549896 0.085250 2.888186
29  -0.000000 13.479278 -0.000001  1.463640 -0.000000 0.000000
30  -0.000000 13.477240 0.000001  -0.731620 0.395018 -0.331436
31  0.267269 3.664726 -1.953292  -0.174603 0.396888 0.692349
32  -0.000001 1.180354 0.000000  -0.024711 0.025798 1.296300
33  -0.000000 0.817136 0.000000  0.012232 0.001270 1.111333
34  0.249422 3.688542 -0.940888  -0.050028 0.197908 0.917566
35  0.000000 1.800633 -0.000001  -0.007162 -0.012483 1.774974
36  -0.000001 1.243406 0.000000  0.004183 -0.005006 0.945407
37  0.244727 3.701097 0.087733  0.012445 0.020003 0.934973
38  0.000000 1.766583 -0.000001  0.006918 0.000685 1.464509
39  -0.000001 1.189003 0.000000  -0.004472 0.017123 1.357249
40  0.277239 3.632246 1.274103  0.065416 -0.152210 0.927372
41  -0.000002 1.798493 0.000000  0.022849 -0.016745 1.078747
42  -0.000001 1.235451 0.000000  -0.007143 0.004688 1.572574
43  -0.315441 0.857299 0.755944  -0.623037 -2.717983 1.196723
44  0.000001 2.265939 -0.000001  -0.034963 0.056629 0.741260
45  0.000001 1.457810 -0.000000  -0.048332 -0.026494 0.468069
46  1.259681 3.818374 1.286946  0.065416 -0.152210 0.927371
47  1.226390 3.891693 0.090420  0.012445 0.020002 0.934972
48  1.231622 3.875532 -0.958680  -0.050028 0.197908 0.917566
49  1.209919 3.994780 -2.003047  -0.174603 0.396888 0.692349
50  -0.328907 0.095427 1.403533  -0.623037 -2.717983 1.196723
51  -9.490839 -7.864144 13.516791  1.417574 0.181438 -2.889389
52  -8.428300 -13.481788 -15.000002  -1.570796 -0.000000 1.570796
53  -6.473007 -2.738863 -5.633464  -0.051945 0.000000 1.570796
time 18
0  0 0 0  0 0 0
1  0.000000 0.000000 0.000000  1.570796 -0.000000 0.000000
2  6.688313 0.001464 -6.000000  -0.180017 0.981463 -3.105344
3  -0.000000 13.479280 0.000000  0.356810 0.000000 -0.000000
4  -0.000000 13.477240 -0.000000  -0.260936 -0.968770 0.196263
5  -0.267269 3.664727 -1.953293  -0.106568 -0.025893 -0.137951
6  -0.000000 1.180355 -0.000001  -0.036623 -0.007435 -0.177465
7  -0.000001 0.817138 -0.000000  0.004200 -0.011559 0.007420
8  -0.249422 3.688542 -0.940889  -0.060580 -0.013550 -0.130737
9  0.000000 1.800634 -0.000000  0.004940 0.002077 -0.208495
10  0.000001 1.243406 -0.000000  0.006524 -0.000040 -0.064626
11  -0.244726 3.701097 0.087732  0.005036 0.002373 -0.139323
12  0.000000 1.766584 0.000000  0.002490 -0.003552 -0.259702
13  -0.000000 1.189003 0.000000  -0.017590 -0.001952 -0.152464
14  -0.277239 3.632249 1.274102  0.054558 0.010184 -0.144732
15  0.000001 1.798491 -0.000000  0.036314 0.010668 -0.285912
16  -0.000001 1.235453 -0.000000  -0.005152 0.006816 -0.068190
17  0.315441 0.857301 0.755944  1.684115 0.560091 1.563926
18  0.000001 2.265939 -0.000000  -0.057905 -0.032805 -0.238898
19  -0.000001 1.457808 0.000000  -0.029609 0.046490 0.034285
20  -1.259681 3.818376 1.286945  0.054558 0.010184 -0.144732
21  -1.226390 3.891694 0.090419  0.005036 0.002373 -0.139324
22  -1.231623 3.875535 -0.958681  -0.060580 -0.013550 -0.130737
23  -1.209919 3.994782 -2.003048  -0.106568 -0.025893 -0.137951
24  0.328906 0.095429 1.403532  1.684115 0.560091 1.563926
25  7.685551 -26.508362 -6.023971  0.000000 -0.000000 -3.141593
26  20.158314 0.001465 -15.000000  -1.570796 -0.000000 -1.570796
27  6.688313 0.001464 -6.000000  -0.051945 -0.000000 -1.570796
28  -6.528832 -2.660268 -5.879681  0.736847 0.084444 2.897513
29  -0.000001 13.479275 -0.000001  1.202904 -0.000000 0.000000
30  0.000001 13.477238 0.000000  -0.494064 0.344737 -0.162492
31  0.267270 3.664727 -1.953293  -0.174603 0.396887 0.692349
32  0.000000 1.180355 -0.000000  -0.024711 0.025798 1.296299
33  0.000002 0.817136 -0.000001  0.012232 0.001270 1.111333
34  0.249423 3.688540 -0.940889  -0.050028 0.197908 0.917566
35  -0.000001 1.800634 0.000001  -0.007162 -0.012483 1.774974
36  0.000001 1.243404 0.000000  0.004183 -0.005006 0.945407
37  0.244726 3.701095 0.087733  0.012445 0.020003 0.934973
38  -0.000002 1.766584 0.000000  0.006918 0.000685 1.464509
39  0.000000 1.189005 -0.000000  -0.004472 0.017123 1.357249
40  0.277240 3.632249 1.274103  0.065416 -0.152210 0.927372
41  -0.000001 1.798496 0.000000  0.022849 -0.016745 1.078747
42  -0.000002 1.235452 0.000001  -0.007143 0.004688 1.572574
43  -0.315441 0.857299 0.755944  -0.623037 -2.717983 1.196723
44  -0.000001 2.265939 0.000000  -0.034963 0.056629 0.741260
45  0.000001 1.457811 0.000000  -0.048332 -0.026494 0.468069
46  1.259682 3.818375 1.286946  0.065416 -0.152210 0.927371
47  1.226391 3.891693 0.090419  0.012445 0.020003 0.934972
48  1.231623 3.875533 -0.958681  -0.050028 0.197908 0.917566
49  1.209919 3.994781 -2.003047  -0.174603 0.396887 0.692349
50  -0.328906 0.095429 1.403533  -0.623037 -2.717983 1.196723
51  -9.536673 -7.189741 15.669950  1.509283 0.098559 -3.004593
52  -8.428300 -13.481788 -15.000002  -1.570796 -0.000000 1.570796
53  -6.528832 -2.660268 -5.879681  -0.051945 0.000000 1.570796
time 19
0  0 0 0  0 0 0
1  0.000000 0.000000 0.000000  1.570796 -0.000000 0.000000
2  6.688313 0.001464 -6.000000  -0.180017 0.981463 -3.105344
3  -0.000000 13.479280 0.000000  0.356810 0.000000 -0.000000
4  -0.000000 13.477240 -0.000000  -0.260936 -0.968770 0.196263
5  -0.267269 3.664727 -1.953293  -0.106568 -0.025893 -0.137951
6  -0.000000 1.180355 -0.000001  -0.036623 -0.007435 -0.177465
7  -0.000001 0.817138 -0.000000  0.004200 -0.011559 0.007420
8  -0.249422 3.688542 -0.940889  -0.060580 -0.013550 -0.130737
9  0.000000 1.800634 -0.000000  0.004940 0.002077 -0.208495
10  0.000001 1.243406 -0.000000  0.006524 -0.000040 -0.064626
11  -0.244726 3.701097 0.087732  0.005036 0.002373 -0.139323
12  0.000000 1.766584 0.000000  0.002490 -0.003552 -0.259702
13  -0.000000 1.189003 0.000000  -0.017590 -0.001952 -0.152464
14  -0.277239 3.632249 1.274102  0.054558 0.010184 -0.144732
15  0.000001 1.798491 -0.000000  0.036314 0.010668 -0.285912
16  -0.000001 1.235453 -0.000000  -0.005152 0.006816 -0.068190
17  0.315441 0.857301 0.755944  1.684115 0.560091 1.563926
18  0.000001 2.265939 -0.000000  -0.057905 -0.032805 -0.238898
19  -0.000001 1.457808 0.000000  -0.029609 0.046490 0.034285
20  -1.259681 3.818376 1.286945  0.054558 0.010184 -0.144732
21  -1.226390 3.891694 0.090419  0.005036 0.002373 -0.139324
22  -1.231623 3.875535 -0.958681  -0.060580 -0.013550 -0.130737
23  -1.209919 3.994782 -2.003048  -0.106568 -0.025893 -0.137951
24  0.328906 0.095429 1.403532  1.684115 0.560091 1.563926
25  7.685551 -26.508362 -6.023971  0.000000 -0.000000 -3.141593
26  20.158314 0.001465 -15.000000  -1.570796 -0.000000 -1.570796
27  6.688313 0.001464 -6.000000  -0.051945 -0.000000 -1.570796
28  -6.569036 -2.613810 -6.040029  0.905863 0.082090 2.905246
29  -0.000000 13.479276 -0.000000  0.935580 -0.000000 0.000000
30  0.000001 13.477240 0.000000  -0.303541 0.280215 -0.026045
31  0.267269 3.664726 -1.953292  -0.174603 0.396888 0.692349
32  -0.000001 1.180355 -0.000000  -0.024711 0.025798 1.296300
33  -0.000004 0.817133 -0.000000  0.012232 0.001270 1.111333
34  0.249422 3.688541 -0.940888  -0.050028 0.197908 0.917566
35  -0.000002 1.800634 0.000000  -0.007162 -0.012483 1.774974
36  0.000001 1.243408 0.000000  0.004183 -0.005006 0.945407
37  0.244726 3.701095 0.087733  0.012445 0.020003 0.934973
38  -0.000002 1.766583 -0.000000  0.006918 0.000685 1.464509
39  0.000003 1.189003 0.000000  -0.004472 0.017123 1.357249
40  0.277238 3.632249 1.274103  0.065416 -0.152210 0.927371
41  -0.000000 1.798494 -0.000000  0.022849 -0.016745 1.078746
42  0.000001 1.235451 0.000000  -0.007143 0.004688 1.572574
43  -0.315441 0.857298 0.755944  -0.623037 -2.717983 1.196723
44  -0.000002 2.265940 0.000001  -0.034963 0.056629 0.741260
45  0.000000 1.457813 -0.000001  -0.048332 -0.026494 0.468069
46  1.259681 3.818375 1.286946  0.065416 -0.152210 0.927371
47  1.226390 3.891693 0.090420  0.012445 0.020003 0.934972
48  1.231624 3.875534 -0.958680  -0.050028 0.197908 0.917566
49  1.209918 3.994781 -2.003047  -0.174603 0.396888 0.692349
50  -0.328907 0.095429 1.403533  -0.623037 -2.717983 1.196723
51  -9.553555 -6.743305 17.473949  1.557064 0.029120 -3.101115
52  -8.428300 -13.481788 -15.000002  -1.570796 -0.000000 1.570796
53  -6.569036 -2.613810 -6.040029  -0.051945 0.000000 1.570796
time 20
0  0 0 0  0 0 0
1  0.000000 0.000000 0.000000  1.570796 -0.000000 0.000000
2  6.688313 0.001464 -6.000000  -0.180017 0.981463 -3.105344
3  -0.000000 13.479280 0.000000  0.356810 0.000000 -0.000000
4  -0.000000 13.477240 -0.000000  -0.260936 -0.968770 0.196263
5  -0.267269 3.664727 -1.953293  -0.106568 -0.025893 -0.137951
6  -0.000000 1.180355 -0.000001  -0.036623 -0.007435 -0.177465
7  -0.000001 0.817138 -0.000000  0.004200 -0.011559 0.007420
8  -0.249422 3.688542 -0.940889  -0.060580 -0.013550 -0.130737
9  0.000000 1.800634 -0.000000  0.004940 0.002077 -0.208495
10  0.000001 1.243406 -0.000000  0.006524 -0.000040 -0.064626
11  -0.244726 3.701097 0.087732  0.005036 0.002373 -0.139323
12  0.000000 1.766584 0.000000  0.002490 -0.003552 -0.259702
13  -0.000000 1.189003 0.000000  -0.017590 -0.001952 -0.152464
14  -0.277239 3.632249 1.274102  0.054558 0.010184 -0.144732
15  0.000001 1.798491 -0.000000  0.036314 0.010668 -0.285912
16  -0.000001 1.235453 -0.000000  -0.005152 0.006816 -0.068190
17  0.315441 0.857301 0.755944  1.684115 0.560091 1.563926
18  0.000001 2.265939 -0.000000  -0.057905 -0.032805 -0.238898
19  -0.000001 1.457808 0.000000  -0.029609 0.046490 0.034285
20  -1.259681 3.818376 1.286945  0.054558 0.010184 -0.144732
21  -1.226390 3.891694 0.090419  0.005036 0.002373 -0.139324
22  -1.231623 3.875535 -0.958681  -0.060580 -0.013550 -0.130737
23  -1.209919 3.994782 -2.003048  -0.106568 -0.025893 -0.137951
24  0.328906 0.095429 1.403532  1.684115 0.560091 1.563926
25  7.685551 -26.508362 -6.023971  0.000000 -0.000000 -3.141593
26  20.158314 0.001465 -15.000000  -1.570796 -0.000000 -1.570796
27  6.688313 0.001464 -6.000000  -0.051945 -0.000000 -1.570796
28  -6.584470 -2.598536 -6.097302  0.986251 0.080824 2.908392
29  0.000002 13.479277 0.000001  0.799590 -0.000000 0.000000
30  0.000001 13.477239 -0.000000  -0.221035 0.244975 0.028276
31  0.267270 3.664726 -1.953293  -0.174603 0.396888 0.692349
32  -0.000002 1.180353 -0.000000  -0.024711 0.025798 1.296299
33  -0.000003 0.817136 -0.000001  0.012232 0.001270 1.111333
34  0.249423 3.688542 -0.940889  -0.050028 0.197908 0.917566
35  0.000001 1.800633 0.000001  -0.007162 -0.012483 1.774974
36  0.000000 1.243406 -0.000000  0.004183 -0.005006 0.945407
37  0.244727 3.701096 0.087732  0.012445 0.020003 0.934973
38  0.000001 1.766584 0.000000  0.006918 0.000685 1.464509
39  0.000000 1.189004 -0.000000  -0.004472 0.017123 1.357249
40  0.277239 3.632249 1.274102  0.065416 -0.152210 0.927371
41  -0.000001 1.798495 0.000000  0.022849 -0.016745 1.078747
42  0.000001 1.235453 0.000000  -0.007143 0.004688 1.572574
43  -0.315441 0.857301 0.755943  -0.623037 -2.717983 1.196723
44  -0.000002 2.265940 -0.000000  -0.034963 0.056629 0.741260
45  0.000000 1.457811 -0.000000  -0.048332 -0.026494 0.468069
46  1.259681 3.818375 1.286945  0.065416 -0.152210 0.927371
47  1.226391 3.891694 0.090419  0.012445 0.020003 0.934972
48  1.231624 3.875534 -0.958681  -0.050028 0.197908 0.917566
49  1.209920 3.994781 -2.003048  -0.174603 0.396888 0.692349
50  -0.328906 0.095429 1.403532  -0.623037 -2.717983 1.196723
51  -9.555967 -6.581827 18.230465  1.570796 -0.000000 -3.141593
52  -8.428300 -13.481788 -15.000002  -1.570796 -0.000000 1.570796
53  -6.584470 -2.598536 -6.097302  -0.051945 0.000000 1.570796
end
