version 1
nodes
0 "blender_implicit" -1
1 "root" -1
2 "upperarm_l" 1
3 "lowerarm_l" 2
4 "hand_l" 3
5 "upperarm_r" 1
6 "lowerarm_r" 5
7 "hand_r" 6
8 "ik_upperarm_l" 1
9 "ik_lowerarm_l" 8
10 "ik_upperarm_r" 1
11 "ik_lowerarm_r" 10
12 "ctrl_ik_hand_l" -1
13 "thumb_0_l" 12
14 "thumb_1_l" 13
15 "thumb_2_l" 14
16 "ik_hand_l" 12
17 "pinky_0_l" 12
18 "pinky_1_l" 17
19 "pinky_2_l" 18
20 "ring_0_l" 12
21 "ring_1_l" 20
22 "ring_2_l" 21
23 "middle_0_l" 12
24 "middle_1_l" 23
25 "middle_2_l" 24
26 "index_0_l" 12
27 "index_1_l" 26
28 "index_2_l" 27
29 "ctrl_pinky_0_l" 12
30 "ctrl_ring_0_l" 12
31 "ctrl_middle_0_l" 12
32 "ctrl_thumb_0_l" 12
33 "ctrl_index_0_l" 12
34 "ctrl_ik_hand_r" -1
35 "thumb_0_r" 34
36 "thumb_1_r" 35
37 "thumb_2_r" 36
38 "ik_hand_r" 34
39 "pinky_0_r" 34
40 "pinky_1_r" 39
41 "pinky_2_r" 40
42 "ring_0_r" 34
43 "ring_1_r" 42
44 "ring_2_r" 43
45 "middle_0_r" 34
46 "middle_1_r" 45
47 "middle_2_r" 46
48 "index_0_r" 34
49 "index_1_r" 48
50 "index_2_r" 49
51 "ctrl_pinky_0_r" 34
52 "ctrl_ring_0_r" 34
53 "ctrl_middle_0_r" 34
54 "ctrl_thumb_0_r" 34
55 "ctrl_index_0_r" 34
56 "TGT_elbow_l" -1
57 "TGT_elbow_r" -1
58 "medkit" -1
59 "red_button" 58
60 "red_button_bone" 59
61 "red_eff" 59
62 "green_button" 58
63 "green_button_bone" 62
64 "green_eff" 62
end
skeleton
time 0
0  0 0 0  0 0 0
1  0.000000 0.000000 0.000000  1.570796 -0.000000 0.000000
2  11.543070 -9.886177 -10.890811  1.262387 0.186654 -3.029350
3  -0.000000 13.479277 0.000000  0.528038 -0.000000 0.000000
4  -0.000002 13.477239 -0.000001  -0.258599 -0.234094 0.253830
5  -11.476475 -9.879860 -10.920122  1.253869 -0.172171 3.040334
6  0.000001 13.479279 -0.000001  0.537543 0.000000 0.000000
7  0.000000 13.477239 0.000001  -0.259690 0.226214 -0.237585
8  11.543070 -9.886177 -10.890811  1.262387 0.186654 -3.029350
9  0.000001 13.479276 0.000001  0.528038 -0.000000 0.000000
10  -11.476475 -9.879860 -10.920122  1.253869 -0.172171 3.040334
11  0.000000 13.479276 0.000000  0.537543 0.000000 0.000000
12  6.878597 -14.654153 -11.574567  -0.035978 -0.171147 -3.131576
13  0.315441 0.857297 0.755943  1.926759 0.249545 1.070875
14  0.000001 2.265958 0.000000  -0.017743 -0.069620 -0.850345
15  -0.000000 1.457791 -0.000000  -0.050908 0.021114 -0.576241
16  0.000001 -0.000001 0.000002  0.000000 0.000000 0.000000
17  -0.267267 3.664724 -1.953293  0.283957 -0.221688 -1.122334
18  0.000001 1.180356 0.000001  -0.011651 -0.038625 -0.890735
19  -0.000000 0.817136 0.000001  0.000938 0.006309 -0.705606
20  -0.249423 3.688538 -0.940887  0.137605 -0.147951 -1.190200
21  0.000002 1.800632 0.000000  -0.030112 0.022821 -1.270022
22  0.000001 1.243412 0.000000  0.020164 -0.001073 -1.125715
23  -0.244726 3.701137 0.087733  0.113234 -0.016587 -1.150348
24  0.000002 1.766549 0.000001  -0.004000 0.002800 -1.270572
25  -0.000001 1.188988 0.000000  -0.007710 -0.015929 -1.163258
26  -0.277238 3.632233 1.274101  0.017310 0.045922 -1.148946
27  0.000003 1.798506 -0.000001  0.010401 0.036418 -1.290290
28  -0.000001 1.235419 -0.000000  -0.008456 -0.000732 -1.072506
29  -1.200000 3.171093 -1.751965  0.242435 -0.249644 -0.933425
30  -1.199999 3.300078 -0.816645  0.104732 -0.180840 -1.054262
31  -1.200000 3.313605 0.085845  0.105211 -0.017414 -1.049037
32  0.404038 -0.245038 1.877658  1.851069 0.374606 1.053825
33  -1.200000 3.180404 1.195909  0.038684 0.066886 -1.045903
34  -7.178596 -14.654153 -11.574567  -0.035978 0.171147 3.131576
35  -0.315442 0.857299 0.755943  1.926759 -0.249545 -1.070875
36  0.000000 2.265958 0.000000  -0.017743 0.069620 0.850345
37  0.000000 1.457791 0.000000  -0.050908 -0.021114 0.576241
38  -0.000001 -0.000000 0.000001  0.000000 -0.000000 0.000000
39  0.267268 3.664727 -1.953292  0.283957 0.221688 1.122334
40  -0.000001 1.180356 0.000001  -0.011651 0.038626 0.890735
41  0.000002 0.817133 0.000001  0.000938 -0.006309 0.705606
42  0.249420 3.688540 -0.940888  0.137605 0.147951 1.190200
43  -0.000000 1.800633 0.000001  -0.030112 -0.022821 1.270022
44  -0.000001 1.243412 0.000001  0.020164 0.001073 1.125715
45  0.244725 3.701139 0.087733  0.113234 0.016587 1.150348
46  -0.000002 1.766550 -0.000000  -0.004000 -0.002800 1.270572
47  -0.000001 1.188988 0.000000  -0.007710 0.015929 1.163259
48  0.277238 3.632236 1.274102  0.017310 -0.045922 1.148946
49  -0.000001 1.798504 -0.000001  0.010401 -0.036418 1.290290
50  0.000002 1.235416 0.000001  -0.008456 0.000732 1.072506
51  1.199999 3.171093 -1.751965  0.242435 0.249644 0.933425
52  1.199999 3.300079 -0.816645  0.104731 0.180840 1.054262
53  1.199999 3.313605 0.085844  0.105211 0.017414 1.049037
54  -0.404039 -0.245037 1.877658  1.851069 -0.374606 -1.053825
55  1.200000 3.180405 1.195908  0.038684 -0.066886 1.045903
56  10.346725 -2.600053 -22.019053  0.000000 -0.000000 0.000000
57  -10.346725 -2.600053 -22.019053  0.000000 -0.000000 0.000000
58  0.055854 -17.075300 -10.155012  1.570796 -0.000000 0.000000
59  -1.354072 -0.397538 0.276588  -0.265686 -0.513545 0.171821
60  -0.000000 -0.000000 -0.000001  0.000002 -0.750634 -1.020137
61  0.414913 -0.675738 0.739653  0.000002 -0.750634 -1.020137
62  -1.954623 -0.420766 0.262272  -0.232334 -0.527808 0.145868
63  0.000000 -0.000001 0.000002  -0.000011 -0.750635 -1.020125
64  0.414913 -0.675739 0.739655  -0.000011 -0.750635 -1.020125
time 1
0  0 0 0  0 0 0
1  0.000000 0.000000 0.000000  1.570796 -0.000000 0.000000
2  11.305618 -9.918497 -9.242167  0.936357 0.212269 -3.008834
3  0.000000 13.479276 0.000000  1.097694 0.000000 -0.000000
4  0.000000 13.477238 0.000001  -0.189879 -0.232034 0.303784
5  -11.257534 -9.912607 -9.268916  0.945370 -0.184554 3.033155
6  -0.000000 13.479275 0.000001  1.116374 -0.000000 0.000000
7  0.000000 13.477241 0.000001  -0.215753 0.137421 -0.233643
8  11.305618 -9.918497 -9.242167  0.936357 0.212269 -3.008834
9  0.000001 13.479275 -0.000000  1.097694 0.000000 -0.000000
10  -11.257534 -9.912607 -9.268916  0.945370 -0.184554 3.033155
11  -0.000001 13.479273 0.000000  1.116374 -0.000000 0.000000
12  6.781437 -13.155441 -12.507263  0.273935 -0.209831 3.099140
13  0.315442 0.857299 0.755943  1.916380 -0.078661 0.951027
14  -0.000000 2.265958 0.000000  -0.048837 -0.052711 -0.352213
15  -0.000001 1.457792 -0.000001  -0.037933 0.039986 -0.157694
16  0.000001 0.000001 -0.000001  0.000000 0.000000 -0.000000
17  -0.267269 3.664727 -1.953293  0.283957 -0.221688 -1.122334
18  0.000001 1.180354 -0.000000  -0.011651 -0.038626 -0.890735
19  -0.000000 0.817135 0.000001  0.000938 0.006309 -0.705606
20  -0.249422 3.688538 -0.940888  0.137605 -0.147951 -1.190201
21  0.000001 1.800632 0.000000  -0.030112 0.022821 -1.270022
22  0.000000 1.243412 0.000000  0.020164 -0.001073 -1.125715
23  -0.244725 3.701139 0.087732  0.113234 -0.016587 -1.150349
24  0.000002 1.766550 0.000001  -0.004000 0.002800 -1.270572
25  -0.000000 1.188990 -0.000000  -0.007710 -0.015929 -1.163259
26  -0.277239 3.632237 1.274100  0.017310 0.045922 -1.148946
27  -0.000001 1.798505 -0.000001  0.010401 0.036418 -1.290290
28  0.000000 1.235417 0.000001  -0.008456 -0.000732 -1.072506
29  -1.199999 3.171097 -1.751967  0.242435 -0.249644 -0.933425
30  -1.199999 3.300080 -0.816646  0.104732 -0.180840 -1.054262
31  -1.199999 3.313608 0.085843  0.105211 -0.017414 -1.049037
32  0.404039 -0.245036 1.877654  1.831355 0.037967 0.959006
33  -1.199998 3.180406 1.195907  0.038684 0.066886 -1.045903
34  -7.262378 -13.155441 -11.894096  0.270208 0.122642 -3.099757
35  -0.315442 0.857300 0.755943  1.916380 0.078661 -0.951027
36  -0.000000 2.265959 0.000000  -0.048255 0.053243 0.363194
37  -0.000000 1.457790 -0.000001  -0.037687 -0.040218 0.151556
38  -0.000001 0.000001 -0.000001  -0.000000 0.000000 0.000000
39  0.267269 3.664725 -1.953293  0.283957 0.221688 1.122334
40  -0.000002 1.180356 -0.000000  -0.011651 0.038626 0.890735
41  0.000002 0.817134 -0.000002  0.000938 -0.006309 0.705606
42  0.249421 3.688536 -0.940888  0.137606 0.147951 1.190201
43  -0.000001 1.800632 0.000000  -0.030112 -0.022821 1.270022
44  0.000000 1.243409 -0.000001  0.020164 0.001073 1.125715
45  0.244727 3.701138 0.087734  0.113234 0.016587 1.150349
46  -0.000001 1.766550 0.000003  -0.004000 -0.002800 1.270572
47  0.000001 1.188990 0.000000  -0.007710 0.015929 1.163259
48  0.277238 3.632239 1.274100  0.017310 -0.045922 1.148946
49  0.000000 1.798506 0.000000  0.010401 -0.036418 1.290290
50  0.000000 1.235417 0.000001  -0.008456 0.000732 1.072506
51  1.199999 3.171097 -1.751966  0.242435 0.249644 0.933425
52  1.200000 3.300081 -0.816645  0.104732 0.180840 1.054262
53  1.199999 3.313608 0.085843  0.105211 0.017414 1.049037
54  -0.404038 -0.245035 1.877655  1.831355 -0.037967 -0.959006
55  1.200000 3.180406 1.195907  0.038684 -0.066886 1.045903
56  10.346725 -2.600053 -22.019053  0.000000 -0.000000 0.000000
57  -10.346725 -2.600053 -22.019053  0.000000 -0.000000 0.000000
58  0.055854 -15.041332 -10.133053  1.267127 0.043633 0.000000
59  -1.354072 -0.397540 0.276589  -0.265686 -0.513545 0.171821
60  -0.000000 -0.000000 0.000001  0.000002 -0.750634 -1.020137
61  0.414913 -0.675739 0.739656  0.000002 -0.750634 -1.020137
62  -1.954623 -0.420767 0.262272  -0.232334 -0.527808 0.145868
63  0.000000 0.000001 -0.000001  -0.000011 -0.750635 -1.020125
64  0.414914 -0.675736 0.739652  -0.000011 -0.750635 -1.020125
time 2
0  0 0 0  0 0 0
1  0.000000 0.000000 0.000000  1.570796 -0.000000 0.000000
2  10.810034 -9.978521 -5.773335  0.612781 0.254790 -2.998058
3  -0.000000 13.479275 0.000001  1.642751 -0.000000 -0.000000
4  0.000000 13.477240 0.000001  -0.088656 -0.192411 0.360384
5  -10.800589 -9.973425 -5.794765  0.648707 -0.202031 3.036120
6  0.000001 13.479276 -0.000002  1.673453 0.000000 0.000000
7  -0.000000 13.477240 0.000002  -0.166000 0.044417 -0.193227
8  10.810034 -9.978521 -5.773335  0.612781 0.254790 -2.998058
9  -0.000001 13.479275 0.000001  1.642751 -0.000000 -0.000000
10  -10.800589 -9.973425 -5.794765  0.648707 -0.202031 3.036120
11  0.000001 13.479276 -0.000002  1.673453 0.000000 0.000000
12  6.630614 -11.829307 -13.111691  0.586884 -0.232913 3.049902
13  0.315441 0.857298 0.755944  1.927761 0.061867 1.070584
14  0.000001 2.265960 0.000000  -0.052520 -0.049041 -0.279810
15  0.000001 1.457793 -0.000001  -0.040215 0.037690 -0.216448
16  -0.000001 -0.000000 -0.000000  -0.000000 0.000000 0.000000
17  -0.267270 3.664725 -1.953293  0.283957 -0.221688 -1.122334
18  0.000001 1.180355 0.000000  -0.011651 -0.038626 -0.890735
19  0.000001 0.817135 0.000001  0.000938 0.006309 -0.705606
20  -0.249423 3.688537 -0.940889  0.137605 -0.147951 -1.190201
21  0.000002 1.800632 -0.000001  -0.030112 0.022821 -1.270022
22  0.000000 1.243409 0.000000  0.020164 -0.001073 -1.125716
23  -0.244726 3.701136 0.087733  0.113234 -0.016587 -1.150348
24  -0.000001 1.766551 -0.000002  -0.004000 0.002801 -1.270572
25  0.000000 1.188990 0.000000  -0.007710 -0.015929 -1.163259
26  -0.277240 3.632235 1.274100  0.017310 0.045922 -1.148946
27  0.000000 1.798505 -0.000000  0.010401 0.036418 -1.290290
28  0.000000 1.235414 0.000000  -0.008456 -0.000732 -1.072506
29  -1.200001 3.171092 -1.751965  0.242435 -0.249644 -0.933425
30  -1.200000 3.300079 -0.816645  0.104732 -0.180840 -1.054262
31  -1.200001 3.313606 0.085845  0.105211 -0.017414 -1.049037
32  0.404037 -0.245037 1.877656  1.856034 0.187414 1.067891
33  -1.200000 3.180404 1.195908  0.038684 0.066886 -1.045903
34  -7.373088 -11.829307 -11.886525  0.570956 0.059091 -3.052228
35  -0.315442 0.857299 0.755944  1.927761 -0.061867 -1.070584
36  0.000000 2.265958 0.000000  -0.051063 0.050557 0.309082
37  -0.000000 1.457793 0.000000  -0.039593 -0.038343 0.200083
38  -0.000000 0.000000 -0.000001  0.000000 0.000000 0.000000
39  0.267268 3.664725 -1.953292  0.283957 0.221688 1.122334
40  0.000001 1.180356 0.000001  -0.011651 0.038626 0.890735
41  0.000000 0.817134 0.000001  0.000938 -0.006309 0.705606
42  0.249421 3.688537 -0.940887  0.137605 0.147951 1.190201
43  -0.000001 1.800633 -0.000000  -0.030112 -0.022821 1.270022
44  -0.000000 1.243410 0.000000  0.020164 0.001073 1.125715
45  0.244726 3.701137 0.087734  0.113234 0.016587 1.150348
46  0.000000 1.766551 0.000001  -0.004000 -0.002801 1.270572
47  -0.000000 1.188989 -0.000001  -0.007710 0.015929 1.163259
48  0.277239 3.632236 1.274101  0.017310 -0.045922 1.148946
49  -0.000001 1.798506 -0.000001  0.010401 -0.036418 1.290290
50  0.000000 1.235417 0.000003  -0.008456 0.000732 1.072506
51  1.200000 3.171093 -1.751965  0.242435 0.249644 0.933425
52  1.200000 3.300080 -0.816646  0.104731 0.180840 1.054262
53  1.199999 3.313606 0.085844  0.105211 0.017414 1.049037
54  -0.404039 -0.245037 1.877656  1.856034 -0.187414 -1.067891
55  1.199999 3.180404 1.195908  0.038684 -0.066886 1.045903
56  10.346725 -2.600053 -22.019053  0.000000 -0.000000 0.000000
57  -10.346725 -2.600053 -22.019053  0.000000 -0.000000 0.000000
58  0.055854 -13.007363 -9.979338  0.963458 0.087266 0.000000
59  -1.354073 -0.397538 0.276588  -0.265686 -0.513545 0.171821
60  -0.000000 -0.000000 0.000001  0.000002 -0.750634 -1.020137
61  0.414913 -0.675739 0.739656  0.000002 -0.750634 -1.020137
62  -1.954623 -0.420766 0.262272  -0.232333 -0.527808 0.145868
63  -0.000000 -0.000001 -0.000000  -0.000011 -0.750635 -1.020125
64  0.414914 -0.675739 0.739655  -0.000011 -0.750635 -1.020125
time 3
0  0 0 0  0 0 0
1  0.000000 0.000000 0.000000  1.570796 -0.000000 0.000000
2  10.381474 -10.010843 -2.699966  1.437606 0.125839 -3.088622
3  0.000001 13.479277 0.000001  0.420181 -0.000000 -0.000000
4  0.000000 13.477240 -0.000001  0.110193 -0.140570 0.107396
5  -10.405460 -10.006172 -2.716879  1.406593 -0.125042 3.090820
6  -0.000001 13.479277 0.000000  0.430583 0.000000 0.000000
7  0.000000 13.477240 -0.000001  0.132136 0.232404 -0.127692
8  10.381474 -10.010843 -2.699966  1.437606 0.125839 -3.088622
9  0.000002 13.479276 0.000001  0.420181 -0.000000 -0.000000
10  -10.405460 -10.006172 -2.716879  1.406593 -0.125042 3.090820
11  0.000000 13.479276 -0.000000  0.430583 0.000000 0.000000
12  6.979912 -23.377502 -8.163474  0.396188 -0.112302 3.079247
13  0.315441 0.857302 0.755943  2.037188 0.368228 1.280959
14  0.000003 2.265959 0.000000  -0.048064 -0.053416 -0.366786
15  0.000002 1.457792 -0.000000  -0.044213 0.032907 -0.329621
16  0.000000 0.000002 0.000001  0.000000 -0.000000 -0.000000
17  -0.267269 3.664730 -1.953292  0.283957 -0.221688 -1.122334
18  0.000003 1.180354 -0.000001  -0.011651 -0.038626 -0.890735
19  0.000002 0.817135 -0.000000  0.000938 0.006309 -0.705606
20  -0.249423 3.688540 -0.940889  0.137605 -0.147951 -1.190200
21  0.000000 1.800633 -0.000002  -0.030112 0.022821 -1.270022
22  -0.000000 1.243407 0.000000  0.020164 -0.001073 -1.125715
23  -0.244727 3.701137 0.087733  0.113234 -0.016587 -1.150348
24  0.000001 1.766550 -0.000001  -0.004000 0.002800 -1.270572
25  0.000002 1.188991 0.000000  -0.007710 -0.015929 -1.163259
26  -0.277239 3.632236 1.274100  0.017310 0.045922 -1.148946
27  0.000001 1.798505 -0.000001  0.010401 0.036418 -1.290290
28  0.000001 1.235417 0.000001  -0.008456 -0.000732 -1.072506
29  -1.200000 3.171093 -1.751965  0.242435 -0.249644 -0.933425
30  -1.200000 3.300081 -0.816645  0.104732 -0.180840 -1.054262
31  -1.200000 3.313606 0.085845  0.105211 -0.017414 -1.049037
32  0.404038 -0.245037 1.877657  1.988388 0.505598 1.266502
33  -1.200000 3.180408 1.195909  0.038684 0.066886 -1.045903
34  -7.061470 -23.377502 -8.830041  0.402219 0.206987 -3.078287
35  -0.315441 0.857300 0.755943  2.037188 -0.368228 -1.280959
36  -0.000001 2.265959 -0.000000  -0.046279 0.054969 0.399732
37  0.000003 1.457792 -0.000001  -0.043600 -0.033716 0.311216
38  -0.000000 -0.000002 -0.000000  0.000000 0.000000 0.000000
39  0.267269 3.664725 -1.953293  0.283957 0.221688 1.122334
40  -0.000003 1.180354 0.000001  -0.011651 0.038625 0.890735
41  0.000003 0.817134 -0.000001  0.000938 -0.006309 0.705606
42  0.249422 3.688536 -0.940888  0.137606 0.147951 1.190200
43  -0.000002 1.800633 0.000000  -0.030112 -0.022821 1.270022
44  -0.000001 1.243409 -0.000001  0.020164 0.001073 1.125715
45  0.244725 3.701135 0.087732  0.113234 0.016587 1.150349
46  0.000001 1.766551 0.000000  -0.004000 -0.002800 1.270572
47  -0.000000 1.188989 -0.000000  -0.007710 0.015929 1.163259
48  0.277239 3.632231 1.274100  0.017310 -0.045922 1.148946
49  -0.000001 1.798507 -0.000001  0.010401 -0.036418 1.290290
50  0.000000 1.235414 -0.000000  -0.008456 0.000732 1.072506
51  1.199999 3.171090 -1.751965  0.242435 0.249644 0.933425
52  1.199999 3.300077 -0.816645  0.104732 0.180840 1.054262
53  1.199999 3.313604 0.085845  0.105211 0.017414 1.049037
54  -0.404038 -0.245039 1.877657  1.988388 -0.505598 -1.266502
55  1.200000 3.180404 1.195907  0.038684 -0.066886 1.045903
56  10.346725 -2.600053 -22.019053  0.000000 -0.000000 0.000000
57  -10.346725 -2.600053 -22.019053  0.000000 -0.000000 0.000000
58  0.055854 -24.988132 -6.191112  1.141518 -0.047436 0.000000
59  -1.354072 -0.397538 0.276588  -0.265686 -0.513545 0.171821
60  0.000001 -0.000000 0.000002  0.000002 -0.750634 -1.020137
61  0.414914 -0.675737 0.739655  0.000002 -0.750634 -1.020137
62  -1.954623 -0.420766 0.262273  -0.232334 -0.527808 0.145868
63  0.000002 0.000002 0.000001  -0.000011 -0.750635 -1.020125
64  0.414915 -0.675735 0.739655  -0.000011 -0.750635 -1.020125
time 4
0  0 0 0  0 0 0
1  0.000000 0.000000 0.000000  1.570796 -0.000000 0.000000
2  10.255731 -9.836113 -1.710426  -1.483257 3.027859 0.047894
3  0.000001 13.479277 0.000002  0.089078 -0.000000 -0.000000
4  -0.000000 13.477241 -0.000000  -0.124397 -0.017465 0.113646
5  -10.289547 -9.831509 -1.726112  -1.645386 -3.011327 -0.051211
6  0.000001 13.479276 0.000000  0.225811 0.000000 0.000000
7  0.000001 13.477240 -0.000000  -0.108628 0.381167 -0.186995
8  10.255731 -9.836113 -1.710426  -1.483257 3.027859 0.047894
9  0.000001 13.479277 0.000002  0.089078 -0.000000 -0.000000
10  -10.289547 -9.831509 -1.726112  -1.645386 -3.011327 -0.051211
11  -0.000000 13.479275 0.000000  0.225811 0.000000 0.000000
12  7.059813 -24.812347 -6.438796  0.050957 0.010770 3.136703
13  0.315442 0.857299 0.755943  2.160526 0.567572 1.419695
14  -0.000000 2.265958 -0.000001  -0.042897 -0.057647 -0.459808
15  0.000000 1.457792 0.000000  -0.039070 0.038875 -0.186545
16  0.000001 -0.000001 0.000000  0.000000 -0.000000 0.000000
17  -0.267267 3.664725 -1.953293  0.283957 -0.221688 -1.122334
18  -0.000002 1.180356 -0.000001  -0.011651 -0.038626 -0.890735
19  -0.000000 0.817134 0.000001  0.000938 0.006309 -0.705606
20  -0.249422 3.688537 -0.940889  0.137606 -0.147951 -1.190201
21  0.000002 1.800631 -0.000001  -0.030112 0.022821 -1.270022
22  -0.000002 1.243410 -0.000000  0.020164 -0.001073 -1.125716
23  -0.244725 3.701138 0.087733  0.113234 -0.016587 -1.150349
24  -0.000001 1.766551 0.000000  -0.004000 0.002800 -1.270572
25  -0.000002 1.188988 -0.000000  -0.007710 -0.015929 -1.163259
26  -0.277238 3.632235 1.274102  0.017310 0.045922 -1.148946
27  0.000000 1.798506 -0.000001  0.010401 0.036418 -1.290290
28  -0.000001 1.235415 -0.000000  -0.008456 -0.000732 -1.072506
29  -1.199999 3.171092 -1.751966  0.242435 -0.249644 -0.933425
30  -1.200000 3.300077 -0.816645  0.104732 -0.180840 -1.054262
31  -1.200000 3.313604 0.085844  0.105211 -0.017414 -1.049037
32  0.404039 -0.245039 1.877656  2.129833 0.709753 1.407596
33  -1.200000 3.180403 1.195908  0.038684 0.066886 -1.045903
34  -6.764854 -24.812347 -8.985019  0.052814 0.353502 -3.136381
35  -0.315440 0.857298 0.755942  2.160526 -0.567572 -1.419695
36  0.000002 2.265958 -0.000000  -0.042897 0.057647 0.459808
37  -0.000001 1.457791 0.000003  -0.039070 -0.038875 0.186545
38  0.000001 0.000000 -0.000002  0.000000 -0.000000 -0.000000
39  0.267270 3.664728 -1.953294  0.283957 0.221688 1.122333
40  -0.000003 1.180355 -0.000000  -0.011651 0.038626 0.890735
41  -0.000000 0.817135 0.000000  0.000938 -0.006309 0.705606
42  0.249423 3.688539 -0.940889  0.137605 0.147951 1.190200
43  -0.000000 1.800633 0.000000  -0.030112 -0.022821 1.270022
44  0.000001 1.243410 0.000000  0.020164 0.001073 1.125716
45  0.244728 3.701139 0.087733  0.113234 0.016587 1.150348
46  -0.000001 1.766550 -0.000001  -0.004000 -0.002800 1.270572
47  -0.000001 1.188991 0.000001  -0.007710 0.015929 1.163259
48  0.277241 3.632239 1.274099  0.017310 -0.045922 1.148946
49  -0.000001 1.798505 -0.000000  0.010401 -0.036418 1.290290
50  -0.000001 1.235416 0.000001  -0.008456 0.000732 1.072506
51  1.200001 3.171093 -1.751967  0.242435 0.249644 0.933425
52  1.200001 3.300079 -0.816646  0.104731 0.180840 1.054262
53  1.200001 3.313606 0.085842  0.105211 0.017414 1.049037
54  -0.404037 -0.245035 1.877655  2.129833 -0.709753 -1.407596
55  1.200001 3.180404 1.195908  0.038684 -0.066886 1.045903
56  10.346725 -2.600053 -22.019053  0.000000 -0.000000 0.000000
57  -10.346725 -2.600053 -22.019053  0.000000 -0.000000 0.000000
58  0.055854 -27.101725 -6.077950  1.484248 -0.182138 0.000000
59  -1.354073 -0.397538 0.276584  -0.265686 -0.513545 0.171821
60  -0.000001 0.000000 0.000002  0.000002 -0.750634 -1.020137
61  0.414913 -0.675737 0.739655  0.000002 -0.750634 -1.020137
62  -1.954623 -0.420766 0.262268  -0.232334 -0.527808 0.145868
63  0.000001 -0.000001 -0.000002  -0.000011 -0.750635 -1.020125
64  0.414915 -0.675739 0.739653  -0.000010 -0.750635 -1.020125
time 5
0  0 0 0  0 0 0
1  0.000000 0.000000 0.000000  1.570796 -0.000000 0.000000
2  10.259882 -9.811485 -1.731371  -1.551747 3.028563 0.047400
3  0.000001 13.479277 0.000001  0.177706 -0.000000 -0.000000
4  0.000001 13.477239 -0.000000  0.037192 -0.035345 0.085634
5  -10.293377 -9.806824 -1.747112  1.479336 -0.131553 3.090107
6  -0.000001 13.479277 -0.000001  0.230154 0.000000 0.000000
7  0.000000 13.477242 -0.000000  0.098127 0.365927 -0.147044
8  10.259882 -9.811485 -1.731371  -1.551747 3.028563 0.047400
9  0.000002 13.479277 0.000001  0.177706 -0.000000 -0.000000
10  -10.293377 -9.806824 -1.747112  1.479336 -0.131553 3.090107
11  -0.000003 13.479277 -0.000001  0.230154 0.000000 0.000000
12  7.115479 -24.792336 -7.066001  0.231777 -0.004019 3.105708
13  0.315441 0.857302 0.755942  2.171728 0.592853 1.440182
14  0.000002 2.265959 0.000000  -0.040131 -0.059604 -0.507009
15  0.000002 1.457791 0.000000  -0.026880 0.048115 0.091997
16  0.000000 -0.000002 -0.000000  0.000000 -0.000000 -0.000000
17  -0.267270 3.664723 -1.953294  0.283957 -0.221688 -1.122334
18  0.000000 1.180355 -0.000001  -0.011651 -0.038626 -0.890735
19  0.000001 0.817137 -0.000000  0.000938 0.006309 -0.705606
20  -0.249422 3.688537 -0.940888  0.137605 -0.147951 -1.190200
21  0.000002 1.800632 -0.000000  -0.030112 0.022821 -1.270022
22  0.000000 1.243414 0.000000  0.020164 -0.001073 -1.125716
23  -0.244727 3.701137 0.087733  0.113234 -0.016587 -1.150349
24  0.000001 1.766550 -0.000000  -0.004000 0.002800 -1.270572
25  -0.000001 1.188986 -0.000001  -0.007710 -0.015929 -1.163259
26  -0.277238 3.632236 1.274100  0.017310 0.045922 -1.148946
27  -0.000000 1.798506 -0.000000  0.010401 0.036418 -1.290290
28  -0.000002 1.235416 -0.000000  -0.008456 -0.000732 -1.072506
29  -1.200000 3.171093 -1.751966  0.242435 -0.249644 -0.933425
30  -1.200000 3.300080 -0.816645  0.104732 -0.180840 -1.054262
31  -1.200000 3.313606 0.085843  0.105211 -0.017414 -1.049037
32  0.404038 -0.245037 1.877656  2.144258 0.735523 1.429450
33  -1.200000 3.180403 1.195908  0.038684 0.066886 -1.045903
34  -6.753889 -24.792336 -9.356268  0.243975 0.331109 -3.103646
35  -0.315441 0.857299 0.755945  2.171728 -0.592853 -1.440182
36  0.000000 2.265958 -0.000001  -0.043356 0.057302 0.451813
37  -0.000000 1.457791 -0.000000  -0.026880 -0.048115 -0.091997
38  0.000000 0.000001 0.000000  0.000000 -0.000000 0.000000
39  0.267269 3.664729 -1.953293  0.283957 0.221688 1.122334
40  -0.000002 1.180354 0.000000  -0.011651 0.038625 0.890735
41  -0.000005 0.817138 0.000000  0.000938 -0.006309 0.705606
42  0.249423 3.688542 -0.940888  0.137605 0.147951 1.190200
43  0.000001 1.800634 -0.000001  -0.030112 -0.022821 1.270022
44  0.000000 1.243409 0.000001  0.020164 0.001073 1.125716
45  0.244727 3.701140 0.087733  0.113234 0.016587 1.150349
46  0.000002 1.766550 0.000000  -0.004000 -0.002800 1.270572
47  -0.000002 1.188988 0.000001  -0.007710 0.015929 1.163259
48  0.277241 3.632237 1.274101  0.017310 -0.045922 1.148946
49  0.000002 1.798507 -0.000001  0.010401 -0.036418 1.290290
50  0.000001 1.235416 -0.000000  -0.008456 0.000732 1.072506
51  1.200001 3.171093 -1.751967  0.242435 0.249644 0.933425
52  1.200001 3.300081 -0.816645  0.104731 0.180840 1.054262
53  1.200001 3.313607 0.085844  0.105211 0.017414 1.049037
54  -0.404037 -0.245036 1.877656  2.144258 -0.735523 -1.429450
55  1.200001 3.180406 1.195908  0.038684 -0.066886 1.045903
56  10.346725 -2.600053 -22.019053  0.000000 -0.000000 0.000000
57  -10.346725 -2.600053 -22.019053  0.000000 -0.000000 0.000000
58  0.055854 -26.747595 -6.191031  1.301028 -0.163654 0.000000
59  -1.354072 -0.397538 0.276587  -0.265686 -0.513545 0.171821
60  -0.000000 -0.000000 0.000002  0.000002 -0.750634 -1.020137
61  0.414913 -0.675737 0.739656  0.000002 -0.750634 -1.020137
62  -1.954623 -0.420766 0.262271  -0.232334 -0.527808 0.145868
63  0.000001 0.000001 0.000001  -0.000011 -0.750635 -1.020125
64  0.414914 -0.675736 0.739653  -0.000011 -0.750635 -1.020125
time 6
0  0 0 0  0 0 0
1  0.000000 0.000000 0.000000  1.570796 -0.000000 0.000000
2  10.288937 -9.807966 -1.877981  1.436013 0.117990 -3.093376
3  -0.000001 13.479276 0.000001  0.416165 -0.000000 -0.000000
4  -0.000001 13.477239 0.000001  0.136870 -0.072503 0.075098
5  -10.320183 -9.803297 -1.894116  1.373392 -0.131184 3.090859
6  -0.000001 13.479278 0.000002  0.419376 0.000000 0.000000
7  0.000001 13.477240 -0.000001  0.202505 0.302667 -0.133793
8  10.288937 -9.807966 -1.877981  1.436013 0.117990 -3.093376
9  -0.000001 13.479273 0.000000  0.416165 -0.000000 -0.000000
10  -10.320183 -9.803297 -1.894116  1.373392 -0.131184 3.090859
11  -0.000003 13.479276 0.000001  0.419376 0.000000 0.000000
12  7.103092 -24.242840 -8.028412  0.415440 -0.042381 3.075822
13  0.315441 0.857302 0.755943  2.173425 0.596458 1.443157
14  -0.000002 2.265957 -0.000000  -0.037939 -0.061022 -0.543373
15  0.000002 1.457791 0.000000  -0.030138 0.046145 0.022871
16  0.000000 -0.000002 0.000000  -0.000000 0.000000 0.000000
17  -0.267268 3.664725 -1.953290  0.283957 -0.221688 -1.122334
18  0.000000 1.180356 -0.000000  -0.011651 -0.038626 -0.890735
19  0.000002 0.817133 0.000001  0.000938 0.006309 -0.705606
20  -0.249424 3.688538 -0.940889  0.137606 -0.147951 -1.190201
21  0.000002 1.800632 0.000001  -0.030112 0.022821 -1.270022
22  -0.000000 1.243412 0.000001  0.020164 -0.001073 -1.125715
23  -0.244725 3.701134 0.087734  0.113234 -0.016587 -1.150348
24  0.000000 1.766550 0.000001  -0.004000 0.002800 -1.270572
25  -0.000002 1.188990 0.000002  -0.007710 -0.015929 -1.163259
26  -0.277240 3.632239 1.274100  0.017310 0.045922 -1.148946
27  0.000002 1.798507 0.000001  0.010401 0.036418 -1.290290
28  0.000001 1.235416 -0.000000  -0.008456 -0.000732 -1.072506
29  -1.200000 3.171092 -1.751966  0.242435 -0.249644 -0.933425
30  -1.200000 3.300078 -0.816646  0.104732 -0.180840 -1.054262
31  -1.200001 3.313604 0.085844  0.105211 -0.017414 -1.049037
32  0.404038 -0.245038 1.877655  2.146436 0.739193 1.432645
33  -1.200000 3.180404 1.195908  0.038684 0.066886 -1.045903
34  -6.859655 -24.242840 -9.655184  0.431135 0.273836 -3.073335
35  -0.315442 0.857301 0.755944  2.173425 -0.596458 -1.443157
36  -0.000000 2.265957 0.000000  -0.043422 0.057253 0.450671
37  -0.000001 1.457792 -0.000001  -0.025740 -0.048734 -0.115555
38  -0.000000 -0.000001 0.000001  0.000000 0.000000 0.000000
39  0.267269 3.664727 -1.953291  0.283957 0.221688 1.122333
40  0.000001 1.180355 -0.000000  -0.011651 0.038625 0.890735
41  0.000001 0.817133 0.000002  0.000938 -0.006309 0.705606
42  0.249424 3.688536 -0.940888  0.137606 0.147951 1.190200
43  -0.000004 1.800632 -0.000001  -0.030112 -0.022821 1.270022
44  0.000000 1.243411 0.000001  0.020164 0.001073 1.125716
45  0.244725 3.701137 0.087734  0.113234 0.016587 1.150348
46  0.000000 1.766551 0.000001  -0.004000 -0.002800 1.270572
47  0.000000 1.188988 -0.000002  -0.007710 0.015929 1.163259
48  0.277239 3.632237 1.274101  0.017310 -0.045922 1.148946
49  -0.000002 1.798506 -0.000000  0.010401 -0.036418 1.290290
50  0.000001 1.235416 0.000001  -0.008456 0.000732 1.072506
51  1.200000 3.171093 -1.751965  0.242435 0.249644 0.933425
52  1.200000 3.300079 -0.816645  0.104732 0.180840 1.054262
53  1.200000 3.313605 0.085845  0.105211 0.017414 1.049037
54  -0.404038 -0.245037 1.877657  2.146436 -0.739193 -1.432645
55  1.200001 3.180404 1.195909  0.038684 -0.066886 1.045903
56  10.346725 -2.600053 -22.019053  0.000000 -0.000000 0.000000
57  -10.346725 -2.600053 -22.019053  0.000000 -0.000000 0.000000
58  0.055854 -25.798527 -6.497663  1.117809 -0.115985 0.000000
59  -1.354072 -0.397538 0.276590  -0.265686 -0.513545 0.171821
60  -0.000001 0.000000 0.000001  0.000002 -0.750634 -1.020137
61  0.414913 -0.675737 0.739655  0.000002 -0.750634 -1.020137
62  -1.954623 -0.420765 0.262272  -0.232334 -0.527808 0.145868
63  0.000000 -0.000001 0.000000  -0.000011 -0.750635 -1.020125
64  0.414913 -0.675739 0.739653  -0.000011 -0.750635 -1.020125
time 7
0  0 0 0  0 0 0
1  0.000000 0.000000 0.000000  1.570796 -0.000000 0.000000
2  10.395001 -9.812300 -2.561887  1.281863 0.132489 -3.089161
3  -0.000001 13.479277 -0.000001  0.675690 -0.000000 -0.000000
4  0.000001 13.477241 -0.000000  -0.078461 -0.122230 0.140676
5  -10.417995 -9.807539 -2.579246  1.252068 -0.131636 3.091244
6  0.000001 13.479277 0.000001  0.678040 0.000000 0.000000
7  -0.000001 13.477239 -0.000002  -0.052385 0.219600 -0.171429
8  10.395001 -9.812300 -2.561887  1.281863 0.132489 -3.089161
9  -0.000001 13.479275 -0.000000  0.675690 -0.000000 -0.000000
10  -10.417995 -9.807539 -2.579246  1.252068 -0.131636 3.091244
11  -0.000000 13.479277 0.000001  0.678040 0.000000 0.000000
12  6.978847 -22.617420 -8.747122  0.307357 -0.113805 3.093614
13  0.315441 0.857297 0.755944  2.162563 0.586796 1.431251
14  -0.000002 2.265958 0.000001  -0.037787 -0.061116 -0.545869
15  -0.000001 1.457793 -0.000001  -0.033056 0.044103 -0.041787
16  0.000000 -0.000002 0.000000  -0.000000 -0.000000 0.000000
17  -0.267270 3.664723 -1.953293  0.283957 -0.221688 -1.122334
18  -0.000005 1.180355 0.000000  -0.011651 -0.038626 -0.890735
19  0.000000 0.817134 -0.000000  0.000938 0.006309 -0.705606
20  -0.249424 3.688533 -0.940890  0.137605 -0.147951 -1.190201
21  -0.000003 1.800633 0.000001  -0.030112 0.022821 -1.270022
22  0.000000 1.243410 0.000000  0.020164 -0.001073 -1.125716
23  -0.244726 3.701137 0.087732  0.113234 -0.016587 -1.150349
24  -0.000004 1.766552 0.000001  -0.004000 0.002800 -1.270572
25  -0.000001 1.188990 0.000001  -0.007710 -0.015929 -1.163259
26  -0.277239 3.632234 1.274101  0.017310 0.045922 -1.148946
27  -0.000004 1.798505 0.000000  0.010401 0.036418 -1.290290
28  0.000000 1.235414 0.000000  -0.008456 -0.000732 -1.072506
29  -1.200000 3.171091 -1.751966  0.242435 -0.249644 -0.933425
30  -1.200000 3.300078 -0.816645  0.104732 -0.180840 -1.054262
31  -1.200000 3.313605 0.085845  0.105211 -0.017414 -1.049037
32  0.404038 -0.245040 1.877657  2.133543 0.729259 1.419703
33  -1.200000 3.180403 1.195909  0.038684 0.066886 -1.045903
34  -7.060209 -22.617420 -9.460983  0.312337 0.215295 -3.092798
35  -0.315440 0.857300 0.755944  2.162563 -0.586796 -1.431251
36  -0.000001 2.265957 -0.000000  -0.041975 0.058321 0.475724
37  -0.000002 1.457791 0.000000  -0.028824 -0.046977 -0.051102
38  0.000001 0.000001 0.000000  0.000000 -0.000000 0.000000
39  0.267271 3.664727 -1.953293  0.283957 0.221688 1.122334
40  0.000001 1.180356 -0.000001  -0.011651 0.038626 0.890735
41  0.000001 0.817137 0.000000  0.000938 -0.006309 0.705606
42  0.249424 3.688542 -0.940889  0.137605 0.147951 1.190201
43  -0.000001 1.800633 0.000000  -0.030112 -0.022821 1.270022
44  0.000000 1.243411 -0.000000  0.020164 0.001073 1.125715
45  0.244728 3.701140 0.087734  0.113234 0.016587 1.150348
46  0.000000 1.766550 0.000000  -0.004000 -0.002800 1.270572
47  -0.000000 1.188990 -0.000001  -0.007710 0.015929 1.163259
48  0.277239 3.632240 1.274101  0.017310 -0.045922 1.148946
49  -0.000001 1.798506 -0.000001  0.010401 -0.036418 1.290290
50  0.000001 1.235416 -0.000000  -0.008456 0.000732 1.072506
51  1.200001 3.171095 -1.751966  0.242435 0.249644 0.933425
52  1.200001 3.300080 -0.816644  0.104731 0.180840 1.054262
53  1.200001 3.313607 0.085844  0.105211 0.017414 1.049037
54  -0.404037 -0.245036 1.877657  2.133543 -0.729259 -1.419703
55  1.200000 3.180407 1.195908  0.038684 -0.066886 1.045903
56  10.346725 -2.600053 -22.019053  0.000000 -0.000000 0.000000
57  -10.346725 -2.600053 -22.019053  0.000000 -0.000000 0.000000
58  0.055854 -24.424503 -6.948922  1.229837 -0.050804 0.000000
59  -1.354072 -0.397538 0.276587  -0.265686 -0.513545 0.171821
60  -0.000000 -0.000000 -0.000000  0.000002 -0.750634 -1.020137
61  0.414913 -0.675737 0.739654  0.000002 -0.750634 -1.020137
62  -1.954623 -0.420766 0.262272  -0.232333 -0.527808 0.145868
63  -0.000000 -0.000001 -0.000002  -0.000011 -0.750635 -1.020125
64  0.414913 -0.675739 0.739652  -0.000011 -0.750635 -1.020125
time 8
0  0 0 0  0 0 0
1  0.000000 0.000000 0.000000  1.570796 -0.000000 0.000000
2  10.588394 -9.823473 -3.921243  1.194714 0.150325 -3.080340
3  0.000001 13.479277 0.000002  0.810071 -0.000000 -0.000000
4  0.000000 13.477237 0.000001  -0.348269 -0.171066 0.232377
5  -10.596310 -9.818476 -3.940677  1.201549 -0.135455 3.088932
6  -0.000001 13.479277 0.000001  0.814883 0.000000 0.000000
7  0.000000 13.477239 -0.000000  -0.358522 0.130376 -0.199802
8  10.588394 -9.823473 -3.921243  1.194714 0.150325 -3.080340
9  0.000001 13.479277 0.000002  0.810071 -0.000000 -0.000000
10  -10.596310 -9.818476 -3.940677  1.201549 -0.135455 3.088932
11  -0.000001 13.479276 0.000001  0.814883 0.000000 0.000000
12  6.842802 -20.563908 -9.335516  0.087342 -0.191301 3.130581
13  0.315442 0.857297 0.755945  2.134414 0.560384 1.399616
14  0.000000 2.265959 0.000000  -0.038405 -0.060730 -0.535717
15  -0.000001 1.457790 0.000000  -0.035003 0.042574 -0.086720
16  0.000001 -0.000001 0.000000  0.000000 0.000000 0.000000
17  -0.267269 3.664727 -1.953291  0.283957 -0.221688 -1.122334
18  -0.000000 1.180356 0.000001  -0.011651 -0.038625 -0.890735
19  0.000004 0.817137 -0.000000  0.000938 0.006309 -0.705606
20  -0.249423 3.688533 -0.940888  0.137606 -0.147951 -1.190201
21  -0.000002 1.800634 0.000000  -0.030112 0.022821 -1.270022
22  -0.000000 1.243409 -0.000000  0.020164 -0.001073 -1.125715
23  -0.244727 3.701138 0.087733  0.113234 -0.016587 -1.150349
24  -0.000000 1.766551 -0.000000  -0.004000 0.002800 -1.270572
25  0.000000 1.188990 0.000000  -0.007710 -0.015929 -1.163259
26  -0.277237 3.632236 1.274101  0.017310 0.045922 -1.148946
27  -0.000001 1.798506 0.000000  0.010401 0.036418 -1.290290
28  -0.000000 1.235412 -0.000001  -0.008456 -0.000732 -1.072506
29  -1.200000 3.171093 -1.751966  0.242435 -0.249644 -0.933425
30  -1.200000 3.300078 -0.816645  0.104732 -0.180840 -1.054262
31  -1.200000 3.313605 0.085843  0.105211 -0.017414 -1.049037
32  0.404038 -0.245039 1.877656  2.100196 0.702019 1.385616
33  -1.199999 3.180405 1.195908  0.038684 0.066886 -1.045903
34  -7.211521 -20.563908 -9.051395  0.086892 0.150877 -3.130658
35  -0.315442 0.857300 0.755943  2.134415 -0.560384 -1.399616
36  -0.000004 2.265958 -0.000002  -0.038702 0.060541 0.530812
37  0.000002 1.457791 0.000000  -0.034794 -0.042745 0.081819
38  -0.000001 0.000001 -0.000000  0.000000 0.000000 -0.000000
39  0.267268 3.664727 -1.953293  0.283957 0.221688 1.122334
40  -0.000000 1.180354 0.000000  -0.011651 0.038626 0.890735
41  0.000001 0.817136 0.000000  0.000938 -0.006309 0.705606
42  0.249422 3.688537 -0.940888  0.137605 0.147951 1.190200
43  0.000006 1.800633 -0.000000  -0.030112 -0.022821 1.270022
44  -0.000001 1.243409 -0.000001  0.020164 0.001073 1.125715
45  0.244725 3.701138 0.087732  0.113234 0.016587 1.150348
46  0.000001 1.766550 -0.000000  -0.004000 -0.002800 1.270572
47  0.000003 1.188985 -0.000000  -0.007710 0.015929 1.163259
48  0.277239 3.632234 1.274100  0.017310 -0.045922 1.148946
49  -0.000000 1.798507 0.000001  0.010401 -0.036418 1.290290
50  0.000002 1.235413 -0.000001  -0.008456 0.000732 1.072506
51  1.200000 3.171094 -1.751966  0.242435 0.249644 0.933425
52  1.199999 3.300080 -0.816645  0.104731 0.180840 1.054262
53  1.199999 3.313607 0.085845  0.105211 0.017414 1.049037
54  -0.404038 -0.245037 1.877656  2.100196 -0.702018 -1.385616
55  1.199999 3.180406 1.195908  0.038684 -0.066886 1.045903
56  10.346725 -2.600053 -22.019053  0.000000 -0.000000 0.000000
57  -10.346725 -2.600053 -22.019053  0.000000 -0.000000 0.000000
58  0.055854 -22.795506 -7.495889  1.449502 0.020213 0.000000
59  -1.354072 -0.397538 0.276589  -0.265686 -0.513545 0.171821
60  0.000000 -0.000002 -0.000002  0.000002 -0.750634 -1.020137
61  0.414913 -0.675739 0.739653  0.000002 -0.750634 -1.020137
62  -1.954623 -0.420765 0.262272  -0.232334 -0.527807 0.145868
63  -0.000000 -0.000001 0.000001  -0.000011 -0.750635 -1.020125
64  0.414913 -0.675738 0.739656  -0.000011 -0.750635 -1.020125
time 9
0  0 0 0  0 0 0
1  0.000000 0.000000 0.000000  1.570796 -0.000000 0.000000
2  10.831337 -9.838749 -5.671508  1.157338 0.166765 -3.066888
3  0.000000 13.479277 -0.000000  0.843670 -0.000000 -0.000000
4  0.000001 13.477240 -0.000001  -0.533808 -0.222893 0.308288
5  -10.820299 -9.833431 -5.693488  1.198777 -0.142754 3.082530
6  -0.000001 13.479278 -0.000000  0.850175 0.000000 0.000000
7  0.000000 13.477240 -0.000001  -0.568297 0.053446 -0.210449
8  10.831337 -9.838749 -5.671508  1.157338 0.166765 -3.066888
9  0.000001 13.479276 0.000000  0.843670 -0.000000 -0.000000
10  -10.820299 -9.833431 -5.693488  1.198777 -0.142754 3.082530
11  -0.000000 13.479280 -0.000001  0.850175 0.000000 0.000000
12  6.745254 -18.579660 -9.938846  -0.098606 -0.255612 -3.120860
13  0.315441 0.857300 0.755945  2.096343 0.521082 1.354623
14  -0.000001 2.265958 0.000000  -0.037679 -0.061183 -0.547630
15  -0.000001 1.457790 0.000001  -0.037428 0.040459 -0.145140
16  -0.000000 -0.000001 0.000002  0.000000 0.000000 -0.000000
17  -0.267269 3.664726 -1.953291  0.283957 -0.221688 -1.122334
18  -0.000001 1.180354 -0.000001  -0.011651 -0.038626 -0.890735
19  0.000002 0.817136 -0.000001  0.000938 0.006309 -0.705606
20  -0.249422 3.688536 -0.940888  0.137605 -0.147951 -1.190200
21  -0.000000 1.800632 -0.000000  -0.030112 0.022821 -1.270022
22  0.000001 1.243410 -0.000000  0.020164 -0.001073 -1.125715
23  -0.244726 3.701137 0.087734  0.113234 -0.016587 -1.150349
24  0.000000 1.766551 0.000000  -0.004000 0.002800 -1.270572
25  0.000000 1.188991 0.000000  -0.007710 -0.015929 -1.163259
26  -0.277239 3.632233 1.274101  0.017310 0.045922 -1.148946
27  -0.000001 1.798505 0.000001  0.010401 0.036418 -1.290290
28  0.000001 1.235415 0.000000  -0.008456 -0.000732 -1.072506
29  -1.200000 3.171092 -1.751965  0.242435 -0.249644 -0.933425
30  -1.200000 3.300078 -0.816644  0.104732 -0.180840 -1.054262
31  -1.200000 3.313606 0.085845  0.105211 -0.017414 -1.049037
32  0.404038 -0.245039 1.877657  2.055206 0.661290 1.337883
33  -1.200000 3.180404 1.195910  0.038684 0.066886 -1.045903
34  -7.260718 -18.579660 -8.739909  -0.095070 0.084860 3.121462
35  -0.315441 0.857300 0.755944  2.096342 -0.521082 -1.354623
36  0.000001 2.265959 0.000000  -0.035022 0.062740 0.590531
37  0.000000 1.457791 -0.000001  -0.039892 -0.038032 0.207905
38  0.000000 -0.000001 -0.000000  0.000000 -0.000000 -0.000000
39  0.267271 3.664728 -1.953293  0.283957 0.221688 1.122334
40  -0.000001 1.180356 0.000000  -0.011651 0.038625 0.890735
41  -0.000000 0.817135 0.000000  0.000938 -0.006309 0.705606
42  0.249423 3.688536 -0.940888  0.137605 0.147951 1.190200
43  -0.000004 1.800633 0.000001  -0.030112 -0.022821 1.270022
44  0.000000 1.243410 0.000000  0.020164 0.001073 1.125715
45  0.244726 3.701137 0.087733  0.113234 0.016587 1.150349
46  -0.000001 1.766551 -0.000000  -0.004000 -0.002800 1.270572
47  0.000001 1.188993 -0.000000  -0.007710 0.015929 1.163259
48  0.277240 3.632236 1.274101  0.017310 -0.045922 1.148946
49  0.000000 1.798505 0.000000  0.010401 -0.036418 1.290290
50  0.000001 1.235415 -0.000000  -0.008456 0.000732 1.072506
51  1.200000 3.171091 -1.751966  0.242435 0.249644 0.933425
52  1.200000 3.300078 -0.816646  0.104731 0.180840 1.054262
53  1.200000 3.313605 0.085844  0.105211 0.017414 1.049037
54  -0.404038 -0.245039 1.877656  2.055206 -0.661290 -1.337883
55  1.200000 3.180404 1.195908  0.038684 -0.066886 1.045903
56  10.346725 -2.600053 -22.019053  0.000000 -0.000000 0.000000
57  -10.346725 -2.600053 -22.019053  0.000000 -0.000000 0.000000
58  0.055854 -21.081518 -8.089642  1.630753 0.085394 0.000000
59  -1.354072 -0.397539 0.276586  -0.265686 -0.513545 0.171821
60  -0.000000 0.000000 0.000000  0.000002 -0.750634 -1.020137
61  0.414913 -0.675737 0.739654  0.000002 -0.750634 -1.020137
62  -1.954623 -0.420767 0.262270  -0.232334 -0.527807 0.145868
63  0.000001 0.000001 0.000001  -0.000011 -0.750635 -1.020125
64  0.414914 -0.675737 0.739654  -0.000011 -0.750635 -1.020125
time 10
0  0 0 0  0 0 0
1  0.000000 0.000000 0.000000  1.570796 -0.000000 0.000000
2  11.086054 -9.855392 -7.528138  1.151895 0.180539 -3.050009
3  -0.000000 13.479277 -0.000001  0.813330 -0.000000 -0.000000
4  0.000000 13.477238 0.000002  -0.619217 -0.277358 0.355607
5  -11.055137 -9.849726 -7.552759  1.216036 -0.151460 3.072273
6  -0.000001 13.479277 -0.000000  0.823931 0.000000 0.000000
7  -0.000000 13.477240 -0.000000  -0.666973 0.006800 -0.216171
8  11.086054 -9.855392 -7.528138  1.151895 0.180539 -3.050009
9  -0.000002 13.479280 -0.000001  0.813330 -0.000000 -0.000000
10  -11.055137 -9.849726 -7.552759  1.216036 -0.151460 3.072273
11  0.000000 13.479276 -0.000002  0.823931 0.000000 0.000000
12  6.687373 -16.825085 -10.564462  -0.214895 -0.299880 -3.101059
13  0.315442 0.857300 0.755943  2.055256 0.473035 1.302183
14  0.000001 2.265957 0.000002  -0.035524 -0.062457 -0.582504
15  -0.000000 1.457792 -0.000001  -0.040279 0.037621 -0.218157
16  0.000000 -0.000002 0.000001  -0.000000 0.000000 -0.000000
17  -0.267270 3.664722 -1.953292  0.283957 -0.221688 -1.122334
18  0.000000 1.180355 -0.000002  -0.011651 -0.038626 -0.890735
19  0.000002 0.817134 0.000001  0.000938 0.006309 -0.705606
20  -0.249422 3.688538 -0.940887  0.137605 -0.147951 -1.190200
21  0.000000 1.800633 -0.000001  -0.030112 0.022821 -1.270022
22  -0.000000 1.243410 -0.000000  0.020164 -0.001073 -1.125715
23  -0.244726 3.701136 0.087734  0.113234 -0.016587 -1.150349
24  0.000000 1.766551 0.000001  -0.004000 0.002800 -1.270572
25  -0.000001 1.188988 0.000001  -0.007710 -0.015929 -1.163259
26  -0.277239 3.632235 1.274101  0.017310 0.045922 -1.148946
27  0.000002 1.798506 0.000001  0.010401 0.036418 -1.290290
28  0.000000 1.235415 -0.000001  -0.008456 -0.000732 -1.072506
29  -1.200000 3.171091 -1.751965  0.242435 -0.249644 -0.933425
30  -1.200000 3.300078 -0.816645  0.104732 -0.180840 -1.054262
31  -1.200000 3.313605 0.085844  0.105211 -0.017414 -1.049037
32  0.404038 -0.245038 1.877657  2.006695 0.611222 1.283309
33  -1.200000 3.180404 1.195909  0.038684 0.066886 -1.045903
34  -7.245558 -16.825085 -8.699484  -0.204231 0.033960 3.102847
35  -0.315442 0.857303 0.755944  2.055256 -0.473036 -1.302183
36  -0.000001 2.265958 0.000001  -0.031343 0.064655 0.648315
37  -0.000000 1.457792 -0.000001  -0.043664 -0.033633 0.313112
38  -0.000001 0.000003 0.000000  -0.000000 -0.000000 -0.000000
39  0.267268 3.664729 -1.953292  0.283957 0.221688 1.122334
40  0.000000 1.180355 0.000001  -0.011651 0.038626 0.890735
41  0.000003 0.817135 -0.000000  0.000938 -0.006309 0.705606
42  0.249423 3.688541 -0.940889  0.137606 0.147951 1.190200
43  0.000000 1.800632 0.000001  -0.030112 -0.022821 1.270022
44  0.000000 1.243408 0.000000  0.020164 0.001073 1.125715
45  0.244726 3.701139 0.087734  0.113234 0.016587 1.150348
46  0.000004 1.766551 -0.000000  -0.004000 -0.002800 1.270572
47  0.000001 1.188988 -0.000000  -0.007710 0.015929 1.163259
48  0.277239 3.632241 1.274101  0.017310 -0.045922 1.148946
49  0.000001 1.798506 -0.000001  0.010401 -0.036418 1.290290
50  -0.000001 1.235413 -0.000001  -0.008456 0.000732 1.072506
51  1.199999 3.171095 -1.751966  0.242435 0.249644 0.933425
52  1.200000 3.300083 -0.816644  0.104731 0.180840 1.054262
53  1.199999 3.313608 0.085844  0.105211 0.017414 1.049037
54  -0.404039 -0.245033 1.877657  2.006695 -0.611223 -1.283309
55  1.200000 3.180407 1.195909  0.038684 -0.066886 1.045903
56  10.346725 -2.600053 -22.019053  0.000000 -0.000000 0.000000
57  -10.346725 -2.600053 -22.019053  0.000000 -0.000000 0.000000
58  0.055854 -19.452520 -8.681258  1.741835 0.133063 0.000000
59  -1.354073 -0.397537 0.276589  -0.265686 -0.513545 0.171821
60  0.000000 0.000001 -0.000001  0.000002 -0.750634 -1.020137
61  0.414914 -0.675738 0.739654  0.000002 -0.750634 -1.020137
62  -1.954623 -0.420766 0.262275  -0.232334 -0.527808 0.145868
63  0.000000 -0.000000 0.000001  -0.000011 -0.750635 -1.020125
64  0.414914 -0.675738 0.739655  -0.000011 -0.750635 -1.020125
time 11
0  0 0 0  0 0 0
1  0.000000 0.000000 0.000000  1.570796 -0.000000 0.000000
2  11.314767 -9.870670 -9.206596  1.166690 0.190861 -3.032814
3  0.000001 13.479277 0.000000  0.748809 -0.000000 -0.000000
4  0.000000 13.477240 -0.000001  -0.613676 -0.320601 0.370259
5  -11.265995 -9.864681 -9.233568  1.234064 -0.159051 3.060717
6  0.000000 13.479277 0.000000  0.768118 0.000000 0.000000
7  -0.000001 13.477242 0.000001  -0.666278 0.001497 -0.224838
8  11.314767 -9.870670 -9.206596  1.166690 0.190861 -3.032814
9  0.000002 13.479277 -0.000001  0.748809 -0.000000 -0.000000
10  -11.265995 -9.864681 -9.233568  1.234064 -0.159051 3.060717
11  -0.000001 13.479275 0.000001  0.768118 0.000000 0.000000
12  6.666503 -15.415709 -11.128592  -0.254910 -0.316705 -3.094268
13  0.315442 0.857298 0.755944  2.016527 0.420748 1.247266
14  0.000001 2.265957 0.000001  -0.032343 -0.064161 -0.632780
15  -0.000000 1.457791 0.000000  -0.043180 0.034252 -0.298859
16  -0.000000 -0.000001 0.000000  -0.000000 0.000000 -0.000000
17  -0.267269 3.664723 -1.953292  0.283957 -0.221688 -1.122334
18  -0.000000 1.180355 0.000000  -0.011651 -0.038626 -0.890735
19  0.000001 0.817133 -0.000000  0.000938 0.006309 -0.705606
20  -0.249423 3.688537 -0.940887  0.137605 -0.147951 -1.190201
21  0.000002 1.800633 -0.000001  -0.030112 0.022821 -1.270022
22  0.000000 1.243410 0.000002  0.020164 -0.001073 -1.125715
23  -0.244726 3.701138 0.087732  0.113234 -0.016587 -1.150348
24  -0.000000 1.766549 -0.000001  -0.004000 0.002801 -1.270572
25  -0.000001 1.188989 -0.000000  -0.007710 -0.015929 -1.163259
26  -0.277240 3.632236 1.274101  0.017310 0.045922 -1.148946
27  -0.000001 1.798507 -0.000001  0.010401 0.036418 -1.290290
28  0.000001 1.235418 0.000001  -0.008456 -0.000732 -1.072506
29  -1.200001 3.171092 -1.751966  0.242435 -0.249644 -0.933425
30  -1.200000 3.300078 -0.816645  0.104732 -0.180840 -1.054262
31  -1.200001 3.313606 0.085844  0.105211 -0.017414 -1.049037
32  0.404037 -0.245038 1.877656  1.960821 0.556423 1.227298
33  -1.200001 3.180404 1.195908  0.038684 0.066886 -1.045903
34  -7.229577 -15.415709 -9.006412  -0.240788 0.013929 3.096619
35  -0.315442 0.857299 0.755944  2.016527 -0.420748 -1.247266
36  0.000001 2.265958 0.000001  -0.027811 0.066249 0.702306
37  0.000000 1.457792 -0.000001  -0.046379 -0.029777 0.398704
38  -0.000000 -0.000000 -0.000000  0.000000 -0.000000 0.000000
39  0.267270 3.664724 -1.953293  0.283957 0.221688 1.122334
40  -0.000003 1.180355 -0.000001  -0.011651 0.038626 0.890735
41  -0.000001 0.817135 -0.000002  0.000938 -0.006309 0.705606
42  0.249423 3.688536 -0.940887  0.137605 0.147951 1.190200
43  -0.000003 1.800633 -0.000001  -0.030112 -0.022821 1.270022
44  0.000000 1.243409 0.000000  0.020164 0.001073 1.125716
45  0.244727 3.701138 0.087734  0.113234 0.016587 1.150349
46  -0.000002 1.766550 -0.000001  -0.004000 -0.002800 1.270572
47  0.000002 1.188987 0.000001  -0.007710 0.015929 1.163259
48  0.277239 3.632238 1.274100  0.017310 -0.045922 1.148946
49  0.000001 1.798507 0.000000  0.010401 -0.036418 1.290290
50  0.000001 1.235414 -0.000001  -0.008456 0.000732 1.072506
51  1.200000 3.171093 -1.751966  0.242435 0.249644 0.933425
52  1.200000 3.300079 -0.816645  0.104731 0.180840 1.054262
53  1.200001 3.313606 0.085844  0.105211 0.017414 1.049037
54  -0.404038 -0.245037 1.877656  1.960821 -0.556423 -1.227298
55  1.200001 3.180404 1.195908  0.038684 -0.066886 1.045903
56  10.346725 -2.600053 -22.019053  0.000000 -0.000000 0.000000
57  -10.346725 -2.600053 -22.019053  0.000000 -0.000000 0.000000
58  0.055854 -18.078499 -9.221819  1.779569 0.151547 0.000000
59  -1.354072 -0.397539 0.276585  -0.265686 -0.513545 0.171821
60  -0.000001 0.000000 -0.000002  0.000002 -0.750634 -1.020137
61  0.414913 -0.675738 0.739653  0.000002 -0.750634 -1.020137
62  -1.954623 -0.420766 0.262268  -0.232334 -0.527808 0.145868
63  -0.000001 -0.000001 -0.000000  -0.000011 -0.750635 -1.020125
64  0.414913 -0.675738 0.739655  -0.000011 -0.750635 -1.020125
time 12
0  0 0 0  0 0 0
1  0.000000 0.000000 0.000000  1.570796 -0.000000 0.000000
2  11.479696 -9.881844 -10.422335  1.203910 0.189478 -3.028334
3  -0.000000 13.479276 -0.000001  0.677737 -0.000000 -0.000000
4  0.000000 13.477240 0.000001  -0.495397 -0.255662 0.317360
5  -11.418051 -9.875618 -10.450996  1.221036 -0.166984 3.048143
6  0.000001 13.479276 0.000000  0.696156 0.000000 0.000000
7  0.000000 13.477238 -0.000001  -0.519077 0.123811 -0.257133
8  11.479696 -9.881844 -10.422335  1.203910 0.189478 -3.028334
9  0.000002 13.479277 -0.000001  0.677737 -0.000000 -0.000000
10  -11.418051 -9.875618 -10.450996  1.221036 -0.166984 3.048143
11  -0.000000 13.479277 -0.000000  0.696156 0.000000 0.000000
12  6.804461 -14.535978 -11.131146  -0.178015 -0.226412 -3.107505
13  0.315441 0.857300 0.755944  1.983618 0.368880 1.193996
14  0.000000 2.265959 -0.000001  -0.028564 -0.065928 -0.690897
15  0.000001 1.457791 0.000000  -0.045825 0.030623 -0.380344
16  -0.000000 0.000001 0.000001  0.000000 -0.000000 0.000000
17  -0.267271 3.664727 -1.953292  0.283957 -0.221688 -1.122334
18  -0.000001 1.180355 0.000000  -0.011651 -0.038626 -0.890735
19  0.000000 0.817134 -0.000001  0.000938 0.006309 -0.705606
20  -0.249424 3.688535 -0.940887  0.137605 -0.147951 -1.190201
21  0.000000 1.800633 -0.000000  -0.030112 0.022821 -1.270022
22  -0.000002 1.243411 -0.000001  0.020164 -0.001073 -1.125716
23  -0.244726 3.701139 0.087733  0.113234 -0.016587 -1.150349
24  0.000002 1.766550 -0.000000  -0.004000 0.002800 -1.270572
25  -0.000000 1.188989 0.000000  -0.007710 -0.015929 -1.163259
26  -0.277241 3.632234 1.274101  0.017310 0.045922 -1.148946
27  0.000001 1.798506 0.000000  0.010401 0.036418 -1.290290
28  0.000001 1.235415 -0.000000  -0.008456 -0.000732 -1.072506
29  -1.200000 3.171092 -1.751965  0.242435 -0.249644 -0.933425
30  -1.200000 3.300081 -0.816645  0.104732 -0.180840 -1.054262
31  -1.200001 3.313607 0.085844  0.105211 -0.017414 -1.049037
32  0.404038 -0.245036 1.877657  1.921482 0.501747 1.173974
33  -1.200000 3.180405 1.195909  0.038684 0.066886 -1.045903
34  -7.228832 -14.535978 -10.311792  -0.174025 0.109838 3.108173
35  -0.315440 0.857297 0.755944  1.983618 -0.368880 -1.193996
36  -0.000000 2.265957 -0.000001  -0.024579 0.067513 0.750647
37  -0.000000 1.457791 0.000000  -0.048274 -0.026592 0.465935
38  0.000000 -0.000000 0.000000  0.000000 -0.000000 -0.000000
39  0.267269 3.664728 -1.953293  0.283957 0.221688 1.122334
40  -0.000004 1.180355 0.000000  -0.011651 0.038626 0.890735
41  -0.000001 0.817135 -0.000000  0.000938 -0.006309 0.705606
42  0.249422 3.688537 -0.940889  0.137606 0.147951 1.190201
43  -0.000001 1.800633 0.000001  -0.030112 -0.022821 1.270022
44  0.000000 1.243411 -0.000001  0.020164 0.001073 1.125715
45  0.244726 3.701139 0.087732  0.113234 0.016587 1.150349
46  -0.000002 1.766552 0.000000  -0.004000 -0.002801 1.270572
47  0.000002 1.188988 -0.000001  -0.007710 0.015929 1.163259
48  0.277240 3.632236 1.274101  0.017310 -0.045922 1.148946
49  -0.000000 1.798506 -0.000001  0.010401 -0.036418 1.290290
50  0.000001 1.235415 0.000000  -0.008456 0.000732 1.072506
51  1.200001 3.171092 -1.751966  0.242435 0.249644 0.933425
52  1.200000 3.300078 -0.816645  0.104731 0.180840 1.054262
53  1.200001 3.313605 0.085843  0.105211 0.017414 1.049037
54  -0.404037 -0.245037 1.877658  1.921482 -0.501748 -1.173974
55  1.200001 3.180403 1.195908  0.038684 -0.066886 1.045903
56  10.346725 -2.600053 -22.019053  0.000000 -0.000000 0.000000
57  -10.346725 -2.600053 -22.019053  0.000000 -0.000000 0.000000
58  0.055854 -17.129431 -9.662401  1.708838 0.058320 0.000000
59  -1.354072 -0.397538 0.276590  -0.265686 -0.513545 0.171821
60  0.000000 0.000001 -0.000000  0.000002 -0.750634 -1.020137
61  0.414914 -0.675738 0.739653  0.000002 -0.750634 -1.020137
62  -1.954623 -0.420764 0.262270  -0.232334 -0.527808 0.145868
63  0.000001 0.000000 0.000000  -0.000011 -0.750635 -1.020125
64  0.414915 -0.675738 0.739654  -0.000011 -0.750635 -1.020125
time 13
0  0 0 0  0 0 0
1  0.000000 0.000000 0.000000  1.570796 -0.000000 0.000000
2  11.543070 -9.886177 -10.890811  1.231651 0.185288 -3.030951
3  0.000001 13.479277 -0.000000  0.629872 -0.000000 -0.000000
4  0.000001 13.477238 -0.000001  -0.372182 -0.178342 0.264731
5  -11.476475 -9.879860 -10.920122  1.211341 -0.176503 3.035284
6  -0.000000 13.479277 -0.000002  0.628064 0.000000 0.000000
7  0.000000 13.477240 0.000001  -0.356155 0.249353 -0.270672
8  11.543070 -9.886177 -10.890811  1.231651 0.185288 -3.030951
9  0.000001 13.479275 0.000001  0.629872 -0.000000 -0.000000
10  -11.476475 -9.879860 -10.920122  1.211341 -0.176503 3.035284
11  -0.000001 13.479275 -0.000001  0.628064 0.000000 0.000000
12  6.920143 -14.292912 -11.024692  -0.080886 -0.135623 -3.123930
13  0.315441 0.857301 0.755944  1.958201 0.321935 1.146031
14  -0.000000 2.265958 0.000001  -0.024671 -0.067480 -0.749288
15  0.000000 1.457793 -0.000000  -0.048000 0.027084 -0.455715
16  -0.000000 0.000000 0.000000  0.000000 0.000000 -0.000000
17  -0.267270 3.664724 -1.953294  0.283957 -0.221688 -1.122334
18  -0.000000 1.180355 0.000000  -0.011651 -0.038626 -0.890735
19  -0.000002 0.817134 -0.000001  0.000938 0.006309 -0.705606
20  -0.249424 3.688536 -0.940887  0.137605 -0.147951 -1.190200
21  0.000002 1.800633 -0.000001  -0.030112 0.022821 -1.270022
22  0.000002 1.243410 -0.000000  0.020164 -0.001073 -1.125715
23  -0.244727 3.701138 0.087734  0.113234 -0.016587 -1.150348
24  -0.000000 1.766550 0.000000  -0.004000 0.002800 -1.270572
25  -0.000002 1.188989 0.000000  -0.007710 -0.015929 -1.163259
26  -0.277240 3.632237 1.274101  0.017310 0.045922 -1.148946
27  0.000001 1.798506 -0.000001  0.010401 0.036418 -1.290290
28  0.000000 1.235418 0.000001  -0.008456 -0.000732 -1.072506
29  -1.200001 3.171092 -1.751965  0.242435 -0.249644 -0.933425
30  -1.200001 3.300080 -0.816645  0.104732 -0.180840 -1.054262
31  -1.200000 3.313607 0.085844  0.105211 -0.017414 -1.049037
32  0.404037 -0.245037 1.877656  1.890607 0.451975 1.126706
33  -1.200001 3.180406 1.195908  0.038684 0.066886 -1.045903
34  -7.128488 -14.292912 -11.515280  -0.082144 0.205425 3.123716
35  -0.315442 0.857301 0.755944  1.958201 -0.321935 -1.146031
36  0.000001 2.265958 0.000001  -0.021805 0.068458 0.791479
37  -0.000000 1.457791 0.000001  -0.049546 -0.024139 0.516058
38  0.000000 0.000000 -0.000000  0.000000 -0.000000 0.000000
39  0.267269 3.664726 -1.953293  0.283957 0.221688 1.122334
40  0.000000 1.180354 0.000000  -0.011651 0.038626 0.890735
41  -0.000002 0.817134 0.000001  0.000938 -0.006309 0.705606
42  0.249424 3.688536 -0.940889  0.137605 0.147951 1.190200
43  -0.000000 1.800633 0.000001  -0.030112 -0.022821 1.270022
44  0.000000 1.243410 -0.000000  0.020164 0.001073 1.125715
45  0.244727 3.701138 0.087732  0.113234 0.016587 1.150349
46  -0.000004 1.766549 0.000001  -0.004000 -0.002800 1.270572
47  0.000002 1.188990 0.000000  -0.007710 0.015929 1.163259
48  0.277240 3.632238 1.274098  0.017310 -0.045922 1.148946
49  -0.000000 1.798505 0.000000  0.010401 -0.036418 1.290290
50  -0.000000 1.235415 0.000000  -0.008456 0.000732 1.072506
51  1.200001 3.171092 -1.751967  0.242435 0.249644 0.933425
52  1.200001 3.300080 -0.816646  0.104731 0.180840 1.054262
53  1.200000 3.313606 0.085843  0.105211 0.017414 1.049037
54  -0.404037 -0.245038 1.877655  1.890607 -0.451975 -1.126706
55  1.200001 3.180404 1.195907  0.038684 -0.066886 1.045903
56  10.346725 -2.600053 -22.019053  0.000000 -0.000000 0.000000
57  -10.346725 -2.600053 -22.019053  0.000000 -0.000000 0.000000
58  0.055854 -16.775301 -9.954085  1.615671 -0.034907 -0.000000
59  -1.354072 -0.397538 0.276589  -0.265686 -0.513545 0.171821
60  -0.000000 -0.000000 0.000001  0.000002 -0.750634 -1.020137
61  0.414914 -0.675738 0.739657  0.000002 -0.750634 -1.020137
62  -1.954623 -0.420765 0.262276  -0.232334 -0.527808 0.145868
63  0.000001 -0.000001 0.000000  -0.000011 -0.750635 -1.020125
64  0.414915 -0.675739 0.739656  -0.000011 -0.750635 -1.020125
time 14
0  0 0 0  0 0 0
1  0.000000 0.000000 0.000000  1.570796 -0.000000 0.000000
2  11.543070 -9.886177 -10.890811  1.237453 0.185940 -3.030187
3  0.000001 13.479279 -0.000000  0.597162 -0.000000 -0.000000
4  0.000000 13.477239 -0.000001  -0.314269 -0.196482 0.258063
5  -11.476475 -9.879860 -10.920122  1.220941 -0.175817 3.036085
6  -0.000000 13.479278 -0.000001  0.597025 0.000000 0.000000
7  -0.000001 13.477238 0.000000  -0.301648 0.247463 -0.256881
8  11.543070 -9.886177 -10.890811  1.237453 0.185940 -3.030187
9  0.000002 13.479277 0.000000  0.597162 -0.000000 -0.000000
10  -11.476475 -9.879860 -10.920122  1.220941 -0.175817 3.036085
11  -0.000002 13.479275 0.000000  0.597025 0.000000 0.000000
12  6.912182 -14.413271 -11.305859  -0.049149 -0.145144 -3.129330
13  0.315440 0.857299 0.755945  1.940568 0.284012 1.106967
14  0.000001 2.265958 0.000000  -0.021195 -0.068649 -0.800379
15  0.000000 1.457792 -0.000001  -0.049595 0.024039 -0.518081
16  -0.000001 -0.000001 0.000001  0.000000 0.000000 0.000000
17  -0.267272 3.664725 -1.953292  0.283957 -0.221688 -1.122334
18  0.000002 1.180354 0.000001  -0.011651 -0.038626 -0.890735
19  -0.000002 0.817137 0.000001  0.000938 0.006309 -0.705606
20  -0.249425 3.688538 -0.940887  0.137605 -0.147951 -1.190201
21  0.000001 1.800633 0.000001  -0.030112 0.022821 -1.270022
22  0.000001 1.243410 -0.000000  0.020164 -0.001073 -1.125715
23  -0.244726 3.701135 0.087732  0.113234 -0.016587 -1.150348
24  -0.000002 1.766551 -0.000001  -0.004000 0.002800 -1.270572
25  -0.000001 1.188987 0.000001  -0.007710 -0.015929 -1.163259
26  -0.277242 3.632235 1.274102  0.017310 0.045922 -1.148946
27  0.000003 1.798506 0.000001  0.010401 0.036418 -1.290290
28  -0.000000 1.235417 0.000001  -0.008456 -0.000732 -1.072506
29  -1.200001 3.171093 -1.751965  0.242435 -0.249644 -0.933425
30  -1.200001 3.300078 -0.816644  0.104732 -0.180840 -1.054262
31  -1.200001 3.313606 0.085845  0.105211 -0.017414 -1.049037
32  0.404037 -0.245038 1.877656  1.868708 0.411546 1.088663
33  -1.200001 3.180405 1.195908  0.038684 0.066886 -1.045903
34  -7.140313 -14.413271 -11.669291  -0.049795 0.196854 3.129220
35  -0.315442 0.857298 0.755944  1.940568 -0.284012 -1.106967
36  -0.000000 2.265958 0.000001  -0.019642 0.069109 0.822945
37  -0.000000 1.457791 0.000001  -0.050344 -0.022427 0.550321
38  -0.000000 -0.000001 0.000001  0.000000 0.000000 -0.000000
39  0.267269 3.664727 -1.953292  0.283957 0.221688 1.122334
40  -0.000001 1.180354 -0.000001  -0.011651 0.038625 0.890735
41  -0.000000 0.817136 0.000000  0.000938 -0.006309 0.705606
42  0.249422 3.688537 -0.940886  0.137605 0.147951 1.190201
43  0.000002 1.800631 -0.000000  -0.030112 -0.022821 1.270022
44  0.000000 1.243412 -0.000001  0.020164 0.001073 1.125716
45  0.244726 3.701135 0.087732  0.113234 0.016587 1.150348
46  0.000000 1.766551 -0.000001  -0.004000 -0.002800 1.270572
47  -0.000002 1.188992 0.000001  -0.007710 0.015929 1.163259
48  0.277240 3.632233 1.274101  0.017310 -0.045922 1.148946
49  0.000000 1.798506 0.000001  0.010401 -0.036418 1.290290
50  0.000000 1.235417 -0.000000  -0.008456 0.000732 1.072506
51  1.200000 3.171093 -1.751966  0.242435 0.249644 0.933425
52  1.200000 3.300077 -0.816644  0.104731 0.180840 1.054262
53  1.199999 3.313605 0.085845  0.105211 0.017414 1.049037
54  -0.404039 -0.245039 1.877657  1.868708 -0.411546 -1.088663
55  1.200000 3.180404 1.195909  0.038684 -0.066886 1.045903
56  10.346725 -2.600053 -22.019053  0.000000 -0.000000 0.000000
57  -10.346725 -2.600053 -22.019053  0.000000 -0.000000 0.000000
58  0.055854 -16.853079 -10.095478  1.584092 -0.025857 -0.000000
59  -1.354072 -0.397539 0.276589  -0.265686 -0.513545 0.171821
60  0.000000 0.000001 0.000000  0.000002 -0.750634 -1.020137
61  0.414914 -0.675737 0.739653  0.000002 -0.750634 -1.020137
62  -1.954623 -0.420766 0.262274  -0.232334 -0.527807 0.145868
63  -0.000000 0.000001 -0.000001  -0.000011 -0.750635 -1.020125
64  0.414915 -0.675737 0.739654  -0.000010 -0.750635 -1.020125
time 15
0  0 0 0  0 0 0
1  0.000000 0.000000 0.000000  1.570796 -0.000000 0.000000
2  11.543070 -9.886177 -10.890811  1.253123 0.186434 -3.029608
3  0.000000 13.479278 0.000001  0.551693 -0.000000 0.000000
4  -0.000000 13.477239 0.000002  -0.274022 -0.221380 0.254936
5  -11.476475 -9.879860 -10.920122  1.241904 -0.173481 3.038809
6  0.000000 13.479278 -0.000000  0.557684 0.000000 0.000000
7  -0.000000 13.477240 0.000001  -0.270146 0.234199 -0.243460
8  11.543070 -9.886177 -10.890811  1.253123 0.186434 -3.029608
9  0.000001 13.479277 0.000001  0.551693 -0.000000 0.000000
10  -11.476475 -9.879860 -10.920122  1.241904 -0.173481 3.038809
11  0.000000 13.479274 0.000001  0.557684 0.000000 0.000000
12  6.891128 -14.574018 -11.501297  -0.037570 -0.162081 -3.131305
13  0.315442 0.857302 0.755944  1.930239 0.258746 1.080583
14  0.000001 2.265957 -0.000002  -0.018698 -0.069370 -0.836590
15  0.000000 1.457792 0.000001  -0.050570 0.021910 -0.560552
16  0.000000 0.000000 -0.000000  -0.000000 -0.000000 0.000000
17  -0.267269 3.664725 -1.953293  0.283957 -0.221688 -1.122334
18  -0.000001 1.180354 -0.000001  -0.011651 -0.038626 -0.890735
19  -0.000002 0.817136 0.000000  0.000938 0.006309 -0.705606
20  -0.249423 3.688540 -0.940888  0.137605 -0.147951 -1.190201
21  0.000001 1.800634 -0.000000  -0.030112 0.022821 -1.270022
22  0.000001 1.243409 -0.000001  0.020164 -0.001073 -1.125715
23  -0.244725 3.701138 0.087733  0.113234 -0.016587 -1.150349
24  -0.000000 1.766549 -0.000002  -0.004000 0.002800 -1.270572
25  0.000001 1.188990 0.000001  -0.007710 -0.015929 -1.163259
26  -0.277238 3.632237 1.274101  0.017310 0.045922 -1.148946
27  0.000003 1.798506 0.000000  0.010401 0.036418 -1.290290
28  -0.000001 1.235414 0.000001  -0.008456 -0.000732 -1.072506
29  -1.200000 3.171093 -1.751965  0.242435 -0.249644 -0.933425
30  -1.200000 3.300080 -0.816645  0.104732 -0.180840 -1.054262
31  -1.200000 3.313607 0.085843  0.105211 -0.017414 -1.049037
32  0.404038 -0.245037 1.877655  1.855570 0.384487 1.063169
33  -1.200000 3.180404 1.195908  0.038684 0.066886 -1.045903
34  -7.165491 -14.574018 -11.628510  -0.037760 0.180180 3.131273
35  -0.315443 0.857300 0.755946  1.930239 -0.258746 -1.080583
36  0.000000 2.265957 -0.000001  -0.018241 0.069492 0.843186
37  -0.000000 1.457791 -0.000001  -0.050774 -0.021433 0.569968
38  -0.000001 -0.000000 -0.000000  -0.000000 0.000000 0.000000
39  0.267268 3.664728 -1.953294  0.283957 0.221688 1.122334
40  0.000000 1.180356 0.000000  -0.011651 0.038625 0.890735
41  0.000002 0.817136 -0.000000  0.000938 -0.006309 0.705606
42  0.249421 3.688539 -0.940888  0.137606 0.147951 1.190200
43  -0.000001 1.800632 -0.000000  -0.030112 -0.022821 1.270022
44  -0.000001 1.243410 0.000001  0.020164 0.001073 1.125715
45  0.244725 3.701140 0.087733  0.113234 0.016587 1.150349
46  -0.000002 1.766550 0.000001  -0.004000 -0.002800 1.270572
47  -0.000001 1.188993 0.000001  -0.007710 0.015929 1.163259
48  0.277238 3.632234 1.274102  0.017310 -0.045922 1.148946
49  -0.000001 1.798505 0.000000  0.010401 -0.036418 1.290290
50  -0.000002 1.235417 0.000000  -0.008456 0.000732 1.072506
51  1.200000 3.171093 -1.751966  0.242435 0.249644 0.933425
52  1.199999 3.300079 -0.816645  0.104731 0.180840 1.054262
53  1.200000 3.313607 0.085844  0.105211 0.017414 1.049037
54  -0.404039 -0.245037 1.877656  1.855570 -0.384487 -1.063169
55  1.199999 3.180405 1.195908  0.038684 -0.066886 1.045903
56  10.346725 -2.600053 -22.019053  0.000000 -0.000000 0.000000
57  -10.346725 -2.600053 -22.019053  0.000000 -0.000000 0.000000
58  0.055854 -16.997522 -10.147571  1.572458 -0.009050 -0.000000
59  -1.354072 -0.397538 0.276591  -0.265686 -0.513545 0.171821
60  -0.000000 -0.000000 0.000001  0.000002 -0.750634 -1.020137
61  0.414913 -0.675738 0.739655  0.000002 -0.750634 -1.020137
62  -1.954623 -0.420765 0.262273  -0.232334 -0.527807 0.145868
63  -0.000000 -0.000000 -0.000001  -0.000011 -0.750635 -1.020125
64  0.414914 -0.675738 0.739654  -0.000010 -0.750635 -1.020125
time 16
0  0 0 0  0 0 0
1  0.000000 0.000000 0.000000  1.570796 -0.000000 0.000000
2  11.543070 -9.886177 -10.890811  1.262387 0.186654 -3.029350
3  -0.000000 13.479277 0.000000  0.528038 -0.000000 0.000000
4  -0.000002 13.477239 -0.000001  -0.258599 -0.234094 0.253830
5  -11.476475 -9.879860 -10.920122  1.253869 -0.172171 3.040334
6  0.000001 13.479279 -0.000001  0.537543 0.000000 0.000000
7  0.000000 13.477239 0.000001  -0.259690 0.226214 -0.237585
8  11.543070 -9.886177 -10.890811  1.262387 0.186654 -3.029350
9  0.000001 13.479276 0.000001  0.528038 -0.000000 0.000000
10  -11.476475 -9.879860 -10.920122  1.253869 -0.172171 3.040334
11  0.000000 13.479276 0.000000  0.537543 0.000000 0.000000
12  6.878597 -14.654153 -11.574567  -0.035978 -0.171147 -3.131576
13  0.315441 0.857297 0.755943  1.926759 0.249545 1.070875
14  0.000001 2.265958 0.000000  -0.017743 -0.069620 -0.850345
15  -0.000000 1.457791 -0.000000  -0.050908 0.021114 -0.576241
16  0.000001 -0.000001 0.000002  0.000000 0.000000 0.000000
17  -0.267267 3.664724 -1.953293  0.283957 -0.221688 -1.122334
18  0.000001 1.180356 0.000001  -0.011651 -0.038625 -0.890735
19  -0.000000 0.817136 0.000001  0.000938 0.006309 -0.705606
20  -0.249423 3.688538 -0.940887  0.137605 -0.147951 -1.190200
21  0.000002 1.800632 0.000000  -0.030112 0.022821 -1.270022
22  0.000001 1.243412 0.000000  0.020164 -0.001073 -1.125715
23  -0.244726 3.701137 0.087733  0.113234 -0.016587 -1.150348
24  0.000002 1.766549 0.000001  -0.004000 0.002800 -1.270572
25  -0.000001 1.188988 0.000000  -0.007710 -0.015929 -1.163258
26  -0.277238 3.632233 1.274101  0.017310 0.045922 -1.148946
27  0.000003 1.798506 -0.000001  0.010401 0.036418 -1.290290
28  -0.000001 1.235419 -0.000000  -0.008456 -0.000732 -1.072506
29  -1.200000 3.171093 -1.751965  0.242435 -0.249644 -0.933425
30  -1.199999 3.300078 -0.816645  0.104732 -0.180840 -1.054262
31  -1.200000 3.313605 0.085845  0.105211 -0.017414 -1.049037
32  0.404038 -0.245038 1.877658  1.851069 0.374606 1.053825
33  -1.200000 3.180404 1.195909  0.038684 0.066886 -1.045903
34  -7.178596 -14.654153 -11.574567  -0.035978 0.171147 3.131576
35  -0.315442 0.857299 0.755943  1.926759 -0.249545 -1.070875
36  0.000000 2.265958 0.000000  -0.017743 0.069620 0.850345
37  0.000000 1.457791 0.000000  -0.050908 -0.021114 0.576241
38  -0.000001 -0.000000 0.000001  0.000000 -0.000000 0.000000
39  0.267268 3.664727 -1.953292  0.283957 0.221688 1.122334
40  -0.000001 1.180356 0.000001  -0.011651 0.038626 0.890735
41  0.000002 0.817133 0.000001  0.000938 -0.006309 0.705606
42  0.249420 3.688540 -0.940888  0.137605 0.147951 1.190200
43  -0.000000 1.800633 0.000001  -0.030112 -0.022821 1.270022
44  -0.000001 1.243412 0.000001  0.020164 0.001073 1.125715
45  0.244725 3.701139 0.087733  0.113234 0.016587 1.150348
46  -0.000002 1.766550 -0.000000  -0.004000 -0.002800 1.270572
47  -0.000001 1.188988 0.000000  -0.007710 0.015929 1.163259
48  0.277238 3.632236 1.274102  0.017310 -0.045922 1.148946
49  -0.000001 1.798504 -0.000001  0.010401 -0.036418 1.290290
50  0.000002 1.235416 0.000001  -0.008456 0.000732 1.072506
51  1.199999 3.171093 -1.751965  0.242435 0.249644 0.933425
52  1.199999 3.300079 -0.816645  0.104731 0.180840 1.054262
53  1.199999 3.313605 0.085844  0.105211 0.017414 1.049037
54  -0.404039 -0.245037 1.877658  1.851069 -0.374606 -1.053825
55  1.200000 3.180405 1.195908  0.038684 -0.066886 1.045903
56  10.346725 -2.600053 -22.019053  0.000000 -0.000000 0.000000
57  -10.346725 -2.600053 -22.019053  0.000000 -0.000000 0.000000
58  0.055854 -17.075300 -10.155012  1.570796 -0.000000 0.000000
59  -1.354072 -0.397538 0.276588  -0.265686 -0.513545 0.171821
60  -0.000000 -0.000000 -0.000001  0.000002 -0.750634 -1.020137
61  0.414913 -0.675738 0.739653  0.000002 -0.750634 -1.020137
62  -1.954623 -0.420766 0.262272  -0.232334 -0.527808 0.145868
63  0.000000 -0.000001 0.000002  -0.000011 -0.750635 -1.020125
64  0.414913 -0.675739 0.739655  -0.000011 -0.750635 -1.020125
end
