version 1
nodes
0 "blender_implicit" -1
1 "root" -1
2 "upperarm_l" 1
3 "lowerarm_l" 2
4 "hand_l" 3
5 "ctrl_index_0_l" 4
6 "upperarm_r" 1
7 "lowerarm_r" 6
8 "hand_r" 7
9 "ctrl_index_0_r" 8
10 "ik_upperarm_l" 1
11 "ik_lowerarm_l" 10
12 "ik_upperarm_r" 1
13 "ik_lowerarm_r" 12
14 "ctrl_ik_hand_l" -1
15 "thumb_0_l" 14
16 "thumb_1_l" 15
17 "thumb_2_l" 16
18 "ik_hand_l" 14
19 "pinky_0_l" 14
20 "pinky_1_l" 19
21 "pinky_2_l" 20
22 "ring_0_l" 14
23 "ring_1_l" 22
24 "ring_2_l" 23
25 "middle_0_l" 14
26 "middle_1_l" 25
27 "middle_2_l" 26
28 "index_0_l" 14
29 "index_1_l" 28
30 "index_2_l" 29
31 "ctrl_pinky_0_l" 14
32 "ctrl_ring_0_l" 14
33 "ctrl_middle_0_l" 14
34 "ctrl_thumb_0_l" 14
35 "ctrl_ik_hand_r" -1
36 "thumb_0_r" 35
37 "thumb_1_r" 36
38 "thumb_2_r" 37
39 "ik_hand_r" 35
40 "pinky_0_r" 35
41 "pinky_1_r" 40
42 "pinky_2_r" 41
43 "ring_0_r" 35
44 "ring_1_r" 43
45 "ring_2_r" 44
46 "middle_0_r" 35
47 "middle_1_r" 46
48 "middle_2_r" 47
49 "index_0_r" 35
50 "index_1_r" 49
51 "index_2_r" 50
52 "ctrl_pinky_0_r" 35
53 "ctrl_ring_0_r" 35
54 "ctrl_middle_0_r" 35
55 "ctrl_thumb_0_r" 35
56 "TGT_elbow_l" -1
57 "TGT_elbow_r" -1
58 "Super Nailgun" -1
59 "bone_pistolGrip" -1
60 "TERM_pistolGrip" 59
61 "bone_muzzle" 59
62 "bone_ejectionPort" 59
63 "bone_magazine" 59
64 "TERM_magazine" 63
end
skeleton
time 0
0  0 0 0  0 0 0
1  0.000000 0.000000 0.000000  1.570796 -0.000000 0.000000
2  16.552387 -19.884323 3.937825  0.486729 -0.306311 2.398204
3  0.000001 13.479277 0.000000  0.004796 -0.000000 -0.000000
4  -0.000001 13.477238 -0.000000  0.497886 -1.079725 -0.619446
5  -1.199998 3.180410 1.195911  0.075827 -0.014785 0.192195
6  -5.775610 -11.341732 -7.319988  1.411309 -0.839560 1.823592
7  -0.000001 13.479276 -0.000000  0.004872 0.000000 0.000000
8  -0.000002 13.477237 0.000001  0.975213 0.990014 1.325152
9  1.199999 3.180405 1.195906  -0.017452 0.148181 -0.200002
10  16.552387 -19.884323 3.937825  0.486729 -0.306311 2.398204
11  0.000000 13.479277 -0.000000  0.004796 -0.000000 -0.000000
12  -5.775610 -11.341732 -7.319988  1.411309 -0.839560 1.823592
13  -0.000001 13.479276 0.000000  0.004872 0.000000 0.000000
14  3.176754 -16.089172 -40.112129  -2.349317 -0.642954 -1.160235
15  0.315447 0.857303 0.755950  2.242604 0.443989 1.706359
16  -0.000003 2.265958 0.000004  -0.058742 -0.041383 -0.142369
17  0.000000 1.457793 0.000004  -0.024981 0.049127 0.131061
18  0.000003 -0.000001 0.000000  0.000000 -0.000000 0.000000
19  -0.267265 3.664722 -1.953296  -0.098467 -0.016034 -0.179584
20  0.000003 1.180354 -0.000001  -0.025411 -0.031338 -0.502262
21  -0.000001 0.817137 0.000005  0.003256 0.005484 -0.317299
22  -0.249419 3.688539 -0.940888  -0.060576 -0.012076 -0.130826
23  0.000002 1.800635 -0.000002  -0.008339 0.036849 -0.570162
24  0.000002 1.243407 0.000004  0.014736 -0.013805 -0.426136
25  -0.244728 3.701144 0.087734  0.003965 -0.007022 0.009317
26  -0.000001 1.766552 0.000002  -0.001350 0.004693 -0.590754
27  0.000000 1.188991 -0.000001  -0.016010 -0.007541 -0.483444
28  -0.277237 3.632236 1.274101  0.049053 -0.001441 0.090574
29  -0.000000 1.798504 0.000000  0.033555 0.017567 -0.479891
30  0.000004 1.235412 0.000003  -0.006359 0.005622 -0.262234
31  -1.199997 3.171092 -1.751966  -0.144885 -0.000000 0.000000
32  -1.199996 3.300076 -0.816646  -0.105158 -0.000000 0.000000
33  -1.199996 3.313607 0.085844  0.000000 -0.000000 0.110506
34  0.404040 -0.245037 1.877658  2.263978 0.587082 1.723168
35  -4.732999 -13.817036 -35.406094  -1.056959 0.441205 -2.726685
36  -0.315442 0.857297 0.755948  -0.170933 -2.698646 0.977782
37  0.000005 2.265958 -0.000001  -0.010468 0.071077 0.953748
38  -0.000001 1.457794 -0.000000  -0.047781 -0.027470 0.447681
39  0.000001 0.000001 -0.000001  0.000000 0.000000 -0.000000
40  0.267269 3.664729 -1.953293  -0.075310 0.065487 0.733142
41  0.000000 1.180354 0.000000  -0.016097 0.036995 0.773254
42  -0.000006 0.817135 -0.000000  0.001670 -0.006156 0.588195
43  0.249421 3.688537 -0.940890  -0.170707 0.051366 0.915709
44  0.000003 1.800632 0.000001  -0.022757 -0.030160 0.994140
45  0.000001 1.243409 0.000002  0.019109 0.006525 0.849885
46  0.244724 3.701135 0.087733  -0.212307 0.001292 0.886579
47  0.000002 1.766551 0.000000  -0.003132 -0.003746 1.006934
48  0.000002 1.188990 -0.000001  -0.011595 0.013370 0.899604
49  0.277241 3.632236 1.274100  -0.044364 0.134581 -0.101956
50  0.000001 1.798510 -0.000000  0.025082 -0.028381 0.844623
51  -0.000004 1.235415 0.000001  -0.008298 -0.001783 0.774562
52  1.200000 3.171094 -1.751967  -0.123359 0.076182 0.550529
53  1.200001 3.300081 -0.816646  -0.210885 0.074290 0.782628
54  1.199999 3.313606 0.085844  -0.220267 -0.000000 0.785398
55  -0.404037 -0.245034 1.877654  -0.328939 -2.440184 0.873978
56  4.789751 9.602176 -26.351929  0.000000 -0.000000 0.000000
57  -22.784323 6.546616 -16.625790  0.000000 -0.000000 0.000000
58  -13.807936 -20.992409 -1.805487  1.570796 -3.141592 -0.000000
59  -2.113483 -13.736208 -38.195309  2.557759 -0.403021 0.383794
60  0.000005 3.207673 -0.060375  -1.570796 -0.000000 1.570796
61  0.005492 7.262291 22.213398  -1.570797 -1.570796 0.000000
62  -1.373577 7.201887 12.630885  -1.570797 -1.570796 0.000000
63  0.004227 0.497217 12.083946  -1.570796 -1.570796 0.000000
64  3.578708 0.000007 -0.000000  -0.000000 0.000000 0.000000
time 1
0  0 0 0  0 0 0
1  0.000000 0.000000 0.000000  1.570796 -0.000000 0.000000
2  16.552387 -19.884323 3.937825  0.311241 -0.298401 2.362318
3  -0.000003 13.479279 -0.000001  0.398143 -0.000000 -0.000000
4  0.000001 13.477238 -0.000000  0.097275 -1.118320 -0.272571
5  -1.200000 3.180403 1.195907  0.075827 -0.014785 0.192195
6  -5.791481 -11.341053 -7.321920  1.407854 -0.820284 1.832490
7  -0.000000 13.479277 -0.000001  0.004859 -0.000000 0.000000
8  0.000002 13.477238 0.000000  0.959074 0.997645 1.269929
9  1.200001 3.180404 1.195908  -0.017452 0.148181 -0.200002
10  16.552387 -19.884323 3.937825  0.311241 -0.298401 2.362318
11  -0.000001 13.479275 -0.000002  0.398143 -0.000000 -0.000000
12  -5.791481 -11.341053 -7.321920  1.407854 -0.820284 1.832490
13  -0.000001 13.479276 -0.000001  0.004859 -0.000000 0.000000
14  3.047838 -16.273861 -38.954525  -2.390032 -0.691860 -1.149611
15  0.315442 0.857295 0.755935  2.242604 0.443989 1.706359
16  -0.000002 2.265957 -0.000000  -0.058742 -0.041383 -0.142369
17  0.000002 1.457792 -0.000005  -0.024981 0.049127 0.131061
18  -0.000000 -0.000000 -0.000000  0.000000 -0.000000 0.000000
19  -0.267270 3.664725 -1.953292  -0.098467 -0.016034 -0.179584
20  -0.000003 1.180355 0.000001  -0.025411 -0.031338 -0.502262
21  -0.000002 0.817136 0.000003  0.003257 0.005484 -0.317299
22  -0.249427 3.688536 -0.940887  -0.060576 -0.012076 -0.130826
23  0.000002 1.800634 -0.000001  -0.008339 0.036849 -0.570162
24  0.000000 1.243410 -0.000000  0.014736 -0.013805 -0.426136
25  -0.244729 3.701138 0.087731  0.003965 -0.007022 0.009317
26  -0.000003 1.766553 -0.000000  -0.001350 0.004693 -0.590754
27  0.000001 1.188990 -0.000001  -0.016010 -0.007541 -0.483444
28  -0.277237 3.632236 1.274100  0.049053 -0.001441 0.090574
29  -0.000001 1.798502 -0.000001  0.033555 0.017567 -0.479891
30  -0.000003 1.235416 -0.000000  -0.006359 0.005622 -0.262234
31  -1.200001 3.171091 -1.751965  -0.144885 -0.000000 0.000000
32  -1.200001 3.300078 -0.816646  -0.105159 -0.000000 0.000000
33  -1.200003 3.313605 0.085843  0.000000 -0.000000 0.110506
34  0.404037 -0.245038 1.877655  2.263977 0.587082 1.723168
35  -4.781566 -13.617490 -34.315804  -1.003382 0.409080 -2.719166
36  -0.315438 0.857297 0.755945  -0.170933 -2.698646 0.977782
37  -0.000001 2.265958 0.000000  -0.010468 0.071076 0.953748
38  -0.000004 1.457794 0.000001  -0.047781 -0.027470 0.447681
39  0.000001 -0.000002 0.000001  0.000000 -0.000000 -0.000000
40  0.267269 3.664725 -1.953290  -0.075310 0.065487 0.733142
41  0.000000 1.180354 0.000000  -0.016097 0.036995 0.773254
42  0.000003 0.817134 0.000001  0.001670 -0.006156 0.588195
43  0.249426 3.688533 -0.940888  -0.170707 0.051366 0.915709
44  -0.000003 1.800631 0.000000  -0.022758 -0.030159 0.994140
45  -0.000001 1.243409 0.000001  0.019109 0.006525 0.849885
46  0.244730 3.701140 0.087733  -0.212307 0.001292 0.886579
47  0.000004 1.766552 -0.000001  -0.003132 -0.003746 1.006934
48  -0.000003 1.188990 -0.000000  -0.011595 0.013370 0.899604
49  0.277240 3.632237 1.274099  -0.044364 0.134581 -0.101956
50  0.000001 1.798503 -0.000002  0.025082 -0.028381 0.844623
51  0.000001 1.235416 -0.000003  -0.008298 -0.001783 0.774562
52  1.200002 3.171091 -1.751967  -0.123359 0.076182 0.550529
53  1.200001 3.300077 -0.816646  -0.210885 0.074289 0.782628
54  1.200001 3.313602 0.085846  -0.220267 -0.000000 0.785398
55  -0.404036 -0.245039 1.877656  -0.328939 -2.440184 0.873978
56  4.543942 9.295758 -26.248682  0.000000 -0.000000 0.000000
57  -22.598629 6.541523 -16.708944  0.000000 -0.000000 0.000000
58  -13.807936 -20.992409 -1.805487  1.570796 -3.141592 -0.000000
59  -2.188947 -13.736208 -37.128696  2.503955 -0.372473 0.389558
60  0.000001 3.207670 -0.060380  -1.570796 0.000000 1.570796
61  0.005491 7.262294 22.213388  -1.570797 -1.570796 0.000000
62  -1.373580 7.201888 12.630877  -1.570797 -1.570796 0.000000
63  0.004224 0.497219 12.083939  -1.570796 -1.570796 0.000000
64  3.578712 0.000004 0.000002  -0.000000 0.000000 0.000000
time 2
0  0 0 0  0 0 0
1  0.000000 0.000000 0.000000  1.570796 -0.000000 0.000000
2  16.552387 -19.884323 3.937825  0.161641 -0.276214 2.268643
3  -0.000001 13.479277 0.000000  0.795084 -0.000000 0.000000
4  -0.000000 13.477242 -0.000003  -0.265822 -1.049055 0.007390
5  -1.199997 3.180404 1.195906  0.075827 -0.014785 0.192195
6  -5.836022 -11.336296 -7.331981  1.399209 -0.767649 1.857996
7  0.000000 13.479275 -0.000000  0.004827 0.000000 -0.000000
8  0.000001 13.477237 -0.000000  0.881548 1.004596 1.115534
9  1.200000 3.180408 1.195909  -0.017452 0.148181 -0.200002
10  16.552387 -19.884323 3.937825  0.161641 -0.276214 2.268643
11  0.000001 13.479273 -0.000000  0.795084 -0.000000 0.000000
12  -5.836022 -11.336296 -7.331981  1.399209 -0.767649 1.857996
13  0.000000 13.479275 -0.000000  0.004827 0.000000 -0.000000
14  2.719328 -16.622124 -36.177383  -2.507678 -0.798517 -1.092337
15  0.315439 0.857302 0.755944  2.242604 0.443989 1.706359
16  0.000000 2.265960 0.000000  -0.058742 -0.041383 -0.142369
17  0.000000 1.457792 0.000001  -0.024981 0.049127 0.131061
18  -0.000003 0.000002 -0.000002  -0.000000 -0.000000 0.000000
19  -0.267276 3.664730 -1.953290  -0.098467 -0.016034 -0.179584
20  -0.000005 1.180355 -0.000002  -0.025411 -0.031338 -0.502262
21  0.000001 0.817134 0.000001  0.003257 0.005484 -0.317299
22  -0.249425 3.688541 -0.940889  -0.060576 -0.012076 -0.130826
23  -0.000002 1.800634 -0.000000  -0.008339 0.036849 -0.570162
24  -0.000002 1.243410 -0.000003  0.014736 -0.013805 -0.426136
25  -0.244730 3.701140 0.087733  0.003964 -0.007022 0.009317
26  -0.000002 1.766552 0.000003  -0.001350 0.004693 -0.590754
27  0.000003 1.188989 0.000003  -0.016010 -0.007541 -0.483444
28  -0.277245 3.632237 1.274100  0.049053 -0.001441 0.090574
29  0.000000 1.798505 0.000002  0.033555 0.017567 -0.479891
30  0.000004 1.235416 0.000002  -0.006359 0.005622 -0.262234
31  -1.200001 3.171093 -1.751969  -0.144885 -0.000000 0.000000
32  -1.200002 3.300081 -0.816646  -0.105159 -0.000000 0.000000
33  -1.200005 3.313609 0.085844  0.000000 -0.000000 0.110506
34  0.404035 -0.245037 1.877656  2.263978 0.587082 1.723168
35  -4.896868 -13.181277 -31.702145  -0.887671 0.324421 -2.700263
36  -0.315440 0.857302 0.755946  -0.170932 -2.698646 0.977782
37  -0.000001 2.265958 0.000000  -0.010468 0.071076 0.953748
38  -0.000000 1.457796 -0.000000  -0.047781 -0.027470 0.447681
39  0.000000 0.000001 0.000002  -0.000000 -0.000000 0.000000
40  0.267272 3.664727 -1.953293  -0.075310 0.065487 0.733142
41  -0.000002 1.180356 0.000000  -0.016097 0.036995 0.773254
42  0.000000 0.817136 0.000001  0.001670 -0.006156 0.588195
43  0.249423 3.688539 -0.940889  -0.170707 0.051366 0.915709
44  0.000003 1.800633 -0.000001  -0.022758 -0.030160 0.994140
45  0.000003 1.243408 -0.000003  0.019109 0.006525 0.849885
46  0.244727 3.701140 0.087734  -0.212307 0.001292 0.886579
47  0.000003 1.766551 0.000000  -0.003132 -0.003746 1.006934
48  0.000001 1.188990 0.000000  -0.011595 0.013370 0.899604
49  0.277242 3.632238 1.274101  -0.044364 0.134581 -0.101956
50  -0.000001 1.798506 -0.000002  0.025082 -0.028381 0.844623
51  0.000002 1.235417 -0.000002  -0.008298 -0.001783 0.774562
52  1.200001 3.171096 -1.751966  -0.123359 0.076182 0.550529
53  1.200001 3.300082 -0.816644  -0.210885 0.074289 0.782629
54  1.200000 3.313608 0.085845  -0.220267 -0.000000 0.785398
55  -0.404038 -0.245037 1.877659  -0.328939 -2.440184 0.873978
56  3.852251 8.433515 -25.958151  0.000000 -0.000000 0.000000
57  -22.076096 6.527193 -16.942944  0.000000 -0.000000 0.000000
58  -13.807936 -20.992409 -1.805487  1.570796 -3.141592 -0.000000
59  -2.401395 -13.736208 -34.550442  2.386679 -0.291595 0.405190
60  0.000003 3.207672 -0.060378  -1.570796 0.000000 1.570796
61  0.005489 7.262290 22.213398  -1.570797 -1.570796 0.000000
62  -1.373581 7.201884 12.630884  -1.570797 -1.570796 0.000000
63  0.004225 0.497215 12.083945  -1.570796 -1.570796 0.000000
64  3.578708 0.000004 -0.000004  -0.000000 0.000000 0.000000
time 3
0  0 0 0  0 0 0
1  0.000000 0.000000 0.000000  1.570796 -0.000000 0.000000
2  16.552387 -19.884323 3.937825  0.078240 -0.242484 2.143240
3  -0.000001 13.479280 -0.000000  1.064863 -0.000000 -0.000000
4  0.000000 13.477240 -0.000001  -0.421337 -0.966115 0.084508
5  -1.199998 3.180405 1.195905  0.075827 -0.014785 0.192195
6  -5.904625 -11.323383 -7.356572  1.200191 -0.688492 1.899537
7  -0.000001 13.479277 -0.000000  0.380901 0.000000 0.000000
8  -0.000000 13.477238 0.000001  0.451168 1.110150 0.668060
9  1.200000 3.180406 1.195907  -0.017452 0.148181 -0.200002
10  16.552387 -19.884323 3.937825  0.078240 -0.242484 2.143240
11  0.000000 13.479277 -0.000001  1.064863 -0.000000 -0.000000
12  -5.904625 -11.323383 -7.356572  1.200191 -0.688492 1.899537
13  -0.000002 13.479277 -0.000000  0.380901 0.000000 0.000000
14  2.290416 -16.864395 -32.878845  -2.700935 -0.893492 -0.949683
15  0.315443 0.857302 0.755943  2.242604 0.443989 1.706359
16  -0.000000 2.265957 0.000005  -0.058742 -0.041383 -0.142369
17  0.000000 1.457795 0.000001  -0.024981 0.049127 0.131061
18  0.000001 0.000002 0.000001  0.000000 -0.000000 -0.000000
19  -0.267268 3.664728 -1.953292  -0.098467 -0.016034 -0.179584
20  0.000001 1.180356 0.000000  -0.025411 -0.031338 -0.502262
21  -0.000001 0.817134 0.000000  0.003257 0.005484 -0.317299
22  -0.249422 3.688536 -0.940889  -0.060576 -0.012076 -0.130826
23  -0.000002 1.800634 0.000002  -0.008339 0.036849 -0.570162
24  0.000000 1.243409 0.000002  0.014736 -0.013805 -0.426137
25  -0.244727 3.701143 0.087736  0.003965 -0.007022 0.009317
26  -0.000004 1.766549 0.000001  -0.001350 0.004693 -0.590754
27  -0.000003 1.188989 0.000003  -0.016010 -0.007541 -0.483444
28  -0.277241 3.632240 1.274101  0.049053 -0.001441 0.090574
29  -0.000002 1.798507 0.000000  0.033555 0.017567 -0.479891
30  0.000002 1.235417 -0.000000  -0.006359 0.005622 -0.262234
31  -1.200000 3.171095 -1.751964  -0.144885 -0.000000 -0.000000
32  -1.199997 3.300079 -0.816647  -0.105159 -0.000000 -0.000000
33  -1.200000 3.313607 0.085845  0.000000 -0.000000 0.110506
34  0.404037 -0.245035 1.877658  2.263978 0.587082 1.723168
35  -5.052057 -12.752066 -28.514164  -0.777543 0.205805 -2.673716
36  -0.315440 0.857300 0.755945  -0.170933 -2.698646 0.977782
37  -0.000001 2.265958 -0.000001  -0.010468 0.071077 0.953748
38  0.000001 1.457790 -0.000000  -0.047781 -0.027470 0.447681
39  0.000001 -0.000002 -0.000000  -0.000000 -0.000000 0.000000
40  0.267270 3.664731 -1.953292  -0.075310 0.065487 0.733142
41  0.000000 1.180353 0.000002  -0.016097 0.036995 0.773254
42  -0.000002 0.817135 0.000002  0.001670 -0.006156 0.588195
43  0.249424 3.688534 -0.940889  -0.170707 0.051366 0.915709
44  -0.000000 1.800633 -0.000004  -0.022757 -0.030159 0.994140
45  0.000001 1.243409 -0.000000  0.019109 0.006525 0.849885
46  0.244725 3.701132 0.087736  -0.212307 0.001292 0.886579
47  -0.000001 1.766549 0.000000  -0.003132 -0.003746 1.006934
48  0.000001 1.188992 0.000000  -0.011595 0.013370 0.899604
49  0.277240 3.632232 1.274102  -0.044364 0.134581 -0.101956
50  -0.000001 1.798504 -0.000000  0.025082 -0.028381 0.844623
51  -0.000003 1.235417 0.000001  -0.008298 -0.001783 0.774562
52  1.200001 3.171092 -1.751963  -0.123359 0.076182 0.550529
53  1.200001 3.300079 -0.816646  -0.210885 0.074289 0.782628
54  1.200001 3.313605 0.085845  -0.220267 -0.000000 0.785398
55  -0.404037 -0.245037 1.877657  -0.328939 -2.440184 0.873978
56  2.783272 7.100957 -25.509146  0.000000 -0.000000 0.000000
57  -21.268543 6.505045 -17.304573  0.000000 -0.000000 0.000000
58  -13.807936 -20.992409 -1.805487  1.570796 -3.141592 -0.000000
59  -2.729916 -13.736208 -31.392921  2.272937 -0.177032 0.429281
60  0.000002 3.207674 -0.060374  -1.570796 -0.000000 1.570796
61  0.005487 7.262297 22.213402  -1.570797 -1.570796 0.000000
62  -1.373581 7.201884 12.630888  -1.570797 -1.570796 0.000000
63  0.004223 0.497217 12.083950  -1.570796 -1.570796 0.000000
64  3.578714 0.000002 -0.000003  -0.000000 0.000000 0.000000
time 4
0  0 0 0  0 0 0
1  0.000000 0.000000 0.000000  1.570796 -0.000000 0.000000
2  16.552387 -19.884323 3.937825  0.034836 -0.211354 2.017984
3  0.000001 13.479274 0.000000  1.217028 -0.000000 0.000000
4  0.000000 13.477240 0.000001  -0.466036 -0.932359 0.077535
5  -1.200001 3.180403 1.195908  0.075827 -0.014785 0.192195
6  -5.992682 -11.298241 -7.402090  0.943904 -0.593351 1.957604
7  -0.000002 13.479277 -0.000000  0.871820 -0.000000 0.000000
8  -0.000000 13.477239 0.000001  -0.232947 1.061485 0.079481
9  1.200001 3.180405 1.195908  -0.017452 0.148181 -0.200002
10  16.552387 -19.884323 3.937825  0.034836 -0.211354 2.017984
11  0.000003 13.479273 -0.000001  1.217028 -0.000000 0.000000
12  -5.992682 -11.298241 -7.402090  0.943904 -0.593351 1.957604
13  -0.000001 13.479279 -0.000001  0.871820 -0.000000 0.000000
14  1.799872 -16.908825 -30.046040  -2.931533 -0.913047 -0.743264
15  0.315440 0.857299 0.755941  2.242604 0.443989 1.706359
16  -0.000000 2.265957 0.000000  -0.058742 -0.041383 -0.142369
17  0.000001 1.457791 0.000001  -0.024981 0.049127 0.131061
18  -0.000001 -0.000000 0.000000  -0.000000 -0.000000 0.000000
19  -0.267270 3.664725 -1.953291  -0.098467 -0.016034 -0.179584
20  -0.000000 1.180354 -0.000001  -0.025411 -0.031339 -0.502262
21  -0.000002 0.817136 0.000002  0.003257 0.005484 -0.317299
22  -0.249423 3.688538 -0.940888  -0.060576 -0.012076 -0.130826
23  0.000000 1.800634 -0.000001  -0.008339 0.036849 -0.570162
24  -0.000004 1.243410 0.000004  0.014736 -0.013805 -0.426136
25  -0.244732 3.701135 0.087733  0.003965 -0.007022 0.009317
26  0.000000 1.766550 -0.000001  -0.001350 0.004693 -0.590754
27  0.000000 1.188988 0.000002  -0.016010 -0.007541 -0.483444
28  -0.277241 3.632232 1.274101  0.049053 -0.001441 0.090574
29  0.000003 1.798505 0.000003  0.033555 0.017568 -0.479891
30  0.000001 1.235419 0.000000  -0.006359 0.005622 -0.262234
31  -1.200000 3.171093 -1.751967  -0.144885 -0.000000 0.000000
32  -1.200000 3.300079 -0.816646  -0.105159 -0.000000 0.000000
33  -1.200003 3.313606 0.085845  0.000000 -0.000000 0.110506
34  0.404037 -0.245037 1.877656  2.263978 0.587082 1.723168
35  -5.228892 -12.487988 -25.471516  -0.724266 0.071937 -2.641321
36  -0.315442 0.857300 0.755944  -0.170933 -2.698646 0.977782
37  -0.000001 2.265958 0.000001  -0.010468 0.071077 0.953748
38  -0.000000 1.457791 0.000000  -0.047781 -0.027470 0.447681
39  0.000001 0.000001 0.000001  0.000000 0.000000 0.000000
40  0.267270 3.664730 -1.953293  -0.075310 0.065487 0.733142
41  -0.000000 1.180354 -0.000000  -0.016097 0.036995 0.773254
42  -0.000004 0.817135 0.000000  0.001670 -0.006156 0.588195
43  0.249422 3.688534 -0.940889  -0.170707 0.051366 0.915709
44  -0.000000 1.800633 0.000000  -0.022758 -0.030160 0.994140
45  0.000000 1.243410 -0.000001  0.019109 0.006525 0.849885
46  0.244726 3.701138 0.087735  -0.212307 0.001292 0.886579
47  0.000000 1.766550 0.000000  -0.003132 -0.003746 1.006934
48  0.000002 1.188986 -0.000001  -0.011595 0.013369 0.899604
49  0.277239 3.632238 1.274102  -0.044364 0.134581 -0.101956
50  -0.000000 1.798504 -0.000001  0.025082 -0.028381 0.844623
51  0.000002 1.235414 0.000001  -0.008298 -0.001783 0.774562
52  1.200001 3.171093 -1.751966  -0.123359 0.076182 0.550529
53  1.200001 3.300079 -0.816645  -0.210885 0.074289 0.782628
54  1.200001 3.313607 0.085843  -0.220267 -0.000000 0.785398
55  -0.404036 -0.245036 1.877658  -0.328939 -2.440184 0.873978
56  1.405603 5.383595 -24.930481  0.000000 -0.000000 0.000000
57  -20.227793 6.476503 -17.770634  0.000000 -0.000000 0.000000
58  -13.807936 -20.992409 -1.805487  1.570796 -3.141592 -0.000000
59  -3.153595 -13.736208 -28.435165  2.214630 -0.045321 0.460768
60  0.000003 3.207669 -0.060376  -1.570796 -0.000000 1.570796
61  0.005490 7.262290 22.213396  -1.570797 -1.570796 0.000000
62  -1.373579 7.201882 12.630883  -1.570797 -1.570796 0.000000
63  0.004226 0.497214 12.083944  -1.570796 -1.570796 0.000000
64  3.578711 0.000003 -0.000001  -0.000000 0.000000 -0.000000
time 5
0  0 0 0  0 0 0
1  0.000000 0.000000 0.000000  1.570796 -0.000000 0.000000
2  16.552387 -19.884323 3.937825  0.011780 -0.186147 1.905098
3  -0.000001 13.479278 0.000000  1.288396 0.000000 -0.000000
4  -0.000001 13.477237 0.000000  -0.447070 -0.937259 0.033032
5  -1.199999 3.180405 1.195909  0.075827 -0.014785 0.192195
6  -6.095582 -11.256786 -7.474936  0.817230 -0.490518 2.033831
7  -0.000001 13.479277 0.000000  1.108292 -0.000000 -0.000000
8  -0.000002 13.477240 0.000001  -0.512124 0.891981 -0.044794
9  1.200000 3.180405 1.195907  -0.017452 0.148181 -0.200002
10  16.552387 -19.884323 3.937825  0.011780 -0.186147 1.905098
11  -0.000000 13.479274 -0.000000  1.288396 0.000000 -0.000000
12  -6.095582 -11.256786 -7.474936  0.817230 -0.490518 2.033831
13  0.000001 13.479275 0.000000  1.108292 -0.000000 -0.000000
14  1.216019 -16.855007 -27.786453  -3.130563 -0.865473 -0.551628
15  0.315440 0.857303 0.755945  2.242604 0.443989 1.706359
16  0.000000 2.265958 -0.000001  -0.058742 -0.041383 -0.142369
17  -0.000001 1.457791 0.000002  -0.024981 0.049127 0.131061
18  -0.000000 0.000001 -0.000001  -0.000000 -0.000000 -0.000000
19  -0.267270 3.664729 -1.953295  -0.098467 -0.016034 -0.179584
20  0.000000 1.180354 0.000001  -0.025411 -0.031338 -0.502262
21  0.000000 0.817134 0.000001  0.003257 0.005484 -0.317299
22  -0.249422 3.688539 -0.940890  -0.060576 -0.012076 -0.130826
23  -0.000002 1.800632 -0.000003  -0.008339 0.036849 -0.570162
24  0.000001 1.243410 0.000001  0.014736 -0.013805 -0.426136
25  -0.244727 3.701139 0.087733  0.003965 -0.007022 0.009317
26  0.000004 1.766549 0.000004  -0.001350 0.004693 -0.590755
27  -0.000001 1.188988 0.000000  -0.016010 -0.007541 -0.483444
28  -0.277244 3.632237 1.274098  0.049053 -0.001441 0.090574
29  0.000001 1.798509 0.000001  0.033555 0.017568 -0.479891
30  0.000002 1.235414 0.000003  -0.006359 0.005622 -0.262234
31  -1.199998 3.171095 -1.751967  -0.144885 -0.000000 -0.000000
32  -1.200001 3.300080 -0.816645  -0.105159 -0.000000 -0.000000
33  -1.199999 3.313608 0.085842  0.000000 -0.000000 0.110506
34  0.404039 -0.245037 1.877656  2.263978 0.587082 1.723168
35  -5.431925 -12.342725 -22.754778  -0.718494 -0.061869 -2.604471
36  -0.315440 0.857301 0.755939  -0.170932 -2.698646 0.977782
37  -0.000002 2.265958 0.000002  -0.010468 0.071077 0.953748
38  -0.000001 1.457793 0.000000  -0.047781 -0.027470 0.447681
39  0.000001 -0.000000 -0.000002  -0.000000 -0.000000 0.000000
40  0.267270 3.664727 -1.953297  -0.075310 0.065487 0.733142
41  0.000001 1.180354 0.000002  -0.016097 0.036995 0.773254
42  -0.000001 0.817135 -0.000001  0.001670 -0.006156 0.588195
43  0.249423 3.688535 -0.940890  -0.170708 0.051366 0.915709
44  0.000000 1.800632 0.000000  -0.022758 -0.030159 0.994140
45  -0.000001 1.243408 -0.000000  0.019109 0.006525 0.849885
46  0.244727 3.701139 0.087732  -0.212307 0.001292 0.886579
47  -0.000000 1.766550 -0.000003  -0.003132 -0.003746 1.006934
48  0.000000 1.188988 0.000001  -0.011595 0.013370 0.899604
49  0.277240 3.632239 1.274098  -0.044364 0.134581 -0.101956
50  0.000001 1.798503 0.000000  0.025082 -0.028381 0.844623
51  0.000001 1.235416 0.000000  -0.008298 -0.001783 0.774562
52  1.200001 3.171093 -1.751967  -0.123359 0.076182 0.550529
53  1.200001 3.300079 -0.816646  -0.210885 0.074290 0.782628
54  1.200000 3.313605 0.085842  -0.220267 -0.000000 0.785398
55  -0.404037 -0.245038 1.877655  -0.328939 -2.440184 0.873978
56  -0.212156 3.366943 -24.250975  0.000000 -0.000000 0.000000
57  -19.005669 6.442986 -18.317915  0.000000 -0.000000 0.000000
58  -13.807936 -20.992409 -1.805487  1.570796 -3.141592 -0.000000
59  -3.651521 -13.736208 -25.842899  2.203563 0.088152 0.497352
60  0.000004 3.207672 -0.060376  -1.570796 -0.000000 1.570796
61  0.005492 7.262293 22.213398  -1.570797 -1.570796 0.000000
62  -1.373578 7.201885 12.630883  -1.570797 -1.570796 0.000000
63  0.004227 0.497216 12.083946  -1.570796 -1.570796 0.000000
64  3.578709 0.000003 0.000000  -0.000000 0.000000 -0.000000
time 6
0  0 0 0  0 0 0
1  0.000000 0.000000 0.000000  1.570796 -0.000000 0.000000
2  16.552387 -19.884323 3.937825  0.001777 -0.164233 1.807733
3  -0.000001 13.479277 0.000001  1.305410 -0.000000 -0.000000
4  -0.000000 13.477239 0.000000  -0.381823 -0.953230 -0.043138
5  -1.200001 3.180406 1.195908  0.075827 -0.014785 0.192195
6  -6.208720 -11.194944 -7.581510  0.741456 -0.388470 2.129863
7  0.000001 13.479277 0.000001  1.248392 -0.000000 -0.000000
8  0.000001 13.477239 -0.000000  -0.653038 0.721708 0.001075
9  1.200001 3.180407 1.195908  -0.017452 0.148181 -0.200002
10  16.552387 -19.884323 3.937825  0.001777 -0.164233 1.807733
11  0.000001 13.479276 0.000000  1.305410 -0.000000 -0.000000
12  -6.208720 -11.194944 -7.581510  0.741456 -0.388470 2.129863
13  0.000001 13.479277 0.000001  1.248392 -0.000000 -0.000000
14  0.536648 -16.797722 -25.944149  3.008459 -0.791118 -0.410212
15  0.315440 0.857298 0.755943  2.242604 0.443989 1.706359
16  0.000000 2.265958 0.000000  -0.058742 -0.041383 -0.142369
17  -0.000001 1.457791 0.000001  -0.024981 0.049127 0.131061
18  -0.000001 -0.000001 -0.000000  0.000000 -0.000000 0.000000
19  -0.267272 3.664724 -1.953293  -0.098467 -0.016034 -0.179584
20  -0.000000 1.180354 0.000002  -0.025411 -0.031338 -0.502262
21  -0.000000 0.817134 0.000002  0.003257 0.005484 -0.317299
22  -0.249423 3.688536 -0.940891  -0.060576 -0.012076 -0.130826
23  -0.000001 1.800631 -0.000000  -0.008339 0.036849 -0.570162
24  -0.000002 1.243408 -0.000002  0.014736 -0.013805 -0.426137
25  -0.244727 3.701135 0.087732  0.003965 -0.007022 0.009317
26  -0.000000 1.766549 -0.000000  -0.001350 0.004693 -0.590754
27  -0.000000 1.188988 -0.000000  -0.016010 -0.007541 -0.483444
28  -0.277241 3.632234 1.274099  0.049053 -0.001441 0.090574
29  0.000002 1.798506 -0.000001  0.033555 0.017568 -0.479891
30  0.000001 1.235417 0.000001  -0.006359 0.005622 -0.262234
31  -1.200003 3.171091 -1.751966  -0.144885 -0.000000 0.000000
32  -1.200003 3.300077 -0.816645  -0.105159 -0.000000 0.000000
33  -1.200002 3.313606 0.085843  0.000000 -0.000000 0.110506
34  0.404037 -0.245037 1.877656  2.263977 0.587082 1.723168
35  -5.685210 -12.236100 -20.434731  -0.732811 -0.183521 -2.567673
36  -0.315440 0.857301 0.755943  -0.170933 -2.698646 0.977782
37  -0.000003 2.265957 0.000000  -0.010468 0.071076 0.953748
38  0.000000 1.457790 0.000001  -0.047781 -0.027470 0.447681
39  0.000000 0.000002 -0.000000  -0.000000 0.000000 -0.000000
40  0.267270 3.664726 -1.953292  -0.075310 0.065487 0.733142
41  0.000000 1.180357 -0.000001  -0.016097 0.036995 0.773254
42  -0.000002 0.817135 -0.000000  0.001670 -0.006156 0.588195
43  0.249423 3.688540 -0.940889  -0.170707 0.051366 0.915709
44  0.000000 1.800634 -0.000001  -0.022758 -0.030159 0.994140
45  -0.000001 1.243410 0.000001  0.019109 0.006525 0.849885
46  0.244728 3.701138 0.087734  -0.212307 0.001292 0.886579
47  -0.000002 1.766548 -0.000001  -0.003132 -0.003746 1.006934
48  -0.000000 1.188989 -0.000001  -0.011595 0.013369 0.899604
49  0.277241 3.632236 1.274100  -0.044364 0.134581 -0.101956
50  0.000000 1.798505 0.000001  0.025082 -0.028381 0.844623
51  0.000001 1.235417 -0.000001  -0.008298 -0.001782 0.774562
52  1.200000 3.171094 -1.751967  -0.123359 0.076182 0.550529
53  1.200001 3.300082 -0.816647  -0.210885 0.074289 0.782629
54  1.200001 3.313607 0.085845  -0.220267 -0.000000 0.785398
55  -0.404037 -0.245036 1.877657  -0.328939 -2.440184 0.873978
56  -2.001411 1.136512 -23.499434  0.000000 -0.000000 0.000000
57  -17.653992 6.405916 -18.923214  0.000000 -0.000000 0.000000
58  -13.807936 -20.992409 -1.805487  1.570796 -3.141592 -0.000000
59  -4.202781 -13.736208 -23.628506  2.213011 0.210273 0.533801
60  0.000003 3.207669 -0.060375  -1.570796 0.000000 1.570796
61  0.005492 7.262287 22.213398  -1.570797 -1.570796 0.000000
62  -1.373579 7.201883 12.630883  -1.570797 -1.570796 0.000000
63  0.004226 0.497217 12.083944  -1.570796 -1.570796 0.000000
64  3.578708 0.000003 -0.000001  -0.000000 0.000000 -0.000000
time 7
0  0 0 0  0 0 0
1  0.000000 0.000000 0.000000  1.570796 -0.000000 0.000000
2  16.552387 -19.884323 3.937825  0.003250 -0.140606 1.726497
3  0.000000 13.479276 0.000001  1.286728 0.000000 -0.000000
4  -0.000001 13.477240 -0.000001  -0.289634 -0.950798 -0.143882
5  -1.200000 3.180405 1.195907  0.075827 -0.014785 0.192195
6  -6.327485 -11.108639 -7.728210  0.693303 -0.294373 2.246041
7  0.000000 13.479279 -0.000001  1.332529 -0.000000 -0.000000
8  0.000001 13.477240 0.000000  -0.729096 0.564450 0.102802
9  1.199999 3.180406 1.195907  -0.017452 0.148181 -0.200002
10  16.552387 -19.884323 3.937825  0.003250 -0.140606 1.726497
11  0.000002 13.479274 0.000000  1.286728 0.000000 -0.000000
12  -6.327485 -11.108639 -7.728210  0.693303 -0.294373 2.246041
13  0.000000 13.479278 -0.000002  1.332529 -0.000000 -0.000000
14  -0.170261 -16.801487 -24.352318  2.897524 -0.730402 -0.306369
15  0.315439 0.857298 0.755945  2.242604 0.443989 1.706359
16  -0.000001 2.265956 0.000001  -0.058742 -0.041383 -0.142369
17  -0.000000 1.457793 0.000001  -0.024981 0.049127 0.131061
18  -0.000001 -0.000001 -0.000001  0.000000 -0.000000 -0.000000
19  -0.267271 3.664725 -1.953292  -0.098467 -0.016034 -0.179584
20  0.000001 1.180354 0.000001  -0.025411 -0.031338 -0.502262
21  0.000000 0.817136 0.000003  0.003257 0.005484 -0.317299
22  -0.249423 3.688535 -0.940889  -0.060576 -0.012076 -0.130826
23  -0.000000 1.800633 0.000000  -0.008339 0.036849 -0.570162
24  -0.000002 1.243411 0.000000  0.014737 -0.013805 -0.426136
25  -0.244726 3.701138 0.087733  0.003965 -0.007022 0.009317
26  0.000001 1.766549 0.000004  -0.001350 0.004693 -0.590755
27  -0.000000 1.188989 0.000000  -0.016010 -0.007541 -0.483444
28  -0.277238 3.632241 1.274100  0.049053 -0.001441 0.090574
29  0.000001 1.798506 -0.000000  0.033555 0.017567 -0.479891
30  -0.000002 1.235417 0.000002  -0.006359 0.005622 -0.262234
31  -1.200000 3.171093 -1.751967  -0.144885 -0.000000 -0.000000
32  -1.200000 3.300077 -0.816648  -0.105159 -0.000000 -0.000000
33  -1.200000 3.313605 0.085843  0.000000 -0.000000 0.110506
34  0.404038 -0.245038 1.877656  2.263978 0.587082 1.723168
35  -6.038721 -12.100000 -18.579033  -0.735071 -0.284156 -2.539868
36  -0.315441 0.857302 0.755942  -0.170933 -2.698646 0.977782
37  -0.000002 2.265957 -0.000001  -0.010469 0.071076 0.953748
38  -0.000000 1.457792 -0.000002  -0.047781 -0.027470 0.447680
39  -0.000001 0.000001 -0.000001  0.000000 -0.000000 0.000000
40  0.267268 3.664726 -1.953295  -0.075310 0.065487 0.733142
41  -0.000004 1.180354 -0.000002  -0.016097 0.036995 0.773254
42  -0.000001 0.817136 -0.000001  0.001670 -0.006156 0.588195
43  0.249422 3.688538 -0.940887  -0.170707 0.051366 0.915709
44  0.000000 1.800631 -0.000002  -0.022757 -0.030159 0.994140
45  -0.000002 1.243412 0.000002  0.019109 0.006525 0.849885
46  0.244726 3.701140 0.087734  -0.212307 0.001292 0.886579
47  -0.000000 1.766550 -0.000001  -0.003132 -0.003746 1.006934
48  0.000000 1.188991 -0.000001  -0.011595 0.013370 0.899604
49  0.277238 3.632243 1.274101  -0.044365 0.134581 -0.101956
50  0.000001 1.798504 0.000001  0.025082 -0.028381 0.844623
51  -0.000002 1.235415 0.000001  -0.008298 -0.001783 0.774562
52  1.199999 3.171094 -1.751966  -0.123359 0.076182 0.550529
53  1.199999 3.300081 -0.816646  -0.210885 0.074289 0.782628
54  1.199999 3.313606 0.085845  -0.220267 -0.000000 0.785398
55  -0.404039 -0.245036 1.877656  -0.328939 -2.440184 0.873978
56  -3.893560 -1.222186 -22.704672  0.000000 -0.000000 0.000000
57  -16.224581 6.366714 -19.563320  0.000000 -0.000000 0.000000
58  -13.807936 -20.992409 -1.805487  1.570796 -3.141592 -0.000000
59  -4.786459 -13.736208 -21.804367  2.211055 0.310915 0.560578
60  0.000002 3.207672 -0.060376  -1.570796 0.000000 1.570796
61  0.005489 7.262294 22.213396  -1.570797 -1.570796 0.000000
62  -1.373583 7.201886 12.630886  -1.570797 -1.570796 0.000000
63  0.004225 0.497216 12.083947  -1.570796 -1.570796 0.000000
64  3.578710 0.000003 -0.000001  -0.000000 0.000000 -0.000000
time 8
0  0 0 0  0 0 0
1  0.000000 0.000000 0.000000  1.570796 -0.000000 0.000000
2  16.552387 -19.884323 3.937825  0.013624 -0.109515 1.661989
3  0.000000 13.479278 -0.000000  1.249285 -0.000000 -0.000000
4  -0.000000 13.477238 0.000000  -0.201962 -0.911013 -0.243899
5  -1.199999 3.180404 1.195912  0.075827 -0.014785 0.192195
6  -6.447270 -10.993792 -7.921436  0.658218 -0.210700 2.379948
7  -0.000000 13.479277 0.000001  1.381219 -0.000000 0.000000
8  0.000001 13.477239 0.000001  -0.750959 0.419649 0.215797
9  1.200000 3.180405 1.195910  -0.017452 0.148181 -0.200002
10  16.552387 -19.884323 3.937825  0.013624 -0.109515 1.661989
11  0.000000 13.479276 -0.000001  1.249285 -0.000000 -0.000000
12  -6.447270 -10.993792 -7.921436  0.658218 -0.210700 2.379948
13  0.000002 13.479275 0.000001  1.381219 -0.000000 0.000000
14  -0.806264 -16.885872 -22.901348  2.792107 -0.708547 -0.216091
15  0.315441 0.857299 0.755946  2.242604 0.443989 1.706359
16  -0.000001 2.265958 0.000001  -0.058742 -0.041383 -0.142369
17  -0.000001 1.457790 -0.000003  -0.024981 0.049127 0.131061
18  -0.000002 -0.000002 0.000001  0.000000 0.000000 0.000000
19  -0.267271 3.664721 -1.953294  -0.098467 -0.016034 -0.179584
20  0.000001 1.180354 -0.000002  -0.025411 -0.031338 -0.502262
21  -0.000000 0.817135 -0.000000  0.003256 0.005484 -0.317299
22  -0.249424 3.688537 -0.940884  -0.060576 -0.012076 -0.130826
23  0.000002 1.800635 -0.000001  -0.008339 0.036849 -0.570162
24  0.000001 1.243409 0.000003  0.014736 -0.013805 -0.426136
25  -0.244728 3.701135 0.087735  0.003965 -0.007022 0.009317
26  0.000002 1.766551 0.000002  -0.001350 0.004693 -0.590755
27  0.000001 1.188990 -0.000002  -0.016010 -0.007541 -0.483444
28  -0.277240 3.632233 1.274101  0.049053 -0.001441 0.090574
29  0.000000 1.798506 -0.000001  0.033555 0.017567 -0.479891
30  -0.000001 1.235413 -0.000002  -0.006359 0.005622 -0.262234
31  -1.200001 3.171091 -1.751966  -0.144885 0.000000 0.000000
32  -1.200001 3.300079 -0.816644  -0.105159 0.000000 0.000000
33  -1.200000 3.313605 0.085845  0.000000 0.000000 0.110506
34  0.404037 -0.245038 1.877657  2.263978 0.587082 1.723168
35  -6.537367 -11.898632 -17.230766  -0.698595 -0.358750 -2.530633
36  -0.315441 0.857301 0.755943  -0.170932 -2.698646 0.977782
37  -0.000001 2.265958 0.000001  -0.010468 0.071077 0.953748
38  -0.000000 1.457793 0.000000  -0.047781 -0.027470 0.447681
39  -0.000000 -0.000001 0.000000  -0.000000 -0.000000 0.000000
40  0.267269 3.664724 -1.953293  -0.075310 0.065487 0.733142
41  0.000000 1.180357 -0.000001  -0.016097 0.036995 0.773254
42  -0.000001 0.817135 -0.000000  0.001670 -0.006156 0.588195
43  0.249422 3.688535 -0.940887  -0.170707 0.051366 0.915709
44  0.000000 1.800633 0.000001  -0.022758 -0.030159 0.994140
45  0.000003 1.243411 0.000000  0.019109 0.006525 0.849885
46  0.244727 3.701137 0.087732  -0.212307 0.001292 0.886579
47  -0.000002 1.766549 0.000001  -0.003132 -0.003746 1.006934
48  0.000001 1.188990 -0.000000  -0.011595 0.013370 0.899604
49  0.277238 3.632236 1.274101  -0.044364 0.134581 -0.101956
50  0.000001 1.798507 0.000001  0.025082 -0.028381 0.844623
51  -0.000000 1.235414 0.000001  -0.008298 -0.001783 0.774562
52  1.199999 3.171093 -1.751966  -0.123359 0.076182 0.550529
53  1.199999 3.300080 -0.816646  -0.210885 0.074290 0.782628
54  1.199999 3.313605 0.085844  -0.220267 -0.000000 0.785398
55  -0.404038 -0.245036 1.877656  -0.328939 -2.440184 0.873978
56  -5.820009 -3.623643 -21.895504  0.000000 -0.000000 0.000000
57  -14.769258 6.326802 -20.215033  0.000000 -0.000000 0.000000
58  -13.807936 -20.992409 -1.805487  1.570796 -3.141592 -0.000000
59  -5.381646 -13.736208 -20.382870  2.170934 0.383983 0.567674
60  0.000003 3.207673 -0.060375  -1.570796 0.000000 1.570796
61  0.005491 7.262293 22.213398  -1.570797 -1.570796 0.000000
62  -1.373582 7.201888 12.630886  -1.570797 -1.570796 0.000000
63  0.004226 0.497217 12.083949  -1.570796 -1.570796 0.000000
64  3.578713 0.000003 -0.000007  -0.000000 0.000000 -0.000000
time 9
0  0 0 0  0 0 0
1  0.000000 0.000000 0.000000  1.570796 -0.000000 0.000000
2  16.552387 -19.884323 3.937825  0.033858 -0.075423 1.614527
3  0.000002 13.479276 -0.000001  1.194349 -0.000000 -0.000000
4  0.000001 13.477240 -0.000000  -0.148208 -0.846493 -0.317023
5  -1.199998 3.180405 1.195908  0.075827 -0.014785 0.192195
6  -6.563466 -10.846327 -8.167587  0.632353 -0.137705 2.524885
7  -0.000000 13.479277 -0.000001  1.403267 -0.000000 -0.000000
8  -0.000000 13.477238 0.000001  -0.742578 0.281062 0.314634
9  1.200000 3.180404 1.195908  -0.017452 0.148181 -0.200002
10  16.552387 -19.884323 3.937825  0.033858 -0.075423 1.614527
11  0.000002 13.479274 -0.000001  1.194349 -0.000000 -0.000000
12  -6.563466 -10.846327 -8.167587  0.632353 -0.137705 2.524885
13  -0.000001 13.479277 -0.000000  1.403267 -0.000000 -0.000000
14  -1.385290 -17.050074 -21.661037  2.684509 -0.716544 -0.138780
15  0.315443 0.857299 0.755944  2.242604 0.443989 1.706359
16  -0.000001 2.265959 -0.000002  -0.058742 -0.041383 -0.142369
17  0.000001 1.457793 -0.000002  -0.024981 0.049127 0.131061
18  -0.000000 -0.000000 0.000001  0.000000 -0.000000 -0.000000
19  -0.267270 3.664727 -1.953289  -0.098467 -0.016034 -0.179584
20  0.000000 1.180355 -0.000000  -0.025411 -0.031338 -0.502262
21  -0.000001 0.817136 0.000000  0.003257 0.005484 -0.317299
22  -0.249423 3.688537 -0.940887  -0.060576 -0.012076 -0.130826
23  -0.000001 1.800633 0.000001  -0.008339 0.036849 -0.570162
24  0.000001 1.243409 -0.000000  0.014736 -0.013805 -0.426136
25  -0.244727 3.701137 0.087736  0.003965 -0.007022 0.009317
26  0.000000 1.766551 -0.000001  -0.001350 0.004693 -0.590754
27  -0.000002 1.188993 -0.000001  -0.016010 -0.007541 -0.483444
28  -0.277238 3.632234 1.274100  0.049053 -0.001441 0.090574
29  -0.000002 1.798506 -0.000000  0.033555 0.017568 -0.479891
30  0.000001 1.235416 0.000002  -0.006359 0.005622 -0.262234
31  -1.200000 3.171092 -1.751964  -0.144885 -0.000000 -0.000000
32  -1.200001 3.300077 -0.816644  -0.105159 -0.000000 -0.000000
33  -1.200001 3.313605 0.085845  0.000000 -0.000000 0.110506
34  0.404038 -0.245039 1.877656  2.263978 0.587082 1.723168
35  -7.116698 -11.655679 -16.376621  -0.630056 -0.410278 -2.549432
36  -0.315444 0.857297 0.755944  -0.170932 -2.698646 0.977782
37  0.000000 2.265959 0.000001  -0.010468 0.071076 0.953748
38  -0.000001 1.457795 0.000000  -0.047781 -0.027470 0.447681
39  -0.000001 -0.000000 -0.000001  -0.000000 -0.000000 0.000000
40  0.267270 3.664721 -1.953293  -0.075310 0.065487 0.733142
41  0.000002 1.180355 -0.000002  -0.016097 0.036995 0.773254
42  -0.000001 0.817136 -0.000001  0.001670 -0.006156 0.588195
43  0.249420 3.688540 -0.940889  -0.170708 0.051366 0.915709
44  -0.000001 1.800632 0.000000  -0.022758 -0.030159 0.994140
45  -0.000003 1.243410 0.000000  0.019109 0.006525 0.849885
46  0.244726 3.701136 0.087731  -0.212307 0.001292 0.886579
47  0.000002 1.766551 -0.000002  -0.003132 -0.003746 1.006934
48  -0.000001 1.188990 0.000001  -0.011595 0.013370 0.899604
49  0.277237 3.632234 1.274099  -0.044365 0.134581 -0.101956
50  0.000000 1.798506 -0.000001  0.025082 -0.028381 0.844623
51  0.000001 1.235416 -0.000001  -0.008298 -0.001783 0.774562
52  1.199999 3.171093 -1.751968  -0.123359 0.076182 0.550529
53  1.199998 3.300078 -0.816646  -0.210885 0.074289 0.782628
54  1.199998 3.313606 0.085843  -0.220267 -0.000000 0.785398
55  -0.404039 -0.245037 1.877655  -0.328939 -2.440184 0.873978
56  -7.712158 -5.982342 -21.100744  0.000000 -0.000000 0.000000
57  -13.339849 6.287600 -20.855139  0.000000 -0.000000 0.000000
58  -13.807936 -20.992409 -1.805487  1.570796 -3.141592 -0.000000
59  -5.967429 -13.736208 -19.376404  2.099271 0.432624 0.546129
60  0.000003 3.207670 -0.060375  -1.570796 0.000000 1.570796
61  0.005489 7.262295 22.213398  -1.570797 -1.570796 0.000000
62  -1.373580 7.201884 12.630888  -1.570797 -1.570796 0.000000
63  0.004226 0.497214 12.083948  -1.570796 -1.570796 0.000000
64  3.578711 0.000003 -0.000001  -0.000000 0.000000 -0.000000
time 10
0  0 0 0  0 0 0
1  0.000000 0.000000 0.000000  1.570796 -0.000000 0.000000
2  16.552387 -19.884323 3.937825  0.069166 -0.050062 1.580418
3  -0.000001 13.479277 0.000000  1.113394 -0.000000 -0.000000
4  0.000002 13.477239 -0.000000  -0.141625 -0.774055 -0.357151
5  -1.199999 3.180407 1.195906  0.075827 -0.014785 0.192195
6  -6.671465 -10.662163 -8.473063  0.614199 -0.077345 2.669760
7  0.000001 13.479277 -0.000000  1.402657 0.000000 0.000000
8  0.000000 13.477240 0.000000  -0.724831 0.144589 0.376869
9  1.199999 3.180404 1.195908  -0.017452 0.148181 -0.200002
10  16.552387 -19.884323 3.937825  0.069166 -0.050062 1.580418
11  0.000001 13.479275 -0.000000  1.113394 -0.000000 -0.000000
12  -6.671465 -10.662163 -8.473063  0.614199 -0.077345 2.669760
13  -0.000002 13.479278 0.000001  1.402657 0.000000 0.000000
14  -1.988293 -17.325893 -20.733534  2.577991 -0.740368 -0.090500
15  0.315442 0.857302 0.755944  2.242604 0.443989 1.706359
16  -0.000001 2.265958 0.000002  -0.058742 -0.041383 -0.142369
17  -0.000001 1.457792 -0.000000  -0.024981 0.049127 0.131061
18  0.000001 0.000000 0.000000  -0.000000 -0.000000 0.000000
19  -0.267266 3.664729 -1.953291  -0.098467 -0.016034 -0.179584
20  -0.000001 1.180355 0.000001  -0.025411 -0.031339 -0.502262
21  -0.000001 0.817133 0.000000  0.003257 0.005484 -0.317299
22  -0.249423 3.688537 -0.940890  -0.060576 -0.012076 -0.130826
23  0.000000 1.800634 -0.000002  -0.008339 0.036849 -0.570162
24  -0.000000 1.243410 -0.000001  0.014737 -0.013805 -0.426136
25  -0.244726 3.701137 0.087732  0.003964 -0.007022 0.009317
26  -0.000000 1.766550 -0.000000  -0.001350 0.004693 -0.590754
27  0.000000 1.188990 0.000003  -0.016010 -0.007541 -0.483444
28  -0.277237 3.632236 1.274100  0.049053 -0.001441 0.090574
29  0.000002 1.798506 -0.000001  0.033555 0.017567 -0.479891
30  0.000001 1.235418 0.000000  -0.006359 0.005622 -0.262234
31  -1.199999 3.171094 -1.751966  -0.144885 -0.000000 0.000000
32  -1.199999 3.300079 -0.816645  -0.105159 -0.000000 0.000000
33  -1.199999 3.313606 0.085843  0.000000 -0.000000 0.110506
34  0.404037 -0.245038 1.877656  2.263978 0.587082 1.723168
35  -7.664242 -11.392632 -15.995010  -0.545700 -0.441613 -2.606981
36  -0.315442 0.857299 0.755944  -0.170932 -2.698646 0.977782
37  -0.000003 2.265959 0.000001  -0.010468 0.071076 0.953748
38  0.000000 1.457790 -0.000002  -0.047781 -0.027470 0.447681
39  -0.000000 -0.000000 0.000000  0.000000 0.000000 0.000000
40  0.267270 3.664726 -1.953293  -0.075310 0.065487 0.733142
41  0.000001 1.180355 -0.000001  -0.016097 0.036995 0.773254
42  -0.000001 0.817136 0.000000  0.001670 -0.006156 0.588195
43  0.249421 3.688536 -0.940886  -0.170707 0.051366 0.915709
44  0.000001 1.800632 0.000000  -0.022758 -0.030159 0.994140
45  -0.000001 1.243410 0.000002  0.019109 0.006525 0.849885
46  0.244725 3.701139 0.087734  -0.212307 0.001292 0.886579
47  0.000002 1.766551 0.000001  -0.003132 -0.003746 1.006934
48  0.000000 1.188990 -0.000000  -0.011595 0.013370 0.899604
49  0.277239 3.632235 1.274102  -0.044364 0.134581 -0.101956
50  0.000000 1.798505 0.000000  0.025082 -0.028381 0.844623
51  -0.000002 1.235416 0.000001  -0.008298 -0.001783 0.774562
52  1.199999 3.171093 -1.751966  -0.123359 0.076182 0.550529
53  1.200000 3.300078 -0.816645  -0.210885 0.074290 0.782628
54  1.200000 3.313607 0.085845  -0.220267 -0.000000 0.785398
55  -0.404038 -0.245038 1.877657  -0.328939 -2.440184 0.873978
56  -9.501413 -8.212772 -20.349201  0.000000 -0.000000 0.000000
57  -11.988169 6.250530 -21.460438  0.000000 -0.000000 0.000000
58  -13.807936 -20.992409 -1.805487  1.570796 -3.141592 -0.000000
59  -6.522892 -13.736208 -18.797348  2.012556 0.460288 0.485992
60  0.000003 3.207675 -0.060377  -1.570796 0.000000 1.570796
61  0.005491 7.262296 22.213398  -1.570797 -1.570796 0.000000
62  -1.373578 7.201888 12.630882  -1.570797 -1.570796 0.000000
63  0.004226 0.497218 12.083948  -1.570796 -1.570796 0.000000
64  3.578711 0.000004 0.000000  -0.000000 0.000000 0.000000
time 11
0  0 0 0  0 0 0
1  0.000000 0.000000 0.000000  1.570796 -0.000000 0.000000
2  16.552387 -19.884323 3.937825  0.122564 -0.026749 1.556957
3  -0.000003 13.479278 -0.000000  1.000882 -0.000000 -0.000000
4  0.000002 13.477239 -0.000001  -0.183653 -0.695843 -0.343066
5  -1.199998 3.180405 1.195907  0.075827 -0.014785 0.192195
6  -6.766657 -10.437225 -8.844263  0.604049 -0.027110 2.802975
7  -0.000000 13.479274 -0.000001  1.382752 0.000000 0.000000
8  -0.000001 13.477239 0.000001  -0.700382 0.030664 0.383323
9  1.200000 3.180404 1.195908  -0.017452 0.148181 -0.200002
10  16.552387 -19.884323 3.937825  0.122564 -0.026749 1.556957
11  -0.000003 13.479276 -0.000001  1.000882 -0.000000 -0.000000
12  -6.766657 -10.437225 -8.844263  0.604049 -0.027110 2.802975
13  -0.000000 13.479274 -0.000001  1.382752 0.000000 0.000000
14  -2.658588 -17.731478 -19.987530  2.486309 -0.791953 -0.091014
15  0.315445 0.857302 0.755944  2.242604 0.443989 1.706359
16  0.000001 2.265960 -0.000001  -0.058742 -0.041383 -0.142369
17  0.000000 1.457791 -0.000001  -0.024981 0.049127 0.131061
18  0.000001 0.000001 0.000001  -0.000000 0.000000 0.000000
19  -0.267269 3.664727 -1.953294  -0.098467 -0.016034 -0.179584
20  -0.000002 1.180354 0.000000  -0.025411 -0.031338 -0.502262
21  -0.000001 0.817135 0.000001  0.003257 0.005484 -0.317299
22  -0.249420 3.688540 -0.940887  -0.060576 -0.012076 -0.130826
23  0.000000 1.800631 -0.000002  -0.008339 0.036849 -0.570162
24  0.000000 1.243410 0.000000  0.014736 -0.013805 -0.426136
25  -0.244727 3.701138 0.087732  0.003965 -0.007022 0.009317
26  0.000001 1.766551 0.000000  -0.001350 0.004693 -0.590754
27  -0.000002 1.188989 0.000000  -0.016010 -0.007541 -0.483444
28  -0.277241 3.632235 1.274102  0.049053 -0.001441 0.090574
29  0.000000 1.798506 0.000001  0.033555 0.017567 -0.479891
30  0.000001 1.235417 0.000001  -0.006359 0.005622 -0.262234
31  -1.200000 3.171094 -1.751964  -0.144885 0.000000 0.000000
32  -1.199999 3.300081 -0.816644  -0.105159 0.000000 0.000000
33  -1.200000 3.313606 0.085844  0.000000 0.000000 0.110506
34  0.404039 -0.245036 1.877658  2.263978 0.587082 1.723168
35  -8.131818 -11.130873 -15.944092  -0.453542 -0.434178 -2.710211
36  -0.315440 0.857299 0.755945  -0.170933 -2.698646 0.977782
37  0.000002 2.265957 -0.000001  -0.010469 0.071076 0.953748
38  -0.000000 1.457792 0.000001  -0.047781 -0.027470 0.447680
39  0.000000 0.000000 -0.000000  -0.000000 -0.000000 0.000000
40  0.267270 3.664725 -1.953294  -0.075310 0.065487 0.733142
41  0.000000 1.180356 0.000002  -0.016097 0.036995 0.773254
42  0.000001 0.817134 -0.000000  0.001670 -0.006156 0.588195
43  0.249422 3.688538 -0.940890  -0.170708 0.051366 0.915709
44  0.000000 1.800633 -0.000000  -0.022757 -0.030159 0.994140
45  0.000002 1.243410 -0.000002  0.019109 0.006525 0.849885
46  0.244727 3.701139 0.087730  -0.212307 0.001292 0.886579
47  0.000001 1.766550 0.000000  -0.003132 -0.003746 1.006934
48  0.000002 1.188990 -0.000000  -0.011595 0.013369 0.899604
49  0.277238 3.632236 1.274100  -0.044364 0.134581 -0.101956
50  0.000001 1.798506 0.000002  0.025082 -0.028381 0.844623
51  0.000001 1.235415 -0.000002  -0.008298 -0.001783 0.774562
52  1.200001 3.171093 -1.751966  -0.123359 0.076182 0.550529
53  1.200001 3.300080 -0.816646  -0.210885 0.074289 0.782628
54  1.200000 3.313607 0.085844  -0.220267 -0.000000 0.785398
55  -0.404037 -0.245037 1.877656  -0.328939 -2.440184 0.873978
56  -11.119173 -10.229424 -19.669693  0.000000 -0.000000 0.000000
57  -10.766046 6.217013 -22.007719  0.000000 -0.000000 0.000000
58  -13.807936 -20.992409 -1.805487  1.570796 -3.141592 -0.000000
59  -7.027124 -13.736208 -18.520914  1.920184 0.448741 0.381286
60  0.000004 3.207672 -0.060377  -1.570796 -0.000000 1.570796
61  0.005493 7.262291 22.213392  -1.570797 -1.570796 0.000000
62  -1.373579 7.201886 12.630881  -1.570797 -1.570796 0.000000
63  0.004228 0.497214 12.083941  -1.570796 -1.570796 0.000000
64  3.578710 0.000004 -0.000000  -0.000000 0.000000 0.000000
time 12
0  0 0 0  0 0 0
1  0.000000 0.000000 0.000000  1.570796 -0.000000 0.000000
2  16.552387 -19.884323 3.937825  0.190672 0.010265 1.546324
3  -0.000000 13.479277 0.000000  0.859460 -0.000000 -0.000000
4  -0.000001 13.477239 0.000000  -0.241901 -0.612356 -0.275688
5  -1.200004 3.180403 1.195910  0.075827 -0.014785 0.192195
6  -6.830891 -10.107363 -9.540295  0.621350 0.015862 2.915864
7  -0.000001 13.479279 0.000000  1.313314 0.000000 0.000000
8  0.000000 13.477240 -0.000001  -0.643822 -0.041391 0.337500
9  1.200002 3.180405 1.195908  -0.017452 0.148181 -0.200002
10  16.552387 -19.884323 3.937825  0.190672 0.010265 1.546324
11  -0.000000 13.479274 -0.000000  0.859460 -0.000000 -0.000000
12  -6.830891 -10.107363 -9.540295  0.621350 0.015862 2.915864
13  -0.000002 13.479278 -0.000000  1.313314 0.000000 0.000000
14  -3.377087 -18.182751 -19.250227  2.420537 -0.883803 -0.133821
15  0.315441 0.857300 0.755944  2.242604 0.443989 1.706359
16  0.000001 2.265958 0.000001  -0.058742 -0.041383 -0.142369
17  0.000000 1.457792 -0.000000  -0.024981 0.049127 0.131061
18  0.000000 -0.000001 -0.000000  -0.000000 0.000000 0.000000
19  -0.267271 3.664722 -1.953294  -0.098467 -0.016034 -0.179584
20  0.000002 1.180356 -0.000000  -0.025411 -0.031338 -0.502262
21  -0.000000 0.817134 0.000001  0.003257 0.005484 -0.317299
22  -0.249423 3.688538 -0.940888  -0.060576 -0.012076 -0.130826
23  -0.000000 1.800632 -0.000000  -0.008339 0.036849 -0.570162
24  0.000000 1.243411 -0.000001  0.014736 -0.013805 -0.426136
25  -0.244724 3.701138 0.087733  0.003964 -0.007022 0.009317
26  -0.000001 1.766551 -0.000002  -0.001350 0.004693 -0.590755
27  0.000001 1.188990 -0.000001  -0.016010 -0.007541 -0.483444
28  -0.277240 3.632235 1.274100  0.049053 -0.001441 0.090574
29  -0.000001 1.798505 0.000000  0.033555 0.017567 -0.479891
30  0.000001 1.235416 0.000000  -0.006359 0.005622 -0.262234
31  -1.200000 3.171093 -1.751966  -0.144885 0.000000 0.000000
32  -1.200000 3.300080 -0.816645  -0.105159 0.000000 0.000000
33  -1.200002 3.313605 0.085845  0.000000 -0.000000 0.110506
34  0.404039 -0.245037 1.877655  2.263978 0.587082 1.723168
35  -8.526371 -10.898190 -16.041855  -0.364965 -0.373068 -2.836785
36  -0.315440 0.857298 0.755945  -0.170933 -2.698646 0.977782
37  0.000001 2.265958 -0.000000  -0.010468 0.071077 0.953748
38  -0.000000 1.457790 -0.000001  -0.047781 -0.027470 0.447680
39  0.000000 -0.000000 0.000000  -0.000000 0.000000 -0.000000
40  0.267270 3.664726 -1.953292  -0.075310 0.065487 0.733142
41  0.000001 1.180357 -0.000001  -0.016097 0.036995 0.773254
42  -0.000000 0.817135 0.000001  0.001670 -0.006156 0.588195
43  0.249423 3.688539 -0.940889  -0.170707 0.051366 0.915709
44  -0.000001 1.800633 -0.000001  -0.022758 -0.030160 0.994140
45  0.000002 1.243411 -0.000001  0.019109 0.006525 0.849885
46  0.244727 3.701138 0.087733  -0.212307 0.001292 0.886579
47  0.000000 1.766551 0.000000  -0.003132 -0.003746 1.006934
48  -0.000000 1.188989 0.000000  -0.011595 0.013370 0.899604
49  0.277239 3.632236 1.274100  -0.044364 0.134581 -0.101956
50  -0.000000 1.798505 0.000001  0.025082 -0.028381 0.844623
51  0.000001 1.235418 0.000000  -0.008298 -0.001783 0.774562
52  1.200000 3.171094 -1.751966  -0.123359 0.076182 0.550529
53  1.200002 3.300079 -0.816643  -0.210885 0.074289 0.782628
54  1.200000 3.313605 0.085844  -0.220267 -0.000000 0.785398
55  -0.404038 -0.245038 1.877656  -0.328939 -2.440184 0.873978
56  -12.496843 -11.946784 -19.091030  0.000000 -0.000000 0.000000
57  -9.725296 6.188471 -22.473780  0.000000 -0.000000 0.000000
58  -13.807936 -20.992409 -1.805487  1.570796 -3.141592 -0.000000
59  -7.459212 -13.736208 -18.377438  1.834572 0.383636 0.254889
60  0.000003 3.207672 -0.060376  -1.570796 -0.000000 1.570796
61  0.005492 7.262292 22.213394  -1.570797 -1.570796 0.000000
62  -1.373578 7.201883 12.630882  -1.570797 -1.570796 0.000000
63  0.004226 0.497216 12.083947  -1.570796 -1.570796 0.000000
64  3.578712 0.000003 -0.000004  -0.000000 0.000000 -0.000000
time 13
0  0 0 0  0 0 0
1  0.000000 0.000000 0.000000  1.570796 -0.000000 0.000000
2  16.552387 -19.884323 3.937825  0.269937 0.056375 1.547062
3  0.000003 13.479277 -0.000000  0.693931 -0.000000 -0.000000
4  0.000002 13.477240 0.000001  -0.282399 -0.531275 -0.186052
5  -1.200001 3.180405 1.195909  0.075827 -0.014785 0.192195
6  -6.855339 -9.679790 -10.609595  0.674390 0.049535 3.002631
7  0.000000 13.479278 -0.000001  1.181507 0.000000 0.000000
8  0.000001 13.477240 0.000003  -0.549426 -0.065749 0.259428
9  1.200000 3.180404 1.195908  -0.017452 0.148181 -0.200002
10  16.552387 -19.884323 3.937825  0.269937 0.056375 1.547062
11  0.000003 13.479274 -0.000001  0.693931 -0.000000 -0.000000
12  -6.855339 -9.679790 -10.609595  0.674390 0.049535 3.002631
13  -0.000000 13.479275 -0.000001  1.181507 0.000000 0.000000
14  -4.099701 -18.579008 -18.567568  2.390270 -1.002022 -0.205614
15  0.315439 0.857301 0.755942  2.242604 0.443989 1.706359
16  0.000001 2.265957 -0.000001  -0.058742 -0.041383 -0.142369
17  0.000001 1.457794 -0.000000  -0.024981 0.049127 0.131061
18  -0.000002 0.000000 0.000000  0.000000 -0.000000 0.000000
19  -0.267274 3.664726 -1.953292  -0.098467 -0.016034 -0.179584
20  -0.000001 1.180356 -0.000003  -0.025411 -0.031338 -0.502262
21  0.000000 0.817134 0.000000  0.003257 0.005484 -0.317299
22  -0.249426 3.688540 -0.940887  -0.060576 -0.012076 -0.130826
23  0.000001 1.800632 0.000000  -0.008339 0.036849 -0.570162
24  0.000000 1.243410 0.000000  0.014736 -0.013805 -0.426137
25  -0.244732 3.701139 0.087734  0.003965 -0.007022 0.009317
26  0.000000 1.766551 -0.000000  -0.001350 0.004693 -0.590755
27  0.000000 1.188989 -0.000002  -0.016010 -0.007541 -0.483444
28  -0.277242 3.632237 1.274100  0.049053 -0.001441 0.090574
29  -0.000001 1.798506 -0.000002  0.033555 0.017567 -0.479891
30  0.000002 1.235418 -0.000000  -0.006359 0.005622 -0.262234
31  -1.200001 3.171093 -1.751966  -0.144885 -0.000000 0.000000
32  -1.200003 3.300081 -0.816644  -0.105159 -0.000000 0.000000
33  -1.200003 3.313607 0.085845  0.000000 -0.000000 0.110506
34  0.404035 -0.245037 1.877656  2.263978 0.587082 1.723168
35  -8.835534 -10.713281 -16.206249  -0.297507 -0.272070 -2.954535
36  -0.315442 0.857300 0.755944  -0.170933 -2.698646 0.977782
37  -0.000001 2.265960 0.000000  -0.010468 0.071076 0.953748
38  0.000000 1.457792 -0.000000  -0.047781 -0.027470 0.447681
39  -0.000000 -0.000001 -0.000001  -0.000000 -0.000000 -0.000000
40  0.267269 3.664724 -1.953296  -0.075310 0.065487 0.733142
41  -0.000001 1.180355 0.000002  -0.016097 0.036995 0.773254
42  -0.000002 0.817135 0.000003  0.001670 -0.006156 0.588195
43  0.249421 3.688537 -0.940890  -0.170707 0.051366 0.915709
44  -0.000001 1.800633 -0.000000  -0.022758 -0.030160 0.994140
45  -0.000002 1.243409 0.000002  0.019109 0.006525 0.849885
46  0.244727 3.701138 0.087733  -0.212307 0.001292 0.886579
47  -0.000001 1.766550 0.000000  -0.003132 -0.003746 1.006934
48  -0.000002 1.188990 -0.000001  -0.011595 0.013369 0.899604
49  0.277239 3.632235 1.274100  -0.044364 0.134581 -0.101956
50  0.000001 1.798504 -0.000000  0.025082 -0.028381 0.844623
51  -0.000002 1.235415 -0.000000  -0.008298 -0.001783 0.774562
52  1.200000 3.171092 -1.751968  -0.123359 0.076182 0.550529
53  1.200000 3.300079 -0.816645  -0.210885 0.074289 0.782628
54  1.200000 3.313605 0.085842  -0.220267 -0.000000 0.785398
55  -0.404038 -0.245038 1.877656  -0.328939 -2.440184 0.873978
56  -13.565821 -13.279346 -18.642027  0.000000 -0.000000 0.000000
57  -8.917742 6.166324 -22.835411  0.000000 -0.000000 0.000000
58  -13.807936 -20.992409 -1.805487  1.570796 -3.141592 -0.000000
59  -7.798244 -13.736208 -18.311970  1.772258 0.279606 0.138237
60  0.000003 3.207673 -0.060375  -1.570796 0.000000 1.570796
61  0.005491 7.262293 22.213392  -1.570797 -1.570796 0.000000
62  -1.373580 7.201886 12.630885  -1.570797 -1.570796 0.000000
63  0.004227 0.497216 12.083944  -1.570796 -1.570796 0.000000
64  3.578712 0.000003 -0.000000  -0.000000 0.000000 0.000000
time 14
0  0 0 0  0 0 0
1  0.000000 0.000000 0.000000  1.570796 -0.000000 0.000000
2  16.552387 -19.884323 3.937825  0.353038 0.111640 1.558177
3  0.000002 13.479277 -0.000001  0.521844 -0.000000 -0.000000
4  -0.000001 13.477239 0.000000  -0.290541 -0.464523 -0.097824
5  -1.200000 3.180402 1.195908  0.075827 -0.014785 0.192195
6  -6.849384 -9.257462 -11.742555  0.746438 0.072704 3.059438
7  -0.000000 13.479278 -0.000001  1.019207 0.000000 0.000000
8  -0.000001 13.477239 -0.000001  -0.432930 -0.038986 0.182314
9  1.200001 3.180404 1.195909  -0.017452 0.148181 -0.200002
10  16.552387 -19.884323 3.937825  0.353038 0.111640 1.558177
11  0.000002 13.479274 -0.000000  0.521844 -0.000000 -0.000000
12  -6.849384 -9.257462 -11.742555  0.746438 0.072704 3.059438
13  -0.000002 13.479278 -0.000001  1.019207 0.000000 0.000000
14  -4.712666 -18.848068 -17.944288  2.390931 -1.128183 -0.283230
15  0.315440 0.857298 0.755946  2.242604 0.443989 1.706359
16  0.000000 2.265955 0.000001  -0.058742 -0.041383 -0.142369
17  -0.000001 1.457795 -0.000001  -0.024981 0.049127 0.131061
18  -0.000000 -0.000003 0.000000  -0.000000 0.000000 0.000000
19  -0.267270 3.664723 -1.953290  -0.098467 -0.016034 -0.179584
20  0.000003 1.180356 -0.000004  -0.025411 -0.031338 -0.502262
21  0.000000 0.817134 0.000002  0.003257 0.005484 -0.317299
22  -0.249422 3.688535 -0.940889  -0.060576 -0.012076 -0.130826
23  -0.000002 1.800633 0.000002  -0.008339 0.036849 -0.570162
24  0.000000 1.243409 -0.000002  0.014736 -0.013805 -0.426136
25  -0.244726 3.701135 0.087734  0.003964 -0.007022 0.009317
26  0.000000 1.766550 0.000000  -0.001350 0.004693 -0.590754
27  0.000002 1.188989 0.000000  -0.016010 -0.007541 -0.483444
28  -0.277238 3.632233 1.274101  0.049053 -0.001441 0.090574
29  0.000001 1.798506 0.000004  0.033555 0.017568 -0.479891
30  0.000000 1.235416 -0.000001  -0.006359 0.005622 -0.262234
31  -1.199999 3.171091 -1.751966  -0.144885 0.000000 0.000000
32  -1.200001 3.300076 -0.816644  -0.105159 0.000000 0.000000
33  -1.200000 3.313603 0.085845  0.000000 -0.000000 0.110506
34  0.404039 -0.245039 1.877656  2.263978 0.587082 1.723168
35  -9.067057 -10.572669 -16.385241  -0.249019 -0.155133 -3.041870
36  -0.315441 0.857300 0.755944  -0.170932 -2.698646 0.977782
37  0.000001 2.265957 0.000000  -0.010468 0.071077 0.953748
38  -0.000001 1.457789 -0.000000  -0.047781 -0.027470 0.447681
39  -0.000000 -0.000001 -0.000001  -0.000000 -0.000000 0.000000
40  0.267270 3.664726 -1.953295  -0.075310 0.065487 0.733142
41  -0.000001 1.180355 -0.000001  -0.016097 0.036995 0.773254
42  0.000000 0.817134 -0.000001  0.001670 -0.006156 0.588195
43  0.249422 3.688537 -0.940890  -0.170707 0.051366 0.915709
44  0.000001 1.800633 -0.000000  -0.022758 -0.030159 0.994140
45  -0.000001 1.243411 -0.000001  0.019109 0.006525 0.849885
46  0.244724 3.701136 0.087729  -0.212307 0.001292 0.886579
47  -0.000003 1.766549 0.000001  -0.003132 -0.003746 1.006934
48  0.000000 1.188990 -0.000001  -0.011595 0.013369 0.899604
49  0.277239 3.632234 1.274100  -0.044364 0.134581 -0.101956
50  -0.000001 1.798506 0.000003  0.025082 -0.028381 0.844623
51  0.000000 1.235415 -0.000001  -0.008298 -0.001783 0.774562
52  1.200001 3.171093 -1.751968  -0.123359 0.076182 0.550529
53  1.200000 3.300078 -0.816646  -0.210885 0.074289 0.782629
54  1.200000 3.313606 0.085842  -0.220267 -0.000000 0.785398
55  -0.404037 -0.245038 1.877654  -0.328939 -2.440184 0.873978
56  -14.257513 -14.141582 -18.351496  0.000000 -0.000000 0.000000
57  -8.395212 6.151993 -23.069408  0.000000 -0.000000 0.000000
58  -13.807936 -20.992409 -1.805487  1.570796 -3.141592 -0.000000
59  -8.023305 -13.736208 -18.269575  1.729544 0.160520 0.051858
60  0.000004 3.207673 -0.060379  -1.570796 0.000000 1.570796
61  0.005491 7.262294 22.213392  -1.570797 -1.570796 0.000000
62  -1.373578 7.201884 12.630881  -1.570797 -1.570796 0.000000
63  0.004228 0.497215 12.083941  -1.570796 -1.570796 0.000000
64  3.578713 0.000004 -0.000001  -0.000000 0.000000 -0.000000
time 15
0  0 0 0  0 0 0
1  0.000000 0.000000 0.000000  1.570796 -0.000000 0.000000
2  16.552387 -19.884323 3.937825  0.418901 0.185613 1.581666
3  0.000002 13.479279 0.000000  0.393330 0.000000 -0.000000
4  0.000001 13.477239 0.000000  -0.278680 -0.425225 -0.026204
5  -1.200002 3.180406 1.195909  0.075827 -0.014785 0.192195
6  -6.822408 -8.943336 -12.629570  0.811862 0.084513 3.082757
7  -0.000000 13.479277 0.000000  0.872291 0.000000 0.000000
8  -0.000000 13.477237 0.000001  -0.306888 0.025649 0.139840
9  1.200000 3.180405 1.195908  -0.017452 0.148181 -0.200002
10  16.552387 -19.884323 3.937825  0.418901 0.185613 1.581666
11  0.000002 13.479276 0.000000  0.393330 0.000000 -0.000000
12  -6.822408 -8.943336 -12.629570  0.811862 0.084513 3.082757
13  -0.000001 13.479277 0.000000  0.872291 0.000000 0.000000
14  -5.061375 -18.940426 -17.302002  2.366724 -1.245453 -0.297883
15  0.315440 0.857301 0.755945  2.242604 0.443989 1.706359
16  0.000000 2.265954 -0.000002  -0.058742 -0.041383 -0.142369
17  0.000000 1.457792 -0.000001  -0.024981 0.049127 0.131061
18  -0.000001 -0.000001 0.000000  -0.000000 -0.000000 0.000000
19  -0.267269 3.664724 -1.953295  -0.098467 -0.016034 -0.179584
20  0.000002 1.180354 0.000000  -0.025411 -0.031338 -0.502261
21  0.000002 0.817136 -0.000001  0.003257 0.005484 -0.317299
22  -0.249426 3.688537 -0.940887  -0.060576 -0.012076 -0.130826
23  -0.000000 1.800634 0.000001  -0.008339 0.036849 -0.570162
24  0.000001 1.243409 -0.000000  0.014736 -0.013805 -0.426136
25  -0.244731 3.701137 0.087732  0.003964 -0.007022 0.009317
26  -0.000000 1.766550 -0.000001  -0.001350 0.004693 -0.590755
27  0.000003 1.188990 -0.000002  -0.016010 -0.007541 -0.483444
28  -0.277244 3.632237 1.274103  0.049053 -0.001441 0.090574
29  0.000000 1.798506 0.000000  0.033555 0.017567 -0.479892
30  -0.000002 1.235416 0.000000  -0.006359 0.005622 -0.262234
31  -1.200002 3.171093 -1.751966  -0.144885 -0.000000 0.000000
32  -1.200001 3.300079 -0.816645  -0.105159 -0.000000 0.000000
33  -1.200001 3.313605 0.085843  0.000000 -0.000000 0.110506
34  0.404037 -0.245037 1.877655  2.263978 0.587082 1.723168
35  -9.230673 -10.458153 -16.566088  -0.198009 -0.049019 -3.084212
36  -0.315440 0.857300 0.755946  -0.170933 -2.698646 0.977782
37  0.000002 2.265958 0.000000  -0.010468 0.071077 0.953748
38  -0.000001 1.457795 -0.000000  -0.047781 -0.027470 0.447680
39  0.000001 0.000000 0.000001  -0.000000 -0.000000 0.000000
40  0.267269 3.664727 -1.953290  -0.075310 0.065487 0.733142
41  -0.000000 1.180355 -0.000000  -0.016097 0.036995 0.773254
42  -0.000003 0.817135 0.000000  0.001670 -0.006156 0.588195
43  0.249423 3.688539 -0.940889  -0.170707 0.051366 0.915709
44  0.000000 1.800632 -0.000003  -0.022758 -0.030159 0.994140
45  0.000000 1.243409 0.000001  0.019109 0.006525 0.849885
46  0.244728 3.701141 0.087736  -0.212307 0.001292 0.886579
47  0.000000 1.766550 0.000000  -0.003132 -0.003746 1.006934
48  -0.000002 1.188990 -0.000001  -0.011595 0.013370 0.899604
49  0.277240 3.632236 1.274102  -0.044364 0.134581 -0.101956
50  -0.000001 1.798509 -0.000000  0.025082 -0.028381 0.844623
51  -0.000001 1.235415 0.000001  -0.008298 -0.001783 0.774562
52  1.200000 3.171093 -1.751963  -0.123359 0.076182 0.550529
53  1.200001 3.300080 -0.816643  -0.210885 0.074289 0.782628
54  1.200001 3.313606 0.085846  -0.220267 -0.000000 0.785398
55  -0.404037 -0.245037 1.877658  -0.328939 -2.440184 0.873978
56  -14.503321 -14.448005 -18.248247  0.000000 -0.000000 0.000000
57  -8.209517 6.146900 -23.152563  0.000000 -0.000000 0.000000
58  -13.807936 -20.992409 -1.805487  1.570796 -3.141592 -0.000000
59  -8.113483 -13.736208 -18.195311  1.683655 0.052110 0.009845
60  0.000002 3.207673 -0.060374  -1.570796 -0.000000 1.570796
61  0.005490 7.262295 22.213398  -1.570797 -1.570796 0.000000
62  -1.373579 7.201887 12.630886  -1.570797 -1.570796 0.000000
63  0.004226 0.497217 12.083947  -1.570796 -1.570796 0.000000
64  3.578708 0.000003 -0.000001  -0.000000 0.000000 -0.000000
time 16
0  0 0 0  0 0 0
1  0.000000 0.000000 0.000000  1.570796 -0.000000 0.000000
2  16.552387 -19.884323 3.937825  0.438027 0.278993 1.615129
3  0.000002 13.479278 0.000001  0.362991 -0.000000 -0.000000
4  -0.000001 13.477240 0.000001  -0.283565 -0.415249 0.023498
5  -1.200001 3.180405 1.195908  0.075827 -0.014785 0.192195
6  -6.786473 -8.759764 -13.166636  0.837806 0.089504 3.086613
7  -0.000000 13.479277 -0.000002  0.800264 0.000000 0.000000
8  0.000001 13.477242 0.000001  -0.192625 0.087632 0.132782
9  1.200001 3.180405 1.195906  -0.017452 0.148181 -0.200002
10  16.552387 -19.884323 3.937825  0.438027 0.278993 1.615129
11  0.000002 13.479277 0.000000  0.362991 -0.000000 -0.000000
12  -6.786473 -8.759764 -13.166636  0.837806 0.089504 3.086613
13  -0.000001 13.479277 -0.000003  0.800264 0.000000 0.000000
14  -5.200750 -18.737328 -16.605625  2.195208 -1.334427 -0.140697
15  0.315441 0.857298 0.755945  2.242604 0.443989 1.706359
16  -0.000000 2.265957 -0.000000  -0.058742 -0.041383 -0.142369
17  0.000000 1.457793 0.000000  -0.024981 0.049127 0.131061
18  -0.000000 -0.000001 -0.000000  -0.000000 -0.000000 0.000000
19  -0.267268 3.664725 -1.953292  -0.098467 -0.016034 -0.179584
20  0.000001 1.180357 -0.000000  -0.025411 -0.031338 -0.502262
21  -0.000001 0.817135 0.000000  0.003256 0.005484 -0.317299
22  -0.249420 3.688537 -0.940888  -0.060576 -0.012076 -0.130826
23  0.000002 1.800632 -0.000001  -0.008339 0.036849 -0.570162
24  0.000000 1.243410 0.000003  0.014736 -0.013805 -0.426137
25  -0.244726 3.701138 0.087733  0.003964 -0.007022 0.009317
26  -0.000001 1.766552 -0.000001  -0.001350 0.004693 -0.590754
27  0.000001 1.188992 -0.000001  -0.016010 -0.007541 -0.483444
28  -0.277240 3.632237 1.274099  0.049053 -0.001441 0.090574
29  0.000001 1.798505 -0.000001  0.033555 0.017567 -0.479891
30  0.000001 1.235417 0.000000  -0.006359 0.005622 -0.262234
31  -1.200000 3.171093 -1.751965  -0.144885 -0.000000 0.000000
32  -1.199999 3.300079 -0.816644  -0.105159 -0.000000 0.000000
33  -1.200001 3.313606 0.085845  0.000000 0.000000 0.110506
34  0.404036 -0.245038 1.877656  2.263978 0.587082 1.723168
35  -9.326411 -10.203098 -16.745060  -0.128421 0.023622 -3.092899
36  -0.315441 0.857302 0.755945  -0.170933 -2.698646 0.977782
37  0.000001 2.265958 -0.000001  -0.010468 0.071077 0.953748
38  0.000000 1.457792 0.000001  -0.047781 -0.027470 0.447681
39  0.000000 0.000000 -0.000001  0.000000 0.000000 0.000000
40  0.267272 3.664727 -1.953295  -0.075310 0.065487 0.733142
41  0.000000 1.180354 0.000000  -0.016097 0.036995 0.773254
42  -0.000002 0.817135 0.000002  0.001670 -0.006156 0.588195
43  0.249422 3.688538 -0.940886  -0.170707 0.051366 0.915709
44  0.000000 1.800634 -0.000002  -0.022758 -0.030159 0.994140
45  0.000001 1.243410 0.000001  0.019109 0.006525 0.849885
46  0.244728 3.701138 0.087732  -0.212307 0.001292 0.886579
47  -0.000001 1.766551 0.000001  -0.003132 -0.003746 1.006934
48  0.000000 1.188990 -0.000000  -0.011595 0.013370 0.899604
49  0.277241 3.632237 1.274100  -0.044364 0.134581 -0.101956
50  0.000000 1.798504 -0.000001  0.025082 -0.028381 0.844623
51  -0.000000 1.235417 -0.000001  -0.008298 -0.001783 0.774562
52  1.200001 3.171094 -1.751967  -0.123359 0.076182 0.550529
53  1.200000 3.300079 -0.816646  -0.210885 0.074289 0.782628
54  1.200001 3.313607 0.085844  -0.220267 -0.000000 0.785398
55  -0.404036 -0.245037 1.877655  -0.328939 -2.440184 0.873978
56  -14.503321 -14.448005 -18.248247  0.000000 -0.000000 0.000000
57  -8.209517 6.146900 -23.152563  0.000000 -0.000000 0.000000
58  -13.807936 -20.992409 -1.805487  1.570796 -3.141592 -0.000000
59  -8.122681 -13.587160 -18.066906  1.617598 -0.023756 0.001105
60  0.000004 3.207674 -0.060377  -1.570796 -0.000000 1.570796
61  0.005491 7.262296 22.213400  -1.570797 -1.570796 0.000000
62  -1.373580 7.201888 12.630885  -1.570797 -1.570796 0.000000
63  0.004227 0.497218 12.083947  -1.570796 -1.570796 0.000000
64  3.578712 0.000004 0.000001  -0.000000 0.000000 -0.000000
time 17
0  0 0 0  0 0 0
1  0.000000 0.000000 0.000000  1.570796 -0.000000 0.000000
2  16.552387 -19.884323 3.937825  0.436764 0.330009 1.634186
3  -0.000002 13.479277 0.000000  0.369801 -0.000000 -0.000000
4  0.000003 13.477240 0.000000  -0.293457 -0.418184 0.043303
5  -1.200001 3.180405 1.195910  0.075827 -0.014785 0.192195
6  -6.750469 -8.648418 -13.491660  0.850445 0.091592 3.087629
7  -0.000000 13.479276 0.000001  0.763314 0.000000 0.000000
8  0.000001 13.477240 -0.000002  -0.130005 0.109882 0.134676
9  1.200002 3.180406 1.195907  -0.017452 0.148181 -0.200002
10  16.552387 -19.884323 3.937825  0.436764 0.330009 1.634186
11  0.000000 13.479276 -0.000000  0.369801 -0.000000 -0.000000
12  -6.750469 -8.648418 -13.491660  0.850445 0.091592 3.087629
13  -0.000001 13.479275 0.000001  0.763314 0.000000 0.000000
14  -5.260957 -18.536362 -16.258366  2.033348 -1.365134 0.014599
15  0.315442 0.857298 0.755942  2.242604 0.443989 1.706359
16  -0.000000 2.265957 0.000002  -0.058742 -0.041383 -0.142369
17  0.000000 1.457791 0.000002  -0.024981 0.049127 0.131061
18  0.000000 -0.000002 -0.000001  0.000000 -0.000000 0.000000
19  -0.267270 3.664725 -1.953296  -0.098467 -0.016034 -0.179584
20  -0.000001 1.180354 0.000000  -0.025411 -0.031338 -0.502262
21  0.000001 0.817134 0.000001  0.003257 0.005484 -0.317299
22  -0.249422 3.688534 -0.940891  -0.060576 -0.012076 -0.130826
23  0.000001 1.800633 0.000001  -0.008339 0.036849 -0.570162
24  -0.000001 1.243408 -0.000001  0.014736 -0.013805 -0.426136
25  -0.244728 3.701136 0.087732  0.003965 -0.007022 0.009317
26  -0.000000 1.766552 0.000001  -0.001350 0.004693 -0.590755
27  0.000001 1.188988 -0.000002  -0.016010 -0.007541 -0.483444
28  -0.277240 3.632236 1.274100  0.049053 -0.001441 0.090574
29  -0.000001 1.798507 -0.000001  0.033555 0.017567 -0.479891
30  -0.000003 1.235415 -0.000000  -0.006359 0.005622 -0.262234
31  -1.200000 3.171092 -1.751966  -0.144885 -0.000000 0.000000
32  -1.200001 3.300078 -0.816646  -0.105159 -0.000000 0.000000
33  -1.199999 3.313604 0.085845  0.000000 0.000000 0.110506
34  0.404038 -0.245038 1.877657  2.263978 0.587082 1.723168
35  -9.353794 -10.004504 -16.832556  -0.089773 0.050113 -3.094137
36  -0.315442 0.857300 0.755946  -0.170933 -2.698646 0.977782
37  -0.000001 2.265958 0.000001  -0.010468 0.071076 0.953748
38  0.000001 1.457794 -0.000001  -0.047781 -0.027470 0.447681
39  -0.000001 0.000002 -0.000002  -0.000000 -0.000000 0.000000
40  0.267268 3.664729 -1.953294  -0.075310 0.065487 0.733142
41  -0.000000 1.180355 0.000001  -0.016097 0.036995 0.773254
42  -0.000001 0.817135 -0.000000  0.001670 -0.006156 0.588195
43  0.249422 3.688536 -0.940889  -0.170707 0.051366 0.915709
44  -0.000001 1.800633 -0.000000  -0.022758 -0.030159 0.994140
45  0.000000 1.243409 0.000002  0.019109 0.006525 0.849885
46  0.244725 3.701138 0.087734  -0.212307 0.001292 0.886579
47  0.000001 1.766548 -0.000002  -0.003132 -0.003746 1.006934
48  -0.000000 1.188989 0.000002  -0.011595 0.013370 0.899604
49  0.277239 3.632239 1.274100  -0.044364 0.134581 -0.101956
50  -0.000001 1.798505 0.000001  0.025082 -0.028381 0.844623
51  0.000002 1.235415 -0.000000  -0.008298 -0.001783 0.774562
52  1.200000 3.171095 -1.751967  -0.123359 0.076182 0.550529
53  1.200000 3.300081 -0.816646  -0.210885 0.074289 0.782629
54  1.200000 3.313608 0.085841  -0.220267 -0.000000 0.785398
55  -0.404038 -0.245036 1.877656  -0.328939 -2.440184 0.873978
56  -14.503321 -14.448005 -18.248247  0.000000 -0.000000 0.000000
57  -8.209517 6.146900 -23.152563  0.000000 -0.000000 0.000000
58  -13.807936 -20.992409 -1.805487  1.570796 -3.141592 -0.000000
59  -8.123995 -13.438111 -17.992756  1.580253 -0.052055 -0.000142
60  0.000005 3.207672 -0.060377  -1.570796 0.000000 1.570796
61  0.005491 7.262294 22.213394  -1.570797 -1.570796 0.000000
62  -1.373579 7.201886 12.630883  -1.570797 -1.570796 0.000000
63  0.004226 0.497217 12.083947  -1.570796 -1.570796 0.000000
64  3.578711 0.000004 -0.000001  -0.000000 0.000000 -0.000000
time 18
0  0 0 0  0 0 0
1  0.000000 0.000000 0.000000  1.570796 -0.000000 0.000000
2  16.552387 -19.884323 3.937825  0.441863 0.315830 1.628824
3  -0.000001 13.479275 0.000001  0.359654 -0.000000 -0.000000
4  -0.000002 13.477240 0.000000  -0.287920 -0.410854 0.034411
5  -1.200000 3.180404 1.195907  0.075827 -0.014785 0.192195
6  -6.719023 -8.591240 -13.657889  0.877606 0.091034 3.086447
7  -0.000000 13.479279 -0.000001  0.708534 0.000000 0.000000
8  0.000000 13.477240 0.000000  -0.106791 0.102984 0.137168
9  1.200000 3.180405 1.195910  -0.017452 0.148181 -0.200002
10  16.552387 -19.884323 3.937825  0.441863 0.315830 1.628824
11  -0.000000 13.479274 0.000000  0.359654 -0.000000 -0.000000
12  -6.719023 -8.591240 -13.657889  0.877606 0.091034 3.086447
13  -0.000001 13.479280 0.000001  0.708534 0.000000 0.000000
14  -5.249186 -18.620068 -16.345057  2.053587 -1.360629 -0.004955
15  0.315441 0.857301 0.755944  2.242604 0.443989 1.706359
16  -0.000000 2.265956 0.000001  -0.058742 -0.041383 -0.142369
17  -0.000000 1.457792 -0.000003  -0.024981 0.049127 0.131061
18  -0.000002 0.000001 -0.000001  0.000000 0.000000 -0.000000
19  -0.267272 3.664731 -1.953293  -0.098467 -0.016034 -0.179584
20  0.000001 1.180355 -0.000001  -0.025411 -0.031338 -0.502262
21  -0.000000 0.817135 -0.000001  0.003257 0.005484 -0.317299
22  -0.249422 3.688540 -0.940888  -0.060576 -0.012076 -0.130826
23  -0.000001 1.800632 -0.000001  -0.008339 0.036849 -0.570162
24  -0.000000 1.243410 -0.000001  0.014736 -0.013805 -0.426136
25  -0.244727 3.701138 0.087732  0.003965 -0.007022 0.009317
26  -0.000002 1.766552 -0.000003  -0.001350 0.004693 -0.590754
27  -0.000000 1.188990 0.000002  -0.016010 -0.007541 -0.483444
28  -0.277238 3.632238 1.274099  0.049053 -0.001441 0.090574
29  0.000001 1.798505 0.000000  0.033555 0.017568 -0.479891
30  0.000000 1.235415 0.000002  -0.006359 0.005622 -0.262234
31  -1.200000 3.171094 -1.751966  -0.144885 0.000000 -0.000000
32  -1.200000 3.300081 -0.816647  -0.105158 0.000000 -0.000000
33  -1.200000 3.313608 0.085845  0.000000 0.000000 0.110506
34  0.404038 -0.245037 1.877654  2.263978 0.587082 1.723168
35  -9.346631 -10.086959 -16.865259  -0.094144 0.045791 -3.094096
36  -0.315441 0.857299 0.755940  -0.170932 -2.698645 0.977782
37  0.000000 2.265958 -0.000000  -0.010468 0.071076 0.953748
38  -0.000000 1.457792 0.000000  -0.047781 -0.027470 0.447681
39  -0.000000 -0.000000 -0.000001  -0.000000 -0.000000 0.000000
40  0.267268 3.664726 -1.953294  -0.075310 0.065487 0.733142
41  0.000000 1.180356 -0.000002  -0.016097 0.036995 0.773254
42  -0.000001 0.817134 0.000001  0.001670 -0.006156 0.588195
43  0.249422 3.688537 -0.940891  -0.170707 0.051366 0.915709
44  0.000001 1.800632 -0.000000  -0.022758 -0.030160 0.994140
45  -0.000000 1.243410 0.000001  0.019109 0.006525 0.849885
46  0.244724 3.701138 0.087734  -0.212307 0.001292 0.886579
47  -0.000000 1.766551 -0.000001  -0.003132 -0.003746 1.006934
48  0.000000 1.188989 0.000000  -0.011595 0.013369 0.899604
49  0.277239 3.632236 1.274100  -0.044364 0.134581 -0.101956
50  -0.000002 1.798506 -0.000001  0.025082 -0.028381 0.844623
51  -0.000001 1.235416 0.000000  -0.008298 -0.001783 0.774562
52  1.200000 3.171093 -1.751966  -0.123359 0.076182 0.550529
53  1.200000 3.300079 -0.816647  -0.210885 0.074289 0.782629
54  1.200000 3.313606 0.085843  -0.220267 -0.000000 0.785398
55  -0.404037 -0.245037 1.877656  -0.328939 -2.440184 0.873978
56  -14.503321 -14.448005 -18.248247  0.000000 -0.000000 0.000000
57  -8.209517 6.146900 -23.152563  0.000000 -0.000000 0.000000
58  -13.807936 -20.992409 -1.805487  1.570796 -3.141592 -0.000000
59  -8.121269 -13.515395 -18.045271  1.584414 -0.047530 -0.000099
60  0.000003 3.207673 -0.060377  -1.570796 -0.000000 1.570796
61  0.005491 7.262294 22.213398  -1.570797 -1.570796 0.000000
62  -1.373580 7.201884 12.630884  -1.570797 -1.570796 0.000000
63  0.004226 0.497219 12.083943  -1.570796 -1.570796 0.000000
64  3.578710 0.000004 -0.000002  -0.000000 0.000000 -0.000000
time 19
0  0 0 0  0 0 0
1  0.000000 0.000000 0.000000  1.570796 -0.000000 0.000000
2  16.552387 -19.884323 3.937825  0.452530 0.289999 1.619186
3  0.000001 13.479276 -0.000000  0.339234 -0.000000 -0.000000
4  0.000000 13.477239 0.000000  -0.277327 -0.397609 0.018128
5  -1.199999 3.180405 1.195908  0.075827 -0.014785 0.192195
6  -6.696762 -8.570173 -13.718577  0.902491 0.089791 3.084740
7  0.000000 13.479279 -0.000000  0.657935 0.000000 0.000000
8  -0.000000 13.477239 -0.000002  -0.089230 0.093127 0.138509
9  1.200000 3.180406 1.195910  -0.017452 0.148181 -0.200002
10  16.552387 -19.884323 3.937825  0.452530 0.289999 1.619186
11  0.000001 13.479274 -0.000001  0.339234 -0.000000 -0.000000
12  -6.696762 -8.570173 -13.718577  0.902491 0.089791 3.084740
13  0.000000 13.479279 -0.000000  0.657935 0.000000 0.000000
14  -5.227991 -18.775282 -16.506239  2.088990 -1.352057 -0.039133
15  0.315439 0.857298 0.755943  2.242604 0.443989 1.706359
16  -0.000000 2.265960 -0.000001  -0.058742 -0.041383 -0.142369
17  0.000000 1.457791 -0.000001  -0.024981 0.049127 0.131061
18  0.000002 -0.000000 -0.000000  -0.000000 0.000000 0.000000
19  -0.267268 3.664724 -1.953293  -0.098467 -0.016034 -0.179584
20  0.000001 1.180354 -0.000001  -0.025411 -0.031338 -0.502262
21  -0.000001 0.817134 -0.000000  0.003257 0.005484 -0.317299
22  -0.249422 3.688537 -0.940885  -0.060576 -0.012076 -0.130826
23  -0.000001 1.800632 0.000000  -0.008339 0.036849 -0.570162
24  -0.000001 1.243409 -0.000003  0.014736 -0.013805 -0.426136
25  -0.244725 3.701135 0.087731  0.003964 -0.007022 0.009317
26  -0.000001 1.766548 0.000002  -0.001350 0.004693 -0.590754
27  -0.000003 1.188990 -0.000002  -0.016010 -0.007541 -0.483444
28  -0.277238 3.632238 1.274100  0.049053 -0.001441 0.090574
29  0.000001 1.798505 -0.000001  0.033555 0.017568 -0.479891
30  0.000001 1.235415 -0.000000  -0.006359 0.005622 -0.262234
31  -1.200000 3.171092 -1.751965  -0.144885 0.000000 0.000000
32  -1.199999 3.300078 -0.816645  -0.105159 0.000000 0.000000
33  -1.199998 3.313606 0.085845  0.000000 0.000000 0.110506
34  0.404040 -0.245037 1.877658  2.263978 0.587082 1.723168
35  -9.332920 -10.240244 -16.926088  -0.102262 0.037765 -3.094021
36  -0.315442 0.857303 0.755945  -0.170933 -2.698646 0.977782
37  0.000001 2.265959 -0.000002  -0.010468 0.071076 0.953748
38  0.000001 1.457792 0.000000  -0.047781 -0.027470 0.447681
39  -0.000001 0.000002 0.000001  0.000000 -0.000000 -0.000000
40  0.267269 3.664726 -1.953290  -0.075310 0.065487 0.733142
41  0.000000 1.180355 0.000001  -0.016097 0.036995 0.773254
42  0.000001 0.817134 0.000002  0.001670 -0.006156 0.588195
43  0.249421 3.688536 -0.940883  -0.170707 0.051366 0.915709
44  0.000001 1.800633 -0.000001  -0.022758 -0.030159 0.994140
45  -0.000001 1.243409 -0.000001  0.019109 0.006525 0.849885
46  0.244724 3.701139 0.087736  -0.212307 0.001292 0.886579
47  0.000001 1.766550 0.000003  -0.003132 -0.003746 1.006934
48  0.000001 1.188989 -0.000001  -0.011595 0.013370 0.899604
49  0.277237 3.632238 1.274101  -0.044364 0.134581 -0.101956
50  0.000002 1.798505 0.000001  0.025082 -0.028381 0.844623
51  0.000002 1.235415 0.000001  -0.008298 -0.001783 0.774562
52  1.199999 3.171094 -1.751963  -0.123359 0.076182 0.550529
53  1.199999 3.300081 -0.816644  -0.210885 0.074289 0.782629
54  1.199999 3.313607 0.085844  -0.220267 -0.000000 0.785398
55  -0.404038 -0.245035 1.877659  -0.328939 -2.440184 0.873978
56  -14.503321 -14.448005 -18.248247  0.000000 -0.000000 0.000000
57  -8.209517 6.146900 -23.152563  0.000000 -0.000000 0.000000
58  -13.807936 -20.992409 -1.805487  1.570796 -3.141592 -0.000000
59  -8.116209 -13.658924 -18.142796  1.592141 -0.039127 -0.000020
60  0.000002 3.207670 -0.060378  -1.570796 -0.000000 1.570796
61  0.005490 7.262292 22.213394  -1.570797 -1.570796 0.000000
62  -1.373580 7.201883 12.630883  -1.570797 -1.570796 0.000000
63  0.004225 0.497217 12.083943  -1.570796 -1.570796 0.000000
64  3.578713 0.000004 -0.000003  -0.000000 0.000000 -0.000000
time 20
0  0 0 0  0 0 0
1  0.000000 0.000000 0.000000  1.570796 -0.000000 0.000000
2  16.552387 -19.884323 3.937825  0.458967 0.276362 1.614163
3  -0.000000 13.479279 0.000000  0.327268 -0.000000 -0.000000
4  -0.000000 13.477237 -0.000001  -0.271381 -0.390668 0.009460
5  -1.199999 3.180403 1.195910  0.075827 -0.014785 0.192195
6  -6.688313 -8.567165 -13.726973  0.913718 0.089096 3.083864
7  -0.000001 13.479275 0.000002  0.635043 0.000000 0.000000
8  -0.000001 13.477238 -0.000001  -0.081963 0.088078 0.138841
9  1.199998 3.180404 1.195906  -0.017452 0.148181 -0.200002
10  16.552387 -19.884323 3.937825  0.458967 0.276362 1.614163
11  0.000000 13.479276 -0.000001  0.327268 -0.000000 -0.000000
12  -6.688313 -8.567165 -13.726973  0.913718 0.089096 3.083864
13  -0.000001 13.479276 0.000003  0.635043 0.000000 0.000000
14  -5.216934 -18.858734 -16.593134  2.106947 -1.347339 -0.056457
15  0.315441 0.857301 0.755944  2.242604 0.443989 1.706359
16  0.000000 2.265960 0.000003  -0.058742 -0.041383 -0.142369
17  -0.000000 1.457794 -0.000001  -0.024981 0.049127 0.131061
18  0.000000 0.000000 0.000001  0.000000 0.000000 0.000000
19  -0.267270 3.664728 -1.953290  -0.098467 -0.016034 -0.179584
20  -0.000000 1.180356 0.000000  -0.025411 -0.031338 -0.502262
21  0.000002 0.817134 -0.000002  0.003257 0.005484 -0.317299
22  -0.249422 3.688537 -0.940890  -0.060576 -0.012076 -0.130826
23  -0.000001 1.800632 -0.000002  -0.008339 0.036849 -0.570162
24  0.000000 1.243410 0.000000  0.014736 -0.013805 -0.426136
25  -0.244728 3.701140 0.087734  0.003965 -0.007022 0.009317
26  -0.000000 1.766551 -0.000001  -0.001350 0.004693 -0.590754
27  0.000001 1.188989 -0.000003  -0.016010 -0.007541 -0.483444
28  -0.277242 3.632238 1.274100  0.049053 -0.001441 0.090574
29  0.000002 1.798505 -0.000001  0.033555 0.017567 -0.479891
30  0.000001 1.235417 0.000001  -0.006359 0.005622 -0.262234
31  -1.200001 3.171092 -1.751966  -0.144885 0.000000 0.000000
32  -1.200000 3.300080 -0.816644  -0.105159 0.000000 0.000000
33  -1.200001 3.313607 0.085846  0.000000 0.000000 0.110506
34  0.404037 -0.245037 1.877658  2.263978 0.587082 1.723168
35  -9.325315 -10.322867 -16.958906  -0.106634 0.033443 -3.093981
36  -0.315440 0.857300 0.755943  -0.170933 -2.698646 0.977782
37  -0.000001 2.265957 -0.000002  -0.010468 0.071076 0.953748
38  0.000001 1.457793 0.000000  -0.047781 -0.027470 0.447681
39  -0.000001 -0.000000 0.000000  -0.000000 0.000000 0.000000
40  0.267268 3.664727 -1.953295  -0.075310 0.065487 0.733142
41  0.000001 1.180355 0.000001  -0.016097 0.036995 0.773254
42  -0.000000 0.817134 0.000000  0.001670 -0.006156 0.588195
43  0.249420 3.688537 -0.940886  -0.170707 0.051366 0.915709
44  -0.000001 1.800632 0.000001  -0.022758 -0.030160 0.994140
45  0.000000 1.243409 -0.000000  0.019109 0.006525 0.849885
46  0.244726 3.701138 0.087730  -0.212307 0.001292 0.886579
47  -0.000001 1.766549 0.000003  -0.003132 -0.003746 1.006934
48  0.000001 1.188989 -0.000002  -0.011595 0.013370 0.899604
49  0.277238 3.632240 1.274100  -0.044364 0.134581 -0.101956
50  0.000000 1.798506 0.000001  0.025082 -0.028381 0.844623
51  0.000001 1.235415 0.000001  -0.008298 -0.001783 0.774562
52  1.200000 3.171093 -1.751968  -0.123359 0.076182 0.550529
53  1.199999 3.300080 -0.816645  -0.210885 0.074289 0.782629
54  1.200000 3.313607 0.085841  -0.220267 -0.000000 0.785398
55  -0.404039 -0.245036 1.877655  -0.328939 -2.440184 0.873978
56  -14.503321 -14.448005 -18.248247  0.000000 -0.000000 0.000000
57  -8.209517 6.146900 -23.152563  0.000000 -0.000000 0.000000
58  -13.807936 -20.992409 -1.805487  1.570796 -3.141592 -0.000000
59  -8.113483 -13.736208 -18.195311  1.596303 -0.034602 0.000023
60  0.000005 3.207673 -0.060376  -1.570796 -0.000000 1.570796
61  0.005491 7.262292 22.213396  -1.570797 -1.570796 0.000000
62  -1.373579 7.201884 12.630883  -1.570797 -1.570796 0.000000
63  0.004227 0.497218 12.083945  -1.570796 -1.570796 0.000000
64  3.578710 0.000004 -0.000002  -0.000000 0.000000 -0.000000
end
