// Created by Crowbar 0.74
version 1
nodes
  0 "ffSkel_Hips" -1
  1 "ffSkel_LeftUpLeg" 0
  2 "ffSkel_LeftLeg" 1
  3 "ffSkel_LeftFoot" 2
  4 "ffSkel_LeftToeBase" 3
  5 "ffSkel_Spine" 0
  6 "ffSkel_Spine1" 5
  7 "ffSkel_Spine2" 6
  8 "ffSkel_Spine3" 7
  9 "ffSkel_Necks" 8
  10 "ffSkel_Heads" 9
  11 "ffSkel_LeftShoulder" 8
  12 "ffSkel_LeftArm" 11
  13 "ffSkel_LeftForeArm" 12
  14 "ffSkel_LeftForeArmRoll" 13
  15 "ffSkel_LeftHand" 14
  16 "ffSkel_LeftHandMiddle1" 15
  17 "ffSkel_LeftHandMiddle2" 16
  18 "ffSkel_LeftHandMiddle3" 17
  19 "ffSkel_LeftHandIndex1" 15
  20 "ffSkel_LeftHandIndex2" 19
  21 "ffSkel_LeftHandIndex3" 20
  22 "ffSkel_LeftHandThumb1" 15
  23 "ffSkel_LeftHandThumb2" 22
  24 "ffSkel_LeftHandThumb3" 23
  25 "ffSkel_att_lefthand" 15
  26 "ffSkel_RightShoulder" 8
  27 "ffSkel_RightArm" 26
  28 "ffSkel_RightForeArm" 27
  29 "ffSkel_RightForeArmRoll" 28
  30 "ffSkel_RightHand" 29
  31 "ffSkel_RightHandMiddle1" 30
  32 "ffSkel_RightHandMiddle2" 31
  33 "ffSkel_RightHandMiddle3" 32
  34 "ffSkel_RightHandIndex1" 30
  35 "ffSkel_RightHandIndex2" 34
  36 "ffSkel_RightHandIndex3" 35
  37 "ffSkel_RightHandThumb1" 30
  38 "ffSkel_RightHandThumb2" 37
  39 "ffSkel_RightHandThumb3" 38
  40 "ffSkel_att_righthand" 30
  41 "ffSkel_RightUpLeg" 0
  42 "ffSkel_RightLeg" 41
  43 "ffSkel_RightFoot" 42
  44 "ffSkel_RightToeBase" 43
  45 "ffSkel_Neck" 8
  46 "ffSkel_Head" 45
end
skeleton
  time 0
    0 0.000000 1.161500 38.741299 0.000000 -1.564500 -1.570810
    1 -1.292301 4.552000 0.301200 1.570330 0.071970 3.067980
    2 17.607502 0.000000 0.000000 -0.004860 -0.018380 0.324550
    3 15.634300 0.000000 0.000000 0.405350 -0.182000 -1.430440
    4 6.003700 0.000000 0.000000 0.635600 -0.088790 -0.317020
    5 3.449001 0.000000 0.000000 0.758610 -1.255650 2.357740
    6 0.000001 0.000000 4.080894 0.000000 -1.570790 -1.350180
    7 5.179100 -0.936700 0.000000 0.000000 0.000000 -0.178920
    8 4.410702 -0.161900 0.000000 0.000000 0.000000 0.067040
    9 6.481201 -1.955300 0.000000 0.000000 0.000000 -0.438370
    10 2.359200 -0.006802 0.000000 -1.570670 -0.013430 -1.250250
    11 2.056301 -1.050800 -1.937600 1.668670 0.014150 2.876480
    12 1.754398 -4.179399 1.022799 1.393040 0.056950 -0.718250
    13 10.631197 0.000000 0.000000 0.000000 -0.000770 -0.002870
    14 4.965599 0.000000 0.000000 0.000000 0.000000 0.000000
    15 4.965599 0.000000 0.000000 0.000190 -0.087860 0.004480
    16 4.651500 0.000000 -0.000004 0.018920 0.644810 0.033620
    17 1.346996 0.000000 -0.000002 -0.005210 0.272890 -0.044500
    18 0.901604 0.000000 0.000000 0.001020 -0.110030 0.009330
    19 4.378602 -1.116700 -0.113403 -0.148850 0.526490 -0.287890
    20 1.693102 0.000000 0.000002 -0.076200 0.357190 0.034830
    21 0.954803 0.000000 0.000000 0.015170 -0.101020 0.051830
    22 1.298301 -1.309801 -0.295200 -0.335590 0.487950 -0.637490
    23 2.374300 0.000000 0.000000 0.003920 -0.015360 0.305240
    24 1.225798 -0.000001 0.000000 -0.006370 0.239280 0.223170
    25 3.286499 -0.280500 -0.627399 -1.570790 0.000000 0.000000
    26 2.056297 -1.050801 1.937600 -2.673350 -1.172940 2.531090
    27 4.646700 0.000000 0.000000 0.002040 -0.498440 -0.191710
    28 10.631195 0.000000 0.000000 0.000000 0.000760 -0.002870
    29 4.965601 0.000000 0.000000 0.000000 0.000000 0.000000
    30 4.965500 0.000000 0.000004 -0.000190 0.087840 0.004480
    31 4.651498 0.000000 0.000000 -0.018920 -0.644810 0.033620
    32 1.347004 0.000000 0.000000 0.005210 -0.272880 -0.044490
    33 0.901703 0.000000 0.000000 -0.001020 0.110020 0.009320
    34 4.378699 -1.116700 0.113503 0.148850 -0.526480 -0.287890
    35 1.692999 0.000000 0.000000 0.076200 -0.357190 0.034840
    36 0.954803 0.000000 0.000000 -0.015170 0.101010 0.051830
    37 1.298299 -1.309800 0.295303 0.335590 -0.487950 -0.637490
    38 2.374296 0.000000 0.000000 -0.003920 0.015350 0.305250
    39 1.225800 0.000001 0.000002 0.006370 -0.239270 0.223160
    40 3.286500 -0.280500 0.627399 1.523489 -1.525620 -3.092090
    41 -1.292301 -4.552000 0.301200 1.571250 0.071970 -3.067980
    42 17.607597 0.000000 -0.000001 0.004860 0.018380 0.324550
    43 15.634300 0.000000 0.000000 -0.405350 0.182000 -1.430440
    44 6.003698 0.000000 0.000000 -0.635610 0.088790 -0.317020
    45 6.152603 0.000000 0.000000 0.000000 0.000000 -0.438370
    46 2.228600 0.000000 0.000000 0.020620 -0.011370 -0.737300
end
triangles
end
