version 1
nodes
0 "blender_implicit" -1
1 "root" -1
2 "upperarm_l" 1
3 "lowerarm_l" 2
4 "hand_l" 3
5 "pinky_0_l" 4
6 "pinky_1_l" 5
7 "pinky_2_l" 6
8 "ring_0_l" 4
9 "ring_1_l" 8
10 "ring_2_l" 9
11 "middle_0_l" 4
12 "middle_1_l" 11
13 "middle_2_l" 12
14 "index_0_l" 4
15 "index_1_l" 14
16 "index_2_l" 15
17 "thumb_0_l" 4
18 "thumb_1_l" 17
19 "thumb_2_l" 18
20 "rig_index_l" 4
21 "rig_middle_l" 4
22 "rig_ring_l" 4
23 "rig_pinky_l" 4
24 "rig_thumb_l" 4
25 "rig_hand_l" 1
26 "rig_l" 1
27 "rig_upperarm_l" 1
28 "upperarm_r" 1
29 "lowerarm_r" 28
30 "hand_r" 29
31 "pinky_0_r" 30
32 "pinky_1_r" 31
33 "pinky_2_r" 32
34 "ring_0_r" 30
35 "ring_1_r" 34
36 "ring_2_r" 35
37 "middle_0_r" 30
38 "middle_1_r" 37
39 "middle_2_r" 38
40 "index_0_r" 30
41 "index_1_r" 40
42 "index_2_r" 41
43 "thumb_0_r" 30
44 "thumb_1_r" 43
45 "thumb_2_r" 44
46 "rig_index_r" 30
47 "rig_middle_r" 30
48 "rig_ring_r" 30
49 "rig_pinky_r" 30
50 "rig_thumb_r" 30
51 "rig_hand_r" 1
52 "rig_r" 1
53 "rig_upperarm_r" 1
54 "v_autorifle" -1
55 "bone_muzzle" 54
56 "magazine" 54
57 "bolt" 54
58 "v_eject" 54
end
skeleton
time 0
0  0 0 0  0 0 0
1  0.000000 0.000000 0.000000  1.570796 -0.000000 0.000000
2  11.426483 -17.423515 12.232265  0.556828 0.536180 1.829235
3  0.000000 13.479275 0.000001  0.826510 -0.000000 -0.000000
4  -0.000001 13.477238 0.000000  -0.706170 0.193120 0.544184
5  -0.267271 3.664727 -1.953295  -0.118308 0.035174 -0.880748
6  0.000001 1.180355 0.000001  -0.022123 -0.030120 -0.914402
7  -0.000001 0.817135 0.000000  0.010879 -0.005735 -0.729721
8  -0.249424 3.688544 -0.940891  -0.082322 0.048500 -0.873567
9  0.000002 1.800633 -0.000001  0.002249 0.004864 -0.948281
10  0.000003 1.243405 -0.000001  0.004845 0.004368 -0.804401
11  -0.244729 3.701097 0.087730  -0.013059 0.024865 -0.746408
12  -0.000003 1.766586 0.000000  0.004071 -0.001496 -0.866834
13  0.000000 1.189005 0.000000  -0.013333 -0.011638 -0.759538
14  -0.277242 3.632251 1.274102  0.038868 0.009697 -0.600690
15  0.000001 1.798494 0.000000  0.027922 0.025554 -0.741251
16  0.000000 1.235453 -0.000003  -0.007625 0.003855 -0.523688
17  0.315439 0.857302 0.755941  1.930500 0.578402 1.467847
18  0.000000 2.265940 0.000001  -0.057535 -0.033451 -0.250071
19  -0.000000 1.457811 0.000004  -0.030127 0.046156 0.023093
20  -1.259683 3.818376 1.286944  0.038868 0.009697 -0.600690
21  -1.226392 3.891695 0.090418  -0.013059 0.024865 -0.746408
22  -1.231625 3.875536 -0.958680  -0.082322 0.048500 -0.873567
23  -1.209921 3.994781 -2.003051  -0.118308 0.035174 -0.880748
24  0.328904 0.095429 1.403531  1.930500 0.578402 1.467848
25  -4.723157 -10.932167 29.738651  0.706625 0.030550 2.116554
26  -3.310055 -16.887754 19.441708  -1.570796 -0.000000 -1.570796
27  11.426483 -17.423515 12.232265  -0.051945 -0.000000 -1.570796
28  -9.154455 -11.766430 -14.684287  0.914923 -0.059519 3.063188
29  -0.000000 13.479277 0.000001  0.942334 -0.000000 0.000000
30  -0.000000 13.477241 0.000001  -0.248483 0.225572 -0.124776
31  0.267270 3.664726 -1.953294  -0.460947 0.085209 1.088458
32  0.000000 1.180355 0.000000  -0.015239 0.034122 1.127932
33  -0.000000 0.817135 0.000001  0.011847 0.003300 0.943165
34  0.249423 3.688540 -0.940891  -0.424660 0.091165 1.116984
35  0.000001 1.800633 -0.000000  0.000989 -0.005266 1.195711
36  0.000000 1.243405 0.000001  0.003628 -0.005422 1.051829
37  0.244726 3.701095 0.087731  -0.354828 0.115299 1.122151
38  -0.000001 1.766584 0.000002  0.004336 -0.000101 1.242448
39  -0.000001 1.189002 0.000001  -0.008134 0.015718 1.135167
40  0.277240 3.632247 1.274101  0.054201 -0.011943 0.177044
41  0.000001 1.798495 -0.000000  0.035950 -0.011837 0.318251
42  -0.000000 1.235450 -0.000001  -0.007454 -0.004176 0.481101
43  -0.315441 0.857298 0.755943  -0.305463 -2.814040 0.955370
44  0.000000 2.265938 0.000001  -0.046734 0.047387 0.515788
45  0.000001 1.457811 -0.000001  -0.053363 -0.013780 0.716642
46  1.259681 3.818374 1.286944  0.054201 -0.011943 0.177044
47  1.226391 3.891693 0.090417  -0.354828 0.115299 1.122150
48  1.231623 3.875534 -0.958683  -0.424660 0.091165 1.116984
49  1.209919 3.994781 -2.003051  -0.460947 0.085209 1.088458
50  -0.328905 0.095429 1.403530  -0.305464 -2.814040 0.955370
51  -8.099947 -16.275053 8.883617  1.614836 -0.004462 -2.968529
52  -9.209054 -23.431993 -0.264549  -1.570796 -0.000000 1.570796
53  -9.154455 -11.766430 -14.684287  -0.051945 0.000000 1.570796
54  -7.391646 -13.429792 -13.773541  1.518438 0.000973 -0.003261
55  0.396051 3.998730 31.950842  -1.535889 -1.570788 0.000000
56  1.262198 1.311918 7.366344  -0.020027 0.028592 -0.611151
57  0.940577 1.711411 -0.425546  -0.000000 0.033161 0.000000
58  -1.325719 2.109443 7.526392  -0.000000 -0.000000 0.000000
time 1
0  0 0 0  0 0 0
1  0.000000 0.000000 0.000000  1.570796 -0.000000 0.000000
2  11.430538 -17.423515 12.610191  0.581871 0.551588 1.823440
3  0.000003 13.479276 0.000000  0.789643 -0.000000 -0.000000
4  0.000000 13.477241 0.000001  -0.689232 0.199805 0.539941
5  -0.267269 3.664721 -1.953296  -0.118308 0.035174 -0.880748
6  -0.000000 1.180355 -0.000002  -0.022123 -0.030120 -0.914402
7  0.000002 0.817135 0.000003  0.010879 -0.005735 -0.729721
8  -0.249423 3.688539 -0.940889  -0.082322 0.048500 -0.873567
9  0.000001 1.800634 -0.000001  0.002249 0.004864 -0.948281
10  -0.000000 1.243409 0.000002  0.004845 0.004368 -0.804401
11  -0.244726 3.701094 0.087732  -0.013059 0.024865 -0.746408
12  0.000003 1.766584 -0.000002  0.004071 -0.001497 -0.866835
13  -0.000000 1.189002 0.000001  -0.013333 -0.011638 -0.759538
14  -0.277239 3.632244 1.274100  0.038868 0.009697 -0.600690
15  0.000001 1.798493 0.000003  0.027922 0.025554 -0.741251
16  -0.000001 1.235451 -0.000001  -0.007625 0.003855 -0.523688
17  0.315442 0.857298 0.755942  1.930500 0.578402 1.467848
18  -0.000002 2.265940 -0.000000  -0.057535 -0.033451 -0.250071
19  0.000000 1.457809 -0.000001  -0.030127 0.046156 0.023093
20  -1.259680 3.818371 1.286943  0.038868 0.009697 -0.600690
21  -1.226390 3.891690 0.090417  -0.013059 0.024865 -0.746408
22  -1.231622 3.875531 -0.958682  -0.082322 0.048500 -0.873567
23  -1.209918 3.994778 -2.003050  -0.118308 0.035174 -0.880748
24  0.328907 0.095427 1.403531  1.930500 0.578402 1.467848
25  -4.756911 -10.443521 30.170477  0.719404 0.053397 2.122599
26  -3.310055 -16.887754 19.441708  -1.570796 -0.000000 -1.570796
27  11.430538 -17.423515 12.610191  -0.051945 -0.000000 -1.570796
28  -9.154455 -11.766430 -14.684287  0.966056 -0.058979 3.063859
29  -0.000000 13.479279 -0.000001  0.842847 -0.000000 0.000000
30  -0.000000 13.477240 -0.000000  -0.172690 0.236845 -0.110691
31  0.267269 3.664727 -1.953290  -0.460947 0.085209 1.088458
32  -0.000002 1.180356 -0.000001  -0.015239 0.034122 1.127932
33  -0.000002 0.817135 -0.000003  0.011847 0.003300 0.943165
34  0.249422 3.688542 -0.940890  -0.424660 0.091165 1.116984
35  0.000000 1.800633 0.000001  0.000989 -0.005266 1.195711
36  0.000001 1.243405 -0.000000  0.003628 -0.005422 1.051829
37  0.244726 3.701097 0.087734  -0.354828 0.115299 1.122151
38  -0.000001 1.766585 0.000000  0.004336 -0.000101 1.242448
39  -0.000001 1.189003 0.000001  -0.008134 0.015718 1.135167
40  0.277239 3.632249 1.274103  0.054201 -0.011943 0.177044
41  0.000000 1.798494 0.000002  0.035950 -0.011837 0.318251
42  -0.000000 1.235453 0.000001  -0.007454 -0.004176 0.481101
43  -0.315441 0.857301 0.755945  -0.305463 -2.814040 0.955370
44  0.000001 2.265940 0.000001  -0.046734 0.047387 0.515788
45  -0.000001 1.457812 0.000001  -0.053363 -0.013780 0.716641
46  1.259681 3.818375 1.286946  0.054201 -0.011943 0.177044
47  1.226390 3.891693 0.090419  -0.354828 0.115299 1.122151
48  1.231623 3.875535 -0.958678  -0.424660 0.091165 1.116984
49  1.209919 3.994782 -2.003047  -0.460947 0.085209 1.088458
50  -0.328906 0.095429 1.403534  -0.305463 -2.814040 0.955370
51  -8.081413 -16.348419 9.459095  1.640765 -0.008025 -2.963182
52  -9.209054 -23.431993 -0.264549  -1.570796 -0.000000 1.570796
53  -9.154455 -11.766430 -14.684287  -0.051945 0.000000 1.570796
54  -7.391855 -13.938971 -13.725027  1.492307 -0.004634 -0.004239
55  0.396052 3.998728 31.950842  -1.535889 -1.570788 0.000000
56  1.262199 1.336918 7.366345  -0.015444 0.031306 -0.458391
57  0.940578 1.711410 -0.425548  0.000000 0.033161 -0.000000
58  -1.325719 2.109441 7.526389  0.000000 0.000000 -0.000000
time 2
0  0 0 0  0 0 0
1  0.000000 0.000000 0.000000  1.570796 -0.000000 0.000000
2  11.439463 -17.423515 13.441628  0.572944 0.509437 1.763583
3  0.000001 13.479276 0.000000  0.749950 0.000000 -0.000000
4  0.000001 13.477238 0.000000  -0.646900 0.252498 0.529620
5  -0.267268 3.664728 -1.953294  -0.118308 0.035174 -0.880748
6  0.000004 1.180356 0.000004  -0.022123 -0.030120 -0.914402
7  -0.000000 0.817133 0.000000  0.010879 -0.005735 -0.729721
8  -0.249422 3.688542 -0.940890  -0.082322 0.048500 -0.873567
9  0.000002 1.800634 0.000000  0.002249 0.004864 -0.948281
10  -0.000001 1.243407 -0.000001  0.004845 0.004368 -0.804401
11  -0.244725 3.701097 0.087734  -0.013059 0.024865 -0.746408
12  -0.000000 1.766583 -0.000001  0.004071 -0.001496 -0.866835
13  0.000001 1.189005 0.000000  -0.013333 -0.011638 -0.759538
14  -0.277238 3.632249 1.274103  0.038868 0.009698 -0.600690
15  -0.000001 1.798496 0.000000  0.027922 0.025554 -0.741251
16  0.000000 1.235452 0.000000  -0.007625 0.003855 -0.523688
17  0.315443 0.857301 0.755944  1.930500 0.578402 1.467848
18  0.000000 2.265941 0.000004  -0.057535 -0.033451 -0.250071
19  -0.000001 1.457808 0.000000  -0.030127 0.046156 0.023093
20  -1.259680 3.818375 1.286947  0.038868 0.009698 -0.600690
21  -1.226390 3.891695 0.090421  -0.013059 0.024865 -0.746408
22  -1.231622 3.875534 -0.958680  -0.082322 0.048500 -0.873567
23  -1.209919 3.994783 -2.003047  -0.118308 0.035174 -0.880748
24  0.328907 0.095427 1.403529  1.930500 0.578402 1.467848
25  -4.826466 -10.476064 31.226910  0.713011 0.047047 2.134660
26  -3.310055 -16.887754 19.441708  -1.570796 -0.000000 -1.570796
27  11.439463 -17.423515 13.441628  -0.051945 -0.000000 -1.570796
28  -9.154455 -11.766430 -14.684287  1.075705 -0.057856 3.065257
29  -0.000000 13.479278 0.000000  0.646239 -0.000000 0.000000
30  -0.000001 13.477239 0.000002  -0.093128 0.256052 -0.093740
31  0.267270 3.664725 -1.953291  -0.460947 0.085209 1.088458
32  -0.000001 1.180355 -0.000002  -0.015239 0.034122 1.127932
33  -0.000001 0.817135 0.000002  0.011847 0.003300 0.943165
34  0.249424 3.688541 -0.940890  -0.424660 0.091165 1.116984
35  -0.000003 1.800633 -0.000001  0.000989 -0.005266 1.195711
36  0.000000 1.243406 -0.000001  0.003628 -0.005422 1.051829
37  0.244727 3.701094 0.087733  -0.354828 0.115299 1.122151
38  -0.000001 1.766584 -0.000002  0.004336 -0.000101 1.242448
39  0.000000 1.189005 -0.000000  -0.008134 0.015718 1.135168
40  0.277240 3.632246 1.274103  0.054201 -0.011943 0.177044
41  0.000000 1.798496 0.000000  0.035950 -0.011837 0.318251
42  -0.000002 1.235451 -0.000002  -0.007454 -0.004176 0.481101
43  -0.315441 0.857300 0.755944  -0.305464 -2.814040 0.955370
44  0.000001 2.265938 -0.000000  -0.046734 0.047387 0.515787
45  -0.000001 1.457810 -0.000001  -0.053364 -0.013780 0.716642
46  1.259682 3.818375 1.286946  0.054201 -0.011943 0.177044
47  1.226392 3.891692 0.090420  -0.354828 0.115299 1.122150
48  1.231623 3.875533 -0.958680  -0.424660 0.091165 1.116984
49  1.209921 3.994781 -2.003047  -0.460947 0.085209 1.088458
50  -0.328904 0.095428 1.403533  -0.305464 -2.814040 0.955370
51  -8.036094 -16.239576 10.457658  1.632524 -0.004395 -2.950749
52  -9.209054 -23.431993 -0.264549  -1.570796 -0.000000 1.570796
53  -9.154455 -11.766430 -14.684287  -0.051945 0.000000 1.570796
54  -7.388060 -14.961771 -13.647287  1.501140 -0.016969 -0.006390
55  0.396052 3.998728 31.950838  -1.535889 -1.570788 0.000000
56  1.262198 1.361918 7.366344  -0.010501 0.033290 -0.305607
57  0.974960 1.711409 0.610920  -0.000000 0.033161 0.000000
58  -1.325719 2.109441 7.526391  -0.000000 -0.000000 0.000000
time 3
0  0 0 0  0 0 0
1  0.000000 0.000000 0.000000  1.570796 -0.000000 0.000000
2  11.448386 -17.423515 14.273065  0.560927 0.460201 1.708880
3  0.000003 13.479274 0.000002  0.721198 0.000000 -0.000000
4  0.000000 13.477242 0.000001  -0.609454 0.304277 0.526677
5  -0.267271 3.664726 -1.953293  -0.118308 0.035174 -0.880748
6  0.000001 1.180355 -0.000002  -0.022123 -0.030120 -0.914402
7  -0.000003 0.817132 0.000002  0.010879 -0.005735 -0.729721
8  -0.249423 3.688543 -0.940888  -0.082322 0.048500 -0.873567
9  -0.000006 1.800634 0.000002  0.002249 0.004864 -0.948281
10  -0.000001 1.243404 0.000003  0.004845 0.004368 -0.804401
11  -0.244727 3.701097 0.087734  -0.013059 0.024865 -0.746408
12  -0.000000 1.766582 0.000000  0.004071 -0.001496 -0.866835
13  0.000001 1.189003 -0.000001  -0.013333 -0.011638 -0.759538
14  -0.277240 3.632250 1.274103  0.038868 0.009697 -0.600690
15  0.000002 1.798496 0.000000  0.027922 0.025554 -0.741251
16  0.000001 1.235451 0.000001  -0.007625 0.003855 -0.523688
17  0.315440 0.857303 0.755946  1.930500 0.578402 1.467848
18  -0.000002 2.265936 -0.000002  -0.057535 -0.033451 -0.250071
19  0.000000 1.457809 -0.000001  -0.030127 0.046156 0.023093
20  -1.259682 3.818377 1.286947  0.038868 0.009697 -0.600690
21  -1.226391 3.891695 0.090420  -0.013059 0.024865 -0.746408
22  -1.231624 3.875536 -0.958678  -0.082322 0.048500 -0.873567
23  -1.209921 3.994784 -2.003046  -0.118308 0.035174 -0.880748
24  0.328905 0.095430 1.403531  1.930500 0.578402 1.467848
25  -4.884525 -10.685241 32.272453  0.700612 0.030826 2.146664
26  -3.310055 -16.887754 19.441708  -1.570796 -0.000000 -1.570796
27  11.448386 -17.423515 14.273065  -0.051945 -0.000000 -1.570796
28  -9.154455 -11.766430 -14.684287  1.216568 -0.056869 3.066484
29  -0.000002 13.479280 -0.000001  0.389629 0.000000 0.000000
30  -0.000000 13.477239 0.000003  0.005021 0.276234 -0.068214
31  0.267269 3.664725 -1.953294  -0.460947 0.085209 1.088458
32  0.000002 1.180357 -0.000002  -0.015239 0.034122 1.127932
33  -0.000001 0.817136 -0.000001  0.011847 0.003300 0.943166
34  0.249421 3.688541 -0.940887  -0.424660 0.091165 1.116984
35  -0.000000 1.800634 0.000000  0.000989 -0.005266 1.195710
36  0.000001 1.243407 -0.000000  0.003628 -0.005422 1.051829
37  0.244725 3.701095 0.087733  -0.354828 0.115299 1.122151
38  0.000000 1.766584 0.000000  0.004336 -0.000101 1.242448
39  0.000002 1.189003 -0.000001  -0.008134 0.015718 1.135168
40  0.277238 3.632247 1.274103  0.054201 -0.011943 0.177044
41  -0.000002 1.798494 -0.000000  0.035950 -0.011837 0.318251
42  0.000002 1.235450 0.000000  -0.007454 -0.004176 0.481101
43  -0.315442 0.857299 0.755943  -0.305464 -2.814040 0.955370
44  0.000002 2.265940 0.000001  -0.046734 0.047387 0.515788
45  0.000001 1.457812 -0.000001  -0.053363 -0.013780 0.716641
46  1.259680 3.818374 1.286945  0.054201 -0.011943 0.177044
47  1.226389 3.891693 0.090419  -0.354828 0.115299 1.122150
48  1.231622 3.875533 -0.958680  -0.424660 0.091165 1.116984
49  1.209918 3.994781 -2.003050  -0.460947 0.085209 1.088458
50  -0.328908 0.095429 1.403533  -0.305464 -2.814040 0.955370
51  -7.989589 -16.064449 11.384558  1.612905 0.001236 -2.938231
52  -9.209054 -23.431993 -0.264549  -1.570796 -0.000000 1.570796
53  -9.154455 -11.766430 -14.684287  -0.051945 0.000000 1.570796
54  -7.381011 -15.941606 -13.556483  1.521581 -0.029303 -0.008543
55  0.396051 3.998728 31.950832  -1.535889 -1.570788 0.000000
56  1.262198 1.386916 7.366344  -0.005312 0.034500 -0.152808
57  1.038815 1.711408 2.535785  -0.000000 0.033161 0.000000
58  -1.325720 2.109440 7.526387  -0.000000 -0.000000 0.000000
time 4
0  0 0 0  0 0 0
1  0.000000 0.000000 0.000000  1.570796 -0.000000 0.000000
2  11.452443 -17.423515 14.650990  0.552116 0.428787 1.683326
3  0.000001 13.479277 0.000004  0.713883 0.000000 -0.000000
4  0.000002 13.477240 0.000001  -0.594568 0.328825 0.530928
5  -0.267270 3.664726 -1.953290  -0.118308 0.035174 -0.880748
6  -0.000004 1.180355 0.000001  -0.022123 -0.030120 -0.914402
7  0.000004 0.817138 -0.000005  0.010879 -0.005735 -0.729721
8  -0.249424 3.688540 -0.940886  -0.082322 0.048500 -0.873567
9  0.000000 1.800631 0.000004  0.002249 0.004864 -0.948281
10  0.000003 1.243406 -0.000002  0.004845 0.004368 -0.804401
11  -0.244727 3.701094 0.087735  -0.013059 0.024865 -0.746408
12  -0.000002 1.766582 -0.000001  0.004071 -0.001497 -0.866835
13  0.000003 1.189002 -0.000000  -0.013333 -0.011638 -0.759538
14  -0.277241 3.632247 1.274104  0.038868 0.009697 -0.600690
15  0.000000 1.798493 -0.000001  0.027922 0.025554 -0.741251
16  0.000002 1.235451 -0.000005  -0.007625 0.003855 -0.523688
17  0.315440 0.857300 0.755947  1.930500 0.578402 1.467848
18  -0.000000 2.265935 0.000001  -0.057535 -0.033450 -0.250071
19  0.000001 1.457810 0.000000  -0.030127 0.046156 0.023093
20  -1.259681 3.818372 1.286946  0.038868 0.009697 -0.600690
21  -1.226392 3.891692 0.090420  -0.013059 0.024865 -0.746408
22  -1.231624 3.875533 -0.958678  -0.082322 0.048500 -0.873567
23  -1.209920 3.994780 -2.003047  -0.118308 0.035174 -0.880748
24  0.328905 0.095429 1.403536  1.930500 0.578402 1.467848
25  -4.900301 -10.934489 32.772427  0.687846 0.011726 2.152206
26  -3.310055 -16.887754 19.441708  -1.570796 -0.000000 -1.570796
27  11.452443 -17.423515 14.650990  -0.051945 -0.000000 -1.570796
28  -9.154455 -11.766430 -14.684287  1.310097 -0.056006 3.067557
29  -0.000001 13.479278 0.000000  0.222781 0.000000 0.000000
30  0.000000 13.477240 -0.000000  0.057316 0.285280 -0.051377
31  0.267269 3.664726 -1.953293  -0.460947 0.085209 1.088458
32  0.000003 1.180356 0.000000  -0.015239 0.034122 1.127932
33  -0.000001 0.817135 -0.000001  0.011847 0.003300 0.943166
34  0.249422 3.688542 -0.940889  -0.424660 0.091165 1.116984
35  -0.000005 1.800632 0.000000  0.000989 -0.005266 1.195711
36  0.000002 1.243408 -0.000000  0.003628 -0.005422 1.051829
37  0.244726 3.701096 0.087733  -0.354828 0.115299 1.122151
38  0.000001 1.766585 -0.000000  0.004336 -0.000101 1.242448
39  0.000001 1.189005 0.000001  -0.008134 0.015718 1.135168
40  0.277239 3.632248 1.274102  0.054201 -0.011943 0.177044
41  0.000000 1.798493 0.000000  0.035950 -0.011837 0.318251
42  0.000000 1.235451 -0.000003  -0.007454 -0.004176 0.481101
43  -0.315441 0.857300 0.755944  -0.305463 -2.814040 0.955370
44  0.000002 2.265939 -0.000001  -0.046734 0.047387 0.515787
45  -0.000000 1.457811 0.000000  -0.053363 -0.013780 0.716641
46  1.259681 3.818374 1.286946  0.054201 -0.011943 0.177044
47  1.226390 3.891694 0.090419  -0.354828 0.115299 1.122150
48  1.231623 3.875534 -0.958682  -0.424660 0.091165 1.116984
49  1.209919 3.994781 -2.003047  -0.460947 0.085209 1.088458
50  -0.328906 0.095428 1.403533  -0.305464 -2.814040 0.955370
51  -7.970407 -15.850468 11.765540  1.590471 0.006175 -2.932500
52  -9.209054 -23.431993 -0.264549  -1.570796 -0.000000 1.570796
53  -9.154455 -11.766430 -14.684287  -0.051945 0.000000 1.570796
54  -7.377215 -16.379173 -13.444337  1.544614 -0.034910 -0.009522
55  0.396052 3.998731 31.950840  -1.535889 -1.570788 0.000000
56  1.262198 1.411919 7.366344  -0.000000 0.034907 0.000000
57  1.073198 1.711411 3.572255  -0.000000 0.033161 -0.000000
58  -1.325719 2.109442 7.526389  -0.000000 -0.000000 0.000000
time 5
0  0 0 0  0 0 0
1  0.000000 0.000000 0.000000  1.570796 -0.000000 0.000000
2  11.448387 -17.423515 14.572971  0.544289 0.418162 1.681538
3  0.000000 13.479275 -0.000001  0.727792 -0.000000 -0.000000
4  -0.000002 13.477238 -0.000001  -0.601991 0.322221 0.533740
5  -0.267270 3.664723 -1.953290  -0.118308 0.035174 -0.880748
6  0.000003 1.180356 0.000001  -0.022123 -0.030120 -0.914402
7  -0.000001 0.817135 0.000000  0.010879 -0.005735 -0.729721
8  -0.249422 3.688536 -0.940888  -0.082322 0.048500 -0.873567
9  0.000002 1.800633 -0.000002  0.002249 0.004864 -0.948281
10  0.000003 1.243406 0.000001  0.004845 0.004368 -0.804401
11  -0.244727 3.701091 0.087732  -0.013059 0.024865 -0.746408
12  0.000000 1.766586 0.000001  0.004071 -0.001497 -0.866835
13  -0.000003 1.189003 0.000004  -0.013333 -0.011638 -0.759538
14  -0.277239 3.632245 1.274104  0.038868 0.009698 -0.600690
15  -0.000000 1.798495 -0.000003  0.027922 0.025554 -0.741251
16  -0.000003 1.235453 -0.000000  -0.007625 0.003855 -0.523688
17  0.315440 0.857298 0.755947  1.930500 0.578402 1.467848
18  -0.000001 2.265943 -0.000003  -0.057535 -0.033450 -0.250071
19  0.000000 1.457811 0.000002  -0.030127 0.046156 0.023093
20  -1.259682 3.818369 1.286947  0.038868 0.009698 -0.600690
21  -1.226391 3.891688 0.090422  -0.013059 0.024865 -0.746408
22  -1.231624 3.875531 -0.958678  -0.082322 0.048500 -0.873567
23  -1.209918 3.994779 -2.003044  -0.118308 0.035174 -0.880748
24  0.328906 0.095423 1.403532  1.930500 0.578402 1.467848
25  -4.845038 -11.121144 32.721035  0.679697 -0.004692 2.142347
26  -3.310055 -16.887754 19.441708  -1.570796 -0.000000 -1.570796
27  11.448387 -17.423515 14.572971  -0.051945 -0.000000 -1.570796
28  -9.154455 -11.766430 -14.684287  1.271974 -0.053935 3.070130
29  -0.000001 13.479278 0.000001  0.313901 0.000000 0.000000
30  0.000000 13.477237 0.000000  -0.016359 0.269623 -0.066188
31  0.267269 3.664726 -1.953292  -0.460947 0.085209 1.088458
32  -0.000003 1.180355 -0.000000  -0.015239 0.034122 1.127932
33  0.000000 0.817135 0.000001  0.011847 0.003300 0.943166
34  0.249421 3.688540 -0.940887  -0.424660 0.091165 1.116984
35  -0.000001 1.800633 -0.000003  0.000989 -0.005266 1.195711
36  0.000000 1.243405 -0.000001  0.003628 -0.005422 1.051829
37  0.244725 3.701095 0.087733  -0.354828 0.115299 1.122151
38  -0.000001 1.766585 0.000003  0.004336 -0.000101 1.242448
39  0.000000 1.189002 0.000001  -0.008134 0.015718 1.135168
40  0.277239 3.632247 1.274103  0.054201 -0.011943 0.177044
41  -0.000000 1.798492 0.000001  0.035950 -0.011837 0.318251
42  -0.000001 1.235451 -0.000000  -0.007454 -0.004176 0.481101
43  -0.315442 0.857299 0.755944  -0.305463 -2.814040 0.955370
44  0.000002 2.265939 -0.000000  -0.046734 0.047387 0.515787
45  -0.000000 1.457812 -0.000001  -0.053364 -0.013780 0.716642
46  1.259680 3.818374 1.286945  0.054201 -0.011943 0.177044
47  1.226390 3.891693 0.090420  -0.354828 0.115299 1.122150
48  1.231623 3.875534 -0.958681  -0.424660 0.091165 1.116984
49  1.209919 3.994780 -2.003046  -0.460947 0.085209 1.088458
50  -0.328907 0.095428 1.403533  -0.305464 -2.814040 0.955370
51  -8.005996 -15.623298 11.635005  1.572212 0.007792 -2.942458
52  -9.209054 -23.431993 -0.264549  -1.570796 -0.000000 1.570796
53  -9.154455 -11.766430 -14.684287  -0.051945 0.000000 1.570796
54  -7.379782 -16.290335 -13.307542  1.562742 -0.024920 -0.007947
55  0.396052 3.998728 31.950838  -1.535889 -1.570788 0.000000
56  1.262198 1.411917 7.366345  0.000000 0.034907 -0.000000
57  1.068225 1.711408 3.422338  -0.000000 0.033161 -0.000000
58  -1.325719 2.109442 7.526392  -0.000000 -0.000000 -0.000000
time 6
0  0 0 0  0 0 0
1  0.000000 0.000000 0.000000  1.570796 -0.000000 0.000000
2  11.439463 -17.423515 14.401328  0.536718 0.415396 1.685689
3  0.000005 13.479279 0.000001  0.749347 0.000000 -0.000000
4  -0.000001 13.477235 -0.000001  -0.616531 0.301554 0.532251
5  -0.267270 3.664729 -1.953291  -0.118308 0.035174 -0.880748
6  0.000000 1.180356 0.000000  -0.022123 -0.030120 -0.914402
7  -0.000001 0.817132 0.000002  0.010879 -0.005735 -0.729721
8  -0.249423 3.688541 -0.940890  -0.082322 0.048500 -0.873567
9  -0.000001 1.800633 -0.000000  0.002249 0.004864 -0.948281
10  -0.000005 1.243404 0.000000  0.004845 0.004368 -0.804401
11  -0.244727 3.701096 0.087731  -0.013059 0.024865 -0.746408
12  0.000002 1.766583 -0.000002  0.004071 -0.001496 -0.866835
13  -0.000001 1.189004 0.000001  -0.013333 -0.011638 -0.759538
14  -0.277240 3.632248 1.274101  0.038868 0.009697 -0.600690
15  0.000002 1.798495 0.000004  0.027922 0.025554 -0.741251
16  0.000003 1.235449 0.000000  -0.007625 0.003855 -0.523688
17  0.315440 0.857298 0.755940  1.930500 0.578402 1.467848
18  -0.000001 2.265943 0.000001  -0.057535 -0.033451 -0.250071
19  0.000001 1.457810 -0.000003  -0.030127 0.046156 0.023093
20  -1.259682 3.818376 1.286946  0.038868 0.009697 -0.600690
21  -1.226392 3.891694 0.090418  -0.013059 0.024865 -0.746408
22  -1.231624 3.875536 -0.958680  -0.082322 0.048500 -0.873567
23  -1.209920 3.994781 -2.003049  -0.118308 0.035174 -0.880748
24  0.328905 0.095428 1.403531  1.930500 0.578402 1.467848
25  -4.745972 -11.237195 32.541737  0.676166 -0.017145 2.120485
26  -3.310055 -16.887754 19.441708  -1.570796 -0.000000 -1.570796
27  11.439463 -17.423515 14.401328  -0.051945 -0.000000 -1.570796
28  -9.154455 -11.766430 -14.684287  1.226993 -0.050446 3.074464
29  -0.000000 13.479280 0.000002  0.416898 0.000000 0.000000
30  0.000000 13.477239 -0.000001  -0.088222 0.239428 -0.075195
31  0.267270 3.664726 -1.953295  -0.460947 0.085209 1.088458
32  0.000001 1.180357 0.000002  -0.015239 0.034122 1.127932
33  0.000000 0.817135 0.000002  0.011847 0.003300 0.943166
34  0.249423 3.688541 -0.940888  -0.424660 0.091165 1.116984
35  0.000001 1.800633 0.000001  0.000989 -0.005266 1.195710
36  0.000002 1.243407 -0.000000  0.003628 -0.005422 1.051829
37  0.244727 3.701095 0.087733  -0.354828 0.115299 1.122151
38  0.000001 1.766585 0.000000  0.004336 -0.000101 1.242448
39  -0.000000 1.189005 0.000001  -0.008134 0.015718 1.135168
40  0.277239 3.632249 1.274102  0.054201 -0.011943 0.177044
41  0.000000 1.798494 0.000000  0.035950 -0.011837 0.318251
42  -0.000000 1.235452 0.000000  -0.007454 -0.004176 0.481101
43  -0.315441 0.857300 0.755945  -0.305463 -2.814040 0.955370
44  -0.000000 2.265939 -0.000000  -0.046734 0.047387 0.515787
45  0.000000 1.457813 0.000001  -0.053364 -0.013780 0.716641
46  1.259681 3.818375 1.286947  0.054201 -0.011943 0.177044
47  1.226391 3.891693 0.090419  -0.354828 0.115299 1.122150
48  1.231623 3.875534 -0.958681  -0.424660 0.091165 1.116984
49  1.209919 3.994781 -2.003047  -0.460947 0.085209 1.088458
50  -0.328906 0.095429 1.403533  -0.305464 -2.814040 0.955370
51  -8.078522 -15.405981 11.413630  1.559328 0.006549 -2.964451
52  -9.209054 -23.431993 -0.264549  -1.570796 -0.000000 1.570796
53  -9.154455 -11.766430 -14.684287  -0.051945 0.000000 1.570796
54  -7.385434 -16.094889 -13.162676  1.575031 -0.002943 -0.004488
55  0.396051 3.998729 31.950838  -1.535889 -1.570788 0.000000
56  1.262198 1.411917 7.366345  0.000000 0.034907 0.000000
57  1.063251 1.711409 3.272421  0.000000 0.033161 0.000000
58  -1.325720 2.109442 7.526388  0.000000 -0.000000 0.000000
time 7
0  0 0 0  0 0 0
1  0.000000 0.000000 0.000000  1.570796 -0.000000 0.000000
2  11.430538 -17.423515 14.229685  0.532191 0.417525 1.691864
3  0.000002 13.479277 0.000001  0.767302 -0.000000 -0.000000
4  0.000001 13.477240 -0.000000  -0.630256 0.278655 0.530828
5  -0.267270 3.664727 -1.953295  -0.118308 0.035174 -0.880748
6  0.000002 1.180354 -0.000002  -0.022123 -0.030120 -0.914402
7  -0.000000 0.817137 0.000001  0.010879 -0.005735 -0.729721
8  -0.249423 3.688541 -0.940892  -0.082322 0.048500 -0.873567
9  -0.000001 1.800634 0.000002  0.002249 0.004864 -0.948281
10  0.000001 1.243408 -0.000002  0.004845 0.004368 -0.804401
11  -0.244726 3.701099 0.087733  -0.013059 0.024865 -0.746408
12  0.000003 1.766585 -0.000003  0.004071 -0.001497 -0.866835
13  -0.000001 1.189005 0.000001  -0.013333 -0.011638 -0.759538
14  -0.277239 3.632250 1.274101  0.038868 0.009697 -0.600690
15  0.000002 1.798495 -0.000000  0.027922 0.025554 -0.741251
16  0.000000 1.235452 -0.000001  -0.007625 0.003855 -0.523688
17  0.315441 0.857301 0.755943  1.930500 0.578402 1.467848
18  0.000000 2.265935 0.000001  -0.057535 -0.033451 -0.250071
19  -0.000000 1.457811 0.000000  -0.030127 0.046156 0.023093
20  -1.259681 3.818378 1.286947  0.038868 0.009697 -0.600690
21  -1.226390 3.891694 0.090416  -0.013059 0.024865 -0.746408
22  -1.231623 3.875536 -0.958681  -0.082322 0.048500 -0.873567
23  -1.209918 3.994784 -2.003049  -0.118308 0.035174 -0.880748
24  0.328906 0.095430 1.403533  1.930500 0.578402 1.467848
25  -4.655369 -11.282837 32.350334  0.675404 -0.025047 2.098542
26  -3.310055 -16.887754 19.441708  -1.570796 -0.000000 -1.570796
27  11.430538 -17.423515 14.229685  -0.051945 -0.000000 -1.570796
28  -9.154455 -11.766430 -14.684287  1.193843 -0.047146 3.078559
29  -0.000001 13.479278 0.000001  0.493948 -0.000000 0.000000
30  -0.000001 13.477239 0.000002  -0.139569 0.210638 -0.077089
31  0.267269 3.664725 -1.953295  -0.460947 0.085209 1.088458
32  0.000000 1.180354 -0.000002  -0.015239 0.034122 1.127932
33  0.000001 0.817134 0.000000  0.011847 0.003300 0.943166
34  0.249422 3.688542 -0.940891  -0.424660 0.091165 1.116984
35  0.000000 1.800632 -0.000001  0.000989 -0.005266 1.195710
36  0.000001 1.243406 0.000000  0.003628 -0.005422 1.051829
37  0.244727 3.701094 0.087732  -0.354828 0.115299 1.122151
38  -0.000001 1.766585 0.000001  0.004336 -0.000101 1.242448
39  0.000000 1.189002 -0.000001  -0.008134 0.015718 1.135168
40  0.277239 3.632247 1.274101  0.054201 -0.011943 0.177044
41  0.000000 1.798494 0.000001  0.035950 -0.011837 0.318251
42  -0.000001 1.235448 -0.000000  -0.007454 -0.004176 0.481101
43  -0.315442 0.857299 0.755943  -0.305463 -2.814040 0.955370
44  -0.000000 2.265939 -0.000001  -0.046734 0.047387 0.515787
45  0.000000 1.457811 -0.000002  -0.053363 -0.013780 0.716641
46  1.259682 3.818375 1.286945  0.054201 -0.011943 0.177044
47  1.226390 3.891692 0.090418  -0.354828 0.115299 1.122150
48  1.231623 3.875533 -0.958682  -0.424660 0.091165 1.116984
49  1.209919 3.994781 -2.003049  -0.460947 0.085209 1.088458
50  -0.328907 0.095426 1.403532  -0.305464 -2.814040 0.955370
51  -8.148841 -15.225029 11.204735  1.551691 0.004383 -2.986451
52  -9.209054 -23.431993 -0.264549  -1.570796 -0.000000 1.570796
53  -9.154455 -11.766430 -14.684287  -0.051945 0.000000 1.570796
54  -7.391095 -15.899443 -13.031287  1.582145 0.019035 -0.001030
55  0.396052 3.998729 31.950836  -1.535889 -1.570788 0.000000
56  1.262198 1.411919 7.366347  0.000000 0.034907 0.000000
57  1.068225 1.711409 3.422338  0.000000 0.033161 -0.000000
58  -1.325719 2.109443 7.526390  0.000000 -0.000000 0.000000
time 8
0  0 0 0  0 0 0
1  0.000000 0.000000 0.000000  1.570796 -0.000000 0.000000
2  11.426482 -17.423515 14.151665  0.532651 0.421938 1.696198
3  -0.000000 13.479279 0.000001  0.772912 0.000000 -0.000000
4  0.000002 13.477235 -0.000001  -0.636814 0.266174 0.532380
5  -0.267271 3.664727 -1.953295  -0.118308 0.035174 -0.880748
6  -0.000004 1.180356 0.000003  -0.022123 -0.030120 -0.914402
7  0.000002 0.817135 0.000000  0.010879 -0.005735 -0.729721
8  -0.249423 3.688541 -0.940889  -0.082321 0.048500 -0.873567
9  -0.000000 1.800632 -0.000003  0.002249 0.004864 -0.948281
10  0.000001 1.243405 -0.000002  0.004845 0.004368 -0.804401
11  -0.244727 3.701096 0.087732  -0.013059 0.024865 -0.746408
12  -0.000001 1.766586 0.000000  0.004071 -0.001497 -0.866835
13  -0.000004 1.189005 0.000000  -0.013333 -0.011638 -0.759538
14  -0.277240 3.632248 1.274102  0.038868 0.009697 -0.600690
15  -0.000000 1.798492 0.000002  0.027922 0.025554 -0.741251
16  -0.000001 1.235453 0.000001  -0.007625 0.003855 -0.523688
17  0.315440 0.857298 0.755941  1.930500 0.578402 1.467848
18  -0.000001 2.265939 -0.000002  -0.057535 -0.033451 -0.250071
19  0.000001 1.457807 0.000001  -0.030127 0.046156 0.023093
20  -1.259681 3.818375 1.286946  0.038868 0.009697 -0.600690
21  -1.226391 3.891696 0.090420  -0.013059 0.024865 -0.746408
22  -1.231623 3.875535 -0.958682  -0.082322 0.048500 -0.873567
23  -1.209919 3.994781 -2.003048  -0.118308 0.035174 -0.880748
24  0.328906 0.095430 1.403533  1.930500 0.578402 1.467848
25  -4.615881 -11.252128 32.261292  0.675561 -0.027812 2.088549
26  -3.310055 -16.887754 19.441708  -1.570796 -0.000000 -1.570796
27  11.426482 -17.423515 14.151665  -0.051945 -0.000000 -1.570796
28  -9.154455 -11.766430 -14.684287  1.181696 -0.045570 3.080515
29  -0.000002 13.479276 0.000001  0.525716 -0.000000 0.000000
30  -0.000001 13.477239 -0.000001  -0.161477 0.197624 -0.076826
31  0.267270 3.664727 -1.953292  -0.460947 0.085209 1.088458
32  0.000000 1.180355 -0.000002  -0.015239 0.034122 1.127932
33  0.000001 0.817135 -0.000001  0.011847 0.003300 0.943166
34  0.249423 3.688541 -0.940888  -0.424660 0.091165 1.116984
35  -0.000001 1.800633 -0.000001  0.000989 -0.005266 1.195711
36  0.000000 1.243408 -0.000000  0.003628 -0.005422 1.051829
37  0.244726 3.701095 0.087732  -0.354828 0.115299 1.122150
38  0.000002 1.766586 -0.000001  0.004336 -0.000101 1.242448
39  -0.000000 1.189002 0.000000  -0.008134 0.015718 1.135168
40  0.277239 3.632247 1.274102  0.054201 -0.011943 0.177044
41  0.000000 1.798494 0.000000  0.035950 -0.011837 0.318251
42  0.000002 1.235452 -0.000001  -0.007454 -0.004176 0.481101
43  -0.315440 0.857300 0.755945  -0.305463 -2.814040 0.955370
44  0.000001 2.265939 -0.000001  -0.046734 0.047387 0.515788
45  0.000002 1.457813 0.000000  -0.053363 -0.013780 0.716642
46  1.259681 3.818375 1.286945  0.054201 -0.011943 0.177044
47  1.226390 3.891693 0.090419  -0.354828 0.115299 1.122150
48  1.231623 3.875534 -0.958681  -0.424660 0.091165 1.116984
49  1.209919 3.994781 -2.003048  -0.460947 0.085209 1.088458
50  -0.328906 0.095429 1.403533  -0.305463 -2.814040 0.955370
51  -8.180379 -15.110071 11.112006  1.549173 0.003230 -2.996451
52  -9.209054 -23.431993 -0.264549  -1.570796 -0.000000 1.570796
53  -9.154455 -11.766430 -14.684287  -0.051945 0.000000 1.570796
54  -7.393690 -15.810604 -12.934926  1.584460 0.029025 0.000542
55  0.396052 3.998729 31.950842  -1.535889 -1.570788 0.000000
56  1.262198 1.411917 7.366345  0.000000 0.034907 0.000000
57  1.073198 1.711408 3.572256  0.000000 0.033161 0.000000
58  -1.325719 2.109441 7.526392  0.000000 0.000000 0.000000
time 9
0  0 0 0  0 0 0
1  0.000000 0.000000 0.000000  1.570796 -0.000000 0.000000
2  11.426482 -17.423515 14.151665  0.541102 0.429049 1.699314
3  0.000001 13.479278 -0.000001  0.762525 0.000000 -0.000000
4  0.000004 13.477236 -0.000001  -0.635097 0.265605 0.537082
5  -0.267269 3.664725 -1.953291  -0.118308 0.035174 -0.880748
6  0.000001 1.180354 0.000000  -0.022123 -0.030120 -0.914402
7  -0.000002 0.817139 0.000002  0.010879 -0.005735 -0.729721
8  -0.249422 3.688539 -0.940887  -0.082322 0.048500 -0.873567
9  -0.000001 1.800635 -0.000002  0.002249 0.004864 -0.948281
10  -0.000000 1.243407 -0.000001  0.004845 0.004368 -0.804402
11  -0.244726 3.701092 0.087734  -0.013059 0.024865 -0.746408
12  -0.000001 1.766587 0.000001  0.004071 -0.001497 -0.866835
13  -0.000001 1.189005 -0.000003  -0.013333 -0.011638 -0.759538
14  -0.277240 3.632245 1.274103  0.038868 0.009697 -0.600690
15  -0.000000 1.798496 0.000001  0.027922 0.025554 -0.741251
16  -0.000002 1.235454 0.000001  -0.007625 0.003855 -0.523688
17  0.315441 0.857298 0.755946  1.930500 0.578402 1.467848
18  -0.000001 2.265937 0.000000  -0.057535 -0.033450 -0.250071
19  -0.000000 1.457813 0.000000  -0.030127 0.046156 0.023093
20  -1.259680 3.818373 1.286947  0.038868 0.009697 -0.600690
21  -1.226390 3.891690 0.090421  -0.013059 0.024865 -0.746408
22  -1.231623 3.875533 -0.958678  -0.082322 0.048500 -0.873567
23  -1.209918 3.994778 -2.003047  -0.118308 0.035174 -0.880748
24  0.328906 0.095428 1.403536  1.930500 0.578402 1.467848
25  -4.623576 -11.132823 32.285835  0.677122 -0.025099 2.093045
26  -3.310055 -16.887754 19.441708  -1.570796 -0.000000 -1.570796
27  11.426482 -17.423515 14.151665  -0.051945 -0.000000 -1.570796
28  -9.154455 -11.766430 -14.684287  1.187937 -0.045840 3.080181
29  -0.000000 13.479280 0.000002  0.516480 -0.000000 0.000000
30  -0.000002 13.477240 0.000000  -0.155389 0.202717 -0.076702
31  0.267269 3.664726 -1.953292  -0.460947 0.085209 1.088458
32  -0.000001 1.180355 -0.000000  -0.015239 0.034122 1.127932
33  0.000001 0.817136 -0.000002  0.011847 0.003300 0.943166
34  0.249423 3.688540 -0.940889  -0.424660 0.091165 1.116984
35  -0.000001 1.800633 0.000001  0.000989 -0.005266 1.195711
36  0.000000 1.243405 -0.000000  0.003628 -0.005422 1.051829
37  0.244727 3.701094 0.087733  -0.354828 0.115299 1.122151
38  -0.000001 1.766584 0.000000  0.004336 -0.000101 1.242448
39  -0.000002 1.189007 0.000001  -0.008134 0.015718 1.135168
40  0.277240 3.632248 1.274102  0.054201 -0.011943 0.177044
41  -0.000000 1.798495 0.000000  0.035950 -0.011837 0.318251
42  -0.000000 1.235452 0.000000  -0.007454 -0.004176 0.481101
43  -0.315441 0.857299 0.755945  -0.305464 -2.814040 0.955370
44  -0.000000 2.265939 0.000000  -0.046734 0.047387 0.515788
45  -0.000001 1.457811 0.000001  -0.053363 -0.013780 0.716642
46  1.259681 3.818374 1.286945  0.054201 -0.011943 0.177044
47  1.226392 3.891693 0.090419  -0.354828 0.115299 1.122150
48  1.231623 3.875533 -0.958680  -0.424660 0.091165 1.116984
49  1.209920 3.994781 -2.003049  -0.460947 0.085209 1.088458
50  -0.328906 0.095428 1.403533  -0.305463 -2.814040 0.955370
51  -8.170528 -15.073071 11.148779  1.552268 0.002764 -2.991904
52  -9.209054 -23.431993 -0.264549  -1.570796 -0.000000 1.570796
53  -9.154455 -11.766430 -14.684287  -0.051945 0.000000 1.570796
54  -7.393718 -15.840537 -12.879684  1.581327 0.024489 0.000465
55  0.396051 3.998729 31.950838  -1.535889 -1.570788 0.000000
56  1.262198 1.411917 7.366345  0.000000 0.034907 0.000000
57  1.073198 1.711410 3.572255  0.000000 0.033161 0.000000
58  -1.325719 2.109442 7.526390  0.000000 -0.000000 -0.000000
time 10
0  0 0 0  0 0 0
1  0.000000 0.000000 0.000000  1.570796 -0.000000 0.000000
2  11.426482 -17.423515 14.151665  0.556222 0.438183 1.703349
3  0.000004 13.479278 -0.000002  0.742101 -0.000000 -0.000000
4  0.000003 13.477238 -0.000001  -0.629279 0.267996 0.542369
5  -0.267270 3.664725 -1.953293  -0.118308 0.035174 -0.880748
6  0.000001 1.180355 0.000001  -0.022123 -0.030120 -0.914402
7  0.000000 0.817133 0.000000  0.010879 -0.005735 -0.729721
8  -0.249423 3.688541 -0.940891  -0.082322 0.048500 -0.873567
9  0.000002 1.800633 0.000000  0.002249 0.004864 -0.948281
10  -0.000004 1.243405 0.000000  0.004845 0.004368 -0.804402
11  -0.244727 3.701096 0.087733  -0.013059 0.024865 -0.746408
12  -0.000003 1.766583 0.000001  0.004071 -0.001496 -0.866835
13  0.000001 1.189004 -0.000003  -0.013333 -0.011638 -0.759538
14  -0.277239 3.632247 1.274102  0.038868 0.009697 -0.600690
15  -0.000003 1.798494 0.000000  0.027922 0.025554 -0.741251
16  0.000001 1.235452 -0.000000  -0.007625 0.003855 -0.523688
17  0.315441 0.857299 0.755942  1.930500 0.578402 1.467848
18  0.000001 2.265940 -0.000001  -0.057535 -0.033450 -0.250071
19  0.000000 1.457810 0.000001  -0.030127 0.046156 0.023093
20  -1.259681 3.818374 1.286945  0.038868 0.009698 -0.600690
21  -1.226391 3.891693 0.090418  -0.013059 0.024865 -0.746408
22  -1.231623 3.875533 -0.958681  -0.082322 0.048500 -0.873567
23  -1.209919 3.994782 -2.003047  -0.118308 0.035174 -0.880748
24  0.328906 0.095429 1.403533  1.930500 0.578402 1.467848
25  -4.642347 -10.963710 32.349613  0.680555 -0.019130 2.102951
26  -3.310055 -16.887754 19.441708  -1.570796 -0.000000 -1.570796
27  11.426482 -17.423515 14.151665  -0.051945 -0.000000 -1.570796
28  -9.154455 -11.766430 -14.684287  1.201886 -0.046693 3.079122
29  -0.000001 13.479278 0.000001  0.488786 -0.000000 0.000000
30  -0.000001 13.477239 0.000000  -0.134676 0.214747 -0.075070
31  0.267270 3.664726 -1.953294  -0.460947 0.085209 1.088458
32  -0.000001 1.180357 -0.000002  -0.015239 0.034122 1.127932
33  0.000000 0.817135 -0.000001  0.011847 0.003300 0.943166
34  0.249423 3.688542 -0.940888  -0.424660 0.091165 1.116984
35  0.000002 1.800633 -0.000000  0.000989 -0.005266 1.195710
36  0.000000 1.243407 0.000000  0.003628 -0.005422 1.051829
37  0.244727 3.701096 0.087732  -0.354828 0.115299 1.122151
38  -0.000002 1.766584 -0.000000  0.004336 -0.000101 1.242448
39  -0.000000 1.189004 0.000001  -0.008134 0.015718 1.135168
40  0.277239 3.632247 1.274102  0.054201 -0.011943 0.177044
41  -0.000001 1.798494 -0.000001  0.035950 -0.011837 0.318251
42  0.000000 1.235452 -0.000000  -0.007454 -0.004176 0.481101
43  -0.315441 0.857300 0.755943  -0.305464 -2.814040 0.955370
44  -0.000001 2.265939 -0.000001  -0.046734 0.047387 0.515787
45  -0.000002 1.457810 -0.000001  -0.053363 -0.013780 0.716641
46  1.259681 3.818375 1.286946  0.054201 -0.011943 0.177044
47  1.226390 3.891693 0.090419  -0.354828 0.115299 1.122150
48  1.231623 3.875534 -0.958682  -0.424660 0.091165 1.116984
49  1.209919 3.994781 -2.003049  -0.460947 0.085209 1.088458
50  -0.328906 0.095429 1.403533  -0.305464 -2.814040 0.955370
51  -8.148273 -15.084599 11.240177  1.559076 0.001740 -2.981907
52  -9.209054 -23.431993 -0.264549  -1.570796 -0.000000 1.570796
53  -9.154455 -11.766430 -14.684287  -0.051945 0.000000 1.570796
54  -7.393732 -15.916723 -12.851317  1.574437 0.014510 0.000293
55  0.396051 3.998729 31.950834  -1.535889 -1.570788 0.000000
56  1.262198 1.411916 7.366342  0.000000 0.034907 -0.000000
57  1.073197 1.711408 3.572253  -0.000000 0.033161 -0.000000
58  -1.325720 2.109440 7.526390  -0.000000 -0.000000 -0.000000
time 11
0  0 0 0  0 0 0
1  0.000000 0.000000 0.000000  1.570796 -0.000000 0.000000
2  11.426482 -17.423515 14.151665  0.573223 0.445253 1.706498
3  0.000001 13.479278 -0.000001  0.717638 -0.000000 -0.000000
4  -0.000001 13.477239 0.000000  -0.621264 0.270578 0.546503
5  -0.267269 3.664723 -1.953295  -0.118308 0.035174 -0.880748
6  -0.000000 1.180355 -0.000000  -0.022123 -0.030120 -0.914402
7  -0.000003 0.817133 0.000000  0.010879 -0.005735 -0.729721
8  -0.249422 3.688539 -0.940890  -0.082322 0.048500 -0.873567
9  0.000004 1.800633 -0.000003  0.002249 0.004864 -0.948281
10  -0.000001 1.243408 -0.000002  0.004845 0.004368 -0.804401
11  -0.244727 3.701092 0.087730  -0.013059 0.024865 -0.746408
12  0.000000 1.766584 0.000002  0.004071 -0.001497 -0.866834
13  0.000002 1.189003 -0.000003  -0.013333 -0.011638 -0.759538
14  -0.277239 3.632245 1.274102  0.038868 0.009697 -0.600690
15  0.000000 1.798494 -0.000004  0.027922 0.025554 -0.741251
16  -0.000001 1.235452 0.000002  -0.007625 0.003855 -0.523688
17  0.315441 0.857296 0.755940  1.930500 0.578402 1.467848
18  0.000001 2.265939 0.000000  -0.057535 -0.033451 -0.250071
19  0.000000 1.457810 0.000001  -0.030127 0.046156 0.023093
20  -1.259682 3.818372 1.286944  0.038868 0.009697 -0.600690
21  -1.226391 3.891692 0.090417  -0.013059 0.024865 -0.746408
22  -1.231623 3.875533 -0.958681  -0.082322 0.048500 -0.873567
23  -1.209920 3.994780 -2.003051  -0.118308 0.035174 -0.880748
24  0.328906 0.095427 1.403531  1.930500 0.578402 1.467848
25  -4.663756 -10.812816 32.438469  0.683980 -0.013157 2.112876
26  -3.310055 -16.887754 19.441708  -1.570796 -0.000000 -1.570796
27  11.426482 -17.423515 14.151665  -0.051945 -0.000000 -1.570796
28  -9.154455 -11.766430 -14.684287  1.220757 -0.047569 3.078035
29  -0.000001 13.479278 -0.000001  0.450179 -0.000000 0.000000
30  -0.000000 13.477240 -0.000001  -0.107752 0.227219 -0.071761
31  0.267269 3.664726 -1.953292  -0.460947 0.085209 1.088458
32  0.000001 1.180355 0.000000  -0.015239 0.034122 1.127932
33  -0.000000 0.817135 -0.000001  0.011847 0.003300 0.943166
34  0.249421 3.688540 -0.940887  -0.424660 0.091165 1.116984
35  0.000000 1.800633 -0.000000  0.000989 -0.005266 1.195711
36  -0.000001 1.243407 0.000001  0.003628 -0.005422 1.051829
37  0.244726 3.701094 0.087732  -0.354828 0.115299 1.122151
38  -0.000000 1.766585 0.000001  0.004336 -0.000101 1.242448
39  0.000000 1.189006 -0.000000  -0.008134 0.015718 1.135168
40  0.277238 3.632247 1.274103  0.054201 -0.011943 0.177044
41  0.000001 1.798494 0.000001  0.035950 -0.011837 0.318251
42  -0.000000 1.235451 -0.000001  -0.007454 -0.004176 0.481101
43  -0.315442 0.857299 0.755945  -0.305463 -2.814040 0.955370
44  0.000001 2.265939 0.000000  -0.046734 0.047387 0.515787
45  -0.000001 1.457811 -0.000000  -0.053363 -0.013780 0.716641
46  1.259680 3.818374 1.286946  0.054201 -0.011943 0.177044
47  1.226389 3.891692 0.090420  -0.354828 0.115299 1.122150
48  1.231622 3.875533 -0.958679  -0.424660 0.091165 1.116984
49  1.209919 3.994780 -2.003049  -0.460947 0.085209 1.088458
50  -0.328907 0.095427 1.403532  -0.305463 -2.814040 0.955370
51  -8.125262 -15.113707 11.357628  1.565886 0.000723 -2.971918
52  -9.209054 -23.431993 -0.264549  -1.570796 -0.000000 1.570796
53  -9.154455 -11.766430 -14.684287  -0.051945 0.000000 1.570796
54  -7.393738 -16.018745 -12.840866  1.567550 0.004531 0.000114
55  0.396052 3.998728 31.950834  -1.535889 -1.570788 0.000000
56  1.262199 1.411917 7.366345  0.000000 0.034907 0.000000
57  1.073199 1.711408 3.572254  0.000000 0.033161 -0.000000
58  -1.325718 2.109441 7.526391  0.000000 -0.000000 -0.000000
time 12
0  0 0 0  0 0 0
1  0.000000 0.000000 0.000000  1.570796 -0.000000 0.000000
2  11.426482 -17.423515 14.151665  0.586604 0.446373 1.706999
3  0.000000 13.479278 -0.000001  0.696824 0.000000 -0.000000
4  -0.000002 13.477242 0.000000  -0.613688 0.271039 0.547677
5  -0.267269 3.664727 -1.953291  -0.118308 0.035174 -0.880748
6  -0.000002 1.180356 0.000002  -0.022123 -0.030120 -0.914402
7  -0.000002 0.817133 -0.000001  0.010879 -0.005735 -0.729721
8  -0.249423 3.688541 -0.940888  -0.082322 0.048500 -0.873567
9  -0.000000 1.800632 -0.000002  0.002249 0.004864 -0.948281
10  -0.000000 1.243406 -0.000003  0.004845 0.004368 -0.804401
11  -0.244727 3.701096 0.087732  -0.013059 0.024865 -0.746408
12  0.000000 1.766586 0.000004  0.004071 -0.001496 -0.866835
13  0.000000 1.189005 -0.000001  -0.013333 -0.011638 -0.759537
14  -0.277240 3.632247 1.274102  0.038868 0.009697 -0.600690
15  0.000000 1.798492 -0.000004  0.027922 0.025554 -0.741251
16  -0.000001 1.235452 0.000002  -0.007625 0.003855 -0.523688
17  0.315440 0.857300 0.755944  1.930500 0.578402 1.467848
18  0.000001 2.265940 -0.000000  -0.057535 -0.033450 -0.250071
19  -0.000000 1.457813 -0.000001  -0.030127 0.046156 0.023093
20  -1.259682 3.818375 1.286947  0.038868 0.009697 -0.600690
21  -1.226391 3.891692 0.090420  -0.013059 0.024865 -0.746408
22  -1.231623 3.875534 -0.958680  -0.082322 0.048500 -0.873567
23  -1.209919 3.994782 -2.003046  -0.118308 0.035174 -0.880748
24  0.328906 0.095428 1.403533  1.930500 0.578402 1.467848
25  -4.674598 -10.747598 32.539711  0.685523 -0.010433 2.117394
26  -3.310055 -16.887754 19.441708  -1.570796 -0.000000 -1.570796
27  11.426482 -17.423515 14.151665  -0.051945 -0.000000 -1.570796
28  -9.154455 -11.766430 -14.684287  1.240939 -0.047855 3.077680
29  -0.000001 13.479278 0.000000  0.409754 -0.000000 0.000000
30  0.000000 13.477238 0.000002  -0.083914 0.233513 -0.067318
31  0.267270 3.664726 -1.953292  -0.460947 0.085209 1.088458
32  0.000000 1.180355 -0.000002  -0.015239 0.034122 1.127932
33  -0.000001 0.817135 -0.000000  0.011847 0.003300 0.943166
34  0.249424 3.688541 -0.940888  -0.424660 0.091165 1.116984
35  0.000002 1.800633 0.000001  0.000989 -0.005266 1.195711
36  -0.000001 1.243405 0.000001  0.003628 -0.005422 1.051829
37  0.244726 3.701095 0.087734  -0.354828 0.115299 1.122151
38  0.000000 1.766584 -0.000001  0.004336 -0.000101 1.242448
39  -0.000001 1.189006 0.000001  -0.008134 0.015718 1.135168
40  0.277239 3.632248 1.274103  0.054201 -0.011943 0.177044
41  0.000001 1.798494 0.000000  0.035950 -0.011837 0.318251
42  0.000001 1.235450 0.000000  -0.007454 -0.004176 0.481101
43  -0.315441 0.857299 0.755945  -0.305464 -2.814040 0.955370
44  -0.000001 2.265940 0.000000  -0.046734 0.047387 0.515788
45  -0.000003 1.457811 0.000000  -0.053363 -0.013780 0.716642
46  1.259682 3.818374 1.286946  0.054201 -0.011943 0.177044
47  1.226391 3.891692 0.090420  -0.354828 0.115299 1.122150
48  1.231624 3.875534 -0.958680  -0.424660 0.091165 1.116984
49  1.209920 3.994781 -2.003047  -0.460947 0.085209 1.088458
50  -0.328906 0.095429 1.403533  -0.305464 -2.814040 0.955370
51  -8.114488 -15.130081 11.472135  1.568985 0.000278 -2.967380
52  -9.209054 -23.431993 -0.264549  -1.570796 -0.000000 1.570796
53  -9.154455 -11.766430 -14.684287  -0.051945 0.000000 1.570796
54  -7.393738 -16.126181 -12.839374  1.564420 -0.000005 0.000016
55  0.396052 3.998728 31.950836  -1.535889 -1.570788 0.000000
56  1.262199 1.411916 7.366344  0.000000 0.034907 0.000000
57  1.073198 1.711407 3.572253  -0.000000 0.033161 -0.000000
58  -1.325719 2.109440 7.526389  -0.000000 -0.000000 0.000000
time 13
0  0 0 0  0 0 0
1  0.000000 0.000000 0.000000  1.570796 -0.000000 0.000000
2  11.426482 -17.423515 14.151665  0.593281 0.440549 1.704401
3  0.000001 13.479279 -0.000001  0.683997 0.000000 -0.000000
4  0.000000 13.477240 -0.000000  -0.607610 0.271396 0.545932
5  -0.267270 3.664726 -1.953294  -0.118308 0.035174 -0.880748
6  0.000003 1.180354 0.000001  -0.022123 -0.030120 -0.914402
7  -0.000003 0.817138 -0.000000  0.010879 -0.005735 -0.729721
8  -0.249422 3.688540 -0.940890  -0.082322 0.048500 -0.873567
9  -0.000002 1.800632 -0.000002  0.002249 0.004864 -0.948281
10  -0.000002 1.243405 -0.000000  0.004845 0.004368 -0.804402
11  -0.244726 3.701093 0.087730  -0.013059 0.024865 -0.746408
12  0.000003 1.766587 -0.000003  0.004071 -0.001496 -0.866835
13  0.000004 1.189004 -0.000002  -0.013333 -0.011638 -0.759538
14  -0.277239 3.632246 1.274100  0.038868 0.009697 -0.600690
15  -0.000002 1.798494 0.000002  0.027922 0.025554 -0.741251
16  0.000005 1.235450 0.000000  -0.007625 0.003855 -0.523688
17  0.315443 0.857296 0.755942  1.930500 0.578402 1.467848
18  0.000001 2.265941 -0.000002  -0.057535 -0.033451 -0.250071
19  0.000002 1.457813 0.000001  -0.030127 0.046156 0.023093
20  -1.259681 3.818374 1.286945  0.038868 0.009698 -0.600690
21  -1.226390 3.891691 0.090418  -0.013059 0.024865 -0.746408
22  -1.231622 3.875533 -0.958680  -0.082322 0.048500 -0.873567
23  -1.209918 3.994781 -2.003048  -0.118308 0.035174 -0.880748
24  0.328907 0.095425 1.403530  1.930500 0.578402 1.467848
25  -4.674921 -10.794379 32.636864  0.684647 -0.011833 2.117404
26  -3.310055 -16.887754 19.441708  -1.570796 -0.000000 -1.570796
27  11.426482 -17.423515 14.151665  -0.051945 -0.000000 -1.570796
28  -9.154455 -11.766430 -14.684287  1.258079 -0.047701 3.077872
29  -0.000001 13.479278 0.000000  0.375402 0.000000 0.000000
30  -0.000000 13.477238 -0.000000  -0.067950 0.234433 -0.063369
31  0.267269 3.664726 -1.953292  -0.460947 0.085209 1.088458
32  0.000000 1.180355 0.000001  -0.015239 0.034122 1.127932
33  -0.000000 0.817136 0.000002  0.011847 0.003300 0.943166
34  0.249423 3.688541 -0.940890  -0.424660 0.091165 1.116984
35  0.000002 1.800633 -0.000001  0.000989 -0.005266 1.195710
36  0.000001 1.243409 0.000002  0.003628 -0.005422 1.051829
37  0.244726 3.701096 0.087732  -0.354828 0.115299 1.122151
38  0.000001 1.766585 0.000001  0.004336 -0.000101 1.242448
39  0.000001 1.189004 0.000001  -0.008134 0.015718 1.135168
40  0.277240 3.632247 1.274101  0.054201 -0.011943 0.177044
41  0.000001 1.798494 0.000001  0.035950 -0.011837 0.318251
42  -0.000001 1.235451 -0.000001  -0.007454 -0.004176 0.481101
43  -0.315441 0.857300 0.755943  -0.305463 -2.814040 0.955370
44  -0.000001 2.265940 0.000000  -0.046734 0.047387 0.515787
45  -0.000000 1.457812 0.000000  -0.053363 -0.013780 0.716641
46  1.259681 3.818374 1.286945  0.054201 -0.011943 0.177044
47  1.226390 3.891693 0.090419  -0.354828 0.115299 1.122150
48  1.231623 3.875535 -0.958681  -0.424660 0.091165 1.116984
49  1.209918 3.994781 -2.003048  -0.460947 0.085209 1.088458
50  -0.328906 0.095429 1.403533  -0.305464 -2.814040 0.955370
51  -8.114387 -15.142076 11.562019  1.567362 0.000584 -2.967381
52  -9.209054 -23.431993 -0.264549  -1.570796 -0.000000 1.570796
53  -9.154455 -11.766430 -14.684287  -0.051945 0.000000 1.570796
54  -7.393731 -16.219854 -12.859054  1.566072 -0.000005 -0.000005
55  0.396052 3.998729 31.950840  -1.535889 -1.570788 0.000000
56  1.262199 1.411918 7.366346  0.000000 0.034907 0.000000
57  1.073198 1.711409 3.572253  0.000000 0.033161 0.000000
58  -1.325718 2.109442 7.526390  0.000000 0.000000 -0.000000
time 14
0  0 0 0  0 0 0
1  0.000000 0.000000 0.000000  1.570796 -0.000000 0.000000
2  11.426482 -17.423515 14.151665  0.595507 0.433004 1.701057
3  0.000002 13.479279 -0.000002  0.677330 -0.000000 -0.000000
4  -0.000001 13.477238 -0.000001  -0.603076 0.273481 0.543673
5  -0.267268 3.664727 -1.953296  -0.118308 0.035174 -0.880748
6  -0.000003 1.180355 -0.000000  -0.022123 -0.030120 -0.914402
7  0.000000 0.817137 -0.000001  0.010879 -0.005735 -0.729721
8  -0.249420 3.688542 -0.940891  -0.082322 0.048500 -0.873567
9  -0.000002 1.800633 0.000001  0.002249 0.004864 -0.948281
10  -0.000001 1.243406 -0.000002  0.004845 0.004368 -0.804401
11  -0.244724 3.701095 0.087730  -0.013059 0.024865 -0.746408
12  0.000000 1.766582 -0.000003  0.004071 -0.001497 -0.866835
13  0.000001 1.189003 -0.000003  -0.013333 -0.011638 -0.759538
14  -0.277237 3.632249 1.274100  0.038868 0.009697 -0.600690
15  0.000001 1.798493 -0.000002  0.027922 0.025554 -0.741251
16  0.000000 1.235451 0.000002  -0.007625 0.003855 -0.523688
17  0.315443 0.857301 0.755942  1.930500 0.578402 1.467848
18  -0.000000 2.265939 0.000003  -0.057535 -0.033450 -0.250071
19  0.000001 1.457812 0.000003  -0.030127 0.046156 0.023093
20  -1.259678 3.818375 1.286946  0.038868 0.009697 -0.600690
21  -1.226388 3.891693 0.090415  -0.013059 0.024865 -0.746408
22  -1.231620 3.875534 -0.958684  -0.082322 0.048500 -0.873567
23  -1.209917 3.994782 -2.003048  -0.118308 0.035174 -0.880748
24  0.328908 0.095429 1.403528  1.930500 0.578402 1.467848
25  -4.675029 -10.881275 32.708851  0.683047 -0.014448 2.117425
26  -3.310055 -16.887754 19.441708  -1.570796 -0.000000 -1.570796
27  11.426482 -17.423515 14.151665  -0.051945 -0.000000 -1.570796
28  -9.154455 -11.766430 -14.684287  1.270057 -0.047640 3.077946
29  0.000000 13.479280 0.000001  0.350329 0.000000 0.000000
30  -0.000001 13.477238 0.000001  -0.057658 0.235140 -0.060731
31  0.267270 3.664726 -1.953292  -0.460947 0.085209 1.088458
32  0.000001 1.180356 0.000001  -0.015239 0.034122 1.127932
33  0.000001 0.817135 -0.000001  0.011847 0.003300 0.943166
34  0.249423 3.688543 -0.940887  -0.424660 0.091165 1.116984
35  -0.000001 1.800633 0.000001  0.000989 -0.005266 1.195710
36  -0.000000 1.243404 -0.000000  0.003628 -0.005422 1.051829
37  0.244727 3.701096 0.087734  -0.354828 0.115299 1.122150
38  0.000001 1.766584 -0.000001  0.004336 -0.000101 1.242448
39  -0.000001 1.189002 0.000001  -0.008134 0.015718 1.135167
40  0.277240 3.632249 1.274103  0.054201 -0.011943 0.177044
41  -0.000000 1.798496 0.000001  0.035950 -0.011837 0.318251
42  -0.000000 1.235450 0.000001  -0.007454 -0.004176 0.481101
43  -0.315441 0.857301 0.755946  -0.305463 -2.814040 0.955370
44  0.000002 2.265940 -0.000001  -0.046734 0.047387 0.515788
45  0.000001 1.457812 -0.000001  -0.053364 -0.013780 0.716642
46  1.259682 3.818376 1.286946  0.054201 -0.011943 0.177044
47  1.226390 3.891695 0.090419  -0.354828 0.115299 1.122150
48  1.231624 3.875536 -0.958680  -0.424660 0.091165 1.116984
49  1.209919 3.994781 -2.003048  -0.460947 0.085209 1.088458
50  -0.328906 0.095430 1.403533  -0.305463 -2.814040 0.955370
51  -8.114338 -15.164330 11.620746  1.564344 0.001122 -2.967383
52  -9.209054 -23.431993 -0.264549  -1.570796 -0.000000 1.570796
53  -9.154455 -11.766430 -14.684287  -0.051945 0.000000 1.570796
54  -7.393717 -16.285564 -12.895602  1.569138 -0.000005 -0.000012
55  0.396052 3.998729 31.950842  -1.535889 -1.570788 0.000000
56  1.262199 1.411916 7.366345  0.000000 0.034907 -0.000000
57  1.073199 1.711408 3.572255  0.000000 0.033161 0.000000
58  -1.325718 2.109442 7.526389  0.000000 -0.000000 -0.000000
time 15
0  0 0 0  0 0 0
1  0.000000 0.000000 0.000000  1.570796 -0.000000 0.000000
2  11.426482 -17.423515 14.151665  0.595721 0.429257 1.699406
3  -0.000001 13.479278 0.000002  0.675426 0.000000 -0.000000
4  -0.000004 13.477240 0.000000  -0.601303 0.274750 0.542553
5  -0.267269 3.664726 -1.953293  -0.118308 0.035174 -0.880748
6  0.000000 1.180355 0.000000  -0.022123 -0.030119 -0.914402
7  0.000000 0.817135 -0.000001  0.010879 -0.005735 -0.729721
8  -0.249423 3.688541 -0.940889  -0.082322 0.048500 -0.873567
9  0.000001 1.800632 -0.000002  0.002249 0.004864 -0.948281
10  -0.000000 1.243405 0.000002  0.004846 0.004368 -0.804401
11  -0.244726 3.701094 0.087731  -0.013059 0.024865 -0.746408
12  -0.000001 1.766583 -0.000000  0.004071 -0.001496 -0.866835
13  -0.000002 1.189003 0.000000  -0.013333 -0.011638 -0.759538
14  -0.277239 3.632248 1.274103  0.038868 0.009698 -0.600690
15  0.000001 1.798495 -0.000002  0.027922 0.025554 -0.741251
16  -0.000002 1.235451 0.000003  -0.007625 0.003855 -0.523688
17  0.315442 0.857299 0.755944  1.930500 0.578402 1.467848
18  -0.000000 2.265938 0.000004  -0.057535 -0.033451 -0.250071
19  0.000002 1.457811 -0.000000  -0.030127 0.046156 0.023093
20  -1.259681 3.818374 1.286946  0.038868 0.009697 -0.600690
21  -1.226391 3.891694 0.090421  -0.013059 0.024865 -0.746408
22  -1.231622 3.875532 -0.958681  -0.082322 0.048500 -0.873567
23  -1.209920 3.994783 -2.003047  -0.118308 0.035174 -0.880748
24  0.328905 0.095431 1.403534  1.930500 0.578402 1.467847
25  -4.675038 -10.928073 32.736938  0.682188 -0.015858 2.117438
26  -3.310055 -16.887754 19.441708  -1.570796 -0.000000 -1.570796
27  11.426482 -17.423515 14.151665  -0.051945 -0.000000 -1.570796
28  -9.154455 -11.766430 -14.684287  1.274534 -0.047630 3.077959
29  0.000000 13.479280 -0.000000  0.340679 0.000000 0.000000
30  0.000001 13.477240 0.000001  -0.054042 0.235424 -0.059778
31  0.267269 3.664726 -1.953295  -0.460947 0.085209 1.088458
32  -0.000001 1.180355 -0.000001  -0.015239 0.034122 1.127932
33  -0.000000 0.817135 0.000001  0.011847 0.003300 0.943166
34  0.249422 3.688541 -0.940889  -0.424660 0.091165 1.116984
35  -0.000000 1.800633 0.000002  0.000989 -0.005266 1.195710
36  0.000001 1.243405 0.000001  0.003628 -0.005422 1.051829
37  0.244725 3.701095 0.087732  -0.354828 0.115299 1.122151
38  -0.000001 1.766584 0.000001  0.004336 -0.000101 1.242448
39  0.000001 1.189005 -0.000000  -0.008134 0.015718 1.135168
40  0.277238 3.632248 1.274101  0.054201 -0.011943 0.177044
41  -0.000000 1.798494 -0.000000  0.035950 -0.011837 0.318251
42  0.000001 1.235449 -0.000000  -0.007454 -0.004176 0.481101
43  -0.315442 0.857299 0.755944  -0.305463 -2.814040 0.955370
44  -0.000003 2.265940 0.000000  -0.046734 0.047387 0.515788
45  0.000002 1.457812 -0.000001  -0.053363 -0.013780 0.716641
46  1.259681 3.818375 1.286945  0.054201 -0.011943 0.177044
47  1.226389 3.891692 0.090418  -0.354828 0.115299 1.122150
48  1.231622 3.875533 -0.958680  -0.424660 0.091165 1.116984
49  1.209918 3.994781 -2.003047  -0.460947 0.085209 1.088458
50  -0.328907 0.095429 1.403532  -0.305464 -2.814040 0.955370
51  -8.114326 -15.176305 11.641788  1.562718 0.001410 -2.967386
52  -9.209054 -23.431993 -0.264549  -1.570796 -0.000000 1.570796
53  -9.154455 -11.766430 -14.684287  -0.051945 0.000000 1.570796
54  -7.393709 -16.310347 -12.915282  1.570789 -0.000005 -0.000013
55  0.396051 3.998729 31.950836  -1.535889 -1.570788 0.000000
56  1.262198 1.411915 7.366343  0.000000 0.034907 -0.000000
57  1.073198 1.711408 3.572254  -0.000000 0.033161 0.000000
58  -1.325719 2.109441 7.526390  -0.000000 -0.000000 -0.000000
end
