version 1
nodes
0 "blender_implicit" -1
1 "root" -1
2 "upperarm_l" 1
3 "lowerarm_l" 2
4 "hand_l" 3
5 "pinky_0_l" 4
6 "pinky_1_l" 5
7 "pinky_2_l" 6
8 "ring_0_l" 4
9 "ring_1_l" 8
10 "ring_2_l" 9
11 "middle_0_l" 4
12 "middle_1_l" 11
13 "middle_2_l" 12
14 "index_0_l" 4
15 "index_1_l" 14
16 "index_2_l" 15
17 "thumb_0_l" 4
18 "thumb_1_l" 17
19 "thumb_2_l" 18
20 "rig_index_l" 4
21 "rig_middle_l" 4
22 "rig_ring_l" 4
23 "rig_pinky_l" 4
24 "rig_thumb_l" 4
25 "rig_hand_l" 1
26 "rig_l" 1
27 "rig_upperarm_l" 1
28 "upperarm_r" 1
29 "lowerarm_r" 28
30 "hand_r" 29
31 "pinky_0_r" 30
32 "pinky_1_r" 31
33 "pinky_2_r" 32
34 "ring_0_r" 30
35 "ring_1_r" 34
36 "ring_2_r" 35
37 "middle_0_r" 30
38 "middle_1_r" 37
39 "middle_2_r" 38
40 "index_0_r" 30
41 "index_1_r" 40
42 "index_2_r" 41
43 "thumb_0_r" 30
44 "thumb_1_r" 43
45 "thumb_2_r" 44
46 "rig_index_r" 30
47 "rig_middle_r" 30
48 "rig_ring_r" 30
49 "rig_pinky_r" 30
50 "rig_thumb_r" 30
51 "rig_hand_r" 1
52 "rig_r" 1
53 "rig_upperarm_r" 1
54 "v_autorifle" -1
55 "bone_muzzle" 54
56 "magazine" 54
57 "bolt" 54
58 "v_eject" 54
end
skeleton
time 0
0  0 0 0  0 0 0
1  0.000000 0.000000 0.000000  1.570796 -0.000000 0.000000
2  15.385205 -24.351284 14.151664  -0.301529 -0.434670 1.727494
3  0.000005 13.479276 -0.000001  1.995242 0.000000 -0.000000
4  -0.000001 13.477239 0.000000  -0.679822 -0.876249 0.243873
5  -0.267270 3.664727 -1.953291  -0.118308 0.035174 -0.880748
6  -0.000001 1.180352 -0.000001  -0.022123 -0.030120 -0.914402
7  0.000000 0.817138 0.000002  0.010879 -0.005735 -0.729721
8  -0.249424 3.688540 -0.940887  -0.082322 0.048500 -0.873567
9  -0.000002 1.800630 0.000002  0.002249 0.004864 -0.948281
10  0.000004 1.243407 -0.000000  0.004845 0.004368 -0.804401
11  -0.244725 3.701095 0.087734  -0.013059 0.024865 -0.746408
12  0.000001 1.766584 -0.000003  0.004071 -0.001496 -0.866835
13  -0.000001 1.189003 -0.000001  -0.013333 -0.011638 -0.759538
14  -0.277239 3.632249 1.274104  0.038868 0.009698 -0.600690
15  0.000002 1.798495 -0.000001  0.027922 0.025554 -0.741251
16  0.000001 1.235451 0.000002  -0.007625 0.003855 -0.523688
17  0.315440 0.857301 0.755946  1.930500 0.578402 1.467848
18  -0.000000 2.265940 -0.000001  -0.057535 -0.033451 -0.250071
19  0.000000 1.457810 0.000000  -0.030127 0.046156 0.023093
20  -1.259682 3.818375 1.286948  0.038868 0.009698 -0.600690
21  -1.226391 3.891693 0.090420  -0.013059 0.024865 -0.746408
22  -1.231622 3.875535 -0.958679  -0.082322 0.048500 -0.873567
23  -1.209920 3.994781 -2.003047  -0.118308 0.035174 -0.880748
24  0.328905 0.095430 1.403535  1.930500 0.578402 1.467848
25  4.920084 -30.000235 22.651997  1.511948 -0.320692 0.759980
26  -3.994898 -29.899763 19.441708  -1.570796 -0.000000 -1.570796
27  15.385205 -24.351284 14.151664  -0.051945 -0.000000 -1.570796
28  -11.816272 -9.717764 -10.249591  1.343900 -0.128214 1.082751
29  -0.000000 13.479279 0.000000  1.028225 -0.000000 0.000000
30  0.000001 13.477240 0.000000  -0.140486 1.126342 0.222403
31  0.267269 3.664726 -1.953292  -0.460947 0.085209 1.088458
32  -0.000001 1.180355 0.000001  -0.015239 0.034122 1.127932
33  -0.000002 0.817135 -0.000000  0.011847 0.003300 0.943166
34  0.249424 3.688542 -0.940889  -0.424660 0.091165 1.116984
35  -0.000003 1.800634 0.000000  0.000989 -0.005266 1.195710
36  0.000001 1.243406 -0.000001  0.003628 -0.005422 1.051829
37  0.244727 3.701097 0.087734  -0.354828 0.115299 1.122151
38  -0.000001 1.766584 0.000000  0.004336 -0.000101 1.242448
39  0.000001 1.189004 0.000001  -0.008134 0.015718 1.135167
40  0.277239 3.632249 1.274102  0.054201 -0.011943 0.177044
41  -0.000000 1.798495 0.000000  0.035950 -0.011837 0.318251
42  0.000001 1.235450 0.000000  -0.007454 -0.004176 0.481101
43  -0.315441 0.857300 0.755944  -0.305464 -2.814040 0.955370
44  -0.000000 2.265940 -0.000000  -0.046734 0.047387 0.515787
45  -0.000001 1.457810 -0.000001  -0.053364 -0.013780 0.716641
46  1.259682 3.818375 1.286946  0.054201 -0.011943 0.177044
47  1.226392 3.891692 0.090420  -0.354828 0.115299 1.122150
48  1.231623 3.875535 -0.958680  -0.424660 0.091165 1.116984
49  1.209919 3.994782 -2.003048  -0.460947 0.085209 1.088458
50  -0.328906 0.095429 1.403533  -0.305464 -2.814040 0.955370
51  -7.294067 -15.377132 12.075562  1.517378 -0.866766 2.128288
52  -26.700415 -4.369115 7.241659  -1.570796 -0.000000 1.570796
53  -11.816272 -9.717764 -10.249591  -0.051945 0.000000 1.570796
54  -3.393709 -14.310349 -18.064119  2.607701 0.677146 1.328920
55  0.396054 3.998730 31.950844  -1.535889 -1.570788 0.000000
56  1.262199 1.411918 7.366346  0.000000 0.034907 0.000000
57  1.073199 1.711411 3.572256  0.000000 0.033161 -0.000000
58  -1.325718 2.109443 7.526392  0.000000 -0.000000 -0.000000
time 1
0  0 0 0  0 0 0
1  0.000000 0.000000 0.000000  1.570796 -0.000000 0.000000
2  15.334768 -24.263018 14.151663  -0.320178 -0.297567 1.765857
3  0.000001 13.479276 0.000002  2.015160 0.000000 -0.000000
4  0.000003 13.477238 0.000000  -0.694527 -0.872303 0.381375
5  -0.267269 3.664727 -1.953293  -0.118308 0.035174 -0.880749
6  -0.000002 1.180353 -0.000000  -0.022123 -0.030120 -0.914402
7  -0.000001 0.817134 -0.000002  0.010879 -0.005735 -0.729721
8  -0.249420 3.688544 -0.940890  -0.082322 0.048500 -0.873567
9  -0.000001 1.800633 -0.000001  0.002249 0.004864 -0.948281
10  0.000005 1.243405 0.000001  0.004845 0.004368 -0.804401
11  -0.244724 3.701098 0.087730  -0.013059 0.024865 -0.746408
12  0.000001 1.766584 -0.000001  0.004071 -0.001497 -0.866835
13  -0.000003 1.189004 0.000000  -0.013333 -0.011638 -0.759538
14  -0.277236 3.632250 1.274100  0.038868 0.009697 -0.600690
15  0.000002 1.798494 -0.000003  0.027922 0.025554 -0.741251
16  -0.000002 1.235449 0.000000  -0.007625 0.003855 -0.523688
17  0.315443 0.857302 0.755943  1.930500 0.578402 1.467848
18  0.000000 2.265939 0.000000  -0.057535 -0.033450 -0.250071
19  -0.000000 1.457809 0.000003  -0.030127 0.046156 0.023093
20  -1.259680 3.818376 1.286944  0.038868 0.009697 -0.600690
21  -1.226388 3.891695 0.090417  -0.013059 0.024865 -0.746408
22  -1.231620 3.875536 -0.958683  -0.082322 0.048500 -0.873567
23  -1.209917 3.994782 -2.003050  -0.118308 0.035174 -0.880748
24  0.328908 0.095429 1.403531  1.930500 0.578402 1.467848
25  4.940009 -29.045462 22.880756  1.499909 -0.316638 0.785195
26  -3.986174 -29.733980 19.441708  -1.570796 -0.000000 -1.570796
27  15.334768 -24.263018 14.151663  -0.051945 -0.000000 -1.570796
28  -11.782358 -9.743864 -10.306092  1.310551 -0.115846 1.103971
29  0.000001 13.479279 0.000001  1.047175 -0.000000 0.000000
30  0.000001 13.477238 -0.000000  -0.126912 1.129579 0.237123
31  0.267269 3.664724 -1.953292  -0.460947 0.085209 1.088458
32  0.000001 1.180355 0.000000  -0.015239 0.034122 1.127932
33  0.000001 0.817135 -0.000000  0.011847 0.003300 0.943166
34  0.249421 3.688539 -0.940888  -0.424660 0.091165 1.116984
35  0.000001 1.800633 0.000000  0.000989 -0.005266 1.195710
36  -0.000002 1.243407 0.000000  0.003628 -0.005422 1.051829
37  0.244726 3.701095 0.087733  -0.354828 0.115299 1.122151
38  0.000001 1.766582 0.000001  0.004336 -0.000101 1.242448
39  0.000002 1.189003 -0.000000  -0.008134 0.015718 1.135167
40  0.277241 3.632245 1.274103  0.054201 -0.011943 0.177044
41  -0.000001 1.798495 0.000000  0.035950 -0.011837 0.318251
42  -0.000001 1.235451 0.000001  -0.007454 -0.004176 0.481101
43  -0.315442 0.857299 0.755944  -0.305463 -2.814040 0.955370
44  0.000001 2.265939 -0.000000  -0.046734 0.047387 0.515787
45  0.000000 1.457811 -0.000001  -0.053364 -0.013780 0.716641
46  1.259680 3.818372 1.286946  0.054201 -0.011943 0.177044
47  1.226390 3.891692 0.090419  -0.354828 0.115299 1.122150
48  1.231623 3.875533 -0.958680  -0.424660 0.091165 1.116984
49  1.209919 3.994781 -2.003049  -0.460947 0.085209 1.088458
50  -0.328906 0.095427 1.403533  -0.305463 -2.814040 0.955370
51  -7.529349 -14.804768 12.082639  1.519891 -0.854746 2.147825
52  -26.477562 -4.611990 7.146025  -1.570796 -0.000000 1.570796
53  -11.782358 -9.743864 -10.306092  -0.051945 0.000000 1.570796
54  -3.584013 -14.366348 -17.382744  2.577454 0.682425 1.304828
55  0.396052 3.998731 31.950842  -1.535889 -1.570788 0.000000
56  1.262197 1.411918 7.366347  0.000000 0.034907 0.000000
57  1.073196 1.711410 3.572255  0.000000 0.033161 -0.000000
58  -1.325719 2.109442 7.526392  0.000000 -0.000000 -0.000000
time 2
0  0 0 0  0 0 0
1  0.000000 0.000000 0.000000  1.570796 -0.000000 0.000000
2  15.192842 -24.014647 14.151664  -0.293070 0.028466 1.846035
3  0.000000 13.479277 0.000001  2.041527 0.000000 -0.000000
4  -0.000002 13.477241 0.000000  -0.755848 -0.817302 0.719224
5  -0.267269 3.664726 -1.953294  -0.118308 0.035174 -0.880748
6  0.000002 1.180352 0.000000  -0.022123 -0.030120 -0.914402
7  0.000001 0.817132 -0.000001  0.010879 -0.005735 -0.729721
8  -0.249422 3.688541 -0.940889  -0.082322 0.048500 -0.873567
9  -0.000003 1.800631 0.000002  0.002248 0.004864 -0.948281
10  -0.000001 1.243406 0.000000  0.004845 0.004368 -0.804401
11  -0.244725 3.701097 0.087732  -0.013059 0.024865 -0.746408
12  0.000002 1.766585 -0.000001  0.004071 -0.001496 -0.866835
13  -0.000001 1.189005 0.000002  -0.013333 -0.011638 -0.759538
14  -0.277239 3.632249 1.274101  0.038868 0.009697 -0.600690
15  -0.000000 1.798493 0.000000  0.027922 0.025554 -0.741251
16  -0.000002 1.235452 0.000001  -0.007625 0.003855 -0.523688
17  0.315442 0.857299 0.755943  1.930500 0.578402 1.467848
18  0.000003 2.265940 -0.000002  -0.057535 -0.033451 -0.250071
19  0.000002 1.457814 -0.000001  -0.030127 0.046156 0.023093
20  -1.259682 3.818375 1.286947  0.038868 0.009697 -0.600690
21  -1.226391 3.891693 0.090419  -0.013059 0.024865 -0.746408
22  -1.231624 3.875535 -0.958679  -0.082322 0.048500 -0.873567
23  -1.209920 3.994781 -2.003048  -0.118308 0.035174 -0.880748
24  0.328906 0.095428 1.403532  1.930500 0.578402 1.467848
25  4.993934 -26.617760 23.518137  1.465801 -0.304678 0.856110
26  -3.961618 -29.267477 19.441708  -1.570796 -0.000000 -1.570796
27  15.192842 -24.014647 14.151664  -0.051945 -0.000000 -1.570796
28  -11.686927 -9.817314 -10.465085  1.237805 -0.086376 1.160589
29  -0.000001 13.479277 -0.000003  1.077762 -0.000000 0.000000
30  -0.000000 13.477240 0.000001  -0.085483 1.135713 0.275924
31  0.267268 3.664728 -1.953292  -0.460947 0.085209 1.088458
32  0.000000 1.180353 0.000000  -0.015239 0.034122 1.127932
33  -0.000001 0.817136 -0.000001  0.011847 0.003300 0.943166
34  0.249422 3.688543 -0.940889  -0.424660 0.091165 1.116984
35  0.000003 1.800633 0.000000  0.000989 -0.005266 1.195710
36  0.000002 1.243407 0.000001  0.003628 -0.005422 1.051829
37  0.244725 3.701096 0.087733  -0.354828 0.115299 1.122150
38  0.000001 1.766584 -0.000001  0.004336 -0.000101 1.242448
39  0.000002 1.189004 0.000000  -0.008134 0.015718 1.135167
40  0.277238 3.632248 1.274102  0.054201 -0.011943 0.177044
41  -0.000001 1.798493 -0.000000  0.035950 -0.011837 0.318250
42  -0.000000 1.235451 -0.000001  -0.007454 -0.004176 0.481101
43  -0.315441 0.857300 0.755944  -0.305464 -2.814040 0.955370
44  -0.000001 2.265940 0.000000  -0.046734 0.047387 0.515787
45  0.000000 1.457810 0.000000  -0.053363 -0.013780 0.716642
46  1.259681 3.818375 1.286947  0.054201 -0.011943 0.177044
47  1.226390 3.891693 0.090420  -0.354828 0.115299 1.122150
48  1.231622 3.875534 -0.958679  -0.424660 0.091165 1.116984
49  1.209918 3.994782 -2.003047  -0.460947 0.085209 1.088458
50  -0.328906 0.095428 1.403533  -0.305464 -2.814040 0.955370
51  -8.129807 -13.494684 12.097370  1.526944 -0.820463 2.203071
52  -25.850464 -5.295429 6.876913  -1.570796 -0.000000 1.570796
53  -11.686927 -9.817314 -10.465085  -0.051945 0.000000 1.570796
54  -4.074738 -14.518349 -15.757920  2.490797 0.693986 1.234152
55  0.396052 3.998729 31.950844  -1.535889 -1.570788 0.000000
56  1.262198 1.411918 7.366343  -0.000000 0.034907 0.000000
57  1.073198 1.711410 3.572254  -0.000000 0.033161 0.000000
58  -1.325720 2.109443 7.526389  -0.000000 -0.000000 0.000000
time 3
0  0 0 0  0 0 0
1  0.000000 0.000000 0.000000  1.570796 -0.000000 0.000000
2  14.973498 -23.630795 14.151664  -0.139302 0.342406 1.922006
3  0.000002 13.479277 -0.000000  2.018813 0.000000 -0.000000
4  0.000001 13.477237 -0.000001  -0.804311 -0.656472 1.002244
5  -0.267270 3.664726 -1.953292  -0.118308 0.035174 -0.880748
6  0.000001 1.180355 -0.000000  -0.022123 -0.030120 -0.914402
7  0.000003 0.817136 -0.000000  0.010879 -0.005735 -0.729721
8  -0.249423 3.688539 -0.940888  -0.082322 0.048500 -0.873567
9  -0.000001 1.800634 -0.000001  0.002249 0.004864 -0.948281
10  0.000000 1.243407 0.000001  0.004845 0.004368 -0.804401
11  -0.244726 3.701095 0.087734  -0.013059 0.024865 -0.746408
12  0.000003 1.766587 -0.000001  0.004071 -0.001496 -0.866835
13  -0.000001 1.189005 0.000002  -0.013333 -0.011638 -0.759538
14  -0.277241 3.632245 1.274102  0.038868 0.009697 -0.600690
15  0.000001 1.798493 -0.000001  0.027922 0.025554 -0.741251
16  0.000001 1.235450 0.000000  -0.007625 0.003855 -0.523688
17  0.315440 0.857299 0.755944  1.930500 0.578402 1.467848
18  0.000000 2.265941 -0.000001  -0.057535 -0.033451 -0.250071
19  -0.000002 1.457809 -0.000001  -0.030127 0.046156 0.023093
20  -1.259684 3.818373 1.286947  0.038868 0.009697 -0.600690
21  -1.226391 3.891691 0.090419  -0.013059 0.024865 -0.746408
22  -1.231624 3.875531 -0.958680  -0.082322 0.048500 -0.873567
23  -1.209920 3.994780 -2.003047  -0.118308 0.035174 -0.880748
24  0.328905 0.095425 1.403533  1.930500 0.578402 1.467848
25  5.017760 -23.356707 24.482714  1.412774 -0.285024 0.965360
26  -3.923674 -28.546515 19.441708  -1.570796 -0.000000 -1.570796
27  14.973498 -23.630795 14.151664  -0.051945 -0.000000 -1.570796
28  -11.539443 -9.930824 -10.710800  1.164968 -0.051510 1.244568
29  0.000000 13.479278 -0.000000  1.086984 -0.000000 0.000000
30  0.000001 13.477240 -0.000001  -0.029186 1.139567 0.319752
31  0.267269 3.664727 -1.953291  -0.460947 0.085209 1.088458
32  -0.000000 1.180356 0.000001  -0.015239 0.034122 1.127932
33  -0.000000 0.817135 0.000001  0.011847 0.003300 0.943166
34  0.249420 3.688542 -0.940887  -0.424660 0.091165 1.116984
35  -0.000003 1.800633 0.000000  0.000989 -0.005266 1.195710
36  -0.000001 1.243405 -0.000000  0.003628 -0.005422 1.051829
37  0.244725 3.701097 0.087734  -0.354828 0.115299 1.122151
38  0.000001 1.766585 -0.000001  0.004336 -0.000101 1.242448
39  0.000000 1.189004 -0.000000  -0.008134 0.015718 1.135168
40  0.277238 3.632249 1.274104  0.054201 -0.011943 0.177044
41  -0.000000 1.798494 0.000001  0.035950 -0.011837 0.318251
42  -0.000001 1.235451 -0.000001  -0.007454 -0.004176 0.481101
43  -0.315442 0.857301 0.755945  -0.305464 -2.814040 0.955370
44  0.000001 2.265940 0.000000  -0.046734 0.047387 0.515787
45  0.000001 1.457812 0.000000  -0.053363 -0.013780 0.716641
46  1.259681 3.818376 1.286947  0.054201 -0.011943 0.177044
47  1.226389 3.891694 0.090422  -0.354828 0.115299 1.122150
48  1.231622 3.875535 -0.958679  -0.424660 0.091165 1.116984
49  1.209918 3.994782 -2.003047  -0.460947 0.085209 1.088458
50  -0.328907 0.095429 1.403534  -0.305464 -2.814040 0.955370
51  -8.918623 -12.059646 12.111972  1.537325 -0.766541 2.289505
52  -24.881313 -6.351654 6.461014  -1.570796 -0.000000 1.570796
53  -11.539443 -9.930824 -10.710800  -0.051945 0.000000 1.570796
54  -4.745602 -14.742349 -13.818616  2.354368 0.701006 1.118373
55  0.396052 3.998730 31.950842  -1.535889 -1.570788 0.000000
56  1.262197 1.411917 7.366348  -0.000000 0.034907 -0.000000
57  1.073197 1.711409 3.572257  -0.000000 0.033161 -0.000000
58  -1.325720 2.109441 7.526392  -0.000000 0.000000 -0.000000
time 4
0  0 0 0  0 0 0
1  0.000000 0.000000 0.000000  1.570796 -0.000000 0.000000
2  14.690816 -23.136103 14.151664  0.085298 0.531284 1.971135
3  0.000003 13.479276 0.000002  1.919210 0.000000 -0.000000
4  -0.000003 13.477242 -0.000001  -0.806567 -0.458471 1.094613
5  -0.267270 3.664724 -1.953292  -0.118308 0.035174 -0.880748
6  -0.000001 1.180355 0.000001  -0.022123 -0.030120 -0.914402
7  -0.000001 0.817134 0.000001  0.010879 -0.005735 -0.729721
8  -0.249421 3.688541 -0.940889  -0.082322 0.048500 -0.873567
9  0.000001 1.800635 0.000000  0.002249 0.004864 -0.948281
10  0.000004 1.243404 -0.000000  0.004845 0.004368 -0.804401
11  -0.244724 3.701097 0.087734  -0.013059 0.024865 -0.746408
12  0.000003 1.766586 0.000001  0.004071 -0.001496 -0.866835
13  0.000002 1.189002 0.000003  -0.013333 -0.011638 -0.759538
14  -0.277239 3.632247 1.274103  0.038868 0.009697 -0.600690
15  0.000001 1.798496 -0.000002  0.027922 0.025554 -0.741251
16  -0.000002 1.235452 -0.000000  -0.007625 0.003855 -0.523688
17  0.315441 0.857299 0.755945  1.930500 0.578402 1.467848
18  -0.000000 2.265943 0.000001  -0.057535 -0.033451 -0.250071
19  0.000001 1.457814 -0.000002  -0.030127 0.046156 0.023093
20  -1.259679 3.818374 1.286946  0.038868 0.009697 -0.600690
21  -1.226389 3.891693 0.090420  -0.013059 0.024865 -0.746408
22  -1.231623 3.875533 -0.958680  -0.082322 0.048500 -0.873567
23  -1.209919 3.994780 -2.003047  -0.118308 0.035174 -0.880748
24  0.328908 0.095429 1.403533  1.930500 0.578402 1.467848
25  4.897602 -19.922222 25.683281  1.344124 -0.257731 1.105237
26  -3.874771 -27.617359 19.441708  -1.570796 -0.000000 -1.570796
27  14.690816 -23.136103 14.151664  -0.051945 -0.000000 -1.570796
28  -11.349369 -10.077114 -11.027470  1.117910 -0.027211 1.343745
29  -0.000002 13.479273 0.000000  1.063990 -0.000000 0.000000
30  0.000001 13.477241 -0.000000  0.008906 1.142828 0.324453
31  0.267270 3.664726 -1.953293  -0.460947 0.085209 1.088458
32  0.000000 1.180356 0.000001  -0.015239 0.034122 1.127932
33  -0.000000 0.817134 0.000000  0.011847 0.003300 0.943166
34  0.249423 3.688540 -0.940889  -0.424660 0.091165 1.116984
35  0.000000 1.800634 -0.000000  0.000989 -0.005266 1.195710
36  0.000001 1.243405 0.000001  0.003628 -0.005422 1.051829
37  0.244727 3.701093 0.087732  -0.354828 0.115299 1.122150
38  0.000000 1.766585 -0.000001  0.004336 -0.000101 1.242448
39  0.000000 1.189006 -0.000001  -0.008134 0.015718 1.135167
40  0.277240 3.632248 1.274102  0.054201 -0.011943 0.177044
41  0.000002 1.798495 0.000002  0.035950 -0.011837 0.318250
42  0.000001 1.235451 -0.000001  -0.007454 -0.004176 0.481101
43  -0.315442 0.857300 0.755943  -0.305463 -2.814040 0.955370
44  -0.000000 2.265939 -0.000000  -0.046734 0.047387 0.515788
45  0.000001 1.457811 -0.000001  -0.053363 -0.013780 0.716642
46  1.259682 3.818374 1.286946  0.054201 -0.011943 0.177044
47  1.226390 3.891692 0.090418  -0.354828 0.115299 1.122150
48  1.231622 3.875534 -0.958680  -0.424660 0.091165 1.116984
49  1.209919 3.994780 -2.003048  -0.460947 0.085209 1.088458
50  -0.328906 0.095426 1.403533  -0.305463 -2.814040 0.955370
51  -9.703669 -11.103989 12.121449  1.549893 -0.695609 2.402574
52  -23.632299 -7.712885 5.925014  -1.570796 -0.000000 1.570796
53  -11.349369 -10.077114 -11.027470  -0.051945 0.000000 1.570796
54  -5.476326 -15.014349 -12.193792  2.180215 0.689012 0.963629
55  0.396050 3.998726 31.950836  -1.535889 -1.570788 0.000000
56  1.262198 1.411918 7.366342  -0.000000 0.034907 -0.000000
57  1.073200 1.711409 3.572251  -0.000000 0.033161 -0.000000
58  -1.325717 2.109442 7.526387  -0.000000 -0.000000 -0.000000
time 5
0  0 0 0  0 0 0
1  0.000000 0.000000 0.000000  1.570796 -0.000000 0.000000
2  14.358870 -22.555197 14.151664  0.280965 0.611727 1.986699
3  0.000001 13.479280 -0.000001  1.765270 0.000000 -0.000000
4  -0.000001 13.477236 -0.000001  -0.799316 -0.299903 1.051676
5  -0.267271 3.664728 -1.953292  -0.118308 0.035174 -0.880748
6  0.000001 1.180357 0.000001  -0.022123 -0.030120 -0.914402
7  -0.000002 0.817135 0.000002  0.010879 -0.005735 -0.729721
8  -0.249422 3.688544 -0.940888  -0.082322 0.048500 -0.873567
9  0.000001 1.800636 -0.000000  0.002249 0.004864 -0.948281
10  0.000001 1.243405 0.000001  0.004845 0.004368 -0.804401
11  -0.244726 3.701096 0.087733  -0.013059 0.024865 -0.746408
12  -0.000002 1.766584 0.000004  0.004071 -0.001497 -0.866835
13  0.000002 1.189005 -0.000002  -0.013333 -0.011638 -0.759538
14  -0.277239 3.632248 1.274103  0.038868 0.009697 -0.600690
15  -0.000003 1.798493 -0.000001  0.027922 0.025554 -0.741251
16  -0.000001 1.235450 0.000000  -0.007625 0.003855 -0.523688
17  0.315440 0.857301 0.755945  1.930500 0.578402 1.467848
18  0.000001 2.265939 -0.000001  -0.057535 -0.033451 -0.250071
19  -0.000002 1.457811 -0.000001  -0.030127 0.046156 0.023093
20  -1.259680 3.818375 1.286946  0.038868 0.009697 -0.600690
21  -1.226391 3.891694 0.090419  -0.013059 0.024865 -0.746408
22  -1.231623 3.875537 -0.958679  -0.082322 0.048500 -0.873567
23  -1.209920 3.994782 -2.003047  -0.118308 0.035174 -0.880748
24  0.328905 0.095429 1.403533  1.930500 0.578402 1.467848
25  4.507989 -17.037329 27.020494  1.263252 -0.222701 1.267725
26  -3.817347 -26.526278 19.441708  -1.570796 -0.000000 -1.570796
27  14.358870 -22.555197 14.151664  -0.051945 -0.000000 -1.570796
28  -11.126171 -10.248899 -11.399328  1.104013 -0.035640 1.432318
29  -0.000001 13.479276 -0.000001  1.015138 -0.000000 0.000000
30  0.000001 13.477239 -0.000001  0.006580 1.159239 0.242321
31  0.267269 3.664727 -1.953293  -0.460947 0.085209 1.088458
32  0.000001 1.180354 -0.000000  -0.015239 0.034122 1.127932
33  0.000002 0.817136 -0.000000  0.011847 0.003300 0.943166
34  0.249422 3.688542 -0.940890  -0.424660 0.091165 1.116984
35  0.000002 1.800632 0.000001  0.000989 -0.005266 1.195710
36  0.000002 1.243406 -0.000001  0.003628 -0.005422 1.051829
37  0.244726 3.701095 0.087732  -0.354828 0.115299 1.122151
38  0.000001 1.766584 -0.000001  0.004336 -0.000101 1.242448
39  -0.000001 1.189003 0.000000  -0.008134 0.015718 1.135168
40  0.277239 3.632248 1.274101  0.054201 -0.011943 0.177044
41  -0.000001 1.798494 -0.000000  0.035950 -0.011837 0.318251
42  -0.000001 1.235452 0.000000  -0.007454 -0.004176 0.481101
43  -0.315442 0.857301 0.755943  -0.305463 -2.814040 0.955370
44  0.000000 2.265940 -0.000001  -0.046734 0.047387 0.515787
45  0.000000 1.457811 0.000000  -0.053363 -0.013780 0.716642
46  1.259681 3.818375 1.286945  0.054201 -0.011943 0.177044
47  1.226390 3.891694 0.090418  -0.354828 0.115299 1.122150
48  1.231621 3.875533 -0.958681  -0.424660 0.091165 1.116984
49  1.209919 3.994781 -2.003048  -0.460947 0.085209 1.088458
50  -0.328907 0.095429 1.403532  -0.305463 -2.814040 0.955370
51  -10.291656 -11.212034 12.123582  1.564124 -0.610353 2.537155
52  -22.165617 -9.311342 5.295605  -1.570796 -0.000000 1.570796
53  -11.126171 -10.248899 -11.399328  -0.051945 0.000000 1.570796
54  -6.146630 -15.310349 -11.512415  1.989802 0.644612 0.785743
55  0.396054 3.998730 31.950836  -1.535889 -1.570788 0.000000
56  1.262199 1.411916 7.366344  0.000000 0.034907 -0.000000
57  1.073199 1.711408 3.572253  0.000000 0.033161 0.000000
58  -1.325719 2.109440 7.526391  0.000000 0.000000 -0.000000
time 6
0  0 0 0  0 0 0
1  0.000000 0.000000 0.000000  1.570796 -0.000000 0.000000
2  13.991735 -21.912710 14.151664  0.425266 0.641430 1.980873
3  -0.000002 13.479279 0.000003  1.583822 0.000000 -0.000000
4  0.000001 13.477239 -0.000000  -0.791838 -0.181377 0.952935
5  -0.267269 3.664727 -1.953294  -0.118308 0.035174 -0.880748
6  -0.000002 1.180355 0.000002  -0.022123 -0.030120 -0.914402
7  0.000002 0.817137 0.000000  0.010879 -0.005735 -0.729721
8  -0.249422 3.688542 -0.940890  -0.082322 0.048500 -0.873567
9  0.000001 1.800632 0.000001  0.002249 0.004864 -0.948281
10  -0.000001 1.243407 0.000001  0.004845 0.004368 -0.804401
11  -0.244725 3.701095 0.087731  -0.013059 0.024865 -0.746408
12  0.000001 1.766586 -0.000001  0.004071 -0.001496 -0.866835
13  0.000000 1.189004 0.000000  -0.013333 -0.011638 -0.759538
14  -0.277238 3.632247 1.274101  0.038868 0.009697 -0.600690
15  0.000003 1.798493 -0.000001  0.027922 0.025554 -0.741251
16  0.000001 1.235452 -0.000002  -0.007625 0.003855 -0.523688
17  0.315443 0.857300 0.755942  1.930500 0.578402 1.467848
18  0.000002 2.265939 0.000001  -0.057535 -0.033451 -0.250071
19  -0.000002 1.457810 0.000000  -0.030127 0.046156 0.023093
20  -1.259678 3.818374 1.286945  0.038868 0.009697 -0.600690
21  -1.226390 3.891694 0.090418  -0.013059 0.024865 -0.746408
22  -1.231622 3.875535 -0.958681  -0.082322 0.048500 -0.873567
23  -1.209919 3.994783 -2.003049  -0.118308 0.035174 -0.880748
24  0.328906 0.095429 1.403532  1.930500 0.578402 1.467848
25  3.739302 -14.780398 28.384197  1.174012 -0.180381 1.443483
26  -3.753834 -25.319534 19.441708  -1.570796 -0.000000 -1.570796
27  13.991735 -21.912710 14.151664  -0.051945 -0.000000 -1.570796
28  -10.879313 -10.438894 -11.810605  1.116534 -0.072231 1.514056
29  -0.000002 13.479278 -0.000001  0.945895 -0.000000 0.000000
30  -0.000001 13.477239 0.000002  -0.036219 1.187956 0.085835
31  0.267270 3.664725 -1.953292  -0.460947 0.085209 1.088458
32  0.000001 1.180355 0.000001  -0.015239 0.034122 1.127932
33  0.000001 0.817134 0.000001  0.011847 0.003300 0.943166
34  0.249424 3.688540 -0.940888  -0.424660 0.091165 1.116984
35  -0.000001 1.800634 -0.000001  0.000989 -0.005266 1.195710
36  0.000001 1.243407 -0.000001  0.003628 -0.005422 1.051829
37  0.244727 3.701094 0.087734  -0.354828 0.115299 1.122151
38  0.000001 1.766585 -0.000000  0.004336 -0.000101 1.242448
39  -0.000001 1.189004 -0.000000  -0.008134 0.015718 1.135168
40  0.277240 3.632245 1.274102  0.054201 -0.011943 0.177044
41  -0.000000 1.798494 -0.000001  0.035950 -0.011837 0.318251
42  0.000000 1.235452 0.000000  -0.007454 -0.004176 0.481101
43  -0.315441 0.857298 0.755944  -0.305463 -2.814040 0.955370
44  0.000000 2.265940 0.000000  -0.046734 0.047387 0.515788
45  -0.000001 1.457811 0.000001  -0.053363 -0.013780 0.716641
46  1.259683 3.818374 1.286946  0.054201 -0.011943 0.177044
47  1.226391 3.891692 0.090421  -0.354828 0.115299 1.122150
48  1.231624 3.875533 -0.958679  -0.424660 0.091165 1.116984
49  1.209920 3.994780 -2.003047  -0.460947 0.085209 1.088458
50  -0.328905 0.095428 1.403533  -0.305464 -2.814040 0.955370
51  -10.530911 -12.192955 12.119275  -1.561906 -2.627474 -0.454865
52  -20.543455 -11.079248 4.599474  -1.570796 -0.000000 1.570796
53  -10.879313 -10.438894 -11.810605  -0.051945 0.000000 1.570796
54  -6.660326 -15.606349 -11.658314  1.810980 0.561896 0.607369
55  0.396053 3.998732 31.950834  -1.535889 -1.570788 0.000000
56  1.262199 1.411919 7.366344  0.000000 0.034907 -0.000000
57  1.073199 1.711410 3.572254  0.000000 0.033161 -0.000000
58  -1.325718 2.109443 7.526389  0.000000 -0.000000 0.000000
time 7
0  0 0 0  0 0 0
1  0.000000 0.000000 0.000000  1.570796 -0.000000 0.000000
2  13.603487 -21.233274 14.151664  0.540732 0.659808 1.968400
3  0.000002 13.479279 0.000002  1.376525 0.000000 -0.000000
4  -0.000000 13.477240 -0.000000  -0.776896 -0.089384 0.854528
5  -0.267269 3.664726 -1.953294  -0.118308 0.035174 -0.880748
6  0.000004 1.180356 0.000000  -0.022123 -0.030120 -0.914402
7  0.000002 0.817136 -0.000001  0.010879 -0.005735 -0.729721
8  -0.249422 3.688541 -0.940890  -0.082322 0.048500 -0.873567
9  0.000002 1.800631 -0.000002  0.002249 0.004864 -0.948281
10  0.000002 1.243404 -0.000002  0.004845 0.004368 -0.804401
11  -0.244726 3.701095 0.087731  -0.013059 0.024865 -0.746408
12  -0.000001 1.766585 0.000001  0.004071 -0.001496 -0.866835
13  0.000004 1.189004 -0.000000  -0.013333 -0.011638 -0.759538
14  -0.277238 3.632248 1.274101  0.038868 0.009697 -0.600690
15  -0.000001 1.798494 0.000000  0.027922 0.025554 -0.741251
16  -0.000000 1.235451 0.000001  -0.007625 0.003855 -0.523688
17  0.315442 0.857300 0.755943  1.930500 0.578402 1.467848
18  0.000001 2.265941 0.000002  -0.057535 -0.033451 -0.250071
19  0.000001 1.457807 -0.000000  -0.030127 0.046156 0.023093
20  -1.259681 3.818375 1.286945  0.038868 0.009697 -0.600690
21  -1.226390 3.891693 0.090418  -0.013059 0.024865 -0.746408
22  -1.231622 3.875536 -0.958681  -0.082322 0.048500 -0.873567
23  -1.209918 3.994781 -2.003049  -0.118308 0.035174 -0.880748
24  0.328907 0.095430 1.403532  1.930500 0.578402 1.467848
25  2.513109 -12.851059 29.648785  1.081738 -0.133899 1.619221
26  -3.686666 -24.043396 19.441708  -1.570796 -0.000000 -1.570796
27  13.603487 -21.233274 14.151664  -0.051945 -0.000000 -1.570796
28  -10.618258 -10.639816 -12.245533  1.142230 -0.109510 1.635761
29  0.000000 13.479277 0.000001  0.859644 -0.000000 0.000000
30  0.000001 13.477238 0.000000  -0.102300 1.191588 -0.075085
31  0.267270 3.664725 -1.953293  -0.460947 0.085209 1.088458
32  0.000001 1.180354 -0.000001  -0.015239 0.034122 1.127932
33  0.000001 0.817137 -0.000000  0.011847 0.003300 0.943166
34  0.249424 3.688540 -0.940889  -0.424660 0.091165 1.116984
35  -0.000000 1.800632 -0.000000  0.000989 -0.005266 1.195710
36  0.000001 1.243406 0.000000  0.003628 -0.005422 1.051829
37  0.244727 3.701095 0.087732  -0.354828 0.115299 1.122150
38  0.000001 1.766584 -0.000001  0.004336 -0.000101 1.242448
39  -0.000001 1.189004 -0.000000  -0.008134 0.015718 1.135167
40  0.277240 3.632247 1.274101  0.054201 -0.011943 0.177044
41  0.000001 1.798495 0.000000  0.035950 -0.011837 0.318251
42  -0.000001 1.235452 -0.000001  -0.007454 -0.004176 0.481101
43  -0.315440 0.857298 0.755942  -0.305463 -2.814040 0.955370
44  -0.000001 2.265938 0.000000  -0.046734 0.047387 0.515788
45  -0.000001 1.457811 -0.000001  -0.053363 -0.013780 0.716642
46  1.259682 3.818373 1.286945  0.054201 -0.011943 0.177044
47  1.226392 3.891693 0.090419  -0.354828 0.115299 1.122150
48  1.231624 3.875534 -0.958681  -0.424660 0.091165 1.116984
49  1.209918 3.994781 -2.003048  -0.460947 0.085209 1.088458
50  -0.328906 0.095428 1.403532  -0.305463 -2.814040 0.955370
51  -10.414585 -13.310322 12.111813  -1.546732 -2.728869 -0.300373
52  -18.828007 -12.948822 3.863310  -1.570796 -0.000000 1.570796
53  -10.618258 -10.639816 -12.245533  -0.051945 0.000000 1.570796
54  -7.017602 -15.878348 -12.006225  1.668897 0.447759 0.448898
55  0.396052 3.998728 31.950834  -1.535889 -1.570788 0.000000
56  1.262198 1.411918 7.366342  0.000000 0.034907 -0.000000
57  1.073198 1.711409 3.572253  0.000000 0.033161 0.000000
58  -1.325719 2.109441 7.526387  0.000000 -0.000000 0.000000
time 8
0  0 0 0  0 0 0
1  0.000000 0.000000 0.000000  1.570796 -0.000000 0.000000
2  13.208200 -20.541523 14.151665  0.625180 0.665657 1.948242
3  -0.000000 13.479278 -0.000000  1.160442 0.000000 -0.000000
4  -0.000001 13.477240 -0.000000  -0.749798 -0.017304 0.768670
5  -0.267267 3.664724 -1.953292  -0.118308 0.035174 -0.880748
6  0.000002 1.180355 0.000000  -0.022123 -0.030120 -0.914402
7  0.000001 0.817135 0.000002  0.010879 -0.005735 -0.729721
8  -0.249422 3.688542 -0.940887  -0.082322 0.048500 -0.873567
9  -0.000004 1.800635 0.000000  0.002249 0.004864 -0.948281
10  -0.000002 1.243405 -0.000002  0.004845 0.004368 -0.804401
11  -0.244724 3.701094 0.087734  -0.013059 0.024865 -0.746408
12  0.000000 1.766582 0.000000  0.004071 -0.001497 -0.866835
13  0.000000 1.189005 0.000000  -0.013333 -0.011638 -0.759538
14  -0.277238 3.632247 1.274104  0.038868 0.009697 -0.600690
15  0.000000 1.798491 -0.000001  0.027922 0.025554 -0.741251
16  0.000001 1.235452 0.000001  -0.007625 0.003855 -0.523688
17  0.315443 0.857298 0.755945  1.930500 0.578402 1.467848
18  -0.000001 2.265939 0.000001  -0.057535 -0.033451 -0.250071
19  0.000000 1.457813 -0.000001  -0.030127 0.046156 0.023093
20  -1.259679 3.818373 1.286946  0.038868 0.009697 -0.600690
21  -1.226388 3.891690 0.090418  -0.013059 0.024865 -0.746408
22  -1.231622 3.875532 -0.958680  -0.082322 0.048500 -0.873567
23  -1.209918 3.994779 -2.003048  -0.118308 0.035174 -0.880748
24  0.328908 0.095426 1.403534  1.930500 0.578402 1.467848
25  0.926388 -11.422760 30.711967  0.991677 -0.087459 1.781762
26  -3.618284 -22.744122 19.441708  -1.570796 -0.000000 -1.570796
27  13.208200 -20.541523 14.151665  -0.051945 -0.000000 -1.570796
28  -10.352469 -10.844378 -12.688345  1.168723 -0.138685 1.822508
29  0.000000 13.479277 0.000001  0.760190 -0.000000 0.000000
30  0.000000 13.477238 0.000001  -0.133874 1.138484 -0.167379
31  0.267268 3.664726 -1.953292  -0.460947 0.085209 1.088458
32  0.000000 1.180354 0.000000  -0.015239 0.034122 1.127932
33  -0.000001 0.817134 -0.000003  0.011847 0.003300 0.943166
34  0.249423 3.688542 -0.940887  -0.424660 0.091165 1.116984
35  0.000001 1.800634 0.000001  0.000989 -0.005266 1.195711
36  0.000001 1.243405 -0.000001  0.003628 -0.005422 1.051829
37  0.244727 3.701095 0.087734  -0.354828 0.115299 1.122151
38  0.000000 1.766585 0.000000  0.004336 -0.000101 1.242448
39  0.000000 1.189004 0.000000  -0.008134 0.015718 1.135168
40  0.277240 3.632248 1.274103  0.054201 -0.011943 0.177044
41  -0.000000 1.798495 0.000001  0.035950 -0.011837 0.318251
42  0.000002 1.235451 -0.000000  -0.007454 -0.004176 0.481101
43  -0.315441 0.857300 0.755945  -0.305464 -2.814040 0.955370
44  0.000000 2.265939 0.000001  -0.046734 0.047387 0.515787
45  0.000000 1.457810 0.000000  -0.053364 -0.013780 0.716641
46  1.259680 3.818374 1.286947  0.054201 -0.011943 0.177044
47  1.226391 3.891694 0.090420  -0.354828 0.115299 1.122150
48  1.231622 3.875533 -0.958679  -0.424660 0.091165 1.116984
49  1.209919 3.994780 -2.003047  -0.460947 0.085209 1.088458
50  -0.328905 0.095428 1.403534  -0.305464 -2.814040 0.955370
51  -10.024354 -14.332197 12.097513  -1.533594 -2.828951 -0.152456
52  -17.081461 -14.852285 3.113800  -1.570796 -0.000000 1.570796
53  -10.352469 -10.844378 -12.688345  -0.051945 0.000000 1.570796
54  -7.242738 -16.102348 -12.421474  1.573023 0.319211 0.317875
55  0.396050 3.998729 31.950838  -1.535889 -1.570788 0.000000
56  1.262197 1.411917 7.366344  -0.000000 0.034907 -0.000000
57  1.073197 1.711409 3.572253  -0.000000 0.033161 -0.000000
58  -1.325719 2.109441 7.526390  -0.000000 -0.000000 -0.000000
time 9
0  0 0 0  0 0 0
1  0.000000 0.000000 0.000000  1.570796 -0.000000 0.000000
2  12.819953 -19.862089 14.151665  0.681211 0.657799 1.919662
3  0.000001 13.479276 0.000000  0.955586 0.000000 -0.000000
4  0.000003 13.477238 0.000001  -0.712432 0.042244 0.702290
5  -0.267269 3.664725 -1.953294  -0.118308 0.035174 -0.880748
6  -0.000001 1.180356 0.000002  -0.022123 -0.030120 -0.914402
7  0.000000 0.817135 0.000001  0.010879 -0.005735 -0.729721
8  -0.249422 3.688540 -0.940889  -0.082321 0.048500 -0.873567
9  -0.000002 1.800632 -0.000000  0.002249 0.004864 -0.948281
10  -0.000003 1.243406 0.000000  0.004845 0.004368 -0.804401
11  -0.244726 3.701096 0.087734  -0.013059 0.024865 -0.746408
12  -0.000003 1.766584 -0.000000  0.004071 -0.001496 -0.866835
13  0.000004 1.189003 0.000003  -0.013333 -0.011638 -0.759538
14  -0.277240 3.632247 1.274101  0.038868 0.009698 -0.600690
15  0.000001 1.798494 -0.000001  0.027922 0.025554 -0.741251
16  0.000001 1.235452 0.000001  -0.007625 0.003855 -0.523688
17  0.315442 0.857301 0.755943  1.930500 0.578402 1.467848
18  0.000000 2.265940 0.000001  -0.057535 -0.033451 -0.250071
19  0.000000 1.457807 -0.000000  -0.030127 0.046156 0.023093
20  -1.259681 3.818375 1.286947  0.038868 0.009697 -0.600690
21  -1.226390 3.891695 0.090420  -0.013059 0.024865 -0.746408
22  -1.231622 3.875532 -0.958680  -0.082322 0.048500 -0.873567
23  -1.209919 3.994781 -2.003048  -0.118308 0.035174 -0.880748
24  0.328906 0.095428 1.403532  1.930500 0.578402 1.467848
25  -0.768823 -10.534513 31.509993  0.908751 -0.045544 1.919236
26  -3.551121 -21.467981 19.441708  -1.570796 -0.000000 -1.570796
27  12.819953 -19.862089 14.151665  -0.051945 -0.000000 -1.570796
28  -10.091414 -11.045300 -13.123274  1.184824 -0.149941 2.085871
29  -0.000001 13.479275 0.000001  0.657412 -0.000000 0.000000
30  -0.000000 13.477239 -0.000001  -0.107791 1.006833 -0.166159
31  0.267269 3.664726 -1.953294  -0.460947 0.085209 1.088458
32  0.000001 1.180355 0.000003  -0.015239 0.034122 1.127932
33  0.000000 0.817137 -0.000000  0.011847 0.003300 0.943166
34  0.249423 3.688540 -0.940890  -0.424660 0.091165 1.116984
35  -0.000002 1.800632 -0.000002  0.000989 -0.005266 1.195710
36  0.000000 1.243406 -0.000001  0.003628 -0.005422 1.051829
37  0.244726 3.701096 0.087733  -0.354828 0.115299 1.122151
38  -0.000002 1.766585 0.000000  0.004336 -0.000101 1.242448
39  0.000000 1.189003 0.000000  -0.008134 0.015718 1.135168
40  0.277240 3.632247 1.274101  0.054201 -0.011943 0.177044
41  -0.000000 1.798494 0.000001  0.035950 -0.011837 0.318250
42  -0.000002 1.235451 0.000000  -0.007454 -0.004176 0.481101
43  -0.315441 0.857299 0.755942  -0.305464 -2.814040 0.955370
44  0.000000 2.265940 -0.000000  -0.046734 0.047387 0.515788
45  -0.000000 1.457812 0.000001  -0.053364 -0.013780 0.716642
46  1.259681 3.818374 1.286945  0.054201 -0.011943 0.177044
47  1.226390 3.891693 0.090418  -0.354828 0.115299 1.122151
48  1.231624 3.875534 -0.958682  -0.424660 0.091165 1.116984
49  1.209920 3.994781 -2.003049  -0.460947 0.085209 1.088458
50  -0.328905 0.095428 1.403532  -0.305464 -2.814040 0.955370
51  -9.488503 -15.076149 12.062054  -1.523888 -2.921225 -0.023055
52  -15.366013 -16.721859 2.377636  -1.570796 -0.000000 1.570796
53  -10.091414 -11.045300 -13.123274  -0.051945 0.000000 1.570796
54  -7.360013 -16.254349 -12.769385  1.519903 0.196550 0.213001
55  0.396051 3.998729 31.950838  -1.535889 -1.570788 0.000000
56  1.262198 1.411918 7.366345  0.000000 0.034907 0.000000
57  1.073197 1.711409 3.572255  0.000000 0.033161 0.000000
58  -1.325720 2.109441 7.526392  0.000000 -0.000000 0.000000
time 10
0  0 0 0  0 0 0
1  0.000000 0.000000 0.000000  1.570796 -0.000000 0.000000
2  12.452818 -19.219604 14.151665  0.711970 0.638460 1.884362
3  0.000004 13.479280 0.000001  0.786752 0.000000 -0.000000
4  0.000001 13.477242 -0.000000  -0.673651 0.092606 0.657821
5  -0.267269 3.664725 -1.953292  -0.118308 0.035174 -0.880748
6  -0.000001 1.180356 0.000001  -0.022123 -0.030120 -0.914402
7  0.000002 0.817135 0.000000  0.010879 -0.005735 -0.729721
8  -0.249422 3.688539 -0.940890  -0.082322 0.048500 -0.873567
9  -0.000000 1.800633 0.000001  0.002249 0.004864 -0.948281
10  -0.000002 1.243406 -0.000001  0.004845 0.004368 -0.804401
11  -0.244726 3.701094 0.087732  -0.013059 0.024865 -0.746408
12  0.000001 1.766585 -0.000002  0.004071 -0.001497 -0.866835
13  0.000000 1.189004 0.000002  -0.013333 -0.011638 -0.759538
14  -0.277239 3.632246 1.274102  0.038868 0.009697 -0.600690
15  -0.000000 1.798495 -0.000002  0.027922 0.025554 -0.741251
16  0.000000 1.235452 -0.000000  -0.007625 0.003855 -0.523688
17  0.315442 0.857296 0.755941  1.930500 0.578402 1.467848
18  0.000001 2.265941 -0.000002  -0.057535 -0.033451 -0.250071
19  0.000000 1.457809 -0.000001  -0.030127 0.046156 0.023093
20  -1.259680 3.818374 1.286945  0.038868 0.009697 -0.600690
21  -1.226391 3.891689 0.090417  -0.013059 0.024865 -0.746408
22  -1.231623 3.875533 -0.958680  -0.082322 0.048500 -0.873567
23  -1.209919 3.994780 -2.003050  -0.118308 0.035174 -0.880748
24  0.328907 0.095428 1.403533  1.930500 0.578402 1.467848
25  -2.267208 -10.054156 32.017227  0.837855 -0.012661 2.020869
26  -3.487606 -20.261238 19.441708  -1.570796 -0.000000 -1.570796
27  12.452818 -19.219604 14.151665  -0.051945 -0.000000 -1.570796
28  -9.844555 -11.235294 -13.534553  1.191248 -0.136521 2.391788
29  0.000000 13.479276 0.000002  0.569427 -0.000000 0.000000
30  0.000001 13.477237 -0.000001  -0.071918 0.809040 -0.129243
31  0.267269 3.664727 -1.953294  -0.460947 0.085209 1.088458
32  0.000002 1.180357 -0.000002  -0.015239 0.034122 1.127932
33  0.000000 0.817134 0.000002  0.011847 0.003300 0.943166
34  0.249422 3.688541 -0.940890  -0.424660 0.091165 1.116984
35  -0.000001 1.800634 0.000001  0.000989 -0.005266 1.195711
36  -0.000000 1.243408 0.000002  0.003628 -0.005422 1.051829
37  0.244726 3.701096 0.087732  -0.354828 0.115299 1.122151
38  -0.000002 1.766585 -0.000001  0.004336 -0.000101 1.242448
39  -0.000001 1.189003 0.000000  -0.008134 0.015718 1.135168
40  0.277238 3.632248 1.274102  0.054201 -0.011943 0.177044
41  0.000001 1.798495 0.000000  0.035950 -0.011837 0.318251
42  -0.000001 1.235449 -0.000000  -0.007454 -0.004176 0.481101
43  -0.315441 0.857300 0.755943  -0.305464 -2.814040 0.955370
44  0.000001 2.265940 -0.000000  -0.046734 0.047387 0.515788
45  -0.000001 1.457812 0.000002  -0.053363 -0.013780 0.716642
46  1.259681 3.818375 1.286944  0.054201 -0.011943 0.177044
47  1.226391 3.891694 0.090419  -0.354828 0.115299 1.122150
48  1.231623 3.875533 -0.958681  -0.424660 0.091165 1.116984
49  1.209919 3.994784 -2.003049  -0.460947 0.085209 1.088458
50  -0.328907 0.095429 1.403533  -0.305463 -2.814040 0.955370
51  -8.949348 -15.417283 11.980574  -1.519022 -2.999199 0.075634
52  -13.743851 -18.489765 1.681503  -1.570796 -0.000000 1.570796
53  -9.844555 -11.235294 -13.534553  -0.051945 0.000000 1.570796
54  -7.393709 -16.310349 -12.915283  1.499927 0.098999 0.131887
55  0.396052 3.998729 31.950840  -1.535889 -1.570788 0.000000
56  1.262199 1.411917 7.366349  0.000000 0.034907 0.000000
57  1.073199 1.711408 3.572258  0.000000 0.033161 0.000000
58  -1.325718 2.109441 7.526392  0.000000 0.000000 0.000000
time 11
0  0 0 0  0 0 0
1  0.000000 0.000000 0.000000  1.570796 -0.000000 0.000000
2  12.120872 -18.638697 14.151664  0.715808 0.607326 1.843477
3  -0.000002 13.479275 0.000000  0.675958 0.000000 -0.000000
4  0.000001 13.477238 0.000000  -0.640905 0.138878 0.627447
5  -0.267270 3.664727 -1.953294  -0.118308 0.035174 -0.880748
6  -0.000003 1.180355 0.000003  -0.022123 -0.030120 -0.914402
7  0.000000 0.817135 -0.000003  0.010879 -0.005735 -0.729721
8  -0.249423 3.688541 -0.940890  -0.082322 0.048500 -0.873567
9  -0.000001 1.800632 0.000000  0.002249 0.004864 -0.948281
10  0.000000 1.243407 -0.000000  0.004845 0.004368 -0.804401
11  -0.244727 3.701094 0.087733  -0.013059 0.024865 -0.746408
12  -0.000003 1.766584 0.000000  0.004071 -0.001497 -0.866835
13  0.000000 1.189004 -0.000002  -0.013333 -0.011638 -0.759538
14  -0.277239 3.632246 1.274100  0.038868 0.009697 -0.600690
15  0.000000 1.798491 -0.000003  0.027922 0.025554 -0.741251
16  -0.000003 1.235451 0.000001  -0.007625 0.003855 -0.523688
17  0.315441 0.857299 0.755943  1.930500 0.578402 1.467848
18  0.000000 2.265940 0.000002  -0.057535 -0.033450 -0.250071
19  -0.000001 1.457812 -0.000001  -0.030127 0.046156 0.023093
20  -1.259682 3.818373 1.286945  0.038868 0.009697 -0.600690
21  -1.226391 3.891693 0.090419  -0.013059 0.024865 -0.746408
22  -1.231625 3.875535 -0.958681  -0.082322 0.048500 -0.873567
23  -1.209919 3.994782 -2.003048  -0.118308 0.035174 -0.880748
24  0.328906 0.095427 1.403532  1.930500 0.578402 1.467848
25  -3.383055 -9.874452 32.305382  0.782815 0.007948 2.085601
26  -3.430182 -19.170156 19.441708  -1.570796 -0.000000 -1.570796
27  12.120872 -18.638697 14.151664  -0.051945 -0.000000 -1.570796
28  -9.621357 -11.407080 -13.906408  1.203719 -0.109820 2.662007
29  -0.000001 13.479275 -0.000001  0.496118 0.000000 0.000000
30  -0.000000 13.477239 0.000002  -0.047348 0.610627 -0.098189
31  0.267269 3.664727 -1.953292  -0.460947 0.085209 1.088458
32  0.000000 1.180354 0.000003  -0.015239 0.034122 1.127932
33  0.000001 0.817135 0.000001  0.011847 0.003300 0.943166
34  0.249422 3.688542 -0.940888  -0.424660 0.091165 1.116984
35  -0.000001 1.800633 0.000002  0.000989 -0.005266 1.195711
36  0.000001 1.243407 -0.000001  0.003628 -0.005422 1.051829
37  0.244726 3.701096 0.087733  -0.354828 0.115299 1.122151
38  -0.000001 1.766585 0.000001  0.004336 -0.000101 1.242448
39  0.000000 1.189004 -0.000000  -0.008134 0.015718 1.135168
40  0.277238 3.632249 1.274103  0.054201 -0.011943 0.177044
41  -0.000001 1.798495 -0.000000  0.035950 -0.011837 0.318251
42  -0.000002 1.235452 0.000001  -0.007454 -0.004176 0.481101
43  -0.315441 0.857301 0.755944  -0.305463 -2.814040 0.955370
44  0.000002 2.265940 -0.000000  -0.046734 0.047387 0.515788
45  -0.000001 1.457811 0.000001  -0.053363 -0.013780 0.716641
46  1.259680 3.818375 1.286946  0.054201 -0.011943 0.177044
47  1.226390 3.891693 0.090420  -0.354828 0.115299 1.122150
48  1.231623 3.875536 -0.958680  -0.424660 0.091165 1.116984
49  1.209920 3.994781 -2.003048  -0.460947 0.085209 1.088458
50  -0.328906 0.095430 1.403533  -0.305463 -2.814040 0.955370
51  -8.530338 -15.472364 11.883570  1.621609 -0.083630 -3.001247
52  -12.277168 -20.088223 1.052095  -1.570796 -0.000000 1.570796
53  -9.621357 -11.407080 -13.906408  -0.051945 0.000000 1.570796
54  -7.393709 -16.310349 -12.915283  1.500551 0.034018 0.073580
55  0.396053 3.998729 31.950840  -1.535889 -1.570788 0.000000
56  1.262199 1.411919 7.366346  -0.000000 0.034907 0.000000
57  1.073199 1.711410 3.572255  -0.000000 0.033161 0.000000
58  -1.325718 2.109442 7.526390  -0.000000 0.000000 0.000000
time 12
0  0 0 0  0 0 0
1  0.000000 0.000000 0.000000  1.570796 -0.000000 0.000000
2  11.838189 -18.144003 14.151665  0.697589 0.565037 1.799353
3  -0.000002 13.479279 -0.000001  0.620647 -0.000000 -0.000000
4  -0.000000 13.477238 0.000001  -0.615053 0.187109 0.602201
5  -0.267270 3.664722 -1.953297  -0.118308 0.035174 -0.880748
6  0.000001 1.180355 -0.000002  -0.022123 -0.030120 -0.914402
7  0.000001 0.817134 0.000001  0.010879 -0.005735 -0.729721
8  -0.249423 3.688537 -0.940892  -0.082322 0.048500 -0.873567
9  0.000003 1.800633 -0.000001  0.002249 0.004864 -0.948281
10  -0.000001 1.243407 -0.000000  0.004845 0.004368 -0.804401
11  -0.244727 3.701092 0.087732  -0.013059 0.024865 -0.746408
12  -0.000000 1.766587 0.000001  0.004071 -0.001497 -0.866835
13  0.000001 1.189002 -0.000002  -0.013333 -0.011638 -0.759538
14  -0.277240 3.632245 1.274101  0.038868 0.009697 -0.600690
15  0.000004 1.798496 0.000000  0.027922 0.025554 -0.741251
16  0.000003 1.235453 -0.000001  -0.007625 0.003855 -0.523688
17  0.315440 0.857297 0.755941  1.930500 0.578402 1.467848
18  0.000000 2.265939 -0.000003  -0.057535 -0.033450 -0.250071
19  0.000000 1.457810 0.000000  -0.030127 0.046156 0.023093
20  -1.259682 3.818368 1.286941  0.038868 0.009697 -0.600690
21  -1.226391 3.891691 0.090420  -0.013059 0.024865 -0.746408
22  -1.231624 3.875531 -0.958681  -0.082322 0.048500 -0.873567
23  -1.209920 3.994779 -2.003050  -0.118308 0.035174 -0.880748
24  0.328905 0.095426 1.403530  1.930500 0.578402 1.467848
25  -4.136999 -9.926432 32.485443  0.742653 0.017664 2.124286
26  -3.381277 -18.241003 19.441708  -1.570796 -0.000000 -1.570796
27  11.838189 -18.144003 14.151665  -0.051945 -0.000000 -1.570796
28  -9.431284 -11.553370 -14.223080  1.229204 -0.085524 2.855212
29  -0.000002 13.479276 0.000002  0.423503 0.000000 0.000000
30  -0.000000 13.477238 -0.000000  -0.024769 0.461057 -0.078621
31  0.267269 3.664727 -1.953294  -0.460947 0.085209 1.088458
32  -0.000001 1.180355 -0.000003  -0.015239 0.034122 1.127932
33  -0.000002 0.817135 -0.000000  0.011847 0.003300 0.943166
34  0.249423 3.688542 -0.940888  -0.424660 0.091165 1.116984
35  0.000000 1.800633 -0.000002  0.000989 -0.005266 1.195710
36  0.000002 1.243407 0.000002  0.003628 -0.005422 1.051829
37  0.244726 3.701096 0.087733  -0.354828 0.115299 1.122151
38  -0.000000 1.766584 0.000000  0.004336 -0.000101 1.242448
39  0.000000 1.189002 -0.000001  -0.008134 0.015718 1.135168
40  0.277239 3.632249 1.274102  0.054201 -0.011943 0.177044
41  -0.000001 1.798493 -0.000000  0.035950 -0.011837 0.318251
42  0.000002 1.235452 -0.000001  -0.007454 -0.004176 0.481101
43  -0.315442 0.857300 0.755944  -0.305463 -2.814040 0.955370
44  -0.000002 2.265939 -0.000000  -0.046734 0.047387 0.515788
45  0.000000 1.457811 -0.000000  -0.053364 -0.013780 0.716642
46  1.259681 3.818375 1.286945  0.054201 -0.011943 0.177044
47  1.226391 3.891693 0.090418  -0.354828 0.115299 1.122151
48  1.231624 3.875534 -0.958681  -0.424660 0.091165 1.116984
49  1.209919 3.994781 -2.003048  -0.460947 0.085209 1.088458
50  -0.328906 0.095427 1.403533  -0.305464 -2.814040 0.955370
51  -8.254026 -15.457570 11.813286  1.615968 -0.042698 -2.961692
52  -11.028152 -21.449453 0.516096  -1.570796 -0.000000 1.570796
53  -9.431284 -11.553370 -14.223080  -0.051945 0.000000 1.570796
54  -7.393709 -16.310349 -12.915283  1.510506 -0.005768 0.034201
55  0.396051 3.998730 31.950834  -1.535889 -1.570788 0.000000
56  1.262198 1.411917 7.366343  0.000000 0.034907 0.000000
57  1.073198 1.711409 3.572254  0.000000 0.033161 -0.000000
58  -1.325719 2.109440 7.526390  0.000000 -0.000000 0.000000
time 13
0  0 0 0  0 0 0
1  0.000000 0.000000 0.000000  1.570796 -0.000000 0.000000
2  11.618847 -17.760155 14.151665  0.669158 0.520241 1.758683
3  0.000005 13.479279 0.000001  0.607119 -0.000000 -0.000000
4  -0.000003 13.477240 -0.000000  -0.598383 0.232777 0.580935
5  -0.267270 3.664722 -1.953292  -0.118308 0.035174 -0.880748
6  0.000003 1.180357 -0.000002  -0.022123 -0.030120 -0.914402
7  0.000000 0.817137 -0.000000  0.010879 -0.005735 -0.729721
8  -0.249423 3.688540 -0.940885  -0.082322 0.048500 -0.873567
9  -0.000000 1.800636 -0.000001  0.002249 0.004864 -0.948281
10  -0.000001 1.243406 -0.000000  0.004845 0.004368 -0.804402
11  -0.244727 3.701092 0.087734  -0.013059 0.024865 -0.746408
12  0.000003 1.766582 -0.000001  0.004071 -0.001497 -0.866835
13  -0.000000 1.189002 -0.000001  -0.013333 -0.011638 -0.759538
14  -0.277239 3.632242 1.274101  0.038868 0.009698 -0.600690
15  -0.000000 1.798494 -0.000000  0.027922 0.025554 -0.741251
16  0.000003 1.235450 0.000002  -0.007625 0.003855 -0.523688
17  0.315442 0.857295 0.755943  1.930500 0.578402 1.467848
18  0.000000 2.265942 -0.000001  -0.057535 -0.033451 -0.250071
19  0.000000 1.457814 -0.000001  -0.030127 0.046156 0.023093
20  -1.259682 3.818371 1.286947  0.038868 0.009698 -0.600690
21  -1.226391 3.891691 0.090422  -0.013059 0.024865 -0.746408
22  -1.231624 3.875532 -0.958678  -0.082322 0.048500 -0.873567
23  -1.209920 3.994778 -2.003047  -0.118308 0.035174 -0.880748
24  0.328906 0.095427 1.403535  1.930500 0.578402 1.467848
25  -4.584405 -10.084361 32.597359  0.715195 0.019034 2.143972
26  -3.343332 -17.520041 19.441708  -1.570796 -0.000000 -1.570796
27  11.618847 -17.760155 14.151665  -0.051945 -0.000000 -1.570796
28  -9.283799 -11.666880 -14.468793  1.258558 -0.067726 2.979126
29  -0.000001 13.479276 -0.000002  0.359517 0.000000 0.000000
30  -0.000001 13.477241 0.000002  -0.007706 0.359982 -0.067775
31  0.267270 3.664725 -1.953292  -0.460947 0.085209 1.088458
32  -0.000003 1.180354 -0.000004  -0.015239 0.034122 1.127932
33  -0.000000 0.817135 -0.000001  0.011847 0.003300 0.943166
34  0.249423 3.688540 -0.940889  -0.424660 0.091165 1.116984
35  -0.000002 1.800633 0.000002  0.000989 -0.005266 1.195711
36  0.000001 1.243405 -0.000001  0.003628 -0.005422 1.051829
37  0.244727 3.701093 0.087734  -0.354828 0.115299 1.122151
38  -0.000001 1.766584 0.000000  0.004336 -0.000101 1.242448
39  -0.000001 1.189004 0.000001  -0.008134 0.015718 1.135168
40  0.277240 3.632246 1.274104  0.054201 -0.011943 0.177044
41  0.000000 1.798496 -0.000001  0.035950 -0.011837 0.318251
42  -0.000001 1.235450 0.000000  -0.007454 -0.004176 0.481101
43  -0.315441 0.857299 0.755945  -0.305463 -2.814040 0.955370
44  0.000000 2.265939 0.000000  -0.046734 0.047387 0.515787
45  0.000001 1.457810 0.000000  -0.053363 -0.013780 0.716642
46  1.259681 3.818373 1.286947  0.054201 -0.011943 0.177044
47  1.226390 3.891693 0.090421  -0.354828 0.115299 1.122150
48  1.231623 3.875533 -0.958679  -0.424660 0.091165 1.116984
49  1.209919 3.994781 -2.003045  -0.460947 0.085209 1.088458
50  -0.328906 0.095427 1.403534  -0.305463 -2.814040 0.955370
51  -8.094841 -15.412255 11.760568  1.607231 -0.016635 -2.941243
52  -10.059004 -22.505678 0.100197  -1.570796 -0.000000 1.570796
53  -9.283799 -11.666880 -14.468793  -0.051945 0.000000 1.570796
54  -7.393709 -16.310349 -12.915283  1.523559 -0.026249 0.010048
55  0.396052 3.998730 31.950836  -1.535889 -1.570788 0.000000
56  1.262199 1.411917 7.366343  -0.000000 0.034907 -0.000000
57  1.073199 1.711409 3.572254  -0.000000 0.033161 0.000000
58  -1.325718 2.109442 7.526390  -0.000000 -0.000000 -0.000000
time 14
0  0 0 0  0 0 0
1  0.000000 0.000000 0.000000  1.570796 -0.000000 0.000000
2  11.476919 -17.511780 14.151665  0.642407 0.482480 1.728123
3  0.000002 13.479280 0.000002  0.615589 0.000000 -0.000000
4  0.000000 13.477240 0.000001  -0.590119 0.267570 0.565201
5  -0.267268 3.664726 -1.953291  -0.118308 0.035174 -0.880749
6  -0.000001 1.180356 0.000001  -0.022123 -0.030120 -0.914402
7  -0.000001 0.817135 0.000001  0.010879 -0.005735 -0.729721
8  -0.249422 3.688543 -0.940886  -0.082322 0.048500 -0.873567
9  0.000002 1.800635 -0.000002  0.002249 0.004864 -0.948281
10  0.000003 1.243407 0.000001  0.004845 0.004368 -0.804401
11  -0.244726 3.701094 0.087733  -0.013059 0.024865 -0.746408
12  0.000001 1.766586 -0.000003  0.004071 -0.001497 -0.866835
13  -0.000001 1.189005 -0.000001  -0.013333 -0.011638 -0.759538
14  -0.277238 3.632247 1.274103  0.038868 0.009697 -0.600690
15  -0.000001 1.798494 -0.000005  0.027922 0.025554 -0.741251
16  0.000001 1.235451 -0.000004  -0.007625 0.003855 -0.523688
17  0.315442 0.857299 0.755945  1.930500 0.578402 1.467848
18  -0.000000 2.265937 0.000003  -0.057535 -0.033450 -0.250071
19  -0.000000 1.457810 -0.000000  -0.030127 0.046156 0.023093
20  -1.259680 3.818374 1.286946  0.038868 0.009698 -0.600690
21  -1.226389 3.891694 0.090421  -0.013059 0.024865 -0.746408
22  -1.231622 3.875535 -0.958677  -0.082322 0.048500 -0.873567
23  -1.209919 3.994782 -2.003048  -0.118308 0.035174 -0.880748
24  0.328907 0.095429 1.403534  1.930500 0.578402 1.467848
25  -4.797089 -10.275697 32.664654  0.698253 0.014589 2.151182
26  -3.318781 -17.053537 19.441708  -1.570796 -0.000000 -1.570796
27  11.476919 -17.511780 14.151665  -0.051945 -0.000000 -1.570796
28  -9.188369 -11.740328 -14.627786  1.281313 -0.056755 3.048525
29  -0.000000 13.479277 0.000001  0.315760 -0.000000 0.000000
30  0.000000 13.477240 0.000000  -0.000565 0.299481 -0.062284
31  0.267270 3.664728 -1.953292  -0.460947 0.085209 1.088458
32  -0.000002 1.180356 -0.000001  -0.015239 0.034122 1.127932
33  -0.000001 0.817134 -0.000000  0.011847 0.003300 0.943166
34  0.249423 3.688544 -0.940889  -0.424660 0.091165 1.116984
35  -0.000003 1.800633 -0.000002  0.000989 -0.005266 1.195710
36  0.000001 1.243406 0.000002  0.003628 -0.005422 1.051829
37  0.244726 3.701097 0.087734  -0.354828 0.115299 1.122151
38  0.000000 1.766585 -0.000001  0.004336 -0.000101 1.242448
39  -0.000000 1.189003 0.000001  -0.008134 0.015718 1.135168
40  0.277240 3.632250 1.274102  0.054201 -0.011943 0.177044
41  -0.000000 1.798492 0.000001  0.035950 -0.011837 0.318251
42  0.000000 1.235451 -0.000001  -0.007454 -0.004176 0.481101
43  -0.315442 0.857301 0.755944  -0.305464 -2.814040 0.955370
44  0.000001 2.265941 -0.000001  -0.046734 0.047387 0.515787
45  0.000001 1.457810 -0.000000  -0.053363 -0.013780 0.716641
46  1.259681 3.818376 1.286946  0.054201 -0.011943 0.177044
47  1.226391 3.891694 0.090421  -0.354828 0.115299 1.122150
48  1.231623 3.875536 -0.958678  -0.424660 0.091165 1.116984
49  1.209919 3.994782 -2.003048  -0.460947 0.085209 1.088458
50  -0.328906 0.095429 1.403533  -0.305463 -2.814040 0.955370
51  -8.022518 -15.357995 11.720716  1.596923 -0.002476 -2.933649
52  -9.431908 -23.189116 -0.168914  -1.570796 -0.000000 1.570796
53  -9.188369 -11.740328 -14.627786  -0.051945 0.000000 1.570796
54  -7.393709 -16.310349 -12.915283  1.536499 -0.033796 -0.002115
55  0.396052 3.998729 31.950836  -1.535889 -1.570788 0.000000
56  1.262198 1.411916 7.366344  0.000000 0.034907 0.000000
57  1.073198 1.711408 3.572253  0.000000 0.033161 0.000000
58  -1.325719 2.109441 7.526388  0.000000 0.000000 0.000000
time 15
0  0 0 0  0 0 0
1  0.000000 0.000000 0.000000  1.570796 -0.000000 0.000000
2  11.426482 -17.423515 14.151665  0.626718 0.460929 1.713564
3  0.000001 13.479278 -0.000003  0.627096 0.000000 -0.000000
4  -0.000001 13.477236 0.000000  -0.588193 0.283733 0.559045
5  -0.267270 3.664726 -1.953297  -0.118308 0.035174 -0.880748
6  -0.000001 1.180354 -0.000001  -0.022123 -0.030120 -0.914402
7  0.000000 0.817138 0.000001  0.010879 -0.005735 -0.729721
8  -0.249424 3.688543 -0.940890  -0.082322 0.048500 -0.873567
9  -0.000003 1.800634 -0.000002  0.002248 0.004864 -0.948281
10  0.000000 1.243409 -0.000001  0.004845 0.004368 -0.804401
11  -0.244727 3.701097 0.087733  -0.013059 0.024865 -0.746408
12  0.000003 1.766585 0.000000  0.004071 -0.001497 -0.866834
13  0.000001 1.189003 0.000000  -0.013333 -0.011638 -0.759537
14  -0.277240 3.632247 1.274097  0.038868 0.009697 -0.600690
15  -0.000001 1.798496 0.000000  0.027922 0.025554 -0.741251
16  0.000002 1.235452 -0.000001  -0.007625 0.003855 -0.523688
17  0.315441 0.857300 0.755942  1.930500 0.578402 1.467848
18  0.000000 2.265940 -0.000002  -0.057535 -0.033450 -0.250071
19  0.000000 1.457813 -0.000000  -0.030127 0.046156 0.023093
20  -1.259681 3.818376 1.286945  0.038868 0.009697 -0.600690
21  -1.226390 3.891693 0.090414  -0.013059 0.024865 -0.746408
22  -1.231624 3.875535 -0.958683  -0.082322 0.048500 -0.873567
23  -1.209919 3.994781 -2.003051  -0.118308 0.035174 -0.880748
24  0.328905 0.095430 1.403530  1.930500 0.578402 1.467848
25  -4.848438 -10.456612 32.700886  0.689616 0.006830 2.152210
26  -3.310055 -16.887754 19.441708  -1.570796 -0.000000 -1.570796
27  11.426482 -17.423515 14.151665  -0.051945 -0.000000 -1.570796
28  -9.154455 -11.766430 -14.684287  1.286837 -0.052770 3.071577
29  -0.000001 13.479280 0.000001  0.308059 0.000000 0.000000
30  -0.000000 13.477241 0.000002  -0.010050 0.277654 -0.062501
31  0.267269 3.664726 -1.953294  -0.460947 0.085209 1.088458
32  -0.000001 1.180356 -0.000000  -0.015239 0.034122 1.127932
33  -0.000000 0.817136 0.000002  0.011847 0.003300 0.943166
34  0.249423 3.688541 -0.940891  -0.424660 0.091165 1.116984
35  -0.000000 1.800633 -0.000000  0.000989 -0.005266 1.195710
36  -0.000001 1.243406 -0.000001  0.003628 -0.005422 1.051829
37  0.244727 3.701096 0.087731  -0.354828 0.115299 1.122151
38  0.000000 1.766584 -0.000001  0.004336 -0.000101 1.242448
39  -0.000000 1.189003 0.000002  -0.008134 0.015718 1.135168
40  0.277240 3.632247 1.274101  0.054201 -0.011943 0.177044
41  -0.000000 1.798493 0.000000  0.035950 -0.011837 0.318251
42  0.000000 1.235450 0.000001  -0.007454 -0.004176 0.481101
43  -0.315440 0.857300 0.755943  -0.305463 -2.814040 0.955370
44  0.000001 2.265940 0.000000  -0.046734 0.047387 0.515787
45  0.000001 1.457812 -0.000000  -0.053363 -0.013780 0.716642
46  1.259680 3.818375 1.286945  0.054201 -0.011943 0.177044
47  1.226391 3.891694 0.090417  -0.354828 0.115299 1.122150
48  1.231623 3.875534 -0.958681  -0.424660 0.091165 1.116984
49  1.209920 3.994781 -2.003050  -0.460947 0.085209 1.088458
50  -0.328906 0.095428 1.403531  -0.305463 -2.814040 0.955370
51  -8.006174 -15.307005 11.691742  1.586553 0.002745 -2.932531
52  -9.209054 -23.431993 -0.264549  -1.570796 -0.000000 1.570796
53  -9.154455 -11.766430 -14.684287  -0.051945 0.000000 1.570796
54  -7.393709 -16.310349 -12.915283  1.547736 -0.034873 -0.005463
55  0.396052 3.998731 31.950834  -1.535889 -1.570788 0.000000
56  1.262198 1.411918 7.366343  0.000000 0.034907 0.000000
57  1.073199 1.711410 3.572254  0.000000 0.033161 -0.000000
58  -1.325719 2.109443 7.526387  0.000000 -0.000000 -0.000000
time 16
0  0 0 0  0 0 0
1  0.000000 0.000000 0.000000  1.570796 -0.000000 0.000000
2  11.426482 -17.423515 14.151665  0.618433 0.450744 1.708960
3  0.000001 13.479278 0.000000  0.637285 0.000000 -0.000000
4  -0.000001 13.477240 0.000001  -0.589959 0.286117 0.557521
5  -0.267271 3.664729 -1.953295  -0.118308 0.035174 -0.880748
6  0.000001 1.180355 -0.000001  -0.022123 -0.030120 -0.914402
7  -0.000003 0.817135 -0.000002  0.010879 -0.005735 -0.729721
8  -0.249424 3.688542 -0.940891  -0.082322 0.048500 -0.873567
9  0.000000 1.800635 0.000000  0.002249 0.004864 -0.948281
10  0.000003 1.243407 0.000000  0.004845 0.004368 -0.804401
11  -0.244727 3.701094 0.087728  -0.013059 0.024865 -0.746408
12  0.000001 1.766586 0.000000  0.004071 -0.001496 -0.866835
13  -0.000003 1.189003 0.000002  -0.013333 -0.011638 -0.759538
14  -0.277239 3.632249 1.274099  0.038868 0.009697 -0.600690
15  0.000001 1.798495 -0.000003  0.027922 0.025554 -0.741251
16  0.000003 1.235451 0.000000  -0.007625 0.003855 -0.523688
17  0.315441 0.857301 0.755941  1.930500 0.578402 1.467848
18  -0.000000 2.265940 -0.000001  -0.057535 -0.033451 -0.250071
19  -0.000000 1.457815 -0.000001  -0.030127 0.046156 0.023093
20  -1.259682 3.818377 1.286944  0.038868 0.009697 -0.600690
21  -1.226391 3.891693 0.090415  -0.013059 0.024865 -0.746408
22  -1.231624 3.875536 -0.958682  -0.082322 0.048500 -0.873567
23  -1.209919 3.994784 -2.003051  -0.118308 0.035174 -0.880748
24  0.328905 0.095428 1.403528  1.930500 0.578402 1.467848
25  -4.825829 -10.610497 32.719704  0.685501 -0.001024 2.148617
26  -3.310055 -16.887754 19.441708  -1.570796 -0.000000 -1.570796
27  11.426482 -17.423515 14.151665  -0.051945 -0.000000 -1.570796
28  -9.154455 -11.766430 -14.684287  1.282001 -0.052123 3.072381
29  -0.000000 13.479277 -0.000000  0.320578 0.000000 0.000000
30  0.000000 13.477239 0.000001  -0.027056 0.272742 -0.064896
31  0.267271 3.664726 -1.953295  -0.460947 0.085209 1.088458
32  -0.000001 1.180355 0.000002  -0.015239 0.034122 1.127932
33  0.000002 0.817136 -0.000002  0.011847 0.003300 0.943166
34  0.249423 3.688541 -0.940888  -0.424660 0.091165 1.116984
35  0.000000 1.800632 0.000001  0.000989 -0.005266 1.195710
36  -0.000001 1.243405 -0.000001  0.003628 -0.005422 1.051829
37  0.244727 3.701094 0.087733  -0.354828 0.115299 1.122151
38  -0.000001 1.766584 -0.000001  0.004336 -0.000101 1.242448
39  -0.000002 1.189003 0.000002  -0.008134 0.015718 1.135168
40  0.277240 3.632248 1.274102  0.054201 -0.011943 0.177044
41  0.000000 1.798494 0.000000  0.035950 -0.011837 0.318251
42  0.000000 1.235451 -0.000000  -0.007454 -0.004176 0.481101
43  -0.315441 0.857300 0.755944  -0.305464 -2.814040 0.955370
44  -0.000001 2.265939 -0.000001  -0.046734 0.047387 0.515788
45  0.000001 1.457811 0.000001  -0.053363 -0.013780 0.716642
46  1.259682 3.818374 1.286946  0.054201 -0.011943 0.177044
47  1.226392 3.891693 0.090419  -0.354828 0.115299 1.122150
48  1.231624 3.875534 -0.958680  -0.424660 0.091165 1.116984
49  1.209920 3.994781 -2.003049  -0.460947 0.085209 1.088458
50  -0.328905 0.095428 1.403532  -0.305463 -2.814040 0.955370
51  -8.018635 -15.263937 11.671356  1.577740 0.003721 -2.936140
52  -9.209054 -23.431993 -0.264549  -1.570796 -0.000000 1.570796
53  -9.154455 -11.766430 -14.684287  -0.051945 0.000000 1.570796
54  -7.393709 -16.310349 -12.915283  1.556547 -0.031247 -0.004896
55  0.396052 3.998731 31.950838  -1.535889 -1.570788 0.000000
56  1.262198 1.411917 7.366345  0.000000 0.034907 -0.000000
57  1.073198 1.711410 3.572254  -0.000000 0.033161 -0.000000
58  -1.325720 2.109442 7.526392  -0.000000 0.000000 -0.000000
time 17
0  0 0 0  0 0 0
1  0.000000 0.000000 0.000000  1.570796 -0.000000 0.000000
2  11.426482 -17.423515 14.151665  0.610069 0.442052 1.705070
3  0.000004 13.479278 0.000001  0.650074 0.000000 -0.000000
4  -0.000001 13.477239 -0.000000  -0.593316 0.284373 0.553428
5  -0.267269 3.664726 -1.953291  -0.118308 0.035174 -0.880748
6  0.000002 1.180354 0.000001  -0.022123 -0.030120 -0.914402
7  0.000000 0.817135 0.000003  0.010879 -0.005735 -0.729721
8  -0.249423 3.688543 -0.940884  -0.082322 0.048500 -0.873567
9  0.000001 1.800634 0.000001  0.002249 0.004864 -0.948281
10  -0.000002 1.243405 -0.000001  0.004845 0.004368 -0.804402
11  -0.244727 3.701097 0.087735  -0.013059 0.024865 -0.746408
12  0.000002 1.766584 0.000003  0.004071 -0.001496 -0.866835
13  0.000000 1.189005 -0.000003  -0.013333 -0.011638 -0.759538
14  -0.277241 3.632248 1.274105  0.038868 0.009698 -0.600690
15  0.000000 1.798491 0.000002  0.027922 0.025554 -0.741251
16  0.000001 1.235452 0.000000  -0.007625 0.003855 -0.523688
17  0.315441 0.857300 0.755946  1.930500 0.578402 1.467848
18  -0.000001 2.265940 -0.000001  -0.057535 -0.033450 -0.250071
19  -0.000000 1.457813 0.000002  -0.030127 0.046156 0.023093
20  -1.259681 3.818375 1.286947  0.038868 0.009697 -0.600690
21  -1.226390 3.891694 0.090423  -0.013059 0.024865 -0.746408
22  -1.231624 3.875536 -0.958676  -0.082322 0.048500 -0.873567
23  -1.209920 3.994783 -2.003044  -0.118308 0.035174 -0.880748
24  0.328905 0.095427 1.403533  1.930500 0.578402 1.467848
25  -4.781454 -10.740005 32.730377  0.683241 -0.007338 2.140007
26  -3.310055 -16.887754 19.441708  -1.570796 -0.000000 -1.570796
27  11.426482 -17.423515 14.151665  -0.051945 -0.000000 -1.570796
28  -9.154455 -11.766430 -14.684287  1.278537 -0.050824 3.073994
29  -0.000001 13.479278 0.000000  0.329718 0.000000 0.000000
30  -0.000002 13.477239 -0.000000  -0.039441 0.262177 -0.064561
31  0.267270 3.664725 -1.953295  -0.460947 0.085209 1.088458
32  -0.000002 1.180355 -0.000000  -0.015239 0.034122 1.127932
33  0.000000 0.817135 -0.000001  0.011847 0.003300 0.943166
34  0.249423 3.688540 -0.940891  -0.424660 0.091165 1.116984
35  0.000000 1.800633 -0.000002  0.000989 -0.005266 1.195710
36  0.000000 1.243407 -0.000000  0.003628 -0.005422 1.051829
37  0.244726 3.701095 0.087732  -0.354828 0.115299 1.122151
38  0.000001 1.766585 -0.000000  0.004336 -0.000101 1.242448
39  -0.000000 1.189003 0.000001  -0.008134 0.015718 1.135168
40  0.277239 3.632247 1.274100  0.054201 -0.011943 0.177044
41  0.000001 1.798495 0.000001  0.035950 -0.011837 0.318250
42  0.000000 1.235453 -0.000003  -0.007454 -0.004176 0.481101
43  -0.315441 0.857300 0.755943  -0.305463 -2.814040 0.955370
44  0.000000 2.265940 0.000000  -0.046734 0.047387 0.515788
45  -0.000001 1.457810 -0.000002  -0.053364 -0.013780 0.716642
46  1.259681 3.818374 1.286945  0.054201 -0.011943 0.177044
47  1.226390 3.891692 0.090417  -0.354828 0.115299 1.122150
48  1.231623 3.875533 -0.958682  -0.424660 0.091165 1.116984
49  1.209918 3.994780 -2.003049  -0.460947 0.085209 1.088458
50  -0.328906 0.095427 1.403531  -0.305464 -2.814040 0.955370
51  -8.045819 -15.228097 11.657114  1.571038 0.003529 -2.944784
52  -9.209054 -23.431993 -0.264549  -1.570796 -0.000000 1.570796
53  -9.154455 -11.766430 -14.684287  -0.051945 0.000000 1.570796
54  -7.393709 -16.310349 -12.915283  1.563043 -0.022600 -0.003543
55  0.396052 3.998730 31.950838  -1.535889 -1.570788 0.000000
56  1.262198 1.411919 7.366342  0.000000 0.034907 -0.000000
57  1.073198 1.711410 3.572253  -0.000000 0.033161 -0.000000
58  -1.325720 2.109442 7.526390  -0.000000 0.000000 0.000000
time 18
0  0 0 0  0 0 0
1  0.000000 0.000000 0.000000  1.570796 -0.000000 0.000000
2  11.426482 -17.423515 14.151665  0.602786 0.435268 1.702057
3  0.000001 13.479278 -0.000000  0.662466 0.000000 -0.000000
4  -0.000002 13.477237 0.000000  -0.597062 0.280480 0.548463
5  -0.267270 3.664728 -1.953294  -0.118308 0.035174 -0.880748
6  0.000000 1.180355 -0.000001  -0.022123 -0.030120 -0.914402
7  0.000003 0.817137 0.000001  0.010879 -0.005735 -0.729721
8  -0.249423 3.688541 -0.940891  -0.082322 0.048500 -0.873567
9  0.000000 1.800633 0.000004  0.002249 0.004864 -0.948281
10  0.000000 1.243408 -0.000000  0.004845 0.004368 -0.804402
11  -0.244727 3.701098 0.087731  -0.013059 0.024865 -0.746408
12  0.000001 1.766583 -0.000003  0.004071 -0.001497 -0.866835
13  0.000000 1.189005 -0.000004  -0.013333 -0.011638 -0.759538
14  -0.277239 3.632248 1.274099  0.038868 0.009698 -0.600690
15  -0.000001 1.798495 0.000004  0.027922 0.025554 -0.741251
16  -0.000001 1.235451 0.000000  -0.007625 0.003855 -0.523688
17  0.315442 0.857302 0.755943  1.930500 0.578402 1.467848
18  0.000000 2.265939 -0.000002  -0.057535 -0.033450 -0.250071
19  -0.000001 1.457810 0.000001  -0.030127 0.046156 0.023093
20  -1.259681 3.818376 1.286946  0.038868 0.009697 -0.600690
21  -1.226390 3.891696 0.090418  -0.013059 0.024865 -0.746408
22  -1.231622 3.875537 -0.958679  -0.082322 0.048500 -0.873567
23  -1.209919 3.994783 -2.003049  -0.118308 0.035174 -0.880748
24  0.328907 0.095428 1.403530  1.930500 0.578402 1.467848
25  -4.731793 -10.840097 32.735359  0.682296 -0.011993 2.129707
26  -3.310055 -16.887754 19.441708  -1.570796 -0.000000 -1.570796
27  11.426482 -17.423515 14.151665  -0.051945 -0.000000 -1.570796
28  -9.154455 -11.766430 -14.684287  1.276237 -0.049344 3.075831
29  0.000000 13.479277 -0.000000  0.335928 0.000000 0.000000
30  0.000000 13.477239 0.000000  -0.047776 0.249870 -0.062743
31  0.267270 3.664726 -1.953295  -0.460947 0.085209 1.088458
32  0.000001 1.180356 -0.000000  -0.015239 0.034122 1.127932
33  -0.000000 0.817135 0.000004  0.011847 0.003300 0.943166
34  0.249423 3.688541 -0.940888  -0.424660 0.091165 1.116984
35  -0.000002 1.800632 -0.000002  0.000989 -0.005266 1.195711
36  0.000000 1.243407 0.000000  0.003628 -0.005422 1.051829
37  0.244726 3.701094 0.087734  -0.354828 0.115299 1.122151
38  -0.000001 1.766584 -0.000000  0.004336 -0.000101 1.242448
39  0.000000 1.189003 0.000001  -0.008134 0.015718 1.135168
40  0.277240 3.632247 1.274103  0.054201 -0.011943 0.177044
41  0.000002 1.798493 0.000001  0.035950 -0.011837 0.318250
42  0.000000 1.235450 -0.000000  -0.007454 -0.004176 0.481101
43  -0.315441 0.857300 0.755944  -0.305463 -2.814040 0.955370
44  0.000000 2.265941 0.000000  -0.046734 0.047387 0.515787
45  0.000001 1.457811 -0.000000  -0.053363 -0.013780 0.716642
46  1.259682 3.818375 1.286946  0.054201 -0.011943 0.177044
47  1.226391 3.891694 0.090419  -0.354828 0.115299 1.122150
48  1.231623 3.875534 -0.958678  -0.424660 0.091165 1.116984
49  1.209920 3.994781 -2.003049  -0.460947 0.085209 1.088458
50  -0.328905 0.095428 1.403533  -0.305463 -2.814040 0.955370
51  -8.077393 -15.200534 11.648036  1.566357 0.002716 -2.955107
52  -9.209054 -23.431993 -0.264549  -1.570796 -0.000000 1.570796
53  -9.154455 -11.766430 -14.684287  -0.051945 0.000000 1.570796
54  -7.393709 -16.310349 -12.915283  1.567454 -0.012279 -0.001930
55  0.396052 3.998730 31.950834  -1.535889 -1.570788 0.000000
56  1.262198 1.411918 7.366344  0.000000 0.034907 0.000000
57  1.073198 1.711410 3.572253  -0.000000 0.033161 0.000000
58  -1.325719 2.109442 7.526390  -0.000000 0.000000 0.000000
time 19
0  0 0 0  0 0 0
1  0.000000 0.000000 0.000000  1.570796 -0.000000 0.000000
2  11.426482 -17.423515 14.151665  0.597663 0.430842 1.700103
3  -0.000001 13.479278 0.000000  0.671758 0.000000 -0.000000
4  0.000001 13.477238 -0.000000  -0.600069 0.276545 0.544298
5  -0.267270 3.664726 -1.953291  -0.118308 0.035174 -0.880749
6  -0.000004 1.180356 0.000000  -0.022123 -0.030120 -0.914402
7  -0.000002 0.817133 0.000001  0.010879 -0.005735 -0.729721
8  -0.249422 3.688540 -0.940888  -0.082322 0.048500 -0.873567
9  0.000001 1.800634 0.000001  0.002249 0.004864 -0.948281
10  0.000000 1.243407 -0.000001  0.004845 0.004368 -0.804401
11  -0.244725 3.701092 0.087733  -0.013059 0.024865 -0.746408
12  -0.000003 1.766586 -0.000001  0.004071 -0.001496 -0.866835
13  -0.000002 1.189004 0.000000  -0.013333 -0.011638 -0.759538
14  -0.277240 3.632247 1.274104  0.038868 0.009698 -0.600690
15  -0.000000 1.798493 0.000000  0.027922 0.025554 -0.741251
16  -0.000003 1.235452 0.000002  -0.007625 0.003855 -0.523688
17  0.315441 0.857298 0.755943  1.930500 0.578402 1.467848
18  -0.000000 2.265940 0.000000  -0.057535 -0.033450 -0.250071
19  0.000000 1.457817 -0.000002  -0.030127 0.046156 0.023093
20  -1.259681 3.818376 1.286949  0.038868 0.009697 -0.600690
21  -1.226390 3.891692 0.090421  -0.013059 0.024865 -0.746408
22  -1.231623 3.875535 -0.958678  -0.082322 0.048500 -0.873567
23  -1.209919 3.994782 -2.003047  -0.118308 0.035174 -0.880748
24  0.328906 0.095428 1.403536  1.930500 0.578402 1.467848
25  -4.691616 -10.904967 32.736866  0.682125 -0.014872 2.121065
26  -3.310055 -16.887754 19.441708  -1.570796 -0.000000 -1.570796
27  11.426482 -17.423515 14.151665  -0.051945 -0.000000 -1.570796
28  -9.154455 -11.766430 -14.684287  1.274944 -0.048133 3.077336
29  -0.000001 13.479278 -0.000002  0.339514 -0.000000 0.000000
30  -0.000000 13.477239 0.000001  -0.052525 0.239675 -0.060726
31  0.267269 3.664726 -1.953293  -0.460947 0.085209 1.088458
32  0.000000 1.180354 0.000000  -0.015239 0.034122 1.127932
33  0.000001 0.817133 0.000001  0.011847 0.003300 0.943166
34  0.249422 3.688542 -0.940888  -0.424660 0.091165 1.116984
35  -0.000001 1.800634 -0.000001  0.000989 -0.005266 1.195710
36  -0.000002 1.243406 0.000000  0.003628 -0.005422 1.051829
37  0.244726 3.701096 0.087733  -0.354828 0.115299 1.122151
38  -0.000001 1.766584 -0.000000  0.004336 -0.000101 1.242448
39  -0.000001 1.189004 -0.000000  -0.008134 0.015718 1.135168
40  0.277239 3.632249 1.274103  0.054201 -0.011943 0.177044
41  -0.000001 1.798493 -0.000000  0.035950 -0.011837 0.318251
42  0.000001 1.235452 0.000002  -0.007454 -0.004176 0.481101
43  -0.315442 0.857300 0.755944  -0.305463 -2.814040 0.955370
44  -0.000002 2.265939 -0.000000  -0.046735 0.047387 0.515787
45  -0.000000 1.457812 -0.000001  -0.053363 -0.013780 0.716642
46  1.259681 3.818375 1.286947  0.054201 -0.011943 0.177044
47  1.226390 3.891693 0.090420  -0.354828 0.115299 1.122150
48  1.231622 3.875535 -0.958680  -0.424660 0.091165 1.116984
49  1.209919 3.994782 -2.003048  -0.460947 0.085209 1.088458
50  -0.328907 0.095428 1.403534  -0.305464 -2.814040 0.955370
51  -8.103465 -15.182673 11.643214  1.563613 0.001827 -2.963758
52  -9.209054 -23.431993 -0.264549  -1.570796 -0.000000 1.570796
53  -9.154455 -11.766430 -14.684287  -0.051945 0.000000 1.570796
54  -7.393709 -16.310349 -12.915283  1.569981 -0.003631 -0.000580
55  0.396052 3.998729 31.950836  -1.535889 -1.570788 0.000000
56  1.262198 1.411918 7.366345  0.000000 0.034907 0.000000
57  1.073198 1.711409 3.572254  -0.000000 0.033161 0.000000
58  -1.325719 2.109441 7.526391  -0.000000 0.000000 0.000000
time 20
0  0 0 0  0 0 0
1  0.000000 0.000000 0.000000  1.570796 -0.000000 0.000000
2  11.426482 -17.423515 14.151665  0.595721 0.429257 1.699406
3  -0.000000 13.479279 0.000001  0.675426 0.000000 -0.000000
4  0.000001 13.477240 -0.000000  -0.601303 0.274750 0.542553
5  -0.267272 3.664723 -1.953293  -0.118308 0.035174 -0.880748
6  -0.000001 1.180355 -0.000001  -0.022123 -0.030120 -0.914402
7  -0.000002 0.817134 0.000000  0.010879 -0.005735 -0.729721
8  -0.249425 3.688538 -0.940888  -0.082322 0.048500 -0.873567
9  0.000001 1.800634 0.000001  0.002249 0.004864 -0.948281
10  0.000001 1.243404 0.000000  0.004845 0.004368 -0.804401
11  -0.244728 3.701091 0.087730  -0.013059 0.024865 -0.746408
12  -0.000002 1.766585 -0.000001  0.004071 -0.001496 -0.866835
13  0.000001 1.189002 -0.000001  -0.013333 -0.011638 -0.759538
14  -0.277242 3.632243 1.274100  0.038868 0.009697 -0.600690
15  -0.000000 1.798495 0.000001  0.027922 0.025554 -0.741251
16  -0.000000 1.235450 -0.000000  -0.007625 0.003855 -0.523688
17  0.315439 0.857298 0.755943  1.930500 0.578402 1.467848
18  0.000000 2.265938 -0.000001  -0.057535 -0.033450 -0.250071
19  0.000000 1.457806 0.000000  -0.030127 0.046156 0.023093
20  -1.259684 3.818372 1.286945  0.038868 0.009697 -0.600690
21  -1.226393 3.891692 0.090421  -0.013059 0.024865 -0.746408
22  -1.231625 3.875529 -0.958682  -0.082322 0.048500 -0.873567
23  -1.209922 3.994779 -2.003049  -0.118308 0.035174 -0.880748
24  0.328903 0.095428 1.403533  1.930500 0.578402 1.467848
25  -4.675039 -10.928075 32.736942  0.682188 -0.015858 2.117438
26  -3.310055 -16.887754 19.441708  -1.570796 -0.000000 -1.570796
27  11.426482 -17.423515 14.151665  -0.051945 -0.000000 -1.570796
28  -9.154455 -11.766430 -14.684287  1.274534 -0.047630 3.077959
29  0.000001 13.479277 0.000001  0.340678 0.000000 0.000000
30  0.000001 13.477239 0.000003  -0.054042 0.235424 -0.059777
31  0.267270 3.664725 -1.953296  -0.460947 0.085209 1.088458
32  -0.000000 1.180355 -0.000001  -0.015239 0.034122 1.127932
33  0.000002 0.817134 0.000002  0.011847 0.003300 0.943166
34  0.249423 3.688540 -0.940888  -0.424660 0.091165 1.116984
35  0.000001 1.800634 0.000000  0.000989 -0.005266 1.195711
36  0.000000 1.243405 0.000000  0.003628 -0.005422 1.051829
37  0.244727 3.701094 0.087732  -0.354828 0.115299 1.122150
38  0.000001 1.766585 0.000001  0.004336 -0.000101 1.242448
39  0.000001 1.189005 0.000001  -0.008134 0.015718 1.135168
40  0.277240 3.632247 1.274102  0.054201 -0.011943 0.177044
41  -0.000000 1.798494 0.000000  0.035950 -0.011837 0.318251
42  0.000001 1.235451 -0.000000  -0.007454 -0.004176 0.481101
43  -0.315441 0.857298 0.755943  -0.305463 -2.814040 0.955370
44  -0.000002 2.265939 0.000001  -0.046734 0.047387 0.515787
45  -0.000001 1.457810 0.000001  -0.053363 -0.013780 0.716641
46  1.259682 3.818373 1.286944  0.054201 -0.011943 0.177044
47  1.226391 3.891693 0.090418  -0.354828 0.115299 1.122150
48  1.231622 3.875532 -0.958682  -0.424660 0.091165 1.116984
49  1.209920 3.994780 -2.003048  -0.460947 0.085209 1.088458
50  -0.328906 0.095428 1.403532  -0.305464 -2.814040 0.955370
51  -8.114326 -15.176306 11.641789  1.562718 0.001410 -2.967386
52  -9.209054 -23.431993 -0.264549  -1.570796 -0.000000 1.570796
53  -9.154455 -11.766430 -14.684287  -0.051945 0.000000 1.570796
54  -7.393709 -16.310349 -12.915283  1.570789 -0.000005 -0.000013
55  0.396051 3.998729 31.950838  -1.535889 -1.570788 0.000000
56  1.262198 1.411917 7.366343  0.000000 0.034907 -0.000000
57  1.073198 1.711408 3.572254  0.000000 0.033161 0.000000
58  -1.325719 2.109442 7.526389  0.000000 -0.000000 0.000000
end
