version 1
nodes
0 "blender_implicit" -1
1 "root" -1
2 "upperarm_l" 1
3 "lowerarm_l" 2
4 "hand_l" 3
5 "pinky_0_l" 4
6 "pinky_1_l" 5
7 "pinky_2_l" 6
8 "ring_0_l" 4
9 "ring_1_l" 8
10 "ring_2_l" 9
11 "middle_0_l" 4
12 "middle_1_l" 11
13 "middle_2_l" 12
14 "index_0_l" 4
15 "index_1_l" 14
16 "index_2_l" 15
17 "thumb_0_l" 4
18 "thumb_1_l" 17
19 "thumb_2_l" 18
20 "rig_index_l" 4
21 "rig_middle_l" 4
22 "rig_ring_l" 4
23 "rig_pinky_l" 4
24 "rig_thumb_l" 4
25 "rig_hand_l" 1
26 "rig_l" 1
27 "rig_upperarm_l" 1
28 "upperarm_r" 1
29 "lowerarm_r" 28
30 "hand_r" 29
31 "pinky_0_r" 30
32 "pinky_1_r" 31
33 "pinky_2_r" 32
34 "ring_0_r" 30
35 "ring_1_r" 34
36 "ring_2_r" 35
37 "middle_0_r" 30
38 "middle_1_r" 37
39 "middle_2_r" 38
40 "index_0_r" 30
41 "index_1_r" 40
42 "index_2_r" 41
43 "thumb_0_r" 30
44 "thumb_1_r" 43
45 "thumb_2_r" 44
46 "rig_index_r" 30
47 "rig_middle_r" 30
48 "rig_ring_r" 30
49 "rig_pinky_r" 30
50 "rig_thumb_r" 30
51 "rig_hand_r" 1
52 "rig_r" 1
53 "rig_upperarm_r" 1
54 "v_autorifle" -1
55 "bone_muzzle" 54
56 "magazine" 54
57 "bolt" 54
58 "v_eject" 54
end
skeleton
time 0
0  0 0 0  0 0 0
1  0.000000 0.000000 0.000000  1.570796 -0.000000 0.000000
2  11.426483 -17.423515 12.232265  0.568514 0.546878 1.836687
3  0.000004 13.479274 0.000002  0.812784 0.000000 -0.000000
4  -0.000001 13.477242 0.000000  -0.705919 0.232690 0.580063
5  -0.267270 3.664730 -1.953294  -0.118308 0.035174 -0.880748
6  0.000001 1.180354 0.000000  -0.022123 -0.030120 -0.914402
7  -0.000002 0.817132 0.000002  0.010879 -0.005735 -0.729721
8  -0.249424 3.688545 -0.940890  -0.082322 0.048500 -0.873567
9  -0.000003 1.800633 0.000001  0.002249 0.004864 -0.948281
10  -0.000001 1.243407 -0.000001  0.004845 0.004368 -0.804401
11  -0.244728 3.701100 0.087732  -0.013059 0.024865 -0.746408
12  0.000000 1.766581 0.000001  0.004071 -0.001496 -0.866835
13  -0.000002 1.189005 -0.000002  -0.013333 -0.011638 -0.759538
14  -0.277240 3.632251 1.274100  0.038868 0.009698 -0.600690
15  0.000001 1.798496 -0.000001  0.027922 0.025554 -0.741251
16  -0.000000 1.235450 -0.000001  -0.007625 0.003855 -0.523688
17  0.315441 0.857303 0.755942  1.930500 0.578402 1.467847
18  0.000000 2.265940 0.000002  -0.057535 -0.033451 -0.250071
19  -0.000000 1.457813 0.000000  -0.030127 0.046156 0.023093
20  -1.259682 3.818378 1.286943  0.038868 0.009698 -0.600690
21  -1.226391 3.891697 0.090418  -0.013059 0.024865 -0.746408
22  -1.231624 3.875537 -0.958682  -0.082322 0.048500 -0.873567
23  -1.209920 3.994786 -2.003050  -0.118308 0.035174 -0.880748
24  0.328905 0.095431 1.403530  1.930500 0.578402 1.467848
25  -4.782723 -10.793282 29.735876  0.701867 0.012972 2.169764
26  -3.310055 -16.887754 19.441708  -1.570796 -0.000000 -1.570796
27  11.426483 -17.423515 12.232265  -0.051945 -0.000000 -1.570796
28  -9.154455 -11.766430 -14.684287  0.918069 -0.064038 3.057565
29  0.000000 13.479276 0.000004  0.963087 -0.000000 0.000000
30  0.000000 13.477240 0.000000  -0.294629 0.277848 -0.151593
31  0.267271 3.664726 -1.953295  -0.460947 0.085209 1.088458
32  0.000001 1.180355 0.000000  -0.015239 0.034122 1.127932
33  0.000001 0.817135 -0.000002  0.011847 0.003300 0.943166
34  0.249424 3.688540 -0.940891  -0.424660 0.091165 1.116984
35  -0.000001 1.800634 0.000000  0.000989 -0.005266 1.195710
36  0.000001 1.243407 0.000000  0.003628 -0.005422 1.051829
37  0.244728 3.701095 0.087732  -0.354828 0.115299 1.122151
38  0.000001 1.766585 0.000001  0.004336 -0.000101 1.242448
39  0.000001 1.189003 -0.000000  -0.008134 0.015718 1.135168
40  0.277240 3.632248 1.274102  0.054201 -0.011943 0.177044
41  -0.000000 1.798496 -0.000001  0.035950 -0.011837 0.318251
42  0.000000 1.235451 0.000000  -0.007454 -0.004176 0.481101
43  -0.315440 0.857299 0.755942  -0.305464 -2.814040 0.955370
44  0.000001 2.265941 0.000001  -0.046734 0.047387 0.515788
45  0.000000 1.457811 -0.000000  -0.053364 -0.013780 0.716641
46  1.259682 3.818375 1.286945  0.054201 -0.011943 0.177044
47  1.226392 3.891693 0.090419  -0.354828 0.115299 1.122150
48  1.231625 3.875534 -0.958681  -0.424660 0.091165 1.116984
49  1.209920 3.994782 -2.003048  -0.460947 0.085209 1.088458
50  -0.328905 0.095428 1.403532  -0.305464 -2.814040 0.955370
51  -7.994974 -15.949179 8.807911  1.596732 -0.006430 -2.915116
52  -9.209054 -23.431993 -0.264549  -1.570796 -0.000000 1.570796
53  -9.154455 -11.766430 -14.684287  -0.051945 0.000000 1.570796
54  -7.393669 -13.393511 -13.492013  1.535836 -0.052328 0.001816
55  0.396052 3.998727 31.950838  -1.535889 -1.570788 0.000000
56  1.262198 1.311917 7.366344  -0.020027 0.028592 -0.611152
57  0.940577 1.711409 -0.425546  -0.000000 0.033161 -0.000000
58  -1.325719 2.109440 7.526389  -0.000000 -0.000000 0.000000
time 1
0  0 0 0  0 0 0
1  0.000000 0.000000 0.000000  1.570796 -0.000000 0.000000
2  11.428916 -17.423515 12.578984  0.575642 0.569791 1.837177
3  0.000001 13.479275 -0.000000  0.811172 0.000000 -0.000000
4  0.000001 13.477238 -0.000000  -0.701778 0.227981 0.573726
5  -0.267269 3.664724 -1.953295  -0.118308 0.035174 -0.880748
6  -0.000003 1.180355 0.000001  -0.022123 -0.030120 -0.914402
7  0.000000 0.817135 -0.000002  0.010879 -0.005735 -0.729721
8  -0.249423 3.688541 -0.940888  -0.082322 0.048500 -0.873567
9  0.000001 1.800634 -0.000000  0.002249 0.004864 -0.948281
10  0.000004 1.243406 -0.000000  0.004845 0.004368 -0.804401
11  -0.244726 3.701094 0.087732  -0.013059 0.024865 -0.746408
12  0.000001 1.766584 -0.000000  0.004071 -0.001496 -0.866835
13  0.000000 1.189004 -0.000000  -0.013333 -0.011638 -0.759538
14  -0.277240 3.632246 1.274102  0.038868 0.009697 -0.600690
15  -0.000001 1.798493 0.000001  0.027922 0.025554 -0.741251
16  0.000002 1.235451 -0.000001  -0.007625 0.003855 -0.523688
17  0.315441 0.857299 0.755944  1.930500 0.578402 1.467848
18  0.000000 2.265942 -0.000000  -0.057535 -0.033451 -0.250071
19  0.000001 1.457810 0.000000  -0.030127 0.046156 0.023093
20  -1.259681 3.818372 1.286946  0.038868 0.009697 -0.600690
21  -1.226390 3.891694 0.090420  -0.013059 0.024865 -0.746408
22  -1.231624 3.875534 -0.958679  -0.082322 0.048500 -0.873567
23  -1.209919 3.994781 -2.003047  -0.118308 0.035174 -0.880748
24  0.328906 0.095426 1.403532  1.930500 0.578402 1.467848
25  -4.781129 -10.334875 29.913504  0.719144 0.038505 2.162020
26  -3.310055 -16.887754 19.441708  -1.570796 -0.000000 -1.570796
27  11.428916 -17.423515 12.578984  -0.051945 -0.000000 -1.570796
28  -9.154455 -11.766430 -14.684287  0.943884 -0.061265 3.061016
29  0.000000 13.479277 -0.000001  0.902788 -0.000000 0.000000
30  -0.000001 13.477240 -0.000001  -0.226463 0.274079 -0.128881
31  0.267270 3.664726 -1.953297  -0.460947 0.085209 1.088458
32  -0.000000 1.180354 0.000002  -0.015239 0.034122 1.127932
33  0.000001 0.817134 -0.000001  0.011847 0.003300 0.943166
34  0.249423 3.688540 -0.940892  -0.424660 0.091165 1.116984
35  -0.000002 1.800633 0.000000  0.000989 -0.005266 1.195711
36  0.000000 1.243407 0.000001  0.003628 -0.005422 1.051829
37  0.244727 3.701095 0.087730  -0.354828 0.115299 1.122151
38  -0.000001 1.766585 0.000000  0.004336 -0.000101 1.242448
39  0.000000 1.189007 0.000000  -0.008134 0.015718 1.135168
40  0.277240 3.632246 1.274100  0.054201 -0.011943 0.177044
41  0.000001 1.798494 0.000000  0.035950 -0.011837 0.318251
42  -0.000000 1.235452 -0.000001  -0.007454 -0.004176 0.481101
43  -0.315441 0.857299 0.755941  -0.305463 -2.814040 0.955370
44  -0.000002 2.265941 0.000000  -0.046734 0.047387 0.515788
45  -0.000000 1.457812 0.000000  -0.053363 -0.013780 0.716642
46  1.259681 3.818373 1.286943  0.054201 -0.011943 0.177044
47  1.226391 3.891692 0.090418  -0.354828 0.115299 1.122150
48  1.231624 3.875533 -0.958683  -0.424660 0.091165 1.116984
49  1.209920 3.994780 -2.003050  -0.460947 0.085209 1.088458
50  -0.328905 0.095428 1.403530  -0.305463 -2.814040 0.955370
51  -8.037904 -16.106863 9.153951  1.626804 -0.013215 -2.923600
52  -9.209054 -23.431993 -0.264549  -1.570796 -0.000000 1.570796
53  -9.154455 -11.766430 -14.684287  -0.051945 0.000000 1.570796
54  -7.415972 -13.661724 -13.514540  1.504995 -0.044061 0.003291
55  0.396053 3.998730 31.950834  -1.535889 -1.570788 0.000000
56  1.262199 1.311919 7.366343  -0.020027 0.028592 -0.611151
57  0.940578 1.711411 -0.425548  0.000000 0.033161 -0.000000
58  -1.325718 2.109442 7.526388  0.000000 -0.000000 -0.000000
time 2
0  0 0 0  0 0 0
1  0.000000 0.000000 0.000000  1.570796 -0.000000 0.000000
2  11.434271 -17.423515 13.341763  0.555605 0.519337 1.773091
3  0.000004 13.479276 -0.000000  0.792226 0.000000 -0.000000
4  0.000003 13.477238 -0.000001  -0.664078 0.260363 0.546713
5  -0.267269 3.664728 -1.953293  -0.118308 0.035174 -0.880748
6  -0.000000 1.180355 0.000003  -0.022123 -0.030120 -0.914402
7  -0.000002 0.817134 0.000002  0.010879 -0.005735 -0.729721
8  -0.249423 3.688543 -0.940888  -0.082322 0.048500 -0.873567
9  0.000000 1.800634 -0.000001  0.002249 0.004864 -0.948281
10  0.000001 1.243407 -0.000001  0.004845 0.004368 -0.804401
11  -0.244727 3.701096 0.087731  -0.013059 0.024865 -0.746408
12  0.000001 1.766584 0.000000  0.004071 -0.001496 -0.866835
13  0.000004 1.189004 -0.000003  -0.013333 -0.011638 -0.759538
14  -0.277239 3.632248 1.274101  0.038868 0.009698 -0.600690
15  0.000002 1.798495 0.000000  0.027922 0.025554 -0.741251
16  0.000002 1.235454 -0.000002  -0.007625 0.003855 -0.523688
17  0.315441 0.857301 0.755941  1.930500 0.578402 1.467847
18  0.000000 2.265940 0.000001  -0.057535 -0.033450 -0.250071
19  0.000001 1.457813 0.000003  -0.030127 0.046156 0.023093
20  -1.259681 3.818377 1.286946  0.038868 0.009698 -0.600690
21  -1.226391 3.891695 0.090420  -0.013059 0.024865 -0.746408
22  -1.231623 3.875536 -0.958679  -0.082322 0.048500 -0.873567
23  -1.209919 3.994782 -2.003049  -0.118308 0.035174 -0.880748
24  0.328906 0.095431 1.403531  1.930500 0.578402 1.467847
25  -4.722563 -10.476438 30.924273  0.715785 0.033771 2.143878
26  -3.310055 -16.887754 19.441708  -1.570796 -0.000000 -1.570796
27  11.434271 -17.423515 13.341763  -0.051945 -0.000000 -1.570796
28  -9.154455 -11.766430 -14.684287  1.041021 -0.056051 3.067501
29  -0.000001 13.479277 0.000001  0.723997 -0.000000 0.000000
30  -0.000000 13.477239 -0.000001  -0.147196 0.260407 -0.097000
31  0.267269 3.664727 -1.953293  -0.460947 0.085209 1.088458
32  -0.000002 1.180355 -0.000001  -0.015239 0.034122 1.127932
33  0.000002 0.817134 -0.000000  0.011847 0.003300 0.943166
34  0.249422 3.688542 -0.940889  -0.424660 0.091165 1.116984
35  -0.000001 1.800632 0.000001  0.000989 -0.005266 1.195711
36  -0.000000 1.243407 -0.000000  0.003628 -0.005422 1.051829
37  0.244726 3.701096 0.087734  -0.354828 0.115299 1.122151
38  -0.000000 1.766584 0.000001  0.004336 -0.000101 1.242448
39  0.000000 1.189005 -0.000001  -0.008134 0.015718 1.135168
40  0.277238 3.632249 1.274103  0.054201 -0.011943 0.177044
41  -0.000000 1.798493 0.000001  0.035950 -0.011837 0.318251
42  0.000000 1.235452 -0.000001  -0.007454 -0.004176 0.481101
43  -0.315443 0.857300 0.755945  -0.305464 -2.814040 0.955370
44  0.000000 2.265939 0.000001  -0.046734 0.047387 0.515788
45  0.000001 1.457811 -0.000000  -0.053363 -0.013780 0.716642
46  1.259680 3.818375 1.286946  0.054201 -0.011943 0.177044
47  1.226390 3.891694 0.090419  -0.354828 0.115299 1.122150
48  1.231623 3.875535 -0.958681  -0.424660 0.091165 1.116984
49  1.209919 3.994783 -2.003047  -0.460947 0.085209 1.088458
50  -0.328907 0.095428 1.403533  -0.305463 -2.814040 0.955370
51  -8.077564 -16.068338 10.131093  1.621171 -0.011815 -2.941550
52  -9.209054 -23.431993 -0.264549  -1.570796 -0.000000 1.570796
53  -9.154455 -11.766430 -14.684287  -0.051945 0.000000 1.570796
54  -7.410162 -14.653922 -13.513824  1.510854 -0.026058 0.002885
55  0.396052 3.998729 31.950836  -1.535889 -1.570788 0.000000
56  1.262199 1.345250 7.366343  -0.013831 0.032051 -0.407465
57  0.974961 1.711409 0.610919  -0.000000 0.033161 0.000000
58  -1.325719 2.109441 7.526391  -0.000000 -0.000000 0.000000
time 3
0  0 0 0  0 0 0
1  0.000000 0.000000 0.000000  1.570796 -0.000000 0.000000
2  11.439625 -17.423515 14.104544  0.554995 0.458173 1.713785
3  0.000003 13.479278 0.000002  0.750127 0.000000 -0.000000
4  0.000001 13.477238 -0.000001  -0.621695 0.288951 0.521184
5  -0.267269 3.664729 -1.953296  -0.118308 0.035174 -0.880749
6  0.000001 1.180354 -0.000002  -0.022123 -0.030120 -0.914402
7  0.000001 0.817135 0.000001  0.010879 -0.005735 -0.729721
8  -0.249421 3.688543 -0.940890  -0.082322 0.048500 -0.873567
9  0.000001 1.800633 -0.000002  0.002249 0.004864 -0.948281
10  -0.000000 1.243406 -0.000003  0.004845 0.004368 -0.804401
11  -0.244726 3.701100 0.087733  -0.013059 0.024865 -0.746408
12  0.000000 1.766585 -0.000002  0.004071 -0.001496 -0.866835
13  -0.000001 1.189001 -0.000001  -0.013333 -0.011638 -0.759538
14  -0.277238 3.632249 1.274102  0.038868 0.009697 -0.600690
15  -0.000000 1.798495 -0.000001  0.027922 0.025554 -0.741251
16  0.000000 1.235452 0.000001  -0.007625 0.003855 -0.523688
17  0.315442 0.857301 0.755943  1.930500 0.578402 1.467848
18  0.000000 2.265941 0.000002  -0.057535 -0.033450 -0.250071
19  0.000000 1.457815 -0.000001  -0.030127 0.046156 0.023093
20  -1.259680 3.818377 1.286946  0.038868 0.009697 -0.600690
21  -1.226390 3.891696 0.090419  -0.013059 0.024865 -0.746408
22  -1.231621 3.875536 -0.958681  -0.082322 0.048500 -0.873567
23  -1.209917 3.994785 -2.003047  -0.118308 0.035174 -0.880748
24  0.328906 0.095431 1.403532  1.930500 0.578402 1.467848
25  -4.669155 -10.757552 32.137627  0.707505 0.021760 2.125690
26  -3.310055 -16.887754 19.441708  -1.570796 -0.000000 -1.570796
27  11.439625 -17.423515 14.104544  -0.051945 -0.000000 -1.570796
28  -9.154455 -11.766430 -14.684287  1.193358 -0.051196 3.073533
29  -0.000000 13.479279 0.000000  0.439074 -0.000000 0.000000
30  -0.000001 13.477238 -0.000000  -0.025172 0.247182 -0.058081
31  0.267269 3.664727 -1.953292  -0.460947 0.085209 1.088458
32  -0.000002 1.180356 0.000001  -0.015239 0.034122 1.127932
33  0.000000 0.817136 -0.000002  0.011847 0.003300 0.943166
34  0.249422 3.688542 -0.940889  -0.424660 0.091165 1.116984
35  -0.000001 1.800632 0.000002  0.000989 -0.005266 1.195711
36  0.000001 1.243407 -0.000000  0.003628 -0.005422 1.051829
37  0.244726 3.701096 0.087733  -0.354828 0.115299 1.122151
38  -0.000001 1.766584 0.000001  0.004336 -0.000101 1.242448
39  0.000001 1.189005 0.000000  -0.008134 0.015718 1.135167
40  0.277239 3.632248 1.274102  0.054201 -0.011943 0.177044
41  0.000001 1.798493 -0.000001  0.035950 -0.011837 0.318251
42  -0.000000 1.235451 0.000002  -0.007454 -0.004176 0.481101
43  -0.315441 0.857300 0.755944  -0.305463 -2.814040 0.955370
44  0.000003 2.265938 0.000001  -0.046734 0.047387 0.515787
45  0.000001 1.457810 -0.000001  -0.053364 -0.013780 0.716642
46  1.259681 3.818375 1.286946  0.054201 -0.011943 0.177044
47  1.226390 3.891693 0.090419  -0.354828 0.115299 1.122150
48  1.231623 3.875534 -0.958679  -0.424660 0.091165 1.116984
49  1.209919 3.994782 -2.003048  -0.460947 0.085209 1.088458
50  -0.328907 0.095430 1.403534  -0.305464 -2.814040 0.955370
51  -8.109333 -15.984757 11.263640  1.606969 -0.008482 -2.959364
52  -9.209054 -23.431993 -0.264549  -1.570796 -0.000000 1.570796
53  -9.154455 -11.766430 -14.684287  -0.051945 0.000000 1.570796
54  -7.399371 -15.823529 -13.508805  1.525477 -0.008136 0.002060
55  0.396052 3.998729 31.950840  -1.535889 -1.570788 0.000000
56  1.262197 1.378583 7.366344  -0.007061 0.034185 -0.203742
57  1.038816 1.711409 2.535788  0.000000 0.033161 0.000000
58  -1.325720 2.109441 7.526391  0.000000 -0.000000 -0.000000
time 4
0  0 0 0  0 0 0
1  0.000000 0.000000 0.000000  1.570796 -0.000000 0.000000
2  11.442059 -17.423515 14.451261  0.555174 0.418746 1.685530
3  0.000001 13.479274 -0.000001  0.729209 -0.000000 -0.000000
4  -0.000000 13.477238 -0.000001  -0.601812 0.303284 0.511844
5  -0.267270 3.664727 -1.953290  -0.118308 0.035174 -0.880748
6  -0.000001 1.180357 0.000004  -0.022123 -0.030120 -0.914402
7  -0.000003 0.817138 -0.000000  0.010879 -0.005735 -0.729721
8  -0.249423 3.688540 -0.940888  -0.082321 0.048500 -0.873567
9  0.000003 1.800632 -0.000001  0.002249 0.004864 -0.948281
10  0.000001 1.243408 -0.000003  0.004845 0.004368 -0.804401
11  -0.244727 3.701097 0.087737  -0.013059 0.024865 -0.746408
12  -0.000000 1.766586 0.000003  0.004071 -0.001497 -0.866835
13  0.000000 1.189005 -0.000002  -0.013333 -0.011638 -0.759538
14  -0.277241 3.632248 1.274105  0.038868 0.009697 -0.600690
15  0.000001 1.798495 0.000002  0.027922 0.025554 -0.741251
16  -0.000001 1.235451 0.000000  -0.007625 0.003855 -0.523688
17  0.315440 0.857300 0.755944  1.930500 0.578402 1.467848
18  0.000000 2.265940 -0.000002  -0.057535 -0.033450 -0.250071
19  0.000000 1.457815 -0.000000  -0.030127 0.046156 0.023093
20  -1.259682 3.818374 1.286949  0.038868 0.009697 -0.600690
21  -1.226390 3.891692 0.090421  -0.013059 0.024865 -0.746408
22  -1.231624 3.875534 -0.958679  -0.082322 0.048500 -0.873567
23  -1.209920 3.994781 -2.003046  -0.118308 0.035174 -0.880748
24  0.328905 0.095428 1.403533  1.930500 0.578402 1.467848
25  -4.651774 -11.078920 32.752552  0.696994 0.005760 2.117381
26  -3.310055 -16.887754 19.441708  -1.570796 -0.000000 -1.570796
27  11.442059 -17.423515 14.451261  -0.051945 -0.000000 -1.570796
28  -9.154455 -11.766430 -14.684287  1.312670 -0.049100 3.076135
29  0.000000 13.479277 0.000001  0.214047 0.000000 0.000000
30  0.000000 13.477239 0.000000  0.063900 0.241362 -0.033647
31  0.267270 3.664727 -1.953291  -0.460947 0.085209 1.088458
32  0.000003 1.180355 -0.000003  -0.015239 0.034122 1.127932
33  -0.000001 0.817135 0.000000  0.011847 0.003300 0.943166
34  0.249422 3.688541 -0.940886  -0.424660 0.091165 1.116984
35  -0.000000 1.800634 0.000001  0.000989 -0.005266 1.195710
36  -0.000002 1.243408 -0.000000  0.003628 -0.005422 1.051829
37  0.244727 3.701096 0.087734  -0.354828 0.115299 1.122151
38  -0.000002 1.766584 0.000001  0.004336 -0.000101 1.242448
39  0.000001 1.189004 -0.000001  -0.008134 0.015718 1.135168
40  0.277239 3.632249 1.274102  0.054201 -0.011943 0.177044
41  -0.000000 1.798494 0.000000  0.035950 -0.011837 0.318251
42  -0.000001 1.235453 -0.000001  -0.007454 -0.004176 0.481101
43  -0.315441 0.857301 0.755944  -0.305464 -2.814040 0.955370
44  0.000000 2.265940 -0.000001  -0.046734 0.047387 0.515787
45  0.000000 1.457811 -0.000000  -0.053363 -0.013780 0.716641
46  1.259682 3.818375 1.286947  0.054201 -0.011943 0.177044
47  1.226390 3.891693 0.090419  -0.354828 0.115299 1.122151
48  1.231623 3.875536 -0.958680  -0.424660 0.091165 1.116984
49  1.209918 3.994783 -2.003047  -0.460947 0.085209 1.088458
50  -0.328906 0.095429 1.403533  -0.305463 -2.814040 0.955370
51  -8.120685 -15.877571 11.780637  1.588241 -0.004516 -2.967407
52  -9.209054 -23.431993 -0.264549  -1.570796 -0.000000 1.570796
53  -9.154455 -11.766430 -14.684287  -0.051945 0.000000 1.570796
54  -7.393560 -16.387424 -13.495187  1.544625 -0.000005 0.001399
55  0.396052 3.998728 31.950844  -1.535889 -1.570788 0.000000
56  1.262198 1.411917 7.366347  -0.000000 0.034907 0.000000
57  1.073198 1.711409 3.572257  -0.000000 0.033161 -0.000000
58  -1.325719 2.109442 7.526392  -0.000000 -0.000000 -0.000000
time 5
0  0 0 0  0 0 0
1  0.000000 0.000000 0.000000  1.570796 -0.000000 0.000000
2  11.439625 -17.423515 14.404449  0.547556 0.408265 1.682663
3  0.000002 13.479275 -0.000001  0.737384 0.000000 -0.000000
4  0.000000 13.477240 -0.000000  -0.606067 0.304361 0.519742
5  -0.267270 3.664727 -1.953296  -0.118308 0.035174 -0.880749
6  0.000001 1.180354 0.000000  -0.022123 -0.030120 -0.914402
7  0.000000 0.817135 0.000001  0.010879 -0.005735 -0.729721
8  -0.249423 3.688541 -0.940891  -0.082322 0.048500 -0.873567
9  0.000002 1.800633 -0.000002  0.002249 0.004864 -0.948281
10  0.000001 1.243408 0.000001  0.004845 0.004368 -0.804401
11  -0.244727 3.701097 0.087732  -0.013059 0.024865 -0.746408
12  0.000001 1.766585 -0.000002  0.004071 -0.001497 -0.866835
13  -0.000000 1.189003 0.000001  -0.013333 -0.011638 -0.759538
14  -0.277239 3.632251 1.274101  0.038868 0.009697 -0.600690
15  -0.000000 1.798495 0.000000  0.027922 0.025554 -0.741251
16  -0.000000 1.235452 0.000002  -0.007625 0.003855 -0.523688
17  0.315441 0.857301 0.755940  1.930500 0.578402 1.467848
18  0.000001 2.265939 -0.000001  -0.057535 -0.033451 -0.250071
19  0.000000 1.457811 0.000002  -0.030127 0.046156 0.023093
20  -1.259681 3.818376 1.286943  0.038868 0.009697 -0.600690
21  -1.226390 3.891692 0.090415  -0.013059 0.024865 -0.746408
22  -1.231623 3.875535 -0.958682  -0.082322 0.048500 -0.873567
23  -1.209919 3.994781 -2.003050  -0.118308 0.035174 -0.880748
24  0.328906 0.095432 1.403532  1.930500 0.578402 1.467848
25  -4.657509 -11.262500 32.712437  0.686431 -0.010927 2.117384
26  -3.310055 -16.887754 19.441708  -1.570796 -0.000000 -1.570796
27  11.439625 -17.423515 14.404449  -0.051945 -0.000000 -1.570796
28  -9.154455 -11.766430 -14.684287  1.273466 -0.048771 3.076543
29  -0.000001 13.479277 0.000000  0.308083 0.000000 0.000000
30  0.000000 13.477238 -0.000000  -0.012812 0.238733 -0.050618
31  0.267270 3.664726 -1.953293  -0.460947 0.085209 1.088458
32  -0.000001 1.180354 0.000001  -0.015239 0.034122 1.127932
33  0.000003 0.817135 -0.000003  0.011847 0.003300 0.943166
34  0.249423 3.688541 -0.940887  -0.424660 0.091165 1.116984
35  -0.000001 1.800633 0.000000  0.000989 -0.005266 1.195710
36  0.000000 1.243408 0.000001  0.003628 -0.005422 1.051829
37  0.244727 3.701096 0.087733  -0.354828 0.115299 1.122151
38  0.000000 1.766584 0.000001  0.004336 -0.000101 1.242448
39  -0.000001 1.189005 -0.000001  -0.008134 0.015718 1.135168
40  0.277240 3.632247 1.274101  0.054201 -0.011943 0.177044
41  0.000000 1.798497 -0.000000  0.035950 -0.011837 0.318251
42  -0.000002 1.235451 -0.000001  -0.007454 -0.004176 0.481101
43  -0.315441 0.857300 0.755944  -0.305464 -2.814040 0.955370
44  -0.000001 2.265941 -0.000001  -0.046734 0.047387 0.515787
45  -0.000001 1.457811 0.000001  -0.053364 -0.013780 0.716641
46  1.259683 3.818375 1.286946  0.054201 -0.011943 0.177044
47  1.226391 3.891692 0.090419  -0.354828 0.115299 1.122150
48  1.231624 3.875533 -0.958678  -0.424660 0.091165 1.116984
49  1.209919 3.994781 -2.003047  -0.460947 0.085209 1.088458
50  -0.328906 0.095428 1.403532  -0.305464 -2.814040 0.955370
51  -8.119149 -15.646038 11.648644  1.568855 -0.000748 -2.967380
52  -9.209054 -23.431993 -0.264549  -1.570796 -0.000000 1.570796
53  -9.154455 -11.766430 -14.684287  -0.051945 0.000000 1.570796
54  -7.393596 -16.301828 -13.355097  1.564370 -0.000005 0.001048
55  0.396051 3.998728 31.950834  -1.535889 -1.570788 0.000000
56  1.262197 1.411916 7.366347  0.000000 0.034907 0.000000
57  1.068224 1.711409 3.422336  0.000000 0.033161 -0.000000
58  -1.325720 2.109441 7.526392  0.000000 0.000000 0.000000
time 6
0  0 0 0  0 0 0
1  0.000000 0.000000 0.000000  1.570796 -0.000000 0.000000
2  11.434271 -17.423515 14.301462  0.544478 0.412570 1.687562
3  0.000004 13.479277 -0.000001  0.745153 0.000000 -0.000000
4  -0.000002 13.477238 0.000001  -0.616346 0.297081 0.535904
5  -0.267271 3.664724 -1.953296  -0.118308 0.035174 -0.880748
6  -0.000000 1.180354 0.000003  -0.022123 -0.030120 -0.914402
7  -0.000000 0.817135 0.000002  0.010879 -0.005735 -0.729721
8  -0.249424 3.688542 -0.940891  -0.082322 0.048500 -0.873567
9  -0.000002 1.800632 0.000003  0.002249 0.004864 -0.948281
10  0.000000 1.243404 0.000000  0.004845 0.004368 -0.804401
11  -0.244727 3.701094 0.087731  -0.013059 0.024865 -0.746408
12  -0.000000 1.766587 0.000000  0.004071 -0.001497 -0.866835
13  -0.000000 1.189005 0.000000  -0.013333 -0.011638 -0.759538
14  -0.277240 3.632247 1.274099  0.038868 0.009697 -0.600690
15  0.000000 1.798492 0.000001  0.027922 0.025554 -0.741251
16  -0.000000 1.235452 -0.000001  -0.007625 0.003855 -0.523688
17  0.315441 0.857300 0.755941  1.930500 0.578402 1.467848
18  0.000000 2.265939 -0.000001  -0.057535 -0.033450 -0.250071
19  -0.000002 1.457808 -0.000001  -0.030127 0.046156 0.023093
20  -1.259681 3.818374 1.286944  0.038868 0.009697 -0.600690
21  -1.226392 3.891691 0.090416  -0.013059 0.024865 -0.746408
22  -1.231623 3.875532 -0.958683  -0.082322 0.048500 -0.873567
23  -1.209921 3.994781 -2.003051  -0.118308 0.035174 -0.880748
24  0.328905 0.095428 1.403529  1.930500 0.578402 1.467848
25  -4.662280 -11.265759 32.558876  0.677126 -0.025662 2.117539
26  -3.310055 -16.887754 19.441708  -1.570796 -0.000000 -1.570796
27  11.434271 -17.423515 14.301462  -0.051945 -0.000000 -1.570796
28  -9.154455 -11.766430 -14.684287  1.229458 -0.048253 3.077186
29  -0.000001 13.479275 0.000000  0.420889 0.000000 0.000000
30  0.000000 13.477238 -0.000001  -0.101347 0.233779 -0.070004
31  0.267270 3.664726 -1.953293  -0.460947 0.085209 1.088458
32  0.000001 1.180356 0.000001  -0.015239 0.034122 1.127932
33  -0.000000 0.817135 -0.000000  0.011847 0.003300 0.943166
34  0.249423 3.688540 -0.940888  -0.424660 0.091165 1.116984
35  0.000001 1.800632 0.000001  0.000989 -0.005266 1.195711
36  0.000000 1.243406 0.000000  0.003628 -0.005422 1.051829
37  0.244726 3.701096 0.087732  -0.354828 0.115299 1.122151
38  -0.000000 1.766585 0.000001  0.004336 -0.000101 1.242448
39  -0.000000 1.189005 -0.000001  -0.008134 0.015718 1.135168
40  0.277239 3.632248 1.274102  0.054201 -0.011943 0.177044
41  0.000000 1.798494 0.000001  0.035950 -0.011837 0.318250
42  -0.000002 1.235451 0.000001  -0.007454 -0.004176 0.481101
43  -0.315441 0.857299 0.755943  -0.305464 -2.814040 0.955370
44  0.000000 2.265939 0.000001  -0.046734 0.047387 0.515787
45  0.000000 1.457811 -0.000001  -0.053364 -0.013780 0.716642
46  1.259681 3.818374 1.286945  0.054201 -0.011943 0.177044
47  1.226391 3.891692 0.090419  -0.354828 0.115299 1.122150
48  1.231624 3.875533 -0.958682  -0.424660 0.091165 1.116984
49  1.209920 3.994781 -2.003047  -0.460947 0.085209 1.088458
50  -0.328905 0.095429 1.403532  -0.305464 -2.814040 0.955370
51  -8.117920 -15.281562 11.420917  1.551744 0.002555 -2.967411
52  -9.209054 -23.431993 -0.264549  -1.570796 -0.000000 1.570796
53  -9.154455 -11.766430 -14.684287  -0.051945 0.000000 1.570796
54  -7.393673 -16.113518 -13.072057  1.581795 -0.000005 0.000760
55  0.396051 3.998729 31.950844  -1.535889 -1.570788 0.000000
56  1.262199 1.411919 7.366345  0.000000 0.034907 0.000000
57  1.063251 1.711410 3.272422  -0.000000 0.033161 0.000000
58  -1.325720 2.109442 7.526390  -0.000000 0.000000 0.000000
time 7
0  0 0 0  0 0 0
1  0.000000 0.000000 0.000000  1.570796 -0.000000 0.000000
2  11.428916 -17.423515 14.198477  0.544167 0.422342 1.694908
3  0.000000 13.479276 0.000003  0.751013 0.000000 -0.000000
4  0.000001 13.477241 -0.000000  -0.627180 0.287926 0.551967
5  -0.267271 3.664723 -1.953291  -0.118308 0.035174 -0.880748
6  0.000002 1.180352 -0.000004  -0.022123 -0.030120 -0.914402
7  -0.000001 0.817135 0.000000  0.010879 -0.005735 -0.729721
8  -0.249425 3.688540 -0.940886  -0.082322 0.048500 -0.873567
9  0.000002 1.800634 -0.000002  0.002248 0.004864 -0.948281
10  0.000001 1.243405 -0.000002  0.004845 0.004368 -0.804401
11  -0.244728 3.701092 0.087733  -0.013059 0.024865 -0.746408
12  -0.000005 1.766585 0.000000  0.004071 -0.001497 -0.866835
13  -0.000001 1.189004 -0.000002  -0.013333 -0.011638 -0.759538
14  -0.277241 3.632243 1.274101  0.038868 0.009697 -0.600690
15  -0.000002 1.798496 0.000001  0.027922 0.025554 -0.741251
16  0.000000 1.235451 0.000003  -0.007625 0.003855 -0.523688
17  0.315439 0.857297 0.755946  1.930500 0.578402 1.467848
18  -0.000001 2.265939 -0.000001  -0.057535 -0.033451 -0.250071
19  -0.000001 1.457804 0.000002  -0.030127 0.046156 0.023093
20  -1.259683 3.818371 1.286947  0.038868 0.009698 -0.600690
21  -1.226392 3.891691 0.090422  -0.013059 0.024865 -0.746408
22  -1.231625 3.875532 -0.958677  -0.082322 0.048500 -0.873567
23  -1.209921 3.994779 -2.003047  -0.118308 0.035174 -0.880748
24  0.328905 0.095427 1.403537  1.930500 0.578402 1.467848
25  -4.666131 -11.191993 32.392368  0.670467 -0.036153 2.117736
26  -3.310055 -16.887754 19.441708  -1.570796 -0.000000 -1.570796
27  11.428916 -17.423515 14.198477  -0.051945 -0.000000 -1.570796
28  -9.154455 -11.766430 -14.684287  1.199522 -0.047788 3.077763
29  -0.000000 13.479278 0.000001  0.504073 -0.000000 0.000000
30  0.000000 13.477239 0.000000  -0.168626 0.228832 -0.084408
31  0.267270 3.664726 -1.953292  -0.460947 0.085209 1.088458
32  -0.000002 1.180355 0.000000  -0.015239 0.034122 1.127932
33  0.000002 0.817135 0.000001  0.011847 0.003300 0.943166
34  0.249423 3.688541 -0.940890  -0.424660 0.091165 1.116984
35  0.000001 1.800632 0.000001  0.000989 -0.005266 1.195711
36  -0.000001 1.243407 0.000000  0.003628 -0.005422 1.051829
37  0.244727 3.701096 0.087733  -0.354828 0.115299 1.122151
38  0.000001 1.766584 0.000001  0.004336 -0.000101 1.242448
39  0.000000 1.189004 -0.000000  -0.008134 0.015718 1.135168
40  0.277240 3.632247 1.274101  0.054201 -0.011943 0.177044
41  0.000001 1.798496 0.000000  0.035950 -0.011837 0.318251
42  0.000000 1.235452 0.000001  -0.007454 -0.004176 0.481101
43  -0.315441 0.857299 0.755944  -0.305464 -2.814040 0.955370
44  -0.000001 2.265940 0.000000  -0.046734 0.047387 0.515787
45  -0.000000 1.457812 -0.000000  -0.053363 -0.013780 0.716642
46  1.259682 3.818374 1.286945  0.054201 -0.011943 0.177044
47  1.226391 3.891693 0.090419  -0.354828 0.115299 1.122150
48  1.231623 3.875534 -0.958679  -0.424660 0.091165 1.116984
49  1.209920 3.994781 -2.003048  -0.460947 0.085209 1.088458
50  -0.328906 0.095429 1.403533  -0.305464 -2.814040 0.955370
51  -8.116931 -14.944897 11.205356  1.539550 0.004934 -2.967465
52  -9.209054 -23.431993 -0.264549  -1.570796 -0.000000 1.570796
53  -9.154455 -11.766430 -14.684287  -0.051945 0.000000 1.570796
54  -7.393750 -15.925207 -12.793856  1.594216 -0.000005 0.000530
55  0.396052 3.998727 31.950842  -1.535889 -1.570788 0.000000
56  1.262199 1.411915 7.366344  -0.000000 0.034907 -0.000000
57  1.068226 1.711408 3.422335  -0.000000 0.033161 -0.000000
58  -1.325719 2.109440 7.526390  -0.000000 0.000000 -0.000000
time 8
0  0 0 0  0 0 0
1  0.000000 0.000000 0.000000  1.570796 -0.000000 0.000000
2  11.426482 -17.423515 14.151665  0.544696 0.427815 1.698772
3  0.000000 13.479277 -0.000001  0.753068 0.000000 -0.000000
4  0.000000 13.477237 -0.000001  -0.632224 0.283343 0.559276
5  -0.267271 3.664725 -1.953291  -0.118308 0.035174 -0.880748
6  -0.000002 1.180353 0.000002  -0.022123 -0.030120 -0.914402
7  0.000003 0.817137 -0.000002  0.010879 -0.005735 -0.729721
8  -0.249425 3.688541 -0.940885  -0.082322 0.048500 -0.873567
9  0.000002 1.800632 0.000000  0.002249 0.004864 -0.948281
10  0.000001 1.243406 -0.000002  0.004845 0.004368 -0.804401
11  -0.244728 3.701095 0.087735  -0.013059 0.024865 -0.746408
12  -0.000001 1.766587 0.000001  0.004071 -0.001496 -0.866835
13  0.000000 1.189003 0.000003  -0.013333 -0.011638 -0.759538
14  -0.277241 3.632248 1.274105  0.038868 0.009697 -0.600690
15  -0.000001 1.798495 0.000002  0.027922 0.025554 -0.741251
16  0.000000 1.235452 0.000002  -0.007625 0.003855 -0.523688
17  0.315439 0.857298 0.755945  1.930500 0.578402 1.467848
18  -0.000001 2.265942 0.000002  -0.057535 -0.033451 -0.250071
19  -0.000002 1.457811 0.000001  -0.030127 0.046156 0.023093
20  -1.259683 3.818373 1.286948  0.038868 0.009697 -0.600690
21  -1.226392 3.891692 0.090419  -0.013059 0.024865 -0.746408
22  -1.231624 3.875533 -0.958678  -0.082322 0.048500 -0.873567
23  -1.209921 3.994781 -2.003046  -0.118308 0.035174 -0.880748
24  0.328904 0.095428 1.403534  1.930500 0.578402 1.467848
25  -4.669117 -11.144438 32.314659  0.667848 -0.040105 2.117834
26  -3.310055 -16.887754 19.441708  -1.570796 -0.000000 -1.570796
27  11.426482 -17.423515 14.151665  -0.051945 -0.000000 -1.570796
28  -9.154455 -11.766430 -14.684287  1.188498 -0.047605 3.077990
29  -0.000001 13.479278 0.000001  0.536507 -0.000000 0.000000
30  0.000000 13.477240 0.000001  -0.195374 0.226593 -0.090145
31  0.267269 3.664727 -1.953295  -0.460947 0.085209 1.088458
32  -0.000001 1.180355 0.000001  -0.015239 0.034122 1.127932
33  0.000001 0.817137 -0.000000  0.011847 0.003300 0.943166
34  0.249422 3.688542 -0.940890  -0.424660 0.091165 1.116984
35  0.000000 1.800634 -0.000002  0.000989 -0.005266 1.195710
36  -0.000002 1.243405 -0.000001  0.003628 -0.005422 1.051829
37  0.244726 3.701096 0.087732  -0.354828 0.115299 1.122151
38  0.000000 1.766584 -0.000001  0.004336 -0.000101 1.242448
39  0.000000 1.189005 -0.000001  -0.008134 0.015718 1.135168
40  0.277239 3.632248 1.274101  0.054201 -0.011943 0.177044
41  0.000001 1.798494 -0.000000  0.035950 -0.011837 0.318251
42  -0.000000 1.235450 0.000000  -0.007454 -0.004176 0.481101
43  -0.315442 0.857300 0.755943  -0.305464 -2.814040 0.955370
44  0.000000 2.265940 -0.000001  -0.046734 0.047387 0.515787
45  -0.000000 1.457813 0.000002  -0.053363 -0.013780 0.716641
46  1.259681 3.818375 1.286945  0.054201 -0.011943 0.177044
47  1.226390 3.891694 0.090418  -0.354828 0.115299 1.122150
48  1.231622 3.875534 -0.958682  -0.424660 0.091165 1.116984
49  1.209918 3.994781 -2.003049  -0.460947 0.085209 1.088458
50  -0.328907 0.095429 1.403531  -0.305464 -2.814040 0.955370
51  -8.116123 -14.796939 11.109494  1.534917 0.005931 -2.967492
52  -9.209054 -23.431993 -0.264549  -1.570796 -0.000000 1.570796
53  -9.154455 -11.766430 -14.684287  -0.051945 0.000000 1.570796
54  -7.393785 -15.839611 -12.668280  1.598953 -0.000005 0.000351
55  0.396052 3.998728 31.950842  -1.535889 -1.570788 0.000000
56  1.262198 1.411917 7.366347  -0.000000 0.034907 0.000000
57  1.073198 1.711408 3.572258  -0.000000 0.033161 -0.000000
58  -1.325719 2.109441 7.526395  -0.000000 -0.000000 -0.000000
time 9
0  0 0 0  0 0 0
1  0.000000 0.000000 0.000000  1.570796 -0.000000 0.000000
2  11.426482 -17.423515 14.151665  0.550074 0.431909 1.700573
3  0.000001 13.479279 0.000000  0.746479 0.000000 -0.000000
4  -0.000001 13.477238 -0.000000  -0.630598 0.281180 0.558122
5  -0.267269 3.664725 -1.953292  -0.118308 0.035174 -0.880748
6  0.000004 1.180354 -0.000003  -0.022123 -0.030120 -0.914402
7  0.000001 0.817135 0.000000  0.010879 -0.005735 -0.729721
8  -0.249422 3.688542 -0.940888  -0.082322 0.048500 -0.873567
9  -0.000002 1.800632 0.000001  0.002249 0.004864 -0.948281
10  -0.000001 1.243408 0.000003  0.004845 0.004368 -0.804401
11  -0.244727 3.701094 0.087732  -0.013059 0.024865 -0.746408
12  -0.000003 1.766585 0.000001  0.004071 -0.001496 -0.866835
13  0.000006 1.189006 -0.000003  -0.013333 -0.011638 -0.759538
14  -0.277239 3.632246 1.274099  0.038868 0.009697 -0.600690
15  -0.000001 1.798492 0.000001  0.027922 0.025554 -0.741251
16  0.000000 1.235452 -0.000000  -0.007625 0.003855 -0.523688
17  0.315441 0.857299 0.755943  1.930500 0.578402 1.467848
18  0.000000 2.265941 -0.000002  -0.057535 -0.033451 -0.250071
19  -0.000002 1.457811 -0.000000  -0.030127 0.046156 0.023093
20  -1.259681 3.818373 1.286946  0.038868 0.009698 -0.600690
21  -1.226391 3.891691 0.090417  -0.013059 0.024865 -0.746408
22  -1.231623 3.875532 -0.958681  -0.082322 0.048500 -0.873567
23  -1.209918 3.994780 -2.003047  -0.118308 0.035174 -0.880748
24  0.328906 0.095426 1.403531  1.930500 0.578402 1.467848
25  -4.671335 -11.073071 32.332836  0.670542 -0.035426 2.117734
26  -3.310055 -16.887754 19.441708  -1.570796 -0.000000 -1.570796
27  11.426482 -17.423515 14.151665  -0.051945 -0.000000 -1.570796
28  -9.154455 -11.766430 -14.684287  1.193017 -0.047677 3.077901
29  0.000001 13.479278 0.000001  0.524534 -0.000000 0.000000
30  -0.000000 13.477240 0.000000  -0.182238 0.227487 -0.087706
31  0.267270 3.664727 -1.953292  -0.460947 0.085209 1.088458
32  -0.000001 1.180355 0.000001  -0.015239 0.034122 1.127932
33  -0.000000 0.817134 0.000002  0.011847 0.003300 0.943166
34  0.249424 3.688541 -0.940888  -0.424660 0.091165 1.116984
35  0.000001 1.800634 -0.000002  0.000989 -0.005266 1.195710
36  0.000001 1.243405 0.000000  0.003628 -0.005422 1.051829
37  0.244727 3.701096 0.087733  -0.354828 0.115299 1.122151
38  -0.000001 1.766584 0.000001  0.004336 -0.000101 1.242448
39  0.000002 1.189003 -0.000000  -0.008134 0.015718 1.135168
40  0.277241 3.632248 1.274102  0.054201 -0.011943 0.177044
41  0.000000 1.798494 0.000000  0.035950 -0.011837 0.318251
42  -0.000000 1.235452 0.000000  -0.007454 -0.004176 0.481101
43  -0.315440 0.857301 0.755945  -0.305464 -2.814040 0.955370
44  -0.000001 2.265940 -0.000000  -0.046734 0.047387 0.515788
45  0.000001 1.457810 -0.000001  -0.053364 -0.013780 0.716642
46  1.259681 3.818374 1.286945  0.054201 -0.011943 0.177044
47  1.226390 3.891693 0.090420  -0.354828 0.115299 1.122150
48  1.231624 3.875535 -0.958680  -0.424660 0.091165 1.116984
49  1.209919 3.994781 -2.003045  -0.460947 0.085209 1.088458
50  -0.328906 0.095429 1.403533  -0.305463 -2.814040 0.955370
51  -8.115479 -14.839942 11.147224  1.540254 0.005129 -2.967461
52  -9.209054 -23.431993 -0.264549  -1.570796 -0.000000 1.570796
53  -9.154455 -11.766430 -14.684287  -0.051945 0.000000 1.570796
54  -7.393781 -15.865886 -12.685791  1.593557 -0.000005 0.000216
55  0.396051 3.998729 31.950836  -1.535889 -1.570788 0.000000
56  1.262197 1.411918 7.366344  0.000000 0.034907 -0.000000
57  1.073198 1.711409 3.572253  0.000000 0.033161 -0.000000
58  -1.325719 2.109441 7.526389  0.000000 0.000000 -0.000000
time 10
0  0 0 0  0 0 0
1  0.000000 0.000000 0.000000  1.570796 -0.000000 0.000000
2  11.426482 -17.423515 14.151665  0.562501 0.440226 1.704257
3  0.000001 13.479277 -0.000002  0.731021 0.000000 -0.000000
4  0.000001 13.477239 0.000000  -0.626298 0.276636 0.555233
5  -0.267271 3.664727 -1.953292  -0.118308 0.035174 -0.880748
6  -0.000003 1.180355 0.000003  -0.022123 -0.030120 -0.914402
7  0.000000 0.817135 0.000006  0.010879 -0.005735 -0.729721
8  -0.249423 3.688542 -0.940888  -0.082322 0.048500 -0.873567
9  -0.000000 1.800635 -0.000002  0.002249 0.004864 -0.948281
10  0.000000 1.243406 0.000003  0.004845 0.004368 -0.804401
11  -0.244728 3.701097 0.087734  -0.013059 0.024865 -0.746408
12  0.000000 1.766585 0.000002  0.004071 -0.001496 -0.866835
13  0.000002 1.189004 0.000000  -0.013333 -0.011638 -0.759538
14  -0.277241 3.632248 1.274101  0.038868 0.009697 -0.600690
15  -0.000000 1.798493 0.000001  0.027922 0.025554 -0.741251
16  0.000002 1.235452 0.000000  -0.007625 0.003855 -0.523688
17  0.315441 0.857301 0.755943  1.930500 0.578402 1.467848
18  0.000000 2.265940 -0.000000  -0.057535 -0.033451 -0.250071
19  0.000000 1.457814 0.000001  -0.030127 0.046156 0.023093
20  -1.259683 3.818376 1.286948  0.038868 0.009697 -0.600690
21  -1.226393 3.891694 0.090419  -0.013059 0.024865 -0.746408
22  -1.231623 3.875535 -0.958680  -0.082322 0.048500 -0.873567
23  -1.209920 3.994782 -2.003047  -0.118308 0.035174 -0.880748
24  0.328904 0.095429 1.403532  1.930500 0.578402 1.467848
25  -4.672917 -10.921155 32.380470  0.676634 -0.025237 2.117551
26  -3.310055 -16.887754 19.441708  -1.570796 -0.000000 -1.570796
27  11.426482 -17.423515 14.151665  -0.051945 -0.000000 -1.570796
28  -9.154455 -11.766430 -14.684287  1.205077 -0.047782 3.077771
29  -0.000000 13.479278 0.000005  0.493721 -0.000000 0.000000
30  0.000001 13.477240 -0.000001  -0.150899 0.229514 -0.081496
31  0.267269 3.664727 -1.953291  -0.460947 0.085209 1.088458
32  0.000000 1.180355 -0.000000  -0.015239 0.034122 1.127932
33  0.000001 0.817136 -0.000000  0.011847 0.003300 0.943166
34  0.249422 3.688542 -0.940888  -0.424660 0.091165 1.116984
35  -0.000001 1.800632 0.000001  0.000989 -0.005266 1.195710
36  0.000000 1.243407 -0.000000  0.003628 -0.005422 1.051829
37  0.244726 3.701097 0.087734  -0.354828 0.115299 1.122151
38  -0.000003 1.766584 -0.000001  0.004336 -0.000101 1.242448
39  0.000001 1.189003 -0.000001  -0.008134 0.015718 1.135168
40  0.277239 3.632249 1.274102  0.054201 -0.011943 0.177044
41  -0.000002 1.798494 0.000000  0.035950 -0.011837 0.318251
42  0.000001 1.235453 0.000000  -0.007454 -0.004176 0.481101
43  -0.315441 0.857301 0.755944  -0.305463 -2.814040 0.955370
44  -0.000001 2.265940 -0.000000  -0.046734 0.047387 0.515787
45  -0.000001 1.457811 0.000000  -0.053364 -0.013780 0.716642
46  1.259681 3.818376 1.286946  0.054201 -0.011943 0.177044
47  1.226391 3.891694 0.090419  -0.354828 0.115299 1.122150
48  1.231623 3.875535 -0.958680  -0.424660 0.091165 1.116984
49  1.209918 3.994782 -2.003047  -0.460947 0.085209 1.088458
50  -0.328906 0.095429 1.403533  -0.305463 -2.814040 0.955370
51  -8.115009 -14.939247 11.240733  1.551962 0.003168 -2.967411
52  -9.209054 -23.431993 -0.264549  -1.570796 -0.000000 1.570796
53  -9.154455 -11.766430 -14.684287  -0.051945 0.000000 1.570796
54  -7.393770 -15.933558 -12.729234  1.581687 -0.000005 0.000120
55  0.396051 3.998728 31.950836  -1.535889 -1.570788 0.000000
56  1.262198 1.411916 7.366342  0.000000 0.034907 0.000000
57  1.073198 1.711408 3.572253  -0.000000 0.033161 -0.000000
58  -1.325720 2.109441 7.526391  -0.000000 0.000000 0.000000
time 11
0  0 0 0  0 0 0
1  0.000000 0.000000 0.000000  1.570796 -0.000000 0.000000
2  11.426482 -17.423515 14.151665  0.576387 0.446932 1.707249
3  0.000003 13.479279 -0.000001  0.712741 -0.000000 -0.000000
4  0.000002 13.477236 -0.000000  -0.620366 0.272442 0.551408
5  -0.267271 3.664726 -1.953291  -0.118308 0.035174 -0.880748
6  0.000003 1.180355 0.000002  -0.022123 -0.030120 -0.914402
7  -0.000003 0.817134 0.000000  0.010879 -0.005735 -0.729721
8  -0.249424 3.688542 -0.940888  -0.082322 0.048500 -0.873567
9  0.000001 1.800635 -0.000000  0.002249 0.004864 -0.948281
10  0.000000 1.243407 0.000000  0.004845 0.004368 -0.804401
11  -0.244727 3.701093 0.087731  -0.013059 0.024865 -0.746408
12  -0.000001 1.766584 -0.000002  0.004071 -0.001497 -0.866835
13  0.000000 1.189002 0.000000  -0.013333 -0.011638 -0.759538
14  -0.277241 3.632246 1.274102  0.038868 0.009697 -0.600690
15  0.000000 1.798494 -0.000000  0.027922 0.025554 -0.741251
16  0.000002 1.235452 -0.000001  -0.007625 0.003855 -0.523688
17  0.315440 0.857299 0.755945  1.930500 0.578402 1.467848
18  -0.000001 2.265936 0.000001  -0.057535 -0.033450 -0.250071
19  -0.000000 1.457809 -0.000001  -0.030127 0.046156 0.023093
20  -1.259683 3.818376 1.286947  0.038868 0.009697 -0.600690
21  -1.226393 3.891692 0.090420  -0.013059 0.024865 -0.746408
22  -1.231624 3.875535 -0.958679  -0.082322 0.048500 -0.873567
23  -1.209920 3.994782 -2.003047  -0.118308 0.035174 -0.880748
24  0.328905 0.095428 1.403535  1.930500 0.578402 1.467848
25  -4.673969 -10.781789 32.450367  0.682751 -0.015063 2.117429
26  -3.310055 -16.887754 19.441708  -1.570796 -0.000000 -1.570796
27  11.426482 -17.423515 14.151665  -0.051945 -0.000000 -1.570796
28  -9.154455 -11.766430 -14.684287  1.222262 -0.047860 3.077673
29  -0.000002 13.479278 -0.000000  0.452039 -0.000000 0.000000
30  -0.000000 13.477240 0.000001  -0.113647 0.231766 -0.073820
31  0.267270 3.664726 -1.953292  -0.460947 0.085209 1.088458
32  0.000000 1.180356 -0.000002  -0.015239 0.034122 1.127932
33  0.000000 0.817136 -0.000002  0.011847 0.003300 0.943166
34  0.249424 3.688540 -0.940889  -0.424660 0.091165 1.116984
35  0.000000 1.800634 0.000000  0.000989 -0.005266 1.195711
36  0.000000 1.243407 0.000002  0.003628 -0.005422 1.051829
37  0.244727 3.701095 0.087734  -0.354828 0.115299 1.122151
38  0.000000 1.766583 0.000000  0.004336 -0.000101 1.242448
39  -0.000001 1.189003 0.000000  -0.008134 0.015718 1.135168
40  0.277240 3.632247 1.274102  0.054201 -0.011943 0.177044
41  0.000000 1.798492 -0.000000  0.035950 -0.011837 0.318251
42  0.000000 1.235451 0.000001  -0.007454 -0.004176 0.481101
43  -0.315440 0.857299 0.755945  -0.305463 -2.814040 0.955370
44  0.000000 2.265940 0.000000  -0.046734 0.047387 0.515788
45  0.000000 1.457810 0.000000  -0.053363 -0.013780 0.716642
46  1.259681 3.818374 1.286946  0.054201 -0.011943 0.177044
47  1.226391 3.891693 0.090420  -0.354828 0.115299 1.122150
48  1.231623 3.875533 -0.958679  -0.424660 0.091165 1.116984
49  1.209920 3.994781 -2.003047  -0.460947 0.085209 1.088458
50  -0.328906 0.095428 1.403533  -0.305463 -2.814040 0.955370
51  -8.114688 -15.050537 11.359591  1.563664 0.001174 -2.967384
52  -9.209054 -23.431993 -0.264549  -1.570796 -0.000000 1.570796
53  -9.154455 -11.766430 -14.684287  -0.051945 0.000000 1.570796
54  -7.393754 -16.025900 -12.784973  1.569816 -0.000005 0.000055
55  0.396052 3.998730 31.950838  -1.535889 -1.570788 0.000000
56  1.262199 1.411918 7.366342  0.000000 0.034907 0.000000
57  1.073199 1.711411 3.572253  -0.000000 0.033161 0.000000
58  -1.325719 2.109443 7.526388  -0.000000 0.000000 0.000000
time 12
0  0 0 0  0 0 0
1  0.000000 0.000000 0.000000  1.570796 -0.000000 0.000000
2  11.426482 -17.423515 14.151665  0.586604 0.446373 1.706999
3  0.000000 13.479278 -0.000001  0.696824 0.000000 -0.000000
4  -0.000002 13.477242 0.000000  -0.613688 0.271039 0.547677
5  -0.267269 3.664727 -1.953291  -0.118308 0.035174 -0.880748
6  -0.000002 1.180356 0.000002  -0.022123 -0.030120 -0.914402
7  -0.000002 0.817133 -0.000001  0.010879 -0.005735 -0.729721
8  -0.249423 3.688541 -0.940888  -0.082322 0.048500 -0.873567
9  -0.000000 1.800632 -0.000002  0.002249 0.004864 -0.948281
10  -0.000000 1.243406 -0.000003  0.004845 0.004368 -0.804401
11  -0.244727 3.701096 0.087732  -0.013059 0.024865 -0.746408
12  0.000000 1.766586 0.000004  0.004071 -0.001496 -0.866835
13  0.000000 1.189005 -0.000001  -0.013333 -0.011638 -0.759537
14  -0.277240 3.632247 1.274102  0.038868 0.009697 -0.600690
15  0.000000 1.798492 -0.000004  0.027922 0.025554 -0.741251
16  -0.000001 1.235452 0.000002  -0.007625 0.003855 -0.523688
17  0.315440 0.857300 0.755944  1.930500 0.578402 1.467848
18  0.000001 2.265940 -0.000000  -0.057535 -0.033450 -0.250071
19  -0.000000 1.457813 -0.000001  -0.030127 0.046156 0.023093
20  -1.259682 3.818375 1.286947  0.038868 0.009697 -0.600690
21  -1.226391 3.891692 0.090420  -0.013059 0.024865 -0.746408
22  -1.231623 3.875534 -0.958680  -0.082322 0.048500 -0.873567
23  -1.209919 3.994782 -2.003046  -0.118308 0.035174 -0.880748
24  0.328906 0.095428 1.403533  1.930500 0.578402 1.467848
25  -4.674598 -10.747598 32.539711  0.685523 -0.010433 2.117394
26  -3.310055 -16.887754 19.441708  -1.570796 -0.000000 -1.570796
27  11.426482 -17.423515 14.151665  -0.051945 -0.000000 -1.570796
28  -9.154455 -11.766430 -14.684287  1.240939 -0.047855 3.077680
29  -0.000001 13.479278 0.000000  0.409754 -0.000000 0.000000
30  0.000000 13.477238 0.000002  -0.083914 0.233513 -0.067318
31  0.267270 3.664726 -1.953292  -0.460947 0.085209 1.088458
32  0.000000 1.180355 -0.000002  -0.015239 0.034122 1.127932
33  -0.000001 0.817135 -0.000000  0.011847 0.003300 0.943166
34  0.249424 3.688541 -0.940888  -0.424660 0.091165 1.116984
35  0.000002 1.800633 0.000001  0.000989 -0.005266 1.195711
36  -0.000001 1.243405 0.000001  0.003628 -0.005422 1.051829
37  0.244726 3.701095 0.087734  -0.354828 0.115299 1.122151
38  0.000000 1.766584 -0.000001  0.004336 -0.000101 1.242448
39  -0.000001 1.189006 0.000001  -0.008134 0.015718 1.135168
40  0.277239 3.632248 1.274103  0.054201 -0.011943 0.177044
41  0.000001 1.798494 0.000000  0.035950 -0.011837 0.318251
42  0.000001 1.235450 0.000000  -0.007454 -0.004176 0.481101
43  -0.315441 0.857299 0.755945  -0.305464 -2.814040 0.955370
44  -0.000001 2.265940 0.000000  -0.046734 0.047387 0.515788
45  -0.000003 1.457811 0.000000  -0.053363 -0.013780 0.716642
46  1.259682 3.818374 1.286946  0.054201 -0.011943 0.177044
47  1.226391 3.891692 0.090420  -0.354828 0.115299 1.122150
48  1.231624 3.875534 -0.958680  -0.424660 0.091165 1.116984
49  1.209920 3.994781 -2.003047  -0.460947 0.085209 1.088458
50  -0.328906 0.095429 1.403533  -0.305464 -2.814040 0.955370
51  -8.114488 -15.130081 11.472135  1.568985 0.000278 -2.967380
52  -9.209054 -23.431993 -0.264549  -1.570796 -0.000000 1.570796
53  -9.154455 -11.766430 -14.684287  -0.051945 0.000000 1.570796
54  -7.393738 -16.126181 -12.839374  1.564420 -0.000005 0.000016
55  0.396052 3.998728 31.950836  -1.535889 -1.570788 0.000000
56  1.262199 1.411916 7.366344  0.000000 0.034907 0.000000
57  1.073198 1.711407 3.572253  -0.000000 0.033161 -0.000000
58  -1.325719 2.109440 7.526389  -0.000000 -0.000000 0.000000
time 13
0  0 0 0  0 0 0
1  0.000000 0.000000 0.000000  1.570796 -0.000000 0.000000
2  11.426482 -17.423515 14.151665  0.591887 0.439246 1.703821
3  0.000001 13.479279 0.000001  0.685588 0.000000 -0.000000
4  0.000000 13.477239 0.000000  -0.607531 0.272378 0.544858
5  -0.267270 3.664724 -1.953289  -0.118308 0.035174 -0.880748
6  0.000005 1.180356 -0.000002  -0.022123 -0.030120 -0.914402
7  0.000000 0.817135 0.000002  0.010879 -0.005735 -0.729721
8  -0.249423 3.688539 -0.940887  -0.082322 0.048500 -0.873567
9  0.000000 1.800632 -0.000003  0.002249 0.004864 -0.948281
10  -0.000004 1.243407 0.000000  0.004845 0.004368 -0.804401
11  -0.244727 3.701094 0.087736  -0.013059 0.024865 -0.746408
12  -0.000000 1.766583 -0.000001  0.004071 -0.001496 -0.866835
13  -0.000000 1.189003 0.000002  -0.013333 -0.011638 -0.759538
14  -0.277239 3.632246 1.274105  0.038868 0.009697 -0.600690
15  0.000000 1.798493 0.000000  0.027922 0.025554 -0.741251
16  0.000003 1.235451 -0.000002  -0.007625 0.003855 -0.523688
17  0.315441 0.857298 0.755945  1.930500 0.578402 1.467848
18  0.000000 2.265944 0.000001  -0.057535 -0.033451 -0.250071
19  0.000000 1.457810 0.000001  -0.030127 0.046156 0.023093
20  -1.259681 3.818373 1.286951  0.038868 0.009698 -0.600690
21  -1.226391 3.891693 0.090424  -0.013059 0.024865 -0.746408
22  -1.231624 3.875534 -0.958675  -0.082322 0.048500 -0.873567
23  -1.209919 3.994781 -2.003043  -0.118308 0.035174 -0.880748
24  0.328906 0.095427 1.403534  1.930500 0.578402 1.467848
25  -4.674914 -10.816239 32.634792  0.684647 -0.011833 2.117404
26  -3.310055 -16.887754 19.441708  -1.570796 -0.000000 -1.570796
27  11.426482 -17.423515 14.151665  -0.051945 -0.000000 -1.570796
28  -9.154455 -11.766430 -14.684287  1.257404 -0.047768 3.077788
29  -0.000001 13.479278 0.000000  0.375107 0.000000 0.000000
30  0.000000 13.477239 -0.000000  -0.066956 0.234574 -0.063211
31  0.267269 3.664725 -1.953292  -0.460947 0.085209 1.088458
32  0.000003 1.180355 0.000002  -0.015239 0.034122 1.127932
33  -0.000000 0.817135 0.000002  0.011847 0.003300 0.943166
34  0.249423 3.688541 -0.940889  -0.424660 0.091165 1.116984
35  -0.000001 1.800633 -0.000000  0.000989 -0.005266 1.195710
36  0.000001 1.243406 0.000001  0.003628 -0.005422 1.051829
37  0.244727 3.701096 0.087733  -0.354828 0.115299 1.122151
38  0.000001 1.766584 0.000001  0.004336 -0.000101 1.242448
39  0.000000 1.189004 0.000001  -0.008134 0.015718 1.135168
40  0.277240 3.632247 1.274102  0.054201 -0.011943 0.177044
41  0.000000 1.798493 0.000001  0.035950 -0.011837 0.318251
42  -0.000001 1.235452 -0.000002  -0.007454 -0.004176 0.481101
43  -0.315441 0.857300 0.755944  -0.305463 -2.814040 0.955370
44  -0.000001 2.265939 -0.000001  -0.046734 0.047387 0.515787
45  -0.000002 1.457813 0.000000  -0.053363 -0.013780 0.716641
46  1.259682 3.818374 1.286945  0.054201 -0.011943 0.177044
47  1.226392 3.891693 0.090419  -0.354828 0.115299 1.122150
48  1.231624 3.875534 -0.958681  -0.424660 0.091165 1.116984
49  1.209919 3.994781 -2.003047  -0.460947 0.085209 1.088458
50  -0.328906 0.095429 1.403533  -0.305464 -2.814040 0.955370
51  -8.114380 -15.163936 11.559948  1.567362 0.000584 -2.967381
52  -9.209054 -23.431993 -0.264549  -1.570796 -0.000000 1.570796
53  -9.154455 -11.766430 -14.684287  -0.051945 0.000000 1.570796
54  -7.393724 -16.217783 -12.880914  1.566072 -0.000005 -0.000005
55  0.396052 3.998727 31.950836  -1.535889 -1.570788 0.000000
56  1.262198 1.411916 7.366345  0.000000 0.034907 0.000000
57  1.073198 1.711409 3.572253  0.000000 0.033161 0.000000
58  -1.325718 2.109440 7.526389  0.000000 0.000000 0.000000
time 14
0  0 0 0  0 0 0
1  0.000000 0.000000 0.000000  1.570796 -0.000000 0.000000
2  11.426482 -17.423515 14.151665  0.594815 0.432350 1.700768
3  0.000002 13.479279 -0.000001  0.678126 0.000000 -0.000000
4  -0.000002 13.477242 0.000001  -0.603039 0.273976 0.543135
5  -0.267268 3.664725 -1.953292  -0.118308 0.035174 -0.880748
6  0.000001 1.180354 -0.000001  -0.022123 -0.030120 -0.914402
7  -0.000001 0.817136 0.000000  0.010879 -0.005735 -0.729721
8  -0.249422 3.688540 -0.940890  -0.082322 0.048500 -0.873567
9  -0.000001 1.800633 -0.000001  0.002249 0.004864 -0.948281
10  -0.000000 1.243407 0.000001  0.004845 0.004368 -0.804401
11  -0.244726 3.701093 0.087732  -0.013059 0.024865 -0.746408
12  0.000003 1.766586 -0.000002  0.004071 -0.001496 -0.866835
13  0.000001 1.189006 0.000002  -0.013333 -0.011638 -0.759538
14  -0.277238 3.632247 1.274101  0.038868 0.009697 -0.600690
15  0.000000 1.798494 -0.000005  0.027922 0.025554 -0.741251
16  -0.000002 1.235454 0.000000  -0.007625 0.003855 -0.523688
17  0.315441 0.857298 0.755943  1.930500 0.578402 1.467848
18  -0.000000 2.265939 0.000000  -0.057535 -0.033451 -0.250071
19  0.000000 1.457811 -0.000000  -0.030127 0.046156 0.023093
20  -1.259680 3.818375 1.286947  0.038868 0.009697 -0.600690
21  -1.226389 3.891690 0.090417  -0.013059 0.024865 -0.746408
22  -1.231622 3.875532 -0.958682  -0.082322 0.048500 -0.873567
23  -1.209918 3.994783 -2.003047  -0.118308 0.035174 -0.880748
24  0.328906 0.095427 1.403532  1.930500 0.578402 1.467848
25  -4.675025 -10.892205 32.707817  0.683047 -0.014448 2.117425
26  -3.310055 -16.887754 19.441708  -1.570796 -0.000000 -1.570796
27  11.426482 -17.423515 14.151665  -0.051945 -0.000000 -1.570796
28  -9.154455 -11.766430 -14.684287  1.269726 -0.047674 3.077904
29  0.000001 13.479276 0.000000  0.350169 0.000000 0.000000
30  -0.000001 13.477239 0.000002  -0.057155 0.235210 -0.060650
31  0.267269 3.664725 -1.953293  -0.460947 0.085209 1.088458
32  -0.000002 1.180355 -0.000001  -0.015239 0.034122 1.127932
33  0.000002 0.817134 -0.000000  0.011847 0.003300 0.943166
34  0.249422 3.688541 -0.940888  -0.424660 0.091165 1.116984
35  0.000000 1.800633 -0.000000  0.000989 -0.005266 1.195711
36  -0.000000 1.243407 0.000000  0.003628 -0.005422 1.051829
37  0.244725 3.701096 0.087734  -0.354828 0.115299 1.122151
38  -0.000000 1.766583 0.000000  0.004336 -0.000101 1.242448
39  -0.000001 1.189003 0.000000  -0.008134 0.015718 1.135168
40  0.277238 3.632248 1.274102  0.054201 -0.011943 0.177044
41  0.000000 1.798495 -0.000000  0.035950 -0.011837 0.318251
42  0.000000 1.235450 0.000000  -0.007454 -0.004176 0.481101
43  -0.315442 0.857300 0.755944  -0.305464 -2.814040 0.955370
44  0.000000 2.265940 -0.000000  -0.046734 0.047387 0.515787
45  0.000000 1.457812 -0.000003  -0.053364 -0.013780 0.716641
46  1.259680 3.818374 1.286946  0.054201 -0.011943 0.177044
47  1.226390 3.891693 0.090419  -0.354828 0.115299 1.122150
48  1.231622 3.875533 -0.958681  -0.424660 0.091165 1.116984
49  1.209918 3.994781 -2.003047  -0.460947 0.085209 1.088458
50  -0.328907 0.095428 1.403534  -0.305463 -2.814040 0.955370
51  -8.114334 -15.175261 11.619710  1.564344 0.001122 -2.967383
52  -9.209054 -23.431993 -0.264549  -1.570796 -0.000000 1.570796
53  -9.154455 -11.766430 -14.684287  -0.051945 0.000000 1.570796
54  -7.393713 -16.284529 -12.906532  1.569138 -0.000005 -0.000012
55  0.396052 3.998729 31.950842  -1.535889 -1.570788 0.000000
56  1.262199 1.411916 7.366344  0.000000 0.034907 -0.000000
57  1.073199 1.711408 3.572254  0.000000 0.033161 0.000000
58  -1.325718 2.109442 7.526390  0.000000 -0.000000 -0.000000
time 15
0  0 0 0  0 0 0
1  0.000000 0.000000 0.000000  1.570796 -0.000000 0.000000
2  11.426482 -17.423515 14.151665  0.595721 0.429257 1.699406
3  -0.000001 13.479278 0.000002  0.675426 0.000000 -0.000000
4  -0.000004 13.477240 0.000000  -0.601303 0.274750 0.542553
5  -0.267269 3.664726 -1.953293  -0.118308 0.035174 -0.880748
6  0.000000 1.180355 0.000000  -0.022123 -0.030119 -0.914402
7  0.000000 0.817135 -0.000001  0.010879 -0.005735 -0.729721
8  -0.249423 3.688541 -0.940889  -0.082322 0.048500 -0.873567
9  0.000001 1.800632 -0.000002  0.002249 0.004864 -0.948281
10  -0.000000 1.243405 0.000002  0.004846 0.004368 -0.804401
11  -0.244726 3.701094 0.087731  -0.013059 0.024865 -0.746408
12  -0.000001 1.766583 -0.000000  0.004071 -0.001496 -0.866835
13  -0.000002 1.189003 0.000000  -0.013333 -0.011638 -0.759538
14  -0.277239 3.632248 1.274103  0.038868 0.009698 -0.600690
15  0.000001 1.798495 -0.000002  0.027922 0.025554 -0.741251
16  -0.000002 1.235451 0.000003  -0.007625 0.003855 -0.523688
17  0.315442 0.857299 0.755944  1.930500 0.578402 1.467848
18  -0.000000 2.265938 0.000004  -0.057535 -0.033451 -0.250071
19  0.000002 1.457811 -0.000000  -0.030127 0.046156 0.023093
20  -1.259681 3.818374 1.286946  0.038868 0.009697 -0.600690
21  -1.226391 3.891694 0.090421  -0.013059 0.024865 -0.746408
22  -1.231622 3.875532 -0.958681  -0.082322 0.048500 -0.873567
23  -1.209920 3.994783 -2.003047  -0.118308 0.035174 -0.880748
24  0.328905 0.095431 1.403534  1.930500 0.578402 1.467847
25  -4.675038 -10.928073 32.736938  0.682188 -0.015858 2.117438
26  -3.310055 -16.887754 19.441708  -1.570796 -0.000000 -1.570796
27  11.426482 -17.423515 14.151665  -0.051945 -0.000000 -1.570796
28  -9.154455 -11.766430 -14.684287  1.274534 -0.047630 3.077959
29  0.000000 13.479280 -0.000000  0.340679 0.000000 0.000000
30  0.000001 13.477240 0.000001  -0.054042 0.235424 -0.059778
31  0.267269 3.664726 -1.953295  -0.460947 0.085209 1.088458
32  -0.000001 1.180355 -0.000001  -0.015239 0.034122 1.127932
33  -0.000000 0.817135 0.000001  0.011847 0.003300 0.943166
34  0.249422 3.688541 -0.940889  -0.424660 0.091165 1.116984
35  -0.000000 1.800633 0.000002  0.000989 -0.005266 1.195710
36  0.000001 1.243405 0.000001  0.003628 -0.005422 1.051829
37  0.244725 3.701095 0.087732  -0.354828 0.115299 1.122151
38  -0.000001 1.766584 0.000001  0.004336 -0.000101 1.242448
39  0.000001 1.189005 -0.000000  -0.008134 0.015718 1.135168
40  0.277238 3.632248 1.274101  0.054201 -0.011943 0.177044
41  -0.000000 1.798494 -0.000000  0.035950 -0.011837 0.318251
42  0.000001 1.235449 -0.000000  -0.007454 -0.004176 0.481101
43  -0.315442 0.857299 0.755944  -0.305463 -2.814040 0.955370
44  -0.000003 2.265940 0.000000  -0.046734 0.047387 0.515788
45  0.000002 1.457812 -0.000001  -0.053363 -0.013780 0.716641
46  1.259681 3.818375 1.286945  0.054201 -0.011943 0.177044
47  1.226389 3.891692 0.090418  -0.354828 0.115299 1.122150
48  1.231622 3.875533 -0.958680  -0.424660 0.091165 1.116984
49  1.209918 3.994781 -2.003047  -0.460947 0.085209 1.088458
50  -0.328907 0.095429 1.403532  -0.305464 -2.814040 0.955370
51  -8.114326 -15.176305 11.641788  1.562718 0.001410 -2.967386
52  -9.209054 -23.431993 -0.264549  -1.570796 -0.000000 1.570796
53  -9.154455 -11.766430 -14.684287  -0.051945 0.000000 1.570796
54  -7.393709 -16.310347 -12.915282  1.570789 -0.000005 -0.000013
55  0.396051 3.998729 31.950836  -1.535889 -1.570788 0.000000
56  1.262198 1.411915 7.366343  0.000000 0.034907 -0.000000
57  1.073198 1.711408 3.572254  -0.000000 0.033161 0.000000
58  -1.325719 2.109441 7.526390  -0.000000 -0.000000 -0.000000
end
