version 1
nodes
0 "blender_implicit" -1
1 "root" -1
2 "upperarm_l" 1
3 "lowerarm_l" 2
4 "hand_l" 3
5 "pinky_0_l" 4
6 "pinky_1_l" 5
7 "pinky_2_l" 6
8 "ring_0_l" 4
9 "ring_1_l" 8
10 "ring_2_l" 9
11 "middle_0_l" 4
12 "middle_1_l" 11
13 "middle_2_l" 12
14 "index_0_l" 4
15 "index_1_l" 14
16 "index_2_l" 15
17 "thumb_0_l" 4
18 "thumb_1_l" 17
19 "thumb_2_l" 18
20 "rig_index_l" 4
21 "rig_middle_l" 4
22 "rig_ring_l" 4
23 "rig_pinky_l" 4
24 "rig_thumb_l" 4
25 "rig_hand_l" 1
26 "rig_l" 1
27 "rig_upperarm_l" 1
28 "upperarm_r" 1
29 "lowerarm_r" 28
30 "hand_r" 29
31 "pinky_0_r" 30
32 "pinky_1_r" 31
33 "pinky_2_r" 32
34 "ring_0_r" 30
35 "ring_1_r" 34
36 "ring_2_r" 35
37 "middle_0_r" 30
38 "middle_1_r" 37
39 "middle_2_r" 38
40 "index_0_r" 30
41 "index_1_r" 40
42 "index_2_r" 41
43 "thumb_0_r" 30
44 "thumb_1_r" 43
45 "thumb_2_r" 44
46 "rig_index_r" 30
47 "rig_middle_r" 30
48 "rig_ring_r" 30
49 "rig_pinky_r" 30
50 "rig_thumb_r" 30
51 "rig_hand_r" 1
52 "rig_r" 1
53 "rig_upperarm_r" 1
54 "v_autorifle" -1
55 "bone_muzzle" 54
56 "magazine" 54
57 "bolt" 54
58 "v_eject" 54
end
skeleton
time 0
0  0 0 0  0 0 0
1  0.000000 0.000000 0.000000  1.570796 -0.000000 0.000000
2  11.426483 -17.423515 12.232265  0.548926 0.524250 1.821054
3  0.000001 13.479276 0.000001  0.831746 0.000000 -0.000000
4  -0.000002 13.477241 -0.000000  -0.706820 0.151259 0.524015
5  -0.267270 3.664725 -1.953289  -0.118308 0.035174 -0.880748
6  0.000003 1.180355 -0.000002  -0.022123 -0.030120 -0.914402
7  -0.000002 0.817133 0.000003  0.010879 -0.005735 -0.729721
8  -0.249424 3.688540 -0.940887  -0.082322 0.048500 -0.873567
9  -0.000001 1.800633 0.000002  0.002249 0.004864 -0.948281
10  0.000000 1.243407 0.000000  0.004845 0.004368 -0.804401
11  -0.244727 3.701094 0.087735  -0.013059 0.024865 -0.746408
12  0.000003 1.766583 -0.000000  0.004071 -0.001497 -0.866835
13  0.000003 1.189005 -0.000004  -0.013333 -0.011638 -0.759538
14  -0.277240 3.632246 1.274105  0.038868 0.009697 -0.600690
15  -0.000003 1.798497 0.000000  0.027922 0.025554 -0.741251
16  -0.000001 1.235451 -0.000000  -0.007625 0.003855 -0.523688
17  0.315440 0.857298 0.755946  1.930500 0.578402 1.467848
18  -0.000000 2.265941 -0.000000  -0.057535 -0.033451 -0.250071
19  -0.000000 1.457811 0.000003  -0.030127 0.046156 0.023093
20  -1.259682 3.818373 1.286948  0.038868 0.009698 -0.600690
21  -1.226392 3.891692 0.090421  -0.013059 0.024865 -0.746408
22  -1.231625 3.875532 -0.958678  -0.082322 0.048500 -0.873567
23  -1.209921 3.994779 -2.003046  -0.118308 0.035174 -0.880748
24  0.328905 0.095429 1.403536  1.930500 0.578402 1.467848
25  -4.693795 -11.073222 29.777058  0.702671 0.032606 2.065044
26  -3.310055 -16.887754 19.441708  -1.570796 -0.000000 -1.570796
27  11.426483 -17.423515 12.232265  -0.051945 -0.000000 -1.570796
28  -9.154455 -11.766430 -14.684287  0.916329 -0.051186 3.073544
29  0.000000 13.479276 0.000001  0.941031 -0.000000 0.000000
30  -0.000001 13.477240 0.000000  -0.245835 0.167488 -0.103095
31  0.267270 3.664728 -1.953295  -0.460947 0.085209 1.088458
32  -0.000002 1.180355 0.000001  -0.015239 0.034122 1.127932
33  0.000000 0.817137 -0.000000  0.011847 0.003300 0.943166
34  0.249423 3.688542 -0.940890  -0.424660 0.091165 1.116984
35  -0.000000 1.800633 0.000001  0.000989 -0.005266 1.195710
36  0.000000 1.243406 0.000001  0.003628 -0.005422 1.051829
37  0.244726 3.701096 0.087732  -0.354828 0.115299 1.122151
38  0.000001 1.766585 -0.000002  0.004336 -0.000101 1.242448
39  0.000000 1.189002 0.000001  -0.008134 0.015718 1.135168
40  0.277239 3.632249 1.274099  0.054201 -0.011943 0.177044
41  0.000001 1.798496 0.000002  0.035950 -0.011837 0.318250
42  -0.000001 1.235453 0.000001  -0.007454 -0.004176 0.481101
43  -0.315441 0.857300 0.755941  -0.305463 -2.814040 0.955370
44  -0.000003 2.265939 0.000002  -0.046734 0.047387 0.515787
45  -0.000001 1.457810 -0.000000  -0.053363 -0.013780 0.716642
46  1.259681 3.818375 1.286944  0.054201 -0.011943 0.177044
47  1.226391 3.891695 0.090418  -0.354828 0.115299 1.122150
48  1.231623 3.875535 -0.958683  -0.424660 0.091165 1.116984
49  1.209920 3.994782 -2.003049  -0.460947 0.085209 1.088458
50  -0.328907 0.095430 1.403531  -0.305463 -2.814040 0.955370
51  -8.247612 -16.234251 8.905647  1.615312 -0.000033 -3.019915
52  -9.209054 -23.431993 -0.264549  -1.570796 -0.000000 1.570796
53  -9.154455 -11.766430 -14.684287  -0.051945 0.000000 1.570796
54  -7.432023 -13.455664 -13.772717  1.518336 0.052358 -0.007717
55  0.396051 3.998729 31.950840  -1.535889 -1.570788 0.000000
56  1.262197 1.311917 7.366345  -0.020027 0.028592 -0.611152
57  0.940577 1.711409 -0.425548  -0.000000 0.033161 -0.000000
58  -1.325719 2.109441 7.526390  -0.000000 -0.000000 -0.000000
time 1
0  0 0 0  0 0 0
1  0.000000 0.000000 0.000000  1.570796 -0.000000 0.000000
2  11.426482 -17.423515 12.532172  0.583615 0.540990 1.819813
3  -0.000001 13.479277 0.000000  0.786944 0.000000 -0.000000
4  0.000002 13.477239 -0.000000  -0.689524 0.156685 0.521093
5  -0.267270 3.664726 -1.953292  -0.118308 0.035174 -0.880748
6  -0.000000 1.180357 0.000000  -0.022123 -0.030120 -0.914402
7  0.000001 0.817134 0.000000  0.010879 -0.005735 -0.729721
8  -0.249422 3.688541 -0.940888  -0.082322 0.048500 -0.873567
9  0.000001 1.800632 0.000002  0.002249 0.004864 -0.948281
10  0.000002 1.243402 -0.000003  0.004845 0.004368 -0.804401
11  -0.244726 3.701093 0.087732  -0.013059 0.024865 -0.746408
12  -0.000001 1.766585 0.000000  0.004071 -0.001496 -0.866835
13  -0.000001 1.189003 -0.000001  -0.013333 -0.011638 -0.759538
14  -0.277239 3.632246 1.274101  0.038868 0.009697 -0.600690
15  -0.000001 1.798493 -0.000002  0.027922 0.025554 -0.741251
16  -0.000001 1.235452 -0.000003  -0.007625 0.003855 -0.523688
17  0.315441 0.857298 0.755943  1.930500 0.578402 1.467848
18  0.000001 2.265940 0.000000  -0.057535 -0.033451 -0.250071
19  -0.000000 1.457810 0.000001  -0.030127 0.046156 0.023093
20  -1.259681 3.818374 1.286947  0.038868 0.009697 -0.600690
21  -1.226390 3.891692 0.090420  -0.013059 0.024865 -0.746408
22  -1.231622 3.875532 -0.958680  -0.082322 0.048500 -0.873567
23  -1.209919 3.994781 -2.003048  -0.118308 0.035174 -0.880748
24  0.328906 0.095426 1.403532  1.930500 0.578402 1.467848
25  -4.691410 -10.557224 30.220613  0.716304 0.054706 2.073639
26  -3.310055 -16.887754 19.441708  -1.570796 -0.000000 -1.570796
27  11.426482 -17.423515 12.532172  -0.051945 -0.000000 -1.570796
28  -9.154455 -11.766430 -14.684287  0.969481 -0.050661 3.074197
29  -0.000001 13.479279 0.000002  0.839408 -0.000000 0.000000
30  -0.000000 13.477239 -0.000000  -0.170856 0.180585 -0.091508
31  0.267269 3.664726 -1.953293  -0.460947 0.085209 1.088458
32  -0.000002 1.180354 0.000002  -0.015239 0.034122 1.127932
33  -0.000000 0.817136 0.000000  0.011847 0.003300 0.943166
34  0.249422 3.688541 -0.940888  -0.424660 0.091165 1.116984
35  0.000000 1.800633 -0.000001  0.000989 -0.005266 1.195711
36  0.000001 1.243405 -0.000000  0.003628 -0.005422 1.051829
37  0.244725 3.701095 0.087733  -0.354828 0.115299 1.122151
38  -0.000000 1.766584 0.000001  0.004336 -0.000101 1.242448
39  0.000001 1.189004 -0.000001  -0.008134 0.015718 1.135168
40  0.277238 3.632247 1.274101  0.054201 -0.011943 0.177044
41  -0.000001 1.798494 -0.000001  0.035950 -0.011837 0.318251
42  -0.000001 1.235451 0.000000  -0.007454 -0.004176 0.481101
43  -0.315441 0.857300 0.755943  -0.305463 -2.814040 0.955370
44  0.000000 2.265939 -0.000000  -0.046734 0.047387 0.515787
45  -0.000001 1.457812 0.000000  -0.053363 -0.013780 0.716642
46  1.259680 3.818374 1.286945  0.054201 -0.011943 0.177044
47  1.226391 3.891692 0.090419  -0.354828 0.115299 1.122150
48  1.231622 3.875533 -0.958680  -0.424660 0.091165 1.116984
49  1.209918 3.994781 -2.003048  -0.460947 0.085209 1.088458
50  -0.328907 0.095428 1.403533  -0.305463 -2.814040 0.955370
51  -8.230703 -16.285795 9.495300  1.640855 -0.004666 -3.011975
52  -9.209054 -23.431993 -0.264549  -1.570796 -0.000000 1.570796
53  -9.154455 -11.766430 -14.684287  -0.051945 0.000000 1.570796
54  -7.428996 -13.978774 -13.700705  1.492445 0.044160 -0.007570
55  0.396052 3.998729 31.950836  -1.535889 -1.570788 0.000000
56  1.262198 1.311917 7.366345  -0.020027 0.028592 -0.611151
57  0.940578 1.711409 -0.425547  0.000000 0.033161 0.000000
58  -1.325719 2.109441 7.526391  0.000000 0.000000 0.000000
time 2
0  0 0 0  0 0 0
1  0.000000 0.000000 0.000000  1.570796 -0.000000 0.000000
2  11.426483 -17.423515 13.191966  0.594029 0.500742 1.768530
3  0.000003 13.479276 -0.000001  0.726996 0.000000 -0.000000
4  0.000001 13.477236 -0.000001  -0.646344 0.205802 0.514328
5  -0.267269 3.664725 -1.953290  -0.118308 0.035174 -0.880748
6  0.000003 1.180356 0.000000  -0.022123 -0.030120 -0.914402
7  0.000000 0.817135 0.000001  0.010879 -0.005735 -0.729721
8  -0.249423 3.688539 -0.940886  -0.082322 0.048500 -0.873567
9  -0.000002 1.800633 0.000001  0.002249 0.004864 -0.948281
10  0.000000 1.243406 0.000000  0.004845 0.004368 -0.804401
11  -0.244727 3.701094 0.087735  -0.013059 0.024865 -0.746408
12  -0.000000 1.766584 0.000001  0.004071 -0.001497 -0.866835
13  0.000004 1.189004 0.000000  -0.013333 -0.011638 -0.759538
14  -0.277240 3.632248 1.274108  0.038868 0.009697 -0.600690
15  0.000002 1.798494 0.000000  0.027922 0.025554 -0.741251
16  -0.000001 1.235450 0.000002  -0.007625 0.003855 -0.523688
17  0.315442 0.857297 0.755945  1.930500 0.578402 1.467848
18  0.000001 2.265940 -0.000001  -0.057535 -0.033450 -0.250071
19  -0.000001 1.457812 -0.000001  -0.030127 0.046156 0.023093
20  -1.259681 3.818373 1.286948  0.038868 0.009697 -0.600690
21  -1.226392 3.891691 0.090421  -0.013059 0.024865 -0.746408
22  -1.231624 3.875534 -0.958677  -0.082322 0.048500 -0.873567
23  -1.209919 3.994780 -2.003046  -0.118308 0.035174 -0.880748
24  0.328907 0.095426 1.403534  1.930500 0.578402 1.467848
25  -4.734928 -10.574129 31.265041  0.710314 0.044135 2.091468
26  -3.310055 -16.887754 19.441708  -1.570796 -0.000000 -1.570796
27  11.426483 -17.423515 13.191966  -0.051945 -0.000000 -1.570796
28  -9.154455 -11.766430 -14.684287  1.078090 -0.050572 3.074307
29  0.000000 13.479279 0.000001  0.649496 -0.000000 0.000000
30  0.000001 13.477240 0.000000  -0.101309 0.204982 -0.080979
31  0.267269 3.664726 -1.953293  -0.460947 0.085209 1.088458
32  -0.000000 1.180355 -0.000000  -0.015239 0.034122 1.127932
33  0.000001 0.817135 0.000001  0.011847 0.003300 0.943166
34  0.249422 3.688542 -0.940889  -0.424660 0.091165 1.116984
35  -0.000000 1.800633 -0.000000  0.000989 -0.005266 1.195710
36  0.000000 1.243406 -0.000002  0.003628 -0.005422 1.051829
37  0.244726 3.701096 0.087732  -0.354828 0.115299 1.122151
38  -0.000001 1.766584 -0.000000  0.004336 -0.000101 1.242448
39  0.000001 1.189003 0.000000  -0.008134 0.015718 1.135168
40  0.277239 3.632248 1.274101  0.054201 -0.011943 0.177044
41  -0.000000 1.798495 0.000000  0.035950 -0.011837 0.318251
42  0.000000 1.235453 0.000001  -0.007454 -0.004176 0.481101
43  -0.315441 0.857300 0.755943  -0.305464 -2.814040 0.955370
44  0.000001 2.265941 -0.000001  -0.046734 0.047387 0.515787
45  0.000001 1.457811 -0.000000  -0.053363 -0.013780 0.716641
46  1.259680 3.818375 1.286945  0.054201 -0.011943 0.177044
47  1.226390 3.891694 0.090419  -0.354828 0.115299 1.122150
48  1.231622 3.875533 -0.958682  -0.424660 0.091165 1.116984
49  1.209919 3.994781 -2.003049  -0.460947 0.085209 1.088458
50  -0.328906 0.095429 1.403532  -0.305463 -2.814040 0.955370
51  -8.171275 -16.113758 10.471157  1.628831 -0.002948 -2.993804
52  -9.209054 -23.431993 -0.264549  -1.570796 -0.000000 1.570796
53  -9.154455 -11.766430 -14.684287  -0.051945 0.000000 1.570796
54  -7.416235 -14.985815 -13.569206  1.504733 0.026125 -0.007178
55  0.396052 3.998727 31.950840  -1.535889 -1.570788 0.000000
56  1.262198 1.345250 7.366345  -0.013831 0.032051 -0.407465
57  0.974960 1.711409 0.610920  0.000000 0.033161 -0.000000
58  -1.325719 2.109441 7.526390  0.000000 -0.000000 -0.000000
time 3
0  0 0 0  0 0 0
1  0.000000 0.000000 0.000000  1.570796 -0.000000 0.000000
2  11.426482 -17.423515 13.851760  0.597285 0.451083 1.719125
3  0.000002 13.479280 0.000001  0.680275 0.000000 -0.000000
4  -0.000001 13.477240 -0.000000  -0.607551 0.255534 0.517081
5  -0.267269 3.664731 -1.953294  -0.118308 0.035174 -0.880748
6  0.000002 1.180356 -0.000001  -0.022123 -0.030120 -0.914402
7  -0.000001 0.817136 -0.000000  0.010879 -0.005735 -0.729721
8  -0.249422 3.688544 -0.940888  -0.082322 0.048500 -0.873567
9  -0.000003 1.800633 -0.000001  0.002249 0.004864 -0.948281
10  0.000002 1.243406 0.000003  0.004845 0.004368 -0.804401
11  -0.244726 3.701099 0.087730  -0.013059 0.024865 -0.746408
12  -0.000001 1.766586 0.000001  0.004071 -0.001496 -0.866835
13  0.000007 1.189003 -0.000001  -0.013333 -0.011638 -0.759538
14  -0.277239 3.632253 1.274103  0.038868 0.009697 -0.600690
15  -0.000002 1.798492 0.000001  0.027922 0.025554 -0.741251
16  -0.000001 1.235452 -0.000002  -0.007625 0.003855 -0.523688
17  0.315441 0.857300 0.755939  1.930500 0.578402 1.467848
18  0.000000 2.265937 0.000000  -0.057535 -0.033451 -0.250071
19  0.000002 1.457808 0.000001  -0.030127 0.046156 0.023093
20  -1.259680 3.818377 1.286944  0.038868 0.009697 -0.600690
21  -1.226390 3.891696 0.090415  -0.013059 0.024865 -0.746408
22  -1.231622 3.875538 -0.958680  -0.082322 0.048500 -0.873567
23  -1.209918 3.994783 -2.003051  -0.118308 0.035174 -0.880748
24  0.328906 0.095431 1.403531  1.930500 0.578402 1.467848
25  -4.768898 -10.815311 32.285362  0.696476 0.020321 2.109248
26  -3.310055 -16.887754 19.441708  -1.570796 -0.000000 -1.570796
27  11.426482 -17.423515 13.851760  -0.051945 -0.000000 -1.570796
28  -9.154455 -11.766430 -14.684287  1.209492 -0.050463 3.074443
29  0.000000 13.479278 0.000001  0.418351 -0.000000 0.000000
30  0.000001 13.477239 0.000001  -0.027991 0.229852 -0.065192
31  0.267270 3.664726 -1.953292  -0.460947 0.085209 1.088458
32  -0.000001 1.180355 0.000001  -0.015239 0.034122 1.127932
33  -0.000002 0.817134 -0.000002  0.011847 0.003300 0.943166
34  0.249422 3.688542 -0.940890  -0.424660 0.091165 1.116984
35  -0.000001 1.800634 0.000000  0.000989 -0.005266 1.195710
36  0.000002 1.243405 0.000002  0.003628 -0.005422 1.051829
37  0.244727 3.701096 0.087732  -0.354828 0.115299 1.122151
38  0.000002 1.766584 0.000001  0.004336 -0.000101 1.242448
39  -0.000000 1.189005 -0.000001  -0.008134 0.015718 1.135168
40  0.277240 3.632250 1.274101  0.054201 -0.011943 0.177044
41  0.000000 1.798497 -0.000001  0.035950 -0.011837 0.318251
42  -0.000000 1.235450 0.000000  -0.007454 -0.004176 0.481101
43  -0.315441 0.857301 0.755943  -0.305464 -2.814040 0.955370
44  -0.000001 2.265939 -0.000002  -0.046734 0.047387 0.515787
45  -0.000001 1.457810 0.000000  -0.053364 -0.013780 0.716641
46  1.259682 3.818376 1.286945  0.054201 -0.011943 0.177044
47  1.226390 3.891694 0.090419  -0.354828 0.115299 1.122150
48  1.231623 3.875535 -0.958682  -0.424660 0.091165 1.116984
49  1.209919 3.994782 -2.003048  -0.460947 0.085209 1.088458
50  -0.328906 0.095430 1.403533  -0.305464 -2.814040 0.955370
51  -8.110887 -15.842009 11.346283  1.601616 0.001265 -2.975555
52  -9.209054 -23.431993 -0.264549  -1.570796 -0.000000 1.570796
53  -9.154455 -11.766430 -14.684287  -0.051945 0.000000 1.570796
54  -7.400784 -15.929413 -13.409393  1.532401 0.008090 -0.006612
55  0.396051 3.998730 31.950840  -1.535889 -1.570788 0.000000
56  1.262198 1.378585 7.366346  -0.007061 0.034185 -0.203742
57  1.038815 1.711409 2.535788  -0.000000 0.033161 0.000000
58  -1.325718 2.109442 7.526391  -0.000000 -0.000000 -0.000000
time 4
0  0 0 0  0 0 0
1  0.000000 0.000000 0.000000  1.570796 -0.000000 0.000000
2  11.426482 -17.423515 14.151665  0.594411 0.418578 1.694733
3  0.000002 13.479276 0.000001  0.665339 0.000000 -0.000000
4  0.000001 13.477236 -0.000001  -0.592357 0.279297 0.526547
5  -0.267270 3.664728 -1.953293  -0.118308 0.035174 -0.880748
6  0.000002 1.180352 0.000000  -0.022123 -0.030120 -0.914402
7  -0.000001 0.817137 0.000001  0.010879 -0.005735 -0.729721
8  -0.249422 3.688543 -0.940888  -0.082322 0.048500 -0.873567
9  0.000001 1.800633 -0.000002  0.002249 0.004864 -0.948281
10  0.000000 1.243406 -0.000000  0.004845 0.004368 -0.804401
11  -0.244727 3.701097 0.087733  -0.013059 0.024865 -0.746408
12  0.000001 1.766583 0.000002  0.004071 -0.001497 -0.866835
13  0.000002 1.189003 0.000001  -0.013333 -0.011638 -0.759538
14  -0.277239 3.632247 1.274101  0.038868 0.009698 -0.600690
15  -0.000001 1.798494 -0.000002  0.027922 0.025554 -0.741251
16  -0.000001 1.235451 -0.000003  -0.007625 0.003855 -0.523688
17  0.315441 0.857300 0.755942  1.930500 0.578402 1.467848
18  0.000000 2.265939 -0.000000  -0.057535 -0.033450 -0.250071
19  -0.000000 1.457810 -0.000001  -0.030127 0.046156 0.023093
20  -1.259681 3.818375 1.286946  0.038868 0.009698 -0.600690
21  -1.226391 3.891696 0.090420  -0.013059 0.024865 -0.746408
22  -1.231622 3.875536 -0.958680  -0.082322 0.048500 -0.873567
23  -1.209918 3.994781 -2.003049  -0.118308 0.035174 -0.880748
24  0.328906 0.095429 1.403533  1.930500 0.578402 1.467848
25  -4.772075 -11.094178 32.771210  0.681669 -0.005314 2.117521
26  -3.310055 -16.887754 19.441708  -1.570796 -0.000000 -1.570796
27  11.426482 -17.423515 14.151665  -0.051945 -0.000000 -1.570796
28  -9.154455 -11.766430 -14.684287  1.285461 -0.049824 3.075236
29  -0.000001 13.479278 0.000001  0.293703 0.000000 0.000000
30  -0.000000 13.477239 0.000001  -0.008454 0.240198 -0.057772
31  0.267269 3.664726 -1.953290  -0.460947 0.085209 1.088458
32  0.000001 1.180354 -0.000002  -0.015239 0.034122 1.127932
33  -0.000001 0.817135 -0.000000  0.011847 0.003300 0.943166
34  0.249422 3.688540 -0.940888  -0.424660 0.091165 1.116984
35  0.000001 1.800633 0.000000  0.000989 -0.005266 1.195710
36  0.000001 1.243405 0.000002  0.003628 -0.005422 1.051829
37  0.244725 3.701095 0.087736  -0.354828 0.115299 1.122151
38  -0.000001 1.766583 -0.000001  0.004336 -0.000101 1.242448
39  0.000000 1.189004 -0.000000  -0.008134 0.015718 1.135168
40  0.277239 3.632248 1.274104  0.054201 -0.011943 0.177044
41  0.000000 1.798495 0.000001  0.035950 -0.011837 0.318251
42  -0.000001 1.235452 0.000000  -0.007454 -0.004176 0.481101
43  -0.315442 0.857299 0.755946  -0.305464 -2.814040 0.955370
44  0.000000 2.265939 -0.000000  -0.046734 0.047387 0.515788
45  0.000000 1.457810 -0.000001  -0.053364 -0.013780 0.716642
46  1.259679 3.818374 1.286947  0.054201 -0.011943 0.177044
47  1.226389 3.891693 0.090422  -0.354828 0.115299 1.122150
48  1.231622 3.875533 -0.958679  -0.424660 0.091165 1.116984
49  1.209918 3.994781 -2.003046  -0.460947 0.085209 1.088458
50  -0.328907 0.095428 1.403534  -0.305463 -2.814040 0.955370
51  -8.086097 -15.526913 11.693974  1.572350 0.005729 -2.967273
52  -9.209054 -23.431993 -0.264549  -1.570796 -0.000000 1.570796
53  -9.154455 -11.766430 -14.684287  -0.051945 0.000000 1.570796
54  -7.393270 -16.346786 -13.225112  1.562052 -0.000108 -0.005937
55  0.396052 3.998729 31.950838  -1.535889 -1.570788 0.000000
56  1.262198 1.411918 7.366343  0.000000 0.034907 -0.000000
57  1.073198 1.711409 3.572253  -0.000000 0.033161 0.000000
58  -1.325719 2.109442 7.526392  -0.000000 -0.000000 0.000000
time 5
0  0 0 0  0 0 0
1  0.000000 0.000000 0.000000  1.570796 -0.000000 0.000000
2  11.426482 -17.423515 14.151665  0.586199 0.409344 1.690731
3  -0.000001 13.479277 -0.000002  0.675331 0.000000 -0.000000
4  0.000002 13.477240 -0.000001  -0.597283 0.281312 0.537198
5  -0.267270 3.664726 -1.953292  -0.118308 0.035174 -0.880748
6  -0.000003 1.180353 0.000001  -0.022123 -0.030120 -0.914402
7  0.000001 0.817132 -0.000002  0.010879 -0.005735 -0.729721
8  -0.249424 3.688539 -0.940890  -0.082322 0.048500 -0.873567
9  -0.000000 1.800631 0.000002  0.002249 0.004864 -0.948281
10  0.000000 1.243407 -0.000001  0.004845 0.004368 -0.804401
11  -0.244727 3.701096 0.087734  -0.013059 0.024865 -0.746408
12  -0.000001 1.766586 -0.000001  0.004071 -0.001497 -0.866835
13  0.000000 1.189003 0.000000  -0.013333 -0.011638 -0.759537
14  -0.277240 3.632246 1.274100  0.038868 0.009698 -0.600690
15  -0.000000 1.798497 0.000005  0.027922 0.025554 -0.741251
16  0.000002 1.235452 -0.000001  -0.007625 0.003855 -0.523688
17  0.315440 0.857299 0.755944  1.930500 0.578402 1.467848
18  -0.000000 2.265941 -0.000000  -0.057535 -0.033451 -0.250071
19  -0.000000 1.457811 0.000001  -0.030127 0.046156 0.023093
20  -1.259682 3.818371 1.286945  0.038868 0.009697 -0.600690
21  -1.226392 3.891691 0.090418  -0.013059 0.024865 -0.746408
22  -1.231625 3.875533 -0.958681  -0.082322 0.048500 -0.873567
23  -1.209919 3.994782 -2.003046  -0.118308 0.035174 -0.880748
24  0.328905 0.095428 1.403533  1.930500 0.578402 1.467848
25  -4.760427 -11.238534 32.769230  0.671403 -0.023585 2.117781
26  -3.310055 -16.887754 19.441708  -1.570796 -0.000000 -1.570796
27  11.426482 -17.423515 14.151665  -0.051945 -0.000000 -1.570796
28  -9.154455 -11.766430 -14.684287  1.266649 -0.048979 3.076284
29  -0.000000 13.479277 0.000003  0.352454 -0.000000 0.000000
30  0.000000 13.477238 -0.000000  -0.070919 0.236505 -0.069573
31  0.267270 3.664727 -1.953293  -0.460947 0.085209 1.088458
32  0.000000 1.180355 0.000000  -0.015239 0.034122 1.127932
33  0.000001 0.817135 -0.000001  0.011847 0.003300 0.943166
34  0.249423 3.688541 -0.940889  -0.424660 0.091165 1.116984
35  -0.000001 1.800632 0.000000  0.000989 -0.005266 1.195711
36  0.000000 1.243407 -0.000001  0.003628 -0.005422 1.051829
37  0.244727 3.701095 0.087733  -0.354828 0.115299 1.122151
38  0.000001 1.766585 0.000001  0.004336 -0.000101 1.242448
39  -0.000001 1.189004 0.000001  -0.008134 0.015718 1.135168
40  0.277240 3.632248 1.274102  0.054201 -0.011943 0.177044
41  0.000000 1.798494 0.000000  0.035950 -0.011837 0.318250
42  -0.000002 1.235451 -0.000000  -0.007454 -0.004176 0.481101
43  -0.315441 0.857301 0.755944  -0.305463 -2.814040 0.955370
44  0.000000 2.265940 0.000001  -0.046734 0.047387 0.515787
45  -0.000001 1.457811 0.000001  -0.053364 -0.013780 0.716641
46  1.259682 3.818375 1.286946  0.054201 -0.011943 0.177044
47  1.226392 3.891693 0.090420  -0.354828 0.115299 1.122150
48  1.231623 3.875534 -0.958679  -0.424660 0.091165 1.116984
49  1.209920 3.994781 -2.003046  -0.460947 0.085209 1.088458
50  -0.328906 0.095429 1.403532  -0.305463 -2.814040 0.955370
51  -8.089456 -15.229290 11.606217  1.551596 0.008640 -2.967310
52  -9.209054 -23.431993 -0.264549  -1.570796 -0.000000 1.570796
53  -9.154455 -11.766430 -14.684287  -0.051945 0.000000 1.570796
54  -7.393456 -16.305706 -13.025352  1.582996 -0.000104 -0.005207
55  0.396052 3.998729 31.950840  -1.535889 -1.570788 0.000000
56  1.262198 1.411917 7.366345  0.000000 0.034907 -0.000000
57  1.068225 1.711409 3.422336  -0.000000 0.033161 0.000000
58  -1.325719 2.109441 7.526392  -0.000000 0.000000 0.000000
time 6
0  0 0 0  0 0 0
1  0.000000 0.000000 0.000000  1.570796 -0.000000 0.000000
2  11.426482 -17.423515 14.151665  0.577975 0.410472 1.691218
3  0.000004 13.479278 -0.000000  0.689445 0.000000 -0.000000
4  -0.000000 13.477242 0.000000  -0.605397 0.280626 0.547305
5  -0.267268 3.664726 -1.953296  -0.118308 0.035174 -0.880749
6  0.000001 1.180355 -0.000003  -0.022123 -0.030120 -0.914402
7  -0.000002 0.817135 -0.000001  0.010879 -0.005735 -0.729721
8  -0.249422 3.688539 -0.940893  -0.082322 0.048500 -0.873567
9  -0.000000 1.800632 -0.000002  0.002249 0.004864 -0.948281
10  0.000003 1.243408 0.000003  0.004845 0.004368 -0.804401
11  -0.244725 3.701095 0.087730  -0.013059 0.024865 -0.746408
12  -0.000001 1.766588 -0.000001  0.004071 -0.001497 -0.866835
13  -0.000001 1.189003 0.000000  -0.013333 -0.011638 -0.759538
14  -0.277237 3.632248 1.274100  0.038868 0.009698 -0.600690
15  -0.000001 1.798493 0.000003  0.027922 0.025554 -0.741251
16  0.000000 1.235452 -0.000003  -0.007625 0.003855 -0.523688
17  0.315442 0.857299 0.755941  1.930500 0.578402 1.467848
18  0.000000 2.265944 0.000000  -0.057535 -0.033451 -0.250071
19  -0.000000 1.457815 0.000001  -0.030127 0.046156 0.023093
20  -1.259681 3.818374 1.286943  0.038868 0.009697 -0.600690
21  -1.226389 3.891691 0.090416  -0.013059 0.024865 -0.746408
22  -1.231621 3.875532 -0.958684  -0.082322 0.048500 -0.873567
23  -1.209918 3.994781 -2.003052  -0.118308 0.035174 -0.880748
24  0.328907 0.095429 1.403532  1.930500 0.578402 1.467848
25  -4.748017 -11.251026 32.697098  0.665808 -0.034272 2.117990
26  -3.310055 -16.887754 19.441708  -1.570796 -0.000000 -1.570796
27  11.426482 -17.423515 14.151665  -0.051945 -0.000000 -1.570796
28  -9.154455 -11.766430 -14.684287  1.246639 -0.048347 3.077069
29  0.000000 13.479279 0.000001  0.409431 0.000000 0.000000
30  0.000000 13.477239 0.000000  -0.121108 0.232861 -0.079046
31  0.267268 3.664728 -1.953295  -0.460947 0.085209 1.088458
32  -0.000001 1.180355 0.000000  -0.015239 0.034122 1.127932
33  -0.000000 0.817133 -0.000002  0.011847 0.003300 0.943166
34  0.249421 3.688544 -0.940890  -0.424660 0.091165 1.116984
35  -0.000001 1.800633 0.000000  0.000989 -0.005266 1.195710
36  0.000000 1.243406 0.000000  0.003628 -0.005422 1.051829
37  0.244725 3.701097 0.087732  -0.354828 0.115299 1.122151
38  -0.000001 1.766585 0.000000  0.004336 -0.000101 1.242448
39  -0.000001 1.189004 -0.000000  -0.008134 0.015718 1.135168
40  0.277238 3.632250 1.274101  0.054201 -0.011943 0.177044
41  0.000000 1.798495 -0.000000  0.035950 -0.011838 0.318251
42  -0.000001 1.235452 0.000000  -0.007454 -0.004176 0.481101
43  -0.315442 0.857301 0.755942  -0.305464 -2.814040 0.955370
44  -0.000000 2.265940 0.000000  -0.046734 0.047387 0.515787
45  0.000000 1.457810 0.000001  -0.053364 -0.013780 0.716641
46  1.259680 3.818377 1.286944  0.054201 -0.011943 0.177044
47  1.226390 3.891696 0.090419  -0.354828 0.115299 1.122150
48  1.231623 3.875536 -0.958682  -0.424660 0.091165 1.116984
49  1.209918 3.994783 -2.003047  -0.460947 0.085209 1.088458
50  -0.328908 0.095430 1.403531  -0.305464 -2.814040 0.955370
51  -8.093451 -14.986932 11.490199  1.539605 0.009956 -2.967376
52  -9.209054 -23.431993 -0.264549  -1.570796 -0.000000 1.570796
53  -9.154455 -11.766430 -14.684287  -0.051945 0.000000 1.570796
54  -7.393862 -16.215330 -12.839684  1.595033 -0.000092 -0.004425
55  0.396052 3.998729 31.950838  -1.535889 -1.570788 0.000000
56  1.262198 1.411917 7.366346  -0.000000 0.034907 0.000000
57  1.063252 1.711409 3.272422  -0.000000 0.033161 0.000000
58  -1.325718 2.109442 7.526392  -0.000000 0.000000 0.000000
time 7
0  0 0 0  0 0 0
1  0.000000 0.000000 0.000000  1.570796 -0.000000 0.000000
2  11.426482 -17.423515 14.151665  0.571697 0.415737 1.693498
3  0.000002 13.479276 0.000001  0.702203 0.000000 -0.000000
4  0.000001 13.477238 0.000000  -0.612987 0.279096 0.554946
5  -0.267269 3.664727 -1.953295  -0.118308 0.035174 -0.880748
6  -0.000001 1.180357 -0.000002  -0.022123 -0.030120 -0.914402
7  0.000000 0.817136 0.000002  0.010879 -0.005735 -0.729721
8  -0.249423 3.688542 -0.940888  -0.082322 0.048500 -0.873567
9  0.000003 1.800634 0.000001  0.002249 0.004864 -0.948281
10  0.000001 1.243406 -0.000001  0.004845 0.004368 -0.804401
11  -0.244727 3.701098 0.087734  -0.013059 0.024865 -0.746408
12  0.000001 1.766581 0.000003  0.004071 -0.001497 -0.866835
13  0.000000 1.189004 -0.000002  -0.013333 -0.011638 -0.759538
14  -0.277239 3.632248 1.274101  0.038868 0.009697 -0.600690
15  0.000002 1.798497 -0.000003  0.027922 0.025554 -0.741251
16  -0.000003 1.235452 0.000001  -0.007625 0.003855 -0.523688
17  0.315441 0.857299 0.755945  1.930500 0.578402 1.467847
18  0.000001 2.265935 -0.000000  -0.057535 -0.033451 -0.250071
19  0.000001 1.457813 0.000001  -0.030127 0.046156 0.023093
20  -1.259681 3.818374 1.286944  0.038868 0.009697 -0.600690
21  -1.226390 3.891694 0.090418  -0.013059 0.024865 -0.746408
22  -1.231623 3.875535 -0.958679  -0.082322 0.048500 -0.873567
23  -1.209919 3.994782 -2.003047  -0.118308 0.035174 -0.880748
24  0.328907 0.095429 1.403532  1.930500 0.578402 1.467848
25  -4.734584 -11.204670 32.612968  0.663667 -0.039398 2.118074
26  -3.310055 -16.887754 19.441708  -1.570796 -0.000000 -1.570796
27  11.426482 -17.423515 14.151665  -0.051945 -0.000000 -1.570796
28  -9.154455 -11.766430 -14.684287  1.231343 -0.047904 3.077620
29  -0.000001 13.479277 0.000001  0.451308 -0.000000 0.000000
30  -0.000001 13.477240 -0.000001  -0.153891 0.230118 -0.084914
31  0.267269 3.664726 -1.953292  -0.460947 0.085209 1.088458
32  -0.000001 1.180355 0.000000  -0.015239 0.034122 1.127932
33  0.000001 0.817136 0.000001  0.011847 0.003300 0.943166
34  0.249424 3.688540 -0.940888  -0.424660 0.091165 1.116984
35  -0.000000 1.800633 0.000002  0.000989 -0.005266 1.195711
36  -0.000001 1.243405 -0.000001  0.003628 -0.005422 1.051829
37  0.244726 3.701095 0.087734  -0.354828 0.115299 1.122151
38  0.000000 1.766585 0.000000  0.004336 -0.000101 1.242448
39  0.000000 1.189005 0.000001  -0.008134 0.015718 1.135168
40  0.277239 3.632247 1.274102  0.054201 -0.011943 0.177044
41  0.000000 1.798493 0.000000  0.035950 -0.011837 0.318251
42  0.000000 1.235451 -0.000000  -0.007454 -0.004176 0.481101
43  -0.315441 0.857299 0.755944  -0.305463 -2.814040 0.955370
44  -0.000001 2.265939 -0.000000  -0.046734 0.047387 0.515788
45  -0.000000 1.457809 0.000000  -0.053364 -0.013780 0.716641
46  1.259681 3.818375 1.286946  0.054201 -0.011943 0.177044
47  1.226390 3.891693 0.090420  -0.354828 0.115299 1.122150
48  1.231624 3.875534 -0.958681  -0.424660 0.091165 1.116984
49  1.209919 3.994781 -2.003047  -0.460947 0.085209 1.088458
50  -0.328906 0.095427 1.403532  -0.305463 -2.814040 0.955370
51  -8.097821 -14.824104 11.388693  1.534052 0.010080 -2.967426
52  -9.209054 -23.431993 -0.264549  -1.570796 -0.000000 1.570796
53  -9.154455 -11.766430 -14.684287  -0.051945 0.000000 1.570796
54  -7.394269 -16.124952 -12.702826  1.600523 -0.000076 -0.003585
55  0.396052 3.998731 31.950840  -1.535889 -1.570788 0.000000
56  1.262199 1.411919 7.366347  0.000000 0.034907 0.000000
57  1.068225 1.711410 3.422340  0.000000 0.033161 0.000000
58  -1.325719 2.109443 7.526391  0.000000 -0.000000 0.000000
time 8
0  0 0 0  0 0 0
1  0.000000 0.000000 0.000000  1.570796 -0.000000 0.000000
2  11.426482 -17.423515 14.151665  0.568793 0.418857 1.694854
3  0.000001 13.479279 0.000001  0.709044 0.000000 -0.000000
4  -0.000001 13.477241 0.000001  -0.616603 0.278632 0.558004
5  -0.267270 3.664729 -1.953296  -0.118308 0.035174 -0.880748
6  0.000002 1.180355 0.000000  -0.022123 -0.030120 -0.914402
7  -0.000001 0.817135 -0.000001  0.010879 -0.005735 -0.729721
8  -0.249423 3.688544 -0.940890  -0.082322 0.048500 -0.873567
9  0.000001 1.800633 -0.000004  0.002249 0.004864 -0.948281
10  0.000001 1.243406 0.000002  0.004845 0.004368 -0.804401
11  -0.244727 3.701097 0.087729  -0.013059 0.024865 -0.746408
12  -0.000004 1.766583 -0.000000  0.004071 -0.001496 -0.866835
13  -0.000001 1.189003 -0.000000  -0.013333 -0.011638 -0.759538
14  -0.277239 3.632250 1.274099  0.038868 0.009697 -0.600690
15  -0.000001 1.798497 0.000000  0.027922 0.025554 -0.741251
16  0.000000 1.235451 0.000001  -0.007625 0.003855 -0.523688
17  0.315441 0.857304 0.755943  1.930500 0.578402 1.467848
18  -0.000000 2.265944 -0.000001  -0.057535 -0.033450 -0.250071
19  0.000001 1.457814 0.000002  -0.030127 0.046156 0.023093
20  -1.259682 3.818377 1.286944  0.038868 0.009697 -0.600690
21  -1.226391 3.891698 0.090420  -0.013059 0.024865 -0.746408
22  -1.231623 3.875537 -0.958683  -0.082322 0.048500 -0.873567
23  -1.209918 3.994785 -2.003049  -0.118308 0.035174 -0.880748
24  0.328905 0.095431 1.403531  1.930500 0.578402 1.467848
25  -4.719832 -11.172902 32.571419  0.663760 -0.040984 2.118055
26  -3.310055 -16.887754 19.441708  -1.570796 -0.000000 -1.570796
27  11.426482 -17.423515 14.151665  -0.051945 -0.000000 -1.570796
28  -9.154455 -11.766430 -14.684287  1.225284 -0.047626 3.077964
29  -0.000000 13.479277 -0.000001  0.467498 -0.000000 0.000000
30  0.000000 13.477240 0.000000  -0.165534 0.228994 -0.086273
31  0.267268 3.664724 -1.953296  -0.460947 0.085209 1.088458
32  -0.000001 1.180354 0.000002  -0.015239 0.034122 1.127932
33  -0.000001 0.817136 0.000001  0.011847 0.003300 0.943166
34  0.249422 3.688540 -0.940890  -0.424660 0.091165 1.116984
35  -0.000002 1.800633 0.000000  0.000989 -0.005266 1.195711
36  -0.000000 1.243405 0.000000  0.003628 -0.005422 1.051829
37  0.244726 3.701094 0.087732  -0.354828 0.115299 1.122151
38  -0.000000 1.766584 -0.000001  0.004336 -0.000101 1.242448
39  0.000001 1.189004 0.000001  -0.008134 0.015718 1.135168
40  0.277238 3.632247 1.274101  0.054201 -0.011943 0.177044
41  0.000000 1.798493 0.000000  0.035950 -0.011837 0.318251
42  0.000001 1.235452 -0.000001  -0.007454 -0.004176 0.481101
43  -0.315441 0.857299 0.755943  -0.305464 -2.814040 0.955370
44  0.000002 2.265938 0.000000  -0.046734 0.047387 0.515787
45  0.000000 1.457811 0.000001  -0.053363 -0.013780 0.716642
46  1.259680 3.818374 1.286945  0.054201 -0.011943 0.177044
47  1.226391 3.891692 0.090419  -0.354828 0.115299 1.122150
48  1.231623 3.875532 -0.958681  -0.424660 0.091165 1.116984
49  1.209919 3.994780 -2.003050  -0.460947 0.085209 1.088458
50  -0.328907 0.095427 1.403532  -0.305463 -2.814040 0.955370
51  -8.102323 -14.764574 11.345486  1.532609 0.009415 -2.967455
52  -9.209054 -23.431993 -0.264549  -1.570796 -0.000000 1.570796
53  -9.154455 -11.766430 -14.684287  -0.051945 0.000000 1.570796
54  -7.394454 -16.083872 -12.649492  1.601829 -0.000057 -0.002681
55  0.396051 3.998729 31.950838  -1.535889 -1.570788 0.000000
56  1.262198 1.411917 7.366345  0.000000 0.034907 -0.000000
57  1.073198 1.711409 3.572253  0.000000 0.033161 -0.000000
58  -1.325719 2.109441 7.526392  0.000000 0.000000 -0.000000
time 9
0  0 0 0  0 0 0
1  0.000000 0.000000 0.000000  1.570796 -0.000000 0.000000
2  11.426482 -17.423515 14.151665  0.571093 0.423941 1.697073
3  0.000003 13.479278 0.000000  0.708821 0.000000 -0.000000
4  -0.000001 13.477240 0.000000  -0.616905 0.277469 0.556956
5  -0.267269 3.664729 -1.953295  -0.118308 0.035174 -0.880748
6  0.000004 1.180356 0.000001  -0.022123 -0.030120 -0.914402
7  0.000000 0.817135 0.000001  0.010879 -0.005735 -0.729721
8  -0.249422 3.688543 -0.940890  -0.082322 0.048500 -0.873567
9  0.000001 1.800634 -0.000001  0.002249 0.004864 -0.948281
10  0.000000 1.243409 0.000001  0.004845 0.004368 -0.804401
11  -0.244727 3.701097 0.087730  -0.013059 0.024865 -0.746408
12  -0.000000 1.766586 0.000000  0.004071 -0.001496 -0.866834
13  -0.000002 1.189004 0.000000  -0.013333 -0.011638 -0.759537
14  -0.277238 3.632251 1.274102  0.038868 0.009697 -0.600690
15  -0.000000 1.798495 0.000002  0.027922 0.025554 -0.741251
16  0.000001 1.235451 -0.000001  -0.007625 0.003855 -0.523688
17  0.315441 0.857300 0.755942  1.930500 0.578402 1.467848
18  0.000000 2.265938 -0.000001  -0.057535 -0.033451 -0.250071
19  0.000001 1.457807 0.000001  -0.030127 0.046156 0.023093
20  -1.259682 3.818376 1.286944  0.038868 0.009697 -0.600690
21  -1.226391 3.891694 0.090416  -0.013059 0.024865 -0.746408
22  -1.231623 3.875535 -0.958681  -0.082322 0.048500 -0.873567
23  -1.209919 3.994782 -2.003051  -0.118308 0.035174 -0.880748
24  0.328907 0.095432 1.403533  1.930500 0.578402 1.467848
25  -4.704029 -11.096529 32.560619  0.667614 -0.036486 2.117874
26  -3.310055 -16.887754 19.441708  -1.570796 -0.000000 -1.570796
27  11.426482 -17.423515 14.151665  -0.051945 -0.000000 -1.570796
28  -9.154455 -11.766430 -14.684287  1.226566 -0.047534 3.078079
29  -0.000001 13.479278 -0.000000  0.461424 -0.000000 0.000000
30  0.000001 13.477240 0.000000  -0.154586 0.229554 -0.083070
31  0.267271 3.664726 -1.953293  -0.460947 0.085209 1.088458
32  -0.000002 1.180357 -0.000000  -0.015239 0.034122 1.127932
33  -0.000002 0.817136 0.000000  0.011847 0.003300 0.943166
34  0.249422 3.688540 -0.940888  -0.424660 0.091165 1.116984
35  -0.000003 1.800633 0.000001  0.000989 -0.005266 1.195710
36  -0.000002 1.243405 0.000002  0.003628 -0.005422 1.051829
37  0.244727 3.701094 0.087734  -0.354828 0.115299 1.122151
38  0.000000 1.766585 -0.000000  0.004336 -0.000101 1.242448
39  0.000001 1.189001 0.000000  -0.008134 0.015718 1.135168
40  0.277240 3.632247 1.274103  0.054201 -0.011943 0.177044
41  0.000000 1.798493 0.000001  0.035950 -0.011837 0.318251
42  0.000000 1.235452 0.000001  -0.007454 -0.004176 0.481101
43  -0.315441 0.857298 0.755944  -0.305463 -2.814040 0.955370
44  0.000000 2.265940 -0.000001  -0.046734 0.047387 0.515787
45  0.000001 1.457810 0.000001  -0.053363 -0.013780 0.716641
46  1.259681 3.818373 1.286947  0.054201 -0.011943 0.177044
47  1.226391 3.891693 0.090420  -0.354828 0.115299 1.122150
48  1.231623 3.875533 -0.958679  -0.424660 0.091165 1.116984
49  1.209920 3.994780 -2.003046  -0.460947 0.085209 1.088458
50  -0.328906 0.095428 1.403534  -0.305463 -2.814040 0.955370
51  -8.106776 -14.812089 11.359263  1.538201 0.007468 -2.967439
52  -9.209054 -23.431993 -0.264549  -1.570796 -0.000000 1.570796
53  -9.154455 -11.766430 -14.684287  -0.051945 0.000000 1.570796
54  -7.394347 -16.084534 -12.669373  1.595984 -0.000038 -0.001731
55  0.396052 3.998728 31.950838  -1.535889 -1.570788 0.000000
56  1.262199 1.411917 7.366346  0.000000 0.034907 0.000000
57  1.073199 1.711408 3.572255  0.000000 0.033161 -0.000000
58  -1.325719 2.109441 7.526391  0.000000 -0.000000 0.000000
time 10
0  0 0 0  0 0 0
1  0.000000 0.000000 0.000000  1.570796 -0.000000 0.000000
2  11.426482 -17.423515 14.151665  0.577261 0.434740 1.701824
3  0.000003 13.479279 -0.000001  0.704990 0.000000 -0.000000
4  0.000002 13.477240 0.000000  -0.616643 0.274204 0.554317
5  -0.267269 3.664726 -1.953294  -0.118308 0.035174 -0.880748
6  -0.000001 1.180355 0.000002  -0.022123 -0.030120 -0.914402
7  -0.000000 0.817134 0.000003  0.010879 -0.005735 -0.729721
8  -0.249421 3.688540 -0.940892  -0.082322 0.048500 -0.873567
9  -0.000001 1.800632 0.000002  0.002249 0.004864 -0.948281
10  -0.000001 1.243409 0.000000  0.004845 0.004368 -0.804401
11  -0.244725 3.701097 0.087733  -0.013059 0.024865 -0.746408
12  0.000001 1.766584 0.000004  0.004071 -0.001496 -0.866835
13  -0.000002 1.189002 0.000003  -0.013333 -0.011638 -0.759538
14  -0.277239 3.632248 1.274099  0.038868 0.009697 -0.600690
15  0.000000 1.798495 -0.000002  0.027922 0.025554 -0.741251
16  -0.000001 1.235453 0.000001  -0.007625 0.003855 -0.523688
17  0.315442 0.857302 0.755943  1.930500 0.578402 1.467848
18  0.000000 2.265940 -0.000000  -0.057535 -0.033450 -0.250071
19  -0.000000 1.457806 0.000002  -0.030127 0.046156 0.023093
20  -1.259680 3.818376 1.286944  0.038868 0.009697 -0.600690
21  -1.226389 3.891694 0.090418  -0.013059 0.024865 -0.746408
22  -1.231622 3.875535 -0.958683  -0.082322 0.048500 -0.873567
23  -1.209918 3.994784 -2.003049  -0.118308 0.035174 -0.880748
24  0.328907 0.095430 1.403532  1.930500 0.578402 1.467848
25  -4.689450 -10.933861 32.541321  0.675047 -0.025954 2.117609
26  -3.310055 -16.887754 19.441708  -1.570796 -0.000000 -1.570796
27  11.426482 -17.423515 14.151665  -0.051945 -0.000000 -1.570796
28  -9.154455 -11.766430 -14.684287  1.230086 -0.047599 3.077998
29  -0.000002 13.479278 -0.000002  0.446396 -0.000000 0.000000
30  -0.000001 13.477239 -0.000001  -0.129575 0.230945 -0.077315
31  0.267270 3.664726 -1.953296  -0.460947 0.085209 1.088458
32  -0.000000 1.180356 0.000001  -0.015239 0.034122 1.127932
33  -0.000001 0.817137 0.000000  0.011847 0.003300 0.943166
34  0.249423 3.688541 -0.940890  -0.424660 0.091165 1.116984
35  0.000003 1.800633 -0.000001  0.000989 -0.005266 1.195710
36  0.000002 1.243407 -0.000001  0.003628 -0.005422 1.051829
37  0.244727 3.701096 0.087731  -0.354828 0.115299 1.122151
38  0.000000 1.766584 0.000001  0.004336 -0.000101 1.242448
39  -0.000000 1.189003 -0.000002  -0.008134 0.015718 1.135168
40  0.277239 3.632249 1.274101  0.054201 -0.011943 0.177044
41  0.000001 1.798494 0.000001  0.035950 -0.011837 0.318251
42  0.000001 1.235453 -0.000000  -0.007454 -0.004176 0.481101
43  -0.315441 0.857300 0.755942  -0.305463 -2.814040 0.955370
44  0.000001 2.265941 0.000000  -0.046734 0.047387 0.515787
45  0.000001 1.457811 -0.000000  -0.053363 -0.013780 0.716642
46  1.259682 3.818374 1.286945  0.054201 -0.011943 0.177044
47  1.226391 3.891694 0.090417  -0.354828 0.115299 1.122150
48  1.231623 3.875535 -0.958682  -0.424660 0.091165 1.116984
49  1.209920 3.994782 -2.003050  -0.460947 0.085209 1.088458
50  -0.328906 0.095428 1.403531  -0.305463 -2.814040 0.955370
51  -8.110701 -14.921603 11.392454  1.550716 0.004385 -2.967399
52  -9.209054 -23.431993 -0.264549  -1.570796 -0.000000 1.570796
53  -9.154455 -11.766430 -14.684287  -0.051945 0.000000 1.570796
54  -7.394111 -16.089161 -12.718330  1.583125 -0.000021 -0.000863
55  0.396052 3.998727 31.950844  -1.535889 -1.570788 0.000000
56  1.262198 1.411917 7.366344  0.000000 0.034907 -0.000000
57  1.073198 1.711409 3.572254  0.000000 0.033161 0.000000
58  -1.325719 2.109441 7.526391  0.000000 0.000000 -0.000000
time 11
0  0 0 0  0 0 0
1  0.000000 0.000000 0.000000  1.570796 -0.000000 0.000000
2  11.426482 -17.423515 14.151665  0.583633 0.444456 1.706142
3  0.000001 13.479280 0.000001  0.700217 0.000000 -0.000000
4  0.000001 13.477242 0.000001  -0.615633 0.271285 0.550933
5  -0.267268 3.664724 -1.953292  -0.118308 0.035174 -0.880748
6  -0.000001 1.180353 0.000000  -0.022123 -0.030120 -0.914402
7  -0.000001 0.817136 -0.000003  0.010879 -0.005735 -0.729721
8  -0.249422 3.688540 -0.940889  -0.082322 0.048500 -0.873567
9  -0.000001 1.800633 0.000001  0.002249 0.004864 -0.948281
10  -0.000003 1.243406 0.000001  0.004845 0.004368 -0.804401
11  -0.244726 3.701094 0.087733  -0.013059 0.024865 -0.746408
12  0.000000 1.766582 -0.000002  0.004071 -0.001497 -0.866835
13  0.000001 1.189003 -0.000001  -0.013333 -0.011638 -0.759537
14  -0.277239 3.632247 1.274104  0.038868 0.009697 -0.600690
15  -0.000000 1.798496 0.000001  0.027922 0.025554 -0.741251
16  0.000000 1.235450 0.000001  -0.007625 0.003855 -0.523688
17  0.315442 0.857298 0.755946  1.930500 0.578402 1.467848
18  0.000001 2.265939 -0.000000  -0.057535 -0.033451 -0.250071
19  0.000000 1.457814 -0.000002  -0.030127 0.046156 0.023093
20  -1.259680 3.818371 1.286946  0.038868 0.009697 -0.600690
21  -1.226390 3.891693 0.090422  -0.013059 0.024865 -0.746408
22  -1.231622 3.875533 -0.958677  -0.082322 0.048500 -0.873567
23  -1.209919 3.994780 -2.003047  -0.118308 0.035174 -0.880748
24  0.328907 0.095425 1.403532  1.930500 0.578402 1.467848
25  -4.678761 -10.784525 32.527859  0.682275 -0.015299 2.117441
26  -3.310055 -16.887754 19.441708  -1.570796 -0.000000 -1.570796
27  11.426482 -17.423515 14.151665  -0.051945 -0.000000 -1.570796
28  -9.154455 -11.766430 -14.684287  1.235394 -0.047735 3.077829
29  -0.000001 13.479278 -0.000002  0.426963 -0.000000 0.000000
30  0.000001 13.477240 -0.000001  -0.101881 0.232457 -0.071230
31  0.267270 3.664726 -1.953292  -0.460947 0.085209 1.088458
32  0.000000 1.180354 0.000000  -0.015239 0.034122 1.127932
33  0.000000 0.817136 0.000000  0.011847 0.003300 0.943166
34  0.249423 3.688541 -0.940888  -0.424660 0.091165 1.116984
35  0.000000 1.800633 0.000001  0.000989 -0.005266 1.195710
36  0.000000 1.243407 -0.000000  0.003628 -0.005422 1.051829
37  0.244726 3.701096 0.087734  -0.354828 0.115299 1.122151
38  0.000001 1.766584 0.000000  0.004336 -0.000101 1.242448
39  0.000001 1.189002 0.000002  -0.008134 0.015718 1.135168
40  0.277240 3.632249 1.274104  0.054201 -0.011943 0.177044
41  0.000000 1.798494 0.000001  0.035950 -0.011837 0.318251
42  0.000001 1.235449 0.000001  -0.007454 -0.004176 0.481101
43  -0.315440 0.857300 0.755946  -0.305464 -2.814040 0.955370
44  0.000000 2.265939 0.000002  -0.046734 0.047387 0.515787
45  0.000000 1.457813 0.000002  -0.053364 -0.013780 0.716641
46  1.259682 3.818375 1.286948  0.054201 -0.011943 0.177044
47  1.226392 3.891694 0.090420  -0.354828 0.115299 1.122150
48  1.231624 3.875535 -0.958679  -0.424660 0.091165 1.116984
49  1.209919 3.994782 -2.003047  -0.460947 0.085209 1.088458
50  -0.328906 0.095428 1.403534  -0.305463 -2.814040 0.955370
51  -8.113461 -15.043809 11.434191  1.563271 0.001532 -2.967380
52  -9.209054 -23.431993 -0.264549  -1.570796 -0.000000 1.570796
53  -9.154455 -11.766430 -14.684287  -0.051945 0.000000 1.570796
54  -7.393867 -16.101721 -12.780339  1.570266 -0.000009 -0.000230
55  0.396051 3.998729 31.950842  -1.535889 -1.570788 0.000000
56  1.262198 1.411918 7.366346  0.000000 0.034907 0.000000
57  1.073199 1.711409 3.572256  -0.000000 0.033161 0.000000
58  -1.325719 2.109442 7.526391  -0.000000 -0.000000 0.000000
time 12
0  0 0 0  0 0 0
1  0.000000 0.000000 0.000000  1.570796 -0.000000 0.000000
2  11.426482 -17.423515 14.151665  0.586604 0.446373 1.706999
3  0.000000 13.479278 -0.000001  0.696824 0.000000 -0.000000
4  -0.000002 13.477242 0.000000  -0.613688 0.271039 0.547677
5  -0.267269 3.664727 -1.953291  -0.118308 0.035174 -0.880748
6  -0.000002 1.180356 0.000002  -0.022123 -0.030120 -0.914402
7  -0.000002 0.817133 -0.000001  0.010879 -0.005735 -0.729721
8  -0.249423 3.688541 -0.940888  -0.082322 0.048500 -0.873567
9  -0.000000 1.800632 -0.000002  0.002249 0.004864 -0.948281
10  -0.000000 1.243406 -0.000003  0.004845 0.004368 -0.804401
11  -0.244727 3.701096 0.087732  -0.013059 0.024865 -0.746408
12  0.000000 1.766586 0.000004  0.004071 -0.001496 -0.866835
13  0.000000 1.189005 -0.000001  -0.013333 -0.011638 -0.759537
14  -0.277240 3.632247 1.274102  0.038868 0.009697 -0.600690
15  0.000000 1.798492 -0.000004  0.027922 0.025554 -0.741251
16  -0.000001 1.235452 0.000002  -0.007625 0.003855 -0.523688
17  0.315440 0.857300 0.755944  1.930500 0.578402 1.467848
18  0.000001 2.265940 -0.000000  -0.057535 -0.033450 -0.250071
19  -0.000000 1.457813 -0.000001  -0.030127 0.046156 0.023093
20  -1.259682 3.818375 1.286947  0.038868 0.009697 -0.600690
21  -1.226391 3.891692 0.090420  -0.013059 0.024865 -0.746408
22  -1.231623 3.875534 -0.958680  -0.082322 0.048500 -0.873567
23  -1.209919 3.994782 -2.003046  -0.118308 0.035174 -0.880748
24  0.328906 0.095428 1.403533  1.930500 0.578402 1.467848
25  -4.674598 -10.747598 32.539711  0.685523 -0.010433 2.117394
26  -3.310055 -16.887754 19.441708  -1.570796 -0.000000 -1.570796
27  11.426482 -17.423515 14.151665  -0.051945 -0.000000 -1.570796
28  -9.154455 -11.766430 -14.684287  1.240939 -0.047855 3.077680
29  -0.000001 13.479278 0.000000  0.409754 -0.000000 0.000000
30  0.000000 13.477238 0.000002  -0.083914 0.233513 -0.067318
31  0.267270 3.664726 -1.953292  -0.460947 0.085209 1.088458
32  0.000000 1.180355 -0.000002  -0.015239 0.034122 1.127932
33  -0.000001 0.817135 -0.000000  0.011847 0.003300 0.943166
34  0.249424 3.688541 -0.940888  -0.424660 0.091165 1.116984
35  0.000002 1.800633 0.000001  0.000989 -0.005266 1.195711
36  -0.000001 1.243405 0.000001  0.003628 -0.005422 1.051829
37  0.244726 3.701095 0.087734  -0.354828 0.115299 1.122151
38  0.000000 1.766584 -0.000001  0.004336 -0.000101 1.242448
39  -0.000001 1.189006 0.000001  -0.008134 0.015718 1.135168
40  0.277239 3.632248 1.274103  0.054201 -0.011943 0.177044
41  0.000001 1.798494 0.000000  0.035950 -0.011837 0.318251
42  0.000001 1.235450 0.000000  -0.007454 -0.004176 0.481101
43  -0.315441 0.857299 0.755945  -0.305464 -2.814040 0.955370
44  -0.000001 2.265940 0.000000  -0.046734 0.047387 0.515788
45  -0.000003 1.457811 0.000000  -0.053363 -0.013780 0.716642
46  1.259682 3.818374 1.286946  0.054201 -0.011943 0.177044
47  1.226391 3.891692 0.090420  -0.354828 0.115299 1.122150
48  1.231624 3.875534 -0.958680  -0.424660 0.091165 1.116984
49  1.209920 3.994781 -2.003047  -0.460947 0.085209 1.088458
50  -0.328906 0.095429 1.403533  -0.305464 -2.814040 0.955370
51  -8.114488 -15.130081 11.472135  1.568985 0.000278 -2.967380
52  -9.209054 -23.431993 -0.264549  -1.570796 -0.000000 1.570796
53  -9.154455 -11.766430 -14.684287  -0.051945 0.000000 1.570796
54  -7.393738 -16.126181 -12.839374  1.564420 -0.000005 0.000016
55  0.396052 3.998728 31.950836  -1.535889 -1.570788 0.000000
56  1.262199 1.411916 7.366344  0.000000 0.034907 0.000000
57  1.073198 1.711407 3.572253  -0.000000 0.033161 -0.000000
58  -1.325719 2.109440 7.526389  -0.000000 -0.000000 0.000000
time 13
0  0 0 0  0 0 0
1  0.000000 0.000000 0.000000  1.570796 -0.000000 0.000000
2  11.426482 -17.423515 14.151665  0.588958 0.440044 1.704176
3  0.000002 13.479279 0.000001  0.690460 0.000000 -0.000000
4  0.000001 13.477238 -0.000000  -0.609399 0.272846 0.545029
5  -0.267270 3.664724 -1.953292  -0.118308 0.035174 -0.880748
6  -0.000001 1.180356 0.000000  -0.022123 -0.030120 -0.914402
7  -0.000000 0.817133 0.000000  0.010879 -0.005735 -0.729721
8  -0.249424 3.688540 -0.940887  -0.082322 0.048500 -0.873567
9  -0.000001 1.800633 0.000001  0.002248 0.004864 -0.948281
10  0.000001 1.243405 -0.000002  0.004845 0.004368 -0.804401
11  -0.244727 3.701093 0.087733  -0.013059 0.024865 -0.746408
12  -0.000002 1.766587 0.000001  0.004071 -0.001496 -0.866835
13  0.000002 1.189003 -0.000001  -0.013333 -0.011638 -0.759538
14  -0.277240 3.632247 1.274105  0.038868 0.009697 -0.600690
15  -0.000000 1.798493 0.000003  0.027922 0.025554 -0.741251
16  0.000001 1.235451 0.000003  -0.007625 0.003855 -0.523688
17  0.315441 0.857298 0.755946  1.930500 0.578402 1.467848
18  0.000000 2.265937 0.000001  -0.057535 -0.033450 -0.250071
19  0.000000 1.457813 -0.000002  -0.030127 0.046156 0.023093
20  -1.259681 3.818373 1.286947  0.038868 0.009697 -0.600690
21  -1.226390 3.891689 0.090420  -0.013059 0.024865 -0.746408
22  -1.231624 3.875532 -0.958678  -0.082322 0.048500 -0.873567
23  -1.209920 3.994780 -2.003049  -0.118308 0.035174 -0.880748
24  0.328905 0.095426 1.403535  1.930500 0.578402 1.467848
25  -4.674699 -10.817581 32.605007  0.684658 -0.011839 2.117404
26  -3.310055 -16.887754 19.441708  -1.570796 -0.000000 -1.570796
27  11.426482 -17.423515 14.151665  -0.051945 -0.000000 -1.570796
28  -9.154455 -11.766430 -14.684287  1.251478 -0.047834 3.077706
29  -0.000001 13.479278 0.000001  0.386585 0.000000 0.000000
30  0.000001 13.477238 -0.000001  -0.072653 0.234297 -0.064592
31  0.267270 3.664728 -1.953294  -0.460947 0.085209 1.088458
32  0.000002 1.180355 0.000001  -0.015239 0.034122 1.127932
33  0.000000 0.817135 0.000003  0.011847 0.003300 0.943166
34  0.249423 3.688543 -0.940891  -0.424660 0.091165 1.116984
35  -0.000001 1.800634 0.000001  0.000989 -0.005266 1.195710
36  0.000000 1.243407 0.000001  0.003628 -0.005422 1.051829
37  0.244727 3.701097 0.087732  -0.354828 0.115299 1.122151
38  0.000001 1.766583 -0.000001  0.004336 -0.000101 1.242448
39  0.000000 1.189004 0.000001  -0.008134 0.015718 1.135167
40  0.277240 3.632249 1.274101  0.054201 -0.011943 0.177044
41  0.000000 1.798494 0.000000  0.035950 -0.011837 0.318251
42  -0.000002 1.235451 -0.000001  -0.007454 -0.004176 0.481101
43  -0.315440 0.857301 0.755942  -0.305464 -2.814040 0.955370
44  -0.000000 2.265939 0.000000  -0.046734 0.047387 0.515787
45  0.000000 1.457811 0.000002  -0.053363 -0.013780 0.716642
46  1.259682 3.818375 1.286944  0.054201 -0.011943 0.177044
47  1.226391 3.891695 0.090418  -0.354828 0.115299 1.122150
48  1.231623 3.875536 -0.958683  -0.424660 0.091165 1.116984
49  1.209920 3.994782 -2.003050  -0.460947 0.085209 1.088458
50  -0.328906 0.095429 1.403531  -0.305464 -2.814040 0.955370
51  -8.114434 -15.165277 11.530204  1.567360 0.000571 -2.967381
52  -9.209054 -23.431993 -0.264549  -1.570796 -0.000000 1.570796
53  -9.154455 -11.766430 -14.684287  -0.051945 0.000000 1.570796
54  -7.393718 -16.188030 -12.882256  1.566072 -0.000005 0.000008
55  0.396052 3.998728 31.950834  -1.535889 -1.570788 0.000000
56  1.262199 1.411917 7.366343  0.000000 0.034907 0.000000
57  1.073199 1.711410 3.572254  -0.000000 0.033161 0.000000
58  -1.325719 2.109441 7.526388  -0.000000 0.000000 -0.000000
time 14
0  0 0 0  0 0 0
1  0.000000 0.000000 0.000000  1.570796 -0.000000 0.000000
2  11.426482 -17.423515 14.151665  0.593329 0.432741 1.700941
3  0.000002 13.479280 0.000002  0.680598 0.000000 -0.000000
4  -0.000002 13.477242 0.000000  -0.603987 0.274220 0.543209
5  -0.267270 3.664725 -1.953293  -0.118308 0.035174 -0.880748
6  0.000000 1.180356 0.000000  -0.022123 -0.030120 -0.914402
7  0.000002 0.817136 0.000001  0.010879 -0.005735 -0.729721
8  -0.249423 3.688543 -0.940886  -0.082322 0.048500 -0.873567
9  0.000000 1.800634 -0.000002  0.002249 0.004864 -0.948281
10  -0.000002 1.243404 0.000000  0.004845 0.004368 -0.804401
11  -0.244727 3.701096 0.087734  -0.013059 0.024865 -0.746408
12  0.000002 1.766583 -0.000000  0.004071 -0.001497 -0.866835
13  0.000000 1.189003 0.000001  -0.013333 -0.011638 -0.759538
14  -0.277241 3.632248 1.274106  0.038868 0.009697 -0.600690
15  -0.000002 1.798493 -0.000000  0.027922 0.025554 -0.741251
16  0.000003 1.235451 -0.000003  -0.007625 0.003855 -0.523688
17  0.315440 0.857299 0.755944  1.930500 0.578402 1.467848
18  -0.000001 2.265938 -0.000002  -0.057535 -0.033450 -0.250071
19  -0.000000 1.457808 0.000001  -0.030127 0.046156 0.023093
20  -1.259682 3.818377 1.286948  0.038868 0.009697 -0.600690
21  -1.226393 3.891695 0.090422  -0.013059 0.024865 -0.746408
22  -1.231624 3.875535 -0.958678  -0.082322 0.048500 -0.873567
23  -1.209921 3.994782 -2.003045  -0.118308 0.035174 -0.880748
24  0.328905 0.095430 1.403535  1.930500 0.578402 1.467848
25  -4.674918 -10.892876 32.692921  0.683052 -0.014452 2.117424
26  -3.310055 -16.887754 19.441708  -1.570796 -0.000000 -1.570796
27  11.426482 -17.423515 14.151665  -0.051945 -0.000000 -1.570796
28  -9.154455 -11.766430 -14.684287  1.266543 -0.047707 3.077864
29  -0.000000 13.479278 -0.000000  0.356349 -0.000000 0.000000
30  -0.000001 13.477238 0.000002  -0.060231 0.235067 -0.061395
31  0.267268 3.664727 -1.953292  -0.460947 0.085209 1.088458
32  0.000002 1.180355 -0.000000  -0.015239 0.034122 1.127932
33  -0.000001 0.817135 -0.000001  0.011847 0.003300 0.943166
34  0.249423 3.688542 -0.940888  -0.424660 0.091165 1.116984
35  0.000000 1.800634 -0.000001  0.000989 -0.005266 1.195710
36  -0.000000 1.243405 0.000000  0.003628 -0.005422 1.051829
37  0.244726 3.701096 0.087733  -0.354828 0.115299 1.122151
38  0.000000 1.766585 0.000001  0.004336 -0.000101 1.242448
39  0.000002 1.189002 -0.000000  -0.008134 0.015718 1.135168
40  0.277239 3.632248 1.274102  0.054201 -0.011943 0.177044
41  -0.000000 1.798493 -0.000001  0.035950 -0.011837 0.318251
42  0.000002 1.235452 -0.000001  -0.007454 -0.004176 0.481101
43  -0.315442 0.857300 0.755945  -0.305463 -2.814040 0.955370
44  -0.000001 2.265941 0.000002  -0.046734 0.047387 0.515787
45  0.000000 1.457811 -0.000000  -0.053363 -0.013780 0.716642
46  1.259680 3.818375 1.286945  0.054201 -0.011943 0.177044
47  1.226390 3.891693 0.090420  -0.354828 0.115299 1.122151
48  1.231622 3.875534 -0.958680  -0.424660 0.091165 1.116984
49  1.209918 3.994781 -2.003046  -0.460947 0.085209 1.088458
50  -0.328906 0.095429 1.403533  -0.305463 -2.814040 0.955370
51  -8.114362 -15.175931 11.604837  1.564343 0.001116 -2.967383
52  -9.209054 -23.431993 -0.264549  -1.570796 -0.000000 1.570796
53  -9.154455 -11.766430 -14.684287  -0.051945 0.000000 1.570796
54  -7.393710 -16.269651 -12.907203  1.569138 -0.000005 -0.000006
55  0.396052 3.998729 31.950842  -1.535889 -1.570788 0.000000
56  1.262199 1.411916 7.366346  0.000000 0.034907 -0.000000
57  1.073198 1.711408 3.572255  0.000000 0.033161 0.000000
58  -1.325719 2.109442 7.526392  0.000000 -0.000000 -0.000000
time 15
0  0 0 0  0 0 0
1  0.000000 0.000000 0.000000  1.570796 -0.000000 0.000000
2  11.426482 -17.423515 14.151665  0.595721 0.429257 1.699406
3  -0.000001 13.479278 0.000002  0.675426 0.000000 -0.000000
4  -0.000004 13.477240 0.000000  -0.601303 0.274750 0.542553
5  -0.267269 3.664726 -1.953293  -0.118308 0.035174 -0.880748
6  0.000000 1.180355 0.000000  -0.022123 -0.030119 -0.914402
7  0.000000 0.817135 -0.000001  0.010879 -0.005735 -0.729721
8  -0.249423 3.688541 -0.940889  -0.082322 0.048500 -0.873567
9  0.000001 1.800632 -0.000002  0.002249 0.004864 -0.948281
10  -0.000000 1.243405 0.000002  0.004846 0.004368 -0.804401
11  -0.244726 3.701094 0.087731  -0.013059 0.024865 -0.746408
12  -0.000001 1.766583 -0.000000  0.004071 -0.001496 -0.866835
13  -0.000002 1.189003 0.000000  -0.013333 -0.011638 -0.759538
14  -0.277239 3.632248 1.274103  0.038868 0.009698 -0.600690
15  0.000001 1.798495 -0.000002  0.027922 0.025554 -0.741251
16  -0.000002 1.235451 0.000003  -0.007625 0.003855 -0.523688
17  0.315442 0.857299 0.755944  1.930500 0.578402 1.467848
18  -0.000000 2.265938 0.000004  -0.057535 -0.033451 -0.250071
19  0.000002 1.457811 -0.000000  -0.030127 0.046156 0.023093
20  -1.259681 3.818374 1.286946  0.038868 0.009697 -0.600690
21  -1.226391 3.891694 0.090421  -0.013059 0.024865 -0.746408
22  -1.231622 3.875532 -0.958681  -0.082322 0.048500 -0.873567
23  -1.209920 3.994783 -2.003047  -0.118308 0.035174 -0.880748
24  0.328905 0.095431 1.403534  1.930500 0.578402 1.467847
25  -4.675038 -10.928073 32.736938  0.682188 -0.015858 2.117438
26  -3.310055 -16.887754 19.441708  -1.570796 -0.000000 -1.570796
27  11.426482 -17.423515 14.151665  -0.051945 -0.000000 -1.570796
28  -9.154455 -11.766430 -14.684287  1.274534 -0.047630 3.077959
29  0.000000 13.479280 -0.000000  0.340679 0.000000 0.000000
30  0.000001 13.477240 0.000001  -0.054042 0.235424 -0.059778
31  0.267269 3.664726 -1.953295  -0.460947 0.085209 1.088458
32  -0.000001 1.180355 -0.000001  -0.015239 0.034122 1.127932
33  -0.000000 0.817135 0.000001  0.011847 0.003300 0.943166
34  0.249422 3.688541 -0.940889  -0.424660 0.091165 1.116984
35  -0.000000 1.800633 0.000002  0.000989 -0.005266 1.195710
36  0.000001 1.243405 0.000001  0.003628 -0.005422 1.051829
37  0.244725 3.701095 0.087732  -0.354828 0.115299 1.122151
38  -0.000001 1.766584 0.000001  0.004336 -0.000101 1.242448
39  0.000001 1.189005 -0.000000  -0.008134 0.015718 1.135168
40  0.277238 3.632248 1.274101  0.054201 -0.011943 0.177044
41  -0.000000 1.798494 -0.000000  0.035950 -0.011837 0.318251
42  0.000001 1.235449 -0.000000  -0.007454 -0.004176 0.481101
43  -0.315442 0.857299 0.755944  -0.305463 -2.814040 0.955370
44  -0.000003 2.265940 0.000000  -0.046734 0.047387 0.515788
45  0.000002 1.457812 -0.000001  -0.053363 -0.013780 0.716641
46  1.259681 3.818375 1.286945  0.054201 -0.011943 0.177044
47  1.226389 3.891692 0.090418  -0.354828 0.115299 1.122150
48  1.231622 3.875533 -0.958680  -0.424660 0.091165 1.116984
49  1.209918 3.994781 -2.003047  -0.460947 0.085209 1.088458
50  -0.328907 0.095429 1.403532  -0.305464 -2.814040 0.955370
51  -8.114326 -15.176305 11.641788  1.562718 0.001410 -2.967386
52  -9.209054 -23.431993 -0.264549  -1.570796 -0.000000 1.570796
53  -9.154455 -11.766430 -14.684287  -0.051945 0.000000 1.570796
54  -7.393709 -16.310347 -12.915282  1.570789 -0.000005 -0.000013
55  0.396051 3.998729 31.950836  -1.535889 -1.570788 0.000000
56  1.262198 1.411915 7.366343  0.000000 0.034907 -0.000000
57  1.073198 1.711408 3.572254  -0.000000 0.033161 0.000000
58  -1.325719 2.109441 7.526390  -0.000000 -0.000000 -0.000000
end
